<svg xmlns="http://www.w3.org/2000/svg" viewBox="0 0 54 50"><path d="M35.3 1.8C31.9.5 28.5 0 25.2 0v1c3.3 0 6.6.6 9.8 1.7 6.7 2.4 12.1 7 15.3 12.9 3.2 5.9 3.8 12.4 1.6 18.3C48.6 43 39.6 49 28.8 49c-3.3 0-6.6-.6-9.8-1.7C5.3 42.4-2.3 28.4 2.1 16.1 5.4 6.9 14.4 1 25.2 1V0C14.4 0 4.7 6 1.2 15.8c-4.6 12.8 3.3 27.4 17.5 32.5 3.4 1.2 6.8 1.8 10.1 1.8 10.8 0 20.5-6 24-15.8 4.6-12.9-3.2-27.5-17.5-32.5z"/><path d="M41.22 19.84a.518.518 0 00-.39-.31l-1.54-.24-.29-2.15a.51.51 0 00-.22-.35.513.513 0 00-.4-.07l-2.19.56-.52-1.59a.476.476 0 00-.49-.34l-1.47.05-.17-1.66a.502.502 0 00-.46-.45l-1.84-.14-1.18-1.78a.473.473 0 00-.4-.22c-.15.01-.32.07-.41.2-1.49 1.98 1.63 6.62 2.62 8-.62.67-2.08 2.38-3.32 4.86-2.48-3.09-5.31-4.87-6.32-5.45.57-1.7 2.36-7.58.18-9.15-.13-.1-.3-.12-.45-.07-.15.05-.27.18-.32.33l-.66 2.25-1.89.74c-.23.09-.36.33-.31.56l.36 1.82-1.58.43a.49.49 0 00-.37.47L17.16 18l-2.5.12a.5.5 0 00-.47.59l.4 2.36-1.55.76a.51.51 0 00-.28.41c-.02.17.06.34.21.45.38.28.86.4 1.39.4 2.51 0 6.22-2.67 7.32-3.5.9.5 3.9 2.35 6.41 5.64-1.65 3.79-2.56 9.04.32 14.95l.22.45.9-.44-.22-.45c-2.58-5.29-1.94-10.03-.53-13.56 2.12 3.15 3.66 7.44 2.81 12.95l-.08.49.99.15.08-.49c.94-6.13-.91-10.82-3.33-14.18 1.26-2.69 2.86-4.52 3.43-5.13.98.36 3.71 1.27 5.89 1.27 1.12 0 2.1-.24 2.62-.93.11-.14.13-.33.06-.49zm-25.97-.72l2.41-.12a.51.51 0 00.48-.49l.03-1.95 1.67-.45c.25-.07.41-.32.36-.58l-.37-1.87 1.73-.68c.14-.06.25-.18.3-.32l.44-1.48c.54 1.67-.29 5.24-1.1 7.54-1.77 1.37-4.56 3.1-6.36 3.38l.52-.26c.2-.1.31-.31.27-.53l-.37-2.18zm17.58-.13c-1.3-1.75-2.93-4.53-3-6.14l.71 1.07c.09.13.23.21.38.22l1.67.12.18 1.71c.03.26.24.47.52.45l1.56-.06.55 1.67c.08.25.34.4.6.33l2.1-.54.26 1.97c.03.22.2.39.42.43l.24.04c-1.67.13-4.36-.59-6.18-1.27z"/></svg>