<svg xmlns="http://www.w3.org/2000/svg" viewBox="0 0 54 50"><path d="M35.3 1.8C31.9.5 28.5 0 25.2 0v1c3.3 0 6.6.6 9.8 1.7 6.7 2.4 12.1 7 15.3 12.9s3.8 12.4 1.6 18.3C48.6 43 39.6 49 28.8 49c-3.3 0-6.6-.6-9.8-1.7C5.3 42.4-2.3 28.4 2.1 16.1 5.4 6.9 14.4 1 25.2 1V0C14.4 0 4.7 6 1.2 15.8c-4.6 12.8 3.3 27.4 17.5 32.5 3.4 1.2 6.8 1.8 10.1 1.8 10.8 0 20.5-6 24-15.8 4.6-12.9-3.2-27.5-17.5-32.5z"/><path d="M27.8 17.3c-4.2 0-7.7 3.4-7.7 7.7 0 4.2 3.4 7.6 7.7 7.6s7.6-3.4 7.6-7.6c.1-4.2-3.4-7.7-7.6-7.7zm0 14.4a6.7 6.7 0 116.7-6.7c.1 3.7-3 6.7-6.7 6.7z"/><path d="M39.4 25c0-.5-.3-.8-.6-1.2-.2-.2-.3-.4-.4-.5 0-.1.1-.4.2-.6.2-.4.4-.8.2-1.3-.1-.4-.6-.7-.9-.9-.2-.1-.5-.3-.5-.4-.1-.1 0-.4 0-.6 0-.4.1-.9-.2-1.3s-.7-.5-1.2-.6c-.2 0-.5-.1-.6-.2s-.2-.4-.2-.6c-.1-.4-.2-.9-.6-1.2-.4-.3-.9-.2-1.3-.2-.2 0-.5.1-.6 0s-.3-.3-.4-.5c-.2-.4-.5-.8-.9-.9-.4-.1-.9.1-1.3.2-.2.1-.5.2-.6.2s-.3-.2-.5-.4c-.3-.3-.7-.6-1.2-.6s-.8.3-1.2.6c-.2.2-.4.3-.5.4-.1 0-.4-.1-.6-.2-.4-.2-.8-.4-1.3-.2-.4.1-.7.6-.9.9-.1.2-.3.5-.4.5-.1.1-.4 0-.6 0-.4 0-.9-.1-1.3.2s-.5.7-.6 1.2c0 .2-.1.5-.2.6s-.4.2-.6.2c-.4.1-.9.2-1.2.6-.3.4-.2.9-.2 1.3 0 .2.1.5 0 .6s-.3.3-.5.4c-.4.2-.8.5-.9.9s.1.9.2 1.3c.1.2.2.5.2.6s-.2.3-.4.5c-.3.3-.6.7-.6 1.2s.3.8.6 1.2c.2.2.3.4.4.5 0 .1-.1.4-.2.6-.2.4-.4.8-.2 1.3.1.4.6.7.9.9.2.1.5.3.5.4.1.1 0 .4 0 .6 0 .4-.1.9.2 1.3.3.4.7.5 1.2.6.2 0 .5.1.6.2.1.1.2.4.2.6.1.4.2.9.6 1.2s.9.2 1.3.2c.2 0 .5-.1.6 0s.3.3.4.5c.2.4.5.8.9.9.4.1.9-.1 1.3-.2.2-.1.5-.2.6-.2s.3.2.5.4c.3.3.7.6 1.2.6s.8-.3 1.2-.6c.2-.2.4-.3.5-.4.1 0 .4.1.6.2.4.2.8.4 1.3.2.4-.1.7-.6.9-.9.1-.2.3-.5.4-.5.1-.1.4 0 .6 0 .4 0 .9.1 1.3-.2.4-.3.5-.7.6-1.2 0-.2.1-.5.2-.6.1-.1.4-.2.6-.2.4-.1.9-.2 1.2-.6.3-.4.2-.9.2-1.3 0-.2-.1-.5 0-.6s.3-.3.5-.4c.4-.2.8-.5.9-.9.1-.4-.1-.9-.2-1.3-.1-.2-.2-.5-.2-.6s.2-.3.4-.5c.2-.4.6-.7.6-1.2zm-1.3.6c-.2.3-.5.6-.6 1s.1.8.3 1.1c.1.2.2.5.2.6s-.3.3-.5.4c-.3.2-.7.4-.9.8s-.1.8-.1 1.2c0 .2.1.6 0 .7s-.4.2-.6.2c-.4.1-.8.2-1.1.5-.3.3-.4.7-.4 1.1 0 .2-.1.6-.2.6-.1.1-.4 0-.7 0-.4 0-.8-.1-1.2.1-.4.2-.6.5-.8.9-.1.2-.3.5-.4.5s-.4-.1-.6-.2c-.3-.2-.7-.3-1.1-.3-.4.1-.7.3-1 .6-.2.2-.4.4-.6.4-.1 0-.4-.2-.6-.4-.3-.2-.6-.5-1-.6H26c-.3 0-.7.1-1 .3-.2.1-.5.2-.6.2s-.3-.3-.4-.5c-.2-.3-.4-.7-.8-.9s-.8-.1-1.2-.1c-.2 0-.6.1-.7 0s-.2-.4-.2-.6c-.1-.4-.2-.8-.4-1.1-.3-.3-.7-.4-1.1-.4-.2 0-.6-.1-.6-.2-.1-.1 0-.4 0-.7 0-.4.1-.8-.1-1.2-.2-.4-.5-.6-.9-.8-.2-.1-.5-.3-.5-.4s.1-.4.2-.6c.2-.3.3-.7.3-1.1-.1-.4-.3-.7-.6-1-.2-.2-.4-.4-.4-.6 0-.1.2-.4.4-.6.2-.3.5-.6.6-1s-.1-.8-.3-1.1c-.1-.2-.2-.5-.2-.6s.3-.3.5-.4c.3-.2.7-.4.9-.8.2-.4.1-.8.1-1.2 0-.2-.1-.6 0-.7s.4-.2.6-.2c.4-.1.8-.2 1.1-.4.3-.3.4-.7.4-1.1.1-.2.1-.6.2-.6.1-.1.4 0 .7 0 .4 0 .8.1 1.2-.1.4-.2.6-.5.8-.9.1-.2.3-.5.4-.5s.4.1.6.2c.3.2.7.3 1.1.3.4-.1.7-.3 1-.6.2-.2.4-.4.6-.4.1 0 .4.2.6.4.3.2.6.5 1 .6s.8-.1 1.1-.3c.2-.1.5-.2.6-.2s.3.3.4.5c.2.3.4.7.8.9.4.2.8.1 1.2.1.2 0 .6-.1.7 0 .1.1.2.4.2.6.1.4.2.8.4 1.1.3.3.7.4 1.1.4.2.1.6.1.6.2.1.1 0 .4 0 .7 0 .4-.1.8.1 1.2.2.4.5.6.9.8.2.1.5.3.5.4s-.1.4-.2.6c-.2.3-.3.7-.3 1.1.1.4.3.7.6 1 .2.2.4.4.4.6s-.2.3-.3.5zm5.4-8.5c-.5-.7-1.1-1.1-1.9-1.2-.1 0-.3 0-.4.1-.1.1-.2.2-.2.3v17.2c0 .2.2.5.5.5h2.1c.1 0 .3-.1.3-.2.1-.1.1-.2.1-.4l-.6-4.8h.6c.2 0 .4-.2.4-.4.1-.2 1.4-8.1-.9-11.1zm-.4 16H42v-4.4h.6l.5 4.4zm.5-5.3H42V17c.3.1.6.4.8.7 1.7 2.3 1 8.5.8 10.1zM15 16c-.3 0-.5.2-.5.5v3.7c0 1.1-.8 2.1-1.7 2.1h-.1v-5.8c0-.3-.2-.5-.5-.5s-.5.2-.5.5v5.8h-.1c-.9 0-1.7-.9-1.7-2.1v-3.7c0-.3-.2-.5-.5-.5s-.5.2-.5.5v3.7c0 1.6 1.2 3 2.6 3h.1v1.9h-.3c-.2 0-.4.2-.5.4l-.4 8.1c0 .1 0 .2.1.3.4.1.5.1.6.1h2.4c.1 0 .2-.1.3-.1.1-.1.1-.2.1-.3l-.4-8.1c0-.2-.2-.4-.5-.4h-.3v-1.9h.1c1.4 0 2.6-1.3 2.6-3v-3.7c0-.3-.2-.5-.4-.5zm-3.4 17.1L12 26h.7l.4 7.1h-1.5z"/></svg>