<?xml version="1.0" encoding="utf-8"?>
<!-- Generator: Adobe Illustrator 27.1.1, SVG Export Plug-In . SVG Version: 6.00 Build 0)  -->
<svg version="1.1" id="Layer_1" xmlns="http://www.w3.org/2000/svg" xmlns:xlink="http://www.w3.org/1999/xlink" x="0px" y="0px"
	 viewBox="0 0 54 50" style="enable-background:new 0 0 54 50;" xml:space="preserve">
<g>
	<path d="M14.8,18.8v9.7v2.8c0,1.5,1.2,2.7,2.7,2.7h19c1.5,0,2.7-1.2,2.7-2.7v-2.8v-9.7c0-1.5-1.2-2.7-2.7-2.7h-19
		C16,16,14.8,17.3,14.8,18.8z M36.5,32.9h-19c-1,0-1.7-0.8-1.7-1.7v-0.7c0.5,0.4,1.1,0.6,1.7,0.6h19c0.7,0,1.3-0.2,1.7-0.6v0.7
		C38.2,32.2,37.4,32.9,36.5,32.9z M38.2,18.8v9.7c0,1-0.8,1.7-1.7,1.7h-19c-1,0-1.7-0.8-1.7-1.7v-9.7c0-1,0.8-1.7,1.7-1.7h11.9
		L19.3,27.1l0.7,0.7L30.8,17h2.7l-5.8,5.8l0.7,0.7l6.5-6.5h1.6C37.4,17,38.2,17.8,38.2,18.8z"/>
	<polygon points="25.2,0 25.2,0 25.2,0 	"/>
	<path d="M35.3,1.8C31.9,0.5,28.5,0,25.2,0v1c3.3,0,6.6,0.6,9.8,1.7c6.7,2.4,12.1,7,15.3,12.9c3.2,5.9,3.8,12.4,1.6,18.3
		C48.6,43,39.6,49,28.8,49c-3.3,0-6.6-0.6-9.8-1.7C5.3,42.4-2.3,28.4,2.1,16.1C5.4,6.9,14.4,1,25.2,1l0-1c0,0,0,0,0,0
		c-10.8,0-20.5,6-24,15.8c-4.6,12.8,3.3,27.4,17.5,32.5c3.4,1.2,6.8,1.8,10.1,1.8c10.8,0,20.5-6,24-15.8
		C57.4,21.4,49.6,6.8,35.3,1.8z"/>
</g>
</svg>
