<svg xmlns="http://www.w3.org/2000/svg" viewBox="0 0 36 34"><path d="M33.9 10.4c-2.2-4-5.9-7.1-10.4-8.8C19 0 14.1.1 9.9 1.8c-4.3 1.7-7.4 5-8.9 9.1-3 8.5 2.1 18.1 11.5 21.4 2.2.8 4.4 1.2 6.7 1.2 2.4 0 4.8-.5 7-1.4 4.3-1.7 7.4-5 8.9-9.1 1.4-4 1-8.5-1.2-12.6zm.2 12.3c-1.4 3.8-4.3 6.8-8.3 8.5-4 1.6-8.6 1.7-12.9.2C4 28.2-.9 19.2 1.9 11.3c1.4-3.8 4.3-6.8 8.3-8.5 2.1-.9 4.3-1.3 6.6-1.3 2.1 0 4.2.4 6.3 1.1 4.3 1.5 7.8 4.5 9.9 8.3 2.1 3.8 2.4 8 1.1 11.8z"/><path d="M23.6 10.6H23V8.7h-1v1.8h-3.5V8.7h-1v1.8H14V8.7h-1v1.8h-.5c-1.7 0-3 1.4-3 3v7.6c0 1.7 1.4 3 3 3h11.1c1.7 0 3-1.4 3-3v-7.6c0-1.6-1.4-2.9-3-2.9zm2 10.5c0 1.1-.9 2-2 2H12.4c-1.1 0-2-.9-2-2v-7.6c0-1.1.9-2 2-2h.6v1.8h1v-1.8h3.5v1.8h1v-1.8H22v1.8h1v-1.8h.5c1.1 0 2 .9 2 2v7.6z"/><path d="M13 15.7h10.1v1H13zm0 3.5h10.1v1H13z"/></svg>