<svg xmlns="http://www.w3.org/2000/svg" viewBox="0 0 54 50"><path d="M35.3 1.8C31.9.5 28.5 0 25.2 0v1c3.3 0 6.6.6 9.8 1.7 6.7 2.4 12.1 7 15.3 12.9 3.2 5.9 3.8 12.4 1.6 18.3C48.6 43 39.6 49 28.8 49c-3.3 0-6.6-.6-9.8-1.7C5.3 42.4-2.3 28.4 2.1 16.1 5.4 6.9 14.4 1 25.2 1V0C14.4 0 4.7 6 1.2 15.8c-4.6 12.8 3.3 27.4 17.5 32.5 3.4 1.2 6.8 1.8 10.1 1.8 10.8 0 20.5-6 24-15.8 4.6-12.9-3.2-27.5-17.5-32.5z"/><path d="M25.1 15v20h1v-4.1l.17-.21c5.74-7.12-.21-15.6-.27-15.69h-.9zm1 2.28c1.27 2.4 3.1 7.32 0 11.96V17.28zm-7.12 2.42c0 1.04-.73 1.9-1.69 2.13v-6.84h-1v6.84a2.187 2.187 0 01-1.69-2.13v-4.71h-1v4.71c0 1.59 1.17 2.9 2.69 3.14V35h1V22.84a3.185 3.185 0 002.69-3.14v-4.71h-1v4.71zm21.43.88c0-3.08-1.89-5.59-4.21-5.59s-4.21 2.51-4.21 5.59c0 2.71 1.52 4.7 3.66 5L34.79 35h2.8l-.86-9.42c2.15-.3 3.66-2.29 3.66-5zM35.9 34l.3-3.33.3 3.33h-.61zm.3-9.36c-1.89 0-3.21-1.67-3.21-4.06 0-2.53 1.44-4.59 3.21-4.59s3.21 2.06 3.21 4.59c0 2.39-1.32 4.06-3.21 4.06z"/></svg>