<svg xmlns="http://www.w3.org/2000/svg" viewBox="0 0 36 34"><path d="M33.9 10.4c-2.2-4-5.9-7.1-10.4-8.8C19 0 14.1.1 9.9 1.8c-4.3 1.7-7.4 5-8.9 9.1-3 8.5 2.1 18.1 11.5 21.4 2.2.8 4.4 1.2 6.7 1.2 2.4 0 4.8-.5 7-1.4 4.3-1.7 7.4-5 8.9-9.1 1.4-4 1-8.5-1.2-12.6zm.2 12.3c-1.4 3.8-4.3 6.8-8.3 8.5-4 1.6-8.6 1.7-12.9.2C4 28.2-.9 19.2 1.9 11.3c1.4-3.8 4.3-6.8 8.3-8.5 2.1-.9 4.3-1.3 6.6-1.3 2.1 0 4.2.4 6.3 1.1 4.3 1.5 7.8 4.5 9.9 8.3 2.1 3.8 2.4 8 1.1 11.8z"/><path d="M20.5 9.3h-4.4c-4.4 0-5.6 1.2-5.6 5.6v4.4c0 4.4 1.2 5.6 5.6 5.6h4.4c4.4 0 5.6-1.2 5.6-5.6v-4.4c-.1-4.4-1.3-5.6-5.6-5.6zm4.5 10c0 3.9-.7 4.6-4.6 4.6H16c-3.9 0-4.6-.7-4.6-4.6v-4.4c0-3.9.7-4.6 4.6-4.6h4.4c3.9 0 4.6.7 4.6 4.6v4.4z"/><path d="M18.5 12.8h-2.6c-.3 0-.5.2-.5.5v7.5h1v-2.6h2.1c2 0 2.6-.6 2.6-2.6v-.1c0-2-.6-2.7-2.6-2.7zm1.6 2.8c0 1.4-.2 1.6-1.6 1.6h-2.1v-3.4h2.1c1.4 0 1.6.2 1.6 1.6v.2z"/></svg>