<svg xmlns="http://www.w3.org/2000/svg" viewBox="0 0 54 50"><path d="M35.3 1.8C31.9.5 28.5 0 25.2 0v1c3.3 0 6.6.6 9.8 1.7 6.7 2.4 12.1 7 15.3 12.9s3.8 12.4 1.6 18.3C48.6 43 39.6 49 28.8 49c-3.3 0-6.6-.6-9.8-1.7C5.3 42.4-2.3 28.4 2.1 16.1 5.4 6.9 14.4 1 25.2 1V0C14.4 0 4.7 6 1.2 15.8c-4.6 12.8 3.3 27.4 17.5 32.5 3.4 1.2 6.8 1.8 10.1 1.8 10.8 0 20.5-6 24-15.8 4.6-12.9-3.2-27.5-17.5-32.5z"/><path d="M38.1 24.6h-1.6c0-.1.1-.2.1-.3v-3.9h.2c.2 0 .5-.2.5-.5v-3.3c0-.9-.8-1.7-1.7-1.7h-4.7c.5-.6.9-1.3.9-2.2 0-1.7-1.4-3.1-3.1-3.1-.6 0-1.2.2-1.7.5-.5-.3-1.1-.5-1.7-.5-1.7 0-3.1 1.4-3.1 3.1 0 .8.3 1.6.9 2.2h-4.7c-.9 0-1.7.8-1.7 1.7V20c0 .3.3.5.5.5h.1v3.9c0 .1 0 .2.1.3h-1.6c-1.1 0-2.1.9-2.1 2.1V31c0 .2.2.4.4.4h.5v5.4c0 .7.5 1.2 1.2 1.2H38c.7 0 1.2-.5 1.2-1.2v-5.4h.5c.2 0 .4-.2.4-.4v-4.2a2 2 0 00-2-2.2zm-7.2-11.7c0 1.2-1 2.2-2.2 2.2-.4 0-.7-.1-1.1-.3.4-.5.7-1.2.7-1.9s-.2-1.3-.7-1.9c.3-.2.7-.3 1.1-.3 1.2 0 2.2 1 2.2 2.2zM27 11.6c.3.4.4.8.4 1.3s-.2.9-.4 1.3c-.3-.4-.4-.8-.4-1.3s.1-.9.4-1.3zm-3.9 1.3c0-1.2 1-2.2 2.2-2.2.4 0 .7.1 1.1.3-.4.5-.7 1.2-.7 1.9s.2 1.3.7 1.9c-.4.1-.7.2-1.1.2-1.2 0-2.2-1-2.2-2.1zm-5.5 3.8c0-.4.4-.8.8-.8h17.1c.4 0 .8.4.8.8v2.8h-.1c-.2-.1-.3-.2-.5-.3-.3-.3-.7-.6-1.5-.6s-1.2.3-1.5.6c-.3.2-.5.4-.9.4s-.6-.2-.9-.4c-.3-.3-.7-.6-1.5-.6s-1.2.3-1.5.6c-.3.2-.5.4-.9.4s-.6-.2-.9-.4c-.3-.3-.7-.6-1.5-.6s-1.2.3-1.5.6c-.3.2-.5.4-.9.4s-.6-.2-.9-.4c-.3-.3-.7-.6-1.5-.6s-1.2.3-1.5.6c-.1.1-.3.2-.4.3h-.1v-2.8zm.7 7.6v-4.1h.1c.1-.1.3-.2.4-.3.3-.2.5-.4.9-.4s.7.2.9.4c.3.3.7.6 1.5.6s1.2-.3 1.5-.6c.3-.2.5-.4.9-.4s.6.2.9.4c.3.3.7.6 1.5.6s1.2-.3 1.5-.6c.3-.2.5-.4.9-.4s.7.2.9.4c.3.3.7.6 1.5.6s1.2-.3 1.5-.6c.3-.2.5-.4.9-.4s.6.2.9.4h.1c.1.1.2.2.3.2l.1.1v4.1c0 .2-.1.3-.3.3H18.6c-.2 0-.3-.1-.3-.3zm-3.6 2.4c0-.6.5-1.2 1.2-1.2h22.2c.6 0 1.2.5 1.2 1.2v3.8c-.1 0-.2 0-.3-.1-.3-.1-.5-.3-.7-.4-.4-.3-.9-.7-1.9-.7-1 0-1.5.4-1.9.7-.4.3-.7.5-1.3.5s-.9-.2-1.3-.5-.9-.7-1.9-.7c-.9 0-1.5.4-1.9.7-.4.3-.7.5-1.3.5-.6 0-.9-.2-1.3-.5s-.9-.7-1.9-.7c-.9 0-1.5.4-1.9.7-.4.3-.7.5-1.3.5s-.9-.2-1.3-.5-.9-.7-1.9-.7c-1 0-1.5.4-1.9.7-.2.2-.4.3-.7.4-.1 0-.2.1-.3.1v-3.8zm23.7 10c0 .2-.1.3-.3.3H15.9c-.2 0-.3-.1-.3-.3V31c.1 0 .1-.1.2-.1 0 0 .1 0 .1-.1l.3-.3c.4-.3.7-.5 1.3-.5.6 0 .9.2 1.3.5s.9.7 1.9.7c.9 0 1.5-.4 1.9-.7.4-.3.7-.5 1.3-.5.6 0 .9.2 1.3.5s.9.7 1.9.7c1 0 1.5-.4 1.9-.7.4-.3.7-.5 1.3-.5.6 0 .9.2 1.3.5s.9.7 1.9.7 1.5-.4 1.9-.7c.4-.3.7-.5 1.3-.5.6 0 .9.2 1.3.5l.3.3.1.1c.1 0 .1.1.2.1v5.7z"/></svg>