<?xml version="1.0" encoding="utf-8"?>
<!-- Generator: Adobe Illustrator 27.1.1, SVG Export Plug-In . SVG Version: 6.00 Build 0)  -->
<svg version="1.1" id="Layer_1" xmlns="http://www.w3.org/2000/svg" xmlns:xlink="http://www.w3.org/1999/xlink" x="0px" y="0px"
	 viewBox="0 0 36 34" style="enable-background:new 0 0 36 34;" xml:space="preserve">
<g>
	<g>
		<path d="M26.4,14.8c-0.3-0.4-0.8-0.7-1.4-0.7h-3.1L21.5,11c-0.2-1.3-1.2-2.3-2.4-2.3h-2.3c-1.2,0-2.2,1-2.4,2.3l-0.4,3.2H11
			c-0.5,0-1,0.2-1.4,0.7c-0.3,0.4-0.5,0.9-0.4,1.5l1.5,7.6c0.2,0.8,0.9,1.4,1.8,1.4h11.1c0.8,0,1.6-0.6,1.8-1.4l1.5-7.6
			C26.9,15.8,26.8,15.2,26.4,14.8z M15.5,11.1c0.1-0.8,0.7-1.4,1.4-1.4h2.3c0.7,0,1.3,0.6,1.4,1.4l0.4,3.1h-5.8L15.5,11.1z
			 M24.3,23.7c-0.1,0.4-0.4,0.6-0.8,0.6H12.5c-0.4,0-0.7-0.3-0.8-0.6l-1.5-7.6c0-0.2,0-0.5,0.2-0.6c0.2-0.2,0.4-0.3,0.6-0.3h14
			c0.2,0,0.5,0.1,0.6,0.3c0.2,0.2,0.2,0.4,0.2,0.6L24.3,23.7z"/>
		<polygon points="15.8,22.2 14.8,22.2 14.5,17.3 15.5,17.3 		"/>
		<rect x="17.5" y="17.3" width="1" height="4.8"/>
		<polygon points="21.5,17.3 21.2,22.2 20.2,22.2 20.5,17.3 		"/>
	</g>
	<g>
		<path d="M19.2,33.5c-2.2,0-4.5-0.4-6.7-1.2C3.1,29-2,19.4,1,10.9c1.5-4.1,4.6-7.3,8.9-9.1C14.1,0.1,19,0,23.5,1.7
			c4.5,1.6,8.2,4.7,10.4,8.8c2.2,4.1,2.6,8.5,1.1,12.6c-1.5,4.1-4.6,7.3-8.9,9.1C23.9,33.1,21.6,33.5,19.2,33.5z M16.8,1.5
			c-2.3,0-4.5,0.4-6.6,1.3c-4,1.6-6.9,4.7-8.3,8.5c-2.8,7.9,2.1,17,10.9,20.1c4.3,1.5,8.9,1.5,12.9-0.2c4-1.6,6.9-4.7,8.3-8.5l0,0
			c1.4-3.8,1-8-1.1-11.8c-2.1-3.8-5.6-6.8-9.9-8.3C21.1,1.9,18.9,1.5,16.8,1.5z"/>
	</g>
</g>
</svg>
