<?xml version="1.0" encoding="utf-8"?>
<!-- Generator: Adobe Illustrator 27.1.1, SVG Export Plug-In . SVG Version: 6.00 Build 0)  -->
<svg version="1.1" id="Layer_1" xmlns="http://www.w3.org/2000/svg" xmlns:xlink="http://www.w3.org/1999/xlink" x="0px" y="0px"
	 viewBox="0 0 36 34" style="enable-background:new 0 0 36 34;" xml:space="preserve">
<g>
	<path d="M22.5,18.9c1.5-0.8,2.6-2.4,2.6-4.3c0-2.7-2.2-4.9-4.9-4.9c-0.2,0-0.4,0-0.5,0C18.7,8.7,17.3,8,15.8,8
		c-2.7,0-4.9,2.2-4.9,4.9c0,1.8,1,3.4,2.6,4.3c-2.7,1-4.7,3.5-4.7,6.6h1c0-3.3,2.7-6,6-6c0.2,0,0.4,0,0.6,0c0.4,0.5,0.9,0.9,1.4,1.2
		c-2.7,1-4.7,3.5-4.7,6.6h1c0-3.3,2.7-6,6-6c0.1,0,0.1,0,0.2,0l0,0v0c3.2,0.1,5.8,2.7,5.8,6h1C27.2,22.5,25.2,19.9,22.5,18.9z
		 M12,12.8c0-2.1,1.7-3.9,3.9-3.9c1,0,2,0.4,2.7,1.1c0,0,0,0,0,0c-0.1,0-0.1,0-0.2,0.1c-0.2,0.1-0.4,0.2-0.6,0.3
		c-0.1,0-0.2,0.1-0.2,0.2c-0.1,0.1-0.3,0.2-0.4,0.3C17.1,11,17,11,16.9,11.1c-0.1,0.1-0.2,0.2-0.3,0.3c-0.1,0.1-0.1,0.2-0.2,0.2
		c-0.1,0.1-0.2,0.3-0.3,0.4c-0.1,0.1-0.1,0.2-0.2,0.3c-0.1,0.1-0.1,0.3-0.2,0.4c0,0.1-0.1,0.2-0.1,0.3c-0.1,0.2-0.1,0.3-0.1,0.5
		c0,0.1,0,0.2-0.1,0.3c0,0.3-0.1,0.5-0.1,0.8c0,0.3,0,0.6,0.1,0.9c0,0.1,0,0.2,0.1,0.3c0.1,0.2,0.1,0.4,0.2,0.7c0,0.1,0,0.1,0.1,0.2
		C13.7,16.7,12,14.9,12,12.8z M17.1,17L17,16.8c-0.4-0.6-0.7-1.4-0.7-2.2c0-0.2,0-0.5,0.1-0.7c0.3-1.6,1.5-2.8,3.2-3.1
		c0.2,0,0.4-0.1,0.6-0.1c2.1,0,3.9,1.7,3.9,3.9c0,2.1-1.6,3.8-3.7,3.9l-0.2,0C18.9,18.5,17.8,18,17.1,17z"/>
	<path d="M33.9,10.4c-2.2-4-5.9-7.1-10.4-8.8C19,0,14.1,0.1,9.9,1.8c-4.3,1.7-7.4,5-8.9,9.1C-2,19.4,3.1,29,12.5,32.3
		c2.2,0.8,4.4,1.2,6.7,1.2c2.4,0,4.8-0.5,7-1.4c4.3-1.7,7.4-5,8.9-9.1C36.5,19,36.1,14.5,33.9,10.4z M34.1,22.7
		c-1.4,3.8-4.3,6.8-8.3,8.5c-4,1.6-8.6,1.7-12.9,0.2C4,28.2-0.9,19.2,1.9,11.3c1.4-3.8,4.3-6.8,8.3-8.5c2.1-0.9,4.3-1.3,6.6-1.3
		c2.1,0,4.2,0.4,6.3,1.1c4.3,1.5,7.8,4.5,9.9,8.3C35.1,14.7,35.4,18.9,34.1,22.7z"/>
</g>
</svg>
