<svg xmlns="http://www.w3.org/2000/svg" viewBox="0 0 54 50"><path d="M35.3 1.8C31.9.5 28.5 0 25.2 0v1c3.3 0 6.6.6 9.8 1.7 6.7 2.4 12.1 7 15.3 12.9 3.2 5.9 3.8 12.4 1.6 18.3C48.6 43 39.6 49 28.8 49c-3.3 0-6.6-.6-9.8-1.7C5.3 42.4-2.3 28.4 2.1 16.1 5.4 6.9 14.4 1 25.2 1V0C14.4 0 4.7 6 1.2 15.8c-4.6 12.8 3.3 27.4 17.5 32.5 3.4 1.2 6.8 1.8 10.1 1.8 10.8 0 20.5-6 24-15.8 4.6-12.9-3.2-27.5-17.5-32.5z"/><path d="M37.22 18.7h-4.66c1.49-.78 1.78-1.83 1.8-2.43.07-1.52-1.36-3.04-2.99-3.18-.99-.09-1.86.19-2.6.81-.88.74-1.43 1.88-1.76 2.9-.33-1.02-.88-2.16-1.76-2.9a3.44 3.44 0 00-2.6-.81c-1.63.14-3.06 1.66-2.99 3.18.03.6.31 1.65 1.8 2.43h-4.67c-.28 0-.5.22-.5.5v3.31c0 .28.22.5.5.5h.68v13.42c0 .28.22.5.5.5h18.08c.28 0 .5-.22.5-.5V23.01h.68c.28 0 .5-.22.5-.5V19.2c0-.28-.22-.5-.5-.5zm-7.81-4.03c.47-.4 1-.59 1.61-.59.09 0 .17 0 .26.01 1.11.1 2.12 1.14 2.08 2.14-.05 1.14-1.61 2.36-5.78 2.46.16-.98.63-3.01 1.83-4.03zm-8.77 1.56c-.04-1 .97-2.04 2.08-2.14.09 0 .18-.01.27-.01.61 0 1.14.19 1.61.59 1.21 1.01 1.67 3.05 1.83 4.03-4.18-.1-5.73-1.32-5.78-2.46zm-3.36 3.47h6.08v2.31h-6.08V19.7zm1.18 3.31h4.9v12.92h-4.9V23.01zm5.9-.5V19.7h5.27v16.22h-5.27V22.5zm11.18 13.41h-4.9V23h4.9v12.92zm1.18-13.91h-6.08V19.7h6.08v2.31z"/></svg>