<svg xmlns="http://www.w3.org/2000/svg" viewBox="0 0 54 50"><path d="M35.3 1.8C31.9.5 28.5 0 25.2 0v1c3.3 0 6.6.6 9.8 1.7 6.7 2.4 12.1 7 15.3 12.9 3.2 5.9 3.8 12.4 1.6 18.3C48.6 43 39.6 49 28.8 49c-3.3 0-6.6-.6-9.8-1.7C5.3 42.4-2.3 28.4 2.1 16.1 5.4 6.9 14.4 1 25.2 1V0C14.4 0 4.7 6 1.2 15.8c-4.6 12.8 3.3 27.4 17.5 32.5 3.4 1.2 6.8 1.8 10.1 1.8 10.8 0 20.5-6 24-15.8 4.6-12.9-3.2-27.5-17.5-32.5z"/><path d="M38.95 13.52h-23.9c-.28 0-.5.22-.5.5v21.96c0 .28.22.5.5.5h6.56c.28 0 .5-.22.5-.5 0-3.67-2.4-5.99-3.12-6.6v-1.45c5.2-.31 7.22-5.33 8.01-9.27.79 3.93 2.81 8.96 8.01 9.27v1.45c-.72.61-3.13 2.94-3.13 6.6 0 .28.22.5.5.5h6.56c.28 0 .5-.22.5-.5V14.02c0-.28-.22-.5-.5-.5zm-2.94 14.44h2.44v1.16h-2.44v-1.16zm2.44-2.21c-.28-.05-.54-.13-.78-.23-.05-.02-.09-.03-.14-.05-.24-.1-.46-.22-.67-.35-.04-.03-.08-.05-.12-.08-.21-.14-.42-.3-.61-.48l-.03-.03c-.18-.17-.36-.36-.52-.56-.03-.03-.06-.07-.09-.1-.16-.2-.31-.42-.45-.64-.03-.05-.06-.09-.09-.14-.14-.23-.27-.46-.39-.71-.02-.03-.03-.07-.05-.1-.11-.23-.22-.47-.31-.72-.01-.04-.03-.07-.04-.11-.1-.26-.19-.52-.27-.78-.02-.06-.04-.11-.05-.17-.08-.26-.15-.52-.22-.78l-.03-.14c-.06-.26-.12-.51-.17-.76 0-.02 0-.04-.01-.06-.05-.27-.1-.53-.14-.78 0-.05-.02-.1-.02-.15-.04-.25-.07-.49-.1-.72 0-.04-.01-.09-.02-.13-.03-.24-.05-.47-.07-.69v-.02c-.02-.22-.04-.42-.05-.62v-.09c-.01-.19-.02-.36-.03-.51v-.09c0-.15-.01-.29-.01-.41h5.52v11.23zM21.07 14.52c0 .12 0 .27-.01.43v.06c0 .16-.02.34-.03.53v.07c-.03.4-.07.85-.13 1.35 0 .04 0 .08-.01.12-.03.24-.06.48-.1.73 0 .05-.02.09-.02.14-.04.26-.09.52-.14.79 0 .02 0 .04-.01.06-.05.26-.11.51-.17.77l-.03.14c-.07.26-.14.53-.22.79-.02.06-.03.11-.05.17-.08.26-.17.53-.27.78-.01.04-.03.07-.04.11-.1.25-.2.49-.31.72-.02.03-.03.07-.05.1-.12.24-.25.48-.39.71-.03.05-.06.09-.09.14-.14.22-.29.44-.45.64a.7.7 0 00-.08.1c-.16.2-.34.39-.52.56l-.03.03c-.19.18-.4.33-.61.48-.04.03-.08.06-.12.08-.21.13-.44.25-.67.35-.04.02-.09.03-.14.05-.25.1-.51.18-.79.23V14.52h5.52zm-3.08 14.6h-2.44v-1.16h2.44v1.16zm3.11 6.36h-5.55v-5.37h2.76c.53.45 2.57 2.38 2.79 5.37zm-2.61-8.52h-2.94v-.19s.04-.01.06-.02c.32-.05.62-.13.91-.23.05-.02.11-.04.16-.06.29-.11.56-.23.82-.38.03-.02.07-.04.1-.06.25-.15.5-.32.72-.51.01-.01.03-.02.04-.03.23-.19.44-.41.65-.63.03-.04.07-.07.1-.11.19-.22.37-.46.54-.7.03-.04.06-.09.09-.14.16-.25.32-.51.46-.78.02-.03.03-.07.05-.1.14-.27.27-.55.39-.84 0-.02.02-.04.03-.06.12-.29.23-.59.33-.89.02-.05.03-.1.05-.15.09-.29.18-.58.26-.87.01-.05.03-.11.04-.16.08-.29.15-.59.21-.88 0-.03.01-.06.02-.09.06-.29.11-.57.16-.85 0-.02 0-.05.01-.07.05-.29.09-.56.12-.83 0-.04.01-.08.02-.12.03-.26.06-.51.08-.75v-.1c.02-.24.04-.47.05-.69v-.03c.01-.22.02-.43.03-.61 0-.19.01-.36.01-.5h4.42c-.09 2.41-.88 12.44-8 12.44zm9.02-12.44h4.42v.05c0 .13 0 .26.01.43v.08c0 .16.02.33.03.52v.09c.01.2.03.42.05.65 0 .05 0 .09.01.14.02.23.05.47.08.73 0 .05.01.1.02.14.03.27.07.54.12.82 0 .02 0 .05.01.08.05.28.1.56.16.84 0 .03.01.07.02.1.06.29.13.58.21.88.01.05.03.11.04.16.08.29.16.58.26.87.02.05.03.1.05.15.1.3.21.6.33.89 0 .02.02.04.02.06.12.29.25.57.39.84.02.03.03.07.05.1.14.27.3.53.46.78.03.04.06.09.09.13.17.25.35.48.54.71.03.04.06.07.1.11.2.23.42.44.65.64.01 0 .02.02.03.03.23.19.47.36.73.51.03.02.06.04.1.06.26.15.53.27.82.38.05.02.11.04.16.06.29.1.59.18.92.23.02 0 .04.01.06.01v.19h-2.94c-7.12 0-7.91-10.03-8-12.44zm10.94 20.96H32.9c.21-2.99 2.26-4.92 2.79-5.37h2.76v5.37z"/></svg>