<?xml version="1.0" encoding="utf-8"?>
<!-- Generator: Adobe Illustrator 27.1.1, SVG Export Plug-In . SVG Version: 6.00 Build 0)  -->
<svg version="1.1" id="Layer_1" xmlns="http://www.w3.org/2000/svg" xmlns:xlink="http://www.w3.org/1999/xlink" x="0px" y="0px"
	 viewBox="0 0 15 15" style="enable-background:new 0 0 15 15;" xml:space="preserve">
<style type="text/css">
	.st0{fill:#012E23;}
	.st1{fill:#E3B48B;}
</style>
<g>
	<path class="st0" d="M15,7.5C9.8,7.5,7.5,4.2,7.5,0c0,4.2-2.2,7.5-7.5,7.5c5.2,0,7.5,3.3,7.5,7.5C7.5,10.8,9.8,7.5,15,7.5z"/>
	<path class="st1" d="M8.1,15H6.9c0-4.4-2.5-6.9-6.9-6.9V6.9c4.4,0,6.9-2.5,6.9-6.9h1.2c0,4.4,2.5,6.9,6.9,6.9v1.2
		C10.6,8.1,8.1,10.6,8.1,15z M3.5,7.5c1.9,0.7,3.2,2.1,4,4c0.7-1.9,2.1-3.2,4-4c-1.9-0.7-3.2-2.1-4-4C6.8,5.4,5.4,6.8,3.5,7.5z"/>
</g>
</svg>
