<svg xmlns="http://www.w3.org/2000/svg" viewBox="0 0 36 34"><path d="M19.2 33.5c-2.2 0-4.5-.4-6.7-1.2C3.1 29-2 19.4 1 10.9c1.5-4.1 4.6-7.3 8.9-9.1C14.1.1 19 0 23.5 1.7c4.5 1.6 8.2 4.7 10.4 8.8S36.5 19 35 23.1s-4.6 7.3-8.9 9.1c-2.2.9-4.5 1.3-6.9 1.3zm-2.4-32c-2.3 0-4.5.4-6.6 1.3-4 1.6-6.9 4.7-8.3 8.5-2.8 7.9 2.1 17 10.9 20.1 4.3 1.5 8.9 1.5 12.9-.2 4-1.6 6.9-4.7 8.3-8.5 1.4-3.8 1-8-1.1-11.8S27.3 4.1 23 2.6c-1.9-.7-4.1-1.1-6.2-1.1z"/><path d="M17.9 8.1C13 8.1 9 12.1 9 17c0 2 .6 3.8 1.7 5.2l-1.1 3.3 3.4-1.1c1.4.9 3.1 1.5 4.9 1.5 4.9 0 8.9-4 8.9-8.9s-3.9-8.9-8.9-8.9zm5.2 12.6c-.2.6-1.1 1.1-1.8 1.3-.5.1-1.1.2-3.1-.7-2.6-1.1-4.3-3.8-4.4-3.9-.1-.2-1.1-1.4-1.1-2.7 0-1.3.7-1.9.9-2.2.2-.2.6-.3.9-.3h.3c.3 0 .4 0 .6.4.2.5.7 1.8.8 1.9.1.1.1.3 0 .5s-.2.3-.3.4l-.4.4c-.1.1-.3.3-.1.6.2.3.7 1.1 1.5 1.8 1 .9 1.8 1.2 2.1 1.3.2.1.5.1.6-.1.2-.2.4-.6.7-.9.2-.3.4-.3.6-.2.2.1 1.5.7 1.8.8.3.1.4.2.5.3.2.2.2.7-.1 1.3z"/></svg>