<?xml version="1.0" encoding="UTF-8"?>
<svg id="Layer_1" xmlns="http://www.w3.org/2000/svg" version="1.1" viewBox="0 0 36 34">
  <!-- Generator: Adobe Illustrator 29.5.1, SVG Export Plug-In . SVG Version: 2.1.0 Build 141)  -->
  <path d="M23.5,1.7C14.1-1.7,4,2.5,1,10.9-.5,15-.1,19.5,2.1,23.5c2.2,4,5.9,7.1,10.4,8.8,2.2.8,4.4,1.2,6.6,1.2,7.1,0,13.5-4,15.9-10.4,3-8.5-2.1-18.1-11.5-21.4ZM34.1,22.7c-2.8,7.9-12.3,11.8-21.2,8.7-4.3-1.5-7.8-4.5-9.9-8.3C.9,19.3.6,15.1,1.9,11.3,4.1,5.2,10.1,1.5,16.8,1.5c2.1,0,4.2.4,6.3,1.1,8.9,3.2,13.8,12.2,11,20.1Z"/>
  <path d="M28.45,16.13c0-.07,0-.14-.03-.2,0-.01,0-.03,0-.04,0,0-.01-.01-.02-.02,0-.01,0-.02-.01-.04l-3.21-5.27c-.1-.21-.32-.34-.56-.28l-6.12,1.41v-2.66c0-.28-.22-.5-.5-.5s-.5.22-.5.5v2.89l-6.35,1.46c-.14.03-.25.12-.31.23,0,0,0,0,0,0l-3.23,5.3s0,.02-.01.04c0,0-.01.01-.02.02,0,.01,0,.03,0,.04-.02.07-.03.13-.03.2,0,.02,0,.03,0,.05.02.08.05.16.11.22,0,0,0,.01,0,.02.97,1.09,2.25,1.68,3.6,1.68s2.62-.6,3.6-1.68c0,0,0-.01,0-.02.05-.07.09-.14.11-.22,0-.02,0-.03,0-.05,0-.07,0-.14-.03-.2,0-.01,0-.03,0-.04,0,0-.01-.01-.02-.02,0-.01,0-.02-.01-.04l-2.87-4.71,5.45-1.25v10.41h-4.07c-.28,0-.5.22-.5.5s.22.5.5.5h9.13c.28,0,.5-.22.5-.5s-.22-.5-.5-.5h-4.07v-10.64l5.21-1.2-2.63,4.32s0,.02-.01.04c0,0-.01.01-.02.02,0,.01,0,.03,0,.04-.02.07-.03.13-.03.2,0,.02,0,.03,0,.05.02.08.05.16.11.22,0,0,0,.01,0,.02.97,1.09,2.25,1.68,3.6,1.68s2.62-.6,3.6-1.68c0,0,0-.01,0-.02.05-.07.09-.14.11-.22,0-.02,0-.03,0-.05ZM11.27,14.82l2.34,3.84h-4.67l2.34-3.84ZM9.42,19.66h3.69c-1.14.68-2.55.68-3.69,0ZM27.07,15.59h-4.67l2.34-3.84,2.34,3.84ZM22.89,16.59h3.69c-1.14.68-2.55.68-3.69,0Z"/>
</svg>