<svg xmlns="http://www.w3.org/2000/svg" viewBox="0 0 36 34"><path d="M22.5 18.9c1.5-.8 2.6-2.4 2.6-4.3 0-2.7-2.2-4.9-4.9-4.9h-.5c-1-1-2.4-1.7-3.9-1.7-2.7 0-4.9 2.2-4.9 4.9 0 1.8 1 3.4 2.6 4.3-2.7 1-4.7 3.5-4.7 6.6h1c0-3.3 2.7-6 6-6h.6c.4.5.9.9 1.4 1.2-2.7 1-4.7 3.5-4.7 6.6h1c0-3.3 2.7-6 6-6h.2c3.2.1 5.8 2.7 5.8 6h1c.1-3.1-1.9-5.7-4.6-6.7zM12 12.8c0-2.1 1.7-3.9 3.9-3.9 1 0 2 .4 2.7 1.1-.1 0-.1 0-.2.1l-.6.3c-.1 0-.2.1-.2.2-.1.1-.3.2-.4.3-.1.1-.2.1-.3.2l-.3.3c-.1.1-.1.2-.2.2-.1.1-.2.3-.3.4-.1.1-.1.2-.2.3-.1.1-.1.3-.2.4 0 .1-.1.2-.1.3-.1.2-.1.3-.1.5 0 .1 0 .2-.1.3 0 .3-.1.5-.1.8 0 .3 0 .6.1.9 0 .1 0 .2.1.3.1.2.1.4.2.7 0 .1 0 .1.1.2-2.1 0-3.8-1.8-3.8-3.9zm5.1 4.2l-.1-.2c-.4-.6-.7-1.4-.7-2.2 0-.2 0-.5.1-.7.3-1.6 1.5-2.8 3.2-3.1.2 0 .4-.1.6-.1 2.1 0 3.9 1.7 3.9 3.9 0 2.1-1.6 3.8-3.7 3.9h-.2c-1.3 0-2.4-.5-3.1-1.5z"/><path d="M33.9 10.4c-2.2-4-5.9-7.1-10.4-8.8C19 0 14.1.1 9.9 1.8c-4.3 1.7-7.4 5-8.9 9.1-3 8.5 2.1 18.1 11.5 21.4 2.2.8 4.4 1.2 6.7 1.2 2.4 0 4.8-.5 7-1.4 4.3-1.7 7.4-5 8.9-9.1 1.4-4 1-8.5-1.2-12.6zm.2 12.3c-1.4 3.8-4.3 6.8-8.3 8.5-4 1.6-8.6 1.7-12.9.2C4 28.2-.9 19.2 1.9 11.3c1.4-3.8 4.3-6.8 8.3-8.5 2.1-.9 4.3-1.3 6.6-1.3 2.1 0 4.2.4 6.3 1.1 4.3 1.5 7.8 4.5 9.9 8.3 2.1 3.8 2.4 8 1.1 11.8z"/></svg>