<svg xmlns="http://www.w3.org/2000/svg" viewBox="0 0 36 34"><path d="M23.5 1.7C14.1-1.7 4 2.5 1 10.9-.5 15-.1 19.5 2.1 23.5s5.9 7.1 10.4 8.8c2.2.8 4.4 1.2 6.6 1.2 7.1 0 13.5-4 15.9-10.4C38 14.6 32.9 5 23.5 1.7zm10.6 21c-2.8 7.9-12.3 11.8-21.2 8.7-4.3-1.5-7.8-4.5-9.9-8.3-2-3.8-2.4-8-1.1-11.8 2.2-6.1 8.2-9.8 14.9-9.8 2.1 0 4.2.4 6.3 1.1 8.9 3.2 13.8 12.2 11 20.1z"/><path d="M26.4 11.6H9.6c-.9 0-1.6.7-1.6 1.6v6.3c0 .9.7 1.6 1.6 1.6h.8v1.8h1v-1.8h13.2v1.8h1v-1.8h.8c.9 0 1.6-.7 1.6-1.6v-6.3c0-.9-.7-1.6-1.6-1.6zm.6 7.9c0 .3-.3.6-.6.6H9.6c-.3 0-.6-.3-.6-.6v-6.3c0-.3.3-.6.6-.6h16.7c.3 0 .6.3.6.6v6.3z"/><path d="M15.7 13.2c-1.7 0-3.2 1.4-3.2 3.2s1.4 3.2 3.2 3.2 3.2-1.4 3.2-3.2-1.4-3.2-3.2-3.2zm0 5.3c-1.2 0-2.2-1-2.2-2.2 0-1.2 1-2.2 2.2-2.2s2.2 1 2.2 2.2c0 1.2-1 2.2-2.2 2.2zm6.8-4.5c-.7 0-1.3.6-1.3 1.3s.6 1.3 1.3 1.3 1.3-.6 1.3-1.3-.5-1.3-1.3-1.3zm0 1.6c-.2 0-.3-.1-.3-.3s.1-.3.3-.3.3.1.3.3-.1.3-.3.3z"/></svg>