<?xml version="1.0" encoding="utf-8"?>
<!-- Generator: Adobe Illustrator 27.1.1, SVG Export Plug-In . SVG Version: 6.00 Build 0)  -->
<svg version="1.1" id="Layer_1" xmlns="http://www.w3.org/2000/svg" xmlns:xlink="http://www.w3.org/1999/xlink" x="0px" y="0px"
	 viewBox="0 0 54 50" style="enable-background:new 0 0 54 50;" xml:space="preserve">
<path d="M35.3,1.8C31.9,0.5,28.5,0,25.2,0v1c3.3,0,6.6,0.6,9.8,1.7c6.7,2.4,12.1,7,15.3,12.9s3.8,12.4,1.6,18.3
	C48.6,43,39.6,49,28.8,49c-3.3,0-6.6-0.6-9.8-1.7C5.3,42.4-2.3,28.4,2.1,16.1C5.4,6.9,14.4,1,25.2,1V0C14.4,0,4.7,6,1.2,15.8
	c-4.6,12.8,3.3,27.4,17.5,32.5c3.4,1.2,6.8,1.8,10.1,1.8c10.8,0,20.5-6,24-15.8C57.4,21.4,49.6,6.8,35.3,1.8z"/>
<g>
	<path d="M27.8,17.3c-4.2,0-7.7,3.4-7.7,7.7c0,4.2,3.4,7.6,7.7,7.6s7.6-3.4,7.6-7.6C35.5,20.8,32,17.3,27.8,17.3z M27.8,31.7
		c-3.7,0-6.7-3-6.7-6.7s3-6.7,6.7-6.7s6.7,3,6.7,6.7C34.6,28.7,31.5,31.7,27.8,31.7z"/>
	<path d="M39.4,25c0-0.5-0.3-0.8-0.6-1.2c-0.2-0.2-0.3-0.4-0.4-0.5c0-0.1,0.1-0.4,0.2-0.6c0.2-0.4,0.4-0.8,0.2-1.3
		c-0.1-0.4-0.6-0.7-0.9-0.9c-0.2-0.1-0.5-0.3-0.5-0.4c-0.1-0.1,0-0.4,0-0.6c0-0.4,0.1-0.9-0.2-1.3s-0.7-0.5-1.2-0.6
		c-0.2,0-0.5-0.1-0.6-0.2s-0.2-0.4-0.2-0.6c-0.1-0.4-0.2-0.9-0.6-1.2c-0.4-0.3-0.9-0.2-1.3-0.2c-0.2,0-0.5,0.1-0.6,0
		s-0.3-0.3-0.4-0.5c-0.2-0.4-0.5-0.8-0.9-0.9c-0.4-0.1-0.9,0.1-1.3,0.2c-0.2,0.1-0.5,0.2-0.6,0.2S29.2,14.2,29,14
		c-0.3-0.3-0.7-0.6-1.2-0.6S27,13.7,26.6,14c-0.2,0.2-0.4,0.3-0.5,0.4c-0.1,0-0.4-0.1-0.6-0.2c-0.4-0.2-0.8-0.4-1.3-0.2
		c-0.4,0.1-0.7,0.6-0.9,0.9c-0.1,0.2-0.3,0.5-0.4,0.5c-0.1,0.1-0.4,0-0.6,0c-0.4,0-0.9-0.1-1.3,0.2s-0.5,0.7-0.6,1.2
		c0,0.2-0.1,0.5-0.2,0.6s-0.4,0.2-0.6,0.2c-0.4,0.1-0.9,0.2-1.2,0.6c-0.3,0.4-0.2,0.9-0.2,1.3c0,0.2,0.1,0.5,0,0.6s-0.3,0.3-0.5,0.4
		c-0.4,0.2-0.8,0.5-0.9,0.9s0.1,0.9,0.2,1.3c0.1,0.2,0.2,0.5,0.2,0.6s-0.2,0.3-0.4,0.5c-0.3,0.3-0.6,0.7-0.6,1.2s0.3,0.8,0.6,1.2
		c0.2,0.2,0.3,0.4,0.4,0.5c0,0.1-0.1,0.4-0.2,0.6c-0.2,0.4-0.4,0.8-0.2,1.3c0.1,0.4,0.6,0.7,0.9,0.9c0.2,0.1,0.5,0.3,0.5,0.4
		c0.1,0.1,0,0.4,0,0.6c0,0.4-0.1,0.9,0.2,1.3c0.3,0.4,0.7,0.5,1.2,0.6c0.2,0,0.5,0.1,0.6,0.2c0.1,0.1,0.2,0.4,0.2,0.6
		c0.1,0.4,0.2,0.9,0.6,1.2s0.9,0.2,1.3,0.2c0.2,0,0.5-0.1,0.6,0s0.3,0.3,0.4,0.5c0.2,0.4,0.5,0.8,0.9,0.9c0.4,0.1,0.9-0.1,1.3-0.2
		c0.2-0.1,0.5-0.2,0.6-0.2s0.3,0.2,0.5,0.4c0.3,0.3,0.7,0.6,1.2,0.6s0.8-0.3,1.2-0.6c0.2-0.2,0.4-0.3,0.5-0.4c0.1,0,0.4,0.1,0.6,0.2
		c0.4,0.2,0.8,0.4,1.3,0.2c0.4-0.1,0.7-0.6,0.9-0.9c0.1-0.2,0.3-0.5,0.4-0.5c0.1-0.1,0.4,0,0.6,0c0.4,0,0.9,0.1,1.3-0.2
		c0.4-0.3,0.5-0.7,0.6-1.2c0-0.2,0.1-0.5,0.2-0.6c0.1-0.1,0.4-0.2,0.6-0.2c0.4-0.1,0.9-0.2,1.2-0.6c0.3-0.4,0.2-0.9,0.2-1.3
		c0-0.2-0.1-0.5,0-0.6s0.3-0.3,0.5-0.4c0.4-0.2,0.8-0.5,0.9-0.9c0.1-0.4-0.1-0.9-0.2-1.3c-0.1-0.2-0.2-0.5-0.2-0.6s0.2-0.3,0.4-0.5
		C39,25.8,39.4,25.5,39.4,25z M38.1,25.6c-0.2,0.3-0.5,0.6-0.6,1s0.1,0.8,0.3,1.1c0.1,0.2,0.2,0.5,0.2,0.6s-0.3,0.3-0.5,0.4
		c-0.3,0.2-0.7,0.4-0.9,0.8s-0.1,0.8-0.1,1.2c0,0.2,0.1,0.6,0,0.7s-0.4,0.2-0.6,0.2c-0.4,0.1-0.8,0.2-1.1,0.5
		c-0.3,0.3-0.4,0.7-0.4,1.1c0,0.2-0.1,0.6-0.2,0.6c-0.1,0.1-0.4,0-0.7,0c-0.4,0-0.8-0.1-1.2,0.1c-0.4,0.2-0.6,0.5-0.8,0.9
		c-0.1,0.2-0.3,0.5-0.4,0.5s-0.4-0.1-0.6-0.2c-0.3-0.2-0.7-0.3-1.1-0.3c-0.4,0.1-0.7,0.3-1,0.6c-0.2,0.2-0.4,0.4-0.6,0.4
		c-0.1,0-0.4-0.2-0.6-0.4c-0.3-0.2-0.6-0.5-1-0.6c-0.1,0-0.1,0-0.2,0c-0.3,0-0.7,0.1-1,0.3c-0.2,0.1-0.5,0.2-0.6,0.2
		S24.1,35,24,34.8c-0.2-0.3-0.4-0.7-0.8-0.9s-0.8-0.1-1.2-0.1c-0.2,0-0.6,0.1-0.7,0s-0.2-0.4-0.2-0.6c-0.1-0.4-0.2-0.8-0.4-1.1
		c-0.3-0.3-0.7-0.4-1.1-0.4c-0.2,0-0.6-0.1-0.6-0.2c-0.1-0.1,0-0.4,0-0.7c0-0.4,0.1-0.8-0.1-1.2c-0.2-0.4-0.5-0.6-0.9-0.8
		c-0.2-0.1-0.5-0.3-0.5-0.4s0.1-0.4,0.2-0.6c0.2-0.3,0.3-0.7,0.3-1.1c-0.1-0.4-0.3-0.7-0.6-1c-0.2-0.2-0.4-0.4-0.4-0.6
		c0-0.1,0.2-0.4,0.4-0.6c0.2-0.3,0.5-0.6,0.6-1s-0.1-0.8-0.3-1.1c-0.1-0.2-0.2-0.5-0.2-0.6s0.3-0.3,0.5-0.4c0.3-0.2,0.7-0.4,0.9-0.8
		c0.2-0.4,0.1-0.8,0.1-1.2c0-0.2-0.1-0.6,0-0.7s0.4-0.2,0.6-0.2c0.4-0.1,0.8-0.2,1.1-0.4c0.3-0.3,0.4-0.7,0.4-1.1
		c0.1-0.2,0.1-0.6,0.2-0.6c0.1-0.1,0.4,0,0.7,0c0.4,0,0.8,0.1,1.2-0.1c0.4-0.2,0.6-0.5,0.8-0.9c0.1-0.2,0.3-0.5,0.4-0.5
		s0.4,0.1,0.6,0.2c0.3,0.2,0.7,0.3,1.1,0.3c0.4-0.1,0.7-0.3,1-0.6c0.2-0.2,0.4-0.4,0.6-0.4c0.1,0,0.4,0.2,0.6,0.4
		c0.3,0.2,0.6,0.5,1,0.6s0.8-0.1,1.1-0.3c0.2-0.1,0.5-0.2,0.6-0.2s0.3,0.3,0.4,0.5c0.2,0.3,0.4,0.7,0.8,0.9c0.4,0.2,0.8,0.1,1.2,0.1
		c0.2,0,0.6-0.1,0.7,0c0.1,0.1,0.2,0.4,0.2,0.6c0.1,0.4,0.2,0.8,0.4,1.1c0.3,0.3,0.7,0.4,1.1,0.4c0.2,0.1,0.6,0.1,0.6,0.2
		c0.1,0.1,0,0.4,0,0.7c0,0.4-0.1,0.8,0.1,1.2c0.2,0.4,0.5,0.6,0.9,0.8c0.2,0.1,0.5,0.3,0.5,0.4s-0.1,0.4-0.2,0.6
		c-0.2,0.3-0.3,0.7-0.3,1.1c0.1,0.4,0.3,0.7,0.6,1c0.2,0.2,0.4,0.4,0.4,0.6S38.2,25.4,38.1,25.6z"/>
	<path d="M43.5,17.1c-0.5-0.7-1.1-1.1-1.9-1.2c-0.1,0-0.3,0-0.4,0.1c-0.1,0.1-0.2,0.2-0.2,0.3v11.9v5.3c0,0.2,0.2,0.5,0.5,0.5h2.1
		c0.1,0,0.3-0.1,0.3-0.2c0.1-0.1,0.1-0.2,0.1-0.4l-0.6-4.8H44c0.2,0,0.4-0.2,0.4-0.4C44.5,28,45.8,20.1,43.5,17.1z M43.1,33.1H42
		v-4.4h0.6L43.1,33.1z M43.6,27.8H43h-1V17c0.3,0.1,0.6,0.4,0.8,0.7C44.5,20,43.8,26.2,43.6,27.8z"/>
	<path d="M15,16c-0.3,0-0.5,0.2-0.5,0.5v3.7c0,1.1-0.8,2.1-1.7,2.1h-0.1v-5.8c0-0.3-0.2-0.5-0.5-0.5s-0.5,0.2-0.5,0.5v5.8h-0.1
		c-0.9,0-1.7-0.9-1.7-2.1v-3.7c0-0.3-0.2-0.5-0.5-0.5s-0.5,0.2-0.5,0.5v3.7c0,1.6,1.2,3,2.6,3h0.1v1.9h-0.3c-0.2,0-0.4,0.2-0.5,0.4
		l-0.4,8.1c0,0.1,0,0.2,0.1,0.3C10.9,34,11,34,11.1,34h2.4c0.1,0,0.2-0.1,0.3-0.1c0.1-0.1,0.1-0.2,0.1-0.3l-0.4-8.1
		c0-0.2-0.2-0.4-0.5-0.4h-0.3v-1.9h0.1c1.4,0,2.6-1.3,2.6-3v-3.7C15.4,16.2,15.2,16,15,16z M11.6,33.1L12,26h0.7l0.4,7.1H11.6z"/>
</g>
</svg>
