<svg xmlns="http://www.w3.org/2000/svg" viewBox="0 0 54 50"><path d="M35.3 1.8C31.9.5 28.5 0 25.2 0v1c3.3 0 6.6.6 9.8 1.7 6.7 2.4 12.1 7 15.3 12.9 3.2 5.9 3.8 12.4 1.6 18.3C48.6 43 39.6 49 28.8 49c-3.3 0-6.6-.6-9.8-1.7C5.3 42.4-2.3 28.4 2.1 16.1 5.4 6.9 14.4 1 25.2 1V0C14.4 0 4.7 6 1.2 15.8c-4.6 12.8 3.3 27.4 17.5 32.5 3.4 1.2 6.8 1.8 10.1 1.8 10.8 0 20.5-6 24-15.8 4.6-12.9-3.2-27.5-17.5-32.5z"/><path d="M18.27 15.72l-.09.49 1.65.24-3.24 17.92-1.73.24-.09.49h5.81l.09-.49-1.65-.24 3.37-18.65h-4.12zm20.41-1.3c-.26.57-.63.92-1.1 1.08s-1.19.23-2.16.23H29l-2.53 8.09.38.31c.9-.27 1.72-.41 2.45-.41 1.37 0 2.39.48 3.04 1.44s.82 2.39.47 4.3c-.3 1.65-.89 2.99-1.78 4.02-.89 1.03-1.94 1.55-3.15 1.55-.92 0-1.62-.21-2.1-.62-.48-.41-.66-.95-.54-1.61.16-.87.7-1.52 1.63-1.94.11-.58 0-1.02-.29-1.33-.3-.31-.69-.46-1.18-.46-.52 0-1 .19-1.44.57s-.72.9-.84 1.56c-.15.82-.04 1.57.32 2.23.37.66.93 1.19 1.69 1.57.76.39 1.64.58 2.64.58 1.63 0 3.05-.3 4.24-.9 1.2-.6 2.14-1.36 2.82-2.29.68-.93 1.12-1.9 1.3-2.92.22-1.19.1-2.28-.35-3.27-.45-.99-1.2-1.76-2.23-2.33-1.04-.56-2.27-.85-3.71-.85-.65 0-1.29.08-1.92.2l1.46-4.68h5.14c1.19 0 2.17-.29 2.93-.88.76-.59 1.35-1.67 1.76-3.23l-.55-.02z"/></svg>