<?xml version="1.0" encoding="utf-8"?>
<!-- Generator: Adobe Illustrator 27.1.1, SVG Export Plug-In . SVG Version: 6.00 Build 0)  -->
<svg version="1.1" id="Layer_1" xmlns="http://www.w3.org/2000/svg" xmlns:xlink="http://www.w3.org/1999/xlink" x="0px" y="0px"
	 viewBox="0 0 10 10" style="enable-background:new 0 0 10 10;" xml:space="preserve">
<style type="text/css">
	.st0{fill:#FFFFFF;}
	.st1{fill:#012E23;}
</style>
<path class="st0" d="M5.3,8.9H4.7c0-2.2-1.3-3.5-3.5-3.5V4.7c2.2,0,3.5-1.3,3.5-3.5h0.7c0,2.2,1.2,3.5,3.5,3.5v0.7
	C6.5,5.3,5.3,6.6,5.3,8.9z"/>
<path class="st1" d="M5.4,10H4.6c0-2.9-1.7-4.6-4.6-4.6V4.6c2.9,0,4.6-1.7,4.6-4.6h0.9c0,2.9,1.6,4.6,4.5,4.6v0.9
	C7,5.4,5.4,7.1,5.4,10z M2.4,5C3.6,5.5,4.5,6.4,5,7.6C5.5,6.4,6.4,5.5,7.6,5C6.4,4.5,5.5,3.6,5,2.4C4.5,3.6,3.6,4.5,2.4,5z"/>
</svg>
