<?xml version="1.0" encoding="utf-8"?>
<!-- Generator: Adobe Illustrator 27.1.1, SVG Export Plug-In . SVG Version: 6.00 Build 0)  -->
<svg version="1.1" id="Layer_1" xmlns="http://www.w3.org/2000/svg" xmlns:xlink="http://www.w3.org/1999/xlink" x="0px" y="0px"
	 viewBox="0 0 36 34" style="enable-background:new 0 0 36 34;" xml:space="preserve">
<g>
	<path d="M23.5,1.7C14.1-1.7,4,2.5,1,10.9c-1.5,4.1-1.1,8.6,1.1,12.6c2.2,4,5.9,7.1,10.4,8.8c2.2,0.8,4.4,1.2,6.6,1.2
		c7.1,0,13.5-4,15.9-10.4C38,14.6,32.9,5,23.5,1.7z M34.1,22.7c-2.8,7.9-12.3,11.8-21.2,8.7c-4.3-1.5-7.8-4.5-9.9-8.3
		c-2.1-3.8-2.4-8-1.1-11.8c2.2-6.1,8.2-9.8,14.9-9.8c2.1,0,4.2,0.4,6.3,1.1C32,5.8,36.9,14.8,34.1,22.7z"/>
	<path d="M27.2,14.1c0-3.1-4-5.4-9.2-5.4c-5.1,0-9.1,2.4-9.2,5.4l0,0l-0.3,4.1c0,0.5,0.4,0.8,0.7,1.1c0.1,0.1,0.3,0.2,0.3,0.3
		c0,0.1,0,0.3,0,0.4c0,0.4,0,0.9,0.3,1.2c0.3,0.3,0.7,0.3,1.1,0.3c0.1,0,0.1,0,0.2,0v2.4c0,0.8,0.6,1.4,1.4,1.4
		c0.8,0,1.4-0.6,1.4-1.4v-1.1c0.1,0.1,0.2,0.2,0.3,0.3c0.2,0.3,0.5,0.6,0.9,0.7c0.4,0.1,0.8-0.1,1.1-0.3c0.1-0.1,0.4-0.2,0.4-0.2
		c0.1,0,0.3,0.2,0.4,0.3c0.3,0.2,0.6,0.5,1,0.5c0.4,0,0.8-0.3,1-0.5c0.1-0.1,0.3-0.2,0.4-0.3c0,0,0.3,0.1,0.4,0.2
		c0.3,0.2,0.7,0.4,1.1,0.3c0.4-0.1,0.7-0.4,0.9-0.7c0.1-0.1,0.2-0.2,0.3-0.3v1.1c0,0.8,0.6,1.4,1.4,1.4s1.4-0.6,1.4-1.4v-2.4
		c0.1,0,0.1,0,0.2,0c0.4,0,0.8,0,1.1-0.3c0.3-0.4,0.3-0.8,0.3-1.2c0-0.1,0-0.3,0-0.4c0-0.1,0.2-0.2,0.3-0.3c0.3-0.3,0.7-0.6,0.7-1.1
		L27.2,14.1L27.2,14.1z M18,9.7c4.4,0,8.2,2.1,8.2,4.5c0,2.4-3.7,4.5-8.2,4.5c-4.4,0-8.2-2.1-8.2-4.5C9.8,11.7,13.6,9.7,18,9.7z
		 M12.9,23.9c0,0.2-0.2,0.4-0.4,0.4c-0.2,0-0.4-0.2-0.4-0.4v-1.2c0.1,0.1,0.2,0.1,0.3,0.2c0.2,0.1,0.4,0.1,0.6,0.1V23.9z M23.9,23.9
		c0,0.2-0.2,0.4-0.4,0.4s-0.4-0.2-0.4-0.4V23c0.2,0,0.4-0.1,0.6-0.1c0.1,0,0.2-0.1,0.3-0.2V23.9z M26.2,18.5
		c-0.2,0.2-0.5,0.4-0.6,0.7c-0.1,0.3-0.1,0.6-0.1,0.9c0,0.1,0,0.4,0,0.5c-0.1,0-0.3,0-0.4,0c0,0-0.1,0-0.1,0v0l-0.1,0
		c-0.2,0-0.3,0-0.5,0.1l0,0c0,0,0,0,0,0c0,0,0,0-0.1,0c-0.1,0-0.2,0.1-0.2,0.1c-0.3,0.2-0.4,0.5-0.6,0.8c-0.1,0.1-0.2,0.4-0.2,0.4
		c-0.1,0-0.3-0.1-0.4-0.1l-0.1,0c-0.3-0.1-0.6-0.1-0.9,0c-0.3,0.1-0.6,0.4-0.8,0.6c-0.1,0.1-0.3,0.3-0.3,0.3c-0.1,0-0.3-0.1-0.4-0.2
		c-0.3-0.2-0.6-0.4-1-0.3c-0.4,0-0.7,0.3-0.9,0.5C18.3,22.8,18.1,23,18,23c-0.1,0-0.3-0.2-0.4-0.3c-0.3-0.2-0.5-0.4-0.9-0.5
		c0,0-0.1,0-0.1,0c-0.3,0-0.6,0.2-0.9,0.3c-0.1,0.1-0.3,0.2-0.4,0.2c-0.1,0-0.2-0.2-0.3-0.3c-0.2-0.3-0.4-0.5-0.8-0.6
		c-0.3-0.1-0.6,0-0.9,0l-0.1,0c-0.1,0-0.4,0.1-0.4,0.1c-0.1,0-0.2-0.3-0.2-0.4c-0.1-0.3-0.3-0.6-0.5-0.8c-0.1,0-0.1-0.1-0.2-0.1
		c-0.2-0.1-0.4-0.1-0.6-0.1l-0.1,0v0c0,0-0.1,0-0.1,0c-0.1,0-0.4,0-0.4,0c0-0.1,0-0.3,0-0.5c0-0.3,0-0.6-0.1-0.9
		c-0.1-0.3-0.4-0.5-0.6-0.7c-0.1-0.1-0.3-0.2-0.3-0.2l0.2-1.8c0,0,0.1,0.1,0.1,0.1c0.1,0.2,0.3,0.3,0.5,0.5c0,0,0.1,0.1,0.1,0.1
		c0.2,0.2,0.4,0.4,0.7,0.5c0,0,0.1,0.1,0.2,0.1c0.2,0.1,0.4,0.3,0.7,0.4c0.1,0,0.1,0.1,0.2,0.1c0.3,0.1,0.6,0.3,0.9,0.4
		c0.1,0,0.1,0,0.2,0.1c0.3,0.1,0.6,0.2,0.9,0.3c0.1,0,0.2,0.1,0.3,0.1c0.4,0.1,0.7,0.2,1.1,0.2c0,0,0.1,0,0.1,0
		c0.3,0.1,0.7,0.1,1.1,0.1c0.1,0,0.2,0,0.3,0c0.4,0,0.8,0.1,1.2,0.1c0.4,0,0.8,0,1.2-0.1c0.1,0,0.2,0,0.3,0c0.4,0,0.7-0.1,1.1-0.1
		c0,0,0.1,0,0.1,0c0.4-0.1,0.7-0.2,1.1-0.2c0.1,0,0.2-0.1,0.3-0.1c0.3-0.1,0.6-0.2,0.9-0.3c0.1,0,0.1,0,0.2-0.1
		c0.3-0.1,0.6-0.3,0.9-0.4c0.1,0,0.1-0.1,0.2-0.1c0.2-0.1,0.4-0.3,0.7-0.4c0.1,0,0.1-0.1,0.2-0.1c0.2-0.2,0.5-0.4,0.7-0.5
		c0,0,0.1-0.1,0.1-0.1c0.2-0.2,0.3-0.3,0.4-0.5c0,0,0.1-0.1,0.1-0.1l0.2,1.8C26.5,18.3,26.3,18.4,26.2,18.5z"/>
</g>
</svg>
