<svg xmlns="http://www.w3.org/2000/svg" viewBox="0 0 54 50"><path d="M35.3 1.8C31.9.5 28.5 0 25.2 0v1c3.3 0 6.6.6 9.8 1.7 6.7 2.4 12.1 7 15.3 12.9 3.2 5.9 3.8 12.4 1.6 18.3C48.6 43 39.6 49 28.8 49c-3.3 0-6.6-.6-9.8-1.7C5.3 42.4-2.3 28.4 2.1 16.1 5.4 6.9 14.4 1 25.2 1V0C14.4 0 4.7 6 1.2 15.8c-4.6 12.8 3.3 27.4 17.5 32.5 3.4 1.2 6.8 1.8 10.1 1.8 10.8 0 20.5-6 24-15.8 4.6-12.9-3.2-27.5-17.5-32.5z"/><path d="M40.41 17.22c0-2.04-1.66-3.7-3.71-3.7-1.68 0-3.13 1.15-3.56 2.71-1.94-.85-4.09-1.34-6.14-1.34s-4.21.49-6.15 1.34a3.664 3.664 0 00-3.56-2.71c-2.04 0-3.71 1.66-3.71 3.7a3.7 3.7 0 002.02 3.3c-2.49 3.8-2.81 9.47 1.5 13.05 2.31 1.91 5.73 2.92 9.9 2.92s7.43-.95 9.74-2.81l.17-.13c4.29-3.57 3.96-9.24 1.47-13.02a3.7 3.7 0 002.02-3.3zm-3.7-2.7a2.71 2.71 0 012.71 2.7c0 1.08-.63 2.03-1.6 2.47a.5.5 0 00-.07-.08c-.16-.2-.32-.39-.47-.55a9.23 9.23 0 00-.55-.53c-.06-.05-.11-.11-.16-.16-.09-.08-.19-.15-.28-.23-.18-.15-.37-.3-.56-.45-.07-.05-.14-.09-.21-.14-.22-.16-.44-.31-.68-.45-.14-.09-.29-.17-.43-.25-.11-.06-.22-.13-.34-.2a2.72 2.72 0 012.64-2.14zm-22.12 2.7c0-1.49 1.21-2.7 2.71-2.7 1.3 0 2.38.9 2.64 2.14-.1.05-.2.12-.3.17-.16.09-.33.18-.48.28-.21.13-.4.26-.6.4-.09.06-.18.12-.27.19-.21.16-.42.33-.62.49-.07.06-.14.11-.21.17-.16.14-.3.28-.44.43-.1.1-.2.19-.3.29-.14.16-.29.33-.44.52-.03.03-.06.07-.09.1-.97-.44-1.6-1.39-1.6-2.47zm21.8 15.46l-.15.12c-2.14 1.78-5.25 2.69-9.23 2.69s-7.13-.93-9.27-2.7c-4.03-3.34-3.5-8.77-.96-12.2.02-.04.05-.07.08-.1.19-.25.38-.5.6-.73a10.36 10.36 0 011.98-1.62c.4-.26.82-.51 1.27-.74l.09-.04c1.93-.94 4.13-1.45 6.22-1.45s4.27.52 6.19 1.44l.11.05a13.04 13.04 0 012.14 1.36c.39.31.77.64 1.1 1 .23.25.45.51.64.78.02.02.03.04.05.06 2.51 3.38 3.04 8.74-.85 12.09z"/><path d="M30.67 23.52c.62 0 1.13-.51 1.13-1.13s-.51-1.13-1.13-1.13-1.13.51-1.13 1.13.51 1.13 1.13 1.13zm-7.34 0c.62 0 1.13-.51 1.13-1.13s-.51-1.13-1.13-1.13-1.13.51-1.13 1.13.51 1.13 1.13 1.13zm4.17 8.32v-2.61c.71-.08 1.4-.31 1.9-.68.53-.38.94-.94 1.12-1.55.23-.71.14-1.39-.26-1.93-.57-.78-1.67-1.17-3.27-1.17s-2.71.4-3.28 1.18c-.39.54-.48 1.23-.26 1.92.19.6.6 1.17 1.13 1.55.51.36 1.2.59 1.91.67v2.6c-3.67-.12-5.38-1.52-5.4-1.54l-.33.38-.33.38c.08.07 2.11 1.81 6.56 1.81 4.84 0 6.55-1.77 6.62-1.84l-.73-.69s-1.43 1.41-5.39 1.52zm-3.08-5.14c-.09-.28-.14-.68.11-1.03.36-.49 1.24-.77 2.47-.77s2.1.27 2.46.76c.26.35.2.76.11 1.04-.12.4-.4.79-.75 1.04-.45.32-1.16.53-1.82.53s-1.37-.2-1.83-.53c-.35-.25-.63-.64-.76-1.04z"/></svg>