<svg xmlns="http://www.w3.org/2000/svg" viewBox="0 0 54 50"><path d="M35.3 1.8C31.9.5 28.5 0 25.2 0 14.4 0 4.7 6 1.2 15.8c-4.6 12.8 3.3 27.4 17.5 32.5 3.4 1.2 6.8 1.8 10.1 1.8 10.8 0 20.5-6 24-15.8 4.6-12.9-3.2-27.5-17.5-32.5zm16.6 32.1C48.6 43 39.6 49 28.8 49c-3.3 0-6.6-.6-9.8-1.7C5.3 42.4-2.3 28.4 2.1 16.1 5.4 6.9 14.4 1 25.2 1c3.3 0 6.6.6 9.8 1.7 6.7 2.4 12.1 7 15.3 12.9 3.2 5.9 3.8 12.4 1.6 18.3z"/><path d="M37.68 22.59c.93-1.02 1.57-2.19 1.66-3.69l2.28-3.13-.81-.59-1.57 2.15c-.15-.88-.46-1.85-.97-2.95l-.91.42c.91 1.95 1.13 3.43.89 4.65l-2.08-1.73-.64.77 2.39 1.99c-.28.6-.68 1.14-1.17 1.65-.44-.19-.93-.37-1.49-.53-3.13-.91-4.76-2.7-6.33-4.44-1.78-1.96-3.47-3.81-6.97-3.69-3.75.14-6.13 2.14-7.08 5.96-.31 1.23-.43 2.44-.35 3.6v3.58c.04.77.18 1.54.41 2.29.83 2.63 2.61 4.54 5.15 5.52.92.35 1.89.62 2.89.86-.48.93-.89 1.91-1.21 2.98l.96.29c.33-1.09.76-2.1 1.27-3.04 1.69.33 3.43.51 5.15.51 2.5 0 4.93-.35 6.98-1.07 2.39-.83 4.07-2.83 4.09-4.87v-3.8c-.03-.93-.45-2.46-2.52-3.67zm-21.83-2.93c.85-3.38 2.86-5.08 6.15-5.2h.3c2.84 0 4.2 1.49 5.9 3.37 1.59 1.75 3.39 3.74 6.79 4.73.34.1.66.21.96.32-.59.5-1.26.99-1.96 1.51l-.56.41c-.31.23-.64.47-1 .72l-.27.2c-.31.22-.64.46-.99.71l-.27-2.48-.99.11.34 3.06c-1.4 1.07-2.96 2.38-4.39 4-1.88-.24-3.72-.67-5.4-1.31-1.72-.66-3.03-1.78-3.88-3.32-.28-.5-.5-1.02-.67-1.56-.1-.3-.17-.6-.22-.94-.07-.32-.12-.66-.15-1-.07-1.06.04-2.18.32-3.32zm4.6 13.81c-2.28-.88-3.81-2.52-4.55-4.88-.2-.64-.32-1.29-.36-1.92.05.1.1.2.16.3.97 1.75 2.45 3.02 4.4 3.77.66.25 1.35.47 2.05.66.23.06.47.11.71.17.48.12.96.23 1.45.32.26.05.53.08.8.12-.58.73-1.12 1.51-1.61 2.35-1.05-.24-2.07-.52-3.03-.89zm18.76-3.41c-.01 1.62-1.42 3.24-3.42 3.93-3.21 1.12-7.39 1.3-11.28.59.53-.87 1.13-1.67 1.75-2.41.08 0 .17 0 .25.02.3.03.6.05.9.06.45.03.89.05 1.33.06.13 0 .26.02.39.02.22 0 .44-.02.66-.02.29 0 .57-.01.85-.03.38-.02.76-.06 1.14-.1.26-.03.53-.05.79-.09.41-.06.8-.14 1.2-.21.21-.04.43-.07.63-.12.59-.14 1.16-.3 1.71-.49.71-.24 1.38-.6 1.99-1.08.27-.21.51-.44.73-.68.06-.07.12-.13.18-.2s.13-.14.19-.22v.97zm0-3.68c0 .54-.17 1.11-.47 1.64-.32.53-.74.99-1.24 1.38-.52.41-1.09.71-1.7.92-2.51.87-5.6 1.16-8.69.92 1.86-1.97 3.89-3.46 5.44-4.57l2.91.86.28-.96-2.17-.64c.15-.11.32-.23.46-.33l.56-.41c.83-.61 1.65-1.2 2.36-1.85 1.43.76 2.22 1.77 2.26 2.95v.09z"/><path d="M21.79 21.71c1.8 0 3.2-.95 3.2-2.16s-1.41-2.16-3.2-2.16-3.2.95-3.2 2.16 1.41 2.16 3.2 2.16zm0-3.32c1.3 0 2.2.61 2.2 1.16s-.91 1.16-2.2 1.16-2.2-.61-2.2-1.16.91-1.16 2.2-1.16z"/></svg>