<?xml version="1.0" encoding="utf-8"?>
<!-- Generator: Adobe Illustrator 27.1.1, SVG Export Plug-In . SVG Version: 6.00 Build 0)  -->
<svg version="1.1" id="Layer_1" xmlns="http://www.w3.org/2000/svg" xmlns:xlink="http://www.w3.org/1999/xlink" x="0px" y="0px"
	 viewBox="0 0 36 34" style="enable-background:new 0 0 36 34;" xml:space="preserve">
<g>
	<path d="M33.9,10.4c-2.2-4-5.9-7.1-10.4-8.8C19,0,14.1,0.1,9.9,1.8c-4.3,1.7-7.4,5-8.9,9.1C-2,19.4,3.1,29,12.5,32.3
		c2.2,0.8,4.4,1.2,6.7,1.2c2.4,0,4.8-0.5,7-1.4c4.3-1.7,7.4-5,8.9-9.1C36.5,19,36.1,14.5,33.9,10.4z M34.1,22.7
		c-1.4,3.8-4.3,6.8-8.3,8.5c-4,1.6-8.6,1.7-12.9,0.2C4,28.2-0.9,19.2,1.9,11.3c1.4-3.8,4.3-6.8,8.3-8.5c2.1-0.9,4.3-1.3,6.6-1.3
		c2.1,0,4.2,0.4,6.3,1.1c4.3,1.5,7.8,4.5,9.9,8.3C35.1,14.7,35.4,18.9,34.1,22.7z"/>
	<path d="M18,8.1c-0.1,0-2.1-0.1-3.6,1.4c-1.2,1.2-1.8,2.9-1.8,5.2c0,5.7,3.6,9.8,4.7,10.9c0.2,0.2,0.5,0.3,0.7,0.3s0.5-0.1,0.7-0.3
		c1.1-1.1,4.7-5.1,4.7-10.9c0-2.3-0.6-4-1.8-5.2C20,8,18.1,8.1,18,8.1z M18,24.9C18,24.9,18,24.9,18,24.9c-0.8-0.7-4.5-4.7-4.5-10.2
		c0-2,0.5-3.5,1.5-4.4c1.2-1.1,2.6-1.2,2.9-1.2c0,0,0,0,0,0c0,0,1.6-0.1,2.9,1.1c1,1,1.5,2.4,1.5,4.4C22.4,20.2,18.8,24.1,18,24.9z"
		/>
	<path d="M18,10.4c-1.5,0-2.7,1.2-2.7,2.7c0,1.5,1.2,2.7,2.7,2.7s2.7-1.2,2.7-2.7C20.7,11.7,19.5,10.4,18,10.4z M18,14.9
		c-1,0-1.7-0.8-1.7-1.7s0.8-1.7,1.7-1.7s1.7,0.8,1.7,1.7S19,14.9,18,14.9z"/>
</g>
</svg>
