<svg xmlns="http://www.w3.org/2000/svg" viewBox="0 0 54 50"><path d="M35.3 1.8C31.9.5 28.5 0 25.2 0v1c3.3 0 6.6.6 9.8 1.7 6.7 2.4 12.1 7 15.3 12.9 3.2 5.9 3.8 12.4 1.6 18.3C48.6 43 39.6 49 28.8 49c-3.3 0-6.6-.6-9.8-1.7C5.3 42.4-2.3 28.4 2.1 16.1 5.4 6.9 14.4 1 25.2 1V0C14.4 0 4.7 6 1.2 15.8c-4.6 12.8 3.3 27.4 17.5 32.5 3.4 1.2 6.8 1.8 10.1 1.8 10.8 0 20.5-6 24-15.8 4.6-12.9-3.2-27.5-17.5-32.5z"/><path d="M39.57 36.86l-5.66-5.66c1.92-2.08 2.98-4.76 2.98-7.62 0-4.01-2.11-7.53-5.27-9.54-.05-.03-.08-.07-.13-.1-.03-.02-.06-.02-.09-.03-.74-.45-1.54-.82-2.38-1.09-.01 0-.02-.01-.03-.02h-.01c-1.07-.34-2.21-.52-3.4-.52-2.85 0-5.54 1.06-7.62 2.97l-2.74-2.74c-.2-.2-.51-.2-.71 0s-.2.51 0 .71l2.74 2.74c-1.91 2.1-2.97 4.78-2.97 7.62 0 1.34.25 2.63.68 3.82.01.07.03.13.07.18 1.62 4.26 5.73 7.3 10.55 7.3 1.6 0 3.15-.34 4.57-.96 0 0 .01 0 .02-.01 1.1-.49 2.12-1.16 3.03-2l5.66 5.66a.485.485 0 00.7 0c.2-.2.2-.51 0-.71zm-6.44-6.28c.72-1.63 1.18-3.76 1.35-6.36.18-2.66.03-4.81-.43-6.5 1.16 1.67 1.84 3.68 1.84 5.86 0 2.63-.98 5.09-2.76 7zM18.29 16.29a10.25 10.25 0 015.97-2.92c.13.06.29.18.4.5.51 1.41-.5 4.71-2.34 7.68-2.43 3.92-5.38 5.76-6.47 5.42-.37-1.06-.58-2.2-.58-3.38 0-2.74 1.07-5.33 3.01-7.29zm-2 11.71c2.04-.12 4.97-2.83 6.89-5.92 2.05-3.3 3.05-6.81 2.43-8.54-.03-.09-.08-.17-.12-.25h.09c1.09 0 2.14.17 3.13.49 1.54.53 1.99 5.09.18 10.85-1.83 5.79-4.84 9.27-6.4 8.78h-.01c-2.73-.87-4.96-2.85-6.18-5.41zm8.22 5.83c1.93-1.3 3.96-4.59 5.33-8.91 1.36-4.31 1.58-8.16.76-10.33.16.09.32.19.48.29 1.95 1.3 2.75 4.32 2.41 9.27-.33 4.85-1.62 7.91-3.72 8.85-1.3.58-2.71.89-4.18.89-.36 0-.72-.02-1.07-.06z"/></svg>