<svg xmlns="http://www.w3.org/2000/svg" viewBox="0 0 36 34"><path d="M23.5 1.7C19 0 14.1.1 9.9 1.9 5.6 3.6 2.5 6.9 1 11s-1.1 8.6 1.1 12.6 5.9 7.1 10.4 8.8c.2.1.4.1.5.2 2 .7 4.1 1 6.1 1 1.3 0 2.7-.1 4-.4 5.6-1.2 10.1-5 11.9-10C38 14.6 32.9 5 23.5 1.7zm10.6 21c-1.7 4.7-5.9 8.2-11.1 9.3-3.1.7-6.4.5-9.6-.5-.2 0-.3-.1-.5-.2C8.6 29.8 5.1 26.8 3 23 .9 19.2.6 15 1.9 11.2c1.4-3.8 4.3-6.8 8.3-8.5 2.1-.9 4.3-1.3 6.6-1.3 2.1 0 4.2.4 6.3 1.1 8.9 3.3 13.8 12.3 11 20.2z"/><path d="M27.5 17.2c-.1-1.2-.9-4.2-3.3-6.1-1.9-1.5-4.3-2-7-1.5-4.6.9-5.7 4.6-6 5.9C9.4 15.6 8 17.2 8 19c0 2 1.6 3.7 3.7 3.7h10.5c1.4 0 2.5-.8 3.2-1.9.4.5 1.1.9 1.8.9 1.3 0 2.3-1 2.3-2.3-.1-1.1-.9-2-2-2.2zm-10.1-6.7c2.5-.5 4.6 0 6.2 1.3 2.1 1.7 2.9 4.3 2.9 5.4-.4.1-.8.3-1 .6-.5-1.4-1.8-2.3-3.4-2.3h-9.8c.3-1.4 1.3-4.3 5.1-5zm4.7 11.2H11.7C10.2 21.7 9 20.5 9 19s1.2-2.7 2.7-2.7h10.5c1.5 0 2.7 1.2 2.7 2.7s-1.3 2.7-2.8 2.7zm5-1c-.7 0-1.3-.6-1.3-1.3s.6-1.3 1.3-1.3 1.3.6 1.3 1.3-.6 1.3-1.3 1.3z"/></svg>