<?xml version="1.0" encoding="utf-8"?>
<!-- Generator: Adobe Illustrator 27.1.1, SVG Export Plug-In . SVG Version: 6.00 Build 0)  -->
<svg version="1.1" id="Layer_1" xmlns="http://www.w3.org/2000/svg" xmlns:xlink="http://www.w3.org/1999/xlink" x="0px" y="0px"
	 viewBox="0 0 54 50" style="enable-background:new 0 0 54 50;" xml:space="preserve">
<g>
	
		<ellipse transform="matrix(0.3514 -0.9362 0.9362 0.3514 -5.8674 41.5046)" style="fill:#FFFFFF;" id="icon_bg" cx="27" cy="25" rx="24.7" ry="27.3"/>
	<path id="icon_car" d="M40.3,19.3c-0.8-1.3-1.8-2.3-2.6-3C37.4,16.1,37,16,36.6,16H24.3c-1.2,0-1.8,0.3-2.4,1.1l-3.1,4.2c-0.7,1-1.1,1.2-2.5,1.6
		L15.9,23c-3.1,0.8-4.1,1.8-4.7,4.5l-0.4,1.8c-0.1,0.5-0.1,0.9,0.2,1.3c0.3,0.4,0.8,0.6,1.5,0.6h2.1c0.2,1.6,1.6,2.9,3.3,2.9
		c1.7,0,3.1-1.3,3.3-2.9h12.2c0.2,1.6,1.6,2.9,3.3,2.9c1.7,0,3.1-1.3,3.3-2.9h0.7c2.1,0,2.5-0.8,2.6-2.6v0
		C43.3,26.4,42.6,22.7,40.3,19.3z M34.8,20.2c0.1,0.3,0,0.7-0.2,1c-0.2,0.3-0.5,0.5-0.9,0.5l-4.8,0.4l0.6-5.1h4.7L34.8,20.2z
		 M19.6,21.9l3.1-4.2c0.4-0.5,0.6-0.7,1.6-0.7h4.1l-0.6,5.1l-9.1,0.7C19.1,22.6,19.3,22.3,19.6,21.9z M17.9,33c-1.3,0-2.3-1-2.3-2.3
		s1-2.3,2.3-2.3c1.3,0,2.3,1,2.3,2.3S19.2,33,17.9,33z M36.6,33c-1.3,0-2.3-1-2.3-2.3s1-2.3,2.3-2.3s2.3,1,2.3,2.3S37.9,33,36.6,33z
		 M42.2,28.5c-0.1,1.4-0.2,1.6-1.6,1.6h-0.7c-0.2-1.6-1.6-2.8-3.3-2.8c-1.6,0-3,1.2-3.3,2.8H21.2c-0.2-1.6-1.6-2.8-3.3-2.8
		c-1.6,0-3,1.2-3.3,2.8h-2.1c-0.4,0-0.6-0.1-0.7-0.2c-0.1-0.1-0.1-0.2,0-0.4l0.4-1.8c0.5-2.2,1.2-3,3.9-3.7l17.6-1.3
		c0.7-0.1,1.2-0.4,1.6-0.9c0.4-0.5,0.5-1.2,0.4-1.8l-0.6-3h1.4c0.2,0,0.4,0.1,0.6,0.2c0.6,0.6,1.6,1.5,2.3,2.7
		C41.7,23.1,42.3,26.5,42.2,28.5z"/>
</g>
</svg>
