<?xml version="1.0" encoding="utf-8"?>
<!-- Generator: Adobe Illustrator 27.1.1, SVG Export Plug-In . SVG Version: 6.00 Build 0)  -->
<svg version="1.1" id="Layer_1" xmlns="http://www.w3.org/2000/svg" xmlns:xlink="http://www.w3.org/1999/xlink" x="0px" y="0px"
	 viewBox="0 0 54 50" style="enable-background:new 0 0 54 50;" xml:space="preserve">
<path d="M35.3,1.8C31.9,0.5,28.5,0,25.2,0v1c3.3,0,6.6,0.6,9.8,1.7c6.7,2.4,12.1,7,15.3,12.9s3.8,12.4,1.6,18.3
	C48.6,43,39.6,49,28.8,49c-3.3,0-6.6-0.6-9.8-1.7C5.3,42.4-2.3,28.4,2.1,16.1C5.4,6.9,14.4,1,25.2,1V0C14.4,0,4.7,6,1.2,15.8
	c-4.6,12.8,3.3,27.4,17.5,32.5c3.4,1.2,6.8,1.8,10.1,1.8c10.8,0,20.5-6,24-15.8C57.4,21.4,49.6,6.8,35.3,1.8z"/>
<g>
	<path d="M42.8,22.2c-0.3,0-0.7,0.1-1,0.1c-0.6-1.3-1.7-2.6-3.2-3.6c-0.2-0.9-1.3-1.6-2.6-1.6c-0.1,0-0.2,0-0.3,0
		c-1.9-0.8-4.1-1.4-6.4-1.6c0.7-0.6,1.1-1.4,1.1-2.3c0-0.2,0-0.7-0.4-1s-0.9-0.1-1.5,0.1c-0.5,0.2-1,0.4-1.6,0.4s-1.1-0.2-1.6-0.4
		c-0.6-0.2-1.1-0.4-1.5-0.1c-0.4,0.3-0.4,0.8-0.4,1c0,0.9,0.4,1.7,1.1,2.3c-2.3,0.2-4.5,0.8-6.4,1.6c-0.1,0-0.2,0-0.3,0
		c-1.3,0-2.3,0.7-2.6,1.6c-1.5,1.1-2.6,2.3-3.2,3.7c-0.3-0.1-0.6-0.1-0.9-0.1c-1,0-1.8,0.9-1.8,2s0.8,2,1.8,2c0.1,0,0.1,0,0.4,0.2
		v4.3c0,0.8,0.9,1.5,2.1,1.5h26.7c1.2,0,2.1-0.7,2.1-1.5v-4.3c0.2-0.2,0.2-0.2,0.4-0.2c1,0,1.8-0.9,1.8-2
		C44.6,23.1,43.8,22.2,42.8,22.2z M36.1,20c-1,0-1.7-0.5-1.7-1c0-0.4,0.6-0.9,1.4-1c0.1,0,0.2,0,0.3,0c1,0,1.6,0.5,1.7,0.9l0,0
		C37.7,19.5,37.1,20,36.1,20z M24.5,13.2c0-0.1,0-0.1,0-0.1c0.1,0,0.4,0.1,0.6,0.2c0.5,0.2,1.2,0.5,1.9,0.5c0.7,0,1.4-0.2,1.9-0.5
		c0.2-0.1,0.4-0.2,0.6-0.2v0.1c0,1.2-1.1,2.2-2.5,2.2S24.5,14.4,24.5,13.2z M16.3,19c0-0.5,0.7-0.9,1.7-0.9c0.1,0,0.2,0,0.3,0
		c0.8,0.1,1.4,0.5,1.4,1s-0.7,1-1.7,1C17,20,16.3,19.5,16.3,19z M15.5,19.8L15.5,19.8c0.1,0.2,0.2,0.3,0.4,0.4l0.1,0.1
		c0.1,0.1,0.3,0.2,0.5,0.3l0,0c0.2,0.1,0.4,0.2,0.6,0.2c0.1,0,0.1,0,0.2,0c0.2,0,0.5,0.1,0.7,0.1c1.5,0,2.7-0.9,2.7-2
		c0-0.1,0-0.3-0.1-0.4v-0.1c0-0.1-0.1-0.2-0.1-0.2l-0.1-0.1c0-0.1-0.1-0.1-0.1-0.2s-0.1-0.1-0.1-0.1s-0.1-0.1-0.2-0.1l-0.1-0.1
		c2.2-0.8,4.7-1.2,7.3-1.2s5.1,0.4,7.3,1.2c0,0-0.1,0-0.1,0.1c-0.1,0.1-0.2,0.1-0.2,0.2L34.1,18c-0.1,0.1-0.1,0.1-0.2,0.2l-0.1,0.1
		c0,0.1-0.1,0.2-0.1,0.3v0.1c0,0.1-0.1,0.3-0.1,0.4c0,1.1,1.2,2,2.7,2c0.2,0,0.5,0,0.7-0.1c0.1,0,0.1,0,0.2,0
		c0.5-0.1,0.8-0.3,1.2-0.6l0,0c0.2-0.1,0.3-0.3,0.4-0.5c1.1,0.9,1.9,1.9,2.4,2.9c0,0,0,0-0.1,0C41,22.9,40.9,23,40.7,23l-0.1,0.1
		c-0.1,0.1-0.2,0.2-0.3,0.3c-0.3,0.2-0.3,0.2-0.4,0.2c-0.1,0-0.1,0-0.4-0.3c-0.5-0.4-1.3-1.1-2.7-1.1s-2.2,0.7-2.8,1.2
		c-0.3,0.2-0.3,0.2-0.4,0.2c-0.1,0-0.1,0-0.4-0.2c-0.5-0.4-1.3-1.2-2.8-1.2s-2.3,0.7-2.8,1.2c-0.3,0.2-0.3,0.2-0.4,0.2
		s-0.1,0-0.4-0.2c-0.5-0.4-1.3-1.2-2.7-1.2c-1.5,0-2.3,0.7-2.8,1.2c-0.3,0.2-0.3,0.2-0.4,0.2s-0.1,0-0.4-0.2
		c-0.5-0.4-1.3-1.2-2.8-1.2s-2.3,0.7-2.7,1.2c-0.3,0.2-0.3,0.2-0.4,0.2s-0.1,0-0.5-0.3c-0.1-0.1-0.2-0.2-0.3-0.3c0,0-0.1,0-0.1-0.1
		c-0.1-0.1-0.2-0.2-0.4-0.3l0,0C13.6,21.7,14.4,20.7,15.5,19.8z M41.4,30.7c0,0.2-0.4,0.5-1.1,0.5H13.7c-0.6,0-1.1-0.3-1.1-0.5v-3.6
		l0,0c0.1,0,0.1,0.1,0.2,0.1c0.1,0,0.1,0,0.2,0.1c0.1,0,0.2,0.1,0.2,0.1c0.1,0,0.1,0,0.2,0.1c0.1,0,0.2,0,0.3,0.1c0.1,0,0.1,0,0.2,0
		c0.2,0,0.3,0,0.5,0c1.5,0,2.3-0.7,2.7-1.2c0.3-0.2,0.3-0.2,0.4-0.2s0.1,0,0.4,0.2c0.5,0.4,1.3,1.2,2.7,1.2c1.5,0,2.3-0.7,2.7-1.2
		c0.3-0.2,0.3-0.2,0.4-0.2s0.1,0,0.4,0.2c0.5,0.4,1.3,1.2,2.8,1.2c1.4,0,2.2-0.7,2.8-1.2c0.3-0.2,0.3-0.2,0.4-0.2s0.1,0,0.4,0.2
		c0.4,0.4,1.3,1.2,2.8,1.2c1.4,0,2.2-0.7,2.8-1.2c0.3-0.2,0.3-0.2,0.4-0.2c0.1,0,0.1,0,0.4,0.3c0.5,0.4,1.3,1.1,2.7,1.1
		c0.2,0,0.4,0,0.5,0s0.1,0,0.2,0c0.1,0,0.2,0,0.3-0.1c0.1,0,0.1,0,0.2-0.1c0.1,0,0.2-0.1,0.2-0.1c0.1,0,0.1,0,0.1-0.1
		c0.1,0,0.1-0.1,0.2-0.1l0,0v3.6H41.4z M42.8,25.2c-0.1,0-0.3,0-0.4,0l0,0L42,25.5c-0.1,0-0.1,0.1-0.2,0.1l-0.2,0.2
		c-0.5,0.4-1,0.8-2,0.8c-1.1,0-1.7-0.5-2.1-0.9c-0.4-0.3-0.6-0.5-1.1-0.5s-0.7,0.2-1.1,0.5c-0.4,0.4-1,0.9-2.1,0.9s-1.7-0.5-2.1-0.9
		c-0.3-0.3-0.6-0.5-1.1-0.5s-0.7,0.2-1.1,0.5c-0.4,0.4-1,0.9-2.1,0.9s-1.7-0.5-2.1-0.9c-0.3-0.3-0.6-0.5-1.1-0.5s-0.7,0.2-1.1,0.5
		c-0.4,0.4-1,0.9-2.1,0.9s-1.7-0.5-2.1-0.9c-0.3-0.3-0.6-0.5-1.1-0.5s-0.7,0.2-1.1,0.5c-0.4,0.4-1,0.9-2.1,0.9c-1,0-1.5-0.4-2-0.8
		l-0.1-0.1c-0.1-0.1-0.2-0.2-0.3-0.2l-0.4-0.2l0,0c-0.1,0-0.2,0-0.4,0c-0.5,0-0.8-0.5-0.8-1c0-0.6,0.4-1,0.8-1c0.4,0,0.7,0.1,1,0.2
		c0.4,0.2,0.7,0.4,1,0.7c0.4,0.3,0.6,0.5,1.1,0.5s0.7-0.2,1.1-0.5c0.4-0.4,1-0.9,2.1-0.9s1.7,0.5,2.1,0.9c0.3,0.3,0.6,0.5,1.1,0.5
		s0.7-0.2,1.1-0.5c0.4-0.4,1-0.9,2.1-0.9s1.6,0.5,2.1,0.9c0.3,0.3,0.6,0.5,1.1,0.5s0.7-0.2,1.1-0.5c0.4-0.4,1-0.9,2.1-0.9
		s1.7,0.5,2.1,0.9c0.4,0.3,0.6,0.5,1.1,0.5s0.7-0.2,1.1-0.5c0.5-0.4,1-0.9,2.1-0.9s1.6,0.5,2.1,0.9c0.4,0.3,0.6,0.5,1.1,0.5
		s0.7-0.2,1.1-0.5c0.3-0.2,0.6-0.5,1-0.7l0,0c0.3-0.1,0.7-0.2,1-0.2c0.5,0,0.8,0.5,0.8,1C43.6,24.8,43.3,25.2,42.8,25.2z"/>
	<path d="M27,21c1.5,0,2.7-0.9,2.7-2s-1.2-2-2.7-2s-2.7,0.9-2.7,2S25.5,21,27,21z M27,18.1c1,0,1.7,0.5,1.7,1S28,20,27,20
		s-1.7-0.5-1.7-1S26,18.1,27,18.1z"/>
</g>
</svg>
