<?xml version="1.0" encoding="utf-8"?>
<!-- Generator: Adobe Illustrator 27.1.1, SVG Export Plug-In . SVG Version: 6.00 Build 0)  -->
<svg version="1.1" id="Layer_1" xmlns="http://www.w3.org/2000/svg" xmlns:xlink="http://www.w3.org/1999/xlink" x="0px" y="0px"
	 viewBox="0 0 54 50" style="enable-background:new 0 0 54 50;" xml:space="preserve">
<g>
	<polygon points="25.2,0 25.2,0 25.2,0 	"/>
	<path d="M35.3,1.8C31.9,0.5,28.5,0,25.2,0v1c3.3,0,6.6,0.6,9.8,1.7c6.7,2.4,12.1,7,15.3,12.9c3.2,5.9,3.8,12.4,1.6,18.3
		C48.6,43,39.6,49,28.8,49c-3.3,0-6.6-0.6-9.8-1.7c-6.7-2.4-12.1-7-15.3-12.9C0.6,28.5,0,22,2.1,16.1C5.4,6.9,14.4,1,25.2,1l0-1
		c0,0,0,0,0,0c-10.8,0-20.5,6-24,15.8c-4.6,12.8,3.3,27.4,17.5,32.5c3.4,1.2,6.8,1.8,10.1,1.8c10.8,0,20.5-6,24-15.8
		C57.4,21.4,49.6,6.8,35.3,1.8z"/>
	<path d="M13.7,19.2v8.5c0,1.1,0.9,2,2,2h1.2v2.6h1v-2.6h18.2v2.6h1v-2.6h1.2c1.1,0,2-0.9,2-2v-8.5c0-1.1-0.9-2-2-2H15.7
		C14.6,17.2,13.7,18.1,13.7,19.2z M39.3,19.2v8.5c0,0.5-0.4,1-1,1H15.7c-0.5,0-1-0.4-1-1v-8.5c0-0.5,0.4-1,1-1h22.6
		C38.8,18.2,39.3,18.7,39.3,19.2z"/>
	<path d="M23.9,27.5c2.2,0,4.1-1.8,4.1-4.1c0-2.2-1.8-4.1-4.1-4.1c-2.2,0-4.1,1.8-4.1,4.1C19.9,25.7,21.7,27.5,23.9,27.5z
		 M23.9,20.4c1.7,0,3.1,1.4,3.1,3.1c0,1.7-1.4,3.1-3.1,3.1s-3.1-1.4-3.1-3.1C20.9,21.7,22.2,20.4,23.9,20.4z"/>
	<path d="M33.1,23.6c0.9,0,1.6-0.7,1.6-1.6s-0.7-1.6-1.6-1.6c-0.9,0-1.6,0.7-1.6,1.6S32.2,23.6,33.1,23.6z M33.1,21.4
		c0.3,0,0.6,0.3,0.6,0.6s-0.3,0.6-0.6,0.6s-0.6-0.3-0.6-0.6S32.8,21.4,33.1,21.4z"/>
</g>
</svg>
