<svg xmlns="http://www.w3.org/2000/svg" viewBox="0 0 54 50"><path d="M25.2 0zm10.1 1.8C31.9.5 28.5 0 25.2 0v1c3.3 0 6.6.6 9.8 1.7 6.7 2.4 12.1 7 15.3 12.9 3.2 5.9 3.8 12.4 1.6 18.3C48.6 43 39.6 49 28.8 49c-3.3 0-6.6-.6-9.8-1.7-6.7-2.4-12.1-7-15.3-12.9C.6 28.5 0 22 2.1 16.1 5.4 6.9 14.4 1 25.2 1V0C14.4 0 4.7 6 1.2 15.8c-4.6 12.8 3.3 27.4 17.5 32.5 3.4 1.2 6.8 1.8 10.1 1.8 10.8 0 20.5-6 24-15.8 4.6-12.9-3.2-27.5-17.5-32.5z"/><path d="M16.9 38.6l2.4 1.5c.3.2.6.3 1 .3.6 0 1.1-.3 1.5-.8l12.7-18.1c1.4-.4 2.6-1.3 3.4-2.6.8-1.4 1.1-3 .7-4.5-.4-1.6-1.3-2.9-2.7-3.7-1.4-.8-3-1.1-4.5-.7-1.6.4-2.9 1.3-3.7 2.7-.8 1.3-1 2.7-.8 4.2L16.3 36.2c-.5.8-.2 1.9.6 2.4zm10.9-22.1c-.1-.7-.1-1.3.1-1.9l8.1 5c-.5.4-1.1.7-1.7.9l-.8-.5-5.7-3.5zm.7-3.4c.7-1.1 1.8-1.9 3.1-2.2 1.3-.3 2.6-.1 3.8.6 1.1.7 1.9 1.8 2.2 3.1.3 1.3.1 2.6-.6 3.8-.1.2-.2.3-.4.5l-8.4-5.2c.1-.3.2-.4.3-.6zM17.2 36.7l10.4-19.1 3.6 2.2 2.3 1.4L20.9 39c-.3.4-.7.5-1.1.2l-2.4-1.5c-.3-.2-.5-.7-.2-1z"/><path d="M24.6 28.8c.3.2.6.2.9.2.6 0 1.1-.3 1.4-.8l2.4-3.9c.5-.8.2-1.8-.5-2.3-.8-.5-1.8-.2-2.3.5l-2.4 3.9c-.2.4-.3.8-.2 1.3.1.5.3.9.7 1.1zm.3-1.7l2.4-3.9c.1-.2.3-.3.6-.3.1 0 .2 0 .4.1.3.2.4.6.2.9l-2.4 3.9c-.2.3-.6.4-.9.2-.2-.1-.3-.2-.3-.4-.1-.2-.1-.4 0-.5z"/></svg>