<svg xmlns="http://www.w3.org/2000/svg" viewBox="0 0 36 34"><path d="M33.9 10.4c-2.2-4-5.9-7.1-10.4-8.8C19 0 14.1.1 9.9 1.8c-4.3 1.7-7.4 5-8.9 9.1-3 8.5 2.1 18.1 11.5 21.4 2.2.8 4.4 1.2 6.7 1.2 2.4 0 4.8-.5 7-1.4 4.3-1.7 7.4-5 8.9-9.1 1.4-4 1-8.5-1.2-12.6zm.2 12.3c-1.4 3.8-4.3 6.8-8.3 8.5-4 1.6-8.6 1.7-12.9.2C4 28.2-.9 19.2 1.9 11.3c1.4-3.8 4.3-6.8 8.3-8.5 2.1-.9 4.3-1.3 6.6-1.3 2.1 0 4.2.4 6.3 1.1 4.3 1.5 7.8 4.5 9.9 8.3 2.1 3.8 2.4 8 1.1 11.8z"/><path d="M18 9c-4.4 0-8 3.6-8 8s3.6 8 8 8 8-3.6 8-8-3.6-8-8-8zm0 15c-3.9 0-7-3.1-7-7s3.1-7 7-7 7 3.1 7 7-3.1 7-7 7z"/><path d="M18.5 11.5h-1v6h3.8v-1h-2.8z"/></svg>