<svg xmlns="http://www.w3.org/2000/svg" viewBox="0 0 54 50"><path d="M35.3 1.8C31.9.5 28.5 0 25.2 0v1c3.3 0 6.6.6 9.8 1.7 6.7 2.4 12.1 7 15.3 12.9 3.2 5.9 3.8 12.4 1.6 18.3C48.6 43 39.6 49 28.8 49c-3.3 0-6.6-.6-9.8-1.7C5.3 42.4-2.3 28.4 2.1 16.1 5.4 6.9 14.4 1 25.2 1V0C14.4 0 4.7 6 1.2 15.8c-4.6 12.8 3.3 27.4 17.5 32.5 3.4 1.2 6.8 1.8 10.1 1.8 10.8 0 20.5-6 24-15.8 4.6-12.9-3.2-27.5-17.5-32.5z"/><path d="M34.13 35.61L27 30.43l-7.13 5.18-.77-.56 2.72-8.38-7.13-5.18.29-.9h8.81l2.72-8.38h.95l2.72 8.38h8.81l.29.9-7.13 5.18 2.72 8.38-.77.56zm-7.42-6.21h.59l6.18 4.49-2.36-7.26.18-.56 6.18-4.49h-7.63l-.48-.35-2.36-7.26-2.36 7.26-.48.35h-7.63l6.18 4.49.18.56-2.36 7.26 6.18-4.49z"/></svg>