<svg xmlns="http://www.w3.org/2000/svg" viewBox="0 0 36 34"><path d="M25.7 9.8c-1.9-1.9-4.4-3-7.2-3-5.7 0-10.3 4.6-10.3 10.2 0 2.1.6 4.1 1.8 5.8l-.8 3.7 3.8-.8c1.6 1 3.5 1.6 5.4 1.6 5.7 0 10.2-4.6 10.2-10.2.1-2.9-1-5.5-2.9-7.3zM24.2 21c-.2.7-1.2 1.2-1.9 1.4-.5.1-1.2.2-3.4-.7-2.9-1.2-4.7-4.1-4.9-4.3-.1-.2-1.2-1.5-1.2-2.9s.7-2.1 1-2.4c.2-.2.6-.4 1-.4h.3c.3 0 .4 0 .6.5.2.6.8 2 .9 2.1.1.1.1.3 0 .5s-.2.3-.3.4c-.1.2-.3.3-.4.5-.1.2-.3.3-.1.6.2.3.7 1.2 1.6 2 1.1 1 2 1.3 2.3 1.4.2.1.5.1.7-.1.2-.2.5-.6.8-1 .2-.3.4-.3.7-.2.3.1 1.7.8 1.9.9.3.1.5.2.5.3.1.2.1.7-.1 1.4z"/></svg>