<svg xmlns="http://www.w3.org/2000/svg" viewBox="0 0 54 50"><path d="M35.3 1.8C31.9.5 28.5 0 25.2 0v1c3.3 0 6.6.6 9.8 1.7 6.7 2.4 12.1 7 15.3 12.9 3.2 5.9 3.8 12.4 1.6 18.3C48.6 43 39.6 49 28.8 49c-3.3 0-6.6-.6-9.8-1.7C5.3 42.4-2.3 28.4 2.1 16.1 5.4 6.9 14.4 1 25.2 1V0C14.4 0 4.7 6 1.2 15.8c-4.6 12.8 3.3 27.4 17.5 32.5 3.4 1.2 6.8 1.8 10.1 1.8 10.8 0 20.5-6 24-15.8 4.6-12.9-3.2-27.5-17.5-32.5z"/><path d="M33.57 35.58H20.42c-.22 0-.41-.14-.48-.35l-5.18-16.12c-.07-.21.01-.44.19-.56.18-.12.42-.12.6.02l7.83 6.24 3.14-10.05a.504.504 0 01.96 0l3.13 10.05 7.83-6.24c.17-.14.42-.15.6-.02s.26.35.19.56l-5.18 16.12c-.07.21-.26.35-.48.35zm-12.78-1h12.42l4.56-14.19-7.11 5.67a.496.496 0 01-.79-.24l-2.88-9.22-2.88 9.22c-.05.16-.17.28-.33.33a.48.48 0 01-.46-.09l-7.11-5.67 4.56 14.19z"/><path d="M27 33.01c-1.3 0-2.35-1.37-2.35-3.05s1.06-3.05 2.35-3.05 2.35 1.37 2.35 3.05-1.06 3.05-2.35 3.05zm0-5.1c-.73 0-1.35.94-1.35 2.05s.62 2.05 1.35 2.05 1.35-.94 1.35-2.05-.62-2.05-1.35-2.05z"/></svg>