<svg xmlns="http://www.w3.org/2000/svg" viewBox="0 0 54 50"><path d="M35.3 1.8C31.9.5 28.5 0 25.2 0v1c3.3 0 6.6.6 9.8 1.7 6.7 2.4 12.1 7 15.3 12.9 3.2 5.9 3.8 12.4 1.6 18.3C48.6 43 39.6 49 28.8 49c-3.3 0-6.6-.6-9.8-1.7C5.3 42.4-2.3 28.4 2.1 16.1 5.4 6.9 14.4 1 25.2 1V0C14.4 0 4.7 6 1.2 15.8c-4.6 12.8 3.3 27.4 17.5 32.5 3.4 1.2 6.8 1.8 10.1 1.8 10.8 0 20.5-6 24-15.8 4.6-12.9-3.2-27.5-17.5-32.5z"/><path d="M37.2 21.62h-.26v-2.9c0-1.05-.86-1.91-1.92-1.91h-1.09l-2.38-4.96-10.31 4.96h-2.77c-1.05 0-1.91.86-1.91 1.91V32.4c0 1.05.86 1.91 1.91 1.91h16.56c1.06 0 1.92-.86 1.92-1.91v-2.89h.26c1.01 0 1.82-.82 1.82-1.84v-4.24c0-1.01-.82-1.82-1.82-1.82zm-6.12-8.44l1.74 3.63h-9.28l7.54-3.63zm4.86 19.22c0 .5-.41.91-.92.91H18.46c-.5 0-.91-.41-.91-.91V18.72c0-.5.41-.91.91-.91h16.56c.51 0 .92.41.92.91v2.9h-8.97c-1.01 0-1.82.82-1.82 1.82v4.24c0 1.01.82 1.84 1.82 1.84h8.97v2.89zm2.09-4.72c0 .46-.37.84-.82.84H26.97c-.45 0-.82-.38-.82-.84v-4.24c0-.45.37-.82.82-.82h10.24c.45 0 .82.37.82.82v4.24z"/><path d="M28.9 24.48c-.6 0-1.09.49-1.09 1.09s.49 1.09 1.09 1.09 1.09-.49 1.09-1.09-.49-1.09-1.09-1.09z"/></svg>