<svg xmlns="http://www.w3.org/2000/svg" viewBox="0 0 54 50"><path d="M35.3 1.8C31.9.5 28.5 0 25.2 0v1c3.3 0 6.6.6 9.8 1.7 6.7 2.4 12.1 7 15.3 12.9 3.2 5.9 3.8 12.4 1.6 18.3C48.6 43 39.6 49 28.8 49c-3.3 0-6.6-.6-9.8-1.7C5.3 42.4-2.3 28.4 2.1 16.1 5.4 6.9 14.4 1 25.2 1V0C14.4 0 4.7 6 1.2 15.8c-4.6 12.8 3.3 27.4 17.5 32.5 3.4 1.2 6.8 1.8 10.1 1.8 10.8 0 20.5-6 24-15.8 4.6-12.9-3.2-27.5-17.5-32.5z"/><path d="M24.47 24.01c0-1.52-1.24-2.76-2.76-2.76h-.19v-3.63a2.768 2.768 0 002.26-2.71c0-1.52-1.24-2.76-2.76-2.76s-2.76 1.24-2.76 2.76c0 1.35.98 2.47 2.26 2.71v3.63h-.19c-1.52 0-2.76 1.24-2.76 2.76 0 .67.25 1.28.65 1.76h-2.06V35.8h9.7V25.77H23.8c.4-.48.65-1.09.65-1.76zm-5.2-9.09c0-.97.79-1.76 1.76-1.76s1.76.79 1.76 1.76-.79 1.76-1.76 1.76-1.76-.79-1.76-1.76zm-.68 9.09c0-.97.79-1.76 1.76-1.76h1.37c.97 0 1.76.79 1.76 1.76s-.79 1.76-1.76 1.76h-1.37c-.97 0-1.76-.79-1.76-1.76zm6.29 10.79h-7.7v-3.52h7.7v3.52zm0-4.52h-7.7v-3.52h7.7v3.52zm8.59-4.51V21.9l2.26-2.26v-.21c0-1.52-1.24-2.76-2.76-2.76s-2.76 1.24-2.76 2.76v.21l2.26 2.26v3.87h-4.35V35.8h9.7V25.77h-4.35zm-.5-8.09c.9 0 1.65.68 1.75 1.56l-1.75 1.75-1.75-1.75c.1-.88.84-1.56 1.75-1.56zm3.85 17.12h-7.7v-3.52h7.7v3.52zm-7.7-4.52v-3.52h7.7v3.52h-7.7z"/></svg>