<svg xmlns="http://www.w3.org/2000/svg" viewBox="0 0 36 34"><path d="M22 9h-8c-1.1 0-1.9.9-1.9 1.9V23c0 1.1.9 1.9 1.9 1.9h8c1.1 0 1.9-.9 1.9-1.9V10.9c0-1-.9-1.9-1.9-1.9zm.9 14.1c0 .5-.4.9-.9.9h-8c-.5 0-.9-.4-.9-.9V10.9c0-.5.4-.9.9-.9h8c.5 0 .9.4.9.9v12.2z"/><path d="M18 11.2c-1.6 0-2.9 1.3-2.9 2.9S16.4 17 18 17c1.6 0 2.9-1.3 2.9-2.9s-1.3-2.9-2.9-2.9zm0 4.9c-1.1 0-1.9-.9-1.9-1.9s.9-1.9 1.9-1.9 1.9.9 1.9 1.9-.8 1.9-1.9 1.9zm0 2.2c-1.3 0-2.3 1-2.3 2.3s1 2.3 2.3 2.3c1.3 0 2.3-1 2.3-2.3s-1-2.3-2.3-2.3zm0 3.6c-.7 0-1.3-.6-1.3-1.3s.6-1.3 1.3-1.3 1.3.6 1.3 1.3-.6 1.3-1.3 1.3z"/><path d="M33.9 10.4c-2.2-4-5.9-7.1-10.4-8.8C14.1-1.7 4 2.5 1 10.9-.5 15-.1 19.5 2.1 23.5s5.9 7.1 10.4 8.8c2.2.8 4.4 1.2 6.7 1.2 2.4 0 4.8-.5 6.9-1.4 4.3-1.7 7.4-5 8.9-9.1 1.5-4 1.1-8.5-1.1-12.6zm.2 12.3c-1.4 3.8-4.3 6.8-8.3 8.5-4 1.6-8.6 1.7-12.9.2-4.3-1.5-7.8-4.5-9.9-8.3-2.1-3.8-2.4-8-1.1-11.8 2.2-6.1 8.2-9.8 14.9-9.8 2.1 0 4.2.4 6.3 1.1 4.3 1.5 7.8 4.5 9.9 8.3 2.1 3.8 2.4 8 1.1 11.8z"/></svg>