<?xml version="1.0" encoding="UTF-8"?>
<svg id="Layer_1" xmlns="http://www.w3.org/2000/svg" version="1.1" viewBox="0 0 36 34">
  <!-- Generator: Adobe Illustrator 29.5.1, SVG Export Plug-In . SVG Version: 2.1.0 Build 141)  -->
  <path d="M23.5,1.7C14.1-1.7,4,2.5,1,10.9-.5,15-.1,19.5,2.1,23.5c2.2,4,5.9,7.1,10.4,8.8,2.2.8,4.4,1.2,6.6,1.2,7.1,0,13.5-4,15.9-10.4,3-8.5-2.1-18.1-11.5-21.4ZM34.1,22.7c-2.8,7.9-12.3,11.8-21.2,8.7-4.3-1.5-7.8-4.5-9.9-8.3C.9,19.3.6,15.1,1.9,11.3,4.1,5.2,10.1,1.5,16.8,1.5c2.1,0,4.2.4,6.3,1.1,8.9,3.2,13.8,12.2,11,20.1Z"/>
  <path d="M26.17,12.83c-.12-.03-.24-.05-.35-.08.24-.3.39-.67.39-1.08,0-.96-.78-1.73-1.73-1.73s-1.73.78-1.73,1.73c0,.18.04.36.09.52-1.03-.15-2.07-.25-3.11-.3.21-.32.33-.7.33-1.11,0-1.13-.92-2.05-2.05-2.05s-2.05.92-2.05,2.05c0,.41.12.79.33,1.11-1.01.05-2.03.16-3.04.3.05-.17.09-.34.09-.52,0-.96-.78-1.73-1.73-1.73s-1.73.78-1.73,1.73c0,.4.15.77.38,1.07-.13.03-.27.05-.4.09-.84.2-1.42.95-1.42,1.82v7.13c0,1.03.84,1.87,1.87,1.87h15.46c1.03,0,1.87-.84,1.87-1.87v-7.13c0-.86-.58-1.61-1.42-1.82ZM24.47,10.95c.4,0,.73.33.73.73s-.33.73-.73.73-.73-.33-.73-.73.33-.73.73-.73ZM11.59,10.95c.4,0,.73.33.73.73s-.33.73-.73.73-.73-.33-.73-.73.33-.73.73-.73ZM9.41,16.74c.21.12.4.32.63.59.4.49.91,1.09,1.9,1.09s1.5-.61,1.9-1.09c.39-.47.63-.73,1.13-.73s.74.26,1.13.73c.4.49.91,1.09,1.9,1.09s1.5-.61,1.9-1.09c.39-.47.63-.73,1.13-.73s.75.26,1.13.73c.4.49.91,1.09,1.9,1.09s1.5-.61,1.9-1.09c.23-.28.42-.47.63-.6v3.18H9.41v-3.18ZM18,9.74c.58,0,1.05.47,1.05,1.05s-.47,1.05-1.05,1.05-1.05-.47-1.05-1.05.47-1.05,1.05-1.05ZM10.06,13.81c2.6-.63,5.27-.95,7.94-.95h.11c2.63,0,5.27.33,7.83.95.39.09.66.44.66.84v1.03c-.67.16-1.07.62-1.4,1.01-.39.47-.63.73-1.13.73s-.74-.26-1.13-.73c-.4-.49-.91-1.09-1.9-1.09s-1.5.6-1.9,1.09c-.39.47-.63.73-1.13.73s-.74-.26-1.13-.73c-.4-.49-.91-1.09-1.9-1.09s-1.5.6-1.9,1.09c-.39.47-.63.73-1.13.73s-.74-.26-1.13-.73c-.33-.39-.73-.85-1.4-1.01v-1.03c0-.4.27-.75.66-.84ZM25.73,22.65h-15.46c-.48,0-.87-.39-.87-.87v-.86h17.19v.86c0,.48-.39.87-.87.87Z"/>
</svg>