<?xml version="1.0" encoding="utf-8"?>
<!-- Generator: Adobe Illustrator 27.1.1, SVG Export Plug-In . SVG Version: 6.00 Build 0)  -->
<svg version="1.1" id="Layer_1" xmlns="http://www.w3.org/2000/svg" xmlns:xlink="http://www.w3.org/1999/xlink" x="0px" y="0px"
	 viewBox="0 0 36 34" style="enable-background:new 0 0 36 34;" xml:space="preserve">
<g>
	<g>
		<path d="M24.1,18.6c-0.3-0.4-0.2-0.5,0-0.9c0,0,2.5-3.4,2.7-4.6l0,0c0.1-0.4,0-0.7-0.6-0.7h-2c-0.5,0-0.8,0.3-0.9,0.6
			c0,0-1,2.5-2.5,4.1c-0.5,0.5-0.7,0.6-0.9,0.6c-0.1,0-0.3-0.1-0.3-0.6v-3.9c0-0.5-0.1-0.7-0.6-0.7h-3.2c-0.3,0-0.5,0.2-0.5,0.5
			c0,0.5,0.7,0.6,0.8,1.9v2.9c0,0.6-0.1,0.8-0.4,0.8c-0.7,0-2.4-2.5-3.4-5.3c-0.2-0.6-0.4-0.8-0.9-0.8h-2c-0.6,0-0.7,0.3-0.7,0.6
			c0,0.5,0.7,3.2,3.2,6.6c1.7,2.4,4,3.6,6.2,3.6c1.3,0,1.5-0.3,1.5-0.8c0-2.3-0.1-2.5,0.5-2.5c0.3,0,0.8,0.1,2,1.3
			c1.4,1.4,1.6,2,2.4,2h2c0.6,0,0.9-0.3,0.7-0.8C26.8,21.2,24.2,18.8,24.1,18.6z"/>
	</g>
	<g>
		<g>
			<path d="M19.2,33.5c-2.2,0-4.5-0.4-6.7-1.2C3.1,29-2,19.4,1,10.9c1.5-4.1,4.6-7.3,8.9-9.1C14.1,0.1,19,0,23.5,1.7
				c4.5,1.6,8.2,4.7,10.4,8.8c2.2,4.1,2.6,8.5,1.1,12.6c-1.5,4.1-4.6,7.3-8.9,9.1C23.9,33.1,21.6,33.5,19.2,33.5z M16.8,1.5
				c-2.3,0-4.5,0.4-6.6,1.3c-4,1.6-6.9,4.7-8.3,8.5c-2.8,7.9,2.1,17,10.9,20.1c4.3,1.5,8.9,1.5,12.9-0.2c4-1.6,6.9-4.7,8.3-8.5l0,0
				c1.4-3.8,1-8-1.1-11.8c-2.1-3.8-5.6-6.8-9.9-8.3C21.1,1.9,18.9,1.5,16.8,1.5z"/>
		</g>
	</g>
</g>
</svg>
