<?xml version="1.0" encoding="utf-8"?>
<!-- Generator: Adobe Illustrator 27.1.1, SVG Export Plug-In . SVG Version: 6.00 Build 0)  -->
<svg version="1.1" id="Layer_1" xmlns="http://www.w3.org/2000/svg" xmlns:xlink="http://www.w3.org/1999/xlink" x="0px" y="0px"
	 viewBox="0 0 36 34" style="enable-background:new 0 0 36 34;" xml:space="preserve">
<g>
	<path d="M21.7,20.9c-0.4-0.4-0.9-0.7-1.5-0.9c1.6-0.8,2.7-2.4,2.7-4.3c0-1.2-0.5-2.3-1.2-3.2l0.6,0.2c0.1,0,0.1,0,0.2,0
		c0.1,0,0.2,0,0.3-0.1c0.1-0.1,0.2-0.2,0.2-0.4V9c0-0.2-0.1-0.3-0.2-0.4c-0.1-0.1-0.3-0.1-0.5-0.1L18,10.1l-4.1-1.5
		c-0.2-0.1-0.3,0-0.5,0.1c-0.1,0.1-0.2,0.2-0.2,0.4v3.2c0,0.2,0.1,0.3,0.2,0.4c0.1,0.1,0.2,0.1,0.3,0.1c0.1,0,0.1,0,0.2,0l0.4-0.1
		c-0.7,0.9-1.2,2-1.2,3.1c0,1,0.3,1.9,0.9,2.8c0,0.1,0.1,0.1,0.1,0.1c0.4,0.6,1,1.1,1.7,1.5c-0.5,0.2-1,0.5-1.5,0.9
		c-1.2,1-1.8,2.5-1.8,4.1h1c0-1,0.3-1.9,0.9-2.7c0.2,0.2,0.5,0.2,0.8,0.2c0.1,0,0.1,0,0.2,0c0,0,0,0.1,0,0.2
		c0.1,0.3,0.2,0.7,0.5,0.8c0.4,0.2,0.7,0,0.9-0.1c0,0,0.1-0.1,0.2-0.1c0,0,0.1,0.1,0.1,0.1c0.2,0.2,0.4,0.5,0.8,0.5
		c0.4,0,0.7-0.3,0.8-0.5c0,0,0.1-0.1,0.1-0.1c0.1,0,0.1,0.1,0.2,0.1c0.3,0.1,0.6,0.3,1,0.1c0.4-0.2,0.5-0.6,0.5-0.8c0,0,0-0.1,0-0.2
		c0.1,0,0.1,0,0.2,0c0.2,0,0.5,0,0.8-0.2c0.6,0.8,0.9,1.7,0.9,2.7h1c0-1.5-0.6-2.9-1.7-3.9L21.7,20.9z M21.9,9.7v1.8l-2.4-0.9
		L21.9,9.7z M14.2,9.7l2.4,0.9l-2.4,0.9V9.7z M14.9,17.9l-0.1-0.1c-0.4-0.6-0.7-1.4-0.7-2.2c0-1.9,1.3-3.5,3.2-3.8
		c0.2,0,0.4-0.1,0.6-0.1c2.1,0,3.9,1.7,3.9,3.9c0,2.1-1.6,3.8-3.7,3.8l-0.1,0c0,0,0,0,0,0c0,0,0,0,0,0
		C16.8,19.5,15.6,18.9,14.9,17.9z M20,21.7c-0.2,0.2-0.3,0.5-0.4,0.7c0,0,0,0.1,0,0.1c0,0,0,0-0.1,0c-0.2-0.1-0.5-0.3-0.8-0.2
		c-0.3,0.1-0.5,0.3-0.7,0.5c0,0,0,0-0.1,0.1c0,0,0,0-0.1-0.1c-0.2-0.2-0.4-0.4-0.7-0.5c-0.1,0-0.1,0-0.2,0c-0.3,0-0.5,0.1-0.7,0.2
		c0,0,0,0,0,0c0,0,0-0.1,0-0.1c-0.1-0.2-0.1-0.5-0.4-0.7c-0.2-0.2-0.5-0.2-0.7-0.2c0.1-0.1,0.1-0.1,0.2-0.2c0.1-0.1,0.2-0.1,0.2-0.1
		c0.2-0.1,0.3-0.2,0.5-0.2c0.1,0,0.1-0.1,0.2-0.1c0.2-0.1,0.4-0.1,0.6-0.2c0.1,0,0.1,0,0.2,0c0.2,0,0.4-0.1,0.6-0.1c0,0,0.1,0,0.1,0
		c0.2,0,0.5,0,0.7,0c0,0,0.1,0,0.1,0c0.5,0.1,1,0.2,1.5,0.5c0,0,0.1,0.1,0.1,0.1c0.2,0.1,0.3,0.2,0.5,0.3
		C20.5,21.5,20.2,21.5,20,21.7z"/>
	<path d="M23.5,1.7C19,0,14.1,0.1,9.9,1.9c-4.3,1.7-7.4,5-8.9,9.1c-1.5,4.1-1.1,8.6,1.1,12.6c2.2,4,5.9,7.1,10.4,8.8
		c2.2,0.8,4.4,1.2,6.6,1.2c7.1,0,13.5-4,15.9-10.4C38,14.6,32.9,5,23.5,1.7z M34.1,22.7c-2.8,7.9-12.3,11.8-21.2,8.7
		c-4.3-1.5-7.8-4.5-9.9-8.3c-2.1-3.8-2.4-8-1.1-11.8c1.4-3.8,4.3-6.8,8.3-8.5c2.1-0.9,4.3-1.3,6.6-1.3c2.1,0,4.2,0.4,6.3,1.1
		C32,5.8,36.9,14.8,34.1,22.7z"/>
</g>
</svg>
