<svg xmlns="http://www.w3.org/2000/svg" viewBox="0 0 54 50"><path d="M25.2 0zm10.1 1.8C31.9.5 28.5 0 25.2 0v1c3.3 0 6.6.6 9.8 1.7 6.7 2.4 12.1 7 15.3 12.9 3.2 5.9 3.8 12.4 1.6 18.3C48.6 43 39.6 49 28.8 49c-3.3 0-6.6-.6-9.8-1.7-6.7-2.4-12.1-7-15.3-12.9C.6 28.5 0 22 2.1 16.1 5.4 6.9 14.4 1 25.2 1V0C14.4 0 4.7 6 1.2 15.8c-4.6 12.8 3.3 27.4 17.5 32.5 3.4 1.2 6.8 1.8 10.1 1.8 10.8 0 20.5-6 24-15.8 4.6-12.9-3.2-27.5-17.5-32.5z"/><path d="M13.7 19.2v8.5c0 1.1.9 2 2 2h1.2v2.6h1v-2.6h18.2v2.6h1v-2.6h1.2c1.1 0 2-.9 2-2v-8.5c0-1.1-.9-2-2-2H15.7c-1.1 0-2 .9-2 2zm25.6 0v8.5c0 .5-.4 1-1 1H15.7c-.5 0-1-.4-1-1v-8.5c0-.5.4-1 1-1h22.6c.5 0 1 .5 1 1z"/><path d="M23.9 27.5c2.2 0 4.1-1.8 4.1-4.1 0-2.2-1.8-4.1-4.1-4.1-2.2 0-4.1 1.8-4.1 4.1.1 2.3 1.9 4.1 4.1 4.1zm0-7.1c1.7 0 3.1 1.4 3.1 3.1 0 1.7-1.4 3.1-3.1 3.1s-3.1-1.4-3.1-3.1c.1-1.8 1.4-3.1 3.1-3.1zm9.2 3.2c.9 0 1.6-.7 1.6-1.6s-.7-1.6-1.6-1.6c-.9 0-1.6.7-1.6 1.6s.7 1.6 1.6 1.6zm0-2.2c.3 0 .6.3.6.6s-.3.6-.6.6-.6-.3-.6-.6.3-.6.6-.6z"/></svg>