<svg xmlns="http://www.w3.org/2000/svg" viewBox="0 0 54 50"><path d="M35.3 1.8C31.9.5 28.5 0 25.2 0v1c3.3 0 6.6.6 9.8 1.7 6.7 2.4 12.1 7 15.3 12.9s3.8 12.4 1.6 18.3C48.6 43 39.6 49 28.8 49c-3.3 0-6.6-.6-9.8-1.7C5.3 42.4-2.3 28.4 2.1 16.1 5.4 6.9 14.4 1 25.2 1V0C14.4 0 4.7 6 1.2 15.8c-4.6 12.8 3.3 27.4 17.5 32.5 3.4 1.2 6.8 1.8 10.1 1.8 10.8 0 20.5-6 24-15.8 4.6-12.9-3.2-27.5-17.5-32.5z"/><path d="M27.9 15.3h-.4v-1.5h2.6c.3 0 .5-.2.5-.5V11c0-.3-.2-.5-.5-.5h-6.2c-.3 0-.5.2-.5.5v2.3c0 .3.2.5.5.5h2.6v1.5h-.4c-5.9.4-10.6 5.4-10.6 11.4 0 6.3 5.1 11.4 11.4 11.4 6.3 0 11.4-5.1 11.4-11.4.1-6-4.5-11-10.4-11.4zm-3.5-3.8h5.2v1.3h-5.2v-1.3zM27 37.1c-5.8 0-10.4-4.7-10.4-10.4 0-5.4 4.2-10 9.7-10.4h1.6c5.4.4 9.7 5 9.7 10.4-.2 5.7-4.8 10.4-10.6 10.4z"/><path d="M27 17.7c-5 0-9 4.1-9 9s4.1 9 9 9 9-4.1 9-9-4-9-9-9zm.5 17v-2.1h-1v2.1c-4-.2-7.3-3.5-7.5-7.5h2.1v-1H19c.2-4 3.5-7.3 7.5-7.5v2.1h1v-2.1c4 .2 7.3 3.5 7.5 7.5h-2.1v1H35c-.2 4-3.5 7.3-7.5 7.5z"/><path d="M31.5 21.5l-3.2 3.2c-.4-.2-.8-.4-1.3-.4-1.3 0-2.4 1.1-2.4 2.4 0 1.3 1.1 2.4 2.4 2.4 1.3 0 2.4-1.1 2.4-2.4 0-.5-.1-.9-.4-1.3l3.2-3.2-.7-.7zM27 28.1c-.8 0-1.4-.6-1.4-1.4 0-.8.6-1.4 1.4-1.4s1.4.6 1.4 1.4c0 .8-.6 1.4-1.4 1.4z"/></svg>