<svg xmlns="http://www.w3.org/2000/svg" viewBox="0 0 36 34"><path d="M33.9 10.4c-2.2-4-5.9-7.1-10.4-8.8C19 0 14.1.1 9.9 1.8c-4.3 1.7-7.4 5-8.9 9.1-3 8.5 2.1 18.1 11.5 21.4 2.2.8 4.4 1.2 6.7 1.2 2.4 0 4.8-.5 7-1.4 4.3-1.7 7.4-5 8.9-9.1 1.4-4 1-8.5-1.2-12.6zm.2 12.3c-1.4 3.8-4.3 6.8-8.3 8.5-4 1.6-8.6 1.7-12.9.2C4 28.2-.9 19.2 1.9 11.3c1.4-3.8 4.3-6.8 8.3-8.5 2.1-.9 4.3-1.3 6.6-1.3 2.1 0 4.2.4 6.3 1.1 4.3 1.5 7.8 4.5 9.9 8.3 2.1 3.8 2.4 8 1.1 11.8z"/><path d="M18.1 7.1h-.2c-4.1 0-5.2 1.1-5.2 5.2v5.6c0 3.9 1.1 5.1 4.8 5.2v.4c-1.7.1-4.1.5-4.1 1.7 0 1.3 2.9 1.7 4.6 1.7s4.6-.4 4.6-1.7c0-1.2-2.4-1.6-4.1-1.7v-.4c3.8-.1 4.8-1.3 4.8-5.2v-5.6c0-4.1-1.1-5.2-5.2-5.2zm3.5 18.1c-.2.2-1.4.7-3.6.7-2.3 0-3.5-.5-3.6-.7.1-.2 1.2-.7 3.1-.7v.7h1v-.7c1.8.1 2.8.5 3.1.7zm-3.5-3.1h-.2c-3.4 0-4.2-.6-4.2-3.9h2.8v-1h-2.8v-1.6h2.8v-1h-2.8V13h2.8v-1h-2.8c0-3.3.8-3.9 4.2-3.9h.2c3.4 0 4.2.6 4.2 3.9h-2.8v1h2.8v1.6h-2.8v1h2.8v1.6h-2.8v1h2.8c0 3.3-.8 3.9-4.2 3.9z"/></svg>