<svg xmlns="http://www.w3.org/2000/svg" viewBox="0 0 54 50"><path d="M35.3 1.8C31.9.5 28.5 0 25.2 0v1c3.3 0 6.6.6 9.8 1.7 6.7 2.4 12.1 7 15.3 12.9s3.8 12.4 1.6 18.3C48.6 43 39.6 49 28.8 49c-3.3 0-6.6-.6-9.8-1.7C5.3 42.4-2.3 28.4 2.1 16.1 5.4 6.9 14.4 1 25.2 1V0C14.4 0 4.7 6 1.2 15.8c-4.6 12.8 3.3 27.4 17.5 32.5 3.4 1.2 6.8 1.8 10.1 1.8 10.8 0 20.5-6 24-15.8 4.6-12.9-3.2-27.5-17.5-32.5z"/><path d="M41.9 26.1c0-4.7-3.7-9-9.2-10.8.1-.8-.1-1.6-.3-2.6l-.2-.3-.6-.2-.2.2c-.3.3-2 1.9-4.8 1.9-8.2.2-14.5 5.3-14.5 11.7 0 6.3 6.3 11.4 14.3 11.7h1.2c8-.2 14.3-5.4 14.3-11.6zm-28.8 0c0-5.8 6.1-10.6 13.6-10.7 2.4 0 4.1-1.1 4.9-1.8.2.7.2 1.4.1 1.9-.3 2.1-2.5 2.5-3.7 2.5h-1c-6.6 0-12 4.4-12 9.9 0 .3 0 .6.1.9v.3c0 .2.1.4.1.6 0 .1.1.2.1.3 0 .2.1.4.2.5 0 .1.1.2.1.3.1.2.2.4.2.6 0 .1.1.2.1.2.1.3.3.5.4.8l.1.1c.1.2.3.4.4.6.1.1.1.2.2.2.1.1.2.2.2.3-2.5-1.8-4.1-4.5-4.1-7.5zm13.3 10.6c-5.9-.2-10.5-4.1-10.5-8.9 0-4.4 4.1-8.1 9.4-8.7-.7.6-1.4 1.3-2 2-.8 1.1-1.5 2.4-1.9 3.7l.9.3c.4-1.2 1-2.4 1.7-3.4.7-.9 1.5-1.7 2.4-2.3v8.4h1v-8.4c.9.6 1.7 1.4 2.4 2.3.8 1 1.4 2.2 1.7 3.4l.9-.3c-.4-1.4-1.1-2.6-1.9-3.7-.6-.8-1.2-1.4-2-2 5.3.7 9.4 4.4 9.4 8.8 0 4.7-4.6 8.6-10.5 8.9h-.6s-.2 0-.4-.1zm10.3-3c1.5-1.6 2.3-3.6 2.3-5.8 0-4.4-3.6-8.1-8.5-9.4l.1-.1c.1-.1.3-.1.4-.2.1-.1.2-.1.2-.2l.3-.3.2-.2c.1-.1.2-.2.2-.3.1-.1.1-.2.2-.2.1-.1.1-.2.2-.4 0-.1.1-.2.1-.3v-.1c5 1.7 8.4 5.6 8.4 9.8.1 3.1-1.5 5.8-4.1 7.7z"/></svg>