<?xml version="1.0" encoding="UTF-8"?>
<svg id="Layer_1" xmlns="http://www.w3.org/2000/svg" version="1.1" viewBox="0 0 36 34">
  <!-- Generator: Adobe Illustrator 29.5.1, SVG Export Plug-In . SVG Version: 2.1.0 Build 141)  -->
  <path d="M33.89,10.43c-2.18-4.03-5.87-7.14-10.4-8.76C18.95.04,14.12.11,9.88,1.84,5.62,3.59,2.47,6.81,1,10.92c-1.94,5.45-.6,11.48,3.58,16.13.65.72,1.38,1.41,2.17,2.05,1.7,1.38,3.65,2.47,5.78,3.23,2.2.79,4.46,1.17,6.68,1.17,3.77,0,7.41-1.12,10.4-3.29.94-.68,1.8-1.46,2.56-2.31,1.25-1.42,2.21-3.04,2.85-4.83,1.47-4.11,1.08-8.6-1.11-12.65ZM34.06,22.74c-.6,1.67-1.49,3.19-2.65,4.51-.71.8-1.52,1.53-2.4,2.17-4.48,3.25-10.52,4-16.15,1.98-2.02-.73-3.87-1.76-5.48-3.07-.75-.61-1.44-1.27-2.05-1.95C1.39,22,.12,16.35,1.94,11.26c1.37-3.84,4.33-6.85,8.32-8.49,2.08-.85,4.3-1.28,6.56-1.28,2.11,0,4.25.37,6.33,1.11,4.3,1.54,7.8,4.48,9.86,8.3,2.05,3.8,2.42,8,1.05,11.83Z"/>
  <path d="M16.18,16.06c0-1.23-1-2.23-2.23-2.23h-.03v-2.56c.99-.23,1.73-1.11,1.73-2.17,0-1.23-1-2.23-2.23-2.23s-2.23,1-2.23,2.23c0,1.06.74,1.94,1.73,2.17v2.56h-.02c-1.23,0-2.23,1-2.23,2.23,0,.45.14.88.37,1.23h-1.45v7.92h7.66v-7.92h-1.45c.23-.35.37-.77.37-1.23ZM12.2,9.1c0-.68.55-1.23,1.23-1.23s1.23.55,1.23,1.23-.55,1.23-1.23,1.23-1.23-.55-1.23-1.23ZM11.67,16.06c0-.68.55-1.23,1.23-1.23h1.05c.68,0,1.23.55,1.23,1.23s-.55,1.23-1.23,1.23h-1.05c-.68,0-1.23-.55-1.23-1.23ZM16.26,24.21h-5.66v-2.46h5.66v2.46ZM16.26,20.75h-5.66v-2.46h5.66v2.46Z"/>
  <path d="M23.07,14.49l1.73-1.73v-.21c0-1.23-1-2.23-2.23-2.23s-2.23,1-2.23,2.23v.21l1.73,1.73v2.8h-3.33v7.92h7.66v-7.92h-3.33v-2.8ZM22.57,11.33c.61,0,1.12.45,1.21,1.04l-1.21,1.21-1.21-1.21c.09-.59.6-1.04,1.21-1.04ZM25.4,24.21h-5.66v-2.46h5.66v2.46ZM25.4,20.75h-5.66v-2.46h5.66v2.46Z"/>
</svg>