<svg xmlns="http://www.w3.org/2000/svg" viewBox="0 0 36 34"><path d="M26.4 14.8c-.3-.4-.8-.7-1.4-.7h-3.1l-.4-3.1c-.2-1.3-1.2-2.3-2.4-2.3h-2.3c-1.2 0-2.2 1-2.4 2.3l-.4 3.2h-3c-.5 0-1 .2-1.4.7-.3.4-.5.9-.4 1.5l1.5 7.6c.2.8.9 1.4 1.8 1.4h11.1c.8 0 1.6-.6 1.8-1.4l1.5-7.6c0-.6-.1-1.2-.5-1.6zm-10.9-3.7c.1-.8.7-1.4 1.4-1.4h2.3c.7 0 1.3.6 1.4 1.4l.4 3.1h-5.8l.3-3.1zm8.8 12.6c-.1.4-.4.6-.8.6h-11c-.4 0-.7-.3-.8-.6l-1.5-7.6c0-.2 0-.5.2-.6.2-.2.4-.3.6-.3h14c.2 0 .5.1.6.3.2.2.2.4.2.6l-1.5 7.6z"/><path d="M15.8 22.2h-1l-.3-4.9h1l.3 4.9zm1.7-4.9h1v4.8h-1v-4.8zm4 0l-.3 4.9h-1l.3-4.9h1z"/></svg>