<?xml version="1.0" encoding="utf-8"?>
<!-- Generator: Adobe Illustrator 27.1.1, SVG Export Plug-In . SVG Version: 6.00 Build 0)  -->
<svg version="1.1" id="Layer_1" xmlns="http://www.w3.org/2000/svg" xmlns:xlink="http://www.w3.org/1999/xlink" x="0px" y="0px"
	 viewBox="0 0 36 34" style="enable-background:new 0 0 36 34;" xml:space="preserve">
<path d="M23.5,1.7C18.9,0,14.1,0.1,9.9,1.9c-4.3,1.7-7.4,5-8.9,9.1c-1.5,4.1-1.1,8.6,1.1,12.6c2.2,4,5.8,7.1,10.3,8.7l0,0l0.5,0.2
	c2,0.7,4.1,1,6.1,1c0,0,0,0,0,0c0,0,0,0,0.1,0c1.3,0,2.7-0.1,4-0.4c5.6-1.2,10.1-5,11.9-10v0C38,14.6,32.9,5,23.5,1.7z M11.8,13.2
	l4.3-0.6L18,8.7l1.9,3.9l4.3,0.6l-3.1,3l0.7,4.3l-3.9-2l-3.9,2l0.7-4.3L11.8,13.2z M22.2,32.2c-0.7,0.1-1.4,0.2-2,0.2
	c-0.1,0-0.2,0-0.3,0c-0.2,0-0.5,0-0.7,0c-1.8,0-3.7-0.3-5.5-0.8l4.1-11.2L22.2,32.2z M34.1,22.7c-1.7,4.6-5.7,8.1-10.8,9.3l-4.4-12
	l4.4,2.3l-1-5.8l4.2-4.1l-5.8-0.8L18,6.4l-2.6,5.3l-5.8,0.8l4.2,4.1l-1,5.8l4.1-2.2l-4.1,11.2C8.5,29.8,5,26.9,3,23.1
	c-2.1-3.8-2.4-8-1.1-11.8c1.4-3.8,4.3-6.8,8.3-8.5c2.1-0.9,4.3-1.3,6.6-1.3c2.1,0,4.2,0.4,6.3,1.1C32,5.8,36.9,14.8,34.1,22.7z"/>
</svg>
