<svg xmlns="http://www.w3.org/2000/svg" viewBox="0 0 54 50"><path d="M35.3 1.8C31.9.5 28.5 0 25.2 0v1c3.3 0 6.6.6 9.8 1.7 6.7 2.4 12.1 7 15.3 12.9 3.2 5.9 3.8 12.4 1.6 18.3C48.6 43 39.6 49 28.8 49c-3.3 0-6.6-.6-9.8-1.7C5.3 42.4-2.3 28.4 2.1 16.1 5.4 6.9 14.4 1 25.2 1V0C14.4 0 4.7 6 1.2 15.8c-4.6 12.8 3.3 27.4 17.5 32.5 3.4 1.2 6.8 1.8 10.1 1.8 10.8 0 20.5-6 24-15.8 4.6-12.9-3.2-27.5-17.5-32.5z"/><path d="M33.27 34.16c-.2 0-.41-.03-.61-.09-1.17-.37-2.34-.83-3.47-1.36-1.13-.53-2.27-1.16-3.38-1.87-1.52-.99-2.94-2.11-4.24-3.36-.96-.92-1.83-1.88-2.6-2.86-.75-.94-1.46-1.97-2.12-3.05-.28-.47-.36-1.01-.22-1.5.12-.42.39-.75.75-.94l1.14-.62c.8-.42 1.8-.12 2.28.68a23.91 23.91 0 002.88 3.84c1.73 1.89 3.74 3.48 5.97 4.73 1.38.78 2.86 1.43 4.4 1.92.9.28 1.42 1.19 1.19 2.06L34.9 33c-.1.39-.36.73-.74.94-.27.15-.58.23-.9.23zM19.29 19.31c-.1 0-.21.02-.3.07l-1.15.62c-.16.08-.23.23-.26.33-.06.22-.02.48.12.71.63 1.05 1.32 2.04 2.04 2.95.75.94 1.59 1.87 2.51 2.76 1.25 1.2 2.63 2.29 4.09 3.24 1.07.69 2.17 1.3 3.26 1.81 1.09.51 2.21.96 3.34 1.31.25.08.51.06.72-.05.1-.05.22-.15.26-.32l.34-1.27c.09-.35-.14-.73-.53-.85-1.61-.52-3.16-1.19-4.59-2a24.88 24.88 0 01-6.22-4.92c-1.12-1.2-2.13-2.55-3-4a.77.77 0 00-.65-.39z"/><path d="M29.34 28.72l-.17-.1c-2.33-1.3-4.42-2.96-6.22-4.92l-.14-.15v-.2c.06-2.83 1.28-6.31 2.97-8.45 1.32-1.67 2.97-2.56 4.78-2.58 1.62 0 3.31.65 4.92 1.92 3.53 2.8 4.13 6.38 1.59 9.59-1.69 2.14-4.79 4.13-7.54 4.83l-.19.05zm-5.52-5.55a23.81 23.81 0 005.66 4.47c2.5-.7 5.28-2.5 6.81-4.44 3.1-3.92.03-7.03-1.43-8.18-1.41-1.12-2.87-1.71-4.23-1.71h-.05c-1.52.02-2.86.76-4 2.2-1.53 1.93-2.65 5.05-2.75 7.65zm-.97 14.39c-1.6 0-3.21-.52-4.56-1.58-3.18-2.52-3.72-7.16-1.21-10.34.57-.72 1.25-1.32 2.02-1.77l.37-.22.27.34c.75.94 1.59 1.87 2.51 2.76 1.25 1.2 2.63 2.29 4.09 3.24 1.07.69 2.17 1.3 3.26 1.81l.39.18-.13.42a7.21 7.21 0 01-1.25 2.37 7.368 7.368 0 01-5.78 2.79zm-3.6-12.59c-.52.35-.98.79-1.38 1.29-2.18 2.75-1.71 6.76 1.04 8.93s6.76 1.71 8.94-1.04c.4-.51.72-1.06.94-1.64a28.43 28.43 0 01-7.21-5.04c-.84-.81-1.62-1.65-2.32-2.51z"/><path d="M22.85 33.95a3.759 3.759 0 01-3.72-3.31c-.12-.99.16-1.97.78-2.76a3.66 3.66 0 011.86-1.25l.28-.08.21.2c1.26 1.2 2.63 2.29 4.1 3.24l.24.16v.29c-.05.77-.33 1.49-.81 2.09-.62.78-1.51 1.28-2.5 1.4-.15.02-.29.03-.44.03zm-1.06-6.27c-.43.17-.8.45-1.09.82-.46.58-.66 1.29-.57 2.02.09.73.45 1.38 1.02 1.83.57.46 1.29.66 2.02.57.73-.08 1.38-.45 1.84-1.02.29-.37.48-.79.55-1.25-1.33-.89-2.6-1.89-3.76-2.98z"/></svg>