<?xml version="1.0" encoding="UTF-8"?>
<svg id="Layer_1" xmlns="http://www.w3.org/2000/svg" version="1.1" viewBox="0 0 36 34">
  <!-- Generator: Adobe Illustrator 29.5.1, SVG Export Plug-In . SVG Version: 2.1.0 Build 141)  -->
  <path d="M33.89,10.43c-2.18-4.03-5.87-7.14-10.4-8.76C18.96.04,14.12.1,9.88,1.84,5.62,3.59,2.47,6.81,1,10.92c-1.94,5.45-.6,11.48,3.58,16.13.65.72,1.38,1.41,2.17,2.05,1.7,1.38,3.65,2.46,5.78,3.23,2.2.79,4.46,1.17,6.68,1.17,3.77,0,7.41-1.12,10.4-3.29.94-.68,1.8-1.46,2.56-2.31,1.25-1.42,2.21-3.04,2.85-4.83,1.47-4.11,1.08-8.6-1.11-12.65ZM34.06,22.74c-.6,1.67-1.49,3.19-2.65,4.51-.71.8-1.52,1.53-2.4,2.17-4.48,3.25-10.52,3.99-16.15,1.98-2.02-.73-3.87-1.76-5.48-3.07-.75-.61-1.44-1.27-2.05-1.95C1.39,22,.13,16.35,1.94,11.25c1.37-3.84,4.33-6.85,8.32-8.49,2.08-.85,4.3-1.28,6.56-1.28,2.11,0,4.25.37,6.33,1.11,4.3,1.54,7.8,4.48,9.86,8.3,2.05,3.8,2.42,8,1.05,11.83Z"/>
  <path d="M27.19,13.21l-.89-.14-.17-1.3c-.02-.14-.1-.27-.22-.35-.12-.08-.27-.1-.4-.07l-1.3.33-.3-.9c-.07-.21-.26-.36-.49-.34l-.81.03-.1-.94c-.02-.24-.22-.43-.46-.45l-1.14-.08-.73-1.11c-.09-.14-.24-.22-.4-.22-.16,0-.32.07-.41.2-1.02,1.35.85,4.26,1.65,5.39-.44.49-1.27,1.5-2.02,2.93-1.53-1.83-3.21-2.94-3.95-3.38.46-1.4,1.5-5.05.01-6.12-.13-.1-.3-.12-.46-.07-.15.05-.27.18-.32.33l-.41,1.41-1.18.46c-.23.09-.36.33-.31.56l.21,1.05-.9.24c-.22.06-.37.25-.37.47l-.02,1.07-1.5.08c-.14,0-.28.07-.37.19-.09.11-.13.26-.1.4l.25,1.44-.91.45c-.16.08-.26.23-.28.41s.06.34.21.45c.29.21.63.29,1.02.29,1.65,0,3.96-1.61,4.86-2.29.67.38,2.49,1.52,4.05,3.52-1.09,2.54-1.68,6.04.24,9.98l.22.45.9-.44-.22-.45c-1.64-3.36-1.31-6.34-.47-8.6,1.3,2.03,2.2,4.74,1.66,8.24l-.08.49.99.15.08-.49c.63-4.08-.59-7.21-2.2-9.46.78-1.61,1.72-2.71,2.14-3.16.78.28,2.45.81,3.84.81.8,0,1.5-.18,1.88-.68.11-.14.13-.33.06-.49-.07-.16-.21-.28-.39-.31ZM10.42,13.26l1.4-.07c.26-.01.47-.23.48-.49l.02-1.17.99-.27c.25-.07.41-.32.36-.58l-.22-1.1,1.02-.4c.14-.06.25-.18.3-.32l.07-.24c.02,1.14-.38,2.85-.82,4.09-.97.74-2.32,1.59-3.38,1.98.01-.06.01-.12,0-.19l-.21-1.25ZM21.97,12.88c-.66-.89-1.39-2.12-1.73-3.08.09.11.21.17.35.18l.96.07.1.99c.03.26.2.46.52.45l.91-.03.33.99c.08.25.34.39.6.33l1.21-.31.15,1.11s.02.08.03.12c-1.02-.07-2.39-.43-3.41-.81Z"/>
</svg>