<svg xmlns="http://www.w3.org/2000/svg" viewBox="0 0 36 34"><path d="M23.5 1.7C14.1-1.7 4 2.5 1 10.9-.5 15-.1 19.5 2.1 23.5s5.9 7.1 10.4 8.8c2.2.8 4.4 1.2 6.6 1.2 7.1 0 13.5-4 15.9-10.4C38 14.6 32.9 5 23.5 1.7zm10.6 21c-2.8 7.9-12.3 11.8-21.2 8.7-4.3-1.5-7.8-4.5-9.9-8.3-2.1-3.8-2.4-8-1.1-11.8 2.2-6.1 8.2-9.8 14.9-9.8 2.1 0 4.2.4 6.3 1.1 8.9 3.2 13.8 12.2 11 20.1z"/><path d="M23.8 7.7c-.9-.6-2-.7-3-.5-1 .2-1.9.9-2.5 1.8-.5.8-.7 1.8-.5 2.7L11 24.1c-.3.6-.1 1.4.5 1.8l1.5.9c.2.1.5.2.7.2.4 0 .8-.2 1.1-.6l8.1-11.5c.9-.3 1.7-.9 2.2-1.7.6-.9.7-2 .5-3-.3-1.1-.9-2-1.8-2.5zM22 13.6l-3.3-2.1v-.8l4.7 2.9c-.2.2-.5.3-.7.4l-.7-.4zm-8 12.3c-.1.2-.3.2-.5.1L12 25c-.2-.1-.2-.3-.1-.5l6.6-12.1 3.4 2.1L14 25.9zm10.2-13.2c0 .1-.1.1-.1.2L19 9.7c0-.1.1-.1.1-.2.4-.7 1.1-1.2 1.9-1.4.8-.2 1.6-.1 2.3.4.7.4 1.2 1.1 1.4 1.9.1.8 0 1.6-.5 2.3z"/><path d="M19.8 15.8c-.1-.3-.3-.6-.6-.8-.3-.2-.6-.2-.9-.2-.3.1-.6.3-.8.6L16 17.9c-.2.3-.2.6-.2.9.1.3.3.6.6.8.2.1.4.2.7.2h.3c.3-.1.6-.3.8-.6l1.5-2.5c.1-.3.2-.6.1-.9zm-1 .4l-1.5 2.5c0 .1-.1.1-.2.1h-.2c-.1 0-.1-.1-.1-.2v-.2l1.5-2.5c0-.1.1-.1.2-.1h.2c.1 0 .1.1.1.2v.2z"/></svg>