<?xml version="1.0" encoding="utf-8"?>
<!-- Generator: Adobe Illustrator 27.1.1, SVG Export Plug-In . SVG Version: 6.00 Build 0)  -->
<svg version="1.1" id="Layer_1" xmlns="http://www.w3.org/2000/svg" xmlns:xlink="http://www.w3.org/1999/xlink" x="0px" y="0px"
	 viewBox="0 0 36 34" style="enable-background:new 0 0 36 34;" xml:space="preserve">
<g>
	<path d="M33.9,10.4c-2.2-4-5.9-7.1-10.4-8.8C19,0,14.1,0.1,9.9,1.8c-4.3,1.7-7.4,5-8.9,9.1C-2,19.4,3.1,29,12.5,32.3
		c2.2,0.8,4.4,1.2,6.7,1.2c2.4,0,4.8-0.5,7-1.4c4.3-1.7,7.4-5,8.9-9.1C36.5,19,36.1,14.5,33.9,10.4z M34.1,22.7
		c-1.4,3.8-4.3,6.8-8.3,8.5c-4,1.6-8.6,1.7-12.9,0.2C4,28.2-0.9,19.2,1.9,11.3c1.4-3.8,4.3-6.8,8.3-8.5c2.1-0.9,4.3-1.3,6.6-1.3
		c2.1,0,4.2,0.4,6.3,1.1c4.3,1.5,7.8,4.5,9.9,8.3C35.1,14.7,35.4,18.9,34.1,22.7z"/>
	<path d="M20.5,9.3h-4.4c-4.4,0-5.6,1.2-5.6,5.6v4.4c0,4.4,1.2,5.6,5.6,5.6h4.4c4.4,0,5.6-1.2,5.6-5.6v-4.4
		C26,10.5,24.8,9.3,20.5,9.3z M25,19.3c0,3.9-0.7,4.6-4.6,4.6h-4.4c-3.9,0-4.6-0.7-4.6-4.6v-4.4c0-3.9,0.7-4.6,4.6-4.6h4.4
		c3.9,0,4.6,0.7,4.6,4.6V19.3z"/>
	<path d="M18.5,12.8h-2.6c-0.3,0-0.5,0.2-0.5,0.5v7.5h1v-2.6h2.1c2,0,2.6-0.6,2.6-2.6v-0.1C21.1,13.5,20.5,12.8,18.5,12.8z
		 M20.1,15.6c0,1.4-0.2,1.6-1.6,1.6h-2.1v-3.4h2.1c1.4,0,1.6,0.2,1.6,1.6V15.6z"/>
</g>
</svg>
