<svg xmlns="http://www.w3.org/2000/svg" viewBox="0 0 36 34"><path d="M24.1 18.6c-.3-.4-.2-.5 0-.9 0 0 2.5-3.4 2.7-4.6.1-.4 0-.7-.6-.7h-2c-.5 0-.8.3-.9.6 0 0-1 2.5-2.5 4.1-.5.5-.7.6-.9.6-.1 0-.3-.1-.3-.6v-3.9c0-.5-.1-.7-.6-.7h-3.2c-.3 0-.5.2-.5.5 0 .5.7.6.8 1.9v2.9c0 .6-.1.8-.4.8-.7 0-2.4-2.5-3.4-5.3-.2-.6-.4-.8-.9-.8h-2c-.6 0-.7.3-.7.6 0 .5.7 3.2 3.2 6.6 1.7 2.4 4 3.6 6.2 3.6 1.3 0 1.5-.3 1.5-.8 0-2.3-.1-2.5.5-2.5.3 0 .8.1 2 1.3 1.4 1.4 1.6 2 2.4 2h2c.6 0 .9-.3.7-.8-.4-1.3-3-3.7-3.1-3.9z"/><path d="M19.2 33.5c-2.2 0-4.5-.4-6.7-1.2C3.1 29-2 19.4 1 10.9c1.5-4.1 4.6-7.3 8.9-9.1C14.1.1 19 0 23.5 1.7c4.5 1.6 8.2 4.7 10.4 8.8 2.2 4.1 2.6 8.5 1.1 12.6s-4.6 7.3-8.9 9.1c-2.2.9-4.5 1.3-6.9 1.3zm-2.4-32c-2.3 0-4.5.4-6.6 1.3-4 1.6-6.9 4.7-8.3 8.5-2.8 7.9 2.1 17 10.9 20.1 4.3 1.5 8.9 1.5 12.9-.2 4-1.6 6.9-4.7 8.3-8.5 1.4-3.8 1-8-1.1-11.8-2.1-3.8-5.6-6.8-9.9-8.3-1.9-.7-4.1-1.1-6.2-1.1z"/></svg>