<svg xmlns="http://www.w3.org/2000/svg" viewBox="0 0 36 34"><path d="M23.5 1.7C14.1-1.7 4 2.5 1 10.9-2 19.4 3.1 29 12.5 32.3c2.2.8 4.4 1.2 6.7 1.2 2.4 0 4.8-.5 6.9-1.4 4.3-1.7 7.4-5 8.9-9.1 3-8.4-2.1-18-11.5-21.3zm10.6 21c-1.4 3.8-4.3 6.8-8.3 8.5-4 1.6-8.6 1.7-12.9.2C4 28.2-.9 19.2 1.9 11.3c2.2-6.1 8.2-9.8 14.9-9.8 2.1 0 4.2.4 6.3 1.1 8.9 3.2 13.8 12.2 11 20.1z"/><path d="M25.8 14.9l-.1-2c0-.8-.7-1.5-1.5-1.5h-.7l-1.8-3.7-7.6 3.7h-2c-.8 0-1.5.7-1.5 1.5v10c0 .8.7 1.5 1.5 1.5h12.1c.8 0 1.5-.7 1.5-1.5v-2h.1c.8 0 1.5-.7 1.5-1.5v-3.1c-.1-.8-.7-1.4-1.5-1.4zM21.2 9l1.1 2.3h-5.9L21.2 9zm3.5 13.9c0 .3-.2.5-.5.5H12.1c-.3 0-.5-.2-.5-.5v-10c0-.3.2-.5.5-.5h12.1c.3 0 .5.2.5.5v2h-6.4c-.8 0-1.5.7-1.5 1.5v3.1c0 .8.7 1.5 1.5 1.5h6.4v1.9zm1.5-3.5c0 .3-.2.5-.5.5h-7.5c-.3 0-.5-.2-.5-.5v-3.1c0-.3.2-.5.5-.5h7.5c.3 0 .5.2.5.5v3.1z"/><path d="M19.7 17.1c-.4 0-.8.4-.8.8s.4.8.8.8.8-.4.8-.8c0-.5-.3-.8-.8-.8z"/></svg>