<?xml version="1.0" encoding="utf-8"?>
<!-- Generator: Adobe Illustrator 27.1.1, SVG Export Plug-In . SVG Version: 6.00 Build 0)  -->
<svg version="1.1" id="Layer_1" xmlns="http://www.w3.org/2000/svg" xmlns:xlink="http://www.w3.org/1999/xlink" x="0px" y="0px"
	 viewBox="0 0 36 34" style="enable-background:new 0 0 36 34;" xml:space="preserve">
<g>
	<path d="M23.5,1.7C14.1-1.7,4,2.5,1,10.9c-1.5,4.1-1.1,8.6,1.1,12.6c2.2,4,5.9,7.1,10.4,8.8c2.2,0.8,4.4,1.2,6.6,1.2
		c7.1,0,13.5-4,15.9-10.4C38,14.6,32.9,5,23.5,1.7z M34.1,22.7c-2.8,7.9-12.3,11.8-21.2,8.7c-4.3-1.5-7.8-4.5-9.9-8.3
		c-2-3.8-2.4-8-1.1-11.8c2.2-6.1,8.2-9.8,14.9-9.8c2.1,0,4.2,0.4,6.3,1.1C32,5.8,36.9,14.8,34.1,22.7z"/>
	<path d="M26.4,11.6H9.6c-0.9,0-1.6,0.7-1.6,1.6v6.3c0,0.9,0.7,1.6,1.6,1.6h0.8v1.8h1v-1.8h13.2v1.8h1v-1.8h0.8
		c0.9,0,1.6-0.7,1.6-1.6v-6.3C28,12.3,27.3,11.6,26.4,11.6z M27,19.5c0,0.3-0.3,0.6-0.6,0.6H9.6c-0.3,0-0.6-0.3-0.6-0.6v-6.3
		c0-0.3,0.3-0.6,0.6-0.6h16.7c0.3,0,0.6,0.3,0.6,0.6V19.5z"/>
	<path d="M15.7,13.2c-1.7,0-3.2,1.4-3.2,3.2s1.4,3.2,3.2,3.2s3.2-1.4,3.2-3.2S17.5,13.2,15.7,13.2z M15.7,18.5c-1.2,0-2.2-1-2.2-2.2
		c0-1.2,1-2.2,2.2-2.2s2.2,1,2.2,2.2C17.9,17.5,16.9,18.5,15.7,18.5z"/>
	<path d="M22.5,14c-0.7,0-1.3,0.6-1.3,1.3s0.6,1.3,1.3,1.3s1.3-0.6,1.3-1.3S23.3,14,22.5,14z M22.5,15.6c-0.2,0-0.3-0.1-0.3-0.3
		s0.1-0.3,0.3-0.3s0.3,0.1,0.3,0.3S22.7,15.6,22.5,15.6z"/>
</g>
</svg>
