<svg xmlns="http://www.w3.org/2000/svg" viewBox="0 0 28 28"><path d="M20.6 14c6.4-1.3 8.1-5 7.2-6.8-.7-1.4-2.8-1-2.8-1l-2.3 2.3c2.6.4 3.7 2.9-1.1 4.3-.1 0-.3.1-.7.2-.6.1-1.4.2-2-.1-1.2-.5-.3-1.2 1.9-.6l.5-1.6s-.6-.2-1.6-.3c-1.3-.1-2.6.6-2.3 1.7.2.5.6.9 1 1.1-2-.1-2.7-.9-2.7-.9s-.8-.8-.9-2.7c.2.4.5.8 1.1 1 1.1.4 1.8-.9 1.7-2.3-.1-1.1-.3-1.6-.3-1.6l-1.6.5c.7 2.2-.1 3-.6 1.9-.3-.7-.2-1.5-.1-2.1.1-.4.2-.7.2-.7 1.4-4.8 3.9-3.6 4.3-1.1L21.8 3s.4-2.1-1-2.8C19-.6 15.3 1 14 7.4 12.7 1 9-.6 7.2.2 5.8.9 6.2 3 6.2 3l2.3 2.3c.4-2.6 2.9-3.7 4.3 1.1l.2.7c-.1-.2-.1-.5-.2-.7 0 .1.1.3.2.7.1.6.2 1.4-.1 2-.5 1.2-1.2.3-.6-1.9l-1.6-.5s-.2.6-.3 1.6c-.1 1.3.6 2.6 1.7 2.3.5-.2.9-.6 1.1-1-.1 2-.9 2.7-.9 2.7s-.8.8-2.7.9c.4-.2.8-.5 1-1.1.4-1.1-.9-1.8-2.3-1.7-1.1.1-1.6.3-1.6.3l.5 1.6c2.2-.7 3 .1 1.9.6-.7.3-1.5.2-2.1.1-.4-.1-.7-.2-.7-.2-4.8-1.4-3.6-3.9-1.1-4.3L3 6.2S.9 5.8.2 7.2C-.6 9 1 12.7 7.4 14 1 15.3-.7 19 .2 20.8c.7 1.4 2.8 1 2.8 1l2.3-2.3c-2.6-.4-3.7-2.9 1.1-4.3.1 0 .4-.1.7-.2.6-.1 1.4-.2 2 .1 1.2.5.3 1.2-1.9.6l-.5 1.6s.6.2 1.6.3c1.3.1 2.6-.6 2.3-1.7-.2-.5-.6-.9-1-1.1 2 .1 2.7.9 2.7.9s.8.8.9 2.7c-.2-.4-.5-.8-1.1-1-1.1-.4-1.8.9-1.7 2.3.1 1.1.3 1.6.3 1.6l1.6-.5c-.7-2.2.1-3 .6-1.9.3.7.2 1.5.1 2-.1.4-.2.7-.2.7-1.4 4.8-3.9 3.6-4.3 1.1L6.2 25s-.4 2.1 1 2.8c1.8.8 5.5-.8 6.8-7.2 1.3 6.4 5 8 6.8 7.2 1.4-.7 1-2.8 1-2.8l-2.3-2.3c-.4 2.6-2.9 3.7-4.3-1.1 0-.1-.1-.4-.2-.7-.1-.6-.2-1.4.1-2 .5-1.2 1.2-.3.6 1.9l1.6.5s.2-.6.3-1.6c.1-1.3-.6-2.6-1.7-2.3-.5.2-.9.6-1.1 1 .1-2 .9-2.7.9-2.7s.8-.8 2.7-.9c-.4.2-.8.5-1 1.1-.4 1.1.9 1.8 2.3 1.7 1.1-.1 1.6-.3 1.6-.3l-.5-1.6c-2.2.7-3-.1-1.9-.6.7-.3 1.5-.2 2.1-.1.4.1.7.2.7.2 4.8 1.4 3.6 3.9 1.1 4.3l2.3 2.3s2.1.4 2.8-1c.7-1.8-.9-5.5-7.3-6.8zm-13.4-.9c-.2-.1-.5-.1-.7-.2l.7.2z"/></svg>