<svg xmlns="http://www.w3.org/2000/svg" viewBox="0 0 54 50"><path d="M35.3 1.8C31.9.5 28.5 0 25.2 0v1c3.3 0 6.6.6 9.8 1.7 6.7 2.4 12.1 7 15.3 12.9s3.8 12.4 1.6 18.3C48.6 43 39.6 49 28.8 49c-3.3 0-6.6-.6-9.8-1.7C5.3 42.4-2.3 28.4 2.1 16.1 5.4 6.9 14.4 1 25.2 1V0C14.4 0 4.7 6 1.2 15.8c-4.6 12.8 3.3 27.4 17.5 32.5 3.4 1.2 6.8 1.8 10.1 1.8 10.8 0 20.5-6 24-15.8 4.6-12.9-3.2-27.5-17.5-32.5z"/><path d="M42.8 22.2c-.3 0-.7.1-1 .1-.6-1.3-1.7-2.6-3.2-3.6-.2-.9-1.3-1.6-2.6-1.6h-.3c-1.9-.8-4.1-1.4-6.4-1.6.7-.6 1.1-1.4 1.1-2.3 0-.2 0-.7-.4-1s-.9-.1-1.5.1c-.5.2-1 .4-1.6.4s-1.1-.2-1.6-.4c-.6-.2-1.1-.4-1.5-.1-.4.3-.4.8-.4 1 0 .9.4 1.7 1.1 2.3-2.3.2-4.5.8-6.4 1.6h-.3c-1.3 0-2.3.7-2.6 1.6-1.5 1.1-2.6 2.3-3.2 3.7-.3-.1-.6-.1-.9-.1-1 0-1.8.9-1.8 2s.8 2 1.8 2c.1 0 .1 0 .4.2v4.3c0 .8.9 1.5 2.1 1.5h26.7c1.2 0 2.1-.7 2.1-1.5v-4.3c.2-.2.2-.2.4-.2 1 0 1.8-.9 1.8-2 0-1.2-.8-2.1-1.8-2.1zM36.1 20c-1 0-1.7-.5-1.7-1 0-.4.6-.9 1.4-1h.3c1 0 1.6.5 1.7.9-.1.6-.7 1.1-1.7 1.1zm-11.6-6.8v-.1c.1 0 .4.1.6.2.5.2 1.2.5 1.9.5s1.4-.2 1.9-.5c.2-.1.4-.2.6-.2v.1c0 1.2-1.1 2.2-2.5 2.2s-2.5-1-2.5-2.2zM16.3 19c0-.5.7-.9 1.7-.9h.3c.8.1 1.4.5 1.4 1s-.7 1-1.7 1c-1-.1-1.7-.6-1.7-1.1zm-.8.8c.1.2.2.3.4.4l.1.1c.1.1.3.2.5.3.2.1.4.2.6.2h.2c.2 0 .5.1.7.1 1.5 0 2.7-.9 2.7-2 0-.1 0-.3-.1-.4v-.1c0-.1-.1-.2-.1-.2l-.1-.1c0-.1-.1-.1-.1-.2s-.1-.1-.1-.1-.1-.1-.2-.1l-.1-.1c2.2-.8 4.7-1.2 7.3-1.2s5.1.4 7.3 1.2c0 0-.1 0-.1.1-.1.1-.2.1-.2.2l-.1.1-.2.2-.1.1c0 .1-.1.2-.1.3v.1c0 .1-.1.3-.1.4 0 1.1 1.2 2 2.7 2 .2 0 .5 0 .7-.1h.2c.5-.1.8-.3 1.2-.6.2-.1.3-.3.4-.5 1.1.9 1.9 1.9 2.4 2.9h-.1c-.1.1-.2.2-.4.2l-.1.1-.3.3c-.3.2-.3.2-.4.2-.1 0-.1 0-.4-.3-.5-.4-1.3-1.1-2.7-1.1s-2.2.7-2.8 1.2c-.3.2-.3.2-.4.2-.1 0-.1 0-.4-.2-.5-.4-1.3-1.2-2.8-1.2s-2.3.7-2.8 1.2c-.3.2-.3.2-.4.2s-.1 0-.4-.2c-.5-.4-1.3-1.2-2.7-1.2-1.5 0-2.3.7-2.8 1.2-.3.2-.3.2-.4.2s-.1 0-.4-.2c-.5-.4-1.3-1.2-2.8-1.2s-2.3.7-2.7 1.2c-.3.2-.3.2-.4.2s-.1 0-.5-.3l-.3-.3s-.1 0-.1-.1c-.1-.1-.2-.2-.4-.3.3-.9 1.1-1.9 2.2-2.8zm25.9 10.9c0 .2-.4.5-1.1.5H13.7c-.6 0-1.1-.3-1.1-.5v-3.6c.1 0 .1.1.2.1s.1 0 .2.1c.1 0 .2.1.2.1.1 0 .1 0 .2.1.1 0 .2 0 .3.1h.7c1.5 0 2.3-.7 2.7-1.2.3-.2.3-.2.4-.2s.1 0 .4.2c.5.4 1.3 1.2 2.7 1.2 1.5 0 2.3-.7 2.7-1.2.3-.2.3-.2.4-.2s.1 0 .4.2c.5.4 1.3 1.2 2.8 1.2 1.4 0 2.2-.7 2.8-1.2.3-.2.3-.2.4-.2s.1 0 .4.2c.4.4 1.3 1.2 2.8 1.2 1.4 0 2.2-.7 2.8-1.2.3-.2.3-.2.4-.2.1 0 .1 0 .4.3.5.4 1.3 1.1 2.7 1.1h.7c.1 0 .2 0 .3-.1.1 0 .1 0 .2-.1.1 0 .2-.1.2-.1.1 0 .1 0 .1-.1.1 0 .1-.1.2-.1v3.6h.1zm1.4-5.5h-.4l-.4.3c-.1 0-.1.1-.2.1l-.2.2c-.5.4-1 .8-2 .8-1.1 0-1.7-.5-2.1-.9-.4-.3-.6-.5-1.1-.5s-.7.2-1.1.5c-.4.4-1 .9-2.1.9s-1.7-.5-2.1-.9c-.3-.3-.6-.5-1.1-.5s-.7.2-1.1.5c-.4.4-1 .9-2.1.9s-1.7-.5-2.1-.9c-.3-.3-.6-.5-1.1-.5s-.7.2-1.1.5c-.4.4-1 .9-2.1.9s-1.7-.5-2.1-.9c-.3-.3-.6-.5-1.1-.5s-.7.2-1.1.5c-.4.4-1 .9-2.1.9-1 0-1.5-.4-2-.8l-.1-.1c-.1-.1-.2-.2-.3-.2l-.4-.2h-.4c-.5 0-.8-.5-.8-1 0-.6.4-1 .8-1s.7.1 1 .2c.4.2.7.4 1 .7.4.3.6.5 1.1.5s.7-.2 1.1-.5c.4-.4 1-.9 2.1-.9s1.7.5 2.1.9c.3.3.6.5 1.1.5s.7-.2 1.1-.5c.4-.4 1-.9 2.1-.9s1.6.5 2.1.9c.3.3.6.5 1.1.5s.7-.2 1.1-.5c.4-.4 1-.9 2.1-.9s1.7.5 2.1.9c.4.3.6.5 1.1.5s.7-.2 1.1-.5c.5-.4 1-.9 2.1-.9s1.6.5 2.1.9c.4.3.6.5 1.1.5s.7-.2 1.1-.5c.3-.2.6-.5 1-.7.3-.1.7-.2 1-.2.5 0 .8.5.8 1 .2.5-.1.9-.6.9z"/><path d="M27 21c1.5 0 2.7-.9 2.7-2s-1.2-2-2.7-2-2.7.9-2.7 2 1.2 2 2.7 2zm0-2.9c1 0 1.7.5 1.7 1s-.7.9-1.7.9-1.7-.5-1.7-1 .7-.9 1.7-.9z"/></svg>