<?xml version="1.0" encoding="utf-8"?>
<!-- Generator: Adobe Illustrator 27.1.1, SVG Export Plug-In . SVG Version: 6.00 Build 0)  -->
<svg version="1.1" id="Layer_1" xmlns="http://www.w3.org/2000/svg" xmlns:xlink="http://www.w3.org/1999/xlink" x="0px" y="0px"
	 viewBox="0 0 54 50" style="enable-background:new 0 0 54 50;" xml:space="preserve">
<g>
	<path d="M18,15.5v19c0,1.5,1.2,2.7,2.7,2.7h12.4c1.5,0,2.7-1.2,2.7-2.7v-19c0-1.5-1.2-2.7-2.7-2.7H20.8C19.3,12.8,18,14,18,15.5z
		 M35,15.5v19c0,1-0.8,1.7-1.7,1.7H20.8c-1,0-1.7-0.8-1.7-1.7v-19c0-1,0.8-1.7,1.7-1.7h12.4C34.2,13.8,35,14.5,35,15.5z"/>
	<path d="M27,24.8c2.4,0,4.3-1.9,4.3-4.3s-1.9-4.3-4.3-4.3s-4.3,1.9-4.3,4.3S24.6,24.8,27,24.8z M27,17.3c1.8,0,3.3,1.5,3.3,3.3
		s-1.5,3.3-3.3,3.3s-3.3-1.5-3.3-3.3S25.2,17.3,27,17.3z"/>
	<path d="M27,27.3c-1.8,0-3.3,1.5-3.3,3.3c0,1.8,1.5,3.3,3.3,3.3s3.3-1.5,3.3-3.3C30.3,28.8,28.8,27.3,27,27.3z M27,32.9
		c-1.3,0-2.3-1-2.3-2.3s1-2.3,2.3-2.3s2.3,1,2.3,2.3S28.3,32.9,27,32.9z"/>
	<polygon points="25.2,0 25.2,0 25.2,0 	"/>
	<path d="M35.3,1.8C31.9,0.5,28.5,0,25.2,0v1c3.3,0,6.6,0.6,9.8,1.7c6.7,2.4,12.1,7,15.3,12.9c3.2,5.9,3.8,12.4,1.6,18.3
		C48.6,43,39.6,49,28.8,49c-3.3,0-6.6-0.6-9.8-1.7c-6.7-2.4-12.1-7-15.3-12.9C0.6,28.5,0,22,2.1,16.1C5.4,6.9,14.4,1,25.2,1l0-1
		c0,0,0,0,0,0c-10.8,0-20.5,6-24,15.8c-4.6,12.8,3.3,27.4,17.5,32.5c3.4,1.2,6.8,1.8,10.1,1.8c10.8,0,20.5-6,24-15.8
		C57.4,21.4,49.6,6.8,35.3,1.8z"/>
</g>
</svg>
