<?xml version="1.0" encoding="utf-8"?>
<!-- Generator: Adobe Illustrator 27.1.1, SVG Export Plug-In . SVG Version: 6.00 Build 0)  -->
<svg version="1.1" id="Layer_1" xmlns="http://www.w3.org/2000/svg" xmlns:xlink="http://www.w3.org/1999/xlink" x="0px" y="0px"
	 viewBox="0 0 54 50" style="enable-background:new 0 0 54 50;" xml:space="preserve">
<path d="M35.3,1.8C31.9,0.5,28.5,0,25.2,0v1c3.3,0,6.6,0.6,9.8,1.7c6.7,2.4,12.1,7,15.3,12.9s3.8,12.4,1.6,18.3
	C48.6,43,39.6,49,28.8,49c-3.3,0-6.6-0.6-9.8-1.7C5.3,42.4-2.3,28.4,2.1,16.1C5.4,6.9,14.4,1,25.2,1V0C14.4,0,4.7,6,1.2,15.8
	c-4.6,12.8,3.3,27.4,17.5,32.5c3.4,1.2,6.8,1.8,10.1,1.8c10.8,0,20.5-6,24-15.8C57.4,21.4,49.6,6.8,35.3,1.8z"/>
<path d="M38.1,24.6h-1.6c0-0.1,0.1-0.2,0.1-0.3v-3.9c0.1,0,0.1,0,0.2,0c0.2,0,0.5-0.2,0.5-0.5v-3.3c0-0.9-0.8-1.7-1.7-1.7h-4.7
	c0.5-0.6,0.9-1.3,0.9-2.2c0-1.7-1.4-3.1-3.1-3.1c-0.6,0-1.2,0.2-1.7,0.5c-0.5-0.3-1.1-0.5-1.7-0.5c-1.7,0-3.1,1.4-3.1,3.1
	c0,0.8,0.3,1.6,0.9,2.2h-4.7c-0.9,0-1.7,0.8-1.7,1.7V20c0,0.3,0.3,0.5,0.5,0.5c0.1,0,0.1,0,0.1,0v3.9c0,0.1,0,0.2,0.1,0.3h-1.6
	c-1.1,0-2.1,0.9-2.1,2.1v4.2c0,0.2,0.2,0.4,0.4,0.4c0,0,0.1,0,0.2,0c0.1,0,0.2,0,0.3,0v5.4c0,0.7,0.5,1.2,1.2,1.2h22.2
	c0.7,0,1.2-0.5,1.2-1.2v-5.4c0.1,0,0.2,0,0.3,0c0,0,0.2,0,0.2,0c0.2,0,0.4-0.2,0.4-0.4v-4.2C40.2,25.5,39.2,24.6,38.1,24.6z
	 M30.9,12.9c0,1.2-1,2.2-2.2,2.2c-0.4,0-0.7-0.1-1.1-0.3c0.4-0.5,0.7-1.2,0.7-1.9s-0.2-1.3-0.7-1.9c0.3-0.2,0.7-0.3,1.1-0.3
	C29.9,10.7,30.9,11.7,30.9,12.9z M27,11.6c0.3,0.4,0.4,0.8,0.4,1.3s-0.2,0.9-0.4,1.3c-0.3-0.4-0.4-0.8-0.4-1.3S26.7,12,27,11.6z
	 M23.1,12.9c0-1.2,1-2.2,2.2-2.2c0.4,0,0.7,0.1,1.1,0.3c-0.4,0.5-0.7,1.2-0.7,1.9c0,0.7,0.2,1.3,0.7,1.9C26,14.9,25.7,15,25.3,15
	C24.1,15,23.1,14,23.1,12.9z M17.6,16.7c0-0.4,0.4-0.8,0.8-0.8h17.1c0.4,0,0.8,0.4,0.8,0.8v2.8c0,0,0,0-0.1,0
	c-0.2-0.1-0.3-0.2-0.5-0.3c-0.3-0.3-0.7-0.6-1.5-0.6c0,0,0,0,0,0s0,0,0,0c-0.8,0-1.2,0.3-1.5,0.6c-0.3,0.2-0.5,0.4-0.9,0.4
	c-0.4,0-0.6-0.2-0.9-0.4c-0.3-0.3-0.7-0.6-1.5-0.6c0,0,0,0,0,0s0,0,0,0c-0.8,0-1.2,0.3-1.5,0.6c-0.3,0.2-0.5,0.4-0.9,0.4
	c-0.4,0-0.6-0.2-0.9-0.4c-0.3-0.3-0.7-0.6-1.5-0.6c0,0,0,0,0,0s0,0,0,0c-0.8,0-1.2,0.3-1.5,0.6c-0.3,0.2-0.5,0.4-0.9,0.4
	c-0.4,0-0.6-0.2-0.9-0.4c-0.3-0.3-0.7-0.6-1.5-0.6c0,0,0,0,0,0s0,0,0,0c-0.8,0-1.2,0.3-1.5,0.6c-0.1,0.1-0.3,0.2-0.4,0.3
	c0,0,0,0-0.1,0c0,0,0,0,0,0V16.7z M18.3,24.3v-4.1c0,0,0,0,0.1,0c0.1-0.1,0.3-0.2,0.4-0.3c0.3-0.2,0.5-0.4,0.9-0.4
	c0.4,0,0.7,0.2,0.9,0.4c0.3,0.3,0.7,0.6,1.5,0.6c0,0,0,0,0,0s0,0,0,0c0.8,0,1.2-0.3,1.5-0.6c0.3-0.2,0.5-0.4,0.9-0.4
	c0.4,0,0.6,0.2,0.9,0.4c0.3,0.3,0.7,0.6,1.5,0.6c0,0,0,0,0,0s0,0,0,0c0.8,0,1.2-0.3,1.5-0.6c0.3-0.2,0.5-0.4,0.9-0.4
	c0.4,0,0.7,0.2,0.9,0.4c0.3,0.3,0.7,0.6,1.5,0.6c0,0,0,0,0,0s0,0,0,0c0.8,0,1.2-0.3,1.5-0.6c0.3-0.2,0.5-0.4,0.9-0.4
	c0.4,0,0.6,0.2,0.9,0.4c0,0,0,0,0.1,0c0.1,0.1,0.2,0.2,0.3,0.2c0,0,0,0,0.1,0.1v4.1c0,0.2-0.1,0.3-0.3,0.3H18.6
	C18.4,24.6,18.3,24.5,18.3,24.3z M14.7,26.7c0-0.6,0.5-1.2,1.2-1.2h2.7h16.8h2.7c0.6,0,1.2,0.5,1.2,1.2v3.8c-0.1,0-0.2,0-0.3-0.1
	c-0.3-0.1-0.5-0.3-0.7-0.4c-0.4-0.3-0.9-0.7-1.9-0.7c-1,0-1.5,0.4-1.9,0.7c-0.4,0.3-0.7,0.5-1.3,0.5s-0.9-0.2-1.3-0.5
	c-0.4-0.3-0.9-0.7-1.9-0.7c-0.9,0-1.5,0.4-1.9,0.7c-0.4,0.3-0.7,0.5-1.3,0.5c-0.6,0-0.9-0.2-1.3-0.5c-0.4-0.3-0.9-0.7-1.9-0.7
	c-0.9,0-1.5,0.4-1.9,0.7c-0.4,0.3-0.7,0.5-1.3,0.5s-0.9-0.2-1.3-0.5c-0.4-0.3-0.9-0.7-1.9-0.7c-1,0-1.5,0.4-1.9,0.7
	c-0.2,0.2-0.4,0.3-0.7,0.4c-0.1,0-0.2,0.1-0.3,0.1V26.7z M38.4,36.7c0,0.2-0.1,0.3-0.3,0.3H15.9c-0.2,0-0.3-0.1-0.3-0.3v-5.7
	c0.1,0,0.1-0.1,0.2-0.1c0,0,0.1,0,0.1-0.1c0.1-0.1,0.2-0.2,0.3-0.3c0.4-0.3,0.7-0.5,1.3-0.5c0.6,0,0.9,0.2,1.3,0.5
	c0.4,0.3,0.9,0.7,1.9,0.7c0.9,0,1.5-0.4,1.9-0.7c0.4-0.3,0.7-0.5,1.3-0.5c0.6,0,0.9,0.2,1.3,0.5c0.4,0.3,0.9,0.7,1.9,0.7
	c1,0,1.5-0.4,1.9-0.7c0.4-0.3,0.7-0.5,1.3-0.5c0.6,0,0.9,0.2,1.3,0.5c0.4,0.3,0.9,0.7,1.9,0.7s1.5-0.4,1.9-0.7
	c0.4-0.3,0.7-0.5,1.3-0.5c0.6,0,0.9,0.2,1.3,0.5c0.1,0.1,0.2,0.2,0.3,0.3c0,0,0.1,0.1,0.1,0.1c0.1,0,0.1,0.1,0.2,0.1V36.7z"/>
</svg>
