<svg xmlns="http://www.w3.org/2000/svg" viewBox="0 0 54 50"><path d="M25.2 0zm10.1 1.8C31.9.5 28.5 0 25.2 0v1c3.3 0 6.6.6 9.7 1.7 13.7 4.9 21.2 18.9 16.8 31.2C48.5 43 39.5 49 28.8 49c-.4 0-.9 0-1.3-.1V35.4H29c4.8 0 6.1-1.3 6.1-6.1v-.8h-1.6c1.2-.9 1.6-2.5 1.6-5.1v-.8h-1.6c1.2-.9 1.6-2.5 1.6-5.1v-.8h-2.5c-1.5 0-2.7.1-3.6.5 2.5-2.5 2.5-4 0-6.5l-2-2-2 2c-2.5 2.6-2.5 4 0 6.5-.9-.3-2-.5-3.6-.5h-2.5v.8c0 2.7.4 4.2 1.6 5.1h-1.6v.8c0 2.7.4 4.2 1.6 5.1h-1.6v.8c0 4.8 1.3 6.1 6.1 6.1h1.5v13.5c-2.5-.2-5-.7-7.4-1.6C5.4 42.4-2.1 28.4 2.2 16.1 5.5 6.9 14.5 1 25.2 1V0C14.5 0 4.8 5.9 1.3 15.7c-4.6 12.8 3.2 27.4 17.4 32.5 2.6.9 5.2 1.5 7.8 1.7h.6c.6 0 1.2.1 1.7.1 10.7 0 20.4-6 23.9-15.8 4.6-12.8-3.2-27.4-17.4-32.4zm-1.2 27.7c0 4.1-.9 4.9-5.1 4.9h-1.5c0-4.1.9-4.9 5.1-4.9h1.5zm0-5.9c0 4.1-.9 4.9-5.1 4.9h-1.5c0-4.1.9-4.9 5.1-4.9h1.5zM27 25c-.2-.6-.6-1.1-1.1-1.5h2.2c-.5.4-.9.9-1.1 1.5zm5.6-7.3h1.5c0 4.1-.9 4.9-5.1 4.9h-1.5c0-4.1.9-4.9 5.1-4.9zm-6.9-6.4L27 10l1.3 1.3c2.2 2.2 2.2 2.9 0 5.1L27 17.8l-1.3-1.3c-2.2-2.2-2.2-3 0-5.2zm-5.8 6.4h1.5c4.2 0 5.1.8 5.1 4.9H25c-4.1 0-5-.9-5.1-4.9zm0 5.9h1.5c4.2 0 5.1.8 5.1 4.9H25c-4.1 0-5-.9-5.1-4.9zM25 34.4c-4.2 0-5.1-.8-5.1-4.9h1.5c4.2 0 5.1.8 5.1 4.9H25zm.9-4.9h2.2c-.5.4-.8.8-1.1 1.5-.2-.7-.6-1.2-1.1-1.5z"/></svg>