<?xml version="1.0" encoding="utf-8"?>
<!-- Generator: Adobe Illustrator 27.1.1, SVG Export Plug-In . SVG Version: 6.00 Build 0)  -->
<svg version="1.1" id="Layer_1" xmlns="http://www.w3.org/2000/svg" xmlns:xlink="http://www.w3.org/1999/xlink" x="0px" y="0px"
	 viewBox="0 0 54 50" style="enable-background:new 0 0 54 50;" xml:space="preserve">
<g>
	<polygon points="25.2,0 25.2,0 25.2,0 	"/>
	<path d="M35.3,1.8C31.9,0.5,28.5,0,25.2,0v1c3.3,0,6.6,0.6,9.7,1.7c13.7,4.9,21.2,18.9,16.8,31.2C48.5,43,39.5,49,28.8,49
		c-0.4,0-0.9,0-1.3-0.1V35.4H29c4.8,0,6.1-1.3,6.1-6.1v-0.8h-1.6c1.2-0.9,1.6-2.5,1.6-5.1v-0.8h-1.6c1.2-0.9,1.6-2.5,1.6-5.1v-0.8
		h-2.5c-1.5,0-2.7,0.1-3.6,0.5c2.5-2.5,2.5-4,0-6.5l-2-2l-2,2c-2.5,2.6-2.5,4,0,6.5c-0.9-0.3-2-0.5-3.6-0.5h-2.5v0.8
		c0,2.7,0.4,4.2,1.6,5.1h-1.6v0.8c0,2.7,0.4,4.2,1.6,5.1h-1.6v0.8c0,4.8,1.3,6.1,6.1,6.1h1.5v13.5c-2.5-0.2-5-0.7-7.4-1.6
		C5.4,42.4-2.1,28.4,2.2,16.1C5.5,6.9,14.5,1,25.2,1l0-1c0,0,0,0,0,0C14.5,0,4.8,5.9,1.3,15.7c-4.6,12.8,3.2,27.4,17.4,32.5
		c2.6,0.9,5.2,1.5,7.8,1.7v0h0.6c0.6,0,1.2,0.1,1.7,0.1c10.7,0,20.4-6,23.9-15.8C57.3,21.4,49.5,6.8,35.3,1.8z M34.1,29.5
		c0,4.1-0.9,4.9-5.1,4.9h-1.5c0-4.1,0.9-4.9,5.1-4.9H34.1z M34.1,23.6c0,4.1-0.9,4.9-5.1,4.9h-1.5c0-4.1,0.9-4.9,5.1-4.9H34.1z
		 M27,25c-0.2-0.6-0.6-1.1-1.1-1.5h0.6h1h0.6C27.6,23.9,27.2,24.4,27,25z M32.6,17.7h1.5c0,4.1-0.9,4.9-5.1,4.9h-1.5
		C27.5,18.5,28.4,17.7,32.6,17.7z M25.7,11.3L27,10l1.3,1.3c2.2,2.2,2.2,2.9,0,5.1L27,17.8l-1.3-1.3C23.5,14.3,23.5,13.5,25.7,11.3z
		 M19.9,17.7h1.5c4.2,0,5.1,0.8,5.1,4.9H25C20.9,22.6,20,21.7,19.9,17.7z M19.9,23.6h1.5c4.2,0,5.1,0.8,5.1,4.9H25
		C20.9,28.5,20,27.6,19.9,23.6z M25,34.4c-4.2,0-5.1-0.8-5.1-4.9h1.5c4.2,0,5.1,0.8,5.1,4.9H25z M25.9,29.5h0.6h1h0.6
		c-0.5,0.4-0.8,0.8-1.1,1.5C26.8,30.3,26.4,29.8,25.9,29.5z"/>
</g>
</svg>
