<svg xmlns="http://www.w3.org/2000/svg" viewBox="0 0 54 50"><path d="M35.3 1.8C31.9.5 28.5 0 25.2 0v1c3.3 0 6.6.6 9.8 1.7 6.7 2.4 12.1 7 15.3 12.9s3.8 12.4 1.6 18.3C48.6 43 39.6 49 28.8 49c-3.3 0-6.6-.6-9.8-1.7C5.3 42.4-2.3 28.4 2.1 16.1 5.4 6.9 14.4 1 25.2 1V0C14.4 0 4.7 6 1.2 15.8c-4.6 12.8 3.3 27.4 17.5 32.5 3.4 1.2 6.8 1.8 10.1 1.8 10.8 0 20.5-6 24-15.8 4.6-12.9-3.2-27.5-17.5-32.5z"/><path d="M40.4 19.3c-.7-1.1-1.6-2-2.5-2.9-.3-.3-.8-.4-1.2-.4H24.3c-1.2 0-1.7.3-2.4 1.1l-3.2 4.2c-.7 1-1.2 1.3-2.6 1.7l-.4.1c-3 .8-4.1 1.8-4.6 4.4l-.4 1.8c-.1.5 0 .9.2 1.2.3.4.8.5 1.5.5h2.2c.2 1.6 1.6 2.8 3.2 2.8s3-1.2 3.2-2.8h12.3c.2 1.6 1.6 2.8 3.2 2.8s3-1.2 3.2-2.8h.8c2.1 0 2.5-.8 2.6-2.6.3-2-.4-5.7-2.7-9.1zm-5.5.9c.1.4 0 .7-.2 1-.2.3-.6.5-.9.5l-4.8.4.6-5.1h4.8l.5 3.2zM19.5 22l3.2-4.2c.4-.6.7-.7 1.6-.7h4.2l-.6 5.1-9.1.7c.2-.3.5-.6.7-.9zm-1.6 11c-1.3 0-2.3-1-2.3-2.3v-.5c.2-1 1.1-1.8 2.2-1.8 1.3 0 2.3 1 2.3 2.3.1 1.2-1 2.3-2.2 2.3zm18.8 0c-1.3 0-2.3-1-2.3-2.3 0-1.3 1-2.3 2.3-2.3 1.3 0 2.3 1 2.3 2.3-.1 1.2-1.1 2.3-2.3 2.3zm5.6-4.5c-.1 1.4-.1 1.7-1.6 1.7h-.8v-.1c0-.1 0-.2-.1-.2 0-.1-.1-.2-.1-.4 0-.1-.1-.2-.1-.2-.1-.1-.1-.2-.2-.3 0-.1-.1-.1-.1-.2-.1-.1-.1-.2-.2-.3l-.2-.2c-.1-.1-.2-.2-.3-.2-.1-.1-.1-.1-.2-.1-.1-.1-.2-.1-.3-.2-.1 0-.1-.1-.2-.1-.1-.1-.3-.1-.4-.1-.1 0-.1 0-.2-.1-.2 0-.4-.1-.6-.1-.2 0-.4 0-.6.1-.1 0-.1 0-.2.1-.1 0-.3.1-.4.1-.1 0-.1.1-.2.1-.1.1-.2.1-.3.2-.1 0-.1.1-.2.1-.1.1-.2.1-.3.2l-.2.2c-.1.1-.2.2-.2.3-.1.1-.1.1-.1.2-.1.1-.1.2-.2.3 0 .1-.1.2-.1.2 0 .1-.1.2-.1.3 0 .1 0 .2-.1.3v.1H21.1v-.1c0-.1 0-.2-.1-.2 0-.1-.1-.2-.1-.3 0-.1-.1-.2-.1-.2-.1-.1-.1-.2-.2-.3 0-.1-.1-.1-.1-.2-.1-.1-.1-.2-.2-.3l-.2-.2c-.1-.1-.2-.2-.3-.2-.1 0-.1-.1-.2-.1-.1-.1-.2-.1-.3-.2-.1 0-.1-.1-.2-.1-.1-.1-.3-.1-.4-.1-.1 0-.1 0-.2-.1-.2 0-.4-.1-.6-.1-.2 0-.4 0-.6.1-.1 0-.1 0-.2.1-.1 0-.3.1-.4.1-.1 0-.1.1-.2.1-.1.1-.2.1-.3.2-.2-.1-.2-.1-.3 0-.1.1-.2.1-.3.2l-.2.2c-.1.1-.2.2-.2.3-.1.1-.1.1-.1.2-.1.1-.1.2-.2.3 0 .1-.1.2-.1.2 0 .1-.1.2-.1.3 0 .1 0 .2-.1.3v.1h-2.2c-.4 0-.7-.1-.7-.2s-.1-.2 0-.4l.4-1.8c.5-2.2 1.2-2.9 3.9-3.7l.4-.1 17.4-1.3c.6 0 1.2-.4 1.6-.9.4-.5.5-1.2.4-1.8l-.6-3h1.4c.2 0 .4.1.6.2.9.8 1.7 1.7 2.4 2.7 2.1 3.2 2.8 6.6 2.7 8.6z"/></svg>