<svg xmlns="http://www.w3.org/2000/svg" viewBox="0 0 54 50"><ellipse transform="rotate(-69.427 27.004 25.033)" cx="27" cy="25" rx="24.7" ry="27.3" fill="#e3b48b"/><path d="M40.3 19.3c-.8-1.3-1.8-2.3-2.6-3-.3-.2-.7-.3-1.1-.3H24.3c-1.2 0-1.8.3-2.4 1.1l-3.1 4.2c-.7 1-1.1 1.2-2.5 1.6l-.4.1c-3.1.8-4.1 1.8-4.7 4.5l-.4 1.8c-.1.5-.1.9.2 1.3s.8.6 1.5.6h2.1c.2 1.6 1.6 2.9 3.3 2.9 1.7 0 3.1-1.3 3.3-2.9h12.2c.2 1.6 1.6 2.9 3.3 2.9s3.1-1.3 3.3-2.9h.7c2.1 0 2.5-.8 2.6-2.6 0-2.2-.7-5.9-3-9.3zm-5.5.9c.1.3 0 .7-.2 1s-.5.5-.9.5l-4.8.4.6-5.1h4.7l.6 3.2zm-15.2 1.7l3.1-4.2c.4-.5.6-.7 1.6-.7h4.1l-.6 5.1-9.1.7c.4-.2.6-.5.9-.9zM17.9 33c-1.3 0-2.3-1-2.3-2.3s1-2.3 2.3-2.3c1.3 0 2.3 1 2.3 2.3s-1 2.3-2.3 2.3zm18.7 0c-1.3 0-2.3-1-2.3-2.3s1-2.3 2.3-2.3 2.3 1 2.3 2.3-1 2.3-2.3 2.3zm5.6-4.5c-.1 1.4-.2 1.6-1.6 1.6h-.7c-.2-1.6-1.6-2.8-3.3-2.8-1.6 0-3 1.2-3.3 2.8H21.2c-.2-1.6-1.6-2.8-3.3-2.8-1.6 0-3 1.2-3.3 2.8h-2.1c-.4 0-.6-.1-.7-.2-.1-.1-.1-.2 0-.4l.4-1.8c.5-2.2 1.2-3 3.9-3.7l17.6-1.3c.7-.1 1.2-.4 1.6-.9.4-.5.5-1.2.4-1.8l-.6-3h1.4c.2 0 .4.1.6.2.6.6 1.6 1.5 2.3 2.7 2.3 3.2 2.9 6.6 2.8 8.6z" fill="#012e23"/></svg>