<svg xmlns="http://www.w3.org/2000/svg" viewBox="0 0 268.7 32.7"><path d="M244.1 15.5v13.7h7.6v-8.1h8.6c3.6 0 6.7-2.3 7.9-5.6h-24.1zm-1-11.3c.4 5.6 5.7 10 12.2 10h13.2c.1-.5.1-1 .1-1.6 0-4.6-3.7-8.4-8.4-8.4h-17.1zm-11.3 9.9c.1-.2.2-.2.4-.2s.4.2.5.4v14.8h7.6V4.2h-7.6c-1 0-2.1.7-2.5 1.6l-6.1 13c0 .1 0 .1-.1.1-.1.1-.2.2-.4.2-.3 0-.5-.2-.5-.5V4.2h-7.6v24.9h7.6c1 0 2-.8 2.4-1.6l6.3-13.4zm-28.4.4L199 29.1h-5.5L189 14.5c0-.2-.2-.4-.5-.4s-.5.2-.5.5v14.5h-7.6V4.2h8.4c1.4 0 2.9 1.1 3.3 2.4l3.7 12.1c.2.6.5.6.7 0l3.7-12.1c.4-1.3 1.9-2.4 3.3-2.4h8.4v24.9h-7.6V14.6c0-.3-.2-.5-.5-.5-.1 0-.3.2-.4.4z" fill-rule="evenodd" clip-rule="evenodd"/><path d="M115 32.6v-2.1c0-.8-.5-1.3-1.3-1.3-.4 0-.9.1-1.2.6-.2-.4-.6-.6-1.1-.6-.4 0-.7.1-1 .5v-.4h-.7v3.4h.7v-1.9c0-.6.3-.9.8-.9s.7.3.7.9v1.9h.7v-1.9c0-.6.4-.9.8-.9.5 0 .7.3.7.9v1.9h.9v-.1zm11-3.4h-1.2v-1h-.7v1h-.7v.7h.7v1.6c0 .8.3 1.2 1.2 1.2.3 0 .7-.1.9-.2l-.2-.6c-.2.1-.5.2-.6.2-.4 0-.5-.2-.5-.6V30h1.2l-.1-.8zm6.3 0c-.4 0-.7.2-.9.5v-.4h-.7v3.4h.7v-1.9c0-.6.2-.9.7-.9.1 0 .3 0 .5.1l.2-.7c-.2-.1-.4-.1-.5-.1zm-9.5.3c-.4-.2-.8-.4-1.4-.4-.8 0-1.4.4-1.4 1.1 0 .6.4.9 1.2 1h.4c.4.1.6.2.6.4s-.3.4-.8.4-.9-.2-1.1-.4l-.4.6c.4.3.9.4 1.5.4 1 0 1.6-.5 1.6-1.1 0-.6-.5-.9-1.2-1h-.4c-.3 0-.6-.1-.6-.3 0-.2.2-.4.6-.4.4 0 .8.2 1.1.3l.3-.6zm19.7-.3c-.4 0-.7.2-.9.5v-.4h-.7v3.4h.7v-1.9c0-.6.2-.9.7-.9.1 0 .3 0 .5.1l.2-.7c-.1-.1-.3-.1-.5-.1zm-9.5 1.7c0 1 .7 1.8 1.8 1.8.5 0 .8-.1 1.2-.4l-.4-.6c-.3.2-.6.3-.9.3-.6 0-1-.4-1-1.1 0-.6.4-1.1 1-1.1.3 0 .6.1.9.3l.4-.6c-.4-.3-.7-.4-1.2-.4-1 .1-1.8.8-1.8 1.8zm6.9 0v-1.7h-.7v.4c-.2-.3-.6-.5-1.1-.5-1 0-1.7.7-1.7 1.8 0 1 .7 1.8 1.7 1.8.5 0 .8-.2 1.1-.5v.4h.7v-1.7zm-2.7 0c0-.6.4-1.1 1-1.1s1 .5 1 1.1c0 .6-.4 1.1-1 1.1s-1-.5-1-1.1zm-8.9-1.7c-1 0-1.7.7-1.7 1.8s.7 1.8 1.7 1.8c.5 0 1-.1 1.4-.5l-.4-.5c-.3.2-.6.4-1 .4-.5 0-.9-.2-1-.8h2.5v-.3c.1-1.2-.5-1.9-1.5-1.9zm0 .6c.5 0 .8.3.8.8h-1.8c.1-.4.5-.8 1-.8zm18.4 1.1v-3h-.7v1.8c-.2-.3-.6-.5-1.1-.5-1 0-1.7.7-1.7 1.8 0 1 .7 1.8 1.7 1.8.5 0 .8-.2 1.1-.5v.4h.7v-1.8zm-2.7 0c0-.6.4-1.1 1-1.1s1 .5 1 1.1c0 .6-.4 1.1-1 1.1s-1-.5-1-1.1zm-24.8 0v-1.7h-.7v.4c-.2-.3-.6-.5-1.1-.5-1 0-1.7.7-1.7 1.8 0 1 .7 1.8 1.7 1.8.5 0 .8-.2 1.1-.5v.4h.7v-1.7zm-2.8 0c0-.6.4-1.1 1-1.1s1 .5 1 1.1c0 .6-.4 1.1-1 1.1s-1-.5-1-1.1zM136 .2c-2.9 0-5.6.9-7.9 2.6-2.3-1.7-5-2.6-7.9-2.6-7.2 0-13.2 6-13.2 13.3 0 7.3 5.9 13.2 13.2 13.2 2.9 0 5.6-.9 7.9-2.6 2.3 1.7 5 2.6 7.9 2.6 7.3 0 13.2-5.9 13.2-13.2 0-7.3-5.9-13.3-13.2-13.3zm-7.9 22.6c-2.7-2.3-4.4-5.7-4.4-9.4 0-3.6 1.6-7 4.3-9.3 2.8 2.3 4.3 5.7 4.3 9.3.2 3.7-1.4 7.1-4.2 9.4zM108 13.5c0-6.8 5.5-12.2 12.2-12.2 2.6 0 5 .8 7.1 2.2-2.9 2.5-4.5 6.1-4.5 10 0 3.8 1.7 7.5 4.5 10-2.1 1.5-4.5 2.2-7.1 2.2-6.7 0-12.2-5.5-12.2-12.2zm28 12.2c-2.6 0-5-.8-7.1-2.2 2.9-2.5 4.5-6.1 4.5-10 0-3.9-1.6-7.5-4.5-10 2.1-1.5 4.5-2.2 7.1-2.2 6.8 0 12.2 5.5 12.2 12.2 0 6.7-5.5 12.2-12.2 12.2zM31.1 4.6l-3.9 24.2h6.3l3.9-24.2zM50 14.3c-2.2-1.1-3.5-1.9-3.5-3 0-1 1.1-2.1 3.6-2.1 2-.1 3.5.4 4.7.9l.6.3.9-5.2c-1.2-.5-3.2-1-5.6-1-6.2 0-10.5 3.3-10.6 8-.1 3.5 3.1 5.4 5.5 6.6 2.4 1.2 3.2 2 3.2 3 0 1.6-2 2.4-3.8 2.4-2.5 0-3.8-.4-5.9-1.3l-.8-.4-.9 5.4c1.5.7 4.2 1.3 7 1.3 6.6 0 10.8-3.2 10.9-8.3 0-2.8-1.7-4.9-5.3-6.6zm22.2-9.7h-4.8c-1.5 0-2.6.4-3.3 2l-9.3 22.2h6.6s1.1-3 1.3-3.6h8c.2.8.7 3.6.7 3.6h5.8l-5-24.2zm-7.7 15.6c.5-1.4 2.5-6.8 2.5-6.8 0 .1.5-1.4.8-2.3l.4 2.1s1.2 5.8 1.4 7h-5.1zM22 4.6l-6.1 16.5-.7-3.3L13 6.6c-.4-1.5-1.5-2-2.8-2H.1l-.1.5c2.5.6 4.7 1.5 6.6 2.7l5.6 21h6.6l9.8-24.2H22z"/></svg>