<?xml version="1.0" encoding="utf-8"?>
<!-- Generator: Adobe Illustrator 27.1.1, SVG Export Plug-In . SVG Version: 6.00 Build 0)  -->
<svg version="1.1" id="Layer_1" xmlns="http://www.w3.org/2000/svg" xmlns:xlink="http://www.w3.org/1999/xlink" x="0px" y="0px"
	 viewBox="0 0 36 34" style="enable-background:new 0 0 36 34;" xml:space="preserve">
<g>
	<path d="M25.2,9.1c-2.4,1.9-3.8,0.7-3.8,0.6L21,10.1l-0.4,0.4c0,0,0.9,0.9,2.5,0.7l-3.7,3.7l0.7,0.7l3.7-3.7
		c-0.2,1.6,0.7,2.5,0.7,2.5l0.7-0.7c0,0-1.3-1.3,0.6-3.8l-0.4-0.3L25.2,9.1z"/>
	<path d="M15.8,18.4l-3.7,3.7c0.2-1.6-0.7-2.5-0.7-2.5l-0.7,0.7c0.1,0.1,1.3,1.4-0.6,3.8l0.4,0.3l0.3,0.4c2.4-1.9,3.8-0.7,3.8-0.6
		l0.4-0.4l0.4-0.4c0,0-0.9-0.9-2.5-0.7l3.7-3.7L15.8,18.4z"/>
	<path d="M10.7,13.6l0.7,0.7c0,0,0.9-0.9,0.7-2.5l3.7,3.7l0.7-0.7l-3.7-3.7c1.6,0.2,2.5-0.7,2.5-0.7l-0.7-0.7c0,0-1.3,1.3-3.8-0.6
		l-0.3,0.4l-0.4,0.3C12,12.2,10.8,13.6,10.7,13.6z"/>
	<path d="M25.3,20.4l-0.7-0.7c0,0-0.9,0.9-0.7,2.5l-3.7-3.7l-0.7,0.7l3.7,3.7c-1.6-0.2-2.5,0.7-2.5,0.7l0.7,0.7
		c0.1-0.1,1.4-1.3,3.8,0.6l0.3-0.4l0.4-0.3C24,21.8,25.2,20.4,25.3,20.4z"/>
	<path d="M33.9,10.4c-2.2-4-5.9-7.1-10.4-8.8C14.1-1.7,4,2.5,1,10.9c-1.5,4.1-1.1,8.6,1.1,12.6c2.2,4,5.9,7.1,10.4,8.8
		c2.2,0.8,4.4,1.2,6.7,1.2c2.4,0,4.8-0.5,6.9-1.4c4.3-1.7,7.4-5,8.9-9.1C36.5,19,36.1,14.5,33.9,10.4z M34.1,22.7
		c-1.4,3.8-4.3,6.8-8.3,8.5c-4,1.6-8.6,1.7-12.9,0.2c-4.3-1.5-7.8-4.5-9.9-8.3c-2.1-3.8-2.4-8-1.1-11.8c2.2-6.1,8.2-9.8,14.9-9.8
		c2.1,0,4.2,0.4,6.3,1.1c4.3,1.5,7.8,4.5,9.9,8.3C35.1,14.7,35.4,18.9,34.1,22.7z"/>
</g>
</svg>
