<?xml version="1.0" encoding="utf-8"?>
<!-- Generator: Adobe Illustrator 27.1.1, SVG Export Plug-In . SVG Version: 6.00 Build 0)  -->
<svg version="1.1" id="Layer_1" xmlns="http://www.w3.org/2000/svg" xmlns:xlink="http://www.w3.org/1999/xlink" x="0px" y="0px"
	 viewBox="0 0 268.7 32.7" style="enable-background:new 0 0 268.7 32.7;" xml:space="preserve">
<g>
	<g id="Page-1">
		<path id="Combined-Shape_00000183941132340332634750000013981180146106905516_" style="fill-rule:evenodd;clip-rule:evenodd;" d="
			M244.1,15.5v13.7h7.6v-8.1h8.6c3.6,0,6.7-2.3,7.9-5.6H244.1z"/>
		<path id="Combined-Shape_00000127727262900958646130000005425134228682279560_" style="fill-rule:evenodd;clip-rule:evenodd;" d="
			M243.1,4.2c0.4,5.6,5.7,10,12.2,10c0,0,13.2,0,13.2,0c0.1-0.5,0.1-1,0.1-1.6c0-4.6-3.7-8.4-8.4-8.4L243.1,4.2z"/>
		<path id="Combined-Shape_00000122717695455407874240000000932048860411013807_" style="fill-rule:evenodd;clip-rule:evenodd;" d="
			M231.8,14.1L231.8,14.1L231.8,14.1c0.1-0.2,0.2-0.2,0.4-0.2c0.2,0,0.4,0.2,0.5,0.4l0,0v14.8h7.6V4.2h-7.6c-1,0-2.1,0.7-2.5,1.6
			l-6.1,13c0,0.1,0,0.1-0.1,0.1l0,0l0,0c-0.1,0.1-0.2,0.2-0.4,0.2c-0.3,0-0.5-0.2-0.5-0.5V4.2h-7.6v24.9h7.6v0c1,0,2-0.8,2.4-1.6
			L231.8,14.1C231.8,14.1,231.8,14.1,231.8,14.1L231.8,14.1z"/>
		<path id="Combined-Shape_00000012442264176083069760000017075202121575994812_" style="fill-rule:evenodd;clip-rule:evenodd;" d="
			M203.4,14.5L199,29.1h-5.5L189,14.5c0-0.2-0.2-0.4-0.5-0.4c-0.3,0-0.5,0.2-0.5,0.5c0,0,0,0,0,0l0,14.5h-7.6V4.2h6.5h1.9
			c1.4,0,2.9,1.1,3.3,2.4l3.7,12.1c0.2,0.6,0.5,0.6,0.7,0l3.7-12.1c0.4-1.3,1.9-2.4,3.3-2.4h1.9h6.5v24.9h-7.6V14.6c0,0,0,0,0,0
			c0-0.3-0.2-0.5-0.5-0.5C203.7,14.1,203.5,14.3,203.4,14.5L203.4,14.5z"/>
	</g>
	<g>
		<path id="XMLID_1775_" d="M115,32.6v-2.1c0-0.8-0.5-1.3-1.3-1.3c-0.4,0-0.9,0.1-1.2,0.6c-0.2-0.4-0.6-0.6-1.1-0.6
			c-0.4,0-0.7,0.1-1,0.5v-0.4h-0.7v3.4h0.7v-1.9c0-0.6,0.3-0.9,0.8-0.9c0.5,0,0.7,0.3,0.7,0.9v1.9h0.7v-1.9c0-0.6,0.4-0.9,0.8-0.9
			c0.5,0,0.7,0.3,0.7,0.9v1.9H115L115,32.6z M126,29.2h-1.2v-1h-0.7v1h-0.7v0.7h0.7v1.6c0,0.8,0.3,1.2,1.2,1.2
			c0.3,0,0.7-0.1,0.9-0.2l-0.2-0.6c-0.2,0.1-0.5,0.2-0.6,0.2c-0.4,0-0.5-0.2-0.5-0.6v-1.5h1.2L126,29.2L126,29.2z M132.3,29.2
			c-0.4,0-0.7,0.2-0.9,0.5v-0.4h-0.7v3.4h0.7v-1.9c0-0.6,0.2-0.9,0.7-0.9c0.1,0,0.3,0,0.5,0.1l0.2-0.7
			C132.6,29.2,132.4,29.2,132.3,29.2L132.3,29.2z M122.8,29.5c-0.4-0.2-0.8-0.4-1.4-0.4c-0.8,0-1.4,0.4-1.4,1.1c0,0.6,0.4,0.9,1.2,1
			l0.4,0c0.4,0.1,0.6,0.2,0.6,0.4c0,0.2-0.3,0.4-0.8,0.4c-0.5,0-0.9-0.2-1.1-0.4l-0.4,0.6c0.4,0.3,0.9,0.4,1.5,0.4
			c1,0,1.6-0.5,1.6-1.1c0-0.6-0.5-0.9-1.2-1l-0.4,0c-0.3,0-0.6-0.1-0.6-0.3c0-0.2,0.2-0.4,0.6-0.4c0.4,0,0.8,0.2,1.1,0.3L122.8,29.5
			L122.8,29.5z M142.5,29.2c-0.4,0-0.7,0.2-0.9,0.5v-0.4h-0.7v3.4h0.7v-1.9c0-0.6,0.2-0.9,0.7-0.9c0.1,0,0.3,0,0.5,0.1l0.2-0.7
			C142.9,29.2,142.7,29.2,142.5,29.2L142.5,29.2z M133,30.9c0,1,0.7,1.8,1.8,1.8c0.5,0,0.8-0.1,1.2-0.4l-0.4-0.6
			c-0.3,0.2-0.6,0.3-0.9,0.3c-0.6,0-1-0.4-1-1.1c0-0.6,0.4-1.1,1-1.1c0.3,0,0.6,0.1,0.9,0.3l0.4-0.6c-0.4-0.3-0.7-0.4-1.2-0.4
			C133.8,29.2,133,29.9,133,30.9L133,30.9L133,30.9z M139.9,30.9v-1.7h-0.7v0.4c-0.2-0.3-0.6-0.5-1.1-0.5c-1,0-1.7,0.7-1.7,1.8
			c0,1,0.7,1.8,1.7,1.8c0.5,0,0.8-0.2,1.1-0.5v0.4h0.7V30.9L139.9,30.9z M137.2,30.9c0-0.6,0.4-1.1,1-1.1c0.6,0,1,0.5,1,1.1
			c0,0.6-0.4,1.1-1,1.1C137.6,32,137.2,31.5,137.2,30.9L137.2,30.9z M128.3,29.2c-1,0-1.7,0.7-1.7,1.8c0,1.1,0.7,1.8,1.7,1.8
			c0.5,0,1-0.1,1.4-0.5l-0.4-0.5c-0.3,0.2-0.6,0.4-1,0.4c-0.5,0-0.9-0.2-1-0.8h2.5c0-0.1,0-0.2,0-0.3
			C129.9,29.9,129.3,29.2,128.3,29.2L128.3,29.2L128.3,29.2z M128.3,29.8c0.5,0,0.8,0.3,0.8,0.8h-1.8
			C127.4,30.2,127.8,29.8,128.3,29.8L128.3,29.8z M146.7,30.9v-3H146v1.8c-0.2-0.3-0.6-0.5-1.1-0.5c-1,0-1.7,0.7-1.7,1.8
			c0,1,0.7,1.8,1.7,1.8c0.5,0,0.8-0.2,1.1-0.5v0.4h0.7V30.9L146.7,30.9z M144,30.9c0-0.6,0.4-1.1,1-1.1c0.6,0,1,0.5,1,1.1
			c0,0.6-0.4,1.1-1,1.1C144.4,32,144,31.5,144,30.9L144,30.9z M119.2,30.9v-1.7h-0.7v0.4c-0.2-0.3-0.6-0.5-1.1-0.5
			c-1,0-1.7,0.7-1.7,1.8c0,1,0.7,1.8,1.7,1.8c0.5,0,0.8-0.2,1.1-0.5v0.4h0.7V30.9L119.2,30.9z M116.4,30.9c0-0.6,0.4-1.1,1-1.1
			c0.6,0,1,0.5,1,1.1c0,0.6-0.4,1.1-1,1.1C116.8,32,116.4,31.5,116.4,30.9z"/>
		<path d="M136,0.2c-2.9,0-5.6,0.9-7.9,2.6c-2.3-1.7-5-2.6-7.9-2.6C113,0.2,107,6.2,107,13.5c0,7.3,5.9,13.2,13.2,13.2
			c2.9,0,5.6-0.9,7.9-2.6c2.3,1.7,5,2.6,7.9,2.6c7.3,0,13.2-5.9,13.2-13.2C149.2,6.2,143.3,0.2,136,0.2z M128.1,22.8
			c-2.7-2.3-4.4-5.7-4.4-9.4c0-3.6,1.6-7,4.3-9.3c2.8,2.3,4.3,5.7,4.3,9.3C132.5,17.1,130.9,20.5,128.1,22.8z M108,13.5
			c0-6.8,5.5-12.2,12.2-12.2c2.6,0,5,0.8,7.1,2.2c-2.9,2.5-4.5,6.1-4.5,10c0,3.8,1.7,7.5,4.5,10c-2.1,1.5-4.5,2.2-7.1,2.2
			C113.5,25.7,108,20.2,108,13.5z M136,25.7c-2.6,0-5-0.8-7.1-2.2c2.9-2.5,4.5-6.1,4.5-10c0-3.9-1.6-7.5-4.5-10
			c2.1-1.5,4.5-2.2,7.1-2.2c6.8,0,12.2,5.5,12.2,12.2C148.2,20.2,142.7,25.7,136,25.7z"/>
	</g>
	<g>
		<polygon points="31.1,4.6 27.2,28.8 33.5,28.8 37.4,4.6 		"/>
		<path d="M50,14.3c-2.2-1.1-3.5-1.9-3.5-3c0-1,1.1-2.1,3.6-2.1c2-0.1,3.5,0.4,4.7,0.9l0.6,0.3l0.9-5.2c-1.2-0.5-3.2-1-5.6-1
			c-6.2,0-10.5,3.3-10.6,8c-0.1,3.5,3.1,5.4,5.5,6.6c2.4,1.2,3.2,2,3.2,3c0,1.6-2,2.4-3.8,2.4c-2.5,0-3.8-0.4-5.9-1.3l-0.8-0.4
			l-0.9,5.4c1.5,0.7,4.2,1.3,7,1.3c6.6,0,10.8-3.2,10.9-8.3C55.3,18.1,53.6,16,50,14.3z"/>
		<path d="M72.2,4.6h-4.8c-1.5,0-2.6,0.4-3.3,2l-9.3,22.2h6.6c0,0,1.1-3,1.3-3.6c0.7,0,7.1,0,8,0c0.2,0.8,0.7,3.6,0.7,3.6h5.8
			L72.2,4.6z M64.5,20.2c0.5-1.4,2.5-6.8,2.5-6.8c0,0.1,0.5-1.4,0.8-2.3l0.4,2.1c0,0,1.2,5.8,1.4,7C68.7,20.2,65.7,20.2,64.5,20.2z"
			/>
		<path d="M22,4.6l-6.1,16.5l-0.7-3.3c0,0,0,0,0,0L13,6.6c-0.4-1.5-1.5-2-2.8-2H0.1L0,5.1c2.5,0.6,4.7,1.5,6.6,2.7l5.6,21h6.6
			l9.8-24.2H22z"/>
	</g>
</g>
</svg>
