<?xml version="1.0" encoding="utf-8"?>
<!-- Generator: Adobe Illustrator 27.1.1, SVG Export Plug-In . SVG Version: 6.00 Build 0)  -->
<svg version="1.1" id="Layer_1" xmlns="http://www.w3.org/2000/svg" xmlns:xlink="http://www.w3.org/1999/xlink" x="0px" y="0px"
	 viewBox="0 0 36 34" style="enable-background:new 0 0 36 34;" xml:space="preserve">
<g>
	<path d="M23.5,1.7C14.1-1.7,4,2.5,1,10.9C-2,19.4,3.1,29,12.5,32.3c2.2,0.8,4.4,1.2,6.7,1.2c2.4,0,4.8-0.5,6.9-1.4
		c4.3-1.7,7.4-5,8.9-9.1C38,14.6,32.9,5,23.5,1.7z M34.1,22.7c-1.4,3.8-4.3,6.8-8.3,8.5c-4,1.6-8.6,1.7-12.9,0.2
		C4,28.2-0.9,19.2,1.9,11.3c2.2-6.1,8.2-9.8,14.9-9.8c2.1,0,4.2,0.4,6.3,1.1C32,5.8,36.9,14.8,34.1,22.7z"/>
	<path d="M27.1,11.7c-0.9-0.2-1.7,0.8-1.8,0.9l-2.8,4h-1.2c-0.1-1.3-0.8-2.1-1.4-2.8c-0.6-0.7-1.2-1.3-1.2-2.6h-1
		c0,1.7,0.8,2.5,1.4,3.3c0.5,0.6,1,1.2,1.1,2.1h-2c-0.1-1.3-0.8-2.1-1.4-2.8c-0.6-0.7-1.2-1.3-1.2-2.6h-1c0,1.7,0.8,2.5,1.4,3.3
		c0.5,0.6,1,1.2,1.1,2.1h-2c-0.1-1.3-0.8-2.1-1.4-2.8c-0.6-0.7-1.2-1.3-1.2-2.6h-1c0,1.7,0.8,2.5,1.4,3.3c0.5,0.6,1,1.2,1.1,2.1H9.6
		c-0.3,0-0.5,0.1-0.7,0.4c-0.2,0.2-0.2,0.5-0.1,0.8c0.7,2.5,2.7,4.5,5.4,5.5V24c0,0.6,0.5,1.1,1.1,1.1h5.5c0.6,0,1.1-0.5,1.1-1.1
		v-0.8c2.7-1,4.6-3.1,5.4-5.5l0,0c0.1-0.3,0-0.5-0.1-0.8c-0.2-0.2-0.4-0.4-0.7-0.4h-2.7l2.4-3.4c0.2-0.2,0.5-0.6,0.7-0.5
		c0,0,0.3,0.1,0.5,1.1l1-0.2C28.2,12.5,27.7,11.9,27.1,11.7z M20.9,24c0,0.1-0.1,0.1-0.1,0.1h-5.5c-0.1,0-0.1-0.1-0.1-0.1v-0.4
		c0,0,0,0,0.1,0c0.4,0.1,0.8,0.2,1.2,0.3c0.1,0,0.2,0,0.2,0C17.1,24,17.6,24,18,24c0.5,0,0.9,0,1.3-0.1c0.1,0,0.2,0,0.2,0
		c0.4-0.1,0.8-0.1,1.2-0.3c0,0,0.1,0,0.1,0V24z M21.3,22.5c-0.3,0.1-0.5,0.2-0.8,0.2C19.7,22.9,18.9,23,18,23c-0.6,0-1.1,0-1.6-0.1
		c-0.5-0.1-1.1-0.2-1.6-0.4l0,0c-2.5-0.9-4.3-2.7-5-4.8l16.5,0C25.6,19.8,23.7,21.6,21.3,22.5z"/>
</g>
</svg>
