<svg xmlns="http://www.w3.org/2000/svg" viewBox="0 0 54 50"><path d="M35.3 1.8C31.9.5 28.5 0 25.2 0 14.4 0 4.7 6 1.2 15.8c-4.6 12.8 3.3 27.4 17.5 32.5 3.4 1.2 6.8 1.8 10.1 1.8 10.8 0 20.5-6 24-15.8 4.6-12.9-3.2-27.5-17.5-32.5zm16.6 32.1C48.6 43 39.6 49 28.8 49c-3.3 0-6.6-.6-9.8-1.7C5.3 42.4-2.3 28.4 2.1 16.1 5.4 6.9 14.4 1 25.2 1c3.3 0 6.6.6 9.8 1.7 6.7 2.4 12.1 7 15.3 12.9 3.2 5.9 3.8 12.4 1.6 18.3z"/><path d="M37.52 21.41c-.91 0-1.73.37-2.33.96v-1.85c0-.61-.5-1.11-1.11-1.11h-3.07c-.14-1.81-1.02-2.84-1.81-3.74-.85-.97-1.59-1.81-1.59-3.58h-1c0 2.14.98 3.25 1.84 4.24.77.87 1.44 1.65 1.56 3.08h-2.97c-.14-1.81-1.02-2.84-1.81-3.74-.85-.97-1.59-1.81-1.59-3.58h-1c0 2.14.98 3.25 1.84 4.24.77.87 1.44 1.65 1.56 3.08h-2.97c-.14-1.81-1.02-2.84-1.81-3.74-.85-.97-1.59-1.81-1.59-3.58h-1c0 2.14.98 3.25 1.84 4.24.77.87 1.44 1.65 1.56 3.08h-3.3c-.61 0-1.11.5-1.11 1.11v9.99c0 1.27 1.04 2.31 2.31 2.31h.86v3.71h11.19v-3.71h.86c1.27 0 2.31-1.04 2.31-2.31v-3.4c.6.59 1.42.96 2.33.96 1.84 0 3.33-1.49 3.33-3.33s-1.49-3.33-3.33-3.33zm-6.49 14.12h-9.19v-2.71h9.19v2.71zm3.16-5.02c0 .72-.59 1.31-1.31 1.31h-12.9c-.72 0-1.31-.59-1.31-1.31v-9.99c0-.06.05-.11.11-.11h15.3c.06 0 .11.05.11.11v9.99zm3.33-3.44c-1.29 0-2.33-1.05-2.33-2.33s1.04-2.33 2.33-2.33 2.33 1.04 2.33 2.33-1.04 2.33-2.33 2.33z"/></svg>