<svg xmlns="http://www.w3.org/2000/svg" viewBox="0 0 36 34"><path d="M23.5 1.7C18.9 0 14.1.1 9.9 1.9 5.6 3.6 2.5 6.9 1 11c-3 8.4 2.1 18 11.5 21.3 2.2.8 4.4 1.2 6.6 1.2 7.1 0 13.5-4 15.9-10.4C38 14.6 32.9 5 23.5 1.7zm10.6 21c-2.8 7.9-12.3 11.8-21.2 8.7C4 28.2-.9 19.2 1.9 11.3c1.4-3.8 4.3-6.8 8.3-8.5 2.1-.9 4.3-1.3 6.6-1.3 2.1 0 4.2.4 6.3 1.1 8.9 3.2 13.8 12.2 11 20.1z"/><path d="M25.1 15c0-2.3-1.9-4.2-4.2-4.2-.5 0-.9.1-1.3.2-.3-1.4-1.5-2.4-3-2.4-1.7 0-3.1 1.4-3.1 3.1 0 .5.1.9.3 1.3-1.2.4-2.1 1.5-2.3 2.7H9.4l.2.6c.9 3.1 3.4 5.5 6.5 6.1v2h-2.7v1h9.2v-1h-2.7v-2c1.2-.3 2.4-.8 3.4-1.6 1.5-1.2 2.6-2.7 3.1-4.6l.2-.6h-1.5V15zm-1 0c0 .2 0 .4-.1.6h-5.6v-.1c-.1-.3-.1-.5-.2-.7v-.1c-.1-.2-.2-.4-.4-.6 0 0 0-.1-.1-.1 0-.1.1-.2.1-.3 0-.1.1-.2.1-.3.1-.1.1-.2.2-.3.1-.1.1-.2.2-.2.1-.1.2-.2.2-.3l.2-.2c.1-.1.2-.2.3-.2.1 0 .1-.1.2-.1.5-.3 1-.4 1.5-.4 2 .1 3.4 1.5 3.4 3.3zm-7.5-5.4c1.1 0 2 .8 2.1 1.9-.1.1-.3.2-.4.3 0 0-.1 0-.1.1l-.6.6-.1.1c-.2.2-.3.4-.4.7 0 .1-.1.1-.1.2 0 0-.1 0-.1-.1h-.1c-.4-.3-.9-.4-1.4-.5h-.6c-.2-.3-.3-.7-.3-1.1 0-1.3.9-2.2 2.1-2.2zm-1.9 4.1c.8-.1 1.6.2 2.1.7l.1.1c.1.1.2.3.3.5 0 0 0 .1.1.1.1.1.1.3.2.4v.1h-5c.3-1 1.1-1.7 2.2-1.9zm2.4 10.7v-1.8h1.8v1.8h-1.8zm5.6-4.3c-1.3 1-2.9 1.6-4.6 1.6h-.2c-3.2 0-6.1-2-7.2-5h14.6c-.5 1.3-1.4 2.5-2.6 3.4z"/></svg>