<?xml version="1.0" encoding="utf-8"?>
<!-- Generator: Adobe Illustrator 27.1.1, SVG Export Plug-In . SVG Version: 6.00 Build 0)  -->
<svg version="1.1" id="Layer_1" xmlns="http://www.w3.org/2000/svg" xmlns:xlink="http://www.w3.org/1999/xlink" x="0px" y="0px"
	 viewBox="0 0 28 28" style="enable-background:new 0 0 28 28;" xml:space="preserve">
<style type="text/css">
	.st0{fill:#012E23;}
</style>
<path class="st0" d="M20.6,14c6.4-1.3,8.1-5,7.2-6.8c-0.7-1.4-2.8-1-2.8-1l-2.3,2.3c2.6,0.4,3.7,2.9-1.1,4.3l0,0l0,0l0,0l0,0
	c-0.1,0-0.3,0.1-0.7,0.2l0,0c-0.6,0.1-1.4,0.2-2-0.1c-1.2-0.5-0.3-1.2,1.9-0.6l0.5-1.6c0,0-0.6-0.2-1.6-0.3
	c-1.3-0.1-2.6,0.6-2.3,1.7c0.2,0.5,0.6,0.9,1,1.1c-2-0.1-2.7-0.9-2.7-0.9s-0.8-0.8-0.9-2.7c0.2,0.4,0.5,0.8,1.1,1
	c1.1,0.4,1.8-0.9,1.7-2.3c-0.1-1.1-0.3-1.6-0.3-1.6l-1.6,0.5c0.7,2.2-0.1,3-0.6,1.9C14.8,8.4,14.9,7.6,15,7c0.1-0.4,0.2-0.7,0.2-0.7
	l0,0l0,0l0,0c1.4-4.8,3.9-3.6,4.3-1.1L21.8,3c0,0,0.4-2.1-1-2.8C19-0.6,15.3,1,14,7.4c-1.3-6.4-5-8-6.8-7.2C5.8,0.9,6.2,3,6.2,3
	l2.3,2.3c0.4-2.6,2.9-3.7,4.3,1.1l0,0l0,0l0,0l0,0l0,0L13,7.1c-0.1-0.2-0.1-0.5-0.2-0.7c0,0.1,0.1,0.3,0.2,0.7l0,0
	c0.1,0.6,0.2,1.4-0.1,2c-0.5,1.2-1.2,0.3-0.6-1.9l-1.6-0.5c0,0-0.2,0.6-0.3,1.6c-0.1,1.3,0.6,2.6,1.7,2.3c0.5-0.2,0.9-0.6,1.1-1
	c-0.1,2-0.9,2.7-0.9,2.7s-0.8,0.8-2.7,0.9c0.4-0.2,0.8-0.5,1-1.1c0.4-1.1-0.9-1.8-2.3-1.7c-1.1,0.1-1.6,0.3-1.6,0.3l0.5,1.6
	c2.2-0.7,3,0.1,1.9,0.6C8.4,13.2,7.6,13.1,7,13c-0.4-0.1-0.7-0.2-0.7-0.2l0,0l0,0l0,0l0,0l0,0l0,0c-4.8-1.4-3.6-3.9-1.1-4.3L3,6.2
	c0,0-2.1-0.4-2.8,1C-0.6,9,1,12.7,7.4,14c-6.4,1.3-8.1,5-7.2,6.8c0.7,1.4,2.8,1,2.8,1l2.3-2.3c-2.6-0.4-3.7-2.9,1.1-4.3l0,0l0,0l0,0
	l0,0l0,0c0.1,0,0.4-0.1,0.7-0.2l0,0c0.6-0.1,1.4-0.2,2,0.1c1.2,0.5,0.3,1.2-1.9,0.6l-0.5,1.6c0,0,0.6,0.2,1.6,0.3
	c1.3,0.1,2.6-0.6,2.3-1.7c-0.2-0.5-0.6-0.9-1-1.1c2,0.1,2.7,0.9,2.7,0.9s0.8,0.8,0.9,2.7c-0.2-0.4-0.5-0.8-1.1-1
	c-1.1-0.4-1.8,0.9-1.7,2.3c0.1,1.1,0.3,1.6,0.3,1.6l1.6-0.5c-0.7-2.2,0.1-3,0.6-1.9c0.3,0.7,0.2,1.5,0.1,2l0,0
	c-0.1,0.4-0.2,0.7-0.2,0.7l0,0l0,0l0,0l0,0l0,0c-1.4,4.8-3.9,3.6-4.3,1.1L6.2,25c0,0-0.4,2.1,1,2.8C9,28.6,12.7,27,14,20.6
	c1.3,6.4,5,8,6.8,7.2c1.4-0.7,1-2.8,1-2.8l-2.3-2.3c-0.4,2.6-2.9,3.7-4.3-1.1l0,0l0,0l0,0l0,0l0,0c0-0.1-0.1-0.4-0.2-0.7l0,0
	c-0.1-0.6-0.2-1.4,0.1-2c0.5-1.2,1.2-0.3,0.6,1.9l1.6,0.5c0,0,0.2-0.6,0.3-1.6c0.1-1.3-0.6-2.6-1.7-2.3c-0.5,0.2-0.9,0.6-1.1,1
	c0.1-2,0.9-2.7,0.9-2.7s0.8-0.8,2.7-0.9c-0.4,0.2-0.8,0.5-1,1.1c-0.4,1.1,0.9,1.8,2.3,1.7c1.1-0.1,1.6-0.3,1.6-0.3l-0.5-1.6
	c-2.2,0.7-3-0.1-1.9-0.6c0.7-0.3,1.5-0.2,2.1-0.1c0.4,0.1,0.7,0.2,0.7,0.2l0,0l0,0l0,0l0,0c4.8,1.4,3.6,3.9,1.1,4.3l2.3,2.3
	c0,0,2.1,0.4,2.8-1C28.6,19,27,15.3,20.6,14z M7.2,13.1C7,13,6.7,13,6.5,12.9L7.2,13.1z"/>
</svg>
