<svg xmlns="http://www.w3.org/2000/svg" viewBox="0 0 54 50"><path d="M18 15.5v19c0 1.5 1.2 2.7 2.7 2.7h12.4c1.5 0 2.7-1.2 2.7-2.7v-19c0-1.5-1.2-2.7-2.7-2.7H20.8c-1.5 0-2.8 1.2-2.8 2.7zm17 0v19c0 1-.8 1.7-1.7 1.7H20.8c-1 0-1.7-.8-1.7-1.7v-19c0-1 .8-1.7 1.7-1.7h12.4c1 0 1.8.7 1.8 1.7z"/><path d="M27 24.8c2.4 0 4.3-1.9 4.3-4.3s-1.9-4.3-4.3-4.3-4.3 1.9-4.3 4.3 1.9 4.3 4.3 4.3zm0-7.5c1.8 0 3.3 1.5 3.3 3.3s-1.5 3.3-3.3 3.3-3.3-1.5-3.3-3.3 1.5-3.3 3.3-3.3zm0 10c-1.8 0-3.3 1.5-3.3 3.3 0 1.8 1.5 3.3 3.3 3.3s3.3-1.5 3.3-3.3c0-1.8-1.5-3.3-3.3-3.3zm0 5.6c-1.3 0-2.3-1-2.3-2.3s1-2.3 2.3-2.3 2.3 1 2.3 2.3-1 2.3-2.3 2.3zM25.2 0z"/><path d="M35.3 1.8C31.9.5 28.5 0 25.2 0v1c3.3 0 6.6.6 9.8 1.7 6.7 2.4 12.1 7 15.3 12.9 3.2 5.9 3.8 12.4 1.6 18.3C48.6 43 39.6 49 28.8 49c-3.3 0-6.6-.6-9.8-1.7-6.7-2.4-12.1-7-15.3-12.9C.6 28.5 0 22 2.1 16.1 5.4 6.9 14.4 1 25.2 1V0C14.4 0 4.7 6 1.2 15.8c-4.6 12.8 3.3 27.4 17.5 32.5 3.4 1.2 6.8 1.8 10.1 1.8 10.8 0 20.5-6 24-15.8 4.6-12.9-3.2-27.5-17.5-32.5z"/></svg>