<svg xmlns="http://www.w3.org/2000/svg" viewBox="0 0 36 34"><path d="M23.5 1.7C14.1-1.7 4 2.5 1 10.9-2 19.4 3.1 29 12.5 32.3c2.2.8 4.4 1.2 6.7 1.2 2.4 0 4.8-.5 6.9-1.4 4.3-1.7 7.4-5 8.9-9.1 3-8.4-2.1-18-11.5-21.3zm10.6 21c-1.4 3.8-4.3 6.8-8.3 8.5-4 1.6-8.6 1.7-12.9.2C4 28.2-.9 19.2 1.9 11.3c2.2-6.1 8.2-9.8 14.9-9.8 2.1 0 4.2.4 6.3 1.1 8.9 3.2 13.8 12.2 11 20.1z"/><path d="M27.1 11.7c-.9-.2-1.7.8-1.8.9l-2.8 4h-1.2c-.1-1.3-.8-2.1-1.4-2.8-.6-.7-1.2-1.3-1.2-2.6h-1c0 1.7.8 2.5 1.4 3.3.5.6 1 1.2 1.1 2.1h-2c-.1-1.3-.8-2.1-1.4-2.8-.6-.7-1.2-1.3-1.2-2.6h-1c0 1.7.8 2.5 1.4 3.3.5.6 1 1.2 1.1 2.1h-2c-.1-1.3-.8-2.1-1.4-2.8-.6-.7-1.2-1.3-1.2-2.6h-1c0 1.7.8 2.5 1.4 3.3.5.6 1 1.2 1.1 2.1H9.6c-.3 0-.5.1-.7.4-.2.2-.2.5-.1.8.7 2.5 2.7 4.5 5.4 5.5v.7c0 .6.5 1.1 1.1 1.1h5.5c.6 0 1.1-.5 1.1-1.1v-.8c2.7-1 4.6-3.1 5.4-5.5.1-.3 0-.5-.1-.8-.2-.2-.4-.4-.7-.4h-2.7l2.4-3.4c.2-.2.5-.6.7-.5 0 0 .3.1.5 1.1l1-.2c-.2-1-.7-1.6-1.3-1.8zM20.9 24c0 .1-.1.1-.1.1h-5.5c-.1 0-.1-.1-.1-.1v-.4h.1l1.2.3h.2c.4.1.9.1 1.3.1.5 0 .9 0 1.3-.1h.2c.4-.1.8-.1 1.2-.3h.1v.4zm.4-1.5c-.3.1-.5.2-.8.2-.8.2-1.6.3-2.5.3-.6 0-1.1 0-1.6-.1s-1.1-.2-1.6-.4c-2.5-.9-4.3-2.7-5-4.8h16.5c-.7 2.1-2.6 3.9-5 4.8z"/></svg>