<?xml version="1.0" encoding="utf-8"?>
<!-- Generator: Adobe Illustrator 27.1.1, SVG Export Plug-In . SVG Version: 6.00 Build 0)  -->
<svg version="1.1" id="Layer_1" xmlns="http://www.w3.org/2000/svg" xmlns:xlink="http://www.w3.org/1999/xlink" x="0px" y="0px"
	 viewBox="0 0 36 34" style="enable-background:new 0 0 36 34;" xml:space="preserve">
<g>
	<path d="M24.1,11.1L24.1,11.1H11.9C10.9,11.1,10,12,10,13v6.2V21c0,1.1,0.9,1.9,1.9,1.9h12.1c1.1,0,1.9-0.9,1.9-1.9v-1.8V13
		c0-0.3-0.1-0.5-0.2-0.8C25.6,11.6,24.9,11.1,24.1,11.1z M11,13c0-0.5,0.4-0.9,0.9-0.9h7.2l-6.2,6.2l0.7,0.7l6.9-6.9h1.2l-3.4,3.4
		l0.7,0.7l4.1-4.1h0.9c0.5,0,0.9,0.4,0.9,0.9v6.2c0,0.5-0.4,0.9-0.9,0.9H11.9c-0.5,0-0.9-0.4-0.9-0.9V13z M24.1,21.9H11.9
		c-0.5,0-0.9-0.4-0.9-0.9v-0.1c0.3,0.2,0.6,0.2,0.9,0.2h12.1c0.3,0,0.7-0.1,0.9-0.2V21C25,21.5,24.6,21.9,24.1,21.9z"/>
	<path d="M33.9,10.4c-2.2-4-5.9-7.1-10.4-8.8C14.1-1.7,4,2.5,1,10.9C-2,19.4,3.1,29,12.5,32.3c2.2,0.8,4.4,1.2,6.7,1.2
		c2.4,0,4.8-0.5,7-1.4c4.3-1.7,7.4-5,8.9-9.1C36.5,19,36.1,14.5,33.9,10.4z M34.1,22.7c-1.4,3.8-4.3,6.8-8.3,8.5
		c-4,1.6-8.6,1.7-12.9,0.2C4,28.2-0.9,19.2,1.9,11.3c2.2-6.1,8.2-9.8,14.9-9.8c2.1,0,4.2,0.4,6.3,1.1c4.3,1.5,7.8,4.5,9.9,8.3
		C35.1,14.7,35.4,18.9,34.1,22.7z"/>
</g>
</svg>
