<?xml version="1.0" encoding="utf-8"?>
<!-- Generator: Adobe Illustrator 27.1.1, SVG Export Plug-In . SVG Version: 6.00 Build 0)  -->
<svg version="1.1" id="Layer_1" xmlns="http://www.w3.org/2000/svg" xmlns:xlink="http://www.w3.org/1999/xlink" x="0px" y="0px"
	 viewBox="0 0 54 50" style="enable-background:new 0 0 54 50;" xml:space="preserve">
<g>
	<polygon points="25.2,0 25.2,0 25.2,0 	"/>
	<path d="M35.3,1.8C31.9,0.5,28.5,0,25.2,0v1c3.3,0,6.6,0.6,9.8,1.7c6.7,2.4,12.1,7,15.3,12.9c3.2,5.9,3.8,12.4,1.6,18.3
		C48.6,43,39.6,49,28.8,49c-3.3,0-6.6-0.6-9.8-1.7c-6.7-2.4-12.1-7-15.3-12.9C0.6,28.5,0,22,2.1,16.1C5.4,6.9,14.4,1,25.2,1l0-1
		c0,0,0,0,0,0c-10.8,0-20.5,6-24,15.8c-4.6,12.8,3.3,27.4,17.5,32.5c3.4,1.2,6.8,1.8,10.1,1.8c10.8,0,20.5-6,24-15.8
		C57.4,21.4,49.6,6.8,35.3,1.8z"/>
	<path d="M19.6,14.5l-2.3-2.8c-0.4-0.5-1-0.8-1.6-0.8c-0.7,0-1.3,0.2-1.7,0.7l-0.4,0.4c-0.5,0.5-0.7,1.1-0.7,1.7
		c0,0.6,0.3,1.2,0.8,1.6l2.8,2.3c-1.6,1.6-1.6,2.6,0.1,4.3l13.5,13.5c0.8,0.8,1.5,1.2,2.2,1.2c0.6,0,1.3-0.4,2.1-1.2l2.3,2.8
		c0.4,0.5,1,0.8,1.6,0.8c0,0,0.1,0,0.1,0c0.6,0,1.2-0.2,1.6-0.7l0.4-0.4c0.5-0.5,0.7-1.1,0.7-1.7c0-0.6-0.3-1.2-0.8-1.6l-2.8-2.3
		c1.6-1.6,1.6-2.6-0.1-4.3L23.9,14.6C22.3,13,21.2,12.9,19.6,14.5z M13.9,13.6c0-0.4,0.1-0.7,0.4-1l0.4-0.4c0.2-0.2,0.6-0.4,0.9-0.4
		c0,0,0,0,0.1,0c0.4,0,0.7,0.2,0.9,0.5l2.4,2.9l-1.7,1.7l-2.9-2.4C14,14.3,13.9,14,13.9,13.6z M40.1,36.3c0,0.4-0.1,0.7-0.4,1
		l-0.4,0.4c-0.3,0.3-0.6,0.4-1,0.4c-0.4,0-0.7-0.2-0.9-0.5l-2.4-2.9l1.7-1.7l2.9,2.4C40,35.6,40.1,36,40.1,36.3z M36.7,31.7l-3,3
		c-1.3,1.3-1.6,1.3-2.9,0L17.3,21.2c-1.3-1.3-1.3-1.6,0-2.9l0,0l2.9-2.9l0,0c0.6-0.6,1-0.9,1.5-0.9c0.4,0,0.8,0.3,1.5,0.9l13.5,13.5
		C38,30.1,38,30.4,36.7,31.7z"/>
</g>
</svg>
