<svg xmlns="http://www.w3.org/2000/svg" viewBox="0 0 54 50"><path d="M35.3 1.8C31.9.5 28.5 0 25.2 0v1c3.3 0 6.6.6 9.8 1.7 6.7 2.4 12.1 7 15.3 12.9 3.2 5.9 3.8 12.4 1.6 18.3C48.6 43 39.6 49 28.8 49c-3.3 0-6.6-.6-9.8-1.7C5.3 42.4-2.3 28.4 2.1 16.1 5.4 6.9 14.4 1 25.2 1V0C14.4 0 4.7 6 1.2 15.8c-4.6 12.8 3.3 27.4 17.5 32.5 3.4 1.2 6.8 1.8 10.1 1.8 10.8 0 20.5-6 24-15.8 4.6-12.9-3.2-27.5-17.5-32.5z"/><path d="M32.23 18.24c-2.01 0-3.83.76-5.23 1.99a7.835 7.835 0 00-4.4-1.94l2.83-4.89h-7.31l2.83 4.89c-3.98.42-7.09 3.79-7.09 7.88 0 4.37 3.55 7.92 7.92 7.92 2.01 0 3.83-.76 5.23-1.99 1.4 1.23 3.22 1.99 5.23 1.99 4.37 0 7.92-3.55 7.92-7.92s-3.55-7.92-7.92-7.92zM27 30.68c-1.05-1.21-1.69-2.79-1.69-4.52s.64-3.3 1.69-4.52c1.05 1.21 1.69 2.79 1.69 4.52s-.64 3.3-1.69 4.52zm-3.31-16.29l-1.92 3.33-1.92-3.33h3.85zm-8.84 11.77c0-3.82 3.1-6.92 6.92-6.92 1.73 0 3.31.64 4.52 1.7-1.23 1.4-1.98 3.22-1.98 5.22s.75 3.83 1.98 5.22a6.884 6.884 0 01-4.52 1.7c-3.81 0-6.92-3.1-6.92-6.92zm17.38 6.92c-1.73 0-3.31-.64-4.52-1.7 1.23-1.4 1.98-3.22 1.98-5.22s-.75-3.83-1.98-5.22a6.884 6.884 0 014.52-1.7c3.82 0 6.92 3.1 6.92 6.92s-3.1 6.92-6.92 6.92z"/></svg>