<svg xmlns="http://www.w3.org/2000/svg" viewBox="0 0 372.36 372.36"><path d="M372.36 120.49c-11.01 22.84-34.11 36.58-59.77 33.36l-16.43 74.77 53.46 18.04c3.13 1.3 5.4 3.43 5.38 7.04-.01 2.8-8.68 23.72-10.57 27.24-2.52 4.7-5.24 6.35-10.59 4-10.66-4.7-7.44-10.26-7.3-19.92l-29.68-5.87 29.6 57.86c2.22 8.3-13.17 16.13-19.01 10.3L261.6 264.8a46.208 46.208 0 00-29.24-18.18l-74.91-13.2c-3.45-.61-6.95.7-9.15 3.43l-6.02 7.45-63.55 44.61c-1.11 9.01 7.94 31.44 4.9 39-1.95 4.85-12.79 4.42-17.06 3.65-2.81-.51-4.6-2.84-5.42-5.47-4.57-14.66-4.8-34.02-8.96-49.17-1.45-3.2 10.47-15.47 9.49-16.32l-27.48 2.27c-4.43 9.96-6.83 22.07-11.36 31.83-2.6 5.6-5.83 6.81-11.47 4.23C7.34 297.08.68 293.54.7 288.54l17.54-49.98c9.73-7.52 22.99-10.16 33.62-16.46 1.69-5.88 1.87-12.3 3.34-18.43 2.84-11.79 8.31-22.92 16.44-31.84 2.07-2.27 1.21-5.92-1.7-6.91-2.69-.91-5.4-1.78-8.02-2.92-14.06-6.12-27.84-17.65-36.39-30.38-3.47-5.16-10.08-14.11-1.78-18.2 7.73-3.81 11.45 7.15 15.16 12.09 14.8 19.75 38.82 31.79 63.77 29.08l113.68-4.92c13.32-.58 24.98-9.1 29.58-21.61l30.25-82.32c1.8-4.08 6.07-5.61 10.08-3.53 4.93 2.57 6.2 16.65 8.45 21.68l10.66-10.73c14.7-2.2 8.97 16.69 11.81 25.47 7.83 2.88 13.76 7 17.33 14.77.75 1.64 1.39 5.41 1.72 5.9.96 1.39 27.01 10.41 31.2 12.72 2.63 1.44 3.36 2.32 4.93 4.87v3.63z"/></svg>