<?xml version="1.0" encoding="utf-8"?>
<!-- Generator: Adobe Illustrator 27.1.1, SVG Export Plug-In . SVG Version: 6.00 Build 0)  -->
<svg version="1.1" id="Layer_1" xmlns="http://www.w3.org/2000/svg" xmlns:xlink="http://www.w3.org/1999/xlink" x="0px" y="0px"
	 viewBox="0 0 36 34" style="enable-background:new 0 0 36 34;" xml:space="preserve">
<g>
	<path d="M24,9H12c-1.1,0-2,0.9-2,2V23c0,1.1,0.9,2,2,2H24c1.1,0,2-0.9,2-2V11C26,9.9,25.1,9,24,9z M25,23c0,0.6-0.5,1-1,1H12
		c-0.6,0-1-0.5-1-1V11c0-0.6,0.5-1,1-1H24c0.6,0,1,0.5,1,1V23z"/>
	<polygon points="18.5,12.9 17.5,12.9 17.5,16.5 13.9,16.5 13.9,17.5 17.5,17.5 17.5,21.1 18.5,21.1 18.5,17.5 22.1,17.5 22.1,16.5 
		18.5,16.5 	"/>
	<path d="M33.9,10.4c-2.2-4-5.9-7.1-10.4-8.8C14.1-1.7,4,2.5,1,10.9c-1.5,4.1-1.1,8.6,1.1,12.6c2.2,4,5.9,7.1,10.4,8.8
		c2.2,0.8,4.4,1.2,6.7,1.2c2.4,0,4.8-0.5,6.9-1.4c4.3-1.7,7.4-5,8.9-9.1C36.5,19,36.1,14.5,33.9,10.4z M34.1,22.7
		c-1.4,3.8-4.3,6.8-8.3,8.5c-4,1.6-8.6,1.7-12.9,0.2c-4.3-1.5-7.8-4.5-9.9-8.3c-2.1-3.8-2.4-8-1.1-11.8c2.2-6.1,8.2-9.8,14.9-9.8
		c2.1,0,4.2,0.4,6.3,1.1c4.3,1.5,7.8,4.5,9.9,8.3C35.1,14.7,35.4,18.9,34.1,22.7z"/>
</g>
</svg>
