<?xml version="1.0" encoding="utf-8"?>
<!-- Generator: Adobe Illustrator 27.1.1, SVG Export Plug-In . SVG Version: 6.00 Build 0)  -->
<svg version="1.1" id="Layer_1" xmlns="http://www.w3.org/2000/svg" xmlns:xlink="http://www.w3.org/1999/xlink" x="0px" y="0px"
	 viewBox="0 0 36 34" style="enable-background:new 0 0 36 34;" xml:space="preserve">
<g>
	<path d="M23.5,1.7C14.1-1.7,4,2.5,1,10.9c-1.5,4.1-1.1,8.6,1.1,12.6c2.2,4,5.9,7.1,10.4,8.8c2.2,0.8,4.4,1.2,6.6,1.2
		c7.1,0,13.5-4,15.9-10.4C38,14.6,32.9,5,23.5,1.7z M34.1,22.7c-2.8,7.9-12.3,11.8-21.2,8.7c-4.3-1.5-7.8-4.5-9.9-8.3
		c-2.1-3.8-2.4-8-1.1-11.8c2.2-6.1,8.2-9.8,14.9-9.8c2.1,0,4.2,0.4,6.3,1.1C32,5.8,36.9,14.8,34.1,22.7z"/>
	<path d="M23.8,7.7c-0.9-0.6-2-0.7-3-0.5c-1,0.2-1.9,0.9-2.5,1.8c-0.5,0.8-0.7,1.8-0.5,2.7L11,24.1c-0.3,0.6-0.1,1.4,0.5,1.8
		l1.5,0.9c0.2,0.1,0.5,0.2,0.7,0.2c0.4,0,0.8-0.2,1.1-0.6l8.1-11.5c0.9-0.3,1.7-0.9,2.2-1.7c0.6-0.9,0.7-2,0.5-3
		C25.3,9.1,24.7,8.2,23.8,7.7z M22,13.6l-3.3-2.1c0-0.3,0-0.6,0-0.8l4.7,2.9c-0.2,0.2-0.5,0.3-0.7,0.4L22,13.6z M14,25.9
		c-0.1,0.2-0.3,0.2-0.5,0.1L12,25c-0.2-0.1-0.2-0.3-0.1-0.5l6.6-12.1l3.4,2.1L14,25.9z M24.2,12.7c0,0.1-0.1,0.1-0.1,0.2L19,9.7
		c0-0.1,0.1-0.1,0.1-0.2c0.4-0.7,1.1-1.2,1.9-1.4c0.8-0.2,1.6-0.1,2.3,0.4c0.7,0.4,1.2,1.1,1.4,1.9C24.8,11.2,24.7,12,24.2,12.7z"/>
	<path d="M19.8,15.8c-0.1-0.3-0.3-0.6-0.6-0.8c-0.3-0.2-0.6-0.2-0.9-0.2c-0.3,0.1-0.6,0.3-0.8,0.6L16,17.9c-0.2,0.3-0.2,0.6-0.2,0.9
		c0.1,0.3,0.3,0.6,0.6,0.8c0.2,0.1,0.4,0.2,0.7,0.2c0.1,0,0.2,0,0.3,0c0.3-0.1,0.6-0.3,0.8-0.6l1.5-2.5
		C19.8,16.4,19.9,16.1,19.8,15.8z M18.8,16.2l-1.5,2.5c0,0.1-0.1,0.1-0.2,0.1c0,0-0.1,0-0.2,0s-0.1-0.1-0.1-0.2s0-0.1,0-0.2l1.5-2.5
		c0-0.1,0.1-0.1,0.2-0.1c0,0,0,0,0.1,0c0,0,0.1,0,0.1,0c0.1,0,0.1,0.1,0.1,0.2C18.8,16,18.8,16.1,18.8,16.2z"/>
</g>
</svg>
