<svg xmlns="http://www.w3.org/2000/svg" viewBox="0 0 54 50"><path d="M35.3 1.8C31.9.5 28.5 0 25.2 0v1c3.3 0 6.6.6 9.8 1.7 6.7 2.4 12.1 7 15.3 12.9 3.2 5.9 3.8 12.4 1.6 18.3C48.6 43 39.6 49 28.8 49c-3.3 0-6.6-.6-9.8-1.7C5.3 42.4-2.3 28.4 2.1 16.1 5.4 6.9 14.4 1 25.2 1V0C14.4 0 4.7 6 1.2 15.8c-4.6 12.8 3.3 27.4 17.5 32.5 3.4 1.2 6.8 1.8 10.1 1.8 10.8 0 20.5-6 24-15.8 4.6-12.9-3.2-27.5-17.5-32.5z"/><path d="M40.44 29.9c-.24-7.29-5.72-13.19-12.59-13.65l1.28-2.22c.09-.15.09-.35 0-.5a.504.504 0 00-.43-.25h-3.38c-.18 0-.34.1-.43.25s-.09.35 0 .5l1.28 2.22c-6.87.45-12.35 6.35-12.59 13.65h-2.41v1h31.67v-1h-2.4zM27.83 14.28l-.82 1.43-.82-1.43h1.65zM14.56 29.9c.25-7.04 5.73-12.69 12.44-12.69s12.21 5.65 12.46 12.69h-24.9z"/><path d="M31.8 20.33c-.59-.38-1.21-.58-1.69-.58-.36 0-.64.11-.78.33-.34.53.23 1.49 1.26 2.15.59.38 1.21.58 1.69.58.36 0 .64-.11.78-.33.34-.53-.23-1.49-1.26-2.15z"/></svg>