<svg xmlns="http://www.w3.org/2000/svg" viewBox="0 0 54 50"><path d="M35.3 1.8C31.9.5 28.5 0 25.2 0v1c3.3 0 6.6.6 9.8 1.7 6.7 2.4 12.1 7 15.3 12.9 3.2 5.9 3.8 12.4 1.6 18.3C48.6 43 39.6 49 28.8 49c-3.3 0-6.6-.6-9.8-1.7C5.3 42.4-2.3 28.4 2.1 16.1 5.4 6.9 14.4 1 25.2 1V0C14.4 0 4.7 6 1.2 15.8c-4.6 12.8 3.3 27.4 17.5 32.5 3.4 1.2 6.8 1.8 10.1 1.8 10.8 0 20.5-6 24-15.8 4.6-12.9-3.2-27.5-17.5-32.5z"/><path d="M32.58 26.43c2.15-1 3.62-3.17 3.62-5.71 0-3.48-2.83-6.31-6.31-6.31-.28 0-.53.02-.77.06-1.2-1.58-3.05-2.52-5.02-2.52-3.48 0-6.31 2.83-6.31 6.31 0 2.52 1.49 4.7 3.64 5.71-3.74 1.14-6.46 4.62-6.46 8.72h1c0-4.48 3.65-8.12 8.13-8.12.3 0 .59.03.88.06.6.78 1.38 1.39 2.26 1.8-3.74 1.14-6.46 4.62-6.46 8.72h1c0-4.48 3.64-8.12 8.12-8.12.08 0 .16 0 .25.01 4.36.13 7.87 3.71 7.87 8.11h1c0-4.1-2.72-7.57-6.44-8.72zM18.8 18.26c0-2.93 2.38-5.31 5.31-5.31 1.51 0 2.93.64 3.93 1.75-.06.02-.11.05-.16.06-.14.05-.28.11-.42.17-.19.08-.38.16-.55.26-.13.07-.26.15-.39.23-.17.11-.33.22-.49.34-.12.09-.23.19-.35.29-.15.13-.28.27-.42.42-.1.11-.2.22-.29.34a8.667 8.667 0 00-.58.86c-.1.18-.19.38-.27.57-.05.13-.12.25-.16.38-.08.22-.13.45-.19.68-.03.12-.06.23-.09.34-.06.35-.1.71-.1 1.08 0 .29.03.57.06.85.01.08.03.16.04.23.04.22.09.43.15.64l.06.2c.09.26.19.53.31.78 0 0 0 .02.01.03.02.03.03.07.04.1h-.18c-2.93 0-5.31-2.38-5.31-5.31zm6.79 5.53l-.07-.1a5.3 5.3 0 01-.91-2.97c0-.32.03-.64.08-.95a5.272 5.272 0 014.33-4.27c.26-.06.56-.08.88-.08 2.93 0 5.31 2.38 5.31 5.31s-2.24 5.2-5.16 5.3h-.14c-1.69 0-3.28-.81-4.31-2.24z"/></svg>