<svg xmlns="http://www.w3.org/2000/svg" viewBox="0 0 36 34"><path d="M33.9 10.4c-2.2-4-5.9-7.1-10.4-8.8C14.1-1.7 4 2.5 1 10.9-.9 16.4.4 22.4 4.6 27c.6.7 1.4 1.4 2.2 2.1 1.7 1.4 3.6 2.5 5.8 3.2 2.2.8 4.5 1.2 6.7 1.2 3.8 0 7.4-1.1 10.4-3.3.9-.7 1.8-1.5 2.6-2.3 1.2-1.4 2.2-3 2.8-4.8 1.4-4.1 1-8.6-1.2-12.7zm.2 12.3c-.6 1.7-1.5 3.2-2.7 4.5-.7.8-1.5 1.5-2.4 2.2-4.5 3.3-10.5 4-16.1 2-2-.7-3.9-1.8-5.5-3.1-.8-.6-1.4-1.3-2.1-1.9-3.9-4.4-5.2-10-3.4-15.1 2.2-6.1 8.2-9.8 14.9-9.8 2.1 0 4.2.4 6.3 1.1 4.3 1.5 7.8 4.5 9.9 8.3 2.1 3.8 2.4 8 1.1 11.8z"/><path d="M28 11.3c0-1.6-1.3-2.8-2.8-2.8-1.2 0-2.3.8-2.7 1.9-1.5-.6-3-.9-4.5-.9s-3 .3-4.4.9c-.4-1.1-1.4-1.9-2.7-1.9-1.6 0-2.8 1.3-2.8 2.8 0 1 .6 2 1.4 2.5-1.8 2.8-2 7 1.2 9.6 1.7 1.4 4.2 2.2 7.3 2.2 3 0 5.5-.7 7.2-2.1l.2-.1c3.2-2.6 3-6.8 1.2-9.6.8-.5 1.4-1.5 1.4-2.5zM10.9 9.5c.9 0 1.6.6 1.8 1.4 0 0-.1 0-.1.1-.4.2-.8.4-1.1.7-.1 0-.1.1-.2.1-.3.3-.7.6-1 .9l-.3.3c-.6-.3-1-.9-1-1.6.1-1.1.9-1.9 1.9-1.9zm13.9 13l-.1.1c-1.5 1.3-3.8 1.9-6.7 1.9-2.8 0-5.2-.7-6.7-1.9-2.9-2.4-2.5-6.3-.7-8.8l.3-.3c.1-.1.1-.2.2-.3l.5-.5c.3-.3.7-.5 1-.8.3-.2.5-.3.8-.5h.1c1.4-.7 3-1.1 4.5-1.1s3.1.4 4.5 1h.1l.6.3.9.6c.3.2.6.5.9.8.1.1.2.2.3.4.1.1.1.2.2.2 1.7 2.7 2.1 6.5-.7 8.9zm1.2-9.6l-.3-.3-.1-.1c-.3-.3-.6-.6-1-.9-.1 0-.1-.1-.2-.1-.3-.2-.7-.5-1.1-.7 0 0-.1 0-.1-.1.2-.8.9-1.4 1.8-1.4 1 0 1.8.8 1.8 1.8.2.9-.2 1.5-.8 1.8z"/><circle cx="20.7" cy="15.1" r=".8"/><circle cx="15.3" cy="15.1" r=".8"/><path d="M18.5 21.8v-1.6c.5-.1 1-.3 1.3-.5.4-.3.7-.7.9-1.2.2-.6.1-1.1-.2-1.5-.4-.6-1.3-.9-2.5-.9s-2.1.3-2.5.9c-.3.4-.4 1-.2 1.5.1.5.5.9.9 1.2.4.3.8.4 1.3.5v1.6c-2.5-.1-3.7-1.1-3.7-1.1l-.3.4-.3.4c.1.1 1.6 1.4 4.9 1.4 3.6 0 4.9-1.3 4.9-1.4l-.7-.7c-.1 0-1.1.9-3.8 1zm-2.3-3.6c-.1-.2-.1-.4.1-.6.1-.2.5-.5 1.7-.5s1.6.3 1.7.5c.2.2.1.5.1.6-.1.3-.3.5-.5.7-.6.4-1.9.4-2.5 0-.3-.2-.5-.4-.6-.7z"/></svg>