<svg xmlns="http://www.w3.org/2000/svg" viewBox="0 0 36 34"><path d="M25.2 9.1c-2.4 1.9-3.8.7-3.8.6l-.4.4-.4.4s.9.9 2.5.7l-3.7 3.7.7.7 3.7-3.7c-.2 1.6.7 2.5.7 2.5l.7-.7s-1.3-1.3.6-3.8l-.4-.3-.2-.5zm-9.4 9.3l-3.7 3.7c.2-1.6-.7-2.5-.7-2.5l-.7.7c.1.1 1.3 1.4-.6 3.8l.4.3.3.4c2.4-1.9 3.8-.7 3.8-.6l.4-.4.4-.4s-.9-.9-2.5-.7l3.7-3.7-.8-.6zm-5.1-4.8l.7.7s.9-.9.7-2.5l3.7 3.7.7-.7-3.7-3.7c1.6.2 2.5-.7 2.5-.7l-.7-.7s-1.3 1.3-3.8-.6l-.3.4-.4.3c1.9 2.4.7 3.8.6 3.8zm14.6 6.8l-.7-.7s-.9.9-.7 2.5l-3.7-3.7-.7.7 3.7 3.7c-1.6-.2-2.5.7-2.5.7l.7.7c.1-.1 1.4-1.3 3.8.6l.3-.4.4-.3c-1.9-2.4-.7-3.8-.6-3.8z"/><path d="M33.9 10.4c-2.2-4-5.9-7.1-10.4-8.8C14.1-1.7 4 2.5 1 10.9-.5 15-.1 19.5 2.1 23.5s5.9 7.1 10.4 8.8c2.2.8 4.4 1.2 6.7 1.2 2.4 0 4.8-.5 6.9-1.4 4.3-1.7 7.4-5 8.9-9.1 1.5-4 1.1-8.5-1.1-12.6zm.2 12.3c-1.4 3.8-4.3 6.8-8.3 8.5-4 1.6-8.6 1.7-12.9.2-4.3-1.5-7.8-4.5-9.9-8.3-2.1-3.8-2.4-8-1.1-11.8 2.2-6.1 8.2-9.8 14.9-9.8 2.1 0 4.2.4 6.3 1.1 4.3 1.5 7.8 4.5 9.9 8.3 2.1 3.8 2.4 8 1.1 11.8z"/></svg>