<svg xmlns="http://www.w3.org/2000/svg" viewBox="0 0 54 50"><path d="M25.2 0zm10.1 1.8C31.9.5 28.5 0 25.2 0v1c3.3 0 6.6.6 9.8 1.7 6.7 2.4 12.1 7 15.3 12.9 3.2 5.9 3.8 12.4 1.6 18.3C48.6 43 39.6 49 28.8 49c-3.3 0-6.6-.6-9.8-1.7-6.7-2.4-12.1-7-15.3-12.9C.6 28.5 0 22 2.1 16.1 5.4 6.9 14.4 1 25.2 1V0C14.4 0 4.7 6 1.2 15.8c-4.6 12.8 3.3 27.4 17.5 32.5 3.4 1.2 6.8 1.8 10.1 1.8 10.8 0 20.5-6 24-15.8 4.6-12.9-3.2-27.5-17.5-32.5z"/><path d="M19.6 14.5l-2.3-2.8c-.4-.5-1-.8-1.6-.8-.7 0-1.3.2-1.7.7l-.4.4c-.5.5-.7 1.1-.7 1.7 0 .6.3 1.2.8 1.6l2.8 2.3c-1.6 1.6-1.6 2.6.1 4.3l13.5 13.5c.8.8 1.5 1.2 2.2 1.2.6 0 1.3-.4 2.1-1.2l2.3 2.8c.4.5 1 .8 1.6.8h.1c.6 0 1.2-.2 1.6-.7l.4-.4c.5-.5.7-1.1.7-1.7 0-.6-.3-1.2-.8-1.6l-2.8-2.3c1.6-1.6 1.6-2.6-.1-4.3L23.9 14.6c-1.6-1.6-2.7-1.7-4.3-.1zm-5.7-.9c0-.4.1-.7.4-1l.4-.4c.2-.2.6-.4.9-.4h.1c.4 0 .7.2.9.5l2.4 2.9-1.7 1.7-2.9-2.4c-.4-.2-.5-.5-.5-.9zm26.2 22.7c0 .4-.1.7-.4 1l-.4.4c-.3.3-.6.4-1 .4s-.7-.2-.9-.5L35 34.7l1.7-1.7 2.9 2.4c.4.2.5.6.5.9zm-3.4-4.6l-3 3c-1.3 1.3-1.6 1.3-2.9 0L17.3 21.2c-1.3-1.3-1.3-1.6 0-2.9l2.9-2.9c.6-.6 1-.9 1.5-.9.4 0 .8.3 1.5.9l13.5 13.5c1.3 1.2 1.3 1.5 0 2.8z"/></svg>