<?xml version="1.0" encoding="utf-8"?>
<!-- Generator: Adobe Illustrator 27.1.1, SVG Export Plug-In . SVG Version: 6.00 Build 0)  -->
<svg version="1.1" id="Layer_1" xmlns="http://www.w3.org/2000/svg" xmlns:xlink="http://www.w3.org/1999/xlink" x="0px" y="0px"
	 viewBox="0 0 54 50" style="enable-background:new 0 0 54 50;" xml:space="preserve">
<g>
	<polygon points="25.2,0 25.2,0 25.2,0 	"/>
	<path d="M35.3,1.8C31.9,0.5,28.5,0,25.2,0v1c3.3,0,6.6,0.6,9.8,1.7c6.7,2.4,12.1,7,15.3,12.9c3.2,5.9,3.8,12.4,1.6,18.3
		C48.6,43,39.6,49,28.8,49c-3.3,0-6.6-0.6-9.8-1.7c-6.7-2.4-12.1-7-15.3-12.9C0.6,28.5,0,22,2.1,16.1C5.4,6.9,14.4,1,25.2,1l0-1
		c0,0,0,0,0,0c-10.8,0-20.5,6-24,15.8c-4.6,12.8,3.3,27.4,17.5,32.5c3.4,1.2,6.8,1.8,10.1,1.8c10.8,0,20.5-6,24-15.8
		C57.4,21.4,49.6,6.8,35.3,1.8z"/>
	<path d="M16.9,38.6l2.4,1.5c0.3,0.2,0.6,0.3,1,0.3c0.6,0,1.1-0.3,1.5-0.8l12.7-18.1c1.4-0.4,2.6-1.3,3.4-2.6c0.8-1.4,1.1-3,0.7-4.5
		c-0.4-1.6-1.3-2.9-2.7-3.7c-1.4-0.8-3-1.1-4.5-0.7c-1.6,0.4-2.9,1.3-3.7,2.7c-0.8,1.3-1,2.7-0.8,4.2L16.3,36.2
		C15.8,37,16.1,38.1,16.9,38.6z M27.8,16.5c-0.1-0.7-0.1-1.3,0.1-1.9l8.1,5c-0.5,0.4-1.1,0.7-1.7,0.9L33.5,20L27.8,16.5z M28.5,13.1
		c0.7-1.1,1.8-1.9,3.1-2.2c1.3-0.3,2.6-0.1,3.8,0.6c1.1,0.7,1.9,1.8,2.2,3.1c0.3,1.3,0.1,2.6-0.6,3.8c-0.1,0.2-0.2,0.3-0.4,0.5
		l-8.4-5.2C28.3,13.4,28.4,13.3,28.5,13.1z M17.2,36.7l10.4-19.1l3.6,2.2l2.3,1.4L20.9,39c-0.3,0.4-0.7,0.5-1.1,0.2l-2.4-1.5
		C17.1,37.5,16.9,37,17.2,36.7z"/>
	<path d="M24.6,28.8c0.3,0.2,0.6,0.2,0.9,0.2c0.6,0,1.1-0.3,1.4-0.8l2.4-3.9c0.5-0.8,0.2-1.8-0.5-2.3c-0.8-0.5-1.8-0.2-2.3,0.5
		l-2.4,3.9c-0.2,0.4-0.3,0.8-0.2,1.3C24,28.2,24.2,28.6,24.6,28.8z M24.9,27.1l2.4-3.9c0.1-0.2,0.3-0.3,0.6-0.3c0.1,0,0.2,0,0.4,0.1
		c0.3,0.2,0.4,0.6,0.2,0.9l-2.4,3.9c-0.2,0.3-0.6,0.4-0.9,0.2c-0.2-0.1-0.3-0.2-0.3-0.4C24.8,27.4,24.8,27.2,24.9,27.1z"/>
</g>
</svg>
