<svg xmlns="http://www.w3.org/2000/svg" viewBox="0 0 54 50"><path d="M35.3 1.8C31.9.5 28.5 0 25.2 0 14.4 0 4.7 6 1.2 15.8c-4.6 12.8 3.3 27.4 17.5 32.5 3.4 1.2 6.8 1.8 10.1 1.8 6.52 0 12.63-2.2 17.22-6.09l.18-.15c.33-.29.65-.58.96-.89.09-.09.19-.17.28-.25.01-.01.02-.03.02-.04 2.33-2.33 4.18-5.14 5.33-8.39 4.6-12.9-3.2-27.5-17.5-32.5zm9.18 42.12l-6.81-7.3c-.46-.5-.44-1.27.04-1.73l.02-.02c.23-.21.52-.33.83-.33.34 0 .66.14.89.4l6.9 7.38c-.59.56-1.22 1.1-1.87 1.6zM51.9 33.9a21.791 21.791 0 01-4.83 7.72l-6.88-7.36c-.68-.75-1.87-.89-2.74-.4l-3.43-3.67c.96-1.06 1.51-2.4 1.56-3.84.05-1.61-.52-3.15-1.62-4.32l-2.62-2.8c.99-1.86 1.13-3.5.37-4.68-.87-1.33-2.75-1.85-5.29-1.45-2.41.37-5.18 1.51-7.79 3.22-5.6 3.65-8.63 8.6-6.9 11.26.69 1.07 2.03 1.58 3.75 1.58 1.93 0 4.34-.66 6.85-1.91l2.82 3.02a5.956 5.956 0 004.2 1.91h.21c1.36 0 2.65-.48 3.71-1.32l3.44 3.69c-.56.83-.5 1.98.22 2.77l6.72 7.2c-4.1 2.85-9.23 4.49-14.86 4.49-3.3 0-6.6-.6-9.8-1.7C5.3 42.4-2.3 28.4 2.1 16.1 5.4 6.9 14.4 1 25.2 1c3.3 0 6.6.6 9.8 1.7 6.7 2.4 12.1 7 15.3 12.9 3.2 5.9 3.8 12.4 1.6 18.3zm-30.29-7.44c-4.08 1.97-7.9 2.3-9.04.56-1.38-2.12 1.64-6.64 6.6-9.87 2.5-1.63 5.12-2.72 7.4-3.07.5-.08.97-.12 1.4-.12 1.39 0 2.42.39 2.9 1.13.51.78.4 1.97-.26 3.35l-2.89-3.09-.73.68 3.11 3.33s-.03.05-.05.08c-.72 1.13-1.74 2.28-2.95 3.36l-3.43-3.67-.73.68 3.4 3.64A23.682 23.682 0 0122.52 26l-2.89-3.1-.73.68 2.7 2.89zm3.21-.66c.79-.51 1.53-1.06 2.22-1.63l5.56 5.95c-.92.7-2.04 1.08-3.21 1.05a5.042 5.042 0 01-3.51-1.59l-2.64-2.83c.53-.29 1.05-.6 1.58-.94zm2.98-2.28c1.22-1.09 2.25-2.25 3.01-3.41l2.42 2.59c.92.98 1.4 2.26 1.35 3.61-.04 1.17-.5 2.26-1.26 3.13l-5.53-5.91z"/></svg>