<svg xmlns="http://www.w3.org/2000/svg" viewBox="0 0 54 50"><path d="M35.3 1.8C31.9.5 28.5 0 25.2 0v1c3.3 0 6.6.6 9.8 1.7 6.7 2.4 12.1 7 15.3 12.9 3.2 5.9 3.8 12.4 1.6 18.3C48.6 43 39.6 49 28.8 49c-3.3 0-6.6-.6-9.8-1.7C5.3 42.4-2.3 28.4 2.1 16.1 5.4 6.9 14.4 1 25.2 1V0C14.4 0 4.7 6 1.2 15.8c-4.6 12.8 3.3 27.4 17.5 32.5 3.4 1.2 6.8 1.8 10.1 1.8 10.8 0 20.5-6 24-15.8 4.6-12.9-3.2-27.5-17.5-32.5z"/><path d="M34.84 33.85c-.35-.25-.77-.36-1.19-.29-.25.04-.48.14-.68.29l-3.68-2.7.72-.98c.59-.81.42-1.96-.4-2.55l-1.4-1.02c-.42-.31-.93-.41-1.41-.32v-.06c-.07-.48-.33-.91-.73-1.19l-1.4-1.02c-.39-.29-.88-.41-1.36-.33-.02 0-.04.01-.05.01-.06-.48-.31-.94-.73-1.25l-1.4-1.02c-.42-.31-.93-.41-1.41-.32-.06-.48-.31-.94-.73-1.25l-1.4-1.02a1.83 1.83 0 00-2.55.39l-.72.98-4.31-3.16a.498.498 0 00-.7.11c-.16.22-.11.54.11.7l4.31 3.16-.72.98c-.6.81-.42 1.96.39 2.55l1.4 1.02c.32.23.69.35 1.08.35.09 0 .19 0 .28-.02.02 0 .04-.01.05-.01.06.48.31.94.73 1.25l1.4 1.02c.32.24.7.35 1.08.35.11 0 .22-.02.33-.04v.06c.07.48.33.91.73 1.19l1.4 1.02c.32.23.69.35 1.08.35.09 0 .19 0 .28-.02.02 0 .04-.01.05-.01.06.48.31.94.73 1.25l1.4 1.02c.32.23.69.35 1.07.35.09 0 .19 0 .28-.02.48-.08.91-.33 1.19-.73l.72-.98 3.69 2.7c-.08.24-.1.49-.07.74.07.42.29.8.64 1.05.28.2.61.31.94.31.08 0 .17 0 .25-.02.42-.07.8-.29 1.05-.64.52-.71.37-1.72-.35-2.24zm-18.82-8.94a.817.817 0 01-.61-.15l-1.4-1.02a.82.82 0 01-.18-1.15l1.01-1.39 1.01-1.39c.16-.22.41-.34.67-.34.17 0 .34.05.49.16l1.4 1.02c.37.27.45.79.18 1.15l-2.03 2.77c-.13.18-.32.29-.54.33zm2.92 2.44l-1.4-1.02a.83.83 0 01-.18-1.16l2.03-2.77c.16-.22.41-.34.67-.34.17 0 .34.05.49.16l1.4 1.02c.37.27.45.79.18 1.16l-2.03 2.77a.83.83 0 01-1.16.18zm4.15 2.74a.817.817 0 01-.61-.15l-1.4-1.02a.834.834 0 01-.33-.54c-.03-.22.02-.44.15-.62l2.03-2.77c.13-.18.32-.29.54-.33.04 0 .09-.01.13-.01.17 0 .34.06.49.16l1.4 1.02c.18.13.29.32.33.54s-.02.44-.15.61l-2.03 2.77c-.13.18-.32.29-.54.33zm4.08 2.26a.82.82 0 01-1.15.18l-1.4-1.02a.83.83 0 01-.18-1.16l2.03-2.77c.16-.22.41-.34.67-.34.17 0 .34.05.49.16l1.4 1.02c.37.27.45.79.18 1.15l-2.03 2.77zm7.21 3.16c-.1.13-.24.21-.39.24a.602.602 0 01-.45-.11.648.648 0 01-.24-.39c-.03-.16.01-.32.11-.45s.24-.21.39-.24h.09a.6.6 0 01.36.12c.13.1.21.24.24.39.03.16-.01.32-.11.45zm10.45-4.17a1.59 1.59 0 00-2.51-1.05l-3.69-2.7.72-.98c.59-.81.42-1.96-.4-2.55l-1.4-1.02c-.42-.31-.93-.41-1.41-.32v-.06c-.07-.48-.33-.91-.73-1.19l-1.4-1.02c-.42-.31-.93-.41-1.41-.32-.06-.48-.31-.94-.73-1.25l-1.4-1.02c-.39-.29-.87-.4-1.36-.33-.02 0-.04.01-.05.01-.06-.48-.31-.94-.73-1.25l-1.4-1.02a1.83 1.83 0 00-2.55.39l-.72.98-4.31-3.16a.507.507 0 00-.7.11c-.16.22-.11.54.11.7l4.31 3.16-.72.98c-.29.39-.41.88-.33 1.36s.33.91.73 1.19l1.4 1.02c.32.23.69.35 1.08.35.09 0 .19 0 .28-.02.02 0 .04-.01.05-.01.06.48.31.94.73 1.25l1.4 1.02c.32.24.7.35 1.08.35.11 0 .22-.02.33-.04v.06c.07.48.33.91.73 1.2l1.4 1.02c.32.24.7.35 1.08.35.11 0 .23-.02.34-.04.06.48.31.94.73 1.25l1.4 1.02c.32.24.7.35 1.08.35.56 0 1.12-.26 1.48-.75l.72-.98 3.69 2.7c-.21.64 0 1.37.57 1.79.29.21.62.31.95.31.49 0 .98-.23 1.29-.66.25-.35.36-.77.29-1.19zm-19.47-9.99a.817.817 0 01-.61-.15l-1.4-1.02c-.18-.13-.29-.32-.33-.54s.02-.44.15-.61l2.03-2.77c.16-.22.41-.34.67-.34.17 0 .34.05.49.16l1.4 1.02c.37.27.45.79.18 1.15l-2.03 2.77c-.13.18-.32.29-.54.33zm2.92 2.44l-1.4-1.02a.83.83 0 01-.18-1.16l2.03-2.77c.13-.18.32-.29.54-.33h.13c.17 0 .34.06.49.16l1.4 1.02c.37.27.45.79.18 1.15l-2.03 2.77a.83.83 0 01-1.16.18zm3.54 2.59l-1.4-1.02a.817.817 0 01-.18-1.15l2.03-2.77c.16-.22.41-.34.67-.34.17 0 .34.05.49.16l1.4 1.02a.817.817 0 01.18 1.15l-2.03 2.77a.82.82 0 01-1.15.18zm4.69 2.41a.82.82 0 01-1.15.18l-1.4-1.02a.82.82 0 01-.18-1.15l2.03-2.77c.16-.22.41-.34.67-.34.17 0 .34.05.49.16l1.4 1.02c.37.27.45.79.18 1.15l-2.03 2.77zm7.22 3.15c-.2.27-.58.32-.84.13a.597.597 0 01-.13-.84c.12-.16.3-.25.49-.25.12 0 .25.04.36.12.13.1.21.24.24.39.03.16-.01.32-.11.45z"/></svg>