<svg xmlns="http://www.w3.org/2000/svg" viewBox="0 0 54 50"><path d="M35.3 1.8C31.9.5 28.5 0 25.2 0v1c3.3 0 6.6.6 9.8 1.7 6.7 2.4 12.1 7 15.3 12.9s3.8 12.4 1.6 18.3C48.6 43 39.6 49 28.8 49c-3.3 0-6.6-.6-9.8-1.7C5.3 42.4-2.3 28.4 2.1 16.1 5.4 6.9 14.4 1 25.2 1V0C14.4 0 4.7 6 1.2 15.8c-4.6 12.8 3.3 27.4 17.5 32.5 3.4 1.2 6.8 1.8 10.1 1.8 10.8 0 20.5-6 24-15.8 4.6-12.9-3.2-27.5-17.5-32.5z"/><path d="M42.7 18c-.2-.6-.7-1-1.3-1-.6-.1-1.2.2-1.6.7L35 24.3h-2.9c-.1-2.2-1.1-3.3-2-4.3-1-1-1.9-2-1.9-4h-1c0 2.4 1.1 3.6 2.1 4.7.9.9 1.7 1.9 1.8 3.5h-3.7c-.1-2-1.2-3.2-2.1-4.2-1-1-1.9-2-1.9-4h-1c0 2.4 1.1 3.6 2.1 4.7.9.9 1.7 1.9 1.8 3.5h-3.7c-.1-2-1.2-3.2-2.1-4.2-1-1-1.9-2-1.9-4h-1c0 2.4 1.1 3.6 2.1 4.7.9.9 1.7 1.9 1.8 3.5h-8c-.3 0-.5.2-.5.5 0 3.8 3.4 7.2 8.6 8.6v2.5c0 .3.2.5.5.5h9.5c.3 0 .5-.2.5-.5v-2.5c5.1-1.4 8.6-4.9 8.6-8.6 0-.3-.2-.5-.5-.5h-4l4.4-6c.1-.2.4-.3.6-.3.2 0 .4.2.5.4l.5 1.4.9-.4-.4-1.3zM31.2 35.3h-8.5v-1.7h.2l1.8.3h.2c.7.1 1.3.1 2 .1s1.3 0 2-.1h.2l1.8-.3h.2v1.7zm.4-2.9c-2.2.6-4.6.7-7 .4-.4 0-.8-.1-1.1-.2-.4-.1-.7-.2-1.1-.2-4.7-1.2-7.9-4.1-8.2-7.3h25.6c-.3 3.3-3.5 6.1-8.2 7.3z"/></svg>