<svg xmlns="http://www.w3.org/2000/svg" viewBox="0 0 54 50"><path d="M35.3 1.8C31.9.5 28.5 0 25.2 0v1c3.3 0 6.6.6 9.8 1.7 6.7 2.4 12.1 7 15.3 12.9s3.8 12.4 1.6 18.3C48.6 43 39.6 49 28.8 49c-3.3 0-6.6-.6-9.8-1.7C5.3 42.4-2.3 28.4 2.1 16.1 5.4 6.9 14.4 1 25.2 1V0C14.4 0 4.7 6 1.2 15.8c-4.6 12.8 3.3 27.4 17.5 32.5 3.4 1.2 6.8 1.8 10.1 1.8 10.8 0 20.5-6 24-15.8 4.6-12.9-3.2-27.5-17.5-32.5z"/><path d="M38.1 28.5c.7-.7 1-1.5 1-2.4 0-1.1-.6-2.2-1.7-2.9-2.1-1.6-2.7-3.5-2.7-3.5-.1-.4-.8-.4-.9 0 0 0-.6 1.8-2.5 3.4v-1l.9-.9c.2-.2.2-.4 0-.6l-.9-1.2c.8-.8 1.3-1.8 1.3-2.9 0-1.3-.7-2.6-2-3.5-2.6-1.9-3.2-4.2-3.2-4.2-.1-.2-.2-.3-.4-.3s-.4.1-.4.3c0 0-.7 2.3-3.2 4.2-1.3.9-2 2.1-2 3.5 0 1.1.5 2 1.3 2.9l-.9 1.2c-.1.2-.1.4 0 .6l.9.9v1c-2-1.6-2.5-3.4-2.5-3.4-.1-.2-.2-.3-.4-.3s-.4.1-.4.3c0 0-.6 1.9-2.7 3.5-1.1.7-1.7 1.8-1.7 3 0 .9.4 1.7 1 2.4l-.7 1c-.1.2-.1.4 0 .6l.7.7v5.9c0 .3.2.5.5.5h21.2c.2 0 .5-.2.5-.5v-5.9l.7-.7c.2-.2.2-.4 0-.6l-.8-1.1zm-6.7 1.7l-.5-.6.6-.8h5.9l.6.8-.5.6h-6.1zm2.9-9.3c.4.8 1.2 1.9 2.6 3 .8.6 1.3 1.4 1.3 2.2 0 .7-.3 1.4-.9 1.9h-6l-.1-.1c-.5-.5-.8-1.1-.8-1.8 0-.6.3-1.2.8-1.8l.5-.5c1.4-.9 2.2-2.1 2.6-2.9zm-11.6-.1l.8-1h7.1l.8 1-.7.7h-7.2l-.8-.7zm1.2-7c1.7-1.3 2.7-2.7 3.1-3.7.5.9 1.4 2.4 3.1 3.7 1 .7 1.6 1.7 1.6 2.7 0 .9-.4 1.7-1.1 2.4h-7.2c-.7-.7-1.1-1.5-1.1-2.4 0-1 .6-2 1.6-2.7zm-6.8 10.1c1.4-1 2.1-2.2 2.6-3 .4.8 1.2 1.9 2.6 3 .2.1.4.3.5.4.5.5.8 1.1.8 1.8 0 .6-.3 1.3-.8 1.8l-.1.1h-6c-.6-.5-.9-1.2-.9-1.9 0-.8.5-1.6 1.3-2.2zm-.9 5.8l.6-.8h5.9l.6.8-.5.6h-5.9l-.7-.6zm.7 1.4h5.6v5h-5.6v-5zm6.5-.3l.7-.7c.2-.2.2-.4 0-.6l-.6-.8v-.3c.1-.1.1-.2.2-.2l.2-.2c.1-.1.1-.2.2-.3 0-.1.1-.2.1-.2.1-.1.1-.3.1-.4s0-.1.1-.2c0-.2.1-.4.1-.6s0-.4-.1-.6c0-.1 0-.1-.1-.2 0-.1-.1-.3-.1-.4s-.1-.2-.1-.2c-.1-.1-.1-.2-.2-.3 0-.1-.1-.2-.2-.2-.1-.1-.1-.2-.2-.2v-1.4h6.9v1.4c-.1.1-.1.2-.2.2-.1.1-.1.2-.2.2-.1.1-.1.2-.2.3 0 .1-.1.2-.1.2-.1.1-.1.3-.1.4s0 .1-.1.2c0 .2-.1.4-.1.6s0 .4.1.6c0 .1 0 .1.1.2 0 .1.1.3.1.4s.1.2.1.3c.1.1.1.2.2.3.1.1.1.2.2.2l.2.2v.3l-.6.8c-.1.2-.1.4 0 .6l.7.7v5.4h-7.3v-5.5h.2zm13.7 5.4h-5.6v-5h5.6v5z"/></svg>