<?xml version="1.0" encoding="utf-8"?>
<!-- Generator: Adobe Illustrator 27.1.1, SVG Export Plug-In . SVG Version: 6.00 Build 0)  -->
<svg version="1.1" id="Layer_1" xmlns="http://www.w3.org/2000/svg" xmlns:xlink="http://www.w3.org/1999/xlink" x="0px" y="0px"
	 viewBox="0 0 36 34" style="enable-background:new 0 0 36 34;" xml:space="preserve">
<g>
	<path d="M23.5,1.7C14.1-1.7,4,2.5,1,10.9C-2,19.4,3.1,29,12.5,32.3c2.2,0.8,4.4,1.2,6.7,1.2c2.4,0,4.8-0.5,6.9-1.4
		c4.3-1.7,7.4-5,8.9-9.1C38,14.6,32.9,5,23.5,1.7z M34.1,22.7c-1.4,3.8-4.3,6.8-8.3,8.5c-4,1.6-8.6,1.7-12.9,0.2
		C4,28.2-0.9,19.2,1.9,11.3c2.2-6.1,8.2-9.8,14.9-9.8c2.1,0,4.2,0.4,6.3,1.1C32,5.8,36.9,14.8,34.1,22.7z"/>
	<path d="M25.8,14.9L25.8,14.9l-0.1-2c0-0.8-0.7-1.5-1.5-1.5h-0.7l-1.8-3.7l-7.6,3.7h-2c-0.8,0-1.5,0.7-1.5,1.5v10
		c0,0.8,0.7,1.5,1.5,1.5h12.1c0.8,0,1.5-0.7,1.5-1.5v-2h0.1c0.8,0,1.5-0.7,1.5-1.5v-3.1C27.2,15.5,26.6,14.9,25.8,14.9z M21.2,9
		l1.1,2.3h-5.9L21.2,9z M24.7,22.9c0,0.3-0.2,0.5-0.5,0.5H12.1c-0.3,0-0.5-0.2-0.5-0.5v-10c0-0.3,0.2-0.5,0.5-0.5H24h0.2
		c0.3,0,0.5,0.2,0.5,0.5v2h-6.4c-0.8,0-1.5,0.7-1.5,1.5v3.1c0,0.8,0.7,1.5,1.5,1.5h6.4V22.9z M26.2,19.4c0,0.3-0.2,0.5-0.5,0.5h-0.1
		h-7.4c-0.3,0-0.5-0.2-0.5-0.5v-3.1c0-0.3,0.2-0.5,0.5-0.5h7.4h0.1c0.3,0,0.5,0.2,0.5,0.5V19.4z"/>
	<path d="M19.7,17.1c-0.4,0-0.8,0.4-0.8,0.8c0,0.4,0.4,0.8,0.8,0.8c0.4,0,0.8-0.4,0.8-0.8C20.5,17.4,20.2,17.1,19.7,17.1z"/>
</g>
</svg>
