<svg xmlns="http://www.w3.org/2000/svg" viewBox="0 0 54 50"><path d="M35.3 1.8C31.9.5 28.5 0 25.2 0v1c3.3 0 6.6.6 9.8 1.7 6.7 2.4 12.1 7 15.3 12.9 3.2 5.9 3.8 12.4 1.6 18.3C48.6 43 39.6 49 28.8 49c-3.3 0-6.6-.6-9.8-1.7C5.3 42.4-2.3 28.4 2.1 16.1 5.4 6.9 14.4 1 25.2 1V0C14.4 0 4.7 6 1.2 15.8c-4.6 12.8 3.3 27.4 17.5 32.5 3.4 1.2 6.8 1.8 10.1 1.8 10.8 0 20.5-6 24-15.8 4.6-12.9-3.2-27.5-17.5-32.5z"/><path d="M30.71 29.16a2.26 2.26 0 00-1.6-.99c.13-.29.2-.6.2-.94 0-1.27-1.04-2.31-2.31-2.31s-2.31 1.04-2.31 2.31c0 .34.08.65.2.94-.66.09-1.23.44-1.6.99-2.71.66-4.32 1.94-4.32 3.45 0 2.17 3.52 3.88 8.02 3.88s8.02-1.7 8.02-3.88c0-1.51-1.61-2.79-4.31-3.45zm-.74.68c.1.18.15.38.15.59 0 .72-.59 1.31-1.31 1.31s-1.32-.59-1.32-1.31c0-.32.11-.62.35-.87.22-.27.58-.44.97-.44.48 0 .92.27 1.16.71zM27 25.92c.72 0 1.31.59 1.31 1.31s-.59 1.31-1.31 1.31-1.31-.59-1.31-1.31.59-1.31 1.31-1.31zm-1.81 3.21c.38 0 .73.16.98.47.21.22.32.51.32.84 0 .72-.59 1.31-1.31 1.31s-1.31-.59-1.31-1.31c0-.21.05-.42.16-.6.23-.43.67-.7 1.15-.7zM27 35.49c-4.14 0-7.02-1.52-7.02-2.88 0-.87 1.14-1.75 2.91-2.31v.13c0 1.27 1.03 2.31 2.31 2.31.17 0 .34-.02.5-.06.05-.01.1-.03.16-.05.1-.03.21-.07.31-.11.06-.03.11-.06.17-.09.09-.05.17-.1.25-.16l.15-.12c.07-.06.14-.13.2-.21.03-.03.06-.05.08-.08.02.03.05.05.08.08.06.07.13.14.21.21l.15.12c.08.06.16.11.25.16.06.03.11.06.17.09.1.05.2.08.31.11.05.02.1.04.16.05.16.04.33.06.5.06 1.27 0 2.31-1.03 2.31-2.31v-.13c1.77.55 2.9 1.43 2.9 2.31 0 1.36-2.88 2.88-7.02 2.88zm-1.09-14.34c0-1.18-1.03-2.24-2.78-2.96a.5.5 0 00.2-.66l-1.92-3.75a.508.508 0 00-.29-.25.5.5 0 00-.38.03l-3.75 1.93c-.12.06-.21.17-.25.29a.5.5 0 00.03.38l.52 1-2.19-.94c-.25-.11-.55 0-.66.26l-.55 1.28c-2.52.69-4.02 1.94-4.02 3.38 0 2.17 3.52 3.88 8.02 3.88s8.02-1.7 8.02-3.88zm-5.16-6.46l1.46 2.86-2.85 1.46-.51-.98-.04-.07-.21-.41-.71-1.38 2.86-1.47zm-5.59 2.66l2.07.89h.01l.76.33.06.12-1.23 2.87-2.95-1.27 1.27-2.94zm2.73 6.67c-4.14 0-7.02-1.52-7.02-2.88 0-.8.95-1.61 2.5-2.17l-.59 1.38a.5.5 0 00.27.65l3.87 1.67c.06.03.13.04.19.04s.13-.01.19-.04a.51.51 0 00.27-.27l1.1-2.58.04.07c.04.08.1.13.17.18l.06.03c.06.03.12.04.18.05.01 0 .02.01.04.01h.02c.07 0 .14-.02.21-.05l2.55-1.3c1.82.55 2.99 1.45 2.99 2.33 0 1.36-2.88 2.88-7.02 2.88zm22.56-6.14l.71-3.17a.49.49 0 00-.22-.53.497.497 0 00-.57.02l-4.09 3.08h-.18c-4.5 0-8.02 1.7-8.02 3.88s3.52 3.88 8.02 3.88 8.02-1.7 8.02-3.88c0-1.37-1.37-2.57-3.68-3.27zm-1.07.22v.02l-.86 3.84-4.2-1.94 5.58-4.2-.51 2.28zm-3.27 5.92c-4.14 0-7.02-1.52-7.02-2.88 0-1.22 2.33-2.57 5.81-2.83l-1.85 1.4c-.14.11-.21.28-.2.45s.13.33.29.4l5.52 2.55c.07.03.14.05.21.05.07 0 .15-.02.22-.05.13-.07.23-.19.27-.34l.88-3.93c1.78.55 2.9 1.43 2.9 2.3 0 1.36-2.88 2.88-7.02 2.88z"/></svg>