<svg xmlns="http://www.w3.org/2000/svg" viewBox="0 0 36 34"><path d="M24.1 11.1H11.9c-1 0-1.9.9-1.9 1.9v8c0 1.1.9 1.9 1.9 1.9H24c1.1 0 1.9-.9 1.9-1.9v-8c0-.3-.1-.5-.2-.8-.1-.6-.8-1.1-1.6-1.1zM11 13c0-.5.4-.9.9-.9h7.2l-6.2 6.2.7.7 6.9-6.9h1.2l-3.4 3.4.7.7 4.1-4.1h.9c.5 0 .9.4.9.9v6.2c0 .5-.4.9-.9.9H11.9c-.5 0-.9-.4-.9-.9V13zm13.1 8.9H11.9c-.5 0-.9-.4-.9-.9v-.1c.3.2.6.2.9.2H24c.3 0 .7-.1.9-.2v.1c.1.5-.3.9-.8.9z"/><path d="M33.9 10.4c-2.2-4-5.9-7.1-10.4-8.8C14.1-1.7 4 2.5 1 10.9-2 19.4 3.1 29 12.5 32.3c2.2.8 4.4 1.2 6.7 1.2 2.4 0 4.8-.5 7-1.4 4.3-1.7 7.4-5 8.9-9.1 1.4-4 1-8.5-1.2-12.6zm.2 12.3c-1.4 3.8-4.3 6.8-8.3 8.5-4 1.6-8.6 1.7-12.9.2C4 28.2-.9 19.2 1.9 11.3c2.2-6.1 8.2-9.8 14.9-9.8 2.1 0 4.2.4 6.3 1.1 4.3 1.5 7.8 4.5 9.9 8.3 2.1 3.8 2.4 8 1.1 11.8z"/></svg>