<?xml version="1.0" encoding="utf-8"?>
<!-- Generator: Adobe Illustrator 27.1.1, SVG Export Plug-In . SVG Version: 6.00 Build 0)  -->
<svg version="1.1" id="Layer_1" xmlns="http://www.w3.org/2000/svg" xmlns:xlink="http://www.w3.org/1999/xlink" x="0px" y="0px"
	 viewBox="0 0 36 34" style="enable-background:new 0 0 36 34;" xml:space="preserve">
<g>
	<path d="M33.9,10.4c-2.2-4-5.9-7.1-10.4-8.8C19,0,14.1,0.1,9.9,1.8c-4.3,1.7-7.4,5-8.9,9.1C-2,19.4,3.1,29,12.5,32.3
		c2.2,0.8,4.4,1.2,6.7,1.2c2.4,0,4.8-0.5,7-1.4c4.3-1.7,7.4-5,8.9-9.1C36.5,19,36.1,14.5,33.9,10.4z M34.1,22.7
		c-1.4,3.8-4.3,6.8-8.3,8.5c-4,1.6-8.6,1.7-12.9,0.2C4,28.2-0.9,19.2,1.9,11.3c1.4-3.8,4.3-6.8,8.3-8.5c2.1-0.9,4.3-1.3,6.6-1.3
		c2.1,0,4.2,0.4,6.3,1.1c4.3,1.5,7.8,4.5,9.9,8.3C35.1,14.7,35.4,18.9,34.1,22.7z"/>
	<path d="M18.1,7.1h-0.2c-4.1,0-5.2,1.1-5.2,5.2v5.6c0,3.9,1.1,5.1,4.8,5.2v0.4c-1.7,0.1-4.1,0.5-4.1,1.7c0,1.3,2.9,1.7,4.6,1.7
		s4.6-0.4,4.6-1.7c0-1.2-2.4-1.6-4.1-1.7v-0.4c3.8-0.1,4.8-1.3,4.8-5.2v-5.6C23.3,8.2,22.2,7.1,18.1,7.1z M21.6,25.2
		c-0.2,0.2-1.4,0.7-3.6,0.7c-2.3,0-3.5-0.5-3.6-0.7c0.1-0.2,1.2-0.7,3.1-0.7v0.7h1v-0.7C20.3,24.6,21.3,25,21.6,25.2z M18.1,22.1
		h-0.2c-3.4,0-4.2-0.6-4.2-3.9h2.8v-1h-2.8v-1.6h2.8v-1h-2.8V13h2.8v-1h-2.8c0-3.3,0.8-3.9,4.2-3.9h0.2c3.4,0,4.2,0.6,4.2,3.9h-2.8
		v1h2.8v1.6h-2.8v1h2.8v1.6h-2.8v1h2.8C22.3,21.5,21.5,22.1,18.1,22.1z"/>
</g>
</svg>
