<?xml version="1.0" encoding="utf-8"?>
<!-- Generator: Adobe Illustrator 27.1.1, SVG Export Plug-In . SVG Version: 6.00 Build 0)  -->
<svg version="1.1" id="Layer_1" xmlns="http://www.w3.org/2000/svg" xmlns:xlink="http://www.w3.org/1999/xlink" x="0px" y="0px"
	 viewBox="0 0 36 34" style="enable-background:new 0 0 36 34;" xml:space="preserve">
<g>
	<path d="M23.5,1.7C14.1-1.7,4,2.5,1,10.9C-2,19.4,3.1,29,12.5,32.3c2.2,0.8,4.4,1.2,6.7,1.2c2.4,0,4.8-0.5,6.9-1.4
		c4.3-1.7,7.4-5,8.9-9.1C38,14.6,32.9,5,23.5,1.7z M34.1,22.7c-1.4,3.8-4.3,6.8-8.3,8.5c-4,1.6-8.6,1.7-12.9,0.2
		C4,28.2-0.9,19.2,1.9,11.3c2.2-6.1,8.2-9.8,14.9-9.8c2.1,0,4.2,0.4,6.3,1.1C32,5.8,36.9,14.8,34.1,22.7z"/>
	<path d="M23.1,11.1c0-1.1-1-2.2-2.2-2.3c-0.7-0.1-1.3,0.1-1.9,0.6c-0.5,0.4-0.8,1-1.1,1.6c-0.2-0.6-0.6-1.2-1.1-1.6
		c-0.5-0.4-1.2-0.7-1.9-0.6c-1.2,0.1-2.2,1.2-2.2,2.3c0,0.4,0.2,1,0.8,1.5h-3.1v3.2h0.8v9.4h4h1h3.2h1h4v-9.4h0.8v-3.2h-3.1
		C23,12.1,23.1,11.5,23.1,11.1z M19,11.3c0.6-1.3,1.3-1.5,1.7-1.5c0.1,0,0.1,0,0.2,0c0.7,0.1,1.3,0.7,1.3,1.3c0,0.7-1,1.4-3.5,1.5
		C18.6,12.2,18.8,11.7,19,11.3z M15.1,9.8c0,0,0.1,0,0.2,0c0.4,0,1.2,0.2,1.7,1.5c0.2,0.5,0.3,0.9,0.4,1.3c-2.6-0.1-3.5-0.8-3.5-1.5
		C13.9,10.5,14.5,9.9,15.1,9.8z M11.6,13.6h3.8v1.2h-3.8V13.6z M15.4,24.2h-3v-8.4h3V24.2z M19.6,24.2h-3.2v-8.4v-1v-1.2h1.1H18h0.5
		h1.1v1.2v1V24.2z M23.6,24.2h-3v-8.4h3V24.2z M24.4,14.8h-3.8v-1.2h3.8V14.8z"/>
</g>
</svg>
