<?xml version="1.0" encoding="utf-8"?>
<!-- Generator: Adobe Illustrator 27.1.1, SVG Export Plug-In . SVG Version: 6.00 Build 0)  -->
<svg version="1.1" id="Layer_1" xmlns="http://www.w3.org/2000/svg" xmlns:xlink="http://www.w3.org/1999/xlink" x="0px" y="0px"
	 viewBox="0 0 36 34" style="enable-background:new 0 0 36 34;" xml:space="preserve">
<g>
	<path d="M23.5,1.7C19,0,14.1,0.1,9.9,1.9c-4.3,1.7-7.4,5-8.9,9.1c-1.5,4.1-1.1,8.6,1.1,12.6c2.2,4,5.9,7.1,10.4,8.8
		c0.2,0.1,0.4,0.1,0.5,0.2c2,0.7,4.1,1,6.1,1c1.3,0,2.7-0.1,4-0.4c5.6-1.2,10.1-5,11.9-10C38,14.6,32.9,5,23.5,1.7z M34.1,22.7
		c-1.7,4.7-5.9,8.2-11.1,9.3c-3.1,0.7-6.4,0.5-9.6-0.5c-0.2,0-0.3-0.1-0.5-0.2c-4.3-1.5-7.8-4.5-9.9-8.3c-2.1-3.8-2.4-8-1.1-11.8
		c1.4-3.8,4.3-6.8,8.3-8.5c2.1-0.9,4.3-1.3,6.6-1.3c2.1,0,4.2,0.4,6.3,1.1C32,5.8,36.9,14.8,34.1,22.7z"/>
	<path d="M27.5,17.2c-0.1-1.2-0.9-4.2-3.3-6.1c-1.9-1.5-4.3-2-7-1.5c-4.6,0.9-5.7,4.6-6,5.9C9.4,15.6,8,17.2,8,19
		c0,2,1.6,3.7,3.7,3.7h10.5c1.4,0,2.5-0.8,3.2-1.9c0.4,0.5,1.1,0.9,1.8,0.9c1.3,0,2.3-1,2.3-2.3C29.4,18.3,28.6,17.4,27.5,17.2z
		 M17.4,10.5c2.5-0.5,4.6,0,6.2,1.3c2.1,1.7,2.9,4.3,2.9,5.4c-0.4,0.1-0.8,0.3-1,0.6c-0.5-1.4-1.8-2.3-3.4-2.3h-9.8
		C12.6,14.1,13.6,11.2,17.4,10.5z M22.1,21.7H11.7C10.2,21.7,9,20.5,9,19s1.2-2.7,2.7-2.7h10.5c1.5,0,2.7,1.2,2.7,2.7
		S23.6,21.7,22.1,21.7z M27.1,20.7c-0.7,0-1.3-0.6-1.3-1.3s0.6-1.3,1.3-1.3s1.3,0.6,1.3,1.3S27.8,20.7,27.1,20.7z"/>
</g>
</svg>
