<?xml version="1.0" encoding="utf-8"?>
<!-- Generator: Adobe Illustrator 27.1.1, SVG Export Plug-In . SVG Version: 6.00 Build 0)  -->
<svg version="1.1" id="Layer_1" xmlns="http://www.w3.org/2000/svg" xmlns:xlink="http://www.w3.org/1999/xlink" x="0px" y="0px"
	 viewBox="0 0 54 50" style="enable-background:new 0 0 54 50;" xml:space="preserve">
<path d="M35.3,1.8C31.9,0.5,28.5,0,25.2,0v1c3.3,0,6.6,0.6,9.8,1.7c6.7,2.4,12.1,7,15.3,12.9s3.8,12.4,1.6,18.3
	C48.6,43,39.6,49,28.8,49c-3.3,0-6.6-0.6-9.8-1.7C5.3,42.4-2.3,28.4,2.1,16.1C5.4,6.9,14.4,1,25.2,1V0C14.4,0,4.7,6,1.2,15.8
	c-4.6,12.8,3.3,27.4,17.5,32.5c3.4,1.2,6.8,1.8,10.1,1.8c10.8,0,20.5-6,24-15.8C57.4,21.4,49.6,6.8,35.3,1.8z"/>
<path d="M38.1,28.5c0.7-0.7,1-1.5,1-2.4c0-1.1-0.6-2.2-1.7-2.9c-2.1-1.6-2.7-3.5-2.7-3.5c-0.1-0.4-0.8-0.4-0.9,0
	c0,0-0.6,1.8-2.5,3.4v-1l0.9-0.9c0.2-0.2,0.2-0.4,0-0.6l-0.9-1.2c0.8-0.8,1.3-1.8,1.3-2.9c0-1.3-0.7-2.6-2-3.5
	c-2.6-1.9-3.2-4.2-3.2-4.2c-0.1-0.2-0.2-0.3-0.4-0.3c-0.2,0-0.4,0.1-0.4,0.3c0,0-0.7,2.3-3.2,4.2c-1.3,0.9-2,2.1-2,3.5
	c0,1.1,0.5,2,1.3,2.9l-0.9,1.2c-0.1,0.2-0.1,0.4,0,0.6l0.9,0.9v1c-2-1.6-2.5-3.4-2.5-3.4c-0.1-0.2-0.2-0.3-0.4-0.3l0,0
	c-0.2,0-0.4,0.1-0.4,0.3c0,0-0.6,1.9-2.7,3.5c-1.1,0.7-1.7,1.8-1.7,3c0,0.9,0.4,1.7,1,2.4l-0.7,1c-0.1,0.2-0.1,0.4,0,0.6l0.7,0.7
	v5.9c0,0.3,0.2,0.5,0.5,0.5H23h8.2h6.5c0.2,0,0.5-0.2,0.5-0.5v-5.9l0.7-0.7c0.2-0.2,0.2-0.4,0-0.6L38.1,28.5z M31.4,30.2l-0.5-0.6
	l0.6-0.8h5.9l0.6,0.8l-0.5,0.6H31.4z M34.3,20.9c0.4,0.8,1.2,1.9,2.6,3c0.8,0.6,1.3,1.4,1.3,2.2c0,0.7-0.3,1.4-0.9,1.9h-6l-0.1-0.1
	c-0.5-0.5-0.8-1.1-0.8-1.8c0-0.6,0.3-1.2,0.8-1.8c0.2-0.2,0.3-0.3,0.5-0.5C33.1,22.9,33.9,21.7,34.3,20.9z M22.7,20.8l0.8-1h7.1
	l0.8,1l-0.7,0.7h-7.2L22.7,20.8z M23.9,13.8c1.7-1.3,2.7-2.7,3.1-3.7c0.5,0.9,1.4,2.4,3.1,3.7c1,0.7,1.6,1.7,1.6,2.7
	c0,0.9-0.4,1.7-1.1,2.4h-7.2c-0.7-0.7-1.1-1.5-1.1-2.4C22.3,15.5,22.9,14.5,23.9,13.8z M17.1,23.9c1.4-1,2.1-2.2,2.6-3
	c0.4,0.8,1.2,1.9,2.6,3c0.2,0.1,0.4,0.3,0.5,0.4c0.5,0.5,0.8,1.1,0.8,1.8c0,0.6-0.3,1.3-0.8,1.8L22.7,28h-6
	c-0.6-0.5-0.9-1.2-0.9-1.9C15.8,25.3,16.3,24.5,17.1,23.9z M16.2,29.7l0.6-0.8h5.9l0.6,0.8l-0.5,0.6h-5.9L16.2,29.7z M16.9,31.1h5.6
	v5h-5.6V31.1z M23.4,30.8l0.7-0.7c0.2-0.2,0.2-0.4,0-0.6l-0.6-0.8v-0.3c0.1-0.1,0.1-0.2,0.2-0.2c0.1-0.1,0.1-0.1,0.2-0.2
	s0.1-0.2,0.2-0.3c0-0.1,0.1-0.2,0.1-0.2c0.1-0.1,0.1-0.3,0.1-0.4s0-0.1,0.1-0.2c0-0.2,0.1-0.4,0.1-0.6s0-0.4-0.1-0.6
	c0-0.1,0-0.1-0.1-0.2c0-0.1-0.1-0.3-0.1-0.4s-0.1-0.2-0.1-0.2c-0.1-0.1-0.1-0.2-0.2-0.3c0-0.1-0.1-0.2-0.2-0.2
	c-0.1-0.1-0.1-0.2-0.2-0.2v-1.4h6.9v1.4c-0.1,0.1-0.1,0.2-0.2,0.2c-0.1,0.1-0.1,0.2-0.2,0.2c-0.1,0.1-0.1,0.2-0.2,0.3
	c0,0.1-0.1,0.2-0.1,0.2c-0.1,0.1-0.1,0.3-0.1,0.4s0,0.1-0.1,0.2c0,0.2-0.1,0.4-0.1,0.6s0,0.4,0.1,0.6c0,0.1,0,0.1,0.1,0.2
	c0,0.1,0.1,0.3,0.1,0.4s0.1,0.2,0.1,0.3c0.1,0.1,0.1,0.2,0.2,0.3c0.1,0.1,0.1,0.2,0.2,0.2c0.1,0.1,0.1,0.1,0.2,0.2v0.3l-0.6,0.8
	c-0.1,0.2-0.1,0.4,0,0.6l0.7,0.7v5.4h-7.3v-5.5H23.4z M37.1,36.2h-5.6v-5h5.6V36.2z"/>
</svg>
