<svg xmlns="http://www.w3.org/2000/svg" viewBox="0 0 54 50"><path d="M14.8 18.8v12.5c0 1.5 1.2 2.7 2.7 2.7h19c1.5 0 2.7-1.2 2.7-2.7V18.8c0-1.5-1.2-2.7-2.7-2.7h-19c-1.5-.1-2.7 1.2-2.7 2.7zm21.7 14.1h-19c-1 0-1.7-.8-1.7-1.7v-.7c.5.4 1.1.6 1.7.6h19c.7 0 1.3-.2 1.7-.6v.7c0 1-.8 1.7-1.7 1.7zm1.7-14.1v9.7c0 1-.8 1.7-1.7 1.7h-19c-1 0-1.7-.8-1.7-1.7v-9.7c0-1 .8-1.7 1.7-1.7h11.9l-10.1 10 .7.7L30.8 17h2.7l-5.8 5.8.7.7 6.5-6.5h1.6c.9 0 1.7.8 1.7 1.8zM25.2 0z"/><path d="M35.3 1.8C31.9.5 28.5 0 25.2 0v1c3.3 0 6.6.6 9.8 1.7 6.7 2.4 12.1 7 15.3 12.9 3.2 5.9 3.8 12.4 1.6 18.3C48.6 43 39.6 49 28.8 49c-3.3 0-6.6-.6-9.8-1.7C5.3 42.4-2.3 28.4 2.1 16.1 5.4 6.9 14.4 1 25.2 1V0C14.4 0 4.7 6 1.2 15.8c-4.6 12.8 3.3 27.4 17.5 32.5 3.4 1.2 6.8 1.8 10.1 1.8 10.8 0 20.5-6 24-15.8 4.6-12.9-3.2-27.5-17.5-32.5z"/></svg>