<svg xmlns="http://www.w3.org/2000/svg" viewBox="0 0 54 50"><path d="M35.3 1.8C31.9.5 28.5 0 25.2 0v1c3.3 0 6.6.6 9.8 1.7 6.7 2.4 12.1 7 15.3 12.9 3.2 5.9 3.8 12.4 1.6 18.3C48.6 43 39.6 49 28.8 49c-3.3 0-6.6-.6-9.8-1.7C5.3 42.4-2.3 28.4 2.1 16.1 5.4 6.9 14.4 1 25.2 1V0C14.4 0 4.7 6 1.2 15.8c-4.6 12.8 3.3 27.4 17.5 32.5 3.4 1.2 6.8 1.8 10.1 1.8 10.8 0 20.5-6 24-15.8 4.6-12.9-3.2-27.5-17.5-32.5z"/><path d="M33.07 24.65a.502.502 0 00.11-.7l-1.46-1.99 5.84-4.27c1.1-.8 1.34-2.35.54-3.46l-.2-.26a.495.495 0 00-.7-.1l-7.84 5.73-4.09 3C25.05 18.93 22 16 18.28 16s-7.02 3.15-7.02 7.01c0 2.96 1.82 5.51 4.52 6.53l-2.43 1.78c-.17.13-.25.35-.18.55.06.2.25.34.46.35l.65.02c.35.02.69.03 1.04.03 4.72 0 9.38-1.51 13.22-4.31l4.53-3.31zM12.27 23c0-3.32 2.7-6.01 6.02-6.01s6.02 2.7 6.02 6.01c0 .1 0 .2-.01.3l-7.51 5.5a5.965 5.965 0 01-4.51-5.81zm25.12-8.03c.36.64.19 1.47-.42 1.91s-5.84 4.27-5.84 4.27l-.77-1.05 7.02-5.13zm-22.28 16.3L29.55 20.7l2.52 3.45-4.12 3.01c-3.72 2.71-8.3 4.16-12.84 4.11zm22.78-2.87c-3.2-1-5.99-.6-6.47.93-.09.31-.12.74.13 1.27-.14 0-.28-.01-.44-.01-3.36 0-5.89 1.22-5.89 2.83s2.53 2.82 5.89 2.82c2.95 0 5.27-.94 5.78-2.26.93.24 1.81.36 2.59.36 1.66 0 2.88-.51 3.19-1.47.48-1.54-1.58-3.46-4.78-4.46zm-6.79 6.83c-2.8 0-4.89-.96-4.89-1.82 0-.76 1.86-1.83 4.89-1.83.45 0 .84.02 1.21.06.13.13.29.25.45.37.08.06.14.13.22.19.27.2.57.39.89.58.1.06.21.11.32.16.23.12.46.24.71.35.17.07.35.14.52.2.17.07.33.14.5.2-.39.77-2.32 1.53-4.82 1.53zm10.61-2.67c-.23.7-2.26 1.16-5.08.31v.02c-.05-.02-.1-.04-.14-.06-1.49-.47-2.82-1.22-3.58-2-.44-.47-.63-.91-.54-1.2.15-.48.99-.78 2.2-.78.86 0 1.91.15 3.02.5 2.66.83 4.37 2.38 4.12 3.21z"/><path d="M16.68 25.64A3.038 3.038 0 0115.19 23c0-1.71 1.39-3.1 3.1-3.1.28 0 .5-.22.5-.5s-.22-.5-.5-.5c-2.26 0-4.1 1.84-4.1 4.1 0 1.45.74 2.76 1.98 3.49.08.05.17.07.25.07.17 0 .34-.09.43-.24.14-.24.06-.54-.17-.69z"/></svg>