<svg xmlns="http://www.w3.org/2000/svg" viewBox="0 0 36 34"><path d="M33.9 10.4c-2.2-4-5.9-7.1-10.4-8.8C19 0 14.1.1 9.9 1.8c-4.3 1.7-7.4 5-8.9 9.1-3 8.5 2.1 18.1 11.5 21.4 2.2.8 4.4 1.2 6.7 1.2 2.4 0 4.8-.5 7-1.4 4.3-1.7 7.4-5 8.9-9.1 1.4-4 1-8.5-1.2-12.6zm.2 12.3c-1.4 3.8-4.3 6.8-8.3 8.5-4 1.6-8.6 1.7-12.9.2C4 28.2-.9 19.2 1.9 11.3c1.4-3.8 4.3-6.8 8.3-8.5 2.1-.9 4.3-1.3 6.6-1.3 2.1 0 4.2.4 6.3 1.1 4.3 1.5 7.8 4.5 9.9 8.3 2.1 3.8 2.4 8 1.1 11.8z"/><path d="M18 8.1c-.1 0-2.1-.1-3.6 1.4-1.2 1.2-1.8 2.9-1.8 5.2 0 5.7 3.6 9.8 4.7 10.9.2.2.5.3.7.3s.5-.1.7-.3c1.1-1.1 4.7-5.1 4.7-10.9 0-2.3-.6-4-1.8-5.2C20 8 18.1 8.1 18 8.1zm0 16.8c-.8-.7-4.5-4.7-4.5-10.2 0-2 .5-3.5 1.5-4.4 1.2-1.1 2.6-1.2 2.9-1.2 0 0 1.6-.1 2.9 1.1 1 1 1.5 2.4 1.5 4.4.1 5.6-3.5 9.5-4.3 10.3z"/><path d="M18 10.4c-1.5 0-2.7 1.2-2.7 2.7 0 1.5 1.2 2.7 2.7 2.7s2.7-1.2 2.7-2.7c0-1.4-1.2-2.7-2.7-2.7zm0 4.5c-1 0-1.7-.8-1.7-1.7s.8-1.7 1.7-1.7 1.7.8 1.7 1.7-.7 1.7-1.7 1.7z"/></svg>