<?xml version="1.0" encoding="utf-8"?>
<!-- Generator: Adobe Illustrator 27.1.1, SVG Export Plug-In . SVG Version: 6.00 Build 0)  -->
<svg version="1.1" id="Layer_1" xmlns="http://www.w3.org/2000/svg" xmlns:xlink="http://www.w3.org/1999/xlink" x="0px" y="0px"
	 viewBox="0 0 36 34" style="enable-background:new 0 0 36 34;" xml:space="preserve">
<g>
	<path d="M33.9,10.4c-2.2-4-5.9-7.1-10.4-8.8C14.1-1.7,4,2.5,1,10.9C-0.9,16.4,0.4,22.4,4.6,27c0.6,0.7,1.4,1.4,2.2,2.1
		c1.7,1.4,3.6,2.5,5.8,3.2c2.2,0.8,4.5,1.2,6.7,1.2c3.8,0,7.4-1.1,10.4-3.3c0.9-0.7,1.8-1.5,2.6-2.3c1.2-1.4,2.2-3,2.8-4.8
		C36.5,19,36.1,14.5,33.9,10.4z M34.1,22.7c-0.6,1.7-1.5,3.2-2.7,4.5c-0.7,0.8-1.5,1.5-2.4,2.2c-4.5,3.3-10.5,4-16.1,2
		c-2-0.7-3.9-1.8-5.5-3.1c-0.8-0.6-1.4-1.3-2.1-1.9c-3.9-4.4-5.2-10-3.4-15.1c2.2-6.1,8.2-9.8,14.9-9.8c2.1,0,4.2,0.4,6.3,1.1
		c4.3,1.5,7.8,4.5,9.9,8.3C35.1,14.7,35.4,18.9,34.1,22.7z"/>
	<path d="M28,11.3c0-1.6-1.3-2.8-2.8-2.8c-1.2,0-2.3,0.8-2.7,1.9C21,9.8,19.5,9.5,18,9.5c-1.5,0-3,0.3-4.4,0.9
		c-0.4-1.1-1.4-1.9-2.7-1.9c-1.6,0-2.8,1.3-2.8,2.8c0,1,0.6,2,1.4,2.5c-1.8,2.8-2,7,1.2,9.6c1.7,1.4,4.2,2.2,7.3,2.2
		c3,0,5.5-0.7,7.2-2.1l0.2-0.1c3.2-2.6,3-6.8,1.2-9.6C27.4,13.3,28,12.3,28,11.3z M10.9,9.5c0.9,0,1.6,0.6,1.8,1.4
		c0,0-0.1,0-0.1,0.1c-0.4,0.2-0.8,0.4-1.1,0.7c-0.1,0-0.1,0.1-0.2,0.1c-0.3,0.3-0.7,0.6-1,0.9c0,0,0,0,0,0c-0.1,0.1-0.2,0.2-0.3,0.3
		c-0.6-0.3-1-0.9-1-1.6C9.1,10.3,9.9,9.5,10.9,9.5z M24.8,22.5l-0.1,0.1c-1.5,1.3-3.8,1.9-6.7,1.9c-2.8,0-5.2-0.7-6.7-1.9
		c-2.9-2.4-2.5-6.3-0.7-8.8c0.1-0.1,0.2-0.2,0.3-0.3c0.1-0.1,0.1-0.2,0.2-0.3c0.2-0.2,0.3-0.3,0.5-0.5c0.3-0.3,0.7-0.5,1-0.8
		c0.3-0.2,0.5-0.3,0.8-0.5l0.1,0c1.4-0.7,3-1.1,4.5-1.1c1.5,0,3.1,0.4,4.5,1l0.1,0c0.2,0.1,0.4,0.2,0.6,0.3c0.3,0.2,0.6,0.4,0.9,0.6
		c0.3,0.2,0.6,0.5,0.9,0.8c0.1,0.1,0.2,0.2,0.3,0.4c0.1,0.1,0.1,0.2,0.2,0.2C27.2,16.3,27.6,20.1,24.8,22.5z M26,12.9
		c-0.1-0.1-0.2-0.2-0.3-0.3c0,0,0,0-0.1-0.1c-0.3-0.3-0.6-0.6-1-0.9c-0.1,0-0.1-0.1-0.2-0.1c-0.3-0.2-0.7-0.5-1.1-0.7
		c0,0-0.1,0-0.1-0.1c0.2-0.8,0.9-1.4,1.8-1.4c1,0,1.8,0.8,1.8,1.8C27,12,26.6,12.6,26,12.9z"/>
	<circle cx="20.7" cy="15.1" r="0.8"/>
	<circle cx="15.3" cy="15.1" r="0.8"/>
	<path d="M18.5,21.8v-1.6c0.5-0.1,1-0.3,1.3-0.5c0.4-0.3,0.7-0.7,0.9-1.2c0.2-0.6,0.1-1.1-0.2-1.5c-0.4-0.6-1.3-0.9-2.5-0.9
		c-1.2,0-2.1,0.3-2.5,0.9c-0.3,0.4-0.4,1-0.2,1.5c0.1,0.5,0.5,0.9,0.9,1.2c0.4,0.3,0.8,0.4,1.3,0.5v1.6c-2.5-0.1-3.7-1.1-3.7-1.1
		l-0.3,0.4l-0.3,0.4c0.1,0.1,1.6,1.4,4.9,1.4c3.6,0,4.9-1.3,4.9-1.4l-0.7-0.7C22.2,20.8,21.2,21.7,18.5,21.8z M16.2,18.2
		c-0.1-0.2-0.1-0.4,0.1-0.6c0.1-0.2,0.5-0.5,1.7-0.5c1.2,0,1.6,0.3,1.7,0.5c0.2,0.2,0.1,0.5,0.1,0.6l0,0c-0.1,0.3-0.3,0.5-0.5,0.7
		c-0.6,0.4-1.9,0.4-2.5,0C16.5,18.7,16.3,18.5,16.2,18.2z"/>
</g>
</svg>
