<svg xmlns="http://www.w3.org/2000/svg" viewBox="0 0 54 50"><path d="M35.3 1.8C31.9.5 28.5 0 25.2 0v1c3.3 0 6.6.6 9.8 1.7 6.7 2.4 12.1 7 15.3 12.9 3.2 5.9 3.8 12.4 1.6 18.3C48.6 43 39.6 49 28.8 49c-3.3 0-6.6-.6-9.8-1.7C5.3 42.4-2.3 28.4 2.1 16.1 5.4 6.9 14.4 1 25.2 1V0C14.4 0 4.7 6 1.2 15.8c-4.6 12.8 3.3 27.4 17.5 32.5 3.4 1.2 6.8 1.8 10.1 1.8 10.8 0 20.5-6 24-15.8 4.6-12.9-3.2-27.5-17.5-32.5z"/><path d="M37.19 18.72h-4.5a3.2 3.2 0 01-3.18-2.93 4.89 4.89 0 002.43-4.2v-.5h-9.86v.5c.02 1.75.94 3.32 2.43 4.2-.14 1.64-1.5 2.94-3.18 2.94h-4.51c-.97 0-1.75.79-1.75 1.75s.79 1.75 1.75 1.75 1.75-.79 1.75-1.75c0-.27-.07-.52-.18-.75h.53v.32c0 6.1 2.08 11.18 5.08 13.25h-.62v.5c0 1.45-1.18 2.63-2.63 2.63h-.5v2.48h4.94l.14-.13c.44-.41.83-.87 1.14-1.36h1.1c.32.5.7.96 1.14 1.36l.14.13h4.95v-2.48h-.5c-1.45 0-2.63-1.18-2.63-2.63v-.5H30c3-2.09 5.13-7.23 5.13-13.25v-.32h.51c-.11.23-.18.48-.18.75 0 .97.79 1.75 1.75 1.75s1.75-.79 1.75-1.75-.79-1.75-1.75-1.75zm-19.63 1.76a.749.749 0 11-1.498.002.749.749 0 011.498-.002zm5.55-8.39h7.79a3.911 3.911 0 01-2.05 2.94h-3.68a3.877 3.877 0 01-2.05-2.94zm2.39 3.94h3.01c.13 1.08.67 2.03 1.46 2.7h-5.92c.79-.67 1.33-1.62 1.45-2.7zm4.18 18.26c.22 1.6 1.5 2.88 3.1 3.1v.52h-3.55c-.37-.37-.7-.79-.97-1.25l-.14-.25h-2.24l-.14.25c-.26.45-.58.87-.96 1.24h-3.54v-.52c1.6-.22 2.88-1.5 3.1-3.1h5.34zm-2.67-1c-3.92 0-7.1-5.94-7.1-13.25v-.32H34.1v.32c0 7.3-3.18 13.25-7.09 13.25zm10.18-12.06a.749.749 0 11-.002-1.498.749.749 0 01.002 1.498z"/></svg>