<?xml version="1.0" encoding="utf-8"?>
<!-- Generator: Adobe Illustrator 27.1.1, SVG Export Plug-In . SVG Version: 6.00 Build 0)  -->
<svg version="1.1" id="Layer_1" xmlns="http://www.w3.org/2000/svg" xmlns:xlink="http://www.w3.org/1999/xlink" x="0px" y="0px"
	 viewBox="0 0 36 34" style="enable-background:new 0 0 36 34;" xml:space="preserve">
<g>
	<path d="M23.5,1.7C18.9,0,14.1,0.1,9.9,1.9c-4.3,1.7-7.4,5-8.9,9.1C-2,19.4,3.1,29,12.5,32.3c2.2,0.8,4.4,1.2,6.6,1.2
		c7.1,0,13.5-4,15.9-10.4C38,14.6,32.9,5,23.5,1.7z M34.1,22.7c-2.8,7.9-12.3,11.8-21.2,8.7C4,28.2-0.9,19.2,1.9,11.3
		c1.4-3.8,4.3-6.8,8.3-8.5c2.1-0.9,4.3-1.3,6.6-1.3c2.1,0,4.2,0.4,6.3,1.1C32,5.8,36.9,14.8,34.1,22.7z"/>
	<path d="M25.1,15c0-2.3-1.9-4.2-4.2-4.2c-0.5,0-0.9,0.1-1.3,0.2c-0.3-1.4-1.5-2.4-3-2.4c-1.7,0-3.1,1.4-3.1,3.1
		c0,0.5,0.1,0.9,0.3,1.3c-1.2,0.4-2.1,1.5-2.3,2.7H9.4l0.2,0.6c0.9,3.1,3.4,5.5,6.5,6.1v2h-2.7v1h2.7h3.8h2.7v-1h-2.7v-2
		c1.2-0.3,2.4-0.8,3.4-1.6c1.5-1.2,2.6-2.7,3.1-4.6l0.2-0.6h-1.5C25.1,15.4,25.1,15.2,25.1,15z M24.1,15c0,0.2,0,0.4-0.1,0.6h-5.6
		c0,0,0,0,0-0.1c-0.1-0.3-0.1-0.5-0.2-0.7c0,0,0-0.1,0-0.1c-0.1-0.2-0.2-0.4-0.4-0.6c0,0,0-0.1-0.1-0.1c0-0.1,0.1-0.2,0.1-0.3
		c0-0.1,0.1-0.2,0.1-0.3c0.1-0.1,0.1-0.2,0.2-0.3c0.1-0.1,0.1-0.2,0.2-0.2c0.1-0.1,0.2-0.2,0.2-0.3c0.1-0.1,0.1-0.1,0.2-0.2
		c0.1-0.1,0.2-0.2,0.3-0.2c0.1,0,0.1-0.1,0.2-0.1c0.5-0.3,1-0.4,1.5-0.4C22.7,11.8,24.1,13.2,24.1,15z M16.6,9.6
		c1.1,0,2,0.8,2.1,1.9c-0.1,0.1-0.3,0.2-0.4,0.3c0,0-0.1,0-0.1,0.1c-0.2,0.2-0.4,0.4-0.6,0.6c0,0,0,0-0.1,0.1
		c-0.2,0.2-0.3,0.4-0.4,0.7c0,0,0,0,0,0c0,0.1-0.1,0.1-0.1,0.2c0,0-0.1,0-0.1-0.1c0,0-0.1,0-0.1,0c-0.4-0.3-0.9-0.4-1.4-0.5
		c0,0-0.1,0-0.1,0c-0.1,0-0.2,0-0.3,0c0,0-0.1,0-0.2,0c-0.2-0.3-0.3-0.7-0.3-1.1C14.5,10.5,15.4,9.6,16.6,9.6z M14.7,13.7
		c0.8-0.1,1.6,0.2,2.1,0.7l0.1,0.1c0.1,0.1,0.2,0.3,0.3,0.5c0,0,0,0.1,0.1,0.1c0.1,0.1,0.1,0.3,0.2,0.4c0,0,0,0.1,0,0.1h-5
		C12.8,14.6,13.6,13.9,14.7,13.7z M17.1,24.4v-1.8h1.8v1.8H17.1z M22.7,20.1c-1.3,1-2.9,1.6-4.6,1.6h-0.2c-3.2,0-6.1-2-7.2-5h0.7
		h6.2h1h6.3h0.4C24.8,18,23.9,19.2,22.7,20.1z"/>
</g>
</svg>
