<?xml version="1.0" encoding="utf-8"?>
<!-- Generator: Adobe Illustrator 27.1.1, SVG Export Plug-In . SVG Version: 6.00 Build 0)  -->
<svg version="1.1" id="Layer_1" xmlns="http://www.w3.org/2000/svg" xmlns:xlink="http://www.w3.org/1999/xlink" x="0px" y="0px"
	 viewBox="0 0 36 34" style="enable-background:new 0 0 36 34;" xml:space="preserve">
<g>
	<path d="M33.9,10.4c-2.2-4-5.9-7.1-10.4-8.8C19,0,14.1,0.1,9.9,1.8c-4.3,1.7-7.4,5-8.9,9.1C-2,19.4,3.1,29,12.5,32.3
		c2.2,0.8,4.4,1.2,6.7,1.2c2.4,0,4.8-0.5,7-1.4c4.3-1.7,7.4-5,8.9-9.1C36.5,19,36.1,14.5,33.9,10.4z M34.1,22.7
		c-1.4,3.8-4.3,6.8-8.3,8.5c-4,1.6-8.6,1.7-12.9,0.2C4,28.2-0.9,19.2,1.9,11.3c1.4-3.8,4.3-6.8,8.3-8.5c2.1-0.9,4.3-1.3,6.6-1.3
		c2.1,0,4.2,0.4,6.3,1.1c4.3,1.5,7.8,4.5,9.9,8.3C35.1,14.7,35.4,18.9,34.1,22.7z"/>
	<path d="M18,9c-4.4,0-8,3.6-8,8s3.6,8,8,8s8-3.6,8-8S22.4,9,18,9z M18,24c-3.9,0-7-3.1-7-7c0-3.9,3.1-7,7-7c3.9,0,7,3.1,7,7
		C25,20.9,21.9,24,18,24z"/>
	<polygon points="18.5,11.5 17.5,11.5 17.5,17.5 21.3,17.5 21.3,16.5 18.5,16.5 	"/>
</g>
</svg>
