<svg xmlns="http://www.w3.org/2000/svg" viewBox="0 0 36 34"><path d="M21.7 20.9c-.4-.4-.9-.7-1.5-.9 1.6-.8 2.7-2.4 2.7-4.3 0-1.2-.5-2.3-1.2-3.2l.6.2h.2c.1 0 .2 0 .3-.1.1-.1.2-.2.2-.4V9c0-.2-.1-.3-.2-.4-.1-.1-.3-.1-.5-.1L18 10.1l-4.1-1.5c-.2-.1-.3 0-.5.1-.1.1-.2.2-.2.4v3.2c0 .2.1.3.2.4.1.1.2.1.3.1h.2l.4-.1c-.7.9-1.2 2-1.2 3.1 0 1 .3 1.9.9 2.8 0 .1.1.1.1.1.4.6 1 1.1 1.7 1.5-.5.2-1 .5-1.5.9-1.2 1-1.8 2.5-1.8 4.1h1c0-1 .3-1.9.9-2.7.2.2.5.2.8.2h.2v.2c.1.3.2.7.5.8.4.2.7 0 .9-.1 0 0 .1-.1.2-.1l.1.1c.2.2.4.5.8.5s.7-.3.8-.5l.1-.1c.1 0 .1.1.2.1.3.1.6.3 1 .1.4-.2.5-.6.5-.8v-.2h.2c.2 0 .5 0 .8-.2.6.8.9 1.7.9 2.7h1c0-1.5-.6-2.9-1.7-3.9v-.4zm.2-11.2v1.8l-2.4-.9 2.4-.9zm-7.7 0l2.4.9-2.4.9V9.7zm.7 8.2l-.1-.1c-.4-.6-.7-1.4-.7-2.2 0-1.9 1.3-3.5 3.2-3.8.2 0 .4-.1.6-.1 2.1 0 3.9 1.7 3.9 3.9 0 2.1-1.6 3.8-3.7 3.8H18c-1.2.1-2.4-.5-3.1-1.5zm5.1 3.8c-.2.2-.3.5-.4.7v.1h-.1c-.2-.1-.5-.3-.8-.2-.3.1-.5.3-.7.5l-.1.1-.1-.1c-.2-.2-.4-.4-.7-.5h-.2c-.3 0-.5.1-.7.2v-.1c-.1-.2-.1-.5-.4-.7-.2-.2-.5-.2-.7-.2l.2-.2c.1-.1.2-.1.2-.1.2-.1.3-.2.5-.2.1 0 .1-.1.2-.1.2-.1.4-.1.6-.2h.2c.2 0 .4-.1.6-.1h.9c.5.1 1 .2 1.5.5l.1.1c.2.1.3.2.5.3-.1 0-.4 0-.6.2z"/><path d="M23.5 1.7C19 0 14.1.1 9.9 1.9 5.6 3.6 2.5 6.9 1 11s-1.1 8.6 1.1 12.6 5.9 7.1 10.4 8.8c2.2.8 4.4 1.2 6.6 1.2 7.1 0 13.5-4 15.9-10.4C38 14.6 32.9 5 23.5 1.7zm10.6 21c-2.8 7.9-12.3 11.8-21.2 8.7-4.3-1.5-7.8-4.5-9.9-8.3-2.1-3.8-2.4-8-1.1-11.8 1.4-3.8 4.3-6.8 8.3-8.5 2.1-.9 4.3-1.3 6.6-1.3 2.1 0 4.2.4 6.3 1.1 8.9 3.2 13.8 12.2 11 20.1z"/></svg>