<svg xmlns="http://www.w3.org/2000/svg" viewBox="0 0 54 50"><path d="M35.3 1.8C31.9.5 28.5 0 25.2 0v1c3.3 0 6.6.6 9.8 1.7 6.7 2.4 12.1 7 15.3 12.9 3.2 5.9 3.8 12.4 1.6 18.3C48.6 43 39.6 49 28.8 49c-3.3 0-6.6-.6-9.8-1.7C5.3 42.4-2.3 28.4 2.1 16.1 5.4 6.9 14.4 1 25.2 1V0C14.4 0 4.7 6 1.2 15.8c-4.6 12.8 3.3 27.4 17.5 32.5 3.4 1.2 6.8 1.8 10.1 1.8 10.8 0 20.5-6 24-15.8 4.6-12.9-3.2-27.5-17.5-32.5z"/><path d="M34.73 37.57H19.27c-1.94 0-3.51-1.57-3.51-3.51V15.94c0-1.94 1.57-3.51 3.51-3.51h15.46c1.94 0 3.51 1.57 3.51 3.51v18.12c0 1.93-1.57 3.51-3.51 3.51zM19.27 13.43c-1.38 0-2.51 1.13-2.51 2.51v18.12c0 1.38 1.13 2.51 2.51 2.51h15.46c1.38 0 2.51-1.12 2.51-2.51V15.94c0-1.38-1.13-2.51-2.51-2.51H19.27z"/><path d="M32.84 20.46H21.16c-.88 0-1.59-.71-1.59-1.59v-1.85c0-.88.71-1.59 1.59-1.59h11.68c.88 0 1.59.71 1.59 1.59v1.85c0 .88-.71 1.59-1.59 1.59zm-11.68-4.03c-.33 0-.59.27-.59.59v1.85c0 .33.26.59.59.59h11.68c.33 0 .59-.27.59-.59v-1.85c0-.33-.26-.59-.59-.59H21.16zm11.69 11.05H21.16c-.87 0-1.58-.71-1.58-1.58v-1.86c0-.87.71-1.58 1.58-1.58h11.69c.87 0 1.58.71 1.58 1.58v1.86c0 .87-.71 1.58-1.58 1.58zm-11.7-4.03a.58.58 0 00-.58.58v1.86c0 .32.26.58.58.58h11.69c.32 0 .58-.26.58-.58v-1.86a.58.58 0 00-.58-.58H21.15zm7.74 11.06H25.1c-1.39 0-2.51-1.13-2.51-2.51s1.13-2.51 2.51-2.51h3.79c1.39 0 2.51 1.13 2.51 2.51s-1.13 2.51-2.51 2.51zm-3.78-4.03c-.83 0-1.51.68-1.51 1.51s.68 1.51 1.51 1.51h3.79c.83 0 1.51-.68 1.51-1.51s-.68-1.51-1.51-1.51h-3.79z"/></svg>