<svg version="1.1" id="Layer_1" xmlns="http://www.w3.org/2000/svg" x="0" y="0" viewBox="0 0 214.9 150.9" xml:space="preserve"><style>.st0{fill:#e3b48b}</style><path class="st0" d="M145.8 41.1c-.7-.7-2.5-2.5-5.7-3.5h-.4c-1.5.8-11 5.7-39.7 11.4l.6-1.6c1.9-4.5 3.9-8.9 5.8-13.4 1.2-2.6 7.9-16.7 17.4-16.7.6 0 2.8-.1 3.8 1.8 1.4 2.6.8 11-5.6 17.4-2.9 3-5.1 4-6.4 4.1-.8 0-1.5-.5-1.5-1.3v-.2c.2-2.5 1.8-4.2 2.7-5.2.1-.2.1-.3-.1-.3-.5-.1-.9-.1-1.5-.1-2 0-3.6.4-4.8.8-.3.1-.6.3-.8.6-.5.7-1.4 2.3-1.2 4.1.4 2.3 4.1 7.1 16.5.2 5.7-3.2 9.3-8.1 10-14 .6-4.8-2.1-14.2-17.1-9.4-13.4 4.2-19.3 16.1-20.3 18.4L91 49.1l-.8 1.7c-13.7 4.3-15.5 11.4-15.6 13v.4c0 1.4.3 2.3.3 2.3 1.4 3.6 6.4 4.7 12.1 1.1 5.2-3.3 8.5-9.6 10.6-14.2.1-.1.5-1 .7-1.3.4-.1.8-.1 1.1-.2 1.5-.3 4.8-.7 4.8-.7-.8 2.1-2.8 7-5 12.4-3.6 9.3-4.6 13.3-9.2 17.4-.9.8-1.9 1.3-2.7 1.7-.1 0-.1.1-.1.1l-.3.7c0 .1 0 .2.1.2 1.7-.3 3.7-.8 5.8-1.7 8.4-3.7 11.9-11.4 12.8-13.8 2.5-5.7 4.9-11.3 7.4-17 .1-.2 0-.3-.2-.4-.6-.1-1.1-.2-1.5-.3-.5-.1-.5-.2 0-.3.7-.1 1.7-.3 2.3-.4l1.5-.3 1.8-.3c.7-.1 1.3-.3 1.9-.4 2.7-.5 5.3-1.1 7.8-1.7 1-.2 2.1-.5 3.1-.7 5.8-1.5 11-3.1 16-4.8.2-.1.3-.3.1-.5zm-58 16.6c0 .1-.1.1 0 0-1.2 2.3-2.5 4.6-4 6.1-2.1 2-4.4 2.4-5.3 1.8-1-.7-1.7-3.6 3.9-7.6 2.7-1.9 6.3-3.3 9.6-4.2 1.2-.3 1.3-.1.2.5-3.1 1.5-4.3 3.2-4.4 3.4z"/><path class="st0" d="M124.8 50.1c-3.5.6-5.5 1.4-6.6 1.9-.7.4-1.2.9-1.5 1.6l-4.2 10s-2.5 6.4-3.4 8.3c-.7 1.6-2 3.5-3.1 4.4-.1.1-.2.2-.2.3l-.2.7c-.1.2 0 .2.2.2.4-.2.8-.3 1.3-.5 8.4-3.7 11.7-11.7 12.7-14l5.4-12.4c.1-.4-.1-.5-.4-.5zm90 75.3c.1 0 .1 0 0 0 .1-.3.1-.9 0-1-.1-.8-.3-1.5-.7-2.2-.5-.8-1.1-1.4-1.9-1.9-.8-.5-1.7-.7-2.7-.7-1.1 0-2.2.3-3.1.8-.9.5-1.7 1.3-2.2 2.3s-.8 2.1-.8 3.3c0 1.3.3 2.4.8 3.4.6 1 1.3 1.7 2.3 2.3 1 .5 2 .8 3.2.8 1.3 0 2.4-.4 3.4-1.1.8-.6 1.4-1.5 1.7-2.5 0-.1.1-.5.2-.7 0-.1 0-.1-.1-.1h-1.2c-.1 0-.1 0-.1.1 0 .2-.1.5-.1.6-.2.6-.6 1.2-1.2 1.6-.7.5-1.5.8-2.5.8s-1.7-.3-2.2-1-.8-1.7-.8-2.9v-1.7c0-.1 0-.1.1-.1h7.9v-.1zm-3.3-1.4h-4.7s-.1 0-.1-.1c.1-.8.4-1.5.8-2 .5-.6 1.1-.9 2-.9.7 0 1.2.2 1.5.7.3.6.5 1.3.5 2.3.1 0 0 0 0 0zm-159.8 4.7c-.2.7-.6 1.3-1.2 1.7-.7.5-1.5.8-2.4.8-1 0-1.7-.3-2.1-1-.5-.7-.8-1.7-.8-2.9V125c0-1.3.3-2.3.8-3s1.2-1 2.1-1c.6 0 1.1.1 1.5.4.3.3.5.6.5 1 0 .2 0 .4-.1.5 0 .1-.1.1-.1.2 0 0-.2.2-.3.2l-.1.1v.3c0 .4.2.8.5 1.1.4.4.8.5 1.3.5s1-.2 1.3-.5.5-.8.5-1.4c0-.7-.2-1.4-.7-2s-1.1-1-1.8-1.3-1.6-.5-2.5-.5c-1.1 0-2.1.3-3 .8s-1.7 1.3-2.3 2.2c-.6 1-.9 2.1-.9 3.4 0 1.2.3 2.4.8 3.3.6 1 1.3 1.7 2.2 2.3.9.5 2 .8 3.1.8 1.3 0 2.4-.4 3.3-1.1.8-.6 1.4-1.5 1.6-2.5 0-.1.1-.5.1-.7 0-.1 0-.1-.1-.1h-1.2c-.1 0-.1 0-.1.1.2.2.1.5.1.6zm-39.1-13.6c-1.1-1-2.9-1.5-5.2-1.5H.1c-.1 0-.1 0-.1.1v1.1c0 .1 0 .1.1.1l1.8.3c.1 0 .1.1.1.2v15.2c0 .1-.1.1-.1.2l-1.8.2c-.1 0-.1.1-.1.2v1c0 .1.1.1.1.1h7.2c.1 0 .1-.1.1-.1v-1c0-.1-.1-.1-.1-.2l-1.8-.3c-.1 0-.1-.1-.1-.2v-5.1c0-.1 0-.1.1-.1h2c2.3 0 4-.5 5.2-1.5s1.8-2.5 1.8-4.4c-.1-1.8-.7-3.3-1.9-4.3zm-7.2 0c0-.1 0-.1 0 0l1.7-.1c2.5 0 3.7 1.3 3.7 4v.9c0 2.8-1.2 4.1-3.7 4.1H5.5c-.1 0-.1 0-.1-.1v-8.8zm18.7 6.1l1.6.5v.1l-2.1 6.1c0 .1-.1.1-.1 0l-3-6.3v-.1l1.2-.2c.1 0 .1-.1.1-.2v-1c0-.1 0-.1-.1-.1h-6.2c-.1 0-.1 0-.1.1v1c0 .1.1.1.1.2l1.4.2c.1 0 .1.1.2.1l4.9 10.5v.2l-1.3 3.6c-.2.7-.4.9-.6 1.1-.2.2-.4.2-.6.2s-.3-.1-.4-.2c-.1-.1-.2-.2-.2-.4 0-.3.1-.5.3-.7l.1-.1v-.2l-.1-.1c-.2-.3-.4-.5-.7-.7-.3-.2-.6-.2-1-.2-.5 0-.9.2-1.3.5-.3.4-.5.8-.5 1.4 0 .8.3 1.4.9 1.9.6.4 1.3.7 2.1.7.9 0 1.7-.2 2.2-.7s.9-1.1 1.2-2.1l4.9-14.2c0-.1.1-.1.1-.1l1.4-.5c.1 0 .1-.1.1-.1v-1c0-.1 0-.1-.1-.1h-4.7c-.1 0-.1 0-.1.1v1c.3-.3.4-.3.4-.2zm14.6 7.5c-.2.7-.6 1.3-1.2 1.7-.7.5-1.5.8-2.4.8-1 0-1.7-.3-2.1-1-.5-.7-.8-1.7-.8-2.9V125c0-1.3.3-2.3.8-3s1.2-1 2.1-1c.6 0 1.1.1 1.5.4.3.3.5.6.5 1 0 .2 0 .4-.1.5 0 .1-.1.1-.1.2 0 0-.2.2-.3.2l-.1.1v.3c0 .4.2.8.5 1.1.4.4.8.5 1.3.5s1-.2 1.3-.5.5-.8.5-1.4c0-.7-.2-1.4-.7-2s-1.1-1-1.8-1.3-1.6-.5-2.5-.5c-1.1 0-2.1.3-3 .8-.9.5-1.7 1.3-2.3 2.2-.6 1-.9 2.1-.9 3.4 0 1.2.3 2.4.8 3.3.6 1 1.3 1.7 2.2 2.3.9.5 2 .8 3.1.8 1.3 0 2.4-.4 3.3-1.1.8-.6 1.4-1.5 1.6-2.5 0-.1.1-.5.1-.7 0-.1 0-.1-.1-.1H39c-.1 0-.1 0-.1.1-.1.2-.1.5-.2.6zm27.5 2c-.1 0-.1 0-.1-.1 0 0-.1-.2-.3-.8l-.4-1.9c-.2-.9-.5-1.6-1-2-.4-.3-.9-.6-1.6-.7 0 0-.1 0 0-.1.1-.3.3-.6.4-1l.4-1.6c.1-.3.2-.3.3-.3s.1 0 .1.1c0 0 .1.1.1.2s-.1.4-.1.5 0 .1.1.1l.2.1c.2.1.5.1.7.2.6 0 1.1-.2 1.5-.6.3-.4.5-.8.5-1.3 0-.3-.1-.6-.3-.9-.4-.6-1-1-1.9-1-.8 0-1.4.2-1.7.7-.4.4-.6 1-.8 1.8l-.4 1.6c-.2.6-.3.9-.5 1-.1.2-.4.2-.6.3h-1.6c-.1 0-.1-.1-.1-.1v-3.4c0-.1.1-.2.1-.2l1.3-.2c.1 0 .1-.1.1-.2v-1c0-.1 0-.1-.1-.1h-6.1c-.1 0-.1 0-.1.1v1c0 .1.1.1.1.2l1.3.2c.1 0 .1.1.1.2v9.1c0 .1-.1.2-.1.2l-1.3.2c-.1 0-.1.1-.1.2v1c0 .1 0 .1.1.1h6.1c.1 0 .1 0 .1-.1v-1c0-.1-.1-.1-.1-.2l-1.3-.2c-.1 0-.1-.1-.1-.2v-4.1c0-.1.1-.1.1-.1h1.5c.4 0 .8.1 1 .3.2.2.4.6.5 1.2l.4 2.4c.1.8.4 1.3.8 1.6.4.3 1 .5 1.7.5.4 0 .9-.1 1.3-.3s1.1-.9 1.3-1.1v-.2l-.8-.8h-.1c-.1.4-.5.7-.6.7zm11.3-10.2c-.9-.5-2-.8-3.1-.8s-2.2.3-3.1.8-1.7 1.3-2.2 2.3-.8 2.1-.8 3.3c0 1.2.3 2.4.8 3.3.5 1 1.3 1.7 2.2 2.3.9.5 2 .8 3.1.8s2.2-.3 3.1-.8 1.7-1.3 2.2-2.3.8-2.1.8-3.3c0-1.2-.3-2.4-.8-3.3-.5-1-1.2-1.8-2.2-2.3zm-6 6.7V125c0-1.2.3-2.2.8-2.9.5-.7 1.2-1 2.1-1 1 0 1.7.3 2.1 1 .5.7.8 1.7.8 2.9v2.2c0 1.2-.3 2.2-.8 2.9s-1.2 1-2.1 1c-1 0-1.7-.3-2.1-1-.5-.7-.8-1.6-.8-2.9zm22.4-1.8s.1 0 0 0c.1-.3.1-.9 0-1-.1-.8-.3-1.5-.7-2.2-.5-.8-1.1-1.4-1.9-1.9s-1.7-.7-2.7-.7c-1.1 0-2.2.3-3.1.8s-1.7 1.3-2.2 2.3-.8 2.1-.8 3.3c0 1.3.3 2.4.8 3.4.6 1 1.3 1.7 2.3 2.3 1 .5 2 .8 3.2.8 1.3 0 2.4-.4 3.4-1.1.8-.6 1.4-1.5 1.7-2.5 0-.1.1-.5.2-.7 0-.1 0-.1-.1-.1h-1.2c-.1 0-.1 0-.1.1 0 .2-.1.5-.1.6-.2.6-.6 1.2-1.2 1.6-.7.5-1.5.8-2.5.8s-1.7-.3-2.2-1-.8-1.7-.8-2.9v-1.7c0-.1 0-.1.1-.1h7.9v-.1zm-3.3-1.4h-4.7s-.1 0-.1-.1c.1-.8.4-1.5.8-2 .5-.6 1.1-.9 2-.9.7 0 1.2.2 1.5.7.3.6.5 1.3.5 2.3zm11.5-9.1l1.8.3c.1 0 .1.1.1.2v15.2c0 .1-.1.1-.1.2l-1.8.3c-.1 0-.1.1-.1.2v1c0 .1 0 .1.1.1h7.2c.1 0 .1 0 .1-.1v-1c0-.1-.1-.1-.1-.2l-1.8-.3c-.1 0-.1-.1-.1-.2v-15.4c0-.1 0-.1.1-.1h7.2c.1 0 .1 0 .1.1v15.4c0 .1-.1.1-.1.2l-1.8.3c-.1 0-.1.1-.1.2v1c0 .1 0 .1.1.1h7.2c.1 0 .1 0 .1-.1v-1c0-.1-.1-.1-.1-.2l-1.8-.3c-.1 0-.1-.1-.1-.2v-15.2c0-.1.1-.1.1-.2l1.8-.3c.1 0 .1-.1.1-.2v-1c0-.1 0-.1-.1-.1H102c-.1 0-.1 0-.1.1v1c0 .1.1.2.2.2zm30.6 7.9c-.5-1-1.3-1.7-2.2-2.3-.9-.5-2-.8-3.1-.8s-2.2.3-3.1.8-1.7 1.3-2.2 2.3-.8 2.1-.8 3.3c0 1.2.3 2.4.8 3.3.5 1 1.3 1.7 2.2 2.3.9.5 2 .8 3.1.8s2.2-.3 3.1-.8 1.7-1.3 2.2-2.3.8-2.1.8-3.3c0-1.2-.3-2.4-.8-3.3zm-8.3 4.4V125c0-1.2.3-2.2.8-2.9.5-.7 1.2-1 2.1-1 1 0 1.7.3 2.1 1 .5.7.8 1.7.8 2.9v2.2c0 1.2-.3 2.2-.8 2.9s-1.2 1-2.1 1c-1 0-1.7-.3-2.1-1-.5-.7-.8-1.6-.8-2.9zm20.4 3.6v-9.3c0-.1.1-.1.1-.2l1.3-.2c.1 0 .1-.1.1-.2v-1c0-.1-.1-.1-.1-.1h-10.8c-.1 0-.1.1-.1.1v.9c0 .1 0 .1.1.1l1.8.9c.1 0 .1.1.1.2l-.2 2.3c-.1 1.5-.2 2.7-.3 3.4-.1.7-.3 1.3-.5 1.7-.2.5-.5.8-.7 1.1-.2.2-.5.3-.7.3h-1c-.1 0-.1 0-.1.1l-.4 4.9s0 .1.1.1h1.2c.1 0 .1 0 .1-.1l1.8-3.5c0-.1.1-.1.1-.1h6.5c.1 0 .1 0 .1.1l1.9 3.5c0 .1.1.1.1.1h1.2s.1 0 .1-.1l-.4-4.9c0-.1-.1-.1-.1-.1h-1.3c0 .1 0 0 0 0zm-6.6-2.8c.1-.8.3-2 .4-3.5l.2-3c0-.1.1-.1.1-.1h2.7c.1 0 .1 0 .1.1v9.4c0 .1 0 .1-.1.1h-4.2c-.1 0-.1 0-.1-.1.2-.2.3-.5.4-.8.2-.7.4-1.3.5-2.1zm19.4-2.3c-.1 0-.1-.1 0 0 1.2-.8 1.5-1.8 1.5-2.7 0-1.1-.4-1.9-1.2-2.4-.7-.5-1.9-.7-3.5-.7H148c-.1 0-.1.1-.1.1v1c0 .1.1.1.1.2l1.3.2c.1 0 .1.1.1.2v9.2c0 .1-.1.1-.1.2H148c-.1 0-.1.1-.1.2v1c0 .1.1.1.1.1h7.1c1.4 0 2.6-.3 3.4-.9.9-.6 1.3-1.5 1.3-2.7 0-1-.4-2.3-2.2-3zm-1.8-2.6c0 .7-.2 1.2-.5 1.5s-.8.5-1.5.5h-1.2c-.1 0-.1-.1-.1-.1v-3.6c0-.1.1-.1.1-.1h1.1c.7 0 1.3.1 1.6.4.4.3.5.7.5 1.4zm-3.3 3.5c0-.1.1-.1.1-.1h1.8c.7 0 1.3.2 1.6.5s.5.9.5 1.6v.2c0 .7-.2 1.2-.5 1.6-.4.4-.9.5-1.6.5h-1.8c-.1 0-.1-.1-.1-.1v-4.2zm18.3-6.1c-.9-.5-2-.8-3.1-.8s-2.2.3-3.1.8c-.9.5-1.7 1.3-2.2 2.3s-.8 2.1-.8 3.3c0 1.2.3 2.4.8 3.3.5 1 1.3 1.7 2.2 2.3.9.5 2 .8 3.1.8s2.2-.3 3.1-.8c.9-.5 1.7-1.3 2.2-2.3s.8-2.1.8-3.3c0-1.2-.3-2.4-.8-3.3-.5-1-1.2-1.8-2.2-2.3zm-6 6.7V125c0-1.2.3-2.2.8-2.9.5-.7 1.2-1 2.1-1 1 0 1.7.3 2.1 1 .5.7.8 1.7.8 2.9v2.2c0 1.2-.3 2.2-.8 2.9s-1.2 1-2.1 1c-1 0-1.7-.3-2.1-1-.5-.7-.8-1.6-.8-2.9zm21.1-6.7c-.9-.5-1.9-.8-3-.8-1 0-1.8.3-2.5.8-.3.2-.5.4-.7.6-.1.1-.1.1-.1 0v-.9c0-.1-.1-.2-.2-.2h-4.3c-.1 0-.2.1-.2.2v.9c0 .1.1.2.2.2l1.2.2c.1 0 .2.1.2.2V137c0 .1-.1.2-.2.2l-1.2.2c-.1 0-.2.1-.2.2v.9c0 .1.1.2.2.2h6.4c.1 0 .2-.1.2-.2v-.9c0-.1-.1-.2-.2-.2l-1.7-.2c-.1 0-.2-.1-.2-.2v-5.5c0-.2.1-.3.3-.1s.4.3.6.5c.7.5 1.5.8 2.5.8 1.1 0 2.1-.3 3-.8s1.6-1.3 2-2.3c.5-1 .7-2.1.7-3.3 0-1.3-.2-2.4-.7-3.3-.5-1.2-1.2-2-2.1-2.5zm-6.3 4.4c0-.7.2-1.3.4-1.9.3-.7.8-1.2 1.4-1.5.4-.2.9-.3 1.4-.3 1.1 0 2.6.4 2.6 3.9v2.2c0 3.4-1.5 3.9-2.6 3.9-.5 0-1-.1-1.4-.4-.6-.4-1.1-.9-1.4-1.6-.3-.6-.4-1.3-.4-2v-2.3zm20.9.8c-.8-.6-2-.9-3.4-.9h-2.5c-.1 0-.1 0-.1-.1v-3.1c0-.1.1-.1.1-.2l1.3-.2c.1 0 .1-.1.1-.2v-1c0-.1 0-.1-.1-.1h-6c-.1 0-.1 0-.1.1v1c0 .1.1.1.1.2l1.3.2c.1 0 .1.1.1.2v9.2c0 .1-.1.1-.1.2H190c-.1 0-.1.1-.1.2v1c0 .1.1.1.1.1h7.1c1.4 0 2.6-.3 3.4-.9.9-.6 1.3-1.6 1.3-2.8.1-1.3-.4-2.3-1.3-2.9zm-6 .6c0-.1 0-.1.1-.1h1.8c.7 0 1.2.2 1.6.6.4.4.6 1 .6 1.8s-.2 1.4-.6 1.8c-.4.4-.9.6-1.6.6h-1.8c-.1 0-.1 0-.1-.1v-4.6z"/><path class="st0" d="M168.6 36.2c3.7 18.1-6.8 35.5-21.4 45.5-8.4 6-18.2 9.9-28.4 12-10.1 2-20.7 2.2-30.8-.1C70.8 90.1 54.4 78.2 50.8 60c-3.7-18.1 6.8-35.5 21.4-45.5 8.4-6 18.2-9.9 28.4-12 10.1-2 20.7-2.2 30.8.1 17.2 3.6 33.6 15.5 37.2 33.6zm-5.3 1.1c-3.9-19.5-23.8-31.2-42.6-32.9-19.5-1.9-40.3 5.1-53.5 19.7-8.5 9.2-13.7 22.3-11.1 34.9 2.4 12.6 12.3 22.6 23.8 27.8 17.9 8.3 39.7 6.7 57-2.6 16.6-8.9 30.4-27.4 26.4-46.9zM75.4 149.1l-.5-.3c-.1.1-.2.2-.4.3V147h-5.3v3.2c-.4 0-.8.1-1.1.1l.1.6c1.1-.1 2.6-.3 4.1-.4v-.5c.9.6 2.1.9 3.5 1 .1-.2.2-.4.4-.5-.9-.1-1.7-.2-2.4-.4.5-.4 1.1-.7 1.6-1zm-2.3.6c-.4-.2-.7-.4-1-.6h2.1c-.3.3-.7.5-1.1.6zm-3.2-1v-.5h3.9v.5h-3.9zm3.9-1.3v.4h-3.9v-.4h3.9zm-3.9 2.6v-.9h1.5c.2.2.4.4.7.6-.8.2-1.5.3-2.2.3zm-1.6-5.7c.4.2.8.4 1.1.7-.6.4-1.4.6-2.1.8.1.1.3.3.3.5 1.6-.4 3.3-1.3 4-2.7l-.4-.2h-1.1v-.5h1.7v-.5h-1.7v-.4h-.6v1.4h-.3l-.5-.1c-.4.5-1 .9-1.6 1.2.1.1.4.3.5.4.2-.3.5-.4.7-.6zm1.6.4c-.3-.2-.8-.5-1.2-.7l.2-.2h1.9l-.9.9z"/><path class="st0" d="M70.5 146.6H73v-.4c.9.5 2 .9 2.9 1.1.1-.2.2-.4.4-.6-1.2-.3-2.6-.8-3.7-1.5.5-.2.9-.4 1.3-.7.6.4 1.2.8 1.6 1.1l.4-.5c-.4-.3-.9-.7-1.5-1.1.5-.5 1-1.1 1.2-1.8l-.4-.2h-3.1v.5h2.6c-.2.4-.5.7-.9 1-.5-.3-.9-.5-1.4-.7l-.4.4c.4.2.8.4 1.2.7-.4.3-.8.4-1.3.6.1.1.1.2.2.3-.1-.1-.2-.2-.4-.3h-.6c-.8.8-2.5 1.6-4.1 2 .1.1.3.4.3.5 1-.3 2-.7 2.9-1.2v.8zm1.2-1.2c.3.3.7.5 1.1.8h-2.2c.5-.3.8-.6 1.1-.8zm13.2-1.9v.6h-1.6v.5h1.6v.5h-1.5v1.9h3.8v-1.9h-1.6v-.5h1.7v-.5h-1.7v-.6h-.7zm-.4 3.1h-.6v-.9h.6v.9zm1.5-1h.6v.9H86v-.9zm-.4 1H85v-.9h.6v.9zm1.8.9h-4.2v.5h1.5l-.2.2c.4.2.9.6 1.2.8l.4-.4c-.2-.2-.6-.5-1-.7h2.3v-.4zm-6.2 2.5v-.6h.7v-.5h-.7v-.5h.8v-.5h-2v.5h.7v.5H80v.5h.7v.6c-.3 0-.7.1-.9.1l.1.5c.6-.1 1.3-.2 2.1-.3v-.5c-.3.1-.5.2-.8.2z"/><path class="st0" d="M87.3 143.2v-.6h-3.7v-.7h-.8v.7H79v3.1c0 1.4 0 3.4-.7 4.8.2.1.4.3.6.4.7-1.5.8-3.7.8-5.2v-2.5h7.6zm-.6 5.6l-.5.2c.4.5.7 1.2.8 1.6l.5-.2c-.1-.5-.4-1.2-.8-1.6zm-1 1.5h-.6c-.2 0-.2 0-.2-.2v-1.4h-.6v1.4c0 .6.1.7.7.7h.8c.4 0 .6-.2.6-1-.2 0-.4-.1-.5-.2 0 .7 0 .7-.2.7zm-2.7 0l.5.2c.3-.4.4-1 .5-1.6l-.5-.1c-.1.6-.2 1.2-.5 1.5z"/><path class="st0" d="M83.3 144.3v-.5h-3.2v.5h.5v2.6H80l.1.5c.6 0 1.4-.1 2.2-.2v3.5h.6v-6.6h.4zm-1.1 1.5h-1.1v-.6h1.1v.6zm-1.1 1.1v-.6h1.1v.6h-1.1zm1.1-2.1h-1.1v-.5h1.1v.5zm20.5-.7c-.2-.5-.6-1.2-1-1.8l-.5.2c.4.6.8 1.4 1 1.9l.5-.3z"/><path class="st0" d="M102.4 148.6c0 1.1-.1 1.6-.3 1.6-.4 0-.7-.6-.9-1.5.6-.7 1-1.5 1.4-2.4l-.7-.2c-.2.6-.5 1.2-.9 1.7-.1-.6-.2-1.4-.2-2.2h2v-.7h-2c0-.9-.1-1.9-.1-2.9h-.7c0 1 0 2 .1 2.9h-1.6v-1.7c.5-.1.9-.3 1.3-.5l-.5-.6c-.7.4-2 .7-3.1 1 .1.2.2.4.2.6.4-.1.9-.2 1.4-.3v1.5h-1.6v.7h1.6v1.7c-.6.2-1.2.3-1.7.4l.2.7c.4-.1 1-.3 1.5-.4v2c0 .1 0 .2-.2.2h-1.1c.1.2.2.5.2.7.7 0 1.1 0 1.4-.1s.4-.3.4-.7v-2.2c.5-.1.9-.3 1.4-.4l-.1-.7c-.4.1-.9.2-1.3.3v-1.5h1.6c.1 1.1.2 2.1.4 2.9-.5.6-1.1 1.1-1.7 1.5l.5.5c.5-.3 1-.8 1.4-1.2.3 1 .7 1.6 1.4 1.6.6 0 .9-.5 1-1.9-.4-.1-.6-.3-.7-.4z"/><path class="st0" d="M96.4 142.2l-.7-.2c-.5 1.5-1.2 3-2.1 4l.4.8c.3-.4.6-.8.9-1.3v5.5h.7v-6.8c.4-.7.6-1.4.8-2zm8.7 8l.6.3c.3-.5.7-1.2.8-1.9l-.6-.1c-.2.6-.5 1.3-.8 1.7zm2.8-1.6c.3.5.6 1.2.7 1.6l.6-.2c-.1-.4-.4-1.1-.7-1.6l-.6.2z"/><path class="st0" d="M114 149.9h-1.9v-.9h1.5v-.6h-1.5v-.8h1.5v-.6h-1.5v-.8h1.7v-.6h-1.7c.2-.3.3-.7.5-1l-.7-.2c-.1.3-.3.8-.5 1.2h-1.1c.2-.3.4-.7.5-1.1l-.7-.2c-.3.9-.9 1.8-1.6 2.4-.1-.1-.2-.3-.2-.4l-.5.2c.1.2.3.5.4.7h-1.4c.6-.6 1.3-1.4 1.8-2.1l-.6-.3c-.3.4-.7.9-1.1 1.4-.2-.2-.3-.3-.6-.5.3-.4.7-.9 1-1.3l-.4-.2h6.3v-2.1h-7.7v2.1h1.2c-.2.4-.5.8-.8 1.2-.2-.1-.3-.2-.4-.3l-.4.4c.5.3 1.1.8 1.4 1.2l-.5.5h-1v.6h1.7v2.8h.7V148h1c.1.2.1.3.2.4l.6-.2c-.1-.4-.3-.8-.6-1.3.2.1.4.3.5.4.1-.1.3-.3.4-.5v4.1h.7v-.4h3.7v-.6zm-3-7h1.7v1H111v-1zm-2.3 0h1.6v1h-1.6v-1zm-2.2 0h1.6v1h-1.6v-1zm5 5.6h-1.2v-.8h1.2v.8zm0-1.4h-1.2v-.8h1.2v.8zm-1.2 1.9h1.2v.8h-1.2v-.8zm15-3.8h-3.1v-1.6c1-.3 2.2-.6 3-1l-.6-.5c-.6.3-1.6.7-2.5.9l-.5-.2v3.3c0 1.2-.1 2.6-.7 3.7-.2-.4-.6-.9-1-1.2l-.6.3c.4.4.8 1 1 1.4l.3-.2c0 .1-.1.1-.1.2.2.1.4.3.5.5 1.1-1.4 1.2-3.3 1.2-4.7v-.4h1.5v5h.7v-5h.9v-.5zm-9 5.2c.2.1.5.3.6.4.5-.5 1.1-1.2 1.4-1.9l-.7-.2c-.2.6-.7 1.2-1.3 1.7z"/><path class="st0" d="M121.1 147.8h-.7v-4h.6v-.6h-.6V142h-.7v1.2h-1.9V142h-.7v1.2h-.8v.6h.8v4h-.9v.7h4.8v-.7zm-3.2-2.5h1.9v.9h-1.9v-.9zm1.8-1.4v.9h-1.9v-.9h1.9zm-1.8 2.9h1.9v1h-1.9v-1zm14.9 1.6h3.6v-.7h-4.2c.1-.3.1-.6.2-.9h4v-.7h-4v-.8h3.1v-.6h-3.1v-.8h3.6v-.7h-2.1c.3-.3.6-.7.9-1.1l-.8-.2c-.2.4-.6.9-.9 1.2l.4.1h-2.9l.3-.1c-.2-.4-.5-.9-.9-1.2l-.6.3c.3.3.6.8.7 1.1h-2v.7h3.5v.8h-3v.6h3v.8h-3.9v.7h3.9c0 .3-.1.6-.2.9h-3.8v.7h3.5c-.5.9-1.5 1.5-3.6 1.8.1.2.3.5.4.6 2.5-.4 3.6-1.2 4.1-2.5h.1c.7 1.5 2 2.2 4.1 2.5.1-.2.3-.5.4-.7-2-.2-3.2-.7-3.8-1.8zm14.3-.4l-.5-.4c-.2.1-.3.3-.5.4v-3.2c.4.3.9.5 1.3.7.1-.2.3-.5.5-.6-1.5-.6-3.2-1.7-4.3-2.9h-.7c-.8 1.1-2.4 2.3-4.1 3 .2.2.3.4.4.6.4-.2.9-.4 1.3-.7v5.2c-.4 0-.8.1-1.1.1l.1.7c1.1-.1 2.7-.3 4.3-.4v-.7c-.9.1-1.7.2-2.5.2v-2h1.5c.8 1.6 2.4 2.5 4.5 2.8.1-.2.3-.5.4-.6-1.1-.2-2-.4-2.8-.9.7-.3 1.5-.8 2.2-1.3zm-4-5.4c.6.7 1.5 1.4 2.5 2h-2.1v-1h-.8v1h-2.1c1.1-.6 2-1.4 2.5-2zm-2 2.6h4.1v.8h-4.1v-.8zm0 1.4h4.1v.9h-4.1v-.9zm2.3 1.4h2.5c-.5.3-1.1.7-1.6 1-.4-.3-.7-.6-.9-1z"/></svg>