<svg xmlns="http://www.w3.org/2000/svg" viewBox="0 0 180 24.9"><path d="M75.3 12.6C75.3 5.7 80.9 0 87.6 0c7.1 0 12.5 5.5 12.6 12.8 0 6.5-5.6 12.1-12.2 12.1-7.1.1-12.6-5.4-12.7-12.3zm12.4 6.5c3.5.5 6.6-3.1 6.7-6.2.2-4.1-3.1-7-6.6-7.1-3.7 0-6.6 2.9-6.8 6.6-.1 3.3 3.1 7.1 6.7 6.7zm74.6 5.1V.9c.3 0 .5-.1.8-.1h8.5c4.3.1 7.3 3.2 6.8 7.3-.2 1.3-1 2.5-1.4 3.6.6.7 1.5 1.5 2.1 2.4 2.5 4.2-.2 9.5-5.3 10-3.8.4-7.6.1-11.5.1zm5.2-4.9c1.6 0 3.1.1 4.5 0 1.1-.1 1.7-.8 1.8-2 .1-1.6-.3-2.5-1.4-2.7-1.6-.2-3.2-.2-4.9-.3v5zm0-9.5c1.4-.1 2.6-.1 3.8-.3.9-.2 1.3-.9 1.3-1.8 0-1-.5-1.7-1.3-1.9-1.2-.2-2.5 0-3.8 0v4zM8.1 17.2H5.3v7H0V.6h8.6c1 0 2 .1 2.9.3 3.3.5 5.3 2.4 6.2 5.5.9 3.4.1 6.4-2.6 8.8-.5.5-1.1.8-1.8 1.3 1.4 2.5 2.9 5 4.4 7.7H12c-1.3-2.3-2.6-4.6-3.9-7zm-2.9-4.4c1.6 0 3 .1 4.5 0 1.7-.1 2.8-1.4 3-3 .2-1.9-.7-3.6-2.3-3.9-1.6-.4-3.4-.2-5.2-.3v7.2zM140.6.8h5.3v15.1c0 1.5.5 2.8 1.9 3.6 1.5.7 3 .7 4.5-.3 1.2-.8 1.4-2 1.4-3.3V.9h5.1c0 .3.1.7.1 1v13.6c0 2.8-.9 5.3-3.2 7.1-3 2.3-10 2.8-13.4-1.3-1.4-1.7-1.7-3.7-1.8-5.8-.1-4.7 0-9.5 0-14.2 0-.2.1-.3.1-.5zM52.7.6v4.9c-.6 0-1.2.1-1.8.1-1.9 0-3.8 0-5.7.1-1.7.1-2.3.8-2 2.8.6.3 1.3.7 2 1 1.6.6 3.3 1 4.9 1.6 3.2 1.3 4.6 3.5 4.3 6.6-.2 2.8-2.3 5.3-5.2 6-1.5.4-3 .5-4.6.5-2.3-.1-4.6-.4-7.1-.6.1-1.5.2-2.9.3-4.4 1.1.1 2.2.1 3.2.2 1.5 0 3.1.1 4.6 0 .8-.1 1.7-.4 2.2-.9 1.1-1 .7-2.8-.8-3.3-1.9-.7-3.7-1.2-5.6-1.9-2.4-.8-3.9-2.4-4.1-5-.2-2.8.8-5.1 3.3-6.6C42.3.7 44.3.6 46.2.5c2.3 0 4.3.1 6.5.1zM21.3 24.2V.9h13.2v4.8h-7.9V10h7.1v4.3h-7.2v5.2h7.9v4.8c-4.4-.1-8.7-.1-13.1-.1zm98-4.7v4.4c-.6.1-1.1.2-1.6.2-2.3 0-4.6.3-6.9 0-4.2-.6-6.7-3.3-7.8-7.3-.9-3.3-.7-6.7.5-9.9 1.5-4 4.6-5.9 8.7-6.1 2.4-.2 4.7 0 7.1 0v4.9H115c-.9 0-1.9 0-2.8.2-2.4.6-3.3 2.5-3.5 4.7-.1 1.7 0 3.6.3 5.3.4 2.3 2 3.5 4.4 3.6 1.5.1 3 0 4.5 0 .4-.1.9-.1 1.4 0zM73.7.8v4.8h-6.1v18.5h-5.5V5.6H56V.8h17.7zm48.9 0h5.1v18.6h10.5v4.8h-15.7c.1-7.8.1-15.6.1-23.4z" fill="#b40f27"/></svg>