<svg xmlns="http://www.w3.org/2000/svg" viewBox="0 0 150 40.9"><path d="M17.3 0C7.4 0-.1 5.9 0 16.1h9.2C9.1 12 11.7 8 17.3 8c4.2 0 6.9 2.7 6.9 6.2 0 3.6-2.9 5.6-7.6 7.8-6.3 3-9.9 4.3-16.6 6.5v11.8h34.3v-8.1H12.4c3.2-1.3 6.3-2.7 9.1-4 7.4-3.5 11.8-7.4 11.8-14.4 0-8.4-6.4-13.8-16-13.8zm30.9 8.7H66V.6H39.4v39.7h8.9V8.7zM80 .6h-8.9v39.7h8.8l16.6-25.4v25.4h8.9V.6h-8.9L80 26V.6zm70 24.8h-9.2c-1.4 4.4-5.6 7.4-10.7 7.4-7.3 0-12.1-6.1-12.1-12.4S122.6 8 130.3 8c5.1 0 9 3 10.4 7.4h9.2C148.7 6.6 141.5 0 130.1 0c-12.6 0-20.9 8.6-20.9 20.5S117.6 41 130.1 41c11.4-.1 18.6-6.6 19.9-15.6z" fill-rule="evenodd" clip-rule="evenodd" fill="#262626"/></svg>