<svg xmlns="http://www.w3.org/2000/svg" viewBox="0 0 214.9 150.9"><path d="M145.8 41.1c-.7-.7-2.5-2.5-5.7-3.5h-.4c-1.5.8-11 5.7-39.7 11.4l.6-1.6c1.9-4.5 3.9-8.9 5.8-13.4 1.2-2.6 7.9-16.7 17.4-16.7.6 0 2.8-.1 3.8 1.8 1.4 2.6.8 11-5.6 17.4-2.9 3-5.1 4-6.4 4.1-.8 0-1.5-.5-1.5-1.3v-.2c.2-2.5 1.8-4.2 2.7-5.2.1-.2.1-.3-.1-.3-.5-.1-.9-.1-1.5-.1-2 0-3.6.4-4.8.8-.3.1-.6.3-.8.6-.5.7-1.4 2.3-1.2 4.1.4 2.3 4.1 7.1 16.5.2 5.7-3.2 9.3-8.1 10-14 .6-4.8-2.1-14.2-17.1-9.4-13.4 4.2-19.3 16.1-20.3 18.4L91 49.1l-.8 1.7c-13.7 4.3-15.5 11.4-15.6 13v.4c0 1.4.3 2.3.3 2.3 1.4 3.6 6.4 4.7 12.1 1.1 5.2-3.3 8.5-9.6 10.6-14.2.1-.1.5-1 .7-1.3.4-.1.8-.1 1.1-.2 1.5-.3 4.8-.7 4.8-.7-.8 2.1-2.8 7-5 12.4-3.6 9.3-4.6 13.3-9.2 17.4-.9.8-1.9 1.3-2.7 1.7-.1 0-.1.1-.1.1l-.3.7c0 .1 0 .2.1.2 1.7-.3 3.7-.8 5.8-1.7 8.4-3.7 11.9-11.4 12.8-13.8 2.5-5.7 4.9-11.3 7.4-17 .1-.2 0-.3-.2-.4-.6-.1-1.1-.2-1.5-.3-.5-.1-.5-.2 0-.3.7-.1 1.7-.3 2.3-.4l1.5-.3 1.8-.3c.7-.1 1.3-.3 1.9-.4 2.7-.5 5.3-1.1 7.8-1.7 1-.2 2.1-.5 3.1-.7 5.8-1.5 11-3.1 16-4.8.2-.1.3-.3.1-.5zm-58 16.6c0 .1-.1.1 0 0-1.2 2.3-2.5 4.6-4 6.1-2.1 2-4.4 2.4-5.3 1.8-1-.7-1.7-3.6 3.9-7.6 2.7-1.9 6.3-3.3 9.6-4.2 1.2-.3 1.3-.1.2.5-3.1 1.5-4.3 3.2-4.4 3.4z" fill="#e3b48b"/><path d="M124.8 50.1c-3.5.6-5.5 1.4-6.6 1.9-.7.4-1.2.9-1.5 1.6l-4.2 10s-2.5 6.4-3.4 8.3c-.7 1.6-2 3.5-3.1 4.4-.1.1-.2.2-.2.3l-.2.7c-.1.2 0 .2.2.2.4-.2.8-.3 1.3-.5 8.4-3.7 11.7-11.7 12.7-14l5.4-12.4c.1-.4-.1-.5-.4-.5zm90 75.3c.1 0 .1 0 0 0 .1-.3.1-.9 0-1-.1-.8-.3-1.5-.7-2.2-.5-.8-1.1-1.4-1.9-1.9-.8-.5-1.7-.7-2.7-.7-1.1 0-2.2.3-3.1.8-.9.5-1.7 1.3-2.2 2.3-.5 1-.8 2.1-.8 3.3 0 1.3.3 2.4.8 3.4.6 1 1.3 1.7 2.3 2.3 1 .5 2 .8 3.2.8 1.3 0 2.4-.4 3.4-1.1.8-.6 1.4-1.5 1.7-2.5 0-.1.1-.5.2-.7 0-.1 0-.1-.1-.1h-1.2c-.1 0-.1 0-.1.1 0 .2-.1.5-.1.6-.2.6-.6 1.2-1.2 1.6-.7.5-1.5.8-2.5.8s-1.7-.3-2.2-1c-.5-.7-.8-1.7-.8-2.9v-1.7c0-.1 0-.1.1-.1h7.9zm-3.3-1.4h-4.7s-.1 0-.1-.1c.1-.8.4-1.5.8-2 .5-.6 1.1-.9 2-.9.7 0 1.2.2 1.5.7.3.6.5 1.3.5 2.3.1 0 0 0 0 0zm-159.8 4.7c-.2.7-.6 1.3-1.2 1.7-.7.5-1.5.8-2.4.8-1 0-1.7-.3-2.1-1-.5-.7-.8-1.7-.8-2.9V125c0-1.3.3-2.3.8-3 .5-.7 1.2-1 2.1-1 .6 0 1.1.1 1.5.4.3.3.5.6.5 1 0 .2 0 .4-.1.5 0 .1-.1.1-.1.2 0 0-.2.2-.3.2l-.1.1v.3c0 .4.2.8.5 1.1.4.4.8.5 1.3.5s1-.2 1.3-.5c.3-.3.5-.8.5-1.4 0-.7-.2-1.4-.7-2-.5-.6-1.1-1-1.8-1.3-.7-.3-1.6-.5-2.5-.5-1.1 0-2.1.3-3 .8-.9.5-1.7 1.3-2.3 2.2-.6 1-.9 2.1-.9 3.4 0 1.2.3 2.4.8 3.3.6 1 1.3 1.7 2.2 2.3.9.5 2 .8 3.1.8 1.3 0 2.4-.4 3.3-1.1.8-.6 1.4-1.5 1.6-2.5 0-.1.1-.5.1-.7 0-.1 0-.1-.1-.1h-1.2c-.1 0-.1 0-.1.1.2.2.1.5.1.6zm-39.1-13.6c-1.1-1-2.9-1.5-5.2-1.5H.1c-.1 0-.1 0-.1.1v1.1c0 .1 0 .1.1.1l1.8.3c.1 0 .1.1.1.2v15.2c0 .1-.1.1-.1.2l-1.8.2c-.1 0-.1.1-.1.2v1c0 .1.1.1.1.1h7.2c.1 0 .1-.1.1-.1v-1c0-.1-.1-.1-.1-.2l-1.8-.3c-.1 0-.1-.1-.1-.2v-5.1c0-.1 0-.1.1-.1h2c2.3 0 4-.5 5.2-1.5 1.2-1 1.8-2.5 1.8-4.4-.1-1.8-.7-3.3-1.9-4.3zm-7.2 0c0-.1 0-.1.1-.1h1.6c2.5 0 3.7 1.3 3.7 4v.9c0 2.8-1.2 4.1-3.7 4.1H5.5c-.1 0-.1 0-.1-.1v-8.8zm18.7 6.1l1.6.5v.1l-2.1 6.1c0 .1-.1.1-.1 0l-3-6.3v-.1l1.2-.2c.1 0 .1-.1.1-.2v-1c0-.1 0-.1-.1-.1h-6.2c-.1 0-.1 0-.1.1v1c0 .1.1.1.1.2l1.4.2c.1 0 .1.1.2.1l4.9 10.5v.2l-1.3 3.6c-.2.7-.4.9-.6 1.1-.2.2-.4.2-.6.2-.2 0-.3-.1-.4-.2-.1-.1-.2-.2-.2-.4 0-.3.1-.5.3-.7l.1-.1v-.2l-.1-.1c-.2-.3-.4-.5-.7-.7-.3-.2-.6-.2-1-.2-.5 0-.9.2-1.3.5-.3.4-.5.8-.5 1.4 0 .8.3 1.4.9 1.9.6.4 1.3.7 2.1.7.9 0 1.7-.2 2.2-.7.5-.5.9-1.1 1.2-2.1l4.9-14.2c0-.1.1-.1.1-.1l1.4-.5c.1 0 .1-.1.1-.1v-1c0-.1 0-.1-.1-.1h-4.7c-.1 0-.1 0-.1.1v1c.3-.3.4-.3.4-.2zm14.6 7.5c-.2.7-.6 1.3-1.2 1.7-.7.5-1.5.8-2.4.8-1 0-1.7-.3-2.1-1-.5-.7-.8-1.7-.8-2.9V125c0-1.3.3-2.3.8-3 .5-.7 1.2-1 2.1-1 .6 0 1.1.1 1.5.4.3.3.5.6.5 1 0 .2 0 .4-.1.5 0 .1-.1.1-.1.2 0 0-.2.2-.3.2l-.1.1v.3c0 .4.2.8.5 1.1.4.4.8.5 1.3.5s1-.2 1.3-.5c.3-.3.5-.8.5-1.4 0-.7-.2-1.4-.7-2-.5-.6-1.1-1-1.8-1.3-.7-.3-1.6-.5-2.5-.5-1.1 0-2.1.3-3 .8-.9.5-1.7 1.3-2.3 2.2-.6 1-.9 2.1-.9 3.4 0 1.2.3 2.4.8 3.3.6 1 1.3 1.7 2.2 2.3.9.5 2 .8 3.1.8 1.3 0 2.4-.4 3.3-1.1.8-.6 1.4-1.5 1.6-2.5 0-.1.1-.5.1-.7 0-.1 0-.1-.1-.1H39c-.1 0-.1 0-.1.1-.1.2-.1.5-.2.6zm27.5 2c-.1 0-.1 0-.1-.1 0 0-.1-.2-.3-.8l-.4-1.9c-.2-.9-.5-1.6-1-2-.4-.3-.9-.6-1.6-.7 0 0-.1 0 0-.1.1-.3.3-.6.4-1l.4-1.6c.1-.3.2-.3.3-.3.1 0 .1 0 .1.1 0 0 .1.1.1.2s-.1.4-.1.5c0 .1 0 .1.1.1l.2.1c.2.1.5.1.7.2.6 0 1.1-.2 1.5-.6.3-.4.5-.8.5-1.3 0-.3-.1-.6-.3-.9-.4-.6-1-1-1.9-1-.8 0-1.4.2-1.7.7-.4.4-.6 1-.8 1.8l-.4 1.6c-.2.6-.3.9-.5 1-.1.2-.4.2-.6.3h-1.6c-.1 0-.1-.1-.1-.1v-3.4c0-.1.1-.2.1-.2l1.3-.2c.1 0 .1-.1.1-.2v-1c0-.1 0-.1-.1-.1h-6.1c-.1 0-.1 0-.1.1v1c0 .1.1.1.1.2l1.3.2c.1 0 .1.1.1.2v9.1c0 .1-.1.2-.1.2l-1.3.2c-.1 0-.1.1-.1.2v1c0 .1 0 .1.1.1h6.1c.1 0 .1 0 .1-.1v-1c0-.1-.1-.1-.1-.2l-1.3-.2c-.1 0-.1-.1-.1-.2v-4.1c0-.1.1-.1.1-.1h1.5c.4 0 .8.1 1 .3.2.2.4.6.5 1.2l.4 2.4c.1.8.4 1.3.8 1.6.4.3 1 .5 1.7.5.4 0 .9-.1 1.3-.3.4-.2 1.1-.9 1.3-1.1v-.2l-.8-.8h-.1c-.1.4-.5.7-.6.7zm11.3-10.2c-.9-.5-2-.8-3.1-.8s-2.2.3-3.1.8c-.9.5-1.7 1.3-2.2 2.3-.5 1-.8 2.1-.8 3.3 0 1.2.3 2.4.8 3.3.5 1 1.3 1.7 2.2 2.3.9.5 2 .8 3.1.8s2.2-.3 3.1-.8c.9-.5 1.7-1.3 2.2-2.3.5-1 .8-2.1.8-3.3 0-1.2-.3-2.4-.8-3.3-.5-1-1.2-1.8-2.2-2.3zm-6 6.7V125c0-1.2.3-2.2.8-2.9.5-.7 1.2-1 2.1-1 1 0 1.7.3 2.1 1 .5.7.8 1.7.8 2.9v2.2c0 1.2-.3 2.2-.8 2.9-.5.7-1.2 1-2.1 1-1 0-1.7-.3-2.1-1-.5-.7-.8-1.6-.8-2.9zm22.4-1.8s.1 0 0 0c.1-.3.1-.9 0-1-.1-.8-.3-1.5-.7-2.2-.5-.8-1.1-1.4-1.9-1.9-.8-.5-1.7-.7-2.7-.7-1.1 0-2.2.3-3.1.8-.9.5-1.7 1.3-2.2 2.3-.5 1-.8 2.1-.8 3.3 0 1.3.3 2.4.8 3.4.6 1 1.3 1.7 2.3 2.3 1 .5 2 .8 3.2.8 1.3 0 2.4-.4 3.4-1.1.8-.6 1.4-1.5 1.7-2.5 0-.1.1-.5.2-.7 0-.1 0-.1-.1-.1h-1.2c-.1 0-.1 0-.1.1 0 .2-.1.5-.1.6-.2.6-.6 1.2-1.2 1.6-.7.5-1.5.8-2.5.8s-1.7-.3-2.2-1c-.5-.7-.8-1.7-.8-2.9v-1.7c0-.1 0-.1.1-.1h7.9zm-3.3-1.4h-4.7s-.1 0-.1-.1c.1-.8.4-1.5.8-2 .5-.6 1.1-.9 2-.9.7 0 1.2.2 1.5.7.3.6.5 1.3.5 2.3zm11.5-9.1l1.8.3c.1 0 .1.1.1.2v15.2c0 .1-.1.1-.1.2l-1.8.3c-.1 0-.1.1-.1.2v1c0 .1 0 .1.1.1h7.2c.1 0 .1 0 .1-.1v-1c0-.1-.1-.1-.1-.2l-1.8-.3c-.1 0-.1-.1-.1-.2v-15.4c0-.1 0-.1.1-.1h7.2c.1 0 .1 0 .1.1v15.4c0 .1-.1.1-.1.2l-1.8.3c-.1 0-.1.1-.1.2v1c0 .1 0 .1.1.1h7.2c.1 0 .1 0 .1-.1v-1c0-.1-.1-.1-.1-.2l-1.8-.3c-.1 0-.1-.1-.1-.2v-15.2c0-.1.1-.1.1-.2l1.8-.3c.1 0 .1-.1.1-.2v-1c0-.1 0-.1-.1-.1H102c-.1 0-.1 0-.1.1v1c0 .1.1.2.2.2zm30.6 7.9c-.5-1-1.3-1.7-2.2-2.3-.9-.5-2-.8-3.1-.8s-2.2.3-3.1.8c-.9.5-1.7 1.3-2.2 2.3-.5 1-.8 2.1-.8 3.3 0 1.2.3 2.4.8 3.3.5 1 1.3 1.7 2.2 2.3.9.5 2 .8 3.1.8s2.2-.3 3.1-.8c.9-.5 1.7-1.3 2.2-2.3.5-1 .8-2.1.8-3.3 0-1.2-.3-2.4-.8-3.3zm-8.3 4.4V125c0-1.2.3-2.2.8-2.9.5-.7 1.2-1 2.1-1 1 0 1.7.3 2.1 1 .5.7.8 1.7.8 2.9v2.2c0 1.2-.3 2.2-.8 2.9-.5.7-1.2 1-2.1 1-1 0-1.7-.3-2.1-1-.5-.7-.8-1.6-.8-2.9zm20.4 3.6v-9.3c0-.1.1-.1.1-.2l1.3-.2c.1 0 .1-.1.1-.2v-1c0-.1-.1-.1-.1-.1h-10.8c-.1 0-.1.1-.1.1v.9c0 .1 0 .1.1.1l1.8.9c.1 0 .1.1.1.2l-.2 2.3c-.1 1.5-.2 2.7-.3 3.4-.1.7-.3 1.3-.5 1.7-.2.5-.5.8-.7 1.1-.2.2-.5.3-.7.3h-1c-.1 0-.1 0-.1.1l-.4 4.9s0 .1.1.1h1.2c.1 0 .1 0 .1-.1l1.8-3.5c0-.1.1-.1.1-.1h6.5c.1 0 .1 0 .1.1l1.9 3.5c0 .1.1.1.1.1h1.2s.1 0 .1-.1l-.4-4.9c0-.1-.1-.1-.1-.1h-1.3c0 .1 0 0 0 0zm-6.6-2.8c.1-.8.3-2 .4-3.5l.2-3c0-.1.1-.1.1-.1h2.7c.1 0 .1 0 .1.1v9.4c0 .1 0 .1-.1.1h-4.2c-.1 0-.1 0-.1-.1.2-.2.3-.5.4-.8.2-.7.4-1.3.5-2.1zm19.4-2.3c-.1 0-.1-.1 0 0 1.2-.8 1.5-1.8 1.5-2.7 0-1.1-.4-1.9-1.2-2.4-.7-.5-1.9-.7-3.5-.7H148c-.1 0-.1.1-.1.1v1c0 .1.1.1.1.2l1.3.2c.1 0 .1.1.1.2v9.2c0 .1-.1.1-.1.2H148c-.1 0-.1.1-.1.2v1c0 .1.1.1.1.1h7.1c1.4 0 2.6-.3 3.4-.9.9-.6 1.3-1.5 1.3-2.7 0-1-.4-2.3-2.2-3zm-1.8-2.6c0 .7-.2 1.2-.5 1.5-.3.3-.8.5-1.5.5h-1.2c-.1 0-.1-.1-.1-.1v-3.6c0-.1.1-.1.1-.1h1.1c.7 0 1.3.1 1.6.4.4.3.5.7.5 1.4zm-3.3 3.5c0-.1.1-.1.1-.1h1.8c.7 0 1.3.2 1.6.5.3.3.5.9.5 1.6v.2c0 .7-.2 1.2-.5 1.6-.4.4-.9.5-1.6.5h-1.8c-.1 0-.1-.1-.1-.1v-4.2zm18.3-6.1c-.9-.5-2-.8-3.1-.8s-2.2.3-3.1.8c-.9.5-1.7 1.3-2.2 2.3-.5 1-.8 2.1-.8 3.3 0 1.2.3 2.4.8 3.3.5 1 1.3 1.7 2.2 2.3.9.5 2 .8 3.1.8s2.2-.3 3.1-.8c.9-.5 1.7-1.3 2.2-2.3.5-1 .8-2.1.8-3.3 0-1.2-.3-2.4-.8-3.3-.5-1-1.2-1.8-2.2-2.3zm-6 6.7V125c0-1.2.3-2.2.8-2.9.5-.7 1.2-1 2.1-1 1 0 1.7.3 2.1 1 .5.7.8 1.7.8 2.9v2.2c0 1.2-.3 2.2-.8 2.9-.5.7-1.2 1-2.1 1-1 0-1.7-.3-2.1-1-.5-.7-.8-1.6-.8-2.9zm21.1-6.7c-.9-.5-1.9-.8-3-.8-1 0-1.8.3-2.5.8-.3.2-.5.4-.7.6-.1.1-.1.1-.1 0v-.9c0-.1-.1-.2-.2-.2h-4.3c-.1 0-.2.1-.2.2v.9c0 .1.1.2.2.2l1.2.2c.1 0 .2.1.2.2V137c0 .1-.1.2-.2.2l-1.2.2c-.1 0-.2.1-.2.2v.9c0 .1.1.2.2.2h6.4c.1 0 .2-.1.2-.2v-.9c0-.1-.1-.2-.2-.2l-1.7-.2c-.1 0-.2-.1-.2-.2v-5.5c0-.2.1-.3.3-.1.2.2.4.3.6.5.7.5 1.5.8 2.5.8 1.1 0 2.1-.3 3-.8.9-.5 1.6-1.3 2-2.3.5-1 .7-2.1.7-3.3 0-1.3-.2-2.4-.7-3.3-.5-1.2-1.2-2-2.1-2.5zm-6.3 4.4c0-.7.2-1.3.4-1.9.3-.7.8-1.2 1.4-1.5.4-.2.9-.3 1.4-.3 1.1 0 2.6.4 2.6 3.9v2.2c0 3.4-1.5 3.9-2.6 3.9-.5 0-1-.1-1.4-.4-.6-.4-1.1-.9-1.4-1.6-.3-.6-.4-1.3-.4-2v-2.3zm20.9.8c-.8-.6-2-.9-3.4-.9h-2.5c-.1 0-.1 0-.1-.1v-3.1c0-.1.1-.1.1-.2l1.3-.2c.1 0 .1-.1.1-.2v-1c0-.1 0-.1-.1-.1h-6c-.1 0-.1 0-.1.1v1c0 .1.1.1.1.2l1.3.2c.1 0 .1.1.1.2v9.2c0 .1-.1.1-.1.2H190c-.1 0-.1.1-.1.2v1c0 .1.1.1.1.1h7.1c1.4 0 2.6-.3 3.4-.9.9-.6 1.3-1.6 1.3-2.8.1-1.3-.4-2.3-1.3-2.9zm-6 .6c0-.1 0-.1.1-.1h1.8c.7 0 1.2.2 1.6.6.4.4.6 1 .6 1.8s-.2 1.4-.6 1.8c-.4.4-.9.6-1.6.6h-1.8c-.1 0-.1 0-.1-.1v-4.6zm-112.6 20c0 1.9-1.1 2.7-3.1 2.7h-.9c-.1 0-.1 0-.1.1v1.5c0 .1 0 .1-.1.1h-1.5c-.1 0-.1 0-.1-.1v-6.9c0-.1 0-.1.1-.1h2.7c2 .1 3 1 3 2.7zm-1.8.1c0-.8-.4-1.2-1.3-1.2h-.9c-.1 0-.1 0-.1.1v2.1c0 .1 0 .1.1.1h.9c.9 0 1.3-.4 1.3-1.1zm3.7-2.7h5.1c.1 0 .1 0 .1.1v1.3c0 .1 0 .1-.1.1h-3.4c-.1 0-.1 0-.1.1v1.1c0 .1 0 .1.1.1h2.9c.1 0 .1 0 .1.1v1.2c0 .1 0 .1-.1.1h-2.9c-.1 0-.1 0-.1.1v1c0 .1 0 .1.1.1H89c.1 0 .1 0 .1.1v1.3c0 .1 0 .1-.1.1h-5.3c-.1 0-.1 0-.1-.1v-6.9c.1.1.1.1.2.1zm6.9 3.7c-.1-2.2 1.5-3.8 3.7-3.9 1.3 0 2.4.5 3.1 1.3v.2l-1.2 1h-.2c-.3-.4-.9-.8-1.6-.8-1.2 0-2 .8-2 2 0 1.3.8 2.1 2 2.1.7 0 1.3-.3 1.6-.8 0 0 .1-.1.2 0l1.2 1s.1.1 0 .2c-.7.8-1.7 1.3-3 1.3-2.3-.1-3.7-1.4-3.8-3.6zm10.4-2.1h-1.9c-.1 0-.1 0-.1-.1v-1.4c0-.1 0-.1.1-.1h5.9c.1 0 .1 0 .1.1v1.4c0 .1 0 .1-.1.1h-1.9c-.1 0-.1 0-.1.1v5.2c0 .1 0 .1-.1.1h-1.6c-.1 0-.1 0-.1-.1v-5.2c-.1 0-.1-.1-.2-.1zm5.5 1.9c0-2.2 1.5-3.7 3.8-3.7s3.8 1.5 3.8 3.7-1.5 3.7-3.8 3.7-3.8-1.5-3.8-3.7zm5.8 0c0-1.2-.8-2.1-2-2.1s-2 .8-2 2.1c0 1.2.8 2 2 2 1.2.1 2-.7 2-2zm9.6-.9c0 1.9-1.1 2.7-3.1 2.7h-.9c-.1 0-.1 0-.1.1v1.5c0 .1 0 .1-.1.1h-1.5c-.1 0-.1 0-.1-.1v-6.9c0-.1 0-.1.1-.1h2.7c2 .1 3 1 3 2.7zm-1.8.1c0-.8-.4-1.2-1.3-1.2h-.9c-.1 0-.1 0-.1.1v2.1c0 .1 0 .1.1.1h.8c1 0 1.4-.4 1.4-1.1zm7.6 3.2h-2.6c-.1 0-.1 0-.1.1l-.4 1c0 .1-.1.1-.1.1H123c-.1 0-.1-.1-.1-.2l3.1-6.8c0-.1.1-.1.1-.1h1c.1 0 .1 0 .1.1l3.1 6.8c0 .1 0 .2-.1.2h-1.6c-.1 0-.1 0-.2-.1l-.4-1c-.1-.1-.1-.1-.2-.1zm-2-1.4h1.4c.1 0 .1-.1.1-.2l-.3-.8-.4-1.2c0-.1-.1-.1-.1 0l-.4 1.2-.3.8c-.2.1-.1.2 0 .2zm6.3-4.5h1.5c.1 0 .1 0 .1.1v2.8c0 .1 0 .1.1.1h2.6c.1 0 .1 0 .1-.1v-2.8c0-.1 0-.1.1-.1h1.5c.1 0 .1 0 .1.1v6.9c0 .1 0 .1-.1.1h-1.5c-.1 0-.1 0-.1-.1v-2.2c0-.1 0-.1-.1-.1h-2.6c-.1 0-.1 0-.1.1v2.2c0 .1 0 .1-.1.1h-1.5c-.1 0-.1 0-.1-.1v-6.9c0-.1 0-.1.1-.1z" fill="#e3b48b"/><path d="M168.6 36.2c3.7 18.1-6.8 35.5-21.4 45.5-8.4 6-18.2 9.9-28.4 12-10.1 2-20.7 2.2-30.8-.1C70.8 90.1 54.4 78.2 50.8 60c-3.7-18.1 6.8-35.5 21.4-45.5 8.4-6 18.2-9.9 28.4-12 10.1-2 20.7-2.2 30.8.1 17.2 3.6 33.6 15.5 37.2 33.6zm-5.3 1.1c-3.9-19.5-23.8-31.2-42.6-32.9-19.5-1.9-40.3 5.1-53.5 19.7-8.5 9.2-13.7 22.3-11.1 34.9 2.4 12.6 12.3 22.6 23.8 27.8 17.9 8.3 39.7 6.7 57-2.6 16.6-8.9 30.4-27.4 26.4-46.9z" fill="#e3b48b"/></svg>