<svg id="Layer_1" xmlns="http://www.w3.org/2000/svg" version="1.1" viewBox="0 0 214.51 165.9"><defs><style>.st0{fill:#012e23}</style></defs><path class="st0" d="M109.49 79.48l-12.92-4.15-3.26 4.89 1.91 1.27 2.3-3.45 11.35 3.65v3.56h2.29v-3.56l11.35-3.65 2.3 3.45 1.91-1.27-3.26-4.89-12.92 4.15c-.34.11-.7.11-1.04 0zm-1.33-36.22c-1.04 1.03-1.04 2.61-.04 3.72.17.19.28.56.24.81-.29 1.73-.64 3.46-.97 5.22h5.24c-.33-1.75-.64-3.46-.99-5.17-.08-.37-.05-.61.24-.9 1.04-1.04 1-2.68-.04-3.7-1.01-.98-2.68-.98-3.67 0zm1.85-33.55c2.42 0 4.64-.89 6.25-2.42a8.33 8.33 0 002.62-6.14V0h-17.75v1.15c0 2.45 1 4.62 2.62 6.14 1.62 1.53 3.84 2.42 6.25 2.42zm4.68-4.09c-1.18 1.12-2.83 1.8-4.68 1.8-1.85 0-3.5-.68-4.68-1.8a6.066 6.066 0 01-1.8-3.33h12.95a5.97 5.97 0 01-1.8 3.33z"/><path class="st0" d="M140.03 28.29l-.98-.37c-.7 1.82-1.39 3.64-2.09 5.46-.6 1.58-1.12 3.04-1.81 4.23-.34.6-.73 1.13-1.18 1.59-.45.47-.98.87-1.64 1.21-.39.2-.78.36-1.19.5l1.52-6.46c.21-.87.3-1.75.3-2.61 0-2.8-1.04-5.43-2.81-7.46-.88-1.01-1.95-1.87-3.16-2.52l1.12-4.76 3.17.48.34-2.27-21.05-3.15c-.33-.05-.67-.05-1 0L88.4 15.31l.34 2.27 2.6-.39 1.16 4.96c-1 .61-1.89 1.36-2.64 2.23a11.329 11.329 0 00-2.81 7.46c0 .86.1 1.73.3 2.61l1.52 6.47c-.41-.13-.81-.3-1.19-.5-.66-.34-1.18-.75-1.64-1.21-.68-.7-1.2-1.55-1.67-2.54s-.87-2.11-1.32-3.29c-.7-1.82-1.39-3.64-2.09-5.46l-.98.38-4.97 1.89.81 2.14 3.82-1.45c.42 1.11.85 2.21 1.27 3.32.59 1.54 1.13 3.1 1.96 4.56.42.73.91 1.42 1.53 2.05.61.63 1.35 1.19 2.22 1.64.91.47 1.86.79 2.84.97l5.66 24.12a7.087 7.087 0 004.73 5.13l9.58 3.1c.34.11.7.11 1.04 0l9.69-3.1a7.097 7.097 0 004.74-5.14l5.66-24.11c.97-.18 1.93-.5 2.84-.97.87-.45 1.61-1.01 2.22-1.64.92-.95 1.57-2.04 2.1-3.16.53-1.13.94-2.29 1.39-3.45.42-1.11.85-2.21 1.27-3.32l3.82 1.45.81-2.14-4.97-1.89zm-29.46-13.81l15.27 2.29-.99 4.22c-.6-.18-1.22-.31-1.87-.39-4.16-.51-8.85-.93-13.03-.93-4.15 0-8.8.42-12.92.92-.84.1-1.64.3-2.41.57l-1.01-4.3 15.95-2.38c.33-.05.67-.05 1 0zM110 33.99c1.7 0 3.41.55 4.86 1.67l5.78 4.43-5.73 23.76a4.802 4.802 0 01-4.67 3.68h-.47c-2.22 0-4.15-1.52-4.67-3.68l-5.73-23.76 5.78-4.43a8.028 8.028 0 014.85-1.67zm6.26-.15a10.278 10.278 0 00-6.25-2.14c-2.19 0-4.39.72-6.24 2.14l-4.97 3.81-.67-2.77a10.374 10.374 0 011.98-8.91c1.44-1.8 3.47-3.12 5.91-3.61 1.25-.25 2.57-.4 3.95-.4 1.41 0 2.77.16 4.05.42 2.44.5 4.48 1.82 5.92 3.62a10.374 10.374 0 011.98 8.91l-.66 2.76-4.98-3.82zm-26.68.08c-.16-.7-.24-1.4-.24-2.08 0-2.23.83-4.33 2.24-5.95a9.019 9.019 0 015.72-3.03c.98-.12 1.99-.23 3.01-.34a12.656 12.656 0 00-4.79 9.91c0 .98.12 1.98.36 2.98l.91 3.76-.61.47a7.998 7.998 0 01-4.87 1.65l-1.73-7.38zM122.67 67a4.822 4.822 0 01-3.21 3.48l.35 1.09-.35-1.09-8.98 2.88c-.34.11-.7.11-1.04 0l-8.88-2.87a4.831 4.831 0 01-3.2-3.47l-5.5-23.44c1.96-.1 3.89-.77 5.53-1.97l5.49 22.78a7.092 7.092 0 006.9 5.43h.47c3.28 0 6.13-2.25 6.9-5.43l5.49-22.78c1.64 1.2 3.57 1.86 5.53 1.96L122.67 67zm7.76-33.07l-1.73 7.37c-1.73 0-3.45-.56-4.87-1.65l-.61-.47.9-3.75c.24-1 .36-1.99.36-2.98 0-2.92-1.01-5.7-2.77-7.9-.6-.75-1.3-1.43-2.06-2.03 1.04.11 2.06.22 3.05.34 2.33.29 4.31 1.41 5.73 3.03 1.41 1.62 2.25 3.72 2.24 5.95 0 .68-.08 1.38-.24 2.08zm-41.7-16.35zM11.64 104h-6v18.71c-.59-.05-1.14-.17-1.65-.39-.67-.28-1.3-.72-1.92-1.39L0 122.82c.86.95 1.85 1.64 2.9 2.09.89.37 1.81.56 2.75.61v11.27h2.81v-11.24c2.97 0 4.92-1.51 5.86-4.54.34-1.15.55-2.47.61-3.96.06-1.48.09-3.04.09-4.66v-5.01c0-.94-.33-1.73-.98-2.39-.66-.66-1.45-.98-2.39-.98zm.56 8.1c0 1.87-.03 3.48-.09 4.82-.06 1.34-.23 2.44-.49 3.3-.27.86-.65 1.49-1.15 1.9-.5.41-1.17.61-2.01.61V106.8h2.81a.9.9 0 01.66.28.9.9 0 01.28.66v4.36zm26.61-8.1h-2.62c-.94 0-1.73.33-2.39.98-.66.66-.98 1.45-.98 2.39v15.36H28.6v-18.74h-2.81v18.74c-.84 0-1.52-.2-2.01-.61-.5-.41-.88-1.04-1.15-1.9-.27-.86-.43-1.96-.49-3.3-.06-1.34-.09-2.95-.09-4.82V104h-2.81v8.85c0 1.56.03 3.04.09 4.43.06 1.39.26 2.63.61 3.72.91 3.03 2.86 4.54 5.86 4.54v7.49a.9.9 0 01-.28.66.9.9 0 01-.66.28h-1.87a.9.9 0 01-.66-.28.9.9 0 01-.28-.66v-.94h-2.81v1.31c0 .94.33 1.73.98 2.39.66.66 1.45.98 2.39.98h2.62c.94 0 1.73-.33 2.39-.98.66-.66.98-1.45.98-2.39v-7.88h4.22v7.88c0 .94.33 1.73.98 2.39.66.66 1.45.98 2.39.98h2.62c.94 0 1.73-.33 2.39-.98.66-.66.98-1.45.98-2.39v-1.31h-2.81v.94a.9.9 0 01-.28.66.9.9 0 01-.66.28h-1.87a.9.9 0 01-.66-.28.9.9 0 01-.28-.66v-25.3a.9.9 0 01.28-.66.9.9 0 01.66-.28h1.87a.9.9 0 01.66.28.9.9 0 01.28.66v.94h2.81v-1.31c0-.94-.33-1.73-.98-2.39-.66-.66-1.45-.98-2.39-.98zm13.68 29.04a.9.9 0 01-.28.66.9.9 0 01-.66.28h-1.87c-.25 0-.47-.09-.66-.28s-.28-.41-.28-.66v-25.3a.9.9 0 01.28-.66.9.9 0 01.66-.28h1.87c.25 0 .47.09.66.28s.28.41.28.66v.94h2.81v-1.31c0-.94-.33-1.73-.98-2.39-.66-.66-1.45-.98-2.39-.98h-2.62c-.94 0-1.73.33-2.39.98-.66.66-.98 1.45-.98 2.39v26.05c0 .94.33 1.73.98 2.39.66.66 1.45.98 2.39.98h2.62c.94 0 1.73-.33 2.39-.98.66-.66.98-1.45.98-2.39v-1.31h-2.81v.94z"/><path class="st0" d="M65.61 112.1c0 1.87-.03 3.48-.09 4.82-.06 1.34-.23 2.44-.49 3.3-.27.86-.65 1.49-1.15 1.9-.5.41-1.17.61-2.01.61v-18.74h-2.81v18.71c-.58-.05-1.13-.18-1.64-.39-.67-.28-1.3-.72-1.92-1.39l-2.07 1.89c.86.95 1.85 1.64 2.9 2.09.88.37 1.81.56 2.74.61v11.27h2.81v-11.24h2.81a.9.9 0 01.66.28.9.9 0 01.28.66v10.31h2.81v-10.68c0-.62-.15-1.19-.45-1.71-.3-.51-.71-.91-1.24-1.19.41-.59.73-1.33.98-2.2.31-1.09.51-2.31.59-3.65.08-1.34.12-2.76.12-4.26v-9.09h-2.81v8.1zm13.02-8.1h-2.62c-.94 0-1.73.33-2.39.98-.66.66-.98 1.45-.98 2.39v26.05c0 .94.33 1.73.98 2.39.66.66 1.45.98 2.39.98h2.62c.94 0 1.73-.33 2.39-.98.66-.66.98-1.45.98-2.39v-26.05c0-.94-.33-1.73-.98-2.39-.66-.66-1.45-.98-2.39-.98zm.56 29.04a.9.9 0 01-.28.66.9.9 0 01-.66.28h-1.87c-.25 0-.47-.09-.66-.28s-.28-.41-.28-.66v-25.3a.9.9 0 01.28-.66.9.9 0 01.66-.28h1.87a.9.9 0 01.66.28.9.9 0 01.28.66v25.3zm7.03 3.75h9.37v-2.81h-6.56v-8.43h5.15v-2.81h-5.15v-15.93h6.56V104h-9.37v32.79zm21.21 0h2.81v-29.98h3.74v29.98h2.81V104h-9.36v32.79zM127.01 104h-2.62c-.94 0-1.73.33-2.39.98-.66.66-.98 1.45-.98 2.39v26.05c0 .94.33 1.73.98 2.39.66.66 1.45.98 2.39.98h2.62c.94 0 1.73-.33 2.39-.98.66-.66.98-1.45.98-2.39v-26.05c0-.94-.33-1.73-.98-2.39-.66-.66-1.45-.98-2.39-.98zm.56 29.04a.9.9 0 01-.28.66.9.9 0 01-.66.28h-1.87a.9.9 0 01-.66-.28.9.9 0 01-.28-.66v-21.41c.08.03.15.07.23.1 1.05.45 2.16.64 3.28.64h.24v20.67zm0-23.48h-.24c-.8 0-1.52-.13-2.19-.42-.46-.19-.89-.46-1.32-.82v-.59a.9.9 0 01.28-.66.9.9 0 01.66-.28h1.87a.9.9 0 01.66.28.9.9 0 01.28.66v1.82zm17.71-2.19c0-.94-.33-1.73-.98-2.39-.66-.66-1.45-.98-2.39-.98h-2.62c-.94 0-1.73.33-2.39.98-.66.66-.98 1.45-.98 2.39v26.61h-1.31v4.12h2.81v-1.31h6.37v1.31h2.81v-4.12h-1.31v-26.61zm-2.81 26.61h-3.75v-26.23a.9.9 0 01.28-.66.9.9 0 01.66-.28h1.87a.9.9 0 01.66.28.9.9 0 01.28.66v26.23zM156.8 104h-6v32.79h6c.94 0 1.73-.33 2.39-.98s.98-1.45.98-2.39v-7.31c0-.62-.15-1.2-.44-1.73-.3-.53-.71-.94-1.24-1.22.44-.62.77-1.34.98-2.15.34-1.19.55-2.54.61-4.08.06-1.53.09-3.14.09-4.82v-4.73c0-.94-.33-1.73-.98-2.39-.66-.66-1.45-.98-2.39-.98zm.56 29.04a.9.9 0 01-.28.66.9.9 0 01-.66.28h-2.81v-8.43h2.81a.9.9 0 01.66.28.9.9 0 01.28.66v6.56zm0-20.94c0 1.87-.03 3.48-.09 4.82-.06 1.34-.23 2.44-.49 3.3-.27.86-.65 1.49-1.15 1.9-.5.41-1.17.61-2.01.61V106.8h2.81a.9.9 0 01.66.28.9.9 0 01.28.66v4.36zm13.02-8.1h-2.62c-.94 0-1.73.33-2.39.98-.66.66-.98 1.45-.98 2.39v26.05c0 .94.33 1.73.98 2.39.66.66 1.45.98 2.39.98h2.62c.94 0 1.73-.33 2.39-.98.66-.66.98-1.45.98-2.39v-26.05c0-.94-.33-1.73-.98-2.39-.66-.66-1.45-.98-2.39-.98zm.57 29.04a.9.9 0 01-.28.66.9.9 0 01-.66.28h-1.87a.9.9 0 01-.66-.28.9.9 0 01-.28-.66v-21.42c.08.04.17.08.25.11 1.05.45 2.16.64 3.28.64h.22v20.67zm0-23.48h-.22c-.8 0-1.52-.13-2.19-.42-.46-.2-.91-.46-1.34-.83v-.57a.9.9 0 01.28-.66.9.9 0 01.66-.28h1.87a.9.9 0 01.66.28.9.9 0 01.28.66v1.82zm13.02-5.56h-6v32.79h2.81v-11.24c2.97 0 4.92-1.51 5.86-4.54.34-1.15.55-2.47.61-3.96.06-1.48.09-3.04.09-4.66v-5.01c0-.94-.33-1.73-.98-2.39-.66-.66-1.45-.98-2.39-.98zm.56 8.1c0 1.87-.03 3.48-.09 4.82-.06 1.34-.23 2.44-.49 3.3-.27.86-.65 1.49-1.15 1.9-.5.41-1.17.61-2.01.61V106.8h2.81a.9.9 0 01.66.28.9.9 0 01.28.66v4.36zm13.02 10.64h-3.19V104h-2.81v32.79h6c.94 0 1.73-.33 2.39-.98.66-.66.98-1.45.98-2.39v-7.31c0-.94-.33-1.73-.98-2.39-.66-.66-1.45-.98-2.39-.98zm.57 10.3a.9.9 0 01-.28.66.9.9 0 01-.66.28h-2.81v-8.43h2.81a.9.9 0 01.66.28.9.9 0 01.28.66v6.56zm9.83-5.12a5.693 5.693 0 01.83-.9c.04-.03.07-.06.1-.08l.08-.07c.55-.44 1.11-.77 1.68-.99a5.03 5.03 0 011.82-.34c.43 0 .89.05 1.39.17l.65-2.73c-.7-.17-1.38-.25-2.04-.25-1 0-1.96.19-2.84.53-.6.23-1.15.53-1.68.88v-17.33h6.56V104h-9.37v32.79h9.37v-2.81h-6.56v-6.06zM0 122.82zm71.57 38.5h5.99v.7h-5.99v-.7zm18.71.78c-.15.77-.48 1.33-.98 1.69-.5.36-1.21.54-2.11.54-.56 0-1.04-.07-1.45-.21-.4-.14-.74-.35-1-.63s-.45-.65-.58-1.1c-.12-.45-.19-.98-.19-1.59s.06-1.15.19-1.6c.12-.44.32-.81.58-1.09.26-.28.6-.49 1-.63.41-.14.89-.21 1.45-.21.87 0 1.55.16 2.04.48.49.32.83.83 1.01 1.52l-.92.13c-.13-.49-.37-.84-.71-1.06-.34-.22-.82-.32-1.42-.32-.42 0-.77.05-1.06.15-.29.1-.52.26-.7.48-.18.22-.31.51-.4.86s-.12.78-.12 1.29.04.93.12 1.28.21.64.4.86c.18.22.42.38.7.48.29.1.64.15 1.06.15.65 0 1.15-.13 1.5-.38.35-.25.57-.67.69-1.24l.91.14zm.65-4.72h.99l.99 3.2c.08.27.2.46.34.59.14.13.38.19.7.19h.59l1.15-3.98h.99l-1.8 5.9c-.1.34-.28.6-.52.78-.24.18-.59.27-1.04.27-.13 0-.28 0-.45-.02s-.31-.04-.42-.07l.12-.73c.07.03.18.06.33.07.15.01.27.02.36.02.23 0 .4-.05.52-.15.12-.1.21-.26.28-.48l.24-.85h-.72c-.35 0-.65-.08-.9-.25-.25-.17-.42-.38-.51-.65l-1.26-3.83zm6.35 4.76l.94-.13v.29c0 .47.14.8.42.99.28.19.74.29 1.39.29.33 0 .61-.02.84-.07.23-.05.42-.12.56-.22.14-.1.25-.23.31-.4.07-.16.1-.36.1-.6s-.03-.43-.1-.6a.915.915 0 00-.31-.39c-.14-.1-.33-.17-.56-.22-.23-.05-.51-.07-.84-.07h-.79v-.74h.79c.3 0 .55-.02.76-.06.21-.04.38-.11.51-.2.13-.09.23-.21.28-.35.06-.15.09-.32.09-.52 0-.41-.13-.7-.38-.87-.25-.17-.67-.25-1.27-.25s-1.01.08-1.26.25c-.25.17-.38.46-.38.87v.24l-.94-.13v-.11c0-.66.2-1.14.61-1.43.41-.29 1.06-.44 1.96-.44s1.56.15 1.97.44c.41.29.61.75.61 1.37 0 .43-.09.77-.26 1.01s-.43.43-.76.54c.39.13.69.33.89.6.2.27.3.65.3 1.14 0 .67-.22 1.16-.65 1.48-.43.31-1.13.47-2.1.47s-1.65-.16-2.09-.48c-.44-.32-.66-.84-.66-1.55v-.17zm12.18 2.1h-5.37v1.66h-.75v-2.41h.45c.14 0 .27-.05.39-.16.12-.1.22-.24.31-.42s.17-.38.23-.61c.06-.23.11-.46.14-.7l.57-4.22h4.17v6.11h.62v2.41h-.75v-1.66zm-.81-.75v-5.36h-2.45l-.47 3.47c-.05.37-.14.72-.25 1.04-.12.32-.26.61-.44.85h3.61zm2.25.75l2.69-6.85h1.1l2.69 6.85h-1.01l-.66-1.77h-3.14l-.67 1.77h-1.01zm4.53-2.54l-1.28-3.45-1.28 3.45h2.56zm7.52-3.57h-2.42l-.49 3.65c-.04.28-.1.57-.17.88s-.18.58-.31.83-.3.45-.5.61c-.2.16-.44.24-.72.24-.08 0-.18 0-.29-.02-.12-.02-.22-.04-.31-.07l.13-.71c.07.03.14.05.21.06h.15c.16 0 .29-.06.4-.18.11-.12.2-.27.26-.45.07-.18.12-.38.16-.59s.07-.41.1-.59l.59-4.39h4.16v6.85h-.94v-6.11zm2.47-.75h.94v2.85h2.02c.79 0 1.36.16 1.72.48.36.32.54.83.54 1.52s-.18 1.2-.54 1.52c-.36.32-.93.48-1.72.48h-2.96v-6.85zm2.96 6.1c.48 0 .82-.1 1.02-.29s.3-.51.3-.96-.1-.77-.3-.96-.54-.28-1.02-.28h-2.02v2.5h2.02zm8.58-2.16h5.99v.7h-5.99v-.7z"/></svg>