<svg xmlns="http://www.w3.org/2000/svg" viewBox="0 0 127.8 125.8"><path d="M119.9 64.3h-5.7v6.4h4.1c.2 0 .3-.1.3-.2l.5-1.7h.9V74h-1l-.5-1.7c0-.2-.1-.2-.3-.2h-4v6.8h6l1.6-3.1.8-.1-.3 4.4-.2.1h-12.4l-.1-.7 1.7-.5c.1 0 .3-.1.3-.3v-5.8c-.2-.5-.6-.9-1.2-1.1h-.1v-.4h.1c.5-.2.9-.6 1.2-1.1v-5.9c0-.2-.1-.3-.2-.3l-1.7-.5v-.7h12.5l.1.2-.8 3.9-.7.1-.9-2.8zm-30.5 6.2c.2-1.8.9-3.4 2.2-4.6 1.7-1.6 3.9-2.1 6.1-2.1 2.1 0 4.2.5 5.8 2 1.3 1.3 1.9 2.9 2 4.7.2.4.6.7 1 .9h.1v.3h-.1c-.5.2-.9.5-1.1.9-.2 1.7-.9 3.2-2.1 4.4-1.6 1.7-3.9 2.2-6.1 2.2-2.1 0-4.3-.5-5.8-2.1-1.3-1.3-1.9-2.9-2-4.6-.2-.4-.5-.7-1-.9h-.1v-.3h.1c.5-.1.8-.4 1-.8zm2.7 2.1c.1 1.4.5 2.8 1.4 3.9 1 1.3 2.5 1.8 4.2 1.8 1.5 0 3-.4 4-1.6.9-1.1 1.2-2.6 1.3-4-.2-.4-.5-.7-1-.9h-.1v-.3h.1c.4-.2.8-.5 1-.9-.1-1.4-.5-2.8-1.3-4-1-1.3-2.6-1.7-4.2-1.7-1.5 0-3.1.4-4 1.6-.9 1.1-1.2 2.7-1.2 4.1.2.4.6.7 1 .9h.1v.3h-.1c-.7.1-1 .4-1.2.8zm-15.6-.5v5.5c0 .1.1.3.2.3l1.3.4v.6h-5.5l-.1-.6 1.4-.4c.1 0 .2-.1.2-.2v-4.9c-.2-.5-.5-.8-1-.9h-.1v-.3h.1c.4-.2.8-.5 1-.9v-5.1c0-.1-.1-.2-.2-.3l-1.4-.4v-.6h5.5l.1.6-1.3.4c-.1 0-.2.1-.2.2V71h1.9c.2 0 .5-.1.7-.1l.6-.3c.2-.2.4-.4.5-.6.2-.3.3-.6.4-.9.2-.4.3-.9.4-1.4.1-.5.3-.9.4-1.4.1-.3.2-.7.3-1 .1-.2.2-.4.4-.6.1-.2.3-.3.5-.3.2-.1.4-.1.6-.1h.8c.7 0 1.4 0 2 .1h.1l.1.9h-.1c-.4 0-.9.1-1.2.2-.3.1-.6.3-.9.5-.3.3-.5.5-.7.9l-.6 1.2c-.2.3-.3.7-.5 1-.2.3-.3.6-.5.9-.2.3-.4.6-.6.8-.2.2-.4.4-.7.6.5.7 1 1.4 1.4 2.1.4.6.8 1.3 1.2 1.9.3.5.6 1 1 1.5.2.3.5.7.8 1 .1.1.2.2.4.3.1.1.2.1.4.2.1.1.3.1.4.1.2 0 .3.1.5.1h.1v.6h-.1c-.4.1-.9.1-1.3.1h-.8c-.2 0-.4 0-.6-.1-.2 0-.3-.1-.5-.2s-.3-.2-.4-.3c-.4-.3-.7-.7-1-1-.4-.5-.7-1.1-1-1.6l-.9-1.5c-.3-.5-.6-1-1-1.5-.1-.1-.2-.2-.3-.4-.1-.1-.1-.2-.2-.2-.1-.1-.2-.1-.3-.1h-1.7zm-11-6.9c-.8-.2-1.6-.3-2.4-.3-1.6 0-3.1.5-4.2 1.8-.9 1.1-1.4 2.4-1.5 3.8.2.4.6.7 1 .9h.1v.3h-.1c-.4.1-.7.4-.9.8.2 1.3.7 2.5 1.6 3.5 1.3 1.3 3 1.8 4.8 1.8 1.2 0 2.5-.2 3.7-.6h.1l.2.7h-.1c-1.5 1-3.2 1.4-5 1.4-2.2 0-4.2-.6-5.8-2.1-1.3-1.2-2-2.8-2.2-4.6-.2-.4-.5-.7-1-.9h-.1v-.3h.1c.4-.2.8-.5 1-.9.2-1.8 1-3.3 2.4-4.5 1.8-1.6 4-2.1 6.4-2.1 1.3 0 2.6.2 3.8.4l.1.2-.5 3.4-.7.1-.8-2.8zm-16.8 0c-.8-.2-1.6-.3-2.4-.3-1.6 0-3.1.5-4.2 1.8-.9 1.1-1.4 2.4-1.5 3.8.2.4.6.7 1 .9h.1v.3h-.1c-.4.1-.7.4-.9.8.2 1.3.7 2.5 1.6 3.5 1.3 1.3 3 1.8 4.8 1.8 1.2 0 2.5-.2 3.7-.6h.1l.2.7H51c-1.5 1-3.2 1.4-5 1.4-2.2 0-4.2-.6-5.8-2.1-1.3-1.2-2-2.8-2.2-4.6-.2-.4-.5-.7-1-.9h-.1v-.3h.1c.4-.2.8-.5 1-.9.2-1.8 1-3.3 2.4-4.5 1.8-1.6 4-2.1 6.4-2.1 1.3 0 2.6.2 3.8.4l.1.2L50 68h-.5l-.8-2.8zm-16.9 5.1c0 .4.3.9.7 1.1h.1v.4h-.1c-.5.1-1.3.2-1.6.7-.4.8-.7 1.6-1.1 2.4-.5.9-.9 1.9-1.4 2.8-.2.3-.3.6-.5 1-.1.2-.3.4-.5.6-.2.2-.5.3-.7.3-.4.1-.7.1-1.1.1-.7 0-1.4-.1-2.1-.2h-.1l-.1-.6.8-.1c.4-.1.9-.2 1.3-.4.3-.2.7-.4.9-.7.3-.3.6-.6.8-1 .3-.4.5-.8.8-1.2l-1.5-2.8-.1-.1c-.3-.6-1.2-.7-1.7-.8h-.1v-.4h.1c.3-.2.6-.5.7-.9L23 66.3c-.1-.2-.2-.3-.3-.5-.1-.1-.2-.3-.3-.4l-.3-.3c-.1-.1-.3-.1-.4-.2l-1.1-.3V64h6l.1.6-1.3.4c-.2.1-.4.1-.4.4 0 .2.1.4.2.6.1.3.3.5.4.8l3.4 6.4c.5-1 .9-2 1.3-3.1.4-1 .8-2.1 1.2-3.1.1-.4.3-.7.4-1.1.1-.2.1-.4.1-.5 0-.1 0-.1-.1-.2s-.2-.1-.3-.1l-1.1-.3v-.7h4.9l.1.6-1.2.4c-.1 0-.3.1-.4.2-.1.1-.2.1-.3.2-.1.1-.2.2-.2.3-.1.2-.1.3-.2.5l-1.2 3c.1.3 0 .6-.2 1zM9.9 72.9v5.6c0 .2.1.2.3.3l1.8.5v.7H5.2l-.1-.7 1.7-.5c.1 0 .3-.1.3-.3v-5.8c-.1-.3-.5-.7-1.1-.9h-.1v-.4H6c.5-.2.9-.6 1.2-1.1v-5.9c0-.2-.1-.3-.2-.3l-1.7-.5v-.7h7.1c1.5 0 3.3.2 4.6 1.1 1.1.8 1.6 2 1.6 3.4 0 1.6-.5 3.1-1.8 4.1-1.4 1.1-3.3 1.5-5 1.5-.7 0-1.3 0-1.9-.1zm0-1.2c.5.1 1.1.1 1.6.1 1.1 0 2.2-.2 3-1 .8-.8 1-1.9 1-3 0-1-.2-2.1-1-2.9-.8-.8-2.1-.9-3.1-.9-.5 0-1.1 0-1.6.1v7.6zm115.4 15.9h-5.2v5.6h3.6c.1 0 .2 0 .3-.2l.4-1.6h.9v4.8l-.9.1-.5-1.6c0-.1-.1-.2-.2-.2H120v5.9h5.4l1.4-2.7.8-.1-.3 4-.2.2h-11.6l-.1-.8 1.6-.4c.1 0 .2-.1.2-.2v-5.2c-.2-.4-.5-.8-1-.9h-.1V94h.1c.4-.2.8-.5 1-.9v-5.3c0-.1-.1-.2-.2-.2l-1.6-.5v-.8h11.7l.2.2-.7 3.5-.7.1-.6-2.5zM14.9 95.2c.2-.5.5-.8 1-1h.1v-.3h-.1c-.4-.2-.8-.5-1-1v-5.2c0-.1.1-.2.2-.2l1.6-.5-.1-.8H0v.8l1.6.5c.1 0 .2.1.2.2v5.2c-.2.4-.6.7-1 .9H.7v.3h.1c.5.2.8.5 1 .9v5.1c0 .1-.1.2-.2.2l-1.6.6.1.7h6l-.1-.8-1.4-.4c-.1 0-.2-.1-.2-.2v-5.1c.2-.5.5-.8 1-1h.1v-.3h-.1c-.4-.2-.8-.5-1-1v-5.3h7.8v5.3c-.2.4-.6.7-1 .9h-.1v.3h.1c.5.2.8.5 1 1v5.1c0 .1-.1.2-.2.2l-1.5.4.1.8h6v-.8l-1.5-.4c-.1 0-.2-.1-.2-.2v-4.9zm19.8 0c.2-.5.6-.8 1.1-1h.1v-.3h-.1c-.4-.2-.8-.5-1-1-.1-1.6-.7-3.1-1.9-4.2-1.5-1.4-3.5-1.8-5.5-1.8-2.1 0-4.2.5-5.8 2-1.1 1-1.7 2.3-2 3.7l-.2.4c-.2.4-.6.8-1 1h-.1v.3h.1c.5.2.9.5 1.1 1 .2 1.5.8 2.9 1.9 4 1.5 1.4 3.5 1.9 5.5 1.9 2.1 0 4.3-.5 5.8-2 1.1-1.3 1.7-2.6 2-4zm-2.6 0c-.2-.5-.5-.8-1-1H31v-.3h.1c.4-.2.8-.5 1-1-.1-1.2-.5-2.5-1.2-3.4-1-1.2-2.5-1.6-4-1.6-1.4 0-2.9.3-3.8 1.4-.8 1-1.1 2.3-1.2 3.6.2.4.6.7 1 .9h.1v.3h-.1c-.4.2-.8.4-1 .8.1 1.2.5 2.4 1.3 3.4 1 1.2 2.4 1.6 3.9 1.6 1.4 0 2.8-.3 3.8-1.4.8-.8 1.1-2.1 1.2-3.3zm16.7.7v-.8c.2-.5.5-.8 1-1h.1v-.3h-.1c-.4-.2-.8-.5-1-1v-4.4c0-.1.1-.1.2-.2l1.4-.4-.1-.7H40v.7l1.7.4c.1 0 .2.1.2.2 0 .6 0 1.1-.1 1.7-.1.7-.2 1.3-.3 2-.1.7-.3 1.4-.5 2.1-.2.7-.4 1.4-.7 2.1-.3.7-.6 1.3-.9 1.9-.3.5-.6 1-1.1 1.4h-1.7l-.2.2.6 5.1.8-.1.9-4h10l.9 4.1.8-.1.6-5-.2-.2h-2c-.1 0-.1-.1-.1-.2v-3.5zm-2.3-.8c-.2-.5-.5-.8-1-1h-.1v-.3h.1c.4-.2.8-.5 1-1v-4.5h-3.1c-.1.9-.2 1.9-.3 2.8-.1 1-.3 2-.6 3s-.6 2-1 2.9c-.4.9-.9 1.8-1.4 2.6h6.4v-4.5zm9.3.1c-.2-.5-.5-.8-1-1h-.1v-.3h.1c.4-.2.8-.5 1-1v-4.5c0-.1 0-.2-.1-.2l-1.4-.4v-.7h.2c.9 0 1.7.1 2.6 0 .5 0 1 0 1.6-.1h1.5c1.1 0 2.5.1 3.5.8.8.6 1.2 1.4 1.2 2.4 0 1.6-1 2.6-2.4 3.1.8.2 1.5.5 2.1 1 .7.6 1 1.4 1 2.3 0 1.3-.5 2.3-1.6 3.1-1.2.8-2.8 1.1-4.3 1.1h-5.3l-.1-.7 1.4-.4c.1 0 .2-.1.2-.2v-4.3zm13.2-.1c-.2-.4-.6-.8-1.1-.9h-.1v-.3h.1c.4-.2.8-.5 1-1l.1-.3c.2-1.4.9-2.7 2-3.8 1.6-1.5 3.7-2 5.8-2 2 0 4 .4 5.5 1.8 1.2 1.1 1.8 2.6 1.9 4.2.2.4.6.8 1 1h.1v.3h-.1c-.5.2-.9.5-1.1 1-.2 1.4-.9 2.8-2 3.8-1.6 1.5-3.7 2-5.8 2-2 0-4-.5-5.5-1.9-1.1-.9-1.6-2.3-1.8-3.9zm2.6-.1c.2-.4.5-.7 1-.9h.1v-.3h-.1c-.4-.2-.8-.5-1-.9.1-1.3.4-2.6 1.2-3.6.9-1.1 2.4-1.4 3.8-1.4 1.5 0 3 .4 4 1.6.8 1 1.1 2.2 1.2 3.4-.2.4-.6.7-1 1h-.1v.3h.1c.5.2.8.5 1 1-.1 1.2-.4 2.5-1.2 3.4-.9 1.1-2.4 1.4-3.8 1.4-1.5 0-2.9-.4-3.9-1.6-.8-.9-1.2-2.1-1.3-3.4zm18 .2c-.2-.5-.5-.8-1-1h-.1v-.3h.1c.4-.2.8-.5 1-1v-4.5c0-.1 0-.2-.1-.2l-1.5-.4v-.7h6c1.3 0 2.7.2 3.8.9.9.7 1.3 1.6 1.3 2.7 0 1.3-.4 2.5-1.5 3.3-1.2.9-2.7 1.2-4.2 1.2-.5 0-.9 0-1.4-.1v4.4c0 .1.1.1.2.2l1.5.4v.7H88l-.1-.7 1.4-.4c.1 0 .2-.1.2-.2v-4.3zm13.9 0c-.2-.5-.5-.8-1-1h-.1v-.3h.1c.4-.2.8-.5 1-1v-4.5c0-.1 0-.2-.1-.2l-1.4-.4v-.7h5.6l.1.7-1.5.4c-.1 0-.2.1-.2.2v4.5c.5 0 1-.1 1.6-.1 1.4 0 3.1.2 4.2 1 1 .7 1.5 1.6 1.5 2.8 0 .7-.1 1.4-.5 2-.3.5-.8 1-1.3 1.3-.6.4-1.2.6-1.9.7-.7.2-1.5.2-2.2.2h-5.3l-.1-.7 1.4-.4c.1 0 .2-.1.2-.2v-1.8l-.1-2.5zm-45.4-1.1v5.5c.2.1.4.1.6.1h.7c.9 0 1.9-.2 2.5-.7.6-.6.9-1.3.9-2.2 0-.8-.2-1.6-.9-2.1-.7-.6-2-.7-2.9-.7-.2.1-.5.1-.9.1zm0-1.1h1.2c.8 0 1.6-.1 2.2-.6.6-.5.7-1.2.7-1.9s-.2-1.4-.8-1.8c-.6-.5-1.5-.6-2.2-.6H58V93zm33.8 1c.4.1.9.1 1.3.1.9 0 1.8-.2 2.4-.7.6-.6.8-1.5.8-2.3 0-.8-.2-1.6-.8-2.2-.6-.6-1.7-.7-2.5-.7-.4 0-.8 0-1.3.1V94zm13.9-.1v5.7c.4.1.9.1 1.3.1.9 0 1.9-.2 2.5-.8.6-.6.8-1.4.8-2.2 0-.8-.2-1.6-.9-2.2-.8-.6-1.9-.7-2.8-.7h-.5c0 .1-.2.1-.4.1zm-73.1 23.9l1.2-2.7h1v.3c-.1 0-.2 0-.2.1-.1.1-.1.2-.1.2v2.2c0 .1 0 .2.1.2 0 .1.1.1.2.1h.1v.3h-1.2v-.3h.1c.1 0 .1 0 .2-.1s.1-.2.1-.3v-2.4l-1.4 3h-.2l-1.3-3v2.4c0 .1 0 .2.1.2.1.1.1.1.2.1h.1v.3h-.9v-.3c.1 0 .2 0 .2-.1s.1-.2.1-.2v-2.3c0-.1 0-.1-.1-.2 0 0-.1-.1-.2-.1h-.1v-.3h1l1 2.9zm5.6-2.7c.5 0 1 .2 1.3.5.4.3.6.8.6 1.3s-.2.9-.6 1.3c-.4.3-.8.5-1.3.5s-1-.2-1.3-.5c-.4-.3-.6-.8-.6-1.3s.2-.9.6-1.3c.4-.4.8-.5 1.3-.5zm6.5.9h-.3c-.1-.2-.2-.3-.4-.5-.2-.1-.4-.2-.6-.2-.4 0-.6.1-.9.4-.2.3-.3.7-.3 1.1 0 .4.1.8.4 1.1.3.3.6.4.9.4.2 0 .4-.1.6-.1.2-.1.4-.2.5-.4l.2.2c-.2.2-.4.4-.7.5-.2.1-.5.2-.8.2-.5 0-.9-.1-1.3-.5-.4-.3-.5-.8-.5-1.3s.2-.9.5-1.3.8-.5 1.3-.5h.3c.1 0 .3 0 .4.1h.6v.8zm2.4.4c.2 0 .3 0 .5-.1s.3-.3.4-.5c.1-.2.2-.4.4-.6.1-.1.3-.2.5-.2h.4v.8h-.3c0-.1 0-.1-.1-.2l-.1-.1h-.1c-.1 0-.2.3-.3.3l-.3.3c-.1 0-.1.1-.2.1.2 0 .4.1.5.2.2.2.3.4.4.6.1.2.3.7.5.8.1.1.3.1.4.1h.1v.3h-.4c-.2 0-.5-.1-.7-.2-.2-.2-.5-.8-.6-1-.1-.2-.2-.4-.4-.5-.2-.1-.4-.2-.6-.2v1.3c0 .1 0 .2.1.3 0 .1.1.1.2.1h.1v.3h-1.2v-.3c.1 0 .2 0 .2-.1.1-.1.1-.2.1-.2v-2.2c0-.1 0-.2-.1-.2 0-.1-.1-.1-.2-.1v-.3h1.2v.3c-.1 0-.2 0-.2.1-.1.1-.1.2-.1.2v.9zm6.2.4c.2 0 .4.1.5.3.2.2.2.4.2.6 0 .3-.1.5-.3.7-.3.2-.6.3-.9.3h-1.7v-.3h.1c.1 0 .1 0 .2-.1s.1-.2.1-.3v-2.2c0-.1 0-.2-.1-.3 0-.1-.1-.1-.2-.1v-.3h1.5c.3 0 .6 0 .8.2.2.1.4.3.4.5v.2c0 .2-.1.4-.2.5-.2.1-.3.2-.4.3zm4.6.9h-1.7l-.2.4v.2h.1v.3h-.9v-.3h.1c.1 0 .1 0 .2-.1l.2-.2 1.2-2.3v-.1h-.2v-.3c.1 0 .1 0 .2-.1.1 0 .1-.1.2-.1h.2l1.4 2.9c0 .1.1.2.2.3.1 0 .1.1.2.1h.1v.3h-1.1v-.3h.1v-.3l-.3-.4zm13.4-1.7h-.3c-.1-.2-.2-.3-.4-.5-.2-.1-.4-.2-.6-.2-.4 0-.6.1-.9.4-.2.3-.3.7-.3 1.1 0 .4.1.8.4 1.1.3.3.6.4.9.4.2 0 .4-.1.6-.1.2-.1.4-.2.5-.4l.2.2c-.2.2-.4.4-.7.5-.2.1-.5.2-.8.2-.5 0-.9-.1-1.3-.5-.4-.3-.5-.8-.5-1.3s.2-.9.5-1.3.8-.5 1.3-.5h.3c.1 0 .3 0 .4.1h.6v.8zm2.6 1.7l-1.2-2c0-.1-.1-.2-.2-.3 0 0-.1-.1-.2-.1v-.3h1.2v.3h-.1v.2c0 .1.1.1.1.2l.8 1.4.7-1.4v-.2s0-.1-.1-.1h-.3v-.3h1v.3c-.1 0-.2.1-.3.1-.1.1-.1.2-.2.3l-.7 1.6c-.1.3-.4.9-.6 1.1-.2.1-.4.2-.6.2-.2 0-.3 0-.5-.1-.1-.1-.2-.2-.2-.4 0-.1 0-.2.1-.2.1-.1.1-.1.2-.1s.2 0 .2.1c.1.1.1.1.1.2v.2h.1c.1 0 .2-.1.3-.2.2-.2.3-.3.4-.5zm5.3-1c.1.1.3.2.4.3.1.2.2.3.2.5 0 .3-.2.6-.4.8-.3.2-.6.3-1 .3-.2 0-.4 0-.6-.1-.2 0-.4-.1-.6-.2-.1 0-.2-.1-.2-.1h-.2c-.1 0-.1.1-.1.1l-.2-.2c.1-.1.2-.3.4-.4.1-.1.2-.1.3-.1.1 0 .2 0 .3.1.1.1.3.1.4.2.1.1.3.2.5.3.1 0 .2.1.3.1.2 0 .4-.1.5-.2.2-.1.2-.3.2-.5 0-.1 0-.2-.1-.4 0-.1-.1-.2-.2-.2-.1.1-.3.1-.4.2-.2 0-.3.1-.5.1-.1 0-.3 0-.4-.1-.1-.1-.2-.1-.2-.3 0-.1 0-.2.1-.2.1-.1.2-.1.3-.1h.8c.1 0 .2 0 .3.1l.2-.2c0-.1.1-.2.1-.3 0-.1 0-.2-.1-.3 0-.1-.1-.2-.2-.2-.1-.1-.1-.1-.2-.1h-.2c-.3 0-.5 0-.7.2-.2.1-.4.3-.5.5h-.2v-.9h.3c0 .1.1.1.1.1.1 0 .2 0 .3-.1.1 0 .3-.1.4-.1h.3c.3 0 .7.1.9.3.2.2.3.4.3.7 0 .1 0 .3-.1.4-.4-.2-.5-.1-.6 0zm2.1 2.5v.1h-.1c-.1 0-.2-.1-.2-.1l-.2-.2c-.1-.1-.2-.2-.2-.3v-.3c0-.1.4-.2.5-.2.1 0 .2-.1.2-.2.1-.1.2-.3.3-.5l.6-1.2c.1-.2.2-.5.2-.7 0-.1 0-.1-.1-.2-.1 0-.1-.1-.2-.1H82v-.3h2v.3c-.1 0-.1 0-.2.1 0 .1-.1.2-.1.3v2.4h.4c.1 0 .1 0 .2.1 0 0 .1.1.1.2s-.1.2-.1.3l-.3.3-.2.2-.1.1h-.1s-.1 0-.1-.1.1-.2.1-.3c.1-.1.1-.2.1-.3 0 0 0-.1-.1-.1h-2.3v.2s0 .1.1.1c-.1.2 0 .3 0 .4zm6.3-1.5H86l-.2.4v.2h.1v.3H85v-.3h.1c.1 0 .1 0 .2-.1l.2-.2 1.2-2.3v-.1h-.2v-.3c.1 0 .1 0 .2-.1.1 0 .1-.1.2-.1h.2l1.4 2.9c0 .1.1.2.2.3 0 0 .1.1.2.1h.1v.3h-1.1v-.3h.1v-.3l-.3-.4zm3.9-2c0 .2-.1.3-.1.5-.1.3-.2.7-.3 1-.1.3-.3.9-.6 1.2-.2.2-.4.3-.6.3-.1 0-.2 0-.3-.1-.1-.1-.1-.1-.1-.2s.1-.2.2-.3h.5c.1 0 .2-.1.3-.2.2-.3.3-.7.4-1 .1-.3.2-.5.3-.8 0-.1.1-.3.1-.4 0-.1 0-.1-.1-.1s-.1-.1-.2-.1v-.3h1l1 2.9c0 .1.1.2.2.3.1 0 .1.1.2 0h.1v.3h-.8l-1.2-3zm3.6.8h.6c.3 0 .8 0 1.1.3.2.2.3.4.3.7 0 .3-.1.6-.3.8-.3.2-.7.2-1 .2h-1.5v-.3c.1 0 .2 0 .2-.1.1-.1.1-.2.1-.3v-2.2c0-.1 0-.2-.1-.2 0-.1-.1-.1-.2-.1v-.3h1.2v.3c-.1 0-.2 0-.2.1-.1.1-.1.2-.1.2v.9zm-56.9-1.1c-.4 0-.7.1-.9.4-.3.3-.4.7-.4 1.1 0 .4.1.8.4 1.1.2.3.5.4.9.4s.7-.1.9-.4c.3-.3.4-.7.4-1.1 0-.4-.1-.8-.4-1.1-.2-.3-.5-.4-.9-.4zm13.7 1.3h.9c.1 0 .2-.1.3-.2.1-.1.1-.2.1-.4v-.2c0-.1-.1-.2-.3-.3-.2-.1-.4-.1-.5-.1H52v1.2zm0 1.6h.6c.2 0 .4 0 .6-.2.2-.1.2-.3.2-.5s-.1-.4-.2-.5c-.2-.1-.4-.2-.6-.2H52v1.4zm5.9-.9l-.7-1.4-.7 1.4h1.4zm20.7-.6c-.1 0-.1 0-.2-.1h-.3c-.1 0-.2 0-.3.1 0 0-.1 0-.1.1 0 0 0 .1.1.1h.2c.1 0 .2 0 .3-.1.1-.1.2-.1.3-.1zm4.6 1.5v-2.8c-.1 0-.1 0-.2.1s-.3.6-.3.7c-.1.2-.2.4-.3.7l-.3.6c-.1.2-.2.3-.3.5 0 0-.1.2-.1.3v.1h1.5zm4.4-.9l-.7-1.4-.7 1.4h1.4zm7.6.9h.5c.2 0 .5 0 .7-.2.1-.1.2-.3.2-.5s0-.4-.2-.6c-.2-.1-.5-.2-.7-.2h-.5v1.5zm-31.9-1.4l.6-.6.6.6-.6.6-.6-.6zm-20.1 8v.6h.1v.2h-.9v-.2s.1 0 .1-.1v-1.6c0-.1 0-.1.1-.2.1-.2.2-.3.4-.3.2-.1.4-.1.5-.1.2 0 .5.1.7.2.2.2.3.4.3.6 0 .3-.1.5-.3.6-.2.2-.5.2-.7.2h-.3c.1.2 0 .1 0 .1zm0-.3l.2.2c.1 0 .2.1.3.1.2 0 .3 0 .4-.1.1-.1.1-.3.1-.5s0-.4-.1-.5c-.1-.1-.3-.2-.4-.2-.1 0-.2 0-.3.1-.1 0-.1.1-.2.2v.7zm5.6-1.1v.9h.6l.1-.1h.2v.6h-.2s0-.1-.1-.1h-.6v.9h.7c.2 0 .4 0 .5-.1.1-.1.2-.1.2-.2h.2v.6h-2.2v-.2s.1 0 .1-.1v-2s-.1 0-.1-.1v-.2h1.9v.5H50c0-.1-.1-.2-.2-.2-.1-.1-.3-.1-.4-.1h-.6zm7.3.5h-.2l-.3-.3c-.1-.1-.3-.1-.4-.1-.3 0-.4.1-.6.3-.2.2-.2.5-.2.8 0 .3.1.5.2.7.2.2.4.3.7.3.2 0 .3 0 .4-.1.1-.1.3-.1.4-.3l.1.1c-.1.1-.3.3-.5.3-.2.1-.4.1-.5.1-.3 0-.7-.1-.9-.3-.3-.2-.4-.5-.4-.9s.1-.6.4-.9c.2-.2.6-.4.9-.4h.2c.1 0 .2 0 .3.1h.3v.6zm4.9-.5v2l.1.1v.2h-.8v-.2s.1 0 .1-.1v-2h-.5c-.1 0-.2 0-.2.1-.1 0-.1.1-.1.2h-.2v-.5h2.5v.5h-.2c0-.1 0-.1-.1-.2s-.2-.1-.3-.1H61zm5.6-.2c.4 0 .7.1 1 .4.3.2.4.5.4.9s-.1.7-.4.9c-.3.2-.6.3-1 .3s-.7-.1-1-.3c-.3-.2-.4-.5-.4-.9s.1-.7.4-.9c.3-.3.7-.4 1-.4zm0 .2c-.3 0-.5.1-.6.3-.2.2-.3.5-.3.8s.1.5.3.8c.2.2.4.3.6.3.3 0 .5-.1.6-.3.2-.2.3-.5.3-.8s-.1-.5-.3-.8c-.1-.2-.3-.3-.6-.3zm5.5 1.4v.6h.1v.2h-.9v-.2c.1 0 .1 0 .1-.1v-1.6c0-.1 0-.1.1-.2.1-.2.2-.3.4-.3.2-.1.4-.1.5-.1.2 0 .5.1.7.2.2.2.3.4.3.6 0 .3-.1.5-.3.6-.2.2-.5.2-.7.2h-.3c.1.2 0 .1 0 .1zm0-.3l.2.2c.1 0 .2.1.3.1.2 0 .3 0 .4-.1.1-.1.1-.3.1-.5s0-.4-.1-.5c-.1-.1-.3-.2-.4-.2-.1 0-.2 0-.3.1-.1 0-.1.1-.2.2v.7zm6.3.5h-1.2l-.1.3v.2h.1v.2h-.7v-.2s.1 0 .1-.1c.1 0 .1-.1.1-.2l.8-1.6v-.3s.1 0 .1-.1c0 0 .1 0 .1-.1h.1l1 2c0 .1.1.1.1.2h.1v.2h-.8v-.2h.1v-.2l.1-.1zm-.1-.2l-.5-1-.5 1h1zm4.9-.5h1.4v-.9l-.1-.1v-.2h.8v.2c-.1 0-.1 0-.1.1v2l.1.1v.2h-.8v-.2s.1 0 .1-.1v-.9h-1.4v.9l.1.1v.2h-.8v-.2c.1 0 .1 0 .1-.1v-2l-.1-.1v-.2h.8v.2s-.1 0-.1.1v.9zm0 0" fill-rule="evenodd" clip-rule="evenodd" fill="#012e23"/><path d="M56 56.4c-.1-.2-.2-.4-.4-.6-.2 0-.3.1-.5.1-.1 0-.2.1-.3.2-.1.1-.1.2 0 .3.3 1.3 2.1 1.9 3.3 1.9h.9c.2-.1.2-.4 0-.5 0 0-.1 0-.1-.1-.2-.1-.3-.2-.5-.2l-.6-.3c-.3-.2-.5-.5-.7-.8-.1-.2-.3-.5-.5-.6-.2-.1-.5 0-.7.1-.1 0-.1.1-.2.1l.3.4c.1 0 .1-.1.2-.1h.2c.1 0 .1.1.1.1 0 .1.1.2.1.2.1.1.2.3.3.4l.3.3c-.3 0-.6-.1-.8-.3-.3-.1-.8-.4-.9-.8.2.3.4.2.5.2zM37.9 20.5c-.2-2.7.5-5.5 2.1-7.7.4-.6.9-1.1 1.3-1.7-.5.7-.9 1.4-1.2 2.2-.3.7-.6 1.4-.8 2.1-.2.8-.4 1.6-.5 2.4-.1.9-.1 1.8-.1 2.7v.2c.3-.1.5-.2.6-.5.1-.1.1-.3.1-.5v-1.6c0-.7 0-1.4.1-2.1.1-.6.3-1.1.5-1.6.5-1.2 1.2-2.4 1.9-3.4.3-.4.5-.7.8-1.1.1-.1.2-.2.3-.4 0-.1.1-.2.1-.2s.1-.2 0-.2h-.2c-.2.1-.4.3-.5.4-.2.2-.5.4-.7.7-.2.2-.4.4-.6.7-.1.2-.3.3-.4.5l-.9 1.2c-.3.4-.6.9-.9 1.4-.3.5-.6 1-.8 1.5l-.6 1.5c-.2.9-.6 2.6.4 3.5-.1-.1-.1-.1 0 0zm8.9 32.3c-.1 0-.2-.1-.2-.1h-.1s.1.2.1.3c.2.5.5.9.9 1.3.2.1.3.2.5.3.2.1.5.2.7.3 1.9.8 4.3.8 6.3.3.1 0 .3-.1.4-.1.1 0 .3-.1.4-.2.1 0 .1-.1.1-.1v-.2c0-.1-.1-.3-.2-.3h-.3c-.2 0-.4.1-.6.1-.2 0-.3.1-.5.1-.1 0-.2 0-.4.1-1.3.2-2.7.1-3.9-.2-1.2-.3-2.3-.8-3.2-1.6zm39.9-5.6c-.7.8-2 .7-2.9.2-.5-.3-1.1-.4-1.7-.1-.2.1-.3.2-.5.4-.2.3-.2.5-.1.8-.3 0-.7-.1-1 .1-.1.1-.3.1-.4.2-.2.2-.3.3-.4.5l-.4.4c-.2.1-.5 0-.7 0-.2-.1-.4-.2-.5-.3-.3-.2-.5-.8-.6-1.1-.1-.2-.1-.4-.2-.5-.1-.2-.2-.5-.2-.7-.1-.3-.2-.5-.3-.8 0-.1-.1-.2-.1-.3 0-.1-.1-.1-.1-.2-.2-.3-.5-.7-.8-.9-.2-.1-.3-.1-.5-.1-.5 0-.9.4-1.1.9-.2.2-.2.5-.2.8.1.4.2.8.4 1.1.1.2.2.3.4.5 1.2 1.4 3 2.2 4.8 2.4.7.1 1.4.1 2.1 0 .8-.1 1.5-.3 2.2-.5.1 0 .1-.1.2-.1-.5.1-1.1.1-1.7.1-.5 0-1 0-1.5-.1-.3 0-.5-.1-.8-.1.1-.2.5-.6.7-.7.3-.2.9 0 1.2 0h.7c.2 0 .7 0 .7-.2l.1-.1c0-.1-.3-.1-.3-.1H83c-.2 0-.5-.1-.6-.3-.1-.1-.2-.2-.2-.4s.2-.3.4-.4c.3-.1.6 0 .8.1.4.2.8.3 1.2.4.6.1 1.4.1 1.8-.4.1-.1.3-.3.3-.5zM77 48.9c-.1 0-.1-.1-.2-.1s-.2-.1-.2-.2c-.1-.1-.3-.2-.4-.3-.2-.1-.3-.3-.4-.4l-.3-.3c-.2-.2-.4-.5-.5-.8-.2-.4-.2-.8.1-1.2.3-.4.6-.2.9.2.1.2.2.4.3.7 0 .1.1.2.1.3.1.4.2.7.4 1l.2 1.1zM43.9 37.7c-.3.2-.8 0-1.1-.1-.2-.1-.5-.2-.7-.4-.3-.2-.5-.3-.7-.5-.3-.3-.7-.5-1-.8l-.4-.4-.3-.3c-.4-.6-.8-1.2-1-1.9-.6-1.7-.4-3.2.4-4.8.6-1.2 1.8-2.3 3-2.9 1.2-.6 2.6-.8 3.9-.6 1.1.1 2.2.5 3.2 1.1.3.2.6.4.9.7.2.2.5.5.7.8.5.6.8 1.4.9 2.1.2.8.2 1.7-.1 2.6 0 .1-.1.2-.1.3 0 .1-.1.2-.1.3 0 .2.2.4.4.3h.1c.3-.1.4-.7.4-.9.2-1.1.2-2.2-.1-3.2-.3-1-.9-1.9-1.6-2.6-.2-.1-.3-.3-.5-.4-1.3-1-2.7-1.4-4.3-1.5-1.6-.1-3.3.3-4.7 1.1-1.2.8-2.1 1.9-2.8 3.2-.3.6-.4 1.2-.5 1.8-.1.6-.1 1.3 0 1.9l.3 1.5c.1.4.3.8.6 1.2.6.9 1.3 1.6 2.1 2.3l.2.2.2.2c.1.2 0 .4-.2.4-.1 0-.4-.1-.5-.2-.1-.1-.4-.2-.5-.2-.3 0-.3.2-.2.4.1.3.4.6.7.7.2.1.4.1.6.1h.3v-.1c0-.1 0-.1.1-.2.2 0 .3 0 .4.1h.1c.1 0 .1.1.2.1.1.1.3.1.4 0 .2-.1.3-.2.4-.3.2-.1.4 0 .5.1.3.1.7.1.9-.1.4-.3.5-.7.5-1.2 0-.2 0-.4-.1-.6-.1-.2-.3-.1-.4 0v.5s-.2.1-.5.2zm26-35V2c0-.2.1-.3.2-.5.1-.1.2-.3.2-.5-.1.1-.3.2-.4.1-.1-.1-.1-.2-.1-.4-.2.1-.3.5-.4.7v.3c0 .1.1.3.1.4.1.3.3.6.4.6zm.2 26c-.7.2-.4 1.3.3 1.1.7-.3.4-1.4-.3-1.1zm-20.9 1.9c0-.2-.1-.3-.2-.5s-.3-.6-.5-.5c-.1 0-.2.1-.2.1 0 .1 0 .2.1.2.1.1.1.2.2.4.2.4.2.8.1 1.2 0 .1-.1.2 0 .3 0 .2.2.2.3.2.2-.1.3-.5.3-.7v-.4c-.1-.1-.1-.2-.1-.3zM69.1 2.2c.1-.2-.1-1-.2-1.2-.1-.1-.2-.3-.2-.4-.1-.1-.2-.2-.3-.2.1.1.1.3 0 .4-.1.1-.3.1-.4 0 0 .1.1.3.2.4l.5.5c.1.1.3.3.4.5-.1 0-.1 0 0 0zm-23.9 28c-.1 0-.2.1-.2.2s0 .1.1.2c0 .1.1.2.2.2.1.1.1.2.1.3 0 .1.1.3 0 .4 0 .1-.1.1-.1.2 0 .2.1.4.3.3h.1c.1-.1.2-.2.2-.4V31c0-.2-.1-.4-.2-.5l-.3-.3h-.2zM35.5 24l.2-.2.4-.4c.1-.1.2-.3.4-.4l.1-.1v-.1c.1-.2-.1-.4-.3-.3 0 0-.1 0-.1.1l-.1.1-.2.2c-.1.1-.7.7-.7.8 0 .1 0 .2.1.3h.2zm13.4.7c.1 0 .1 0 0 0 .2-.1.2-.3.2-.5 0-.1 0-.3-.1-.4 0-.1-.1-.1-.2-.2l-.1-.1c-.1-.1-.1-.2-.1-.4v-.2h-.1c-.1 0-.3.1-.4.2-.2.4.1.8.4 1 .1.1.1.2.2.2 0 0 0 .1.1.1.1.2.1.2.1.3zm1.6 1.1c.1 0 .2-.1.2-.2.1-.1.1-.2.1-.4v-.3c0-.2-.1-.3-.2-.4 0-.2.1-.3.1-.5-.2 0-.4 0-.6.1-.1.1-.2.4-.1.5 0 .1.1.2.1.3.1.2.2.3.2.5v.1c.2.2.2.2.2.3 0-.1 0 0 0 0zm2.7 1.4c-.2 0-.4 0-.5.1-.1.1-.2.3-.2.4v.5c0 .1-.1.4 0 .5h.3c.2-.1.3-.4.3-.6v-.7c0 .1.1-.1.1-.2zm23.7-11.8c-1.9.2-3.8 1.5-4.5 3.2-.2.5-.4 1-.2 1.6.1.4.5.8.9 1 .4.2.9.2 1.3.1.5-.2 1-.5 1.2-1.1 0-.1 0-.1.1-.2.2-.4.2-.8.4-1.2.2-.5.4-.9.7-1.4.3-.4.6-.7 1-.9.5-.2 1.1-.2 1.6.1.8.4 1.4 1.3 1.8 2.1.5 1 .6 2.2.4 3.3-.4 2-1.8 3.3-3.5 4.2-.2.1-.5.2-.4.5 0 .3.3.4.6.3.4-.2.8-.4 1.2-.7l.8-.6c.1 0 .1-.1.2-.1.1-.1.1-.2.2-.2l.2-.2c0-.1.1-.1.1-.2.1-.2.3-.4.4-.6.6-.8.9-1.8 1-2.9.1-1.1-.1-2.2-.6-3.1-.4-.8-1-1.6-1.8-2.1-.9-.7-2-1-3.1-.9zm.2.7c-.1.1-.2.2-.3.2-.7.6-1.1 1.4-1.4 2.2-.1.2-.1.4-.2.5 0 .2-.1.3-.1.5-.1.2-.2.5-.4.7-.4.4-1.1.5-1.6 0-.2-.2-.3-.3-.3-.6-.1-.4.1-.8.3-1.1.3-.7.9-1.3 1.5-1.7.7-.3 1.6-.7 2.5-.7zM51.6 27.2c.2 0 .4 0 .5-.1.2-.2.1-.6.1-.9v-.6c-.4-.1-.6.2-.6.5 0 .2 0 .4.1.6 0 .1-.1.3-.1.5zm25.9 28.3v.1s.1-.1.1-.2c.1-.2.2-.4.2-.6h.5v-.1c-.1-.1-.1-.2-.2-.3 0-.1-.1-.1 0-.2v-.1s-.1 0-.1-.1c-.1 0-.2-.1-.3-.1-.1-.1-.2-.2-.3-.4 0-.1 0-.2-.1-.3V53c0-.1-.1-.1-.1-.1-.1-.1-.3 0-.4.1-.2.2-.1.7 0 .9 0 .1.1.2.1.2 0 .1.1.1.1.2.1.2 0 .3 0 .5v.1l.1.1c.3.3.3.4.4.5zM53.8 31.6c0-.1 0-.1-.1-.2s-.2 0-.4 0c-.1 0-.2.1-.2.2-.1.2-.2.4-.4.5h-.2v.2c0 .1.1.1.2.1.2 0 .3-.1.4-.2.1-.1.1-.2.2-.3l.1-.1c.2-.1.3-.1.4-.2zm27.1 21.8s0-.1 0 0c.1-.2-.1-.3-.2-.3-.1-.1-.2-.1-.2-.2h-.7c-.3 0-.7 0-.9-.3-.1-.1-.3-.3-.4-.2-.1 0-.2.1-.2.2-.1.4.3.5.6.7v.5c0 .1.1.1.2.2l.2.2.1.1c.1 0 .1-.2.2-.2.1-.2.1-.4.1-.5h.7c.1-.1.3-.1.5-.2zm-32.6-14c0-.1.1-.1 0-.2s-.2-.2-.4-.2c-.1 0-.5.1-.6.2 0 .1-.1.2 0 .2.1.1.2.2.4.1.2.1.5.1.6-.1zm5.6-3.7l-.2.2c0 .1-.1.1-.1.2v.1c-.1.2.2.5.4.3l.1-.1.1-.1.1-.1.1-.1c0-.3-.2-.6-.5-.4zm-1-4.8c.2 0 .4-.5.5-.7.1-.2.2-.3.2-.5 0-.1.1-.2.1-.3-.1 0-.2-.1-.2 0-.2 0-.4.3-.5.5-.1.1-.2.8-.1 1zm2.9-.1s-.1 0-.1.1v.5c0 .2.1.5.4.4.1-.1.3-1.2-.3-1zm-2.7 6.4c.1-.2-.1-.5-.4-.4 0 0-.1 0-.1.1l-.1.1c-.1 0-.1.1-.1.1l-.1.1c-.1.1-.1.2 0 .3.1.1.2.1.3.1h.1c.1 0 .1-.1.2-.1 0-.1.1-.2.2-.3 0 .1 0 0 0 0zM50 38.9c0-.1.1-.2 0-.2-.1-.1-.2-.1-.4-.1-.1 0-.5.1-.6.3 0 .1-.1.2 0 .2.1.1.2.1.4.1.2-.1.6-.1.6-.3zm5-4.8c-.1.1-.1.1 0 0l-.1.1s0 .1-.1.1c0 .1-.1.2-.2.3-.1.1-.1.3.1.4.1.1.2.1.2 0 .1-.1.3-.4.3-.5.2-.2 0-.5-.2-.4zm.6-1.6c-.1 0-.2.3-.2.4 0 .1-.1.4 0 .5.1.1.2 0 .2 0 .1 0 .1-.1.1-.1 0-.1.1-.2.1-.3 0-.1.1-.4-.1-.5.1-.1 0-.1-.1 0zM63.5 0l.2.1c1.8.4 4 1.8 5 3.3.7 1 1.1 2.1 1.2 3.3.2 1.5-.1 3.1-.8 4.5-.4.8-.9 1.7-1.4 2.4-.2.3-.4.5-.7.8-.3.3-.6.6-.9 1-.4.4-.7.8-1.1 1.1l-1 1-.7.7-.3.4c-.2.2-.3.4-.5.6-.2.2-.3.4-.5.6-.4.5-.8 1.1-1.1 1.7-.5 1-1 2-1.3 3-.3.8-.3 1.7-.3 2.5 0 .4 0 .9.1 1.3s.1.8.3 1.2c.4 1.3 1.2 2.5 2.5 3.2 1.3.7 3.3.8 4.6 0 .7-.4 1.3-1 1.6-1.7.4-.7.5-1.5.5-2.3-.1-1.4-.9-2.5-2.1-3.1-.8-.4-1.6-.6-2.5-.5-.7.1-1.3.3-1.8.7-.6.4-1 .9-1 1.6 0 .5.2 1 .7 1.3.2.1.5.2.8.1.7-.2 1-.9 1.4-1.4.4-.6.8-1.3 1.6-1.3.2 0 .4 0 .6.1.2.1.4.2.5.3.3.2.5.4.7.7.3.4.5.9.6 1.4.1.4 0 .8-.1 1.3-.1.4-.3.8-.5 1.2-.5.7-1.2 1.3-2.1 1.5-1.1.3-2.5.1-3.5-.6-1.6-1-2.2-3.1-2.2-4.9 0-.6.1-1.2.2-1.8.1-.5.3-1.1.5-1.6.2-.4.3-.7.5-1.1.2-.4.4-.9.7-1.3.2-.4.5-.7.8-1.1l1.5-1.8c.1-.1.2-.2.3-.4l.4-.4c.5-.5 1-.9 1.4-1.4.2-.2.4-.5.7-.7l.5-.5c.2-.2.4-.4.5-.6.2-.2.3-.4.5-.6.1-.2.3-.4.4-.6.2-.2.3-.5.4-.8.8-1.5 1.3-3.3 1.3-5 0-1.8-.6-3.4-1.8-4.8C67.6 1 65.6 0 63.7 0h-.2c.1 0 0 0 0 0zm1.3 25.7l-.3.3c-.1.1-.2.2-.3.4 0 0 0 .1-.1.1-.2.2-.4.5-.5.8-.1.2-.3.5-.4.7-.2.2-.4.3-.6.3-.1 0-.2-.1-.3-.3-.1-.1-.1-.3-.1-.5 0-.5.4-.9.7-1.1.1-.1.3-.2.4-.2.2-.1.4-.2.6-.2.2-.1.4-.1.5-.1.1-.3.3-.3.4-.2zM51.6 38.2V38c0-.1-.1-.1-.2-.1h-.2c-.1.1-.5.2-.5.3v.3c.1.1.3.1.4 0 .2 0 .5-.2.5-.3zm9.8-4.6c-.1 0-.1.3-.1.3 0 .2 0 .5.1.7.2.6.5 1.2 1 1.6.5.4 1 .6 1.7.5.3 0 .5-.1.7-.2.2-.1.4-.1.7-.2v.8c0 .3 0 .5.2.7.2.4.4.7.7 1l.1.1c.1.1.2.1.2.2.2.2.4.3.7.4.3.2.9.5 1.3.3 0-.1-.1-.2-.1-.2-.1-.1-.2-.3-.3-.4-.3-.4-.5-.8-.7-1.2-.3-.6-.4-1.2-.5-1.8 0-.8.1-1.5.4-2.2 0-.1.1-.2.1-.2.1-.2.2-.3.1-.6h-.3c-.1 0-.1.1-.2.1-.1.1-.1.2-.2.3-.6.6-1.5 1.1-2.4 1.2-.7.1-1.4-.1-2-.4-.2-.1-.5-.2-.7-.4.2.1.1 0 .1 0-.1-.1-.1-.2-.2-.3-.2-.1-.3-.1-.4-.1zm26 13.9c.8-1 1.3-2.2 1.5-3.4.2-1 .2-2 0-3-.1-1-.4-2-.9-3l-.6-1.2c-.2-.3-.3-.6-.5-.8-.2-.2-.3-.4-.5-.6-.2-.3-.4-.5-.6-.8-.1-.1-.1-.2-.2-.2l-.3-.3-.2-.2c.1 0 .3 0 .4.1.1 0 .2 0 .3.1.1 0 .3 0 .4.1h.6c.8 0 1.6-.1 2.3-.4.7-.3 1.4-.7 1.9-1.1.6-.8.9-1.7 1-2.6 0-.6 0-1.3-.3-1.9-.2-.7-.6-1.2-1.1-1.7-.2-.2-.4-.4-.6-.5-.2-.1-.3-.3-.4-.5-.2-.3-.3-.8-.1-1.2.1-.2.3-.3.5-.4.1 0 .3-.1.4 0 1 .1 1.8 1.5 2 2.4.2.7.3 1.5.3 2.2v2c1-2 .9-4.3-.5-6.2-.4-.6-1.1-1.1-1.8-1.2-.5-.1-1.1.1-1.5.5-.2.2-.3.5-.4.8 0 .3 0 .6.1.9.1.3.2.5.4.7.2.2.4.4.6.5.2.1.3.3.5.4.6.6.9 1.3 1 2.1.2 1 0 2.2-.7 3.1-.2.2-.4.4-.7.6-.3.2-.6.3-.9.4-.5.2-.9.2-1.4.3-.5 0-1 0-1.5-.1-1-.1-1.9-.5-2.8-1-.4-.3-.8-.6-1.3-.8-2.7-1.7-6.6-3-9.6-1.5-.4.2-.7.4-1.1.7-.3.2-.5.4-.8.6-.3.3-.6.6-.8.9-.2.3-.4.5-.5.8-.4.7-.7 1.6-.8 2.4-.1.9-.1 1.8.2 2.7.4 1.1 1.1 2 2 2.6.6.4 1.3.7 1.9.8.7.1 1.4.1 2.1 0 1.7-.4 3-1.5 3.8-3 .9-1.5 1-3.5.9-5.2 0-.3-.1-.6-.1-.9 0-.2 0-.4-.1-.5 0-.1-.1-.3-.1-.4 0-.1-.1-.2-.2-.2s-.1-.1-.2 0c-.1 0-.1.1-.2.2v.5c0 .2 0 .3.1.5.1.7.1 1.4.1 2.1 0 1.1-.2 2.4-.7 3.4-.4.9-1.2 1.7-2 2.2-1.1.6-2.2.7-3.4.4-.4-.1-.7-.2-1.1-.4-.8-.4-1.4-1-1.8-1.8-.5-.9-.6-1.8-.5-2.8.1-1.1.6-2.1 1.2-3 .6-.8 1.4-1.4 2.2-1.9 2.2-1.1 4.6-.5 6.7.4.1 0 .1.1.2.1s.2.1.2.1c.1.1.1.2.2.3.1.3.2.5.2.8.1.7.1 1.3 0 2 0 .3-.1.6-.1.9 0 .2-.1.5-.1.7 0 .4 0 .8.1 1.2 0 .1.1.2.1.3 0 .1.1.2.1.3 0 .1 0 .1.1.2l-.1.1c-.1.1-.2.1-.2.2-.1.1-.2.3-.3.4-.1.2-.1.3-.2.5 0 .1 0 .3.1.4l.1.1h.2c.1 0 .2-.1.3-.1.3-.1.6 0 .8.2.1.1.2.2.4.2.1 0 .1-.1.1-.2s.1-.2.1-.3c.2-.3.4-.4.7-.5.2 0 .3 0 .4-.2 0-.2-.4-.6-.5-.7-.3-.2-.6-.3-.9-.3-.1-.5-.1-1.1 0-1.6 0-.3.1-.5.2-.8.1-.2.1-.5.1-.7.1-.4 0-.9-.1-1.3s-.3-.7-.5-1.1c-.1-.1-.1-.2-.2-.3l.6.3c.2.1.4.3.6.4l1.1.8c.3.2.6.5.8.7l.7.7c.2.2.4.5.6.7.2.3.5.6.7.9.3.4.5.8.7 1.2.5.9.8 1.9 1 2.9.1.8.2 1.5.2 2.3 0 .7-.1 1.4-.2 2.1.7.8.4 1.6.1 2.4zM81 32.6c.3.5.4.9.4 1.5 0 .4-.1.9-.2 1.3-.1.3-.1.5-.1.8 0 .3-.1.6-.1.9v.3c-.2-.2-.2-.6-.2-.9 0-.4 0-.9.1-1.3 0-.4.1-.7.1-1.1v-1.5zm.4 6.6c-.1 0-.2-.1-.2-.1-.1 0-.1-.1-.2-.1-.2-.1-.4 0-.6 0 .1-.3.4-.6.7-.7.4-.1.8 0 1.2.2-.1 0-.2.1-.2.1-.1 0-.2.1-.2.1l-.2.2-.3.3zM55.7 27.3c-.1 0-.1.1-.1.1v.4c0 .2.1.5.4.3 0 0 .1 0 .1-.1.1-.1 0-.3 0-.4-.1-.2-.2-.4-.4-.3zM59.5.7l-.2.1c-1.4.5-3.4 1.3-4.3 2.6-1 1.7.9 3 2.2 1.6.2-.2.3-.4.5-.6.2-.3.4-.5.6-.8.4-.6.9-1.1 1.5-1.6.2-.1.3-.2.5-.3.4-.3.9-.5 1.4-.6.6-.2 1.3-.3 2-.3-.2 0-.4-.1-.5-.1-1.1-.2-2.1-.1-3 .4-1 .5-1.9 1.5-2.5 2.5-.2.2-.3.5-.5.7-.2.3-.5.7-.8.8-.3-.1-.6-.1-.8-.3-.1-.1-.2-.3-.2-.5 0-.3.2-.6.4-.8l.3-.3.4-.4c.4-.3.8-.6 1.1-.8.5-.4 1.1-.7 1.6-1.1.1 0 .3-.1.3-.2zM74 56.8s-.1-.2-.1-.3c-.1-.2-.1-.3-.1-.5s.1-.4.2-.6c0-.1.1-.3.1-.4l.6-.9c.4-.7.5-1.6.5-2.4.1 0 .2.1.2.2.7.5 1.2.6 2.1.4.5-.1.9-.2 1.4-.2.3 0 .5-.1.8-.1H81c.1-.1.2-.1.4 0h.1s-.1-.2-.2-.2c-.1-.1-.2-.2-.4-.3-.2-.1-.4-.1-.7-.1h-.8c-.4 0-.9.1-1.3.2-.2 0-.4.1-.6.1-.1 0-.3 0-.4.1h-.3c-.6-.1-1.2-.6-1.6-1.1 0 0 0-.1-.1-.1l-.1-.1c-.1-.1-.2-.1-.3-.1-.1 0-.2.1-.2.2v.3c0 .2 0 .3.1.5.1.4.1.9 0 1.3 0 .3-.1.6-.2.9l-.3.6c-.1.1-.1.2-.2.3-.1.1-.1.2-.2.3-.2.3-.3.7-.2 1 0 .3.2.6.4.8-.2 0 0 .2.1.2zm-4.3-26.3c-.5.1-.3.8.2.7.1 0 .2-.1.2-.1 0-.1.1-.1 0-.2 0-.1 0-.2-.1-.3-.1-.1-.2-.1-.3-.1zm-3.6-18c-.3.1-.6.2-.9.2-.2 0-.4.1-.6.1-.2 0-.3.1-.5.3-.1.1-.1.2-.1.3 0 .4.3.7.7.7.1 0 .1-.1.2-.2.1 0 .1 0 .2.1 0 .1-.1.1-.1.1-.5.4.3 1.7 1.2.6.1-.1.2-.3.2-.4.1-.2.1-.4.2-.7 0-.2.1-.5.1-.8 0-.1 0-.4-.1-.4-.2-.1-.4 0-.5.1zm-.9 1.7c.1 0 .1 0 0 0 .1 0 .1 0 0 0 .1 0 .1 0 0 0 .1 0 .1 0 0 0 .1 0 .1 0 0 0 .1 0 .1 0 0 0 .1 0 .1 0 0 0 .1 0 .1 0 0 0 .1 0 .1 0 0 0 .1 0 .1 0 0 0 .1 0 .1 0 0 0 .1 0 .1 0 0 0 .1 0 .1 0 0 0 .1 0 .1 0 0 0 .1 0 .1 0 0 0 .1-.1.1-.1 0 0 .1-.1.1-.1 0 0l.1-.1c0 .1 0 .1-.1.1.1 0 .1 0 0 0 .1 0 .1 0 0 0 .1 0 .1 0 0 0 .1 0 .1 0 0 0 .1 0 .1 0 0 0 .1 0 .1 0 0 0 .1 0 .1 0 0 0 .1 0 .1 0 0 0 .1 0 .1 0 0 0 .1 0 .1 0 0 0 .1 0 .1 0 0 0 .1 0 .1 0 0 0 .1 0 .1 0 0 0 .1 0 .1 0 0 0 .1 0 .1 0 0 0 .1 0 .1 0 0 0 .1 0 .1 0 0 0 .1 0 .1.1 0 0zM79.6 19l.1-.1c.1-.1.1-.2.2-.2.1-.1.1-.2.2-.2 0-.1.1-.1.1-.2-.1-.2-.3-.5-.5-.6-.1-.1-.3-.2-.5-.2-.1 0-.2 0-.3.1-.1.1-.1.3-.1.4 0 .1 0 .1.1.2 0 .1.1.1.1.1l.2.2c.2.1.3.3.4.5zM58.4 53.3c1.8-1.8 3.1-4.1 3.7-6.6.3-1.1.4-2.3.3-3.5 0-1.2-.2-2.4-.5-3.6-.1-.5-.3-.9-.5-1.4-.1-.4-.3-.7-.5-1.1-.3-.5-.6-.9-1.1-1.2-.6-.3-1.3-.4-1.9 0-.3.2-.6.5-.7.9-.2.4-.2.9 0 1.3.2.5.5 1 1 1.3.6.5 1.4.8 2.2 1 .2 0 .3-.1.4-.2 0-.2-.1-.3-.2-.4-.6-.1-1.2-.3-1.7-.7-.3-.2-.6-.6-.7-.9-.1-.3-.1-.6.1-.9.1-.2.3-.5.6-.6.2-.1.4-.1.6-.1.2 0 .4.2.6.3.7.7 1.1 1.9 1.4 2.9.3 1.2.4 2.3.5 3.5 0 1.1-.1 2.3-.4 3.4-.6 2.3-1.8 4.4-3.5 6.1-.1.1-.1.3 0 .4 0 .3.2.3.3.1zM47.1 24c.1 0 .2-.2.3-.3.1-.2 0-.4-.1-.6-.1 0-.2-.1-.3-.1-.1 0-.1-.1-.2-.1l-.2-.2c-.1-.1-.1-.2 0-.3-.1 0-.3 0-.4.1-.1.1-.2.2-.2.4 0 .1 0 .3.2.4l.2.2c.1.1.2.1.2.2l.5.3zM43.8 8.2V9s.1 0 .1-.1c.1-.1.2-.3.3-.5.1-.2.2-.4.4-.6v-.1h-.1c-.3.1-.5.3-.7.5zM71.9 2c0 .3-.1.5-.1.8 0 .2 0 .3-.1.5 0 .1-.1.3-.1.4 0 .1 0 .2-.1.2V4v-.1c0-.1-.1-.3-.2-.4-.1-.1-.1-.3-.2-.4-.1-.1-.2-.4-.1-.6 0-.1.1-.2.1-.4 0-.1 0-.3.1-.4-.2 0-.3.1-.4.2-.1.1-.2.2-.2.4-.1.4 0 .7.2 1.1.1.2.2.4.3.7v.2c0 .1 0 .2.1.3v.1c.1.2.2.4.4.3.3-.2.7-.4 1-.7.1 0 .1-.1.2-.1.3-.2.5-.5.7-.8.1-.2.1-.4.1-.6 0-.1-.1-.3-.2-.4-.1.1-.1.3-.2.4-.2.1-.2.2-.3.3-.1.3-.4.5-.6.7-.1.1-.2.1-.3.2 0-.1 0-.2.1-.2 0-.2.1-.4.1-.6 0-.1.1-.2.1-.4.1-.3.2-.5.3-.8-.2 0-.3.1-.4.1-.2 0-.3 0-.3-.1zM68 21.9c-.1-.1-.1-.1-.1-.2-.1 0-.2-.1-.2-.1-.2-.1-.4-.2-.5-.3-.1-.1-.3-.1-.4-.2-.3-.2-.5-.4-.7-.6-.1-.1-.2-.2-.3-.4-.1-.1-.2-.3-.3-.4-.1-.1-.2-.3-.3-.4-.2-.2-.4-.4-.7-.4-.3.1-.5.4-.4.7 0 .2.1.4.2.5.2.2.5.4.7.5l.9.4c.1 0 .1 0 .1.1-.3.3-1-.4-1.4.1-.1.1-.2.3-.1.4 0 .1.1.2.3.3-.1.1.1.1.2.1s.2-.1.3-.1c.1 0 .2-.1.3-.1h.1c.4-.1 1.3-.1 1.7.1.1 0 .2.1.3.1 0 0 .2 0 .3-.1zm11.8 18.2c-.1.2-.2.4-.3.5-.2.1-.3.1-.5.2s-.4.1-.6.2c-.2.1-.4.3-.4.6 0 .2 0 .4.2.6.3.2.6.1.9-.1.5-.3.7-.8.8-1.3v-.5c0-.1 0-.2-.1-.2zm1.5 2.3c.1-.3 0-.7 0-1 0-.2-.2-.6-.3-.7 0 0-.1-.1-.1 0v.2c0 .1 0 .2-.1.3-.1.3-.3.4-.5.6-.1.1-.1.2-.2.3-.2.4-.2.8.2 1 .5.3.9-.1 1-.7zm.8-1.8s0 .1.1.1c0 .1.1.1.1.2v.4c0 .1 0 .2-.1.3-.1.2-.1.4 0 .7.1.2.2.5.5.5.2 0 .4 0 .6-.2.1-.1.1-.2.2-.3.1-.4-.1-.8-.3-1.1-.2-.2-.5-.6-.8-.7-.2.1-.3.1-.3.1zm.9-.8c0 .1.1.1 0 0 .1.1.2.1.3.2.2.1.3.2.3.4 0 .1.1.3.1.4.1.1.1.2.2.4.3.4.9.7 1.2.2.1-.2.1-.4.1-.5-.1-.3-.4-.5-.7-.7-.3-.1-.5-.2-.8-.3-.1-.1-.6-.1-.7-.1zm.5-1.1h.5c.1 0 .2.1.3.2.2.1.3.2.5.3.2.1.5.2.7.1.1 0 .2-.1.3-.2.1-.1.1-.3.1-.4 0-.1-.1-.3-.2-.4-.3-.3-.8-.2-1.1-.1-.2.1-.5.1-.7.3-.1 0-.3.1-.4.2zm-.3-1.2l.2-.2c.1-.1.3-.1.4-.1h.6c.4 0 .9 0 1-.4.1-.2 0-.5-.2-.7l-.1-.1c-.3-.1-.6-.1-.8.1-.3.2-.6.5-.8.8-.1.1-.1.2-.1.3 0 .1-.1.1-.1.2-.1 0-.1 0-.1.1zM67.8 15.6c-.1 0-.2.1-.3.1-.1.1-.3.2-.4.4-.3.4-.4.8-.4 1.3 0 1.2.7 1.9 1.6 2.7.1.1.3.2.4.3.1.1.3.2.5.2 0-.1-.2-.3-.2-.4-.2-.3-.3-.5-.5-.8-.5-.9-.7-2-.7-3v-.8zm22 1.2s-.1-.1-.2-.1-.1-.1-.2-.1c0 .3-.1.6-.2.9-.1.3-.3.5-.6.6-.3.2-.6.3-1 .3h-.5c-.2 0-.4 0-.6.1-.7.2-1.2.6-1.1 1.4 0 .2.1.4.2.5.2.3.5.4.8.5.4.1.8.1 1.2 0 .5-.1.9-.3 1.2-.6.4-.4.8-.8 1.1-1.3.3-.5.4-1.1.5-1.6l-.2-.2c0 .3-.1.6-.2.8-.2.3-.4.7-.6.9-.2.2-.4.4-.5.6-.2.2-.4.3-.6.4-.5.3-1.5.7-2.1.3-.3-.3-.2-.7.1-.9 0 0 .1 0 .1-.1.3-.2.6-.2.9-.2.3 0 .7-.1 1-.2.4-.1.7-.3.9-.6.3-.3.5-.8.6-1.4zm-43.1 3.8h.5c.3 0 .7.1 1 .2 1 .2 1.9.7 2.7 1.3.1 0 .1.1.2.2l.2.2c.1.1.2.2.3.4l.1.1c.1.1.1.1.2.1.2-.3-.2-.6.1-.9.1-.1.2-.1.3-.2.1 0 .2-.1.3-.1 0 0 .1 0 .2-.1 0-.1-.3-.1-.3-.1-.2 0-.5-.1-.7-.1-.2 0-.4-.1-.6-.1-1.1-.4-2.8-1.2-3.5-2.1 0-.1-.1-.2-.2-.3l-.1.1v.1c0 .3 0 .5-.1.8l-.3.3c-.1 0-.2 0-.3.2 0-.1 0 0 0 0zm20.7 37.8c-.2 0-.4-.1-.5-.1-.1 0-.3-.1-.4-.1H66c-.8.1-1.6.1-2.4-.1h-.4l.1.1c.1.1.2.1.3.2 1.2.6 2.4.6 3.7.3.1 0 .2-.1.3-.1 0 0 .1 0 .1-.1 0 0-.3 0-.3-.1zm22.1-36.9c-.3-.1-.6-.1-.8.1-.2.2-.3.5-.1.8l.3.3c.1.1.3.1.5.1s.3-.1.4-.2c.1-.1.1-.2.1-.3.2 0 .3 0 .5.1.1 0 .3.1.4.1 0 .2.1.3.2.4.1.1.2.1.3.1.2 0 .3-.1.4-.2.1-.1.2-.3.1-.5 0-.1-.1-.3-.2-.3-.2-.1-.3-.1-.5 0h-.2c-.1 0-.2 0-.3-.1-.1 0-.2 0-.3-.1h-.2c.1-.1.1-.2.2-.3.1-.1.1-.2.2-.2.1-.1.1-.2.2-.3 0-.1.1-.1.1-.2l.1-.1s.1 0 .1-.1c.2-.1.2-.4.2-.6 0-.1 0-.1-.1-.2-.2-.2-.4-.3-.7-.2-.1 0-.2.1-.2.2-.1.2 0 .5.1.6 0 .1-.1.2-.1.2-.1.1-.1.2-.2.3-.1.1-.1.2-.2.3-.2.1-.3.2-.3.3zm-26.6.3c-.3 0-.5.1-.7.3-.4.3-.6.8-.5 1.3 0 .1.1.3.1.4.1.3.3.5.6.6.3.2.6.2.9.2h.2c.3-.1.6-.3.8-.6.2-.3.3-.6.2-1 0-.3-.2-.7-.5-.9-.3-.2-.7-.3-1.1-.3zm0 .8c.2-.1.4-.1.6.1.1.1.2.2.3.4v.3c0 .2-.2.4-.4.5-.3.1-.5 0-.7-.2-.2-.2-.2-.5-.1-.8 0-.2.1-.2.3-.3zm-26.7 4.8c0 .2.3.4.4.4.2.1.3.2.5.1.2 0 .4-.1.5-.2l.6-.3h.4c0-.1 0-.2-.1-.3-.1-.1-.1-.2-.2-.2 0 0-.1 0-.1-.1h-.5c-.2.1-.4.1-.5.2-.2.1-.3.1-.5.2h-.2c-.2.2-.3.2-.3.2zm43.9-6.9c0 .7 0 1.4-.3 2-.2.5-.5 1-.9 1.5l-.3.3-.4.4-.4.4-.3.3c-.1.1-.2.1-.2.2.2 0 .6-.2.7-.3.1-.1.3-.2.4-.3.1-.1.2-.1.3-.2.4-.3.8-.7 1.1-1.1.4-.5.7-1 .9-1.6.3-.8.3-1.6.1-2.4-.1 0-.1.1-.2.1l-.2.2-.2.2c0 .2 0 .2-.1.3zm2.2-13.9l-.3-.3c-.6-.5-1.4-.7-2.1-.7-.9 0-1.8.2-2.6.5-.6.3-1.2.6-1.7 1-.1.1-.2.2-.3.2l-.6.5-.9.6c-.4.2-.8.3-1.1.2-.3 0-.6-.2-.8-.4-.2-.2-.2-.5-.2-.8.1-.4.3-.8.5-1.1l.2-.2.2-.2c.6-.5 1.4-.8 2.2-.9.9-.2 1.9-.3 2.8-.3.8 0 1.7.1 2.5.2-.1.1-.2 0-.4-.1-1-.4-2-.5-3-.6-.5 0-1 0-1.5.1s-.9.2-1.4.3c-.8.3-1.5.7-2 1.4-.3.4-.5.9-.6 1.4 0 .4.1.8.3 1.1.4.5.9.7 1.5.7.8 0 1.6-.4 2.2-.9.1-.1.3-.2.4-.4.1-.1.2-.2.4-.3.2-.1.3-.3.5-.4.2-.2.4-.3.7-.4 1.7-.9 3.2-.8 5.1-.2zm-5.2 43.7h-.4c-.1 0-.2.1-.2.1-.1 0-.2.1-.4.1s-.3-.1-.5-.2c0 0-.1 0-.1-.1l-.1-.1-.2-.1v.1c0 .1.3.5.4.6.1.1.3.2.4.3.3.2.8.4 1.2.2.1-.1.2-.2.2-.3.1-.2.1-.4-.1-.6h-.2zm-16.7 1.5c-.1 0-.2 0-.2.1-.2.2-.4.6-.5.9l-.3.9c0 .2-.1.4-.1.6 0 .5.1 1.1.5 1.4.1 0 .1.1.2.1.2.1.4.1.6 0 .2-.1.3-.2.3-.4.2-.4 0-.8-.2-1.2-.2-.5-.4-1.2-.4-1.8V52c.1 0 .1-.1.1-.2zM39.6 23.6c-.1.2-.1.3 0 .5s.3.4.5.4c.2.1.4.1.7.1h.3c.1 0 .3.1.4 0l.1-.1v-.3c-.1-.3-.3-.4-.6-.5-.2 0-.5-.1-.7-.1-.1 0-.3-.1-.4-.1h-.1c-.1.2-.1.1-.2.1zM60 49.2c-.1 0-.2.1-.3.1-.1.1-.2.1-.2.2-.5.4-1 .7-1.5.8-.2 0-.3.1-.5.1-.1 0-.3.1-.4.1-.1 0-.2.1-.2.2-.1.1-.2.4-.2.5 0 .1 0 .2.1.3.1.2.2.3.4.4.3.1.6 0 .9-.1.3-.1.7-.4.9-.7l.3-.3c.2-.2.3-.4.4-.6 0-.1.4-.8.3-1zM39.9 26v-.4c-.1-.2-.2-.3-.4-.4h-1.7v.2c.1.3.3.5.5.6h.5c.2 0 .4-.1.6-.1.2.1.3.1.5.1zm25.6 22.6c0-.1-.1-.2-.2-.2l-.2-.2c-.2-.3-.3-.5-.5-.8-.1-.2-.2-.5-.2-.7-.1-.2-.1-.4-.2-.6-.1-.2-.1-.3-.2-.4l-.1-.1c-.1-.1-.3-.2-.4-.2-.2-.1-.5-.1-.6.1-.1.1-.2.2-.2.4 0 .3 0 .6.2.8.1.2.2.4.3.5l.3.3c.1.1.2.2.4.3.2.1.4.3.6.4.2.2.7.5 1 .4zm9.1-38.5c.1.1.3.2.4.3.3.1.6.1.8 0 .6-.1 1-.5 1-1.2 0-.3 0-.8-.4-.9V9c0 .3-.1.6-.4.7-.3.2-.6.3-.9.3h-.4c0 .1-.1.1-.1.1zm4.2 9.5c-.1-.2-.2-.5-.3-.6-.2-.3-.6-.6-1-.4-.4.2-.2.6 0 .8.2.2.5.5.5.7l.1-.1c.1 0 .2-.1.2-.2.1-.1.2-.1.2-.2.2.1.3.1.3 0zm-12.7 2.5c-.3.1-.6.2-.8.5-.2.3-.3.6-.2 1 .1.3.2.6.5.8.3.2.6.3.9.2.3-.1.6-.2.8-.5.2-.3.3-.6.2-1-.1-.3-.2-.6-.5-.8-.2-.2-.6-.2-.9-.2zm.1.7c.7-.2 1 .9.3 1-.7.3-1-.8-.3-1zM53.7 52.5c0-.2.1-.4-.2-.5-.1 0-.2 0-.2.1-.1 0-.1.3-.1.4 0 .1 0 .1-.1.2 0 .1 0 .1-.1.2-.2.3-.4.5-.7.6-.1 0-.2.1-.3.1-.1 0-.2 0-.2.1-.1.1-.1.2-.1.2 0 .1.1.1.1.2h.3c.9-.3 1.4-.8 1.6-1.6zm10.7-24h1c.1 0 .2.1.3.1l.1.1c.2.3 0 .8-.1 1.1 0 .2 0 .4.1.6.1.1.2.2.4.3.2 0 .3 0 .5-.1s.3-.3.4-.4c.3-.6.1-1.7-.5-2.1-.3-.2-.8-.3-1.2-.2-.4.1-1 .3-1 .6zm5.2 16.9c0-.2 0-.4-.2-.6-.1-.1-.2-.2-.4-.2h-.4c-.2.1-.3.3-.4.5-.1.3 0 .5.2.7.1.1.2.1.3.1h.3c.4 0 .6-.2.6-.5zm14-26.6c-.1 0-.2.1-.3.2-.3.3-.3.9-.2 1.3 0 .1.1.2.1.3.1.4.7 1.3 1 1.5.1 0 .3.1.4 0 .2-.1.1-.4.1-.6 0-.2-.1-.3-.1-.5s-.1-.4 0-.6v-1.1c0-.2-.1-.3-.2-.3-.4-.3-.6-.3-.8-.2zM64.8 43.4c.3-.9-1-1.2-1.3-.4-.1.2 0 .4.1.6.1.1.2.3.4.3s.4 0 .5-.1c.2-.1.3-.3.3-.4zm19.3 3.1s0 .1 0 0c.2.3.6.3.7.3h1c.9-.2 1.3-1.8 1.5-2.6.1-.3.2-1.5 0-1.8v.3c-.2.8-.4 1.6-.9 2.3-.3.4-.5.7-.9.9l-.6.3c-.1 0-.2.1-.3.1-.1 0-.1 0-.2.1-.2.1-.3.1-.3.1zm-33-13.1c-.1 0-.3.1-.3.2-.1.1-.2.3-.3.5-.1.2 0 .4.1.6.1.1.3.1.4.1.2 0 .3-.1.4-.2.1-.2.2-.3.3-.5 0-.1 0-.2-.1-.4-.1-.3-.3-.3-.5-.3zm20.8 16.4c0-.2 0-.4-.1-.5-.1-.1-.2-.2-.4-.3-.2 0-.4 0-.5.1-.1.1-.2.2-.3.4-.1.3 0 .5.2.7.1.1.2.1.3.1h.3c.2 0 .4-.2.5-.5zM70 12.6c.1 0 .2-.1.3-.2l.4-.4.4-.4.9-.6c.2-.1.5-.2.7-.3.2-.1.5-.2.7-.3h.1-.8c-.4-.1-.9-.2-1.2-.5l-.2-.2-.2-.2c-.1.1-.1.4-.1.5v.4c0 .1-.1.2-.1.4-.1.4-.3.7-.4 1.1-.1.2-.2.3-.2.5-.2-.1-.3.1-.3.2zm-6.7 37.5v.2c-.2 1.1.2 2.3.9 3.2.1.2.3.4.5.6.3.2.6.5.9.7.3.2.7.5 1.1.6.1 0 .1.1.2.1h.1v-.3c-.1-.4-.5-.7-.8-.9l-1.2-.9c-.6-.5-1.1-1.1-1.2-1.9 0-.4 0-.8.3-1.1.5-.6 1.5-.7 2.3-.7h.4c1.3.2 2.3.8 3 1.9.7 1.2.8 2.7.3 3.9-.2.6-.6 1-1 1.5-.2.2-.3.3-.5.4-.1 0-.2.1-.2.1s-.1 0 0 .1h.7c1-.1 1.5-.5 2.1-1.3 1.1-1.3 1.9-2.9 2.1-4.6.3-2.1-.2-4.2-1.2-6-.2-.4-.5-.8-.9-1.2-.3-.4-.7-.7-1-1-.1-.1-.2-.2-.3-.2-1.7-1.5-4.3-2.6-6.5-3.1-.2 0-.4-.1-.6 0-.1 0-.1.1-.1.1 0 .1 0 .3.1.3.1.1.2.1.4.1.5.1 1.1.2 1.6.4.8.2 1.5.6 2.2.9.8.4 1.6 1 2.4 1.5.2.2.4.3.5.5.1.1.2.1.2.2l.3.3.3.3c.1.1.1.2.2.2 1.2 1.5 1.8 3.4 1.8 5.3s-.6 3.7-1.9 5.1v-.1c0-.1 0-.2.1-.2 0-.1.1-.2.1-.4.1-.4.1-.9.1-1.3 0-.9-.3-1.8-.8-2.6-.4-.6-1.2-1.3-1.8-1.6.1-.4.5-1 .8-1.3.2-.2.3-.4.4-.7 0-.3 0-.6-.3-.7-.2-.1-.4-.1-.6 0-.3.1-.5.4-.6.7-.3.5-.3 1.1-.3 1.7l-.6-.2c0-.6-.1-1.1-.1-1.7 0-.4.1-.8.2-1.1.1-.3.2-.6.2-1 0-.3 0-.6-.1-.8 0 0 0-.1-.1-.1-.1-.2-.4-.3-.6-.4-.2 0-.5 0-.7.1-.1.1-.2.1-.2.2-.4.5-.4 1.4-.3 2 0 .2.1.3.1.5.2.6.4 1.2.8 1.6.1.1.2.2.3.4.1.1.2.2.2.3-.4 0-.8-.1-1.2 0-.4 0-.7.1-1 .2-.7.6-1.1.8-1.5 1.2zm-18-26.2c.1-.1.2-.3.2-.5s-.2-.4-.4-.6c-.2-.2-.5-.3-.7-.5l-.1-.1-.1-.1c-.1.1-.2.3-.2.5 0 .3.1.5.3.6.1.1.3.1.4.2.1.1.3.2.4.2l.1.1c0 .1 0 .2.1.2zm-3.5-1.2c-.1.1-.1.2-.1.4s0 .4.2.5c.1.1.3.2.4.2.2 0 .4.1.5.1.1 0 .2.1.3.1 0 0 .1.1.2 0 .1 0 .1-.2.1-.3 0-.2 0-.3-.1-.4-.1-.1-.3-.2-.4-.2-.2-.1-.4-.1-.6-.2-.1 0-.2-.1-.2-.1s-.1 0-.1-.1h-.2zm.2 23.7c.1.2.1.3.2.5 0 .1.1.2.1.3 0 .1.2.3.3.3 0 0 .1-.1.1-.2V47c0-.1-.1-.2-.1-.4-.1-.1-.1-.3-.1-.5-.1-.4 0-.7.2-1.1 0-.1.1-.1 0-.2 0-.1-.1-.1-.2-.2-.2 0-.3 0-.4.1-.3.2-.5.6-.6.9-.1.3-.1.6-.1.9 0 .3.1.5.2.7.1.1.1.2.2.3l.1.1v-.5c0-.2 0-.4-.1-.6 0-.1 0-.3.2-.3-.1.1-.1.2 0 .2zm-5.8-10.8c.2 0 .5 0 .7-.1.2-.1.4-.3.5-.6.1-.2.1-.5.2-.7 0-.2.1-.3.2-.4 0-.1.1-.2.1-.3-.2-.1-.5 0-.7.1-.2.1-.3.4-.3.6-.1.2-.2.5-.2.7 0 .1-.1.2-.1.3 0 0 0 .1-.1.1l-.1.1c-.2.1-.2.2-.2.2zm1.3 5.8l.2.3c.2.4.8.6 1.2.7h.2c.3 0 .6 0 .9-.1.2-.1.4-.2.5-.4v-.2s0-.1-.1-.1h-.3c-.2 0-.4 0-.6-.1-.3-.1-.5-.3-.7-.5l-.2-.2-.2-.2-.3-.1v.2c0 .1.1.2.2.3l.1.1.2.2.4.4v.2c-.1.2-.2.1-.3.1-.1 0-.2-.1-.3-.1-.1-.1-.3-.1-.4-.2-.1 0-.2-.1-.3-.1 0-.1-.1-.2-.2-.2zM55.7 8.6c-.3.1-.5.3-.6.6v.4c0 .1.1.3.2.4.2.2.5.3.8.2.2 0 .4-.2.5-.3.1-.2.2-.4.1-.6 0-.2-.2-.4-.3-.5-.3-.2-.5-.2-.7-.2zm.1.5c.4-.1.6.5.2.7-.4.1-.7-.6-.2-.7zm8.1 20.2v.5c-.1.2-.2.4-.4.4-.1 0-.2 0-.3-.1-.2-.1-.2-.4-.4-.5-.1-.1-.3-.1-.5-.1-.2.1-.4.3-.5.5-.1.3-.1.5.1.8l.3.3c.2.2.5.2.8.2.3 0 .6-.1.8-.3.4-.3.5-.8.4-1.3 0-.1 0-.3-.1-.3l-.2-.1zm1.3 8.2c0-.1.1-.3 0-.3h-.1c-.1 0-.1.1-.2.1-.3.3-.4.7-.4 1.1 0 .3.1.7.3.9.1.1.3.2.4.1.1 0 .3-.1.4-.2.1-.2.1-.3 0-.5s-.3-.3-.4-.5c-.1-.2-.1-.4 0-.7zM44 10c-.4.6-.8 1.3-1.1 2-.3.7-.5 1.5-.6 2.3v.9c0 1.4.5 3.1 1.6 4 .2.1.4.3.6.4.2.1.5.2.7.2.2 0 .4 0 .6-.1.2-.1.4-.3.4-.6 0-.2.1-.3 0-.5s-.2-.3-.4-.5-.4-.3-.6-.5c-.3-.2-.5-.4-.7-.7-.3-.3-.5-.6-.7-1 0-.1-.1-.1-.1-.2-.2-.6-.2-1.4-.2-2.1 0-.7 0-1.4.1-2.1.1-.5.2-1 .4-1.5zm0 8.5c-.3-.3-.5-.6-.6-1-.2-.4-.3-.8-.4-1.2-.1-.4-.1-.8-.1-1.2v-1c0 1.5.8 2.6 1.5 3.6.1.2.7.7.6 1-.1.3-.6.2-1-.2zm18.8-1.4c.1-.3.1-.4 0-.8-.1-.2-.2-.3-.3-.4l-.1-.1v-.7c0-.1-.1-.3-.2-.4-.2-.3-.6-.4-1-.4 0-.1-.1-.2-.1-.3 0-.1-.1-.3-.1-.4-.1-.5-.3-.9-.6-1.3-.4-.6-.9-1.1-1.5-1.4 0-.3 0-.5-.1-.8-.1-.2-.2-.3-.4-.4-.1 0-.1 0-.2-.1-.3 0-.6 0-.8.3-.1.2-.2.3-.2.5s0 .4.1.5c.1.2.3.3.6.4h.4c.1 0 .2-.1.3-.1.1.1.2.2.2.3.1.1.2.2.3.4.1.2.2.3.3.5.3.9.2 1.7 0 2.6-.1.2-.1.3-.2.5 0 .1-.1.3-.1.4 0 .1-.1.4 0 .5.1.1.2.1.3 0 .1 0 .1-.1.2-.1 0 0 .1-.1.2-.1.5-.3 1-.2 1.4.1.2.1.3.3.4.5 0 .1.1.2.1.3 0 .2.1.3.1.5.1.4.4.7.8.7.3 0 .6-.2.7-.4v-.1c0-.1 0-.3-.1-.4-.2-.2-.3-.2-.4-.3zm-4.9-6.9c.5-.2.7.6.2.7-.5.1-.7-.6-.2-.7zm1.7 5.3c.1-.2.1-.3.2-.5.1-.3.2-.6.2-1v-1c0-.1 0-.2-.1-.3 0-.1 0-.2-.1-.4v-.1.1c.2.3.4.6.5 1 .1.2.1.3.2.5 0 .1.1.3.1.4 0 .1.1.4.2.4l.2.1c.1 0 .3 0 .4.1.1 0 .2.1.3.2.2.2.2.4.2.7 0 .1-.1.3 0 .4 0 0 .1.1.2.1s.1.1.2.1c.1.1.2.3.1.5 0 .1-.1.1-.1.2l-.1.1v.1c0 .1 0 .2.1.3.2.1.3 0 .4.2-.1.2-.3.2-.4.1-.1-.1-.1-.2-.1-.2-.1-.2-.1-.4-.2-.6-.1-.3-.2-.5-.3-.7-.3-.4-.8-.7-1.4-.7H60c-.2-.1-.3-.1-.4-.1zM38.7 35.4c-.2 0-.5.1-.6.2-.2.3-.2.7-.2 1.1v.5c0 .2 0 .3-.1.5v.2c.1 0 .5-.2.6-.3.2-.2.3-.3.3-.6v-1.6zm3.6-23.8c-.3 0-.8.9-.9 1.1-.1.2-.3.5-.4.8-.1.2-.2.3-.2.5-.1.2-.2.5-.3.8-.1.3-.2.6-.2.9-.1.3-.1.5-.2.8 0 .2-.1.5-.1.7 0 1.1.1 3.1 1.2 3.6.2.1.5.1.7.1.2-.1.4-.2.5-.4.2-.3.2-.7 0-1-.1-.1-.2-.3-.3-.4-.1-.2-.3-.4-.4-.6-.4-.7-.7-1.5-.7-2.4 0-.6.1-1.2.2-1.8.1-.6.3-1.2.6-1.7.3-.3.6-.8.5-1zM41 14.9c-.1.7-.1 1.3 0 2 .1.4.2.8.3 1.1.1.4.3.8.4 1.2 0 .1 0 .2.1.2.2.4-.3.7-.5.5-.4-.6-.6-1.4-.6-2.1-.1-.7 0-1.4.1-2 0-.2.1-.4.1-.7 0 0 0-.1.1-.2zm25.6 38.7c0-.2 0-.3-.1-.4-.1-.1-.1-.3-.2-.4 0-.1 0-.2-.1-.3 0-.2 0-.4.1-.6.3-.3.7.2 1.1-.2.7-.7-.7-1.6-1.5-.7l-.2.2c-.2.3-.2.7-.2 1.1 0 .3.2.6.3.9.1.2.3.4.6.4h.2zM53.8 3.7c-.1-.2-.1-.6-.1-.9 0-.2.1-.7 0-.8-.1-.1-.1-.1-.2-.1-.3.1-.3 1-.3 1.2l.1.6s-.1 0-.1-.1l-.1-.1-.2-.2c-.2-.2-1-.9-1.3-.7-.2.1-.1.3 0 .4.1.1.2.1.3.2.1.1.3.2.4.3.2.1.4.3.5.5h-.1c-.1 0-.1 0-.2-.1-.1 0-.3-.1-.4-.1-.1 0-.2-.1-.3-.1-.1 0-.3-.1-.4-.1-.2 0-.4-.1-.6-.1-.2 0-1-.1-1.2.2-.1.1 0 .3.1.3H51c.2 0 .3 0 .5.1.2 0 .4.1.5.1.1 0 .3.1.4.2h.1-.8c-.7 0-1.4.2-2 .3-.4.1-.8.2-1.2.4-.2.1-1 .3-1.1.5-.1.3.1.4.3.4.1 0 .2-.1.3-.1.1 0 .2-.1.3-.1 1.6-.6 3.2-.9 4.9-.7h.9c.1 0 .1 0 .2-.1v-.5c0-.3 0-.6.2-.9.4-1.1 1.2-1.8 2.2-2.4.1-.1.2-.1.2-.2s0-.1-.2-.2c-.1 0-.5.2-.6.2-.1.1-.2.1-.3.2-.1 0-.1.1-.2.1-.9.8-1.5 1.6-1.8 2.4zm25.1 7c-.3.6 2.1 1.3 2.3 0 0-.2 0-.5-.2-.6-.2-.2-.6-.1-.8 0-.2.1-.4.3-.6.4-.1.1-.3.2-.4.2h-.3zm-6.4 13.9c-.5.1-1.1.3-1.3.8-.2.5 0 1.1.3 1.5.4.6 1.1 1 1.8 1.2.7.2 1.4.1 2.1 0 .3-.1.7-.2.5-.6 0-.1-.1-.1-.1-.1-.1-.1-.3 0-.4 0-.1 0-.2 0-.3.1-.1 0-.2 0-.3.1-.6.1-1.2.1-1.7-.2-.4-.2-1-.7-1.2-1.2v-.4c.1-.1.3-.2.4-.3.3-.1.7-.1 1.1 0 1.8.4 2.9 1.8 3.9 3.2.1.1.1.2.2.3 0 .1.1.2.2.2h.2c.2 0 .3-.1.4-.2v-.3c0-.1-.1-.1-.1-.2-.2-.4-.4-.7-.7-1-.1-.2-.3-.4-.4-.6-.1-.2-.2-.3-.4-.4l-.4-.4c-.1-.1-.2-.2-.4-.3-.2-.1-.3-.2-.5-.3-.3-.2-.5-.3-.8-.4-.7-.5-1.4-.6-2.1-.5zm-20-11.5c-.5.1-.8.7-.9 1.2-.1.3-.1.7.1 1 .1.2.3.3.6.3s.4-.3.5-.5c0-.2 0-.5-.1-.7-.1-.2-.1-.4-.1-.6 0-.1.1-.2.3-.3.4-.4-.1-.5-.4-.4zM76 5.4c-.3 0-.6 0-.9.1-.3.1-.7.2-1 .3-.5.2-1.2.5-1.5 1-.2.2-.3.5-.3.8 0 .2.1.4.3.5h.4s.1 0 .1-.1c.2-.1.3-.4.4-.6.1-.3.3-.5.5-.8.5-.5.8-.7 1.5-1 .1 0 .2-.1.3-.1 0 0 .1 0 .2-.1zm-3.2 49.8c-.1 0-.2 0-.3.1-.1.1-.2.4-.3.5 0 .1-.1.2-.1.3l.6-.1c0-.2.1-.3.1-.5-.1 0 0-.2 0-.3zm-.9 1.8c0 .1 0 .1-.1.2v.1c0 .1.1.1.1.2.2.2.2.1.4 0 .1 0 .2 0 .3-.1.1 0 .1-.1.1-.2v-.4l-.1-.1c-.2-.1-.7 0-.7.3zM36.7 21.1s-.1 0-.1.1c-.1.1-.2.4-.1.5.1.3.3.5.5.6.2.1.5.2.8.2.2 0 .5-.1.7-.2.2-.1.3-.2.5-.3.1-.1.2-.2.1-.3 0-.1-.2 0-.3 0h-.6c-.3 0-.5-.1-.7-.3-.1-.1-.2-.1-.3-.2-.2-.1-.4-.1-.5-.1zm31.9 2.7c-.4.1-.7.4-.8.8v.5c0 .2.1.3.2.5.3.3.6.4 1 .3.3-.1.5-.2.6-.4.2-.2.2-.5.2-.8-.1-.3-.2-.5-.4-.6-.2-.3-.5-.3-.8-.3zm.1.6c.1 0 .3 0 .4.1.1.1.1.2.1.3 0 .2-.1.4-.3.5-.2 0-.4 0-.5-.2 0 0-.1-.1-.1-.2v-.2c.1-.1.2-.2.4-.3zm-24.1 8.5c.1 0 .1 0 0 0 .1.1.2.1.3.2.1 0 .2.1.3.2.3.2.6.7.8 1 .2.3.3.5.6.7.2.1.3.2.5.2.2.1.3.1.5.1v-.5c0-.2 0-.3.1-.5s.2-.4.4-.6c.2-.2.4-.2.6-.3h.7c.1-.2-.1-.6-.3-.7-.1-.1-.2-.2-.4-.2-.2-.1-.5-.1-.8 0 .1-.5.2-.7 0-1.2-.1-.3-.3-.7-.5-.9-.1-.2-.6-.6-.8-.6h-.1c-.1.1 0 .3 0 .4 0 .2.1.5.1.7 0 .2 0 .4-.1.6 0 .1-.1.3-.1.4-.1.2-.1.4-.2.7-.1 0-.2 0-.2-.1-.1 0-.1 0-.2-.1-.2 0-.4 0-.5.1-.3-.1-.6.1-.7.4zm2.3 1.1c-.2-.1-.3-.3-.3-.5v-.2c0-.3.1-.7.2-1 .1-.3.2-.5.3-.7.1-.2.1-.3.1-.5v-.5c.1 0 .1.1.2.1.3.3.1.9 0 1.3-.1.2-.1.4-.2.6 0 .2-.1.3-.1.5s-.1.3-.1.5c0 .1 0 .2-.1.4zm-.8-.5c-.2 0-.2-.2-.3-.4 0-.1-.1-.1-.2-.2s-.2-.1-.2-.1c.1-.1.4-.1.5-.1.3.2.3.5.2.8zm1.3.1v-.2c0-.1.1-.2.1-.2 0-.1.2-.3.2-.4.1-.1.3-.1.4-.1.1 0 .4.1.4.2-.1 0-.2.1-.2.1-.1 0-.2 0-.3.1 0 0-.1 0-.1.1l-.2.2s-.1.1-.3.2zM81.8 29c-.3 0-.5.2-.7.3-.1.1-.2.2-.2.3v.2h.2l.1-.1c.1-.1.1-.1.2-.1s.3-.1.5 0c.1 0 .1.1.2.2.1.2-.1.5 0 .7 0 .1.1.1.1.2.1.1.2.1.3.1.1 0 .2 0 .3-.1.2-.2.4-.4.4-.7 0-.2-.1-.5-.3-.6-.4-.4-.8-.5-1.1-.4zm-22 13.4c0-.2 0-.5-.2-.6-.1-.1-.3-.2-.5-.2s-.5.1-.7.2c-.4.3-.8.9-1 1.4l-.3.6c-.5 1.1-.7 2.1-.7 3.3v.6c0 .1.1.4.3.2 0-.1.1-.4.1-.5 0-.2.1-.3.1-.5.2-.6.5-1.1.8-1.6.3-.5.7-1 1-1.4.1-.1.1-.2.2-.3.1-.1.2-.3.3-.4.1-.1.2-.3.3-.4.3-.1.3-.2.3-.4zm3-3.9c.2 0 .5-.1.7-.2.3-.1.7-.4.9-.6.1-.1.1-.3-.1-.3h-.2c-.1 0-.2.1-.2.1h-.4c-.1 0-.2-.1-.3-.1-.1 0-.2-.1-.3-.1-.2-.1-.5-.2-.7-.1-.1 0-.1.1-.1.1-.1.2-.1.5 0 .7.1.4.4.5.7.5zm-1.9 8.6c-.2 0-.3.1-.4.2-.4.3-.8.6-1.3.7-.1 0-.3.1-.4.1-.1 0-.2 0-.3.1-.1 0-.1.1-.2.1-.2.2-.2.4-.1.6.1.2.2.3.4.4.3.1.5 0 .8-.1.2-.1.4-.2.5-.4l.2-.2.1-.1c0-.1.1-.1.1-.2.1-.2.2-.3.3-.5.1-.1.3-.5.3-.7zm16.6-32.9c-.2-.1-.3-.1-.5-.2-.4-.3-.8-.6-.6-1.2 0-.1.1-.2 0-.2-.1-.2-.6-.1-.8-.1-1.8.1-3.5.9-4.5 2.4-.5.7-.7 1.6-.7 2.4 0 .3 0 .6.1.9 0 .2.1.5.2.7.1.2.1.4.2.6 0 0 0 .1.1.1 0 .1.1.2.2.3h.2c.1 0 .1 0 .2-.1s0-.2 0-.3c0-.1 0-.2-.1-.2 0-.1-.1-.2-.1-.3-.1-.2-.2-.5-.2-.8-.1-.3-.1-.6-.1-1 0-.8.2-1.6.7-2.3.4-.7 1.1-1.2 1.8-1.6.8-.4 1.6-.6 2.5-.6 0 1.1 1 1.6 1.9 1.8.1 0 .4.1.5.1.1 0 .1 0 .1-.1.1-.1.1-.2 0-.3 0-.1-.2-.1-.2-.1-.1 0-.3-.1-.4-.1-.3.2-.4.2-.5.2zm.8 7.4c-.1 1-.7 1.9-1.3 2.6l-.1.1-.2.2c-.1.1-.3.3-.3.4.3-.1.8-.4 1-.5.2-.1.4-.3.6-.5.1-.1.2-.1.2-.2l.1-.1c.2-.2.4-.4.5-.7.3-.6.4-1.1.3-1.8l-.8.5zm-8.5 4.7c-1.1.3-.6 1.9.5 1.6.2-.1.4-.2.5-.4.1-.2.1-.4.1-.7-.1-.2-.2-.4-.4-.5-.2 0-.4-.1-.7 0zm.2.6c.3-.2.5.2.2.4H70c-.1 0-.1-.1-.1-.2-.1 0 0-.1.1-.2zm7.2 18.4c.2.1.4-.1.4-.3 0-.1-.1-.4-.2-.5-.3-.6-.9-1.1-1.6-1.3-.5-.1-1.1-.2-1.6-.2-.3 0-.6-.1-.9-.1-.4-.1-.7-.2-1.1-.3-.1 0-.2-.1-.2-.1-.1 0-.1 0-.2-.1h-.1c-.2 0-.3.2-.3.4v.1l.1.1c.1 0 .1.1.2.1.2.1.3.2.4.4.4.5.5 1 .6 1.6v.6c0 .1 0 .3.1.3s.1.1.2 0c.2 0 .3-.2.3-.4.2-.5.4-1 .8-1.4.3-.3.7-.5 1.1-.5.2 0 .5 0 .7.2.3.1.5.3.6.5.1.2.2.3.3.5.2.1.2.3.4.4-.1-.1 0-.1 0 0zm-4-.8v-.1c0-.1 0-.1-.1-.2 0-.1-.1-.2-.1-.3 0-.1-.1-.2-.1-.3 0-.1-.1-.2-.1-.3l1.3.2-.1.1-.2.2c-.1 0-.1.1-.2.1l-.3.3c0 .1 0 .2-.1.3zm-11.7-.8c-.1 0-.2.1-.3.2-.3.3-.6.5-1 .6-.1 0-.2.1-.3.1-.2 0-.4.1-.5.2v.1c-.1.2-.1.5 0 .6.1.1.2.2.3.2.2 0 .4 0 .5-.1.1 0 .2-.1.3-.2l.3-.3c.2-.2.3-.4.5-.7 0-.2.2-.5.2-.7zm.1 5.8c-.2 0-.2.2-.3.3-.3.6-.6 1.9-.5 2.5.1.2.2.4.4.6.2.1.3.1.5.1.2-.1.4-.2.4-.4v-.3c0-.2-.2-.4-.3-.6-.2-.4-.3-.9-.3-1.4v-.4c.1-.2.1-.3.1-.4zm5.4 3.1c0 .1 0 .1 0 0 0 .1.1.1.1.2l.1.1c.1.2.2.3.2.5v.2c0 .1-.1.3-.1.4v.4l.1.1c.1 0 .1.1.1.1.1.2.2.4.2.7 0 .2 0 .5-.1.7 0 .1-.1.1-.1.2l-.1.1v.1c.3.2.5 0 .7-.2 1.2-.9 1.3-2.4.9-3.8-.1-.2-.1-.4-.2-.6-.1-.2-.3-.5-.5-.6h-.1c0 .2.1.3.1.5.1.4.2 1.3-.3 1.4-.1-.3-.3-.5-.6-.7.1.2-.2.1-.4.2zm-8.4-23.4c0-.2-.2-.4-.4-.5-.2-.2-.5-.3-.8-.4-.3-.1-.7-.1-1 0-.4.1-.7.4-.8.8 0 .2-.1.3 0 .5 0 .1.1.3.2.3.1.1.2.1.3.1 0-.1 0-.2.1-.3 0-.2 0-.3.2-.5.3-.5 1-.5 1.5-.4.1 0 .1.1.2.1.2.2.3.3.5.3zM84.5 16c-.2.3-.1 1 .1 1.2.1.1.1.1.2.1.1.1.3.1.4 0h.4c.1 0 .2 0 .3.1-.1.3-.6.3-.9.3h-.9v.2c0 .1.1.2.2.3.2.2.4.4.7.3.2 0 .4-.1.5-.3.2-.1.4-.3.5-.5.1 0 .2 0 .3.1.2 0 .4 0 .5-.3v-.3c.2-.1.7-.1.9 0l.1.1c.1 0 .1.1.2.1.1.1.3.2.4.1.1-.1.1-.2 0-.3 0-.2-.1-.3-.2-.4-.1-.1-.2-.2-.3-.2h-.5c-.1.1-.3.1-.4.2-.1.1-.2.1-.4.1 0-.1.1-.1.1-.2.1-.2.3-.3.5-.4.2-.1.4-.2.6-.2.1 0 .2 0 .2-.1h.1v-.1c0-.2-.4-.3-.6-.4h-.6c-.1 0-.1.1-.2.1-.2.2-.2.4-.3.6 0 .2-.1.3-.1.4-.4 0-.2-.9-.2-1.2 0-.1 0-.1.1-.2 0-.1.1-.2.1-.3v-.2c-.1-.1-.4.1-.5.1-.3.2-.6.5-.5.9 0 .1.1.3.2.4.1.1.1.2.2.3 0 .1.1.2.1.2-.4.2-1-.4-1.2-.7l-.1-.1s0-.1-.1-.1c.2.3.2.3.1.3zM64.2 48.7v-.1c-.1-.1-.2-.1-.3-.1-.4 0-.9.1-1.3.3-.3.2-.6.4-.7.7-.1.2 0 .5.1.7.1.1.2.1.4.1v-.2c0-.2.2-.4.5-.3h.1c0-.1 0-.1.1-.2.1-.2.2-.5.4-.7.1-.1.2-.2.4-.2.1.1.2.1.3 0zm-7.6-33.4c-.1 0-.3.1-.4.2-.2.1-.4.3-.6.5-.1.2-.3.3-.4.5-.1.1-.2.3-.3.4-.2.3-.2.5.1.7.1.1.3.2.5.2.4-.1.7-.7.9-1.1.1-.3.2-.6.2-.8.1-.2.1-.4 0-.6zm-15 28c-.1.2-.5.8-.6 1-.2.2-.3.3-.6.3-.1 0-.2 0-.4.1-.2 0-.3.1-.4.2-.1 0-.1.1-.1.2s.1.1.2.1.2 0 .3.1c.1 0 .2 0 .2.1h.3c.2 0 .3-.1.5-.2s.4-.2.5-.4c.1-.2.3-.4.4-.6.1-.2.2-.3.3-.5l.3-.3.2-.2c.1-.1.2-.2.3-.2 0 0 .1-.1.2-.1v-.1c0-.1-.1-.2-.1-.3-.1-.1-.2-.2-.3-.2-.1 0-.1.1-.2.1-.1.1-.3.2-.4.2-.4.1-.8.2-1.2.2-.4.1-.7.1-1.1.3-.1.1-.3.2-.4.2-.1.1-.2.1-.2.2s-.1.2-.1.3v.7h.2c.2-.1.4-.2.6-.4.1-.1.2-.3.4-.3h.1c.1 0 .2-.1.3-.1.1 0 .3-.1.4-.1.1 0 .2 0 .4-.1-.2-.2-.1-.2 0-.2zM37.2 23c-.1 0-.3.2-.4.3-.3.3-.6.6-.8.9-.3.3-.5.6-.7 1 0 .1-.1.1-.1.2s-.1.2-.1.2c-.1.2.1.4.3.3.1 0 .5-.6.6-.8.1-.1.2-.3.3-.4.2-.2.3-.4.5-.5.2-.2.3-.4.5-.5.1-.1.3-.2.3-.3-.1-.3-.2-.5-.4-.4zm24.2 22.2c-.1 0-.3.1-.4.2-.4.3-.8.5-1.2.7-.1 0-.3.1-.4.1-.1 0-.2.1-.3.1 0 0-.1 0-.1.1-.2.2-.2.4-.1.6.1.2.2.3.3.3.2.1.5 0 .7-.1.3-.1.7-.5.9-.8.2-.2.4-.5.5-.8 0 0 .1-.2.1-.4zM54.1 56h-.3c-.1 0-.2 0-.3.1-.3 0-.6.1-.9 0h-.9c0 .1.2.2.2.3.1 0 .1.1.2.1s.2.1.3.1c.2.1.5.2.7.3.2.1.5.1.7.2h.5c0-.1 0-.1-.1-.2 0-.1-.1-.1-.1-.2s-.1-.2-.1-.3c.1-.2.1-.3.1-.4zm0-37.6c-.1-.1-.3-.2-.4-.3-.3-.1-.5-.2-.8-.3-.5-.1-1.5-.3-1.5.5 0 .7.8.7 1.3.6.2-.1 1.3-.2 1.4-.5zm29 25.9h-.2c-.1 0-.2.1-.3.1-.3.1-.6.1-.9.1-.3 0-.7 0-1-.1-.2 0-.3 0-.5-.1h-.7c-.2.1-.3.3-.3.6.2.7 2 .3 2.5.1.4-.1 1.3-.4 1.4-.7zm-2.4-25.9c0 .1 0 .1 0 0l-.2.2-.5.5c-.2.1-.3.3-.5.4-.2.2-.3.3-.5.4-.2.1-.4.3-.6.4-.4.2-.7.5-1.1.7-1 .5-2 .9-3.1 1.1-1 .2-2.1.2-3.2 0-1.3-.3-2.4-.8-3.4-1.6-.2-.2-.4-.4-.6-.5l-.3-.3c-.1-.1-.2-.2-.2-.3-.2-.3-.5-.5-.6-.8l-.1-.1c-.1-.1-.2-.2-.4-.1h-.1c-.2.1-.2.3-.1.4 0 .1.1.1.1.2.1.1.1.2.2.3.1.1.1.2.2.2 0 .1.1.1.1.2l.7.8.4.4.4.4c.3.2.6.4.8.6.7.4 1.4.7 2.2.9.8.2 1.7.3 2.6.3 2.3-.1 4.7-.9 6.5-2.4l1.2-1c.1-.1.3-.2.4-.4 0-.5-.1-.7-.3-.9zm-.9 29.2c-.2.1-.6.5-.9.3l-.1-.1c-.1-.1 0-.3 0-.4 0-.2.1-.3.1-.5.1-.4.1-.7 0-1.1-.1-.3-.4-.5-.8-.4-.1 0-.2.1-.3.2-.2.2-.3.5-.3.7 0 .3 0 .6.1.9.2.5.5 1.1 1 1.2h.6c.2 0 .3-.1.4-.2.1-.1.2-.2.4-.2.1-.1.2-.1.4-.2h.6c.1-.1.2-.2.2-.4 0 0 0-.1-.1-.1l-.1-.1-.1-.1c-.1-.1-.2-.3-.2-.4 0-.1 0-.2-.1-.4 0-.1 0-.2-.1-.3-.1-.1-.1-.2-.2-.2-.1-.1-.2-.1-.4-.1s-.5.1-.6.3c-.2.2-.2.5-.1.8.1.2.2.3.3.4.1.3.2.3.3.4zm-1.6-.1c-.1-.2-.2-.6-.2-.8v-.2c0-.2.1-.5.4-.5.2.4 0 1-.2 1.5zm2-.2c-.2-.1-.8-.5-.5-.8.1-.1.1-.1.2-.1.3.1.3.7.3.9zM53.3 8.4c-.3.1-.5.3-.6.6v.4c0 .1.1.3.2.4.2.2.5.3.8.3.3-.1.5-.2.6-.5 0-.1.1-.3 0-.4 0-.2-.1-.3-.2-.4-.2-.4-.5-.4-.8-.4zm.1.5c.1 0 .3 0 .3.1 0 0 .1.1.1.2.1.2 0 .4-.3.4-.1 0-.3 0-.4-.1 0-.1-.1-.1-.1-.2.2-.3.3-.4.4-.4zM81 45.7c.1.2.3.2.5.2h.2c.7.2 1.7.1 2.4 0 .4-.1.8-.2 1.1-.5.2-.2.4-.4.5-.6.1-.2.1-.4 0-.6-.1-.2-.2-.3-.3-.5-.3-.2-.6-.2-.9 0-.1 0-.2.1-.2.2-.1.1-.2.1-.3.2-.2.1-.3.3-.5.4-.1.1-.2.2-.3.2-.2.2-.5.3-.8.5-.2.1-.3.2-.5.2-.2.1-.4.1-.5.1h-.1c-.1.1-.2.1-.3.2.1-.1.1 0 0 0zM73.1 4.2c.4 0 .7-.1 1-.3.3-.2.6-.5.8-.8 0-.1.1-.3.1-.4v-.4l-.1.2c0 .1-.2.2-.3.2-.1 0-.2-.2-.2-.3v-.2c-.1 0-.1.1-.2.2 0 .1-.1.1-.1.2s-.1.2-.1.2c0 .1-.1.2-.1.4-.1.3-.3.6-.5.8-.1.1-.2.1-.2.2 0-.1-.1 0-.1 0zm-23.7 6.9c-.3.1-.6.2-.6.5v.4c0 .1.1.3.2.4.2.3.5.3.8.3.3-.1.5-.2.6-.5 0-.1.1-.3 0-.4 0-.2-.1-.3-.2-.4-.3-.2-.5-.3-.8-.3zm.4 1c0 .1-.1.2-.3.2h-.2c-.2-.1-.3-.3-.2-.5 0-.1.1-.2.2-.2h.2c.1 0 .1.1.2.1.2.1.2.2.1.4zm-14.5 18c0 .2.4.3.6.3.3.1.5 0 .7-.2.1-.1.2-.1.2-.2.1 0 .1-.1.2-.2 0 0 .1-.1.2-.1.1-.1.2-.1.2-.2.1 0 .3-.2.3-.2 0-.1-.2-.2-.3-.2-.1 0-.2-.1-.3-.1-.2 0-.4.1-.5.2-.2.1-.4.3-.5.4-.1.1-.3.2-.4.3-.1 0-.1.1-.2.1s-.1 0-.2.1zm2.1 1.2c-.1-.1-.3-.1-.4-.1h-.3c-.1.1-.3.2-.4.3-.1.2-.2.3-.4.5-.1.2-.2.3-.3.5l-.1.1h-.1s-.1 0-.1.1c0 0 .1.1.2.1s.2.1.3.1c.3 0 .6-.2.8-.4.1-.1.1-.2.2-.3 0-.1.1-.2.1-.3.1-.1.1-.2.2-.3.2-.1.3-.1.3-.3zm16.5 16.2c.1-.1.1-.2.2-.2v-.5c.1-.3.1-.5.2-.8.1-.3.1-.6.2-.8.1-.3.1-.7.2-1 .1-.5.1-.9.1-1.4 0-.4-.1-.8-.4-1-.1-.1-.2-.2-.3-.2-.3-.1-.5 0-.7.2-.2.2-.1.6-.1.8 0 .5.2 1 .3 1.6.1.5.2 1.1.3 1.6v1.3c-.1.1 0 .3 0 .4zm-5.1-33.9c-.3.1-.6.2-.6.5v.3c0 .1.1.3.1.4.2.3.5.4.8.3.3 0 .5-.2.6-.4.1-.1.1-.3.1-.4 0-.2-.1-.3-.2-.5-.3-.2-.5-.3-.8-.2zm0 .5h.3c.1 0 .1.1.1.2.1.2 0 .4-.2.4-.4.2-.7-.5-.2-.6zm15-4.7H63c-.4 0-.7-.2-1-.5l-.1-.1h-.1c0 .4.3.9.5 1.3.1.2.5.8.7 1 0-.4 0-.8.3-1.2l.3-.3c.1 0 .2-.1.2-.2zM45.7 50.3c.5 1.4 2.2 2.5 3.5 3 .1.1.2.1.3.1.2.1.3.1.5.2s.7.2.9.1c-.1-.1-.2-.2-.3-.2-.2-.1-.4-.2-.6-.4-.6-.5-.9-1.2-1.1-2h-.4c0 .1 0 .2.1.4 0 .1.1.4 0 .5-.1.1-.2 0-.3-.1-.1-.2-.1-.6-.2-.8h-.3v.2c0 .1 0 .3-.1.4h-.1c-.1 0-.2 0-.3-.1-.1-.2 0-.5 0-.6-.1 0-.2-.1-.4-.1v.2c0 .1 0 .1-.1.2l-.1.1c-.1 0-.2 0-.3-.2 0-.1 0-.3.1-.5l-.6-.3-.2-.1zm29-46.4h1.5c.2 0 .5 0 .6-.2h-.1c-.2 0-.3-.1-.3-.3 0-.2.1-.3.3-.3-.3-.2-.8-.1-1.1.1-.1.1-.3.2-.4.3-.1.1-.2.1-.2.2-.1 0-.1.1-.2.2-.1 0-.1-.1-.1 0zM50.1 43c-.3-.1-.6-.1-.9-.2h-1.1c-.5.1-.9.3-1.3.5-1 .7-1.6 1.8-1.7 3-.1.6 0 1.2.1 1.7s.4 1 .7 1.4c.4.5 1 .8 1.6 1 .4.1.7.2 1.1.1.1 0 .3 0 .4-.1.1 0 .3-.1.4-.1 0 .7.1 1.4.6 2 .2.2.5.4.8.5.4.1.7 0 1.1-.1.2-.1.3-.2.4-.3.1-.1.2-.3.3-.5.1-.3 0-.5-.2-.8-.2-.2-.4-.3-.6-.4-.2-.1-.3-.2-.5-.3-.2-.1-.3-.3-.4-.5 0-.1-.1-.1-.1-.2-.1-.4.1-.8.2-1.1.1-.2.2-.5.2-.7.1-1-.3-2.1-1.3-2.6-.5-.3-1.1-.3-1.7 0-.4.2-.7.5-1 .8l-.3.6c-.3.8-.1 1.7.8 2 .3.1.7.1 1-.2.1-.1.2-.2.2-.3.1-.2.1-.4.1-.7 0-.3 0-.8.2-1.1.2-.3.7-.2.9.1.2.3.4.6.4.9 0 .8-.3 1.5-.9 1.9-.3.2-.6.3-.9.3-.3 0-.7 0-1-.1-.3-.1-.6-.2-.8-.4-.4-.3-.7-.7-.9-1.2-.2-.5-.3-1.1-.2-1.7.1-.7.3-1.3.7-1.8.4-.4.8-.8 1.4-1 .7-.2 1.4-.2 2.1 0 .7.3 1.4.7 1.8 1.4.4.5.6 1.1.7 1.7.1.4.1.7.1 1.1 0 .5.1.9.2 1.3.3 1.3.9 2.4 1.9 3.3.1.1.2.3.4.2.1 0 .1-.1.2-.1 0-.1.1-.2.1-.3 0-.1 0-.2-.1-.2l-.2-.2-.6-.7c-.5-.6-.9-1.3-1-2.1-.1-.7-.1-1.3-.2-2 0-.5-.1-1-.3-1.5-.1-.3-.3-.7-.5-.9-.1-.1-.1-.2-.2-.3-.1-.1-.1-.2-.2-.2 0-.1-.1-.1-.1-.2-.1-.4-.3-.8-.2-1.3.1-.3.2-.5.4-.8.1-.1.3-.2.3-.3v-.2c-.1-.2-.5-.2-.7-.2h-.4c-.1 0-.2 0-.3.1-.2.1-.4.2-.6.4-.3.7-.4 1.2-.4 1.6zm-1 3c0 .1-.1.1-.2.2s-.2.2-.2.4c-.1.2-.1.4-.1.6v.6c0 .1 0 .3-.1.4-.1.2-.5.1-.7-.1-.3-.4-.1-1.1.1-1.5.1-.2.3-.4.4-.5.2-.1.5-.2.8-.1zm1.2 3.9c0 .2.1.3.1.5 0 .1.1.2.2.3.2.2.4.4.6.5.1.1.2.1.3.2.1.1.3.1.4.2.3.3.1.6-.2.7-.3.1-.5.2-.8.1-.8-.3-1.1-1.8-.6-2.5zm.9-6.4c-.2-.1-.3-.2-.4-.3-.1-.2-.1-.4-.1-.6.1-.3.4-.6.8-.7l-.3.6v1zm-.3-34.2c-.2.1-.4.2-.5.4-.1.2-.1.4-.1.7.3 1 1.8.6 1.6-.5-.1-.2-.2-.4-.4-.5-.1-.1-.3-.2-.6-.1zm.2.4c.4-.1.6.6.2.7-.1 0-.2 0-.3-.1-.1-.1-.1-.2-.1-.3-.1-.1 0-.2.2-.3zM86.6 28c-.9.3-.5 1.6.4 1.3.2 0 .3-.2.4-.3.1-.2.1-.4.1-.6 0-.2-.2-.3-.3-.4-.2 0-.4-.1-.6 0zm-12.2-3.7c.3.3 1.5 0 1.8-.2.2-.1.3-.2.5-.4.3-.3.4-.7.1-1-.1-.1-.3-.3-.5-.3s-.3.2-.4.3c-.1.2-.2.4-.4.6-.1.2-.3.3-.4.4-.1.3-.3.3-.4.4-.1 0-.2.1-.3.2zm-24.8-8.2c-.2 0-.4.2-.5.3-.1.2-.1.4-.1.7.1.3.3.5.6.6h.4c.1 0 .2-.1.3-.2.3-.2.3-.5.3-.8 0-.2-.2-.4-.3-.5-.2-.1-.4-.2-.7-.1zm.1.4c.4-.1.6.5.2.7-.4.2-.7-.5-.2-.7zm10.2-8c-.1 0-.1 0 0 0-.1 0-.1 0 0 0l-.2-.2c-.1-.1-.2-.1-.2-.2-.6-.5-1.1-.9-1.8-1.2-.8-.5-1.7-.8-2.6-1-.8-.2-1.7-.3-2.6-.2-1.6.1-3.1.8-4.2 1.8s-1.9 2.3-2.2 3.8c-.4 1.4-.3 2.9.2 4.3.6 1.5 1.6 2.8 3 3.6 1.8 1.1 4.1 1.4 6.1.5.4-.2.8-.4 1.2-.7.9-.7 1.4-1.6 1.6-2.7.1-.5.1-1.1.1-1.6-.1-.5-.2-1-.4-1.5-.4-.8-1.1-1.5-1.9-1.9-1.7-.8-4-.2-5 1.5-.1.1-.1.2-.2.3-.2.5-.3 1.1-.3 1.6s.2 1 .5 1.4l.2.2c.4.4 1.1.7 1.7.7.6 0 1.3-.1 1.8-.5s.7-1 .7-1.6c0-.4-.1-.8-.4-1.1-.2-.2-.6-.4-.9-.3-.2 0-.4.1-.6.3-.2.2-.3.4-.4.7-.1.3 0 .5 0 .7v.4c0 .3-.2.6-.5.7-.3.1-.6 0-.8-.1-.3-.2-.5-.6-.6-.9-.2-.6 0-1.4.3-2 .3-.5.7-.9 1.2-1.2 1.8-.9 3.9-.2 4.7 1.7.1.3.2.7.3 1v1c-.1.6-.3 1.3-.6 1.8-.7 1-1.7 1.6-2.9 1.9-1.3.3-2.8.2-4-.5-1-.6-1.8-1.5-2.3-2.5-.8-2-.6-4.2.5-6 .2-.4.5-.7.8-1.1.8-.9 1.8-1.6 3-2.1.6-.2 1.1-.4 1.7-.5.6-.1 1.2-.1 1.7 0 .1 0 .3 0 .4.1 1.1.2 1.9.7 2.7 1.4.1 0 .1.1.2.1l.2.2.3.3.2.2.6.6c.3.3.6.7.8 1.1.3.4.5.8.8 1.2l1.2 2.1c.3.5.5 1.1.8 1.6 0 .1.1.2.1.3.1.2.2.3.5.2.1 0 .1-.1.1-.1.1-.2-.1-.5-.2-.7L63.1 13c-.4-.8-.8-1.5-1.2-2.3-.2-.2-.3-.5-.5-.7-.1-.2-.3-.4-.4-.6-.1-.3-.3-.5-.4-.8-.1-.4-.2-.8-.2-1.1V6.4c0-.2.1-.8.3-.9 0 .2 0 .3.1.5 0 .1 0 .3.1.4 0 .1.1.3.3.6.3.4.7.9 1.1 1.1 1.1.6 2.3.5 3.3-.4.3-.3.6-.7.7-1.2.1-.3 0-.7-.2-.9-.2-.3-.5-.4-.8-.5-.4-.1-.8 0-1 .3-.1.2-.2.3-.3.6v.7c0 .4 0 .9-.5 1h-.1c-.4.1-.8-.1-1.1-.3-.4-.3-.7-.7-.9-1.2-.1-.2-.2-.4-.2-.7 0-.5.1-.9.4-1.3.3-.4.9-.7 1.4-.8.6-.1 1.3-.1 1.9.1.7.2 1.4.6 1.8 1.2.3.5.5 1.1.6 1.6v.9c0 .2 0 .4-.1.6 0 .2-.1.3-.1.5-.1.3-.3.4-.6.6-.3.2-.6.3-.9.4-.3.1-.5.2-.8.3l-.6.3c-.2.2-.4.4-.5.6-.1.2-.1.4 0 .7.1.3.3.6.6.7.3.2.7.2 1.1.1 1.1-.3 1.7-1.4 2.1-2.4.1-.3.2-.6.3-1 .1-.2.2-.6.2-.9 0-.3.1-.6 0-1 0-.3 0-.6-.1-.9-.2-1.1-.9-2-1.8-2.6-.5-.3-1.1-.5-1.7-.6-.6-.1-1.3 0-1.9.1-1 .3-1.8.8-2.3 1.7-.6 1-.6 2.1-.5 3.2v.2c0 .1 0 .2.1.2 0 .1 0 .2.1.3v.2zm-6.5 7.9c0-.1.1-.2.1-.3.1-.1.1-.3.1-.4v-.6c0-.3 0-.7.2-1 .1-.1.2-.1.3-.1.2 0 .3.2.4.4.1.2.1.5.1.7 0 .3-.1.6-.3.8-.2.4-.6.5-.9.5zm11.2-8.8c0-.1 0-.2.1-.2 0-.1.1-.3.1-.4v-.7c0-.2 0-.4.3-.5.2-.1.5 0 .6.1.1.1.2.2.2.3 0 .2 0 .3-.1.5s-.2.3-.3.5c-.4.1-.6.3-.9.4zm-17.8 7.5l-.1-.2c-.2-.5-.2-1-.2-1.6 0-.9.1-1.8.4-2.6.3-.7.7-1.3 1.1-1.9l.9-.9c.4-.3.9-.6 1.3-.9.5-.3 1-.5 1.6-.6.6-.1 1.2-.2 1.7-.1h.1-.1c-.1 0-.1 0-.2.1-.1 0-.2 0-.2.1-.1 0-.3.1-.4.1-1.4.4-3.3 1.5-4.3 2.6-.1.2-.3.3-.4.5-.2.2-.3.4-.4.6-.6.9-.9 1.9-.9 3v1.1c.1.2.1.4.1.7zM67 9.5c-.1.3-.3.6-.4.9-.1.2-.2.4-.4.5-.3.3-.6.6-1.1.5-.3 0-.5-.1-.6-.4-.1-.2 0-.4.2-.6.1-.1.2-.2.3-.2.2-.1.3-.1.5-.2.1-.1.3-.1.4-.1.1 0 .2-.1.3-.1.1-.1.2-.1.3-.2.1 0 .2-.1.2-.1.1.1.2 0 .3 0zm-12.6 2.9s-.1 0-.1.1c-.1.1 0 .4.1.5.1.2.3.4.5.6.2.2.4.3.6.4h.5c.1 0 .1-.1.2-.1.1-.1.2-.2.2-.3.1-.1.1-.3 0-.4-.1-.2-.3-.4-.5-.5-.2-.1-.5-.2-.8-.3-.1 0-.4-.1-.7 0zm30.3.3c0 .1-.1.2-.1.3-.1.1-.1.3-.2.4-.1.1-.2.3-.3.4-.1.1-.1.2-.2.3v.1-.1c.1-.7.3-1.3.5-1.9.1-.5.2-1 .2-1.5 0-.6-.1-1.1-.3-1.7-.1-.1-.2-.1-.4-.2 0 .5.1 1 .1 1.5 0 .4 0 .9-.2 1.2v.1-.1c-.1-.7-.2-1.4-.3-2-.1-.3-.2-.7-.3-1-.2-.1-.5-.2-.7-.2.4.7.6 1.5.7 2.3.1.9.1 1.7 0 2.6-.1 1-.4 1.9-.7 2.9-.1.2-.2.4-.3.5l-.1.1s0 .1-.1.1v.1c0 .1 0 .1-.1.2 0 0 0 .1-.1.1h.1l.1.1.1.1c.2.1.3-.1.4-.2.2-.2.4-.5.6-.7.6-.6 1.3-1.2 2.1-1.6.6-.3 1.2-.5 1.9-.4.6.1 1.1.3 1.6.6.6.4 1.1.8 1.6 1.3-.1-.5-.4-1-.8-1.5-.4-.4-.9-.7-1.4-.9-.6-.2-1.3-.2-2 0-.5.1-1 .3-1.4.5-.1.1-.3.2-.4.2h-.1l.1-.1c.3-.3.5-.5.9-.8.2-.2.5-.3.7-.4.1 0 .2-.1.3-.1.1 0 .2-.1.3-.1.1-.1.3-.1.4-.2 0-.1.1-.1.1-.2.1-.6 0-1.1-.5-1.5-.2-.2-.4-.3-.6-.3h-.6c-.2.1-.3.3-.3.5.1 0 .1.1.2.1s.2.1.3.1c.1 0 .3.1.4.1.2.1.3.3.4.4 0 .1.1.3 0 .3h-.1l-.1-.1s-.1-.1-.1-.2c-.1-.1-.3-.2-.4-.3-.5-.2-.7-.1-.7.5.2.1.6.2.7.4h-.3c-.1 0-.2-.1-.3-.1h-.3zM55.8 37.5l.8-.8c.2-.2.4-.4.6-.7l.6-.9c.2-.3.3-.6.5-.8.1-.3.3-.5.4-.8.5-1 .9-2.8.1-3.8l-.4-.4c-.2-.1-.4-.1-.7-.1-.2 0-.3.1-.5.3-.4.4-.4 1.2-.4 1.7v.3c0 .5.1 1 .2 1.4 0 .5 0 1-.1 1.5-.3 1.6-1.5 2.7-2.8 3.6-2.2 1.5-4.8 2.6-7.4 2.9-.2 0-.4.2-.3.4 0 0 0 .1.1.1.1.1.5.1.7.1.2 0 .3-.1.5-.1 2.6-.5 5.6-1.7 7.6-3.5l.5-.4zm1.8-3.4v-1.2c0-.4-.1-.7-.1-1.1 0-.2 0-.4-.1-.7v-.6c0-.2.1-.4.3-.5.2 0 .3 0 .4.1 0 0 .1 0 .1.1.2.3.3.6.3.9 0 .4-.1.8-.2 1.2-.1.3-.2.7-.4 1 0 .3-.1.6-.3.8zm19.5-2.8c-.5.2-1 .4-1.6.5h-1.2c-.2 0-.3.2-.4.3-.1.1-.4.3-.5.3-.3.1-.5.2-.8.4-.4.2-.8.6-1.1 1-.3.4-.5.9-.6 1.5-.1.6 0 1.1.2 1.6.4.9 1.1 1.7 2.1 2 .6.2 1.2.2 1.7 0 .4-.1.9-.4 1.2-.8.4-.5.7-1.1.8-1.7.1-.5 0-1.1-.4-1.6-.2-.3-.5-.5-.9-.7-.2-.1-.5-.1-.8-.1-.3 0-.6.1-.8.2-.5.2-.9.5-1.1 1-.2.5 0 1 .3 1.4.1.2.3.3.6.4.3.1.6.2.9.1.8-.2.5-1.4 1.2-1.8.4-.2.4.1.5.4.1.5 0 1-.3 1.4-.3.5-.8.8-1.3 1-.6.2-1.2.1-1.7-.2-.8-.4-1.3-1.2-1.4-2.1-.1-.6 0-1.1.3-1.6.3-.6.8-1 1.4-1.3.7-.3 1.5-.3 2.3-.1.7.2 1.3.7 1.7 1.4 0 .1.1.1.1.2s0 .1.1.2c.1.2.2.3.5.2 0 0 .1 0 .1-.1.1-.1.1-.4.1-.5V34c0-.5 0-.9-.1-1.4l-.3-1.2c0-.1-.1-.3-.2-.4-.4.3-.5.3-.6.3zm-1.4 1.1c.3 0 .5-.1.8-.2.2-.1.4-.1.5-.2 0 .1.1.2.1.3.1.2.1.3.1.5s.1.3.1.5v.3c-.1-.1-.2-.1-.2-.2l-.2-.2c-.1-.1-.2-.2-.3-.2-.1-.1-.3-.2-.5-.3-.1 0-.2-.1-.2-.1 0-.1-.1-.1-.2-.2zm-.2 2.4c0 .1-.1.1-.2.2l-.3.3c-.1.1-.1.2-.1.3 0 .1-.1.2-.1.3-.1.1-.1.3-.2.4-.1.1-.1.2-.3.3-.1.1-.3 0-.4-.1-.2-.1-.3-.3-.4-.4 0-.1-.1-.2-.1-.3 0-.3.1-.6.4-.8.2-.1.5-.2.7-.2h.5c.2-.1.4-.1.5 0zm-17.4-6.9c.1-.2 0-.5-.1-.6 0-.1 0-.2-.1-.3v-1.1c0-.3.1-.6.2-.9.1-.3.2-.6.3-1 .1-.3.2-.6.3-.8.3-.7.6-1.3 1-1.9l.6-.9c.3-.4.6-1 .6-1.5 0-.3-.1-.6-.3-.8-.3-.1-.6-.1-.8.1-1.4.8-1.8 3.8-1.9 5.3v1c0-.2-.1-.5-.1-.7-.1-.6-.3-1.2-.5-1.8-.2-.3-.5-.8-.9-.9-.3 0-.6 0-.8.3-.1.2-.2.4-.2.6 0 .2.2.4.2.6.1.2.3.5.5.7.1.2.2.3.4.5.1.1.2.3.3.5.1.2.2.3.3.5.1.2.3.5.4.7.1.2.2.5.3.8.1.1.2.4.1.5v.1l-.4-.7c-.1-.2-.3-.5-.5-.7-.1-.2-.3-.4-.5-.6l-.3-.3-.3-.3-.2-.2c-.1-.1-.2-.2-.4-.3-.7-.8-1.3-1.2-1.9-.8l-.3.3c-.1.2-.1.3 0 .5.2.5.7.8 1.2 1.1.3.2.6.3.9.5.3.2.7.4 1 .7.3.2.6.5.9.7.3.2.5.5.7.8 0 .1.1.1.1.2.1 0 .1 0 .2.1zm22.5-12c.1-.1.1-.3.1-.3.1-2-.1-3.6-2.1-4.4-.1 0-.3-.1-.3-.1l.4-.4c.1-.2.2-.3.4-.5-.1-.1-.1-.2-.1-.2.2-.3.3-.6.4-.9.1-.3.1-.6 0-.8 0-.2-.2-.5-.3-.6-.3-.3-.7-.3-1.1-.2-.2.1-.4.2-.6.4-.2.2-.3.5-.3.8-.1.3-.1.7-.1 1.1 0 .2 0 .5-.1.7v.2s0 .1-.1.1c-.1.1-.2.1-.3.1-.5.1-1 .1-1.4.2-.9.1-1.8.4-2.6.7-.7.3-1.4.7-2 1.2-1.3 1.2-2.2 2.7-2 4.5.1 1.2.8 2.4 1.6 3.3l.3.3c.1.1.4.4.6.4 0 0 .1 0 .1-.1.1-.1.2-.3.1-.4l-.2-.2-.3-.3c-.1-.1-.2-.2-.3-.4-.2-.2-.3-.4-.5-.6-.5-.7-.8-1.4-.8-2.2-.1-.7.1-1.5.4-2.2.8-1.6 2.4-2.7 4.1-3.2.2-.1.4-.1.7-.1.3 0 .5-.1.8-.1.3 0 .5-.1.8-.1h.7c0 .3 0 .7.1 1 .1.2.2.3.3.5.3.3.6.4.9.6.3.1.5.2.8.4.3.2.6.3.8.5.1.1.2.2.3.4.1.2.2.3.3.5.3.3.3.4.5.4zm-2.9-5.5V8.8c0-.3.1-.7.5-.8h.3c.1 0 .1 0 .2.1.3.3 0 1.1-.2 1.4-.1.2-.2.3-.3.5l-.3.3-.2.2v-.1c0 .1 0 0 0 0zm2.1 3.5c-.3-.1-.5-.2-.8-.3-.3-.1-.6-.2-.8-.3-.2-.1-.4-.2-.6-.4-.2-.3-.2-.7-.2-1.1.2 0 .7.1.9.2.9.3 1.4 1 1.5 1.9zM36 37.3c1.4 2 3.5 3.4 5.8 4 .4.1.8.2 1.3.3.2 0 .5.1.7 0 .1-.1.1-.4 0-.5-.1 0-.6-.1-.7-.1-.1 0-.3 0-.4-.1h-.3c-1.2-.3-2.3-.7-3.3-1.4-.3-.2-.6-.4-.9-.7-.2-.1-.3-.2-.4-.4l-.4-.4c-.5-.5-.9-1.1-1.3-1.7 0-.1-.1-.2-.1-.2s0-.1-.1-.1l-.1.3v.8c.2 0 .2.1.2.2zm9.2 15v-.2c0-.1-.1-.2-.1-.4-.1-.4-.2-.7-.3-1.1-.1-.3-.2-.7-.3-1-.2-.6-.3-1.2-.3-1.8-.1-.6 0-1.3 0-1.9.1-.8.2-1.6.4-2.4.2-.8.5-1.5.8-2.2.1-.3.3-.6.4-.9.2-.5.5-1 .7-1.4l.8-1.3c.2-.3-.2-.6-.5-.4-.1.1-.2.2-.2.3-.1.1-.1.2-.2.3-.5.7-.9 1.5-1.3 2.3-.4.8-.7 1.7-1 2.6-.7 2.2-1 4.6-.3 6.8.3.8.6 1.6 1.1 2.4.1 0 .3.3.3.3zM34.8 34.8l.1-.2c0-.2 0-.5.1-.7V32c0-.8 0-1.5.1-2.2.1-.7.3-1.4.6-2.1.5-1.1 1.3-2.2 2.2-3l.2-.2c.2-.2.4-.4.7-.5l.9-.6c2.3-1.3 5.1-1.7 7.7-1.1 1.5.4 2.8.9 3.9 1.9l.6.6c.2.2.4.5.6.7.1.2.3.4.4.6.4.6.7 1.2.9 1.9.6 1.8.5 3.8-.4 5.5-.2.4-.5.8-.8 1.1l-.6.6c-.2.2-.5.3-.7.5-.3.2-.6.3-.9.4-.2.1-.3.1-.5.2-1.3.3-2.8.1-3.9-.7-.2-.2-.5-.4-.7-.6-.5-.6-.9-1.4-1-2.2-.2-.9 0-1.8.5-2.5.2-.4.6-.7 1-1 .2-.2.5-.3.8-.4.6-.2 1.2-.2 1.7 0s1 .4 1.4.9c.3.4.6.9.6 1.4.1.5 0 .9-.2 1.3-.1.4-.3.7-.5 1.1-.2.3-.4.7-.6 1-.2.3-.4.7-.6 1 0 .1-.1.2 0 .3 0 .1.1.2.2.2h.3c.1 0 .2-.1.2-.2.1-.2.2-.4.4-.6.2-.3.3-.6.5-.8.2-.3.3-.6.5-.9.1-.1.1-.2.2-.4 0-.1.1-.2.1-.3.3-.9.4-1.8 0-2.6 0-.1-.1-.2-.2-.3-.5-.8-1.3-1.4-2.2-1.6-.5-.1-.9-.2-1.4-.1-.5.1-1 .2-1.4.5-1 .7-1.7 1.5-1.9 2.8-.1.5-.1 1 0 1.5s.2 1 .5 1.5c.4.9 1.1 1.7 2 2.2.8.4 1.6.7 2.5.7.6 0 1.2-.1 1.8-.2.6-.2 1.2-.5 1.7-.8.6-.4 1.2-1 1.6-1.6.5-.7.8-1.5 1-2.4.2-.8.2-1.7.1-2.5-.3-2.2-.9-3.7-1.9-5-.1-.2-.3-.3-.4-.5-.9-1-1.9-1.6-3.1-2.2-.5-.2-.9-.4-1.4-.5-.5-.2-1.1-.3-1.6-.4-.7-.1-1.5-.1-2.2-.1-.8.1-1.6.2-2.3.4-1.5.4-3.1 1.2-4.3 2.3-.2.2-.5.4-.7.7l-.4.4c-.1.2-.3.4-.4.5-.4.6-.8 1.3-1.1 2-.3.8-.5 1.6-.6 2.5-.2 1.2-.1 2.6.2 3.8-.1.2.1.9.1.9zm41.5 20.4c-.3-.2-.4-.5-.4-.9 0-.2.1-.4.3-.6.1-.1.1-.2.1-.3 0-.1 0-.2-.1-.2-.1-.1-.2-.1-.3 0-.2.1-.3.3-.4.5-.1.1-.1.3-.1.4v1.2c0 .1 0 .2-.1.3 0 .1 0 .1-.1.2v.9l.1-.1.3-.3c.1-.1.1-.2.2-.3.1-.1.1-.2.2-.3.1.1.2.1.4.2 0 0 .2.1.2 0v-.5c-.2-.1-.3-.2-.3-.2zM49.1 6.3c-.2.1-.3.1-.5.2-.4.2-.8.3-1.2.5-.3.2-.6.3-.9.6-.2.2-.5.3-.7.5-.3.2-.6.6-.7 1-.1.2-.1.3-.2.5v.2l.1-.1c.1-.1.2-.2.3-.4.1-.2.3-.4.4-.6.2-.2.4-.5.7-.7-.1.1-.2.2-.2.3-.1.1-.2.3-.3.4-.2.3-.4.7-.6 1-.2.4-.4.7-.5 1.1 0 .1 0 .1-.1.2v.7s0 .2.1.2.2-.1.2-.2 0-.1.1-.2c0-.1.1-.2.1-.3.1-.2.2-.4.3-.7l.3-.6c.1-.1.1-.3.2-.4.2-.5.6-1 1-1.5.4-.4.8-.8 1.2-1.1.2-.1.4-.3.6-.4.1-.1.2-.1.3-.2zm1.4 22.2c-.1-.3-.3-.7-.5-.8-.7-.8-1.7-1.3-2.7-1.5-1.2-.2-2.5-.1-3.6.4-1.6.7-2.9 1.9-3.4 3.6-.2.8-.3 1.6-.3 2.4 0 .5.2 1 .4 1.5.2.3.4.6.6.8.2.1.4.2.7.3.2 0 .4-.1.5-.2.1-.1.2-.3.2-.4 0-.3-.1-.6-.3-.9-.1-.2-.2-.3-.3-.5l-.3-.6c-.4-1.1-.3-2.4.3-3.4.1-.2.2-.3.3-.4.1-.1.2-.2.3-.4.2-.2.5-.4.7-.6.5-.3 1-.6 1.5-.7.6-.2 1.2-.2 1.8-.2 1.1 0 2.3.4 3.1 1.1l.3.3c.3-.1.6.1.7.2zm-9.8 2.4c.1.4.2.9.3 1.3 0 .1 0 .2.1.2 0 .1.1.2.1.4.1.2.1.3.2.5l.3.6c0 .1.1.1.1.2v.2c0 .1 0 .1-.1.2h-.2c-.1 0-.2-.1-.3-.1-.5-.4-.6-1.2-.7-1.8v-1.1c.1-.3.2-.4.2-.6zm41.2-3.3l.1-.1c0-.1.1-.2.1-.3 0-.1.1-.1.1-.2 0 0 .1-.1.1-.2.1-.2.2-.5.3-.8.1-.3.2-.6.2-.8.3-.9.7-1.9 1.7-2.2.5-.1.9-.1 1.3.3s.5.9.4 1.5c0 .1-.1.3 0 .5.1.1.3.1.4.1.3-.2.3-.7.3-.9 0-.3-.1-.7-.2-1-.1-.3-.3-.5-.6-.6-.4-.3-.8-.4-1.3-.4s-1 .2-1.4.5c-.5.4-.8.9-1.1 1.5-.2.5-.3 1.1-.5 1.6-.2.6-.4 1.2-.9 1.6l-.3.3-.3.3c-.3.2-.1.7.3.6h.1l.1-.1c.1-.1.3-.2.4-.2.4-.2.8-.2 1.2 0l.9.6.7.7.2.2c.1.1.2.2.2.3l.3.3.2.2c.2.2.4.3.6.5.3.2.6.3 1 .4.5.1 1.1-.1 1.6-.3.5-.3.9-.6 1.2-1.1.3-.5.5-1 .5-1.5.1-.9-.3-1.7-1-2.3-.4-.3-.9-.6-1.4-.7-.5-.1-1-.1-1.5.1-.2.1-.4.2-.5.3-.2.2-.4.4-.5.6-.2.2-.4.7-.3 1 0 .1.1.2.2.2h.3c.1-.1.2-.2.2-.3.1-.3.2-.6.4-.8l.1-.1c.1 0 .1-.1.2-.1.2-.1.4-.2.6-.2.4-.1.9 0 1.3.2s.8.5 1.1.9c.3.5.4 1.1.3 1.7-.1.3-.2.5-.3.8-.4.6-1.1 1.1-1.9 1.2-.3 0-.6 0-.8-.2-.2-.1-.5-.3-.7-.5-.2-.2-.3-.4-.5-.6l-.6-.6-.7-.7c-.2-.2-.4-.3-.7-.5-.6-.5-.9-.6-1.2-.7zM60.8 57.1c-1.3-.8-2.4-1.9-3.2-3.2-.7-1.1-1.2-2.3-1.6-3.5-.4-1.4-.4-2.9-.3-4.3 0-.2 0-.4.1-.6.1-1 .4-2.3 1-3.2.2-.3.4-.5.7-.6.1 0 .2-.1.3-.1.1 0 .2 0 .2-.1l.2-.2c0-.1.1-.3 0-.4 0-.2-.1-.3-.2-.4-.2-.3-.5-.4-.9-.4-.1-.3-.3-.4-.5-.4h-.5s-.1 0-.1.1l-.1.1c-.4-.2-.7-.1-1 .1-.2.2-.4.5-.3.8 0 .1.1.2.1.2.2.2.4.3.5.5.4.5.4 1.2.3 1.8 0 .3-.1.6-.1.8 0 .2-.1.5-.1.7-.4 2.2-.2 4.9.6 7 .8 2.1 2.1 3.8 3.8 5.2.4.3.9.6 1.3.8.2.1.4.2.7.4.1 0 .2.1.2.1h.1l-.1-.2c-.1-.1-.2-.3-.4-.4-.1-.1-.1-.2-.2-.2l-.1-.1-.1-.1c-.2-.1-.2-.1-.3-.2zm-5.6-16.6c.1-.1.2-.2.3-.2 0 0 .1 0 .1.1.1 0 .1.1.2.1s.3 0 .4-.1c.1 0 .1-.1.2-.2h.1s0 .1.1.1c0 .1.1.1.1.2.1.1.2.2.4.2h.3c.1 0 .1.2.2.3-.2.1-.3.1-.5.2s-.4.3-.5.4c-.1.1-.2.3-.3.4l-.1.1c0-.1-.1-.2-.1-.3 0-.1 0-.2-.1-.2 0-.1-.1-.3-.2-.4-.1-.2-.2-.3-.4-.4l-.1-.1c-.1-.1-.1-.1-.1-.2zm10.5 15.3h-.3c-.1 0-.3 0-.4-.1-.1 0-.2-.1-.3-.1-.8-.4-1.3-1.3-1.5-2.1-.3-.4-.5-.9-.6-1.3l-.1-.3v1.5c.2 1.5 1.2 2.9 2.8 3.1h.9l.3-.1-.1-.1c-.1 0-.2-.1-.3-.1-.1-.2-.3-.3-.4-.4zm23.4-19.9c.8.1 2.1.5 3.3-.3.6-.4.8-1.3.8-1.9 0-.3 0-.2-.1.1-.7 2.1-3 1.9-2.9 1.8 1.1-.5 2-1.2 2.4-2.3 0-.2 0-.1-.2 0-.3.1-.4.3-.6.5-.5.7-.9 1-1.8 1.3-.9.3-1.8.3-2.6 0-.5-.2-.3.2-.1.4.1.2.4.4.5.5 1.5 1.4 1.6 5.9 3 5.6.3-.1.2-.1 0-.2-.9-1-1.1-2.4-1.1-2.4.4.6.8 1.1 1.4 1.5.2.2.2.1.1-.2-.2-1.2-1.7-1.8-2-2.7-.1-.2 0-.3.1-.1l.2.2c.2.3.6.8 1 .9.5.2 1 .2 1.3-.1.3-.2.1-.2-.1-.2-1-.2-1.8-.9-2.1-1.2-.2-.2-.3-.3 0-.2.7.3 1.5.5 2.2.5.3 0 .3 0 0-.2-.3-.3-.7-.4-1.1-.5-.4-.1-1.5-.2-1.9-.4-.1-.4 0-.5.3-.4zm0 0" fill="#012e23"/><path d="M80.3 32.8c.8-.3 1.6-.7 2.2-1.1 1.1-.8 2.1-1.9 2.8-3 .9-1.6 1.1-2.7.7-4.5-.3-1.3-.5-2.1-1.3-3.1-.7.3-1.3.3-2 .3-1.9.1-1.2 0-2.5 1.2-.4.4-.8 1.8-.5 2.3.3.5.6.9 1 1.3s.8.6.9 1.1c.1.6-.1 1-.5 1.5-.2.2-.2.3-.2.6-.2 1-.3 2.2-.6 3.4zm6.8-14.4c.6.6 1.1 1.3 1.5 2.1.8 1.7.8 4.1.7 6-.1 1.8-.7 3.9-2 5.2-.3.3-.5.6-.9.9-.9.7-1.7 1.6-2.7 2.2-1.4.9-3.2.8-4.6 1.4-.4.5-.7 1.2-1 1.7-1.8 2.6-2.4 3.4-5.4 4.7l-3.6 1.6c.1 1.4.6 1.9 1.6 3 .6.7 1.5 1.2 2.5 1 1-.2.9-.4 2 .1l.7.3-.1 6.4h-1.1c-1.1 0-2.2-.8-3.2-1.2-1.1-.5-2.1-.4-3.1-1.1l-.1-.1-.1-.1c-.3-.3-.6-.7-.9-1l-.1-.1-.1-.1c-.1-.2-.6-.5-.7-.6-1-.7-1.1-.7-2.3-.7-1.2 0-1.4-.2-2.4.5-.4.3-1 .8-1.3 1.2-.3.4-.3.6-.8.9-1.1.7-2 .7-3.1 1.1-1.1.5-1.8 1.1-3.1 1.3l-1.4.3-.1-6.6.6-.3c2.3-1.2 1.9 1.1 4.7-1.2.9-.8 1.5-1.8 1.6-2.9-2.6-.9-6.2-2.4-7.8-4.6L49.2 37c-.2-.2-.3-.6-.5-.8-.8-.3-.9-.2-1.9-.4-2.2-.6-2.8-.8-4.5-2.4-2.4-2.3-3.4-3.3-3.8-6.8-.2-1.9-.2-4.3.7-6.1.7-1.3 2.3-3.6 3.8-3.9l.6-.1.4.4c.3.3.4.5.6.9.2.5 2.4.9 2.9 1 1.8.4 2.8.8 4.6 0 1.8-.8 3.4-2.2 4.4-3.9.4-.7.3-1.5.3-2.2l.1-1 1.7-.1v-.1c0-.3-.5-.5-.6-.5-.9-.4-.8-.4-1.2-1.2l-.4-.6.3-.6c-.1 0-.2-.1-.2-.1l-.6-.3V5.3H57c1.3-.1 1.6-.5 2.7-.8.8-.2 1.5-.3 2.3-.4-.1-.1-.1-.2-.1-.4l-.3-.9.8-.4-.1-.7 1.3-.7h.8l1.3.7-.1.8.6.4-.2.8s0 .2-.1.3c.8.1 1.7.3 2.5.5.5.2 1.2.6 1.6.6 1.9.3 2.1.2 2.1 2.4v.9l-.8.2h-.1v.1l.3.7-.6.6c-.3.5-.5.7-1 .9-.1.1-.6.3-.7.4l1.6.2.1.8c.1.7 0 1.7.4 2.3.3.6.8 1.1 1.2 1.6.8 1 2.1 1.8 3.3 2.3 1.8.8 2.5.5 4.4.1.7-.1 2.7-.5 3.1-1.1.1-.3.3-.5.5-.7l.4-.4.6.1c.9.2 1.7 1.1 2.3 1.9zM47.5 32.8c-.1-.5-.2-1-.2-1.5-.1-.7-.2-1.5-.3-2.2-.1-.5-.6-.8-.8-1.5l-.1-.5.3-.4c.6-.8 1.2-1.3 1.7-2.1.3-.5-.2-1.6-.5-2-.4-.5-.8-1.2-1.5-1.2-1-.1-2.1 0-3.1-.4-.6.9-1.1 2.1-1.2 3.1-.3 1.7-.2 3 .7 4.5 1.2 2 2.8 3.4 5 4.2zm0 0" fill-rule="evenodd" clip-rule="evenodd" fill="#012e23"/><path d="M62.8 4.6v-.2c-.3-.3-.4-.4-.5-.8l-.1-.6.4-.2c.1 0 .2-.1.3-.1V2l.9-.4h.6l.9.4v.7c.1.1.2.1.3.2V3l-.1.4c-.1.4-.2.5-.4.8v.3c1.1 0 2.1.2 3.1.6.4.2 1.3.6 1.7.7 1.6.3 1.6-.1 1.6 1.8V8l-.4.1c-.1 0-.6.2-.7.3 0 .1.2.5.2.6l.1.4-.3.3-.1.1c-.2.4-.4.5-.8.7-.7.3-1.5.8-.9 1.5l1.5.2.1.4c.1.8 0 1.7.4 2.5.3.6.8 1.2 1.3 1.7.9 1.1 2.2 1.9 3.5 2.5 2 .9 2.7.6 4.7.1.9-.2 3-.5 3.5-1.4.1-.2.2-.4.4-.6l.2-.2h.3c.8.1 1.6.9 2.1 1.6.6.6 1 1.3 1.4 2 .8 1.6.8 3.9.6 5.7-.1 1.7-.6 3.6-1.9 4.9-.3.3-.5.6-.8.8-.9.7-1.7 1.5-2.7 2.2-1.2.8-3.5.9-4.6 1.5-.4.6-.6 1.1-1.1 1.9-1.7 2.6-2.2 3.2-5.1 4.5l-4 1.8c.1 1.8.5 2.3 1.8 3.8.8.9 1.8 1.4 3 1.1.9-.2.7-.4 1.7 0l.3.2-.1 5.5h-.6c-.9 0-2.1-.8-3-1.2-1-.4-2.1-.5-3-1.1-.3-.3-.6-.7-.9-1-.1-.2-.7-.6-.9-.8-1.1-.7-1.3-.8-2.7-.7-1.4 0-1.6-.1-2.7.6-.4.3-1.1.8-1.5 1.3-.2.3-.2.5-.6.7-1.1.7-1.9.6-3 1.1-1 .4-1.7 1.1-2.9 1.3l-.7.1-.1-5.5.3-.2c2-1 1.8 1.3 4.8-1.3 1.2-1 1.8-2.3 1.8-3.8-2.5-.9-6.4-2.4-7.9-4.5L49.6 37c-.2-.2-.4-.8-.6-.9-.3-.1-1.8-.4-2.1-.5-2.2-.6-2.6-.7-4.3-2.3-2.3-2.1-3.3-3.1-3.6-6.4-.2-1.8-.2-4.1.6-5.8.6-1.2 2.1-3.4 3.4-3.6l.3-.1.2.2c.2.2.3.4.5.7.4.8 2.5 1.1 3.3 1.3 2 .4 3 .8 4.9-.1 1.9-.9 3.6-2.3 4.6-4.2.5-.9.3-1.5.4-2.5v-.5L59 12c.4-.9.2-1.1-.8-1.6-.8-.4-.6-.3-1-1l-.2-.2.2-.3c.1-.1.2-.3.3-.4 0 0 0-.1-.1-.1 0-.1-.6-.2-.7-.3l-.3-.2v-2h.5c1.6-.1 1.4-.4 2.9-.8 1.1-.4 2-.5 3-.5zm16.7 29.1c1.2-.4 2.7-1.1 3.3-1.5 1.2-.8 2.2-2 2.9-3.2 1-1.7 1.2-2.9.8-4.9-.3-1.5-.6-2.3-1.5-3.5-.1-.1-.1-.2-.2-.2-.7.4-1.3.4-2.3.4-2.1.1-1.6.1-2.8 1.3-.6.6-1.1 2.2-.7 3 .3.5.7 1 1.1 1.4.3.2.6.4.7.8.1.4-.1.7-.4 1-.3.3-.3.4-.4.9.1 1.6-.1 3-.5 4.5zm-31.2 0c-.2-.8-.4-1.6-.5-2.4-.1-.8-.2-1.5-.3-2.3-.1-.6-.6-.8-.8-1.5v-.2l.1-.2c.6-.8 1.2-1.1 1.7-2.2.4-.7-.1-2-.5-2.6-.5-.7-1-1.4-1.9-1.5-1-.1-2.4 0-3.4-.6-.8.9-1.4 2.5-1.6 3.7-.3 1.9-.2 3.3.8 4.9 1.6 2.6 3.7 4.1 6.4 4.9zm0 0" fill-rule="evenodd" clip-rule="evenodd" fill="#012e23"/><path d="M49.1 34.5c-3.4-.8-5.9-2.4-7.6-5.4-.9-1.6-1.2-3.1-.8-5.3.3-1.4 1-3.4 2.2-4.3.7.8 2.4.6 3.5.8 1.1.1 1.7.8 2.3 1.7.6.7 1.1 2.3.6 3.2-.7 1.3-1.5 1.9-1.8 2.3.1.6.6.7.8 1.5.2 2.7-.1 2 .8 5.5zm29.6 0c.7-1.9.8-3.3 1-5.4.1-.6.2-.8.5-1.1.8-.9-.1-.3-1.5-2.6-.6-1 0-2.9.8-3.7 1-.9.7-1.4 3.2-1.5 1.3-.1 1.7-.1 2.4-.7.7 1.1 1.5 1.3 2.1 4.4.5 2.2.2 3.6-.8 5.3-.8 1.3-1.9 2.6-3.1 3.4-.9.7-3.4 1.7-4.6 1.9zM64.1 2.1h-.3l-.4.2c.1.9 0 .8-.6 1 .3.9.6.2.6 1.8-1.5.1-2.1.1-3.5.5-1.8.6-.9.8-3 .8v1.1c.4.2.8.2.9.6.3.6 0 .7-.2 1 .4.6.1.5.8.8 1.4.7 1.7 1.1.9 2.6l-1.3.1c-.1 1.2.1 1.7-.5 2.7-1.1 1.9-2.8 3.4-4.9 4.4-2.1.8-3 .6-5.3.1-4.2-.8-3.3-1.4-4-2.2-1 .2-2.4 2.3-3 3.3-.7 1.5-.8 3.7-.6 5.5.3 3.2 1.2 4 3.4 6 1.7 1.6 2 1.6 4 2.2 3 .8 2 .1 3 1.7L52 39c1.4 2 5.2 3.4 8 4.4 0 1.9-.7 3.5-2.1 4.6-3.2 2.7-3.3.5-4.9 1.3l.1 4.5c1.1-.2 1.9-.8 2.8-1.2 1.1-.5 1.9-.4 2.9-1 .3-.2.3-.3.5-.6.4-.5 1.1-1 1.6-1.4 1.2-.8 1.3-.8 3-.8 1.6-.1 1.9.1 3 .8.3.2.8.7 1 .9.4.4.6.7.9 1 .8.6 2 .6 2.9 1 .8.3 2 1.1 2.7 1.1l.1-4.5c-.8-.4-.6-.2-1.3 0-1.4.3-2.6-.3-3.6-1.3-1.4-1.6-1.9-2.2-2-4.5l4.3-2c2.9-1.3 3.3-2 4.9-4.3.2-.3 1.1-1.9 1.2-2 .3-.3 3.9-.9 4.7-1.5 1-.7 1.8-1.4 2.6-2.2.3-.2.5-.5.8-.8.9-1 1.6-2.6 1.7-4.5.2-1.8.1-4-.6-5.4-.4-.8-.8-1.4-1.3-1.9-.4-.6-1-1.3-1.7-1.4-.7.7.2 1.3-4.1 2.2-2.3.5-3 .8-5.1-.2-1.4-.7-2.7-1.5-3.7-2.6-.4-.5-.9-1.1-1.3-1.8-.5-.9-.3-1.5-.5-2.6l-1.3-.2s-1.6-1.5.9-2.5c.7-.3.3-.3.7-.7-.4-.9-.5-1.3.8-1.7 0-1.5.2-.9-1.1-1.2-.5.2-1.9-1-5-.9 0-1.8.3-.9.5-1.8-.6-.4-.6-.2-.5-1l-.4-.2zm0 0" fill-rule="evenodd" clip-rule="evenodd" fill="#fff"/><path d="M63.9 31.4v4.9c0 .2.1.4.4.4l1.1.3v.2h-5.1V37l1.2-.3c.2-.1.4-.2.4-.4v-4.9c-.2-.3-.4-.6-.7-.8v-.3c.3-.2.5-.5.7-.8v-1.1h-.4c-.7 0-1.3 0-2-.1h-.1v4.8c0 .2.1.3.3.4l1.4.4v.2H56v-.2l1.2-.3c.2-.1.3-.2.4-.4v-4.8c-.2-.4-.4-.6-.7-.8v-.3c.3-.2.6-.5.7-.8V21c0-.2-.1-.4-.3-.4l-1.2-.6v-.2h6.1c1.2 0 2.6.2 3.6.9.9.6 1.2 1.9 1.2 3v.9c-.1 1-.6 2-1.4 2.7-.3.3-.7.5-1.1.6v-1.5c.3-.6.4-1.3.5-1.8v-.1h-1.1v5.1c.2.3.4.6.7.8v.2c-.3.1-.6.4-.7.8zm3.6-7.7h4.6v.2l-1.3.4c-.2.1-.3.2-.3.4v4.7c.2.3.5.6.8.8v.2c-.4.2-.5.6-.8.9v4.9c0 .2.2.3.4.4l1.2.3v.2h-5v-.2l1.1-.3c.2-.1.4-.2.4-.4v-4.8c-.2-.3-.4-.6-.7-.8v-.3c.3-.2.5-.5.7-.8v-5.1h-1l-.1-.7zm-2.6 0v-.1c-.1-.8-.3-1.9-.8-2.4-.7-.7-1.8-.8-2.7-.8-.6 0-1.3 0-1.9.1h-.1v7.1h.1c.6.1 1.3.1 1.9.1h.5v-3c0-.2-.1-.4-.3-.4l-1.3-.4v-.2h4.6zm0 0" fill-rule="evenodd" clip-rule="evenodd" fill="#012e23"/><path d="M49.8 110c3.1-.1 5.6-.3 6.7-.8.3.7 1.3.7 2.2.9h.1-.1c-.9.2-1.9.2-2.2.9-1.1-.6-3.6-.7-6.6-.8H23.8v-.2h26zm54.2 0H78c-3.1-.1-5.6-.3-6.7-.8-.3.7-1.3.7-2.2.9H69v.1h.1c.9.2 1.9.2 2.2.9 1.1-.6 3.6-.7 6.6-.8H104v-.3zm-40.3 1.1c0 .2.1.5.2.6.2-.1.2-.4.2-.6 0-.2-.1-.4-.2-.6l-.1-.2-.1.2c.1.2 0 .4 0 .6zm2 .7c.1-.1.2-.2.2-.3-.6 0-1.2 0-1.4-.7-.1-.3 0-.6.3-.5.1 0 .2.2.3.2.1-.1.2-.2.2-.5.4.5.9.9 1.8.1l.2-.2c-1.1 0-.9-.7-1.4-.9-1-.4-1.9.4-1.7 1.5.1.9.7 1.2 1.5 1.3zm-1.7-2.5c0 .2-.1.4-.1.6.7-.8.8-2.2 0-2.7 0 0 .1.3.1.5.1.8.1.9 0 1.6zm-1.9 2.5c-.1-.1-.2-.2-.2-.3.6 0 1.2 0 1.4-.7.1-.3 0-.6-.3-.5-.2 0-.2.2-.3.2-.1-.1-.2-.2-.2-.5-.4.5-.9.9-1.8.1l-.2-.2c1.1 0 .9-.7 1.4-.9 1-.4 1.9.4 1.7 1.5-.2.9-.7 1.2-1.5 1.3zm1.7-2.5c0 .2.1.4.1.6-.7-.8-.8-2.2 0-2.7 0 0-.1.3-.1.5-.2.8-.2.9 0 1.6zm0 0" fill="#012e23"/></svg>