<?xml version="1.0" encoding="utf-8"?>
<!-- Generator: Adobe Illustrator 27.1.1, SVG Export Plug-In . SVG Version: 6.00 Build 0)  -->
<svg version="1.1" id="Layer_1" xmlns="http://www.w3.org/2000/svg" xmlns:xlink="http://www.w3.org/1999/xlink" x="0px" y="0px"
	 viewBox="0 0 214.9 150.9" style="enable-background:new 0 0 214.9 150.9;" xml:space="preserve">
<g>
	<g>
		<g>
			<g>
				<path style="fill:#E3B48B;" d="M145.8,41.1c-0.7-0.7-2.5-2.5-5.7-3.5c-0.1,0-0.3,0-0.4,0c-1.5,0.8-11,5.7-39.7,11.4l0.6-1.6
					c1.9-4.5,3.9-8.9,5.8-13.4c1.2-2.6,7.9-16.7,17.4-16.7c0.6,0,2.8-0.1,3.8,1.8c1.4,2.6,0.8,11-5.6,17.4c-2.9,3-5.1,4-6.4,4.1
					c-0.8,0-1.5-0.5-1.5-1.3c0-0.1,0-0.1,0-0.2c0.2-2.5,1.8-4.2,2.7-5.2c0.1-0.2,0.1-0.3-0.1-0.3c-0.5-0.1-0.9-0.1-1.5-0.1
					c-2,0-3.6,0.4-4.8,0.8c-0.3,0.1-0.6,0.3-0.8,0.6c-0.5,0.7-1.4,2.3-1.2,4.1c0.4,2.3,4.1,7.1,16.5,0.2c5.7-3.2,9.3-8.1,10-14
					c0.6-4.8-2.1-14.2-17.1-9.4c-13.4,4.2-19.3,16.1-20.3,18.4l-6.5,14.9l-0.8,1.7c-13.7,4.3-15.5,11.4-15.6,13c0,0,0,0,0,0.1
					c0,0.2,0,0.3,0,0.3c0,1.4,0.3,2.3,0.3,2.3c1.4,3.6,6.4,4.7,12.1,1.1c5.2-3.3,8.5-9.6,10.6-14.2c0.1-0.1,0.5-1,0.7-1.3
					c0.4-0.1,0.8-0.1,1.1-0.2c1.5-0.3,4.8-0.7,4.8-0.7c-0.8,2.1-2.8,7-5,12.4C95.6,72.9,94.6,76.9,90,81c-0.9,0.8-1.9,1.3-2.7,1.7
					c-0.1,0-0.1,0.1-0.1,0.1l-0.3,0.7c0,0.1,0,0.2,0.1,0.2c1.7-0.3,3.7-0.8,5.8-1.7c8.4-3.7,11.9-11.4,12.8-13.8
					c2.5-5.7,4.9-11.3,7.4-17c0.1-0.2,0-0.3-0.2-0.4c-0.6-0.1-1.1-0.2-1.5-0.3c-0.5-0.1-0.5-0.2,0-0.3c0.7-0.1,1.7-0.3,2.3-0.4
					c0.5-0.1,1-0.2,1.5-0.3c0.6-0.1,1.2-0.2,1.8-0.3c0.7-0.1,1.3-0.3,1.9-0.4c2.7-0.5,5.3-1.1,7.8-1.7c1-0.2,2.1-0.5,3.1-0.7
					c5.8-1.5,11-3.1,16-4.8C145.9,41.5,146,41.3,145.8,41.1z M87.8,57.7C87.8,57.8,87.7,57.8,87.8,57.7c-1.2,2.3-2.5,4.6-4,6.1
					c-2.1,2-4.4,2.4-5.3,1.8c-1-0.7-1.7-3.6,3.9-7.6c2.7-1.9,6.3-3.3,9.6-4.2c1.2-0.3,1.3-0.1,0.2,0.5
					C89.1,55.8,87.9,57.5,87.8,57.7z"/>
			</g>
			<g>
				<path style="fill:#E3B48B;" d="M124.8,50.1c-3.5,0.6-5.5,1.4-6.6,1.9c-0.7,0.4-1.2,0.9-1.5,1.6l-4.2,10c0,0-2.5,6.4-3.4,8.3
					c-0.7,1.6-2,3.5-3.1,4.4c-0.1,0.1-0.2,0.2-0.2,0.3l-0.2,0.7c-0.1,0.2,0,0.2,0.2,0.2c0.4-0.2,0.8-0.3,1.3-0.5
					c8.4-3.7,11.7-11.7,12.7-14l5.4-12.4C125.3,50.2,125.1,50.1,124.8,50.1z"/>
			</g>
		</g>
	</g>
	<g>
		<path style="fill:#E3B48B;" d="M214.8,125.4C214.9,125.4,214.9,125.4,214.8,125.4c0.1-0.3,0.1-0.9,0-1c-0.1-0.8-0.3-1.5-0.7-2.2
			c-0.5-0.8-1.1-1.4-1.9-1.9c-0.8-0.5-1.7-0.7-2.7-0.7c-1.1,0-2.2,0.3-3.1,0.8c-0.9,0.5-1.7,1.3-2.2,2.3c-0.5,1-0.8,2.1-0.8,3.3
			c0,1.3,0.3,2.4,0.8,3.4c0.6,1,1.3,1.7,2.3,2.3c1,0.5,2,0.8,3.2,0.8c1.3,0,2.4-0.4,3.4-1.1c0.8-0.6,1.4-1.5,1.7-2.5
			c0-0.1,0.1-0.5,0.2-0.7c0-0.1,0-0.1-0.1-0.1h-1.2c-0.1,0-0.1,0-0.1,0.1c0,0.2-0.1,0.5-0.1,0.6c-0.2,0.6-0.6,1.2-1.2,1.6
			c-0.7,0.5-1.5,0.8-2.5,0.8c-1,0-1.7-0.3-2.2-1c-0.5-0.7-0.8-1.7-0.8-2.9v-1.7c0-0.1,0-0.1,0.1-0.1H214.8z M211.5,124h-4.7
			c0,0-0.1,0-0.1-0.1c0.1-0.8,0.4-1.5,0.8-2c0.5-0.6,1.1-0.9,2-0.9c0.7,0,1.2,0.2,1.5,0.7C211.3,122.3,211.5,123,211.5,124
			C211.6,124,211.5,124,211.5,124z"/>
		<path style="fill:#E3B48B;" d="M51.7,128.7c-0.2,0.7-0.6,1.3-1.2,1.7c-0.7,0.5-1.5,0.8-2.4,0.8c-1,0-1.7-0.3-2.1-1
			c-0.5-0.7-0.8-1.7-0.8-2.9V125c0-1.3,0.3-2.3,0.8-3c0.5-0.7,1.2-1,2.1-1c0.6,0,1.1,0.1,1.5,0.4c0.3,0.3,0.5,0.6,0.5,1
			c0,0.2,0,0.4-0.1,0.5c0,0.1-0.1,0.1-0.1,0.2c0,0-0.2,0.2-0.3,0.2c0,0-0.1,0.1-0.1,0.1c0,0.1,0,0.3,0,0.3c0,0.4,0.2,0.8,0.5,1.1
			c0.4,0.4,0.8,0.5,1.3,0.5c0.5,0,1-0.2,1.3-0.5c0.3-0.3,0.5-0.8,0.5-1.4c0-0.7-0.2-1.4-0.7-2c-0.5-0.6-1.1-1-1.8-1.3
			c-0.7-0.3-1.6-0.5-2.5-0.5c-1.1,0-2.1,0.3-3,0.8c-0.9,0.5-1.7,1.3-2.3,2.2c-0.6,1-0.9,2.1-0.9,3.4c0,1.2,0.3,2.4,0.8,3.3
			c0.6,1,1.3,1.7,2.2,2.3c0.9,0.5,2,0.8,3.1,0.8c1.3,0,2.4-0.4,3.3-1.1c0.8-0.6,1.4-1.5,1.6-2.5c0-0.1,0.1-0.5,0.1-0.7
			c0-0.1,0-0.1-0.1-0.1h-1.2c-0.1,0-0.1,0-0.1,0.1C51.8,128.3,51.7,128.6,51.7,128.7z"/>
		<path style="fill:#E3B48B;" d="M12.6,115.1c-1.1-1-2.9-1.5-5.2-1.5H0.1c-0.1,0-0.1,0-0.1,0.1v1.1c0,0.1,0,0.1,0.1,0.1l1.8,0.3
			c0.1,0,0.1,0.1,0.1,0.2v15.2c0,0.1-0.1,0.1-0.1,0.2L0.1,131c-0.1,0-0.1,0.1-0.1,0.2v1c0,0.1,0.1,0.1,0.1,0.1h7.2
			c0.1,0,0.1-0.1,0.1-0.1v-1c0-0.1-0.1-0.1-0.1-0.2l-1.8-0.3c-0.1,0-0.1-0.1-0.1-0.2v-5.1c0-0.1,0-0.1,0.1-0.1h2
			c2.3,0,4-0.5,5.2-1.5c1.2-1,1.8-2.5,1.8-4.4C14.4,117.6,13.8,116.1,12.6,115.1z M5.4,115.1c0-0.1,0-0.1,0.1-0.1h1.6
			c2.5,0,3.7,1.3,3.7,4v0.9c0,2.8-1.2,4.1-3.7,4.1H5.5c-0.1,0-0.1,0-0.1-0.1V115.1z"/>
		<path style="fill:#E3B48B;" d="M24.1,121.2l1.6,0.5c0,0,0,0,0,0.1l-2.1,6.1c0,0.1-0.1,0.1-0.1,0l-3-6.3c0,0,0-0.1,0-0.1l1.2-0.2
			c0.1,0,0.1-0.1,0.1-0.2v-1c0-0.1,0-0.1-0.1-0.1h-6.2c-0.1,0-0.1,0-0.1,0.1v1c0,0.1,0.1,0.1,0.1,0.2l1.4,0.2c0.1,0,0.1,0.1,0.2,0.1
			l4.9,10.5c0,0.1,0,0.1,0,0.2l-1.3,3.6c-0.2,0.7-0.4,0.9-0.6,1.1c-0.2,0.2-0.4,0.2-0.6,0.2c-0.2,0-0.3-0.1-0.4-0.2
			c-0.1-0.1-0.2-0.2-0.2-0.4c0-0.3,0.1-0.5,0.3-0.7l0.1-0.1c0,0,0,0,0-0.1c0-0.1,0-0.1,0-0.1l-0.1-0.1c-0.2-0.3-0.4-0.5-0.7-0.7
			c-0.3-0.2-0.6-0.2-1-0.2c-0.5,0-0.9,0.2-1.3,0.5c-0.3,0.4-0.5,0.8-0.5,1.4c0,0.8,0.3,1.4,0.9,1.9c0.6,0.4,1.3,0.7,2.1,0.7
			c0.9,0,1.7-0.2,2.2-0.7c0.5-0.5,0.9-1.1,1.2-2.1l4.9-14.2c0-0.1,0.1-0.1,0.1-0.1l1.4-0.5c0.1,0,0.1-0.1,0.1-0.1v-1
			c0-0.1,0-0.1-0.1-0.1h-4.7c-0.1,0-0.1,0-0.1,0.1v1C24,121.1,24.1,121.1,24.1,121.2z"/>
		<path style="fill:#E3B48B;" d="M38.7,128.7c-0.2,0.7-0.6,1.3-1.2,1.7c-0.7,0.5-1.5,0.8-2.4,0.8c-1,0-1.7-0.3-2.1-1
			c-0.5-0.7-0.8-1.7-0.8-2.9V125c0-1.3,0.3-2.3,0.8-3c0.5-0.7,1.2-1,2.1-1c0.6,0,1.1,0.1,1.5,0.4c0.3,0.3,0.5,0.6,0.5,1
			c0,0.2,0,0.4-0.1,0.5c0,0.1-0.1,0.1-0.1,0.2c0,0-0.2,0.2-0.3,0.2c0,0-0.1,0.1-0.1,0.1c0,0.1,0,0.3,0,0.3c0,0.4,0.2,0.8,0.5,1.1
			c0.4,0.4,0.8,0.5,1.3,0.5c0.5,0,1-0.2,1.3-0.5c0.3-0.3,0.5-0.8,0.5-1.4c0-0.7-0.2-1.4-0.7-2c-0.5-0.6-1.1-1-1.8-1.3
			c-0.7-0.3-1.6-0.5-2.5-0.5c-1.1,0-2.1,0.3-3,0.8c-0.9,0.5-1.7,1.3-2.3,2.2c-0.6,1-0.9,2.1-0.9,3.4c0,1.2,0.3,2.4,0.8,3.3
			c0.6,1,1.3,1.7,2.2,2.3c0.9,0.5,2,0.8,3.1,0.8c1.3,0,2.4-0.4,3.3-1.1c0.8-0.6,1.4-1.5,1.6-2.5c0-0.1,0.1-0.5,0.1-0.7
			c0-0.1,0-0.1-0.1-0.1H39c-0.1,0-0.1,0-0.1,0.1C38.8,128.3,38.8,128.6,38.7,128.7z"/>
		<path style="fill:#E3B48B;" d="M66.2,130.7c-0.1,0-0.1,0-0.1-0.1c0,0-0.1-0.2-0.3-0.8l-0.4-1.9c-0.2-0.9-0.5-1.6-1-2
			c-0.4-0.3-0.9-0.6-1.6-0.7c0,0-0.1,0,0-0.1c0.1-0.3,0.3-0.6,0.4-1l0.4-1.6c0.1-0.3,0.2-0.3,0.3-0.3c0.1,0,0.1,0,0.1,0.1
			c0,0,0.1,0.1,0.1,0.2c0,0.1-0.1,0.4-0.1,0.5c0,0.1,0,0.1,0.1,0.1l0.2,0.1c0.2,0.1,0.5,0.1,0.7,0.2c0.6,0,1.1-0.2,1.5-0.6
			c0.3-0.4,0.5-0.8,0.5-1.3c0-0.3-0.1-0.6-0.3-0.9c-0.4-0.6-1-1-1.9-1c-0.8,0-1.4,0.2-1.7,0.7c-0.4,0.4-0.6,1-0.8,1.8l-0.4,1.6
			c-0.2,0.6-0.3,0.9-0.5,1c-0.1,0.2-0.4,0.2-0.6,0.3h-1.6c-0.1,0-0.1-0.1-0.1-0.1v-3.4c0-0.1,0.1-0.2,0.1-0.2l1.3-0.2
			c0.1,0,0.1-0.1,0.1-0.2v-1c0-0.1,0-0.1-0.1-0.1h-6.1c-0.1,0-0.1,0-0.1,0.1v1c0,0.1,0.1,0.1,0.1,0.2l1.3,0.2c0.1,0,0.1,0.1,0.1,0.2
			v9.1c0,0.1-0.1,0.2-0.1,0.2l-1.3,0.2c-0.1,0-0.1,0.1-0.1,0.2v1c0,0.1,0,0.1,0.1,0.1h6.1c0.1,0,0.1,0,0.1-0.1v-1
			c0-0.1-0.1-0.1-0.1-0.2l-1.3-0.2c-0.1,0-0.1-0.1-0.1-0.2v-4.1c0-0.1,0.1-0.1,0.1-0.1l1.5,0c0.4,0,0.8,0.1,1,0.3
			c0.2,0.2,0.4,0.6,0.5,1.2l0.4,2.4c0.1,0.8,0.4,1.3,0.8,1.6l0,0c0.4,0.3,1,0.5,1.7,0.5c0.4,0,0.9-0.1,1.3-0.3
			c0.4-0.2,1.1-0.9,1.3-1.1c0,0,0-0.1,0-0.2l-0.8-0.8c0,0-0.1,0-0.1,0C66.7,130.4,66.3,130.7,66.2,130.7z"/>
		<path style="fill:#E3B48B;" d="M77.5,120.5c-0.9-0.5-2-0.8-3.1-0.8c-1.1,0-2.2,0.3-3.1,0.8c-0.9,0.5-1.7,1.3-2.2,2.3
			c-0.5,1-0.8,2.1-0.8,3.3c0,1.2,0.3,2.4,0.8,3.3c0.5,1,1.3,1.7,2.2,2.3c0.9,0.5,2,0.8,3.1,0.8c1.1,0,2.2-0.3,3.1-0.8
			c0.9-0.5,1.7-1.3,2.2-2.3c0.5-1,0.8-2.1,0.8-3.3c0-1.2-0.3-2.4-0.8-3.3C79.2,121.8,78.5,121,77.5,120.5z M71.5,127.2V125
			c0-1.2,0.3-2.2,0.8-2.9c0.5-0.7,1.2-1,2.1-1c1,0,1.7,0.3,2.1,1c0.5,0.7,0.8,1.7,0.8,2.9v2.2c0,1.2-0.3,2.2-0.8,2.9
			c-0.5,0.7-1.2,1-2.1,1c-1,0-1.7-0.3-2.1-1C71.8,129.4,71.5,128.5,71.5,127.2z"/>
		<path style="fill:#E3B48B;" d="M93.9,125.4C93.9,125.4,94,125.4,93.9,125.4c0.1-0.3,0.1-0.9,0-1c-0.1-0.8-0.3-1.5-0.7-2.2
			c-0.5-0.8-1.1-1.4-1.9-1.9c-0.8-0.5-1.7-0.7-2.7-0.7c-1.1,0-2.2,0.3-3.1,0.8c-0.9,0.5-1.7,1.3-2.2,2.3c-0.5,1-0.8,2.1-0.8,3.3
			c0,1.3,0.3,2.4,0.8,3.4c0.6,1,1.3,1.7,2.3,2.3c1,0.5,2,0.8,3.2,0.8c1.3,0,2.4-0.4,3.4-1.1c0.8-0.6,1.4-1.5,1.7-2.5
			c0-0.1,0.1-0.5,0.2-0.7c0-0.1,0-0.1-0.1-0.1h-1.2c-0.1,0-0.1,0-0.1,0.1c0,0.2-0.1,0.5-0.1,0.6c-0.2,0.6-0.6,1.2-1.2,1.6
			c-0.7,0.5-1.5,0.8-2.5,0.8c-1,0-1.7-0.3-2.2-1c-0.5-0.7-0.8-1.7-0.8-2.9v-1.7c0-0.1,0-0.1,0.1-0.1H93.9z M90.6,124h-4.7
			c0,0-0.1,0-0.1-0.1c0.1-0.8,0.4-1.5,0.8-2c0.5-0.6,1.1-0.9,2-0.9c0.7,0,1.2,0.2,1.5,0.7C90.4,122.3,90.6,123,90.6,124
			C90.6,124,90.6,124,90.6,124z"/>
		<path style="fill:#E3B48B;" d="M102.1,114.9l1.8,0.3c0.1,0,0.1,0.1,0.1,0.2v15.2c0,0.1-0.1,0.1-0.1,0.2l-1.8,0.3
			c-0.1,0-0.1,0.1-0.1,0.2v1c0,0.1,0,0.1,0.1,0.1h7.2c0.1,0,0.1,0,0.1-0.1v-1c0-0.1-0.1-0.1-0.1-0.2l-1.8-0.3
			c-0.1,0-0.1-0.1-0.1-0.2v-15.4c0-0.1,0-0.1,0.1-0.1h7.2c0.1,0,0.1,0,0.1,0.1v15.4c0,0.1-0.1,0.1-0.1,0.2l-1.8,0.3
			c-0.1,0-0.1,0.1-0.1,0.2v1c0,0.1,0,0.1,0.1,0.1h7.2c0.1,0,0.1,0,0.1-0.1v-1c0-0.1-0.1-0.1-0.1-0.2l-1.8-0.3
			c-0.1,0-0.1-0.1-0.1-0.2v-15.2c0-0.1,0.1-0.1,0.1-0.2l1.8-0.3c0.1,0,0.1-0.1,0.1-0.2v-1c0-0.1,0-0.1-0.1-0.1H102
			c-0.1,0-0.1,0-0.1,0.1v1C101.9,114.8,102,114.9,102.1,114.9z"/>
		<path style="fill:#E3B48B;" d="M132.7,122.8c-0.5-1-1.3-1.7-2.2-2.3c-0.9-0.5-2-0.8-3.1-0.8c-1.1,0-2.2,0.3-3.1,0.8
			c-0.9,0.5-1.7,1.3-2.2,2.3c-0.5,1-0.8,2.1-0.8,3.3c0,1.2,0.3,2.4,0.8,3.3c0.5,1,1.3,1.7,2.2,2.3c0.9,0.5,2,0.8,3.1,0.8
			c1.1,0,2.2-0.3,3.1-0.8c0.9-0.5,1.7-1.3,2.2-2.3c0.5-1,0.8-2.1,0.8-3.3C133.5,124.9,133.2,123.7,132.7,122.8z M124.4,127.2V125
			c0-1.2,0.3-2.2,0.8-2.9c0.5-0.7,1.2-1,2.1-1c1,0,1.7,0.3,2.1,1c0.5,0.7,0.8,1.7,0.8,2.9v2.2c0,1.2-0.3,2.2-0.8,2.9
			c-0.5,0.7-1.2,1-2.1,1c-1,0-1.7-0.3-2.1-1C124.7,129.4,124.4,128.5,124.4,127.2z"/>
		<path style="fill:#E3B48B;" d="M144.8,130.8v-9.3c0-0.1,0.1-0.1,0.1-0.2l1.3-0.2c0.1,0,0.1-0.1,0.1-0.2v-1c0-0.1-0.1-0.1-0.1-0.1
			h-10.8c-0.1,0-0.1,0.1-0.1,0.1v0.9c0,0.1,0,0.1,0.1,0.1l1.8,0.9c0.1,0,0.1,0.1,0.1,0.2l-0.2,2.3c-0.1,1.5-0.2,2.7-0.3,3.4
			c-0.1,0.7-0.3,1.3-0.5,1.7c-0.2,0.5-0.5,0.8-0.7,1.1c-0.2,0.2-0.5,0.3-0.7,0.3h-1c-0.1,0-0.1,0-0.1,0.1l-0.4,4.9
			c0,0,0,0.1,0.1,0.1h1.2c0.1,0,0.1,0,0.1-0.1l1.8-3.5c0-0.1,0.1-0.1,0.1-0.1h6.5c0.1,0,0.1,0,0.1,0.1l1.9,3.5
			c0,0.1,0.1,0.1,0.1,0.1h1.2c0,0,0.1,0,0.1-0.1l-0.4-4.9c0-0.1-0.1-0.1-0.1-0.1h-1.3C144.8,130.9,144.8,130.8,144.8,130.8z
			 M138.2,128c0.1-0.8,0.3-2,0.4-3.5l0.2-3c0-0.1,0.1-0.1,0.1-0.1h2.7c0.1,0,0.1,0,0.1,0.1v9.4c0,0.1,0,0.1-0.1,0.1h-4.2
			c-0.1,0-0.1,0-0.1-0.1c0.2-0.2,0.3-0.5,0.4-0.8C137.9,129.4,138.1,128.8,138.2,128z"/>
		<path style="fill:#E3B48B;" d="M157.6,125.7C157.5,125.7,157.5,125.6,157.6,125.7c1.2-0.8,1.5-1.8,1.5-2.7c0-1.1-0.4-1.9-1.2-2.4
			c-0.7-0.5-1.9-0.7-3.5-0.7H148c-0.1,0-0.1,0.1-0.1,0.1v1c0,0.1,0.1,0.1,0.1,0.2l1.3,0.2c0.1,0,0.1,0.1,0.1,0.2v9.2
			c0,0.1-0.1,0.1-0.1,0.2L148,131c-0.1,0-0.1,0.1-0.1,0.2v1c0,0.1,0.1,0.1,0.1,0.1h7.1c1.4,0,2.6-0.3,3.4-0.9
			c0.9-0.6,1.3-1.5,1.3-2.7C159.8,127.7,159.4,126.4,157.6,125.7z M155.8,123.1c0,0.7-0.2,1.2-0.5,1.5c-0.3,0.3-0.8,0.5-1.5,0.5
			h-1.2c-0.1,0-0.1-0.1-0.1-0.1v-3.6c0-0.1,0.1-0.1,0.1-0.1h1.1c0.7,0,1.3,0.1,1.6,0.4C155.7,122,155.8,122.4,155.8,123.1
			L155.8,123.1z M152.5,126.6c0-0.1,0.1-0.1,0.1-0.1h1.8c0.7,0,1.3,0.2,1.6,0.5c0.3,0.3,0.5,0.9,0.5,1.6v0.2c0,0.7-0.2,1.2-0.5,1.6
			c-0.4,0.4-0.9,0.5-1.6,0.5h-1.8c-0.1,0-0.1-0.1-0.1-0.1V126.6z"/>
		<path style="fill:#E3B48B;" d="M170.8,120.5c-0.9-0.5-2-0.8-3.1-0.8c-1.1,0-2.2,0.3-3.1,0.8c-0.9,0.5-1.7,1.3-2.2,2.3
			c-0.5,1-0.8,2.1-0.8,3.3c0,1.2,0.3,2.4,0.8,3.3c0.5,1,1.3,1.7,2.2,2.3c0.9,0.5,2,0.8,3.1,0.8c1.1,0,2.2-0.3,3.1-0.8
			c0.9-0.5,1.7-1.3,2.2-2.3c0.5-1,0.8-2.1,0.8-3.3c0-1.2-0.3-2.4-0.8-3.3C172.5,121.8,171.8,121,170.8,120.5z M164.8,127.2V125
			c0-1.2,0.3-2.2,0.8-2.9c0.5-0.7,1.2-1,2.1-1c1,0,1.7,0.3,2.1,1c0.5,0.7,0.8,1.7,0.8,2.9v2.2c0,1.2-0.3,2.2-0.8,2.9
			c-0.5,0.7-1.2,1-2.1,1c-1,0-1.7-0.3-2.1-1C165.1,129.4,164.8,128.5,164.8,127.2z"/>
		<path style="fill:#E3B48B;" d="M185.9,120.5c-0.9-0.5-1.9-0.8-3-0.8c-1,0-1.8,0.3-2.5,0.8c-0.3,0.2-0.5,0.4-0.7,0.6
			c-0.1,0.1-0.1,0.1-0.1,0v-0.9c0-0.1-0.1-0.2-0.2-0.2h-4.3c-0.1,0-0.2,0.1-0.2,0.2v0.9c0,0.1,0.1,0.2,0.2,0.2l1.2,0.2
			c0.1,0,0.2,0.1,0.2,0.2v15.3c0,0.1-0.1,0.2-0.2,0.2l-1.2,0.2c-0.1,0-0.2,0.1-0.2,0.2v0.9c0,0.1,0.1,0.2,0.2,0.2h6.4
			c0.1,0,0.2-0.1,0.2-0.2v-0.9c0-0.1-0.1-0.2-0.2-0.2l-1.7-0.2c-0.1,0-0.2-0.1-0.2-0.2v-5.5c0-0.2,0.1-0.3,0.3-0.1
			c0.2,0.2,0.4,0.3,0.6,0.5c0.7,0.5,1.5,0.8,2.5,0.8c1.1,0,2.1-0.3,3-0.8c0.9-0.5,1.6-1.3,2-2.3c0.5-1,0.7-2.1,0.7-3.3
			c0-1.3-0.2-2.4-0.7-3.3C187.5,121.8,186.8,121,185.9,120.5z M179.6,124.9c0-0.7,0.2-1.3,0.4-1.9c0.3-0.7,0.8-1.2,1.4-1.5
			c0.4-0.2,0.9-0.3,1.4-0.3c1.1,0,2.6,0.4,2.6,3.9v2.2c0,3.4-1.5,3.9-2.6,3.9c-0.5,0-1-0.1-1.4-0.4c-0.6-0.4-1.1-0.9-1.4-1.6
			c-0.3-0.6-0.4-1.3-0.4-2L179.6,124.9z"/>
		<path style="fill:#E3B48B;" d="M200.5,125.7c-0.8-0.6-2-0.9-3.4-0.9h-2.5c-0.1,0-0.1,0-0.1-0.1v-3.1c0-0.1,0.1-0.1,0.1-0.2
			l1.3-0.2c0.1,0,0.1-0.1,0.1-0.2v-1c0-0.1,0-0.1-0.1-0.1h-6c-0.1,0-0.1,0-0.1,0.1v1c0,0.1,0.1,0.1,0.1,0.2l1.3,0.2
			c0.1,0,0.1,0.1,0.1,0.2v9.2c0,0.1-0.1,0.1-0.1,0.2L190,131c-0.1,0-0.1,0.1-0.1,0.2v1c0,0.1,0.1,0.1,0.1,0.1h7.1
			c1.4,0,2.6-0.3,3.4-0.9c0.9-0.6,1.3-1.6,1.3-2.8C201.9,127.3,201.4,126.3,200.5,125.7z M194.5,126.3c0-0.1,0-0.1,0.1-0.1h1.8
			c0.7,0,1.2,0.2,1.6,0.6c0.4,0.4,0.6,1,0.6,1.8v0c0,0.8-0.2,1.4-0.6,1.8c-0.4,0.4-0.9,0.6-1.6,0.6h-1.8c-0.1,0-0.1,0-0.1-0.1V126.3
			z"/>
	</g>
	<g>
		<g>
			<path style="fill:#E3B48B;" d="M81.9,146.3c0,1.9-1.1,2.7-3.1,2.7h-0.9c-0.1,0-0.1,0-0.1,0.1v1.5c0,0.1,0,0.1-0.1,0.1h-1.5
				c-0.1,0-0.1,0-0.1-0.1v-6.9c0-0.1,0-0.1,0.1-0.1h2.7C80.9,143.7,81.9,144.6,81.9,146.3z M80.1,146.4c0-0.8-0.4-1.2-1.3-1.2h-0.9
				c-0.1,0-0.1,0-0.1,0.1v2.1c0,0.1,0,0.1,0.1,0.1h0.9C79.7,147.5,80.1,147.1,80.1,146.4z"/>
		</g>
		<g>
			<path style="fill:#E3B48B;" d="M83.8,143.7h5.1c0.1,0,0.1,0,0.1,0.1v1.3c0,0.1,0,0.1-0.1,0.1h-3.4c-0.1,0-0.1,0-0.1,0.1v1.1
				c0,0.1,0,0.1,0.1,0.1h2.9c0.1,0,0.1,0,0.1,0.1v1.2c0,0.1,0,0.1-0.1,0.1h-2.9c-0.1,0-0.1,0-0.1,0.1v1c0,0.1,0,0.1,0.1,0.1H89
				c0.1,0,0.1,0,0.1,0.1v1.3c0,0.1,0,0.1-0.1,0.1h-5.3c-0.1,0-0.1,0-0.1-0.1v-6.9C83.7,143.7,83.7,143.7,83.8,143.7z"/>
		</g>
		<g>
			<path style="fill:#E3B48B;" d="M90.7,147.4c-0.1-2.2,1.5-3.8,3.7-3.9c1.3,0,2.4,0.5,3.1,1.3c0,0,0,0.1,0,0.2l-1.2,1
				c0,0-0.1,0-0.2,0c-0.3-0.4-0.9-0.8-1.6-0.8c-1.2,0-2,0.8-2,2c0,1.3,0.8,2.1,2,2.1c0.7,0,1.3-0.3,1.6-0.8c0,0,0.1-0.1,0.2,0l1.2,1
				c0,0,0.1,0.1,0,0.2c-0.7,0.8-1.7,1.3-3,1.3C92.2,150.9,90.8,149.6,90.7,147.4z"/>
		</g>
		<g>
			<path style="fill:#E3B48B;" d="M101.1,145.3h-1.9c-0.1,0-0.1,0-0.1-0.1v-1.4c0-0.1,0-0.1,0.1-0.1h5.9c0.1,0,0.1,0,0.1,0.1v1.4
				c0,0.1,0,0.1-0.1,0.1h-1.9c-0.1,0-0.1,0-0.1,0.1v5.2c0,0.1,0,0.1-0.1,0.1h-1.6c-0.1,0-0.1,0-0.1-0.1v-5.2
				C101.2,145.4,101.2,145.3,101.1,145.3z"/>
		</g>
		<g>
			<path style="fill:#E3B48B;" d="M106.6,147.2c0-2.2,1.5-3.7,3.8-3.7c2.3,0,3.8,1.5,3.8,3.7c0,2.2-1.5,3.7-3.8,3.7
				C108.1,150.9,106.6,149.4,106.6,147.2z M112.4,147.2c0-1.2-0.8-2.1-2-2.1c-1.2,0-2,0.8-2,2.1c0,1.2,0.8,2,2,2
				C111.6,149.3,112.4,148.5,112.4,147.2z"/>
		</g>
		<g>
			<path style="fill:#E3B48B;" d="M122,146.3c0,1.9-1.1,2.7-3.1,2.7H118c-0.1,0-0.1,0-0.1,0.1v1.5c0,0.1,0,0.1-0.1,0.1h-1.5
				c-0.1,0-0.1,0-0.1-0.1v-6.9c0-0.1,0-0.1,0.1-0.1h2.7C121,143.7,122,144.6,122,146.3z M120.2,146.4c0-0.8-0.4-1.2-1.3-1.2H118
				c-0.1,0-0.1,0-0.1,0.1v2.1c0,0.1,0,0.1,0.1,0.1h0.8C119.8,147.5,120.2,147.1,120.2,146.4z"/>
		</g>
		<g>
			<path style="fill:#E3B48B;" d="M127.8,149.6h-2.6c-0.1,0-0.1,0-0.1,0.1l-0.4,1c0,0.1-0.1,0.1-0.1,0.1h-1.6
				c-0.1,0-0.1-0.1-0.1-0.2l3.1-6.8c0-0.1,0.1-0.1,0.1-0.1h1c0.1,0,0.1,0,0.1,0.1l3.1,6.8c0,0.1,0,0.2-0.1,0.2h-1.6
				c-0.1,0-0.1,0-0.2-0.1l-0.4-1C127.9,149.6,127.9,149.6,127.8,149.6z M125.8,148.2h1.4c0.1,0,0.1-0.1,0.1-0.2l-0.3-0.8l-0.4-1.2
				c0-0.1-0.1-0.1-0.1,0l-0.4,1.2l-0.3,0.8C125.6,148.1,125.7,148.2,125.8,148.2z"/>
		</g>
		<g>
			<path style="fill:#E3B48B;" d="M132.1,143.7h1.5c0.1,0,0.1,0,0.1,0.1v2.8c0,0.1,0,0.1,0.1,0.1h2.6c0.1,0,0.1,0,0.1-0.1v-2.8
				c0-0.1,0-0.1,0.1-0.1h1.5c0.1,0,0.1,0,0.1,0.1v6.9c0,0.1,0,0.1-0.1,0.1h-1.5c-0.1,0-0.1,0-0.1-0.1v-2.2c0-0.1,0-0.1-0.1-0.1h-2.6
				c-0.1,0-0.1,0-0.1,0.1v2.2c0,0.1,0,0.1-0.1,0.1h-1.5c-0.1,0-0.1,0-0.1-0.1v-6.9C132,143.7,132,143.7,132.1,143.7z"/>
		</g>
	</g>
	<g>
		<path style="fill:#E3B48B;" d="M168.6,36.2c3.7,18.1-6.8,35.5-21.4,45.5c-8.4,6-18.2,9.9-28.4,12c-10.1,2-20.7,2.2-30.8-0.1
			C70.8,90.1,54.4,78.2,50.8,60c-3.7-18.1,6.8-35.5,21.4-45.5c8.4-6,18.2-9.9,28.4-12c10.1-2,20.7-2.2,30.8,0.1
			C148.6,6.2,165,18.1,168.6,36.2L168.6,36.2z M163.3,37.3c-3.9-19.5-23.8-31.2-42.6-32.9c-19.5-1.9-40.3,5.1-53.5,19.7
			C58.7,33.3,53.5,46.4,56.1,59c2.4,12.6,12.3,22.6,23.8,27.8c17.9,8.3,39.7,6.7,57-2.6C153.5,75.3,167.3,56.8,163.3,37.3
			L163.3,37.3z"/>
	</g>
</g>
</svg>
