<?xml version="1.0" encoding="utf-8"?>
<!-- Generator: Adobe Illustrator 27.1.1, SVG Export Plug-In . SVG Version: 6.00 Build 0)  -->
<svg version="1.1" id="Layer_1" xmlns="http://www.w3.org/2000/svg" xmlns:xlink="http://www.w3.org/1999/xlink" x="0px" y="0px"
	 viewBox="0 0 145 102" style="enable-background:new 0 0 145 102;" xml:space="preserve">
<style type="text/css">
	.st0{fill:#012E23;}
</style>
<g>
	<g>
		<g>
			<path class="st0" d="M144.9,84.4C145,84.4,145,84.4,144.9,84.4c0-0.2,0-0.6,0-0.7c-0.1-0.5-0.2-1-0.5-1.5c-0.3-0.5-0.7-1-1.3-1.3
				c-0.5-0.3-1.2-0.5-1.8-0.5c-0.8,0-1.5,0.2-2.1,0.5c-0.6,0.4-1.1,0.9-1.5,1.5c-0.4,0.6-0.6,1.4-0.6,2.3c0,0.9,0.2,1.6,0.6,2.3
				c0.4,0.7,0.9,1.2,1.5,1.5c0.6,0.4,1.4,0.5,2.2,0.5c0.9,0,1.6-0.2,2.3-0.7c0.6-0.4,0.9-1,1.1-1.7c0-0.1,0.1-0.4,0.1-0.5
				c0,0,0-0.1-0.1-0.1h-0.8c0,0-0.1,0-0.1,0.1c0,0.1-0.1,0.4-0.1,0.4c-0.1,0.4-0.4,0.8-0.8,1.1c-0.5,0.4-1,0.5-1.7,0.5
				c-0.7,0-1.1-0.2-1.5-0.7c-0.4-0.5-0.5-1.2-0.5-2v-1.1c0,0,0-0.1,0.1-0.1H144.9z M142.7,83.5h-3.1c0,0-0.1,0-0.1-0.1
				c0.1-0.6,0.3-1,0.5-1.4c0.3-0.4,0.8-0.6,1.3-0.6c0.5,0,0.8,0.2,1,0.5C142.6,82.3,142.7,82.8,142.7,83.5
				C142.8,83.4,142.7,83.5,142.7,83.5z"/>
			<path class="st0" d="M34.9,86.6c-0.1,0.5-0.4,0.8-0.8,1.2c-0.5,0.3-1,0.5-1.6,0.5c-0.6,0-1.1-0.2-1.4-0.7c-0.3-0.5-0.5-1.2-0.5-2
				v-1.5c0-0.9,0.2-1.5,0.5-2c0.3-0.4,0.8-0.7,1.4-0.7c0.4,0,0.8,0.1,1,0.3c0.2,0.2,0.3,0.4,0.3,0.7c0,0.1,0,0.2-0.1,0.3
				c0,0-0.1,0.1-0.1,0.1c0,0-0.1,0.1-0.2,0.1c0,0,0,0.1,0,0.1c0,0.1,0,0.2,0,0.2c0,0.3,0.1,0.6,0.4,0.8c0.2,0.2,0.5,0.4,0.9,0.4
				c0.4,0,0.7-0.1,0.9-0.4c0.2-0.2,0.3-0.6,0.3-1c0-0.5-0.2-1-0.5-1.4c-0.3-0.4-0.7-0.7-1.2-0.9c-0.5-0.2-1.1-0.3-1.7-0.3
				c-0.7,0-1.4,0.2-2,0.5c-0.6,0.3-1.2,0.8-1.6,1.5c-0.4,0.7-0.6,1.4-0.6,2.3c0,0.8,0.2,1.6,0.6,2.3c0.4,0.7,0.9,1.2,1.5,1.5
				c0.6,0.4,1.3,0.5,2.1,0.5c0.9,0,1.6-0.2,2.2-0.7c0.6-0.4,0.9-1,1.1-1.7c0-0.1,0.1-0.3,0.1-0.5c0,0,0-0.1-0.1-0.1H35
				c0,0-0.1,0-0.1,0.1C34.9,86.4,34.9,86.6,34.9,86.6z"/>
			<path class="st0" d="M8.5,77.5c-0.8-0.7-2-1-3.5-1H0.1c0,0-0.1,0-0.1,0.1v0.7c0,0,0,0.1,0.1,0.1l1.2,0.2c0.1,0,0.1,0.1,0.1,0.1
				v10.3c0,0.1,0,0.1-0.1,0.1l-1.2,0.2C0,88.2,0,88.3,0,88.3V89c0,0,0,0.1,0.1,0.1h4.9C5,89.1,5,89,5,89v-0.7c0-0.1,0-0.1-0.1-0.1
				L3.7,88c-0.1,0-0.1-0.1-0.1-0.1v-3.4c0,0,0-0.1,0.1-0.1H5c1.6,0,2.7-0.3,3.5-1c0.8-0.7,1.2-1.7,1.2-3C9.7,79.1,9.3,78.2,8.5,77.5
				z M3.6,77.5C3.6,77.4,3.7,77.4,3.6,77.5l1.2-0.1c1.7,0,2.5,0.9,2.5,2.7v0.6c0,1.9-0.8,2.7-2.5,2.7H3.7c0,0-0.1,0-0.1-0.1V77.5z"
				/>
			<path class="st0" d="M16.3,81.5l1.1,0.3c0,0,0,0,0,0L16,86c0,0,0,0-0.1,0l-2-4.3c0,0,0,0,0-0.1l0.8-0.1c0.1,0,0.1-0.1,0.1-0.1
				v-0.7c0,0,0-0.1-0.1-0.1h-4.2c0,0-0.1,0-0.1,0.1v0.7c0,0.1,0,0.1,0.1,0.1l0.9,0.1c0,0,0.1,0,0.1,0.1l3.3,7.1c0,0,0,0.1,0,0.1
				l-0.8,2.4c-0.2,0.4-0.3,0.6-0.4,0.7c-0.1,0.1-0.3,0.2-0.4,0.2c-0.1,0-0.2,0-0.3-0.1c-0.1-0.1-0.1-0.2-0.1-0.3
				c0-0.2,0.1-0.3,0.2-0.5l0.1-0.1c0,0,0,0,0-0.1c0,0,0-0.1,0-0.1l0-0.1c-0.1-0.2-0.3-0.4-0.5-0.5c-0.2-0.1-0.4-0.2-0.6-0.2
				c-0.3,0-0.6,0.1-0.9,0.4c-0.2,0.2-0.3,0.6-0.3,0.9c0,0.5,0.2,1,0.6,1.3c0.4,0.3,0.9,0.5,1.4,0.5c0.6,0,1.1-0.2,1.5-0.5
				c0.3-0.3,0.6-0.8,0.8-1.4l3.3-9.6c0,0,0-0.1,0.1-0.1l0.9-0.3c0,0,0.1-0.1,0.1-0.1v-0.6c0,0,0-0.1-0.1-0.1h-3.1c0,0-0.1,0-0.1,0.1
				v0.7C16.2,81.5,16.2,81.5,16.3,81.5z"/>
			<path class="st0" d="M26.1,86.6c-0.1,0.5-0.4,0.8-0.8,1.2c-0.5,0.3-1,0.5-1.6,0.5c-0.6,0-1.1-0.2-1.4-0.7c-0.3-0.5-0.5-1.2-0.5-2
				v-1.5c0-0.9,0.2-1.5,0.5-2c0.3-0.4,0.8-0.7,1.4-0.7c0.4,0,0.8,0.1,1,0.3c0.2,0.2,0.3,0.4,0.3,0.7c0,0.1,0,0.2-0.1,0.3
				c0,0-0.1,0.1-0.1,0.1c0,0-0.1,0.1-0.2,0.1c0,0,0,0.1,0,0.1c0,0.1,0,0.2,0,0.2c0,0.3,0.1,0.6,0.4,0.8c0.2,0.2,0.5,0.4,0.9,0.4
				c0.4,0,0.7-0.1,0.9-0.4c0.2-0.2,0.3-0.6,0.3-1c0-0.5-0.2-1-0.5-1.4c-0.3-0.4-0.7-0.7-1.2-0.9c-0.5-0.2-1.1-0.3-1.7-0.3
				c-0.7,0-1.4,0.2-2,0.5c-0.6,0.3-1.2,0.8-1.6,1.5c-0.4,0.7-0.6,1.4-0.6,2.3c0,0.8,0.2,1.6,0.6,2.3c0.4,0.7,0.9,1.2,1.5,1.5
				c0.6,0.4,1.3,0.5,2.1,0.5c0.9,0,1.6-0.2,2.2-0.7c0.6-0.4,0.9-1,1.1-1.7c0-0.1,0.1-0.3,0.1-0.5c0,0,0-0.1-0.1-0.1h-0.8
				c0,0-0.1,0-0.1,0.1C26.2,86.4,26.2,86.6,26.1,86.6z"/>
			<path class="st0" d="M44.6,88C44.6,88,44.6,88,44.6,88c-0.1-0.1-0.2-0.2-0.3-0.6l-0.3-1.3c-0.1-0.6-0.4-1.1-0.7-1.4
				c-0.3-0.2-0.6-0.4-1.1-0.5c0,0,0,0,0-0.1c0.1-0.2,0.2-0.4,0.2-0.7l0.3-1.1c0.1-0.2,0.1-0.2,0.2-0.2c0,0,0.1,0,0.1,0
				c0,0,0,0.1,0,0.1c0,0-0.1,0.3-0.1,0.4c0,0,0,0.1,0,0.1l0.2,0.1c0.2,0.1,0.3,0.1,0.5,0.1c0.4,0,0.7-0.1,1-0.4
				c0.2-0.2,0.3-0.5,0.3-0.9c0-0.2-0.1-0.4-0.2-0.6c-0.3-0.4-0.7-0.7-1.3-0.7c-0.5,0-0.9,0.2-1.2,0.5c-0.2,0.3-0.4,0.7-0.5,1.2
				l-0.3,1.1c-0.1,0.4-0.2,0.6-0.3,0.7c-0.1,0.1-0.2,0.2-0.4,0.2h-1c0,0-0.1,0-0.1-0.1v-2.3c0-0.1,0-0.1,0.1-0.1l0.9-0.1
				c0.1,0,0.1-0.1,0.1-0.1v-0.7c0,0,0-0.1-0.1-0.1h-4.1c0,0-0.1,0-0.1,0.1v0.7c0,0.1,0,0.1,0.1,0.1l0.9,0.1c0.1,0,0.1,0.1,0.1,0.1
				V88c0,0.1,0,0.1-0.1,0.1l-0.9,0.1c-0.1,0-0.1,0.1-0.1,0.1V89c0,0,0,0.1,0.1,0.1h4.1c0,0,0.1,0,0.1-0.1v-0.7c0-0.1,0-0.1-0.1-0.1
				l-0.9-0.1c-0.1,0-0.1-0.1-0.1-0.1v-2.8c0,0,0-0.1,0.1-0.1l1,0c0.3,0,0.5,0.1,0.7,0.2c0.2,0.1,0.3,0.4,0.4,0.8l0.3,1.6
				c0.1,0.5,0.3,0.9,0.5,1.1l0,0c0.3,0.2,0.7,0.4,1.2,0.4c0.3,0,0.6-0.1,0.9-0.2c0.2-0.1,0.7-0.6,0.9-0.7c0,0,0-0.1,0-0.1l-0.5-0.5
				c0,0-0.1,0-0.1,0C45,87.8,44.7,88,44.6,88z"/>
			<path class="st0" d="M52.3,81.1c-0.6-0.4-1.3-0.5-2.1-0.5c-0.8,0-1.5,0.2-2.1,0.5c-0.6,0.4-1.1,0.9-1.5,1.5
				C46.2,83.3,46,84,46,84.9c0,0.8,0.2,1.6,0.6,2.3c0.4,0.7,0.9,1.2,1.5,1.5c0.6,0.4,1.3,0.5,2.1,0.5c0.8,0,1.5-0.2,2.1-0.5
				c0.6-0.4,1.1-0.9,1.5-1.5c0.4-0.7,0.6-1.4,0.6-2.3c0-0.8-0.2-1.6-0.6-2.3C53.5,82,53,81.5,52.3,81.1z M48.2,85.6v-1.5
				c0-0.8,0.2-1.5,0.5-2c0.3-0.5,0.8-0.7,1.4-0.7c0.6,0,1.1,0.2,1.4,0.7c0.3,0.5,0.5,1.2,0.5,2v1.5c0,0.8-0.2,1.5-0.5,2
				c-0.3,0.5-0.8,0.7-1.4,0.7c-0.6,0-1.1-0.2-1.4-0.7C48.4,87.1,48.2,86.5,48.2,85.6z"/>
			<path class="st0" d="M63.4,84.4C63.4,84.4,63.4,84.4,63.4,84.4c0-0.2,0-0.6,0-0.7c-0.1-0.5-0.2-1-0.5-1.5c-0.3-0.5-0.7-1-1.3-1.3
				c-0.5-0.3-1.2-0.5-1.8-0.5c-0.8,0-1.5,0.2-2.1,0.5c-0.6,0.4-1.1,0.9-1.5,1.5c-0.4,0.6-0.6,1.4-0.6,2.3c0,0.9,0.2,1.6,0.6,2.3
				c0.4,0.7,0.9,1.2,1.5,1.5c0.6,0.4,1.4,0.5,2.2,0.5c0.9,0,1.6-0.2,2.3-0.7c0.6-0.4,0.9-1,1.1-1.7c0-0.1,0.1-0.4,0.1-0.5
				c0,0,0-0.1-0.1-0.1h-0.8c0,0-0.1,0-0.1,0.1c0,0.1-0.1,0.4-0.1,0.4c-0.1,0.4-0.4,0.8-0.8,1.1c-0.5,0.4-1,0.5-1.7,0.5
				c-0.7,0-1.1-0.2-1.5-0.7c-0.4-0.5-0.5-1.2-0.5-2v-1.1c0,0,0-0.1,0.1-0.1H63.4z M61.1,83.5H58c0,0-0.1,0-0.1-0.1
				c0.1-0.6,0.3-1,0.5-1.4c0.3-0.4,0.8-0.6,1.3-0.6c0.5,0,0.8,0.2,1,0.5C61,82.3,61.1,82.8,61.1,83.5C61.2,83.4,61.1,83.5,61.1,83.5
				z"/>
			<path class="st0" d="M68.9,77.3l1.2,0.2c0.1,0,0.1,0.1,0.1,0.1v10.3c0,0.1,0,0.1-0.1,0.1l-1.2,0.2c-0.1,0-0.1,0.1-0.1,0.1V89
				c0,0,0,0.1,0.1,0.1h4.9c0,0,0.1,0,0.1-0.1v-0.7c0-0.1,0-0.1-0.1-0.1L72.5,88c-0.1,0-0.1-0.1-0.1-0.1V77.5c0,0,0-0.1,0.1-0.1h4.8
				c0,0,0.1,0,0.1,0.1v10.4c0,0.1,0,0.1-0.1,0.1l-1.2,0.2c-0.1,0-0.1,0.1-0.1,0.1V89c0,0,0,0.1,0.1,0.1h4.9c0,0,0.1,0,0.1-0.1v-0.7
				c0-0.1,0-0.1-0.1-0.1L79.7,88c-0.1,0-0.1-0.1-0.1-0.1V77.6c0-0.1,0-0.1,0.1-0.1l1.2-0.2c0.1,0,0.1-0.1,0.1-0.1v-0.7
				c0,0,0-0.1-0.1-0.1H68.8c0,0-0.1,0-0.1,0.1v0.7C68.8,77.3,68.8,77.3,68.9,77.3z"/>
			<path class="st0" d="M89.5,82.6c-0.4-0.7-0.9-1.2-1.5-1.5c-0.6-0.4-1.3-0.5-2.1-0.5c-0.8,0-1.5,0.2-2.1,0.5
				c-0.6,0.4-1.1,0.9-1.5,1.5c-0.4,0.7-0.6,1.4-0.6,2.3c0,0.8,0.2,1.6,0.6,2.3c0.4,0.7,0.9,1.2,1.5,1.5c0.6,0.4,1.3,0.5,2.1,0.5
				c0.8,0,1.5-0.2,2.1-0.5c0.6-0.4,1.1-0.9,1.5-1.5c0.4-0.7,0.6-1.4,0.6-2.3C90.1,84,89.9,83.3,89.5,82.6z M84,85.6v-1.5
				c0-0.8,0.2-1.5,0.5-2c0.3-0.5,0.8-0.7,1.4-0.7c0.6,0,1.1,0.2,1.4,0.7c0.3,0.5,0.5,1.2,0.5,2v1.5c0,0.8-0.2,1.5-0.5,2
				c-0.3,0.5-0.8,0.7-1.4,0.7c-0.6,0-1.1-0.2-1.4-0.7C84.1,87.1,84,86.5,84,85.6z"/>
			<path class="st0" d="M97.7,88v-6.3c0-0.1,0-0.1,0.1-0.1l0.9-0.1c0.1,0,0.1-0.1,0.1-0.1v-0.7c0,0,0-0.1-0.1-0.1h-7.3
				c0,0-0.1,0-0.1,0.1v0.6c0,0,0,0.1,0.1,0.1l1.2,0.6c0,0,0.1,0.1,0.1,0.1l-0.1,1.5c-0.1,1-0.1,1.8-0.2,2.3
				c-0.1,0.5-0.2,0.9-0.3,1.2c-0.1,0.3-0.3,0.6-0.5,0.7c-0.2,0.1-0.3,0.2-0.5,0.2h-0.7c0,0-0.1,0-0.1,0.1l-0.3,3.3
				c0,0,0,0.1,0.1,0.1h0.8c0,0,0.1,0,0.1-0.1l1.2-2.4c0,0,0.1-0.1,0.1-0.1h4.4c0,0,0.1,0,0.1,0.1l1.3,2.4c0,0,0.1,0.1,0.1,0.1h0.8
				c0,0,0.1,0,0.1-0.1l-0.3-3.3c0,0,0-0.1-0.1-0.1L97.7,88C97.7,88.1,97.7,88.1,97.7,88z M93.3,86.1c0.1-0.5,0.2-1.3,0.2-2.4l0.1-2
				c0,0,0-0.1,0.1-0.1h1.8c0,0,0.1,0,0.1,0.1V88c0,0,0,0.1-0.1,0.1l-2.8,0c-0.1,0-0.1,0,0-0.1c0.1-0.2,0.2-0.3,0.3-0.6
				C93.1,87.1,93.2,86.7,93.3,86.1z"/>
			<path class="st0" d="M106.3,84.6C106.3,84.6,106.3,84.5,106.3,84.6c0.8-0.5,1-1.2,1-1.8c0-0.7-0.3-1.3-0.8-1.6
				c-0.5-0.3-1.3-0.5-2.4-0.5h-4.3c0,0-0.1,0-0.1,0.1v0.7c0,0.1,0,0.1,0.1,0.1l0.9,0.1c0.1,0,0.1,0.1,0.1,0.1V88
				c0,0.1,0,0.1-0.1,0.1l-0.9,0.1c-0.1,0-0.1,0.1-0.1,0.1V89c0,0,0,0.1,0.1,0.1h4.8c1,0,1.7-0.2,2.3-0.6c0.6-0.4,0.9-1,0.9-1.8
				C107.9,85.9,107.6,85,106.3,84.6z M105.1,82.9c0,0.5-0.1,0.8-0.3,1c-0.2,0.2-0.6,0.3-1,0.3H103c0,0-0.1,0-0.1-0.1v-2.4
				c0,0,0-0.1,0.1-0.1h0.7c0.5,0,0.9,0.1,1.1,0.3C105,82.1,105.1,82.4,105.1,82.9L105.1,82.9z M102.9,85.2
				C102.9,85.2,102.9,85.2,102.9,85.2l1.3-0.1c0.5,0,0.8,0.1,1.1,0.3c0.2,0.2,0.4,0.6,0.4,1.1v0.1c0,0.5-0.1,0.8-0.4,1.1
				c-0.2,0.2-0.6,0.4-1.1,0.4H103c0,0-0.1,0-0.1-0.1V85.2z"/>
			<path class="st0" d="M115.3,81.1c-0.6-0.4-1.3-0.5-2.1-0.5c-0.8,0-1.5,0.2-2.1,0.5c-0.6,0.4-1.1,0.9-1.5,1.5
				c-0.4,0.7-0.6,1.4-0.6,2.3c0,0.8,0.2,1.6,0.6,2.3c0.4,0.7,0.9,1.2,1.5,1.5c0.6,0.4,1.3,0.5,2.1,0.5c0.8,0,1.5-0.2,2.1-0.5
				c0.6-0.4,1.1-0.9,1.5-1.5c0.4-0.7,0.6-1.4,0.6-2.3c0-0.8-0.2-1.6-0.6-2.3C116.4,82,115.9,81.5,115.3,81.1z M111.2,85.6v-1.5
				c0-0.8,0.2-1.5,0.5-2c0.3-0.5,0.8-0.7,1.4-0.7c0.6,0,1.1,0.2,1.4,0.7c0.3,0.5,0.5,1.2,0.5,2v1.5c0,0.8-0.2,1.5-0.5,2
				c-0.3,0.5-0.8,0.7-1.4,0.7c-0.6,0-1.1-0.2-1.4-0.7C111.4,87.1,111.2,86.5,111.2,85.6z"/>
			<path class="st0" d="M125.5,81.1c-0.6-0.4-1.3-0.5-2-0.5c-0.7,0-1.2,0.2-1.7,0.5c-0.2,0.1-0.3,0.3-0.5,0.4c0,0.1-0.1,0-0.1,0
				v-0.6c0-0.1-0.1-0.1-0.1-0.1h-2.9c-0.1,0-0.1,0.1-0.1,0.1v0.6c0,0.1,0.1,0.1,0.1,0.2l0.8,0.1c0.1,0,0.1,0.1,0.1,0.2v10.4
				c0,0.1-0.1,0.1-0.1,0.2l-0.8,0.1c-0.1,0-0.1,0.1-0.1,0.2v0.6c0,0.1,0.1,0.1,0.1,0.1h4.3c0.1,0,0.1-0.1,0.1-0.1v-0.6
				c0-0.1-0.1-0.2-0.1-0.2l-1.1-0.1c-0.1,0-0.1-0.1-0.1-0.2v-3.7c0-0.1,0.1-0.2,0.2-0.1c0.1,0.1,0.2,0.2,0.4,0.3
				c0.5,0.3,1,0.5,1.7,0.5c0.8,0,1.4-0.2,2-0.5c0.6-0.4,1-0.9,1.4-1.5c0.3-0.6,0.5-1.4,0.5-2.3c0-0.9-0.2-1.6-0.5-2.3
				C126.5,82,126,81.5,125.5,81.1z M121.2,84c0-0.5,0.1-0.9,0.3-1.3c0.2-0.4,0.5-0.8,0.9-1c0.3-0.2,0.6-0.2,0.9-0.2
				c0.8,0,1.8,0.3,1.8,2.6v1.5c0,2.3-1,2.6-1.8,2.6c-0.3,0-0.6-0.1-0.9-0.2c-0.4-0.2-0.7-0.6-0.9-1.1c-0.2-0.4-0.3-0.8-0.3-1.3
				L121.2,84z"/>
			<path class="st0" d="M135.3,84.6c-0.6-0.4-1.3-0.6-2.3-0.6h-1.7c0,0-0.1,0-0.1-0.1v-2.1c0-0.1,0-0.1,0.1-0.1l0.9-0.1
				c0.1,0,0.1-0.1,0.1-0.1v-0.7c0,0,0-0.1-0.1-0.1h-4c0,0-0.1,0-0.1,0.1v0.7c0,0.1,0,0.1,0.1,0.1l0.9,0.1c0.1,0,0.1,0.1,0.1,0.1V88
				c0,0.1,0,0.1-0.1,0.1l-0.9,0.1c-0.1,0-0.1,0.1-0.1,0.1V89c0,0,0,0.1,0.1,0.1h4.8c1,0,1.8-0.2,2.3-0.6c0.6-0.4,0.9-1.1,0.9-1.9
				C136.2,85.7,135.9,85,135.3,84.6z M131.3,85C131.3,85,131.3,84.9,131.3,85l1.3-0.1c0.5,0,0.8,0.1,1.1,0.4
				c0.2,0.3,0.4,0.7,0.4,1.2v0c0,0.5-0.1,0.9-0.4,1.2c-0.2,0.3-0.6,0.4-1.1,0.4h-1.2c0,0-0.1,0-0.1-0.1V85z"/>
		</g>
	</g>
	<g>
		<path class="st0" d="M62,36.1c-2.2,0.6-4.6,1.5-6.5,2.8c-3.8,2.7-3.3,4.7-2.6,5.1c0.6,0.4,2.2,0.2,3.6-1.2c1-1,1.9-2.5,2.7-4.1
			c0,0,0,0,0,0c0.1-0.2,0.9-1.3,2.9-2.4C62.9,36,62.8,35.8,62,36.1z"/>
		<path class="st0" d="M113.8,24.2C111.4,12,100.3,4,88.6,1.5c-6.8-1.5-13.9-1.4-20.8,0C61,2.8,54.4,5.5,48.7,9.5
			C38.8,16.4,31.8,28,34.3,40.3C36.7,52.6,47.8,60.6,59.5,63c6.8,1.5,13.9,1.4,20.8,0c6.8-1.4,13.4-4.1,19.1-8.1
			C109.2,48.2,116.3,36.5,113.8,24.2z M84.5,33.9l-3.6,8.4c-0.7,1.6-2.9,7-8.5,9.5c-0.3,0.1-0.6,0.2-0.9,0.4c-0.1,0-0.2,0-0.1-0.1
			l0.2-0.5c0-0.1,0.1-0.1,0.1-0.2c0.7-0.6,1.6-1.9,2.1-2.9c0.6-1.3,2.3-5.6,2.3-5.6l2.8-6.7c0.2-0.5,0.6-0.9,1-1.1
			c0.7-0.4,2.1-0.9,4.4-1.3C84.4,33.6,84.5,33.7,84.5,33.9z M98.3,27.8c-3.3,1.2-6.9,2.3-10.8,3.3c-0.7,0.2-1.4,0.3-2.1,0.5
			c-1.7,0.4-3.4,0.8-5.2,1.1c-0.4,0.1-0.9,0.2-1.3,0.3c-0.4,0.1-0.8,0.2-1.2,0.2c-0.3,0.1-0.7,0.1-1,0.2c-0.4,0.1-1.1,0.2-1.6,0.3
			c-0.3,0.1-0.3,0.2,0,0.2c0.3,0,0.6,0.1,1,0.2c0.1,0,0.2,0.1,0.1,0.2c-1.7,3.8-3.3,7.7-5,11.5c-0.7,1.6-3,6.8-8.7,9.3
			c-1.4,0.6-2.8,1-3.9,1.1c-0.1,0-0.1-0.1-0.1-0.1l0.2-0.5c0,0,0-0.1,0.1-0.1c0.5-0.2,1.2-0.6,1.8-1.1c3.1-2.8,3.8-5.5,6.3-11.6
			c1.5-3.6,2.9-7,3.4-8.4c0,0-2.2,0.3-3.2,0.5c-0.2,0-0.5,0.1-0.8,0.1c-0.1,0.2-0.4,0.8-0.5,0.9c-1.5,3.1-3.7,7.3-7.2,9.6
			c-3.9,2.5-7.2,1.7-8.2-0.7c0,0-0.2-0.6-0.2-1.5c0,0,0-0.1,0-0.2c0,0,0,0,0,0c0.1-1.1,1.3-5.9,10.6-8.8l0.5-1.2L65.9,23
			c0.6-1.6,4.6-9.6,13.7-12.4c10.1-3.2,12,3.1,11.5,6.4c-0.5,4-2.9,7.3-6.8,9.4C76,31,73.5,27.8,73.3,26.2c-0.2-1.2,0.4-2.3,0.8-2.8
			c0.1-0.2,0.3-0.3,0.5-0.4c0.8-0.3,1.9-0.6,3.3-0.6c0.3,0,0.7,0,1,0.1c0.1,0,0.2,0.1,0.1,0.2c-0.6,0.7-1.7,1.8-1.8,3.5
			c0,0,0,0.1,0,0.1c0,0.5,0.4,0.9,1,0.9c0.9,0,2.4-0.7,4.3-2.7c4.3-4.3,4.7-10,3.8-11.7c-0.7-1.3-2.2-1.2-2.6-1.2
			c-6.4,0-11,9.5-11.8,11.2c-1.3,3-2.6,6-3.9,9l-0.4,1.1c19.4-3.8,25.8-7.1,26.8-7.7c0.1,0,0.2-0.1,0.3,0c2.1,0.7,3.4,1.9,3.8,2.4
			C98.5,27.6,98.5,27.8,98.3,27.8z"/>
	</g>
</g>
<g>
	<g>
		<path class="st0" d="M50.2,100.7l-0.4-0.2c-0.1,0.1-0.2,0.1-0.3,0.2v-1.4h-3.2h-0.2h-0.3v2.2c-0.3,0-0.5,0-0.8,0.1l0.1,0.4
			c0.8-0.1,1.8-0.2,2.8-0.3v-0.3c0.6,0.4,1.5,0.6,2.5,0.7c0.1-0.1,0.2-0.3,0.3-0.4c-0.6,0-1.2-0.1-1.7-0.3
			C49.5,101.2,49.9,100.9,50.2,100.7z M48.7,101.2c-0.3-0.1-0.5-0.2-0.7-0.4h1.4C49.2,100.9,48.9,101.1,48.7,101.2z M46.4,100.5
			v-0.3h2.7v0.3H46.4z M49.1,99.5v0.3h-2.7v-0.3H49.1z M46.4,101.4v-0.6h1.1c0.1,0.2,0.3,0.3,0.5,0.4
			C47.4,101.3,46.9,101.3,46.4,101.4z"/>
		<path class="st0" d="M45.3,97.4c0.3,0.1,0.6,0.3,0.8,0.5c-0.4,0.3-1,0.4-1.5,0.5c0.1,0.1,0.2,0.2,0.2,0.3c1.1-0.3,2.3-0.9,2.8-1.9
			l-0.3-0.1l-0.1,0h-0.1h-0.6v-0.3h1.2v-0.3h-1.2v-0.3h-0.4v1H46l-0.3-0.1c-0.2,0.3-0.7,0.6-1.1,0.8c0.1,0.1,0.3,0.2,0.3,0.3
			C45,97.6,45.1,97.5,45.3,97.4z M46.4,97.7c-0.2-0.2-0.5-0.3-0.8-0.5c0.1,0,0.1-0.1,0.1-0.1H47C46.9,97.3,46.6,97.5,46.4,97.7z"/>
		<path class="st0" d="M46.8,99h1.8v-0.2c0.6,0.3,1.4,0.6,2,0.8c0.1-0.1,0.2-0.3,0.3-0.4c-0.9-0.2-1.8-0.5-2.5-1
			c0.3-0.1,0.6-0.3,0.9-0.5c0.4,0.3,0.8,0.6,1.1,0.8l0.3-0.3c-0.3-0.2-0.6-0.5-1.1-0.7c0.4-0.3,0.7-0.7,0.8-1.2L50.1,96l-0.1,0H50
			h-2v0.4h1.8c-0.2,0.3-0.4,0.5-0.6,0.7c-0.3-0.2-0.6-0.3-0.9-0.5L48,97c0.3,0.1,0.6,0.3,0.9,0.5c-0.3,0.2-0.6,0.3-0.9,0.4
			c0,0,0.1,0.1,0.2,0.2c-0.1-0.1-0.2-0.1-0.2-0.2h-0.4c-0.6,0.6-1.7,1.1-2.9,1.4c0.1,0.1,0.2,0.3,0.2,0.4c0.7-0.2,1.4-0.5,2-0.8V99z
			 M47.7,98.2c0.2,0.2,0.5,0.4,0.8,0.5h-1.5C47.2,98.5,47.5,98.3,47.7,98.2z"/>
	</g>
	<g>
		<path class="st0" d="M56.9,96.9v0.4h-1.1v0.4h1.1V98h-1v1.3h2.6V98h-1.1v-0.4h1.2v-0.4h-1.2v-0.4H56.9z M56.6,99h-0.4v-0.7h0.4V99
			z M57.6,98.3h0.4V99h-0.4V98.3z M57.3,99h-0.4v-0.7h0.4V99z"/>
		<path class="st0" d="M58.6,99.7h-3v0.4h1.1l-0.2,0.2c0.3,0.1,0.6,0.4,0.8,0.6l0.3-0.3c-0.1-0.1-0.4-0.3-0.7-0.5h1.6V99.7z"/>
		<path class="st0" d="M54.3,101.4V101h0.5v-0.3h-0.5v-0.4h0.5v-0.3h-1.3v0.3h0.5v0.4h-0.5v0.3h0.5v0.4c-0.2,0-0.5,0-0.6,0.1l0,0.4
			c0.4,0,0.9-0.1,1.5-0.2l0-0.3C54.6,101.3,54.5,101.3,54.3,101.4z"/>
		<path class="st0" d="M58.5,96.7v-0.4H56v-0.5h-0.5v0.5h-2.1h-0.1h-0.3v2.1c0,1,0,2.4-0.5,3.3c0.1,0,0.3,0.2,0.4,0.3
			c0.5-1,0.6-2.6,0.6-3.6v-1.7H58.5z"/>
		<path class="st0" d="M58.1,100.5l-0.4,0.1c0.3,0.3,0.5,0.8,0.5,1.1l0.4-0.1C58.6,101.3,58.4,100.8,58.1,100.5z"/>
		<path class="st0" d="M57.4,101.6c-0.1,0-0.4,0-0.4,0c-0.1,0-0.1,0-0.1-0.1v-0.9h-0.4v0.9c0,0.4,0.1,0.5,0.5,0.5c0.1,0,0.4,0,0.5,0
			c0.3,0,0.4-0.1,0.4-0.7c-0.1,0-0.3-0.1-0.3-0.1C57.5,101.6,57.5,101.6,57.4,101.6z"/>
		<path class="st0" d="M55.5,101.6l0.3,0.2c0.2-0.3,0.3-0.7,0.3-1.1l-0.3-0.1C55.8,100.9,55.7,101.3,55.5,101.6z"/>
		<path class="st0" d="M55.7,97.4v-0.4h-2.2v0.4h0.3v1.8c-0.2,0-0.3,0-0.4,0l0,0.4c0.4,0,1-0.1,1.5-0.1v2.5h0.4v-4.6H55.7z M55,98.5
			h-0.8v-0.4H55V98.5z M54.2,99.2v-0.4H55v0.4C54.7,99.2,54.4,99.2,54.2,99.2z M55,97.8h-0.8v-0.4H55V97.8z"/>
	</g>
	<g>
		<path class="st0" d="M69.2,97.3c-0.1-0.3-0.4-0.9-0.7-1.3l-0.4,0.2c0.3,0.4,0.6,1,0.7,1.3L69.2,97.3z"/>
		<path class="st0" d="M69,100.4c0,0.8-0.1,1.1-0.2,1.1c-0.3,0-0.5-0.4-0.6-1.1c0.4-0.5,0.7-1.1,1-1.7l-0.5-0.1
			c-0.2,0.4-0.4,0.8-0.6,1.2c-0.1-0.4-0.1-1-0.2-1.5h1.4v-0.5h-1.4c0-0.6,0-1.3,0-2h-0.5c0,0.7,0,1.4,0.1,2h-1.1v-1.2
			c0.3-0.1,0.7-0.2,0.9-0.3l-0.4-0.4c-0.5,0.3-1.4,0.5-2.2,0.7c0.1,0.1,0.1,0.3,0.2,0.4c0.3-0.1,0.6-0.1,1-0.2v1.1h-1.1v0.5h1.1v1.2
			c-0.4,0.1-0.9,0.2-1.2,0.3l0.1,0.5c0.3-0.1,0.7-0.2,1-0.3v1.4c0,0.1,0,0.1-0.1,0.1c-0.1,0-0.4,0-0.8,0c0.1,0.1,0.1,0.3,0.2,0.5
			c0.5,0,0.8,0,1-0.1c0.2-0.1,0.3-0.2,0.3-0.5v-1.5c0.3-0.1,0.6-0.2,1-0.3l-0.1-0.5c-0.3,0.1-0.6,0.2-0.9,0.2v-1h1.1
			c0.1,0.8,0.1,1.5,0.3,2c-0.3,0.4-0.7,0.8-1.2,1c0.1,0.1,0.3,0.3,0.3,0.4c0.3-0.2,0.7-0.5,1-0.9c0.2,0.7,0.5,1.1,1,1.1
			c0.4,0,0.6-0.3,0.7-1.3C69.2,100.6,69.1,100.5,69,100.4z"/>
		<path class="st0" d="M64.9,95.9l-0.5-0.1c-0.3,1-0.9,2.1-1.5,2.8c0.1,0.1,0.2,0.4,0.3,0.5c0.2-0.3,0.4-0.6,0.6-0.9v3.8h0.5v-4.7
			C64.5,96.8,64.7,96.4,64.9,95.9z"/>
	</g>
	<g>
		<path class="st0" d="M70.8,101.5c0.1,0,0.3,0.1,0.4,0.2c0.2-0.3,0.5-0.8,0.6-1.3l-0.4-0.1C71.3,100.7,71.1,101.2,70.8,101.5z"/>
		<path class="st0" d="M72.8,100.4c0.2,0.4,0.4,0.8,0.5,1.1l0.4-0.2c-0.1-0.3-0.3-0.8-0.5-1.1L72.8,100.4z"/>
		<path class="st0" d="M77.1,101.3h-1.3v-0.6h1v-0.4h-1v-0.6h1v-0.4h-1v-0.6H77v-0.4h-1.2c0.1-0.2,0.2-0.5,0.4-0.7l-0.5-0.1
			c-0.1,0.2-0.2,0.6-0.3,0.8h-0.8c0.1-0.2,0.3-0.5,0.4-0.7l-0.5-0.1c-0.2,0.6-0.6,1.3-1.1,1.7c-0.1-0.1-0.1-0.2-0.2-0.3l-0.4,0.1
			c0.1,0.2,0.2,0.3,0.3,0.5c-0.3,0-0.6,0-1,0c0.4-0.4,0.9-1,1.3-1.4L73,98c-0.2,0.3-0.5,0.6-0.7,0.9c-0.1-0.1-0.2-0.2-0.4-0.3
			c0.2-0.3,0.5-0.6,0.7-0.9l-0.3-0.1h4.4V96h-5.3v1.5h0.8c-0.1,0.3-0.4,0.6-0.5,0.8c-0.1-0.1-0.2-0.1-0.3-0.2L71,98.4
			c0.3,0.2,0.7,0.6,1,0.8c-0.1,0.1-0.3,0.3-0.4,0.4c-0.3,0-0.5,0-0.7,0l0,0.4c0.3,0,0.7,0,1.2,0v2h0.5v-2c0.2,0,0.5,0,0.7,0
			c0,0.1,0.1,0.2,0.1,0.3l0.4-0.2c-0.1-0.2-0.2-0.6-0.4-0.9c0.1,0.1,0.3,0.2,0.4,0.3c0.1-0.1,0.2-0.2,0.3-0.3v2.8h0.5v-0.3h2.6
			V101.3z M75,96.4h1.2v0.7H75V96.4z M73.4,96.4h1.1v0.7h-1.1V96.4z M71.8,96.4h1.1v0.7h-1.1V96.4z M75.3,100.3h-0.8v-0.6h0.8V100.3
			z M75.3,99.4h-0.8v-0.6h0.8V99.4z M74.5,100.7h0.8v0.6h-0.8V100.7z"/>
	</g>
	<g>
		<path class="st0" d="M84.9,98h-2.2v-1.1c0.7-0.2,1.5-0.4,2.1-0.7l-0.4-0.4c-0.4,0.2-1.1,0.5-1.8,0.7l-0.4-0.1v2.3
			c0,0.8-0.1,1.8-0.5,2.6c-0.2-0.3-0.4-0.6-0.7-0.8l-0.4,0.2c0.3,0.3,0.6,0.7,0.7,1l0.2-0.1c0,0-0.1,0.1-0.1,0.1
			c0.1,0.1,0.3,0.2,0.4,0.3c0.8-0.9,0.9-2.3,0.9-3.2v-0.2h1v3.5h0.5v-3.5h0.7V98z"/>
		<path class="st0" d="M78.7,101.6c0.1,0.1,0.3,0.2,0.4,0.3c0.4-0.3,0.8-0.8,1-1.3l-0.5-0.1C79.4,100.9,79,101.3,78.7,101.6z"/>
		<path class="st0" d="M82,99.9h-0.5v-2.8H82v-0.4h-0.4v-0.8H81v0.8h-1.3v-0.8h-0.5v0.8h-0.5v0.4h0.5v2.8h-0.6v0.5H82V99.9z
			 M79.8,98.1H81v0.6h-1.3V98.1z M81,97.1v0.6h-1.3v-0.6H81z M79.8,99.2H81v0.7h-1.3V99.2z"/>
	</g>
	<path class="st0" d="M90.1,100.3h2.5v-0.5h-2.9c0-0.2,0.1-0.4,0.1-0.6h2.8v-0.5h-2.7v-0.6H92v-0.4h-2.2v-0.5h2.5v-0.5h-1.5
		c0.2-0.2,0.4-0.5,0.6-0.8l-0.5-0.2c-0.1,0.3-0.4,0.6-0.6,0.9l0.3,0.1h-2l0.2-0.1c-0.1-0.3-0.3-0.6-0.6-0.9l-0.4,0.2
		c0.2,0.2,0.4,0.5,0.5,0.8h-1.4v0.5h2.5v0.5h-2.1v0.4h2.1v0.6h-2.7v0.5h2.7c0,0.2-0.1,0.4-0.1,0.6h-2.6v0.5h2.4
		c-0.3,0.6-1,1.1-2.5,1.3c0.1,0.1,0.2,0.3,0.3,0.4c1.8-0.3,2.5-0.8,2.8-1.7h0c0.5,1,1.4,1.5,2.8,1.7c0.1-0.1,0.2-0.4,0.3-0.5
		C91.4,101.4,90.5,101,90.1,100.3z"/>
	<path class="st0" d="M100,100l-0.4-0.3c-0.1,0.1-0.2,0.2-0.4,0.3v-2.2c0.3,0.2,0.6,0.3,0.9,0.5c0.1-0.1,0.2-0.3,0.3-0.4
		c-1.1-0.4-2.2-1.2-3-2H97c-0.5,0.8-1.7,1.6-2.8,2.1c0.1,0.1,0.2,0.3,0.3,0.4c0.3-0.1,0.6-0.3,0.9-0.5v3.6c-0.3,0-0.5,0-0.8,0.1
		l0.1,0.5c0.8-0.1,1.9-0.2,3-0.3l0-0.5c-0.6,0.1-1.2,0.1-1.8,0.2V100H97c0.6,1.1,1.7,1.7,3.1,2c0.1-0.1,0.2-0.3,0.3-0.4
		c-0.7-0.1-1.4-0.3-1.9-0.6C99,100.7,99.6,100.3,100,100z M97.3,96.2c0.4,0.5,1.1,1,1.7,1.4h-1.5v-0.7H97v0.7h-1.2h-0.2h-0.1
		C96.3,97.2,96.9,96.7,97.3,96.2z M95.9,98h2.9v0.6h-2.9V98z M95.9,99h2.9v0.6h-2.9V99z M97.5,100h1.7c-0.4,0.2-0.8,0.5-1.1,0.7
		C97.8,100.5,97.6,100.3,97.5,100z"/>
</g>
</svg>
