<svg xmlns="http://www.w3.org/2000/svg" viewBox="0 0 145 102"><g fill="#002e23"><path d="M62.1 36.2c-2.2.6-4.6 1.5-6.4 2.8-3.7 2.7-3.3 4.6-2.6 5.1.6.4 2.2.2 3.6-1.2 1-1 1.9-2.5 2.7-4 .1-.2.9-1.3 2.9-2.3.7-.4.7-.6-.2-.4z"/><path d="M113.3 24.6c-2.4-12.1-13.3-20-24.9-22.5C81.7.6 74.6.7 67.9 2.1 61.1 3.4 54.6 6 49 10c-9.7 6.7-16.7 18.3-14.2 30.4 2.4 12.1 13.3 20 24.9 22.5 6.7 1.5 13.8 1.4 20.5 0 6.7-1.4 13.3-4 18.9-8 9.7-6.7 16.7-18.3 14.2-30.3zm-29 9.5l-3.6 8.3c-.6 1.6-2.9 6.9-8.4 9.4l-.9.3c-.1 0-.2 0-.1-.1l.2-.5c0-.1.1-.1.1-.2.7-.6 1.6-1.8 2-2.9.5-1.3 2.2-5.5 2.2-5.5l2.8-6.6c.2-.5.6-.9 1-1.1.7-.4 2.1-.9 4.4-1.3.3-.1.4 0 .3.2zm13.7-6c-3.3 1.2-6.8 2.2-10.7 3.2-.7.2-1.4.3-2.1.5-1.7.4-3.4.8-5.2 1.1-.4.1-.9.2-1.3.3-.4.1-.8.2-1.2.2-.3.1-.7.1-1 .2-.4.1-1.1.2-1.5.3-.3.1-.3.2 0 .2s.6.1 1 .2c.1 0 .2.1.1.2-1.6 3.8-3.3 7.6-4.9 11.3-.6 1.6-3 6.7-8.6 9.2-1.4.6-2.7 1-3.9 1.1-.1 0-.1-.1-.1-.1l.2-.5s0-.1.1-.1c.5-.2 1.2-.6 1.8-1.1 3.1-2.7 3.7-5.4 6.3-11.5 1.5-3.6 2.8-6.9 3.4-8.3 0 0-2.2.3-3.2.5-.2 0-.5.1-.7.1-.1.2-.4.8-.4.9-1.4 3-3.6 7.3-7.1 9.5-3.8 2.4-7.1 1.7-8.1-.7 0 0-.2-.6-.2-1.5v-.2c.1-1.1 1.3-5.8 10.4-8.7l.5-1.1 4.3-10c.6-1.6 4.6-9.5 13.5-12.3 10-3.2 11.8 3.1 11.4 6.3-.5 3.9-2.8 7.2-6.7 9.3-8.3 4.6-10.7 1.4-11-.2-.2-1.2.4-2.3.8-2.7.1-.2.3-.3.5-.4.8-.3 1.9-.6 3.2-.6.3 0 .7 0 1 .1.1 0 .2.1.1.2-.6.7-1.7 1.8-1.8 3.4v.1c0 .5.4.9 1 .8.9 0 2.3-.7 4.3-2.7 4.2-4.3 4.6-9.9 3.7-11.6-.6-1-2-1-2.5-1-6.3 0-10.8 9.4-11.6 11.1-1.3 3-2.6 6-3.9 8.9l-.4 1C86.7 29.3 93 26.1 94 25.5c.1 0 .2-.1.3 0 2.1.7 3.3 1.8 3.8 2.3.1.1.1.3-.1.3z"/></g><path d="M9.3 77.1c-.8-.7-1.9-1-3.5-1h-5v.9l1.4.2v10.3l-1.4.2v.8h4.9v-.8l-1.4-.2V84h1.4c1.5 0 2.7-.3 3.5-1 .8-.7 1.2-1.7 1.2-2.9.1-1.3-.3-2.3-1.1-3zm-4.8 0h1.2c1.7 0 2.5.9 2.5 2.7v.6c0 1.8-.8 2.7-2.5 2.7H4.5v-6zm12.4 4l1.2.3-1.4 4.2-2-4.3.9-.2v-.8h-4.3v.8l1.1.2 3.3 7.1-.9 2.4c-.2.4-.3.6-.4.7-.1.1-.3.2-.4.2-.1 0-.2 0-.3-.1-.1-.1-.1-.2-.1-.3 0-.2.1-.3.2-.5l.1-.1-.1-.2c-.1-.2-.3-.4-.5-.5-.2-.1-.4-.2-.6-.2-.3 0-.6.1-.9.4-.2.2-.3.5-.3.9 0 .5.2.9.6 1.3.4.3.8.5 1.4.5.6 0 1.1-.2 1.5-.5.3-.3.6-.8.8-1.4l3.3-9.6 1.1-.4v-.8h-3.3v.9zm9.9 4.9c-.1.6-.4 1-.8 1.3-.5.3-1 .5-1.6.5-.6 0-1.1-.2-1.4-.7-.3-.5-.5-1.1-.5-2v-1.5c0-.9.2-1.5.5-2 .3-.4.8-.7 1.4-.7.4 0 .7.1 1 .3.2.2.3.4.3.7 0 .1 0 .2-.1.3 0 .1-.1.1-.2.2l-.1.1v.2c0 .3.1.6.4.9.2.2.5.4.9.4s.7-.1.9-.3c.2-.2.3-.5.3-1s-.2-1-.5-1.4c-.3-.4-.7-.7-1.2-.9-.5-.2-1.1-.3-1.7-.3-.7 0-1.4.2-2 .5-.6.3-1.1.8-1.5 1.5-.4.6-.6 1.4-.6 2.3 0 .8.2 1.6.5 2.2.4.7.9 1.2 1.5 1.5.6.4 1.3.5 2.1.5s1.6-.2 2.2-.7c.6-.5 1-1.1 1.1-1.9l.1-.3h-.9l-.1.3zm8.6 0c-.1.6-.4 1-.8 1.3-.5.3-1 .5-1.6.5-.6 0-1.1-.2-1.4-.7-.3-.5-.5-1.1-.5-2v-1.5c0-.9.2-1.5.5-2 .3-.4.8-.7 1.4-.7.4 0 .7.1 1 .3.2.2.3.4.3.7 0 .1 0 .2-.1.3 0 .1-.1.1-.2.2l-.1.1v.2c0 .3.1.6.4.9.2.2.5.4.9.4s.7-.1.9-.3c.2-.2.3-.5.3-1s-.2-1-.5-1.4c-.3-.4-.7-.7-1.2-.9-.5-.2-1.1-.3-1.7-.3-.7 0-1.4.2-2 .5-.6.3-1.1.8-1.5 1.5-.4.6-.6 1.4-.6 2.3 0 .8.2 1.6.5 2.2.4.7.9 1.2 1.5 1.5.6.4 1.3.5 2.1.5s1.6-.2 2.2-.7c.6-.5 1-1.1 1.1-1.9l.1-.3h-.9l-.1.3zm9.9 1.4c-.1.1-.2.2-.3.2h-.1s-.1-.1-.2-.5l-.3-1.3c-.1-.6-.3-1-.7-1.3-.3-.2-.6-.4-1.1-.5.1-.2.2-.4.3-.7l.3-1.1c.1-.2.1-.2.2-.2h.1v.3l-.1.3.3.1c.2.1.3.1.5.1.4 0 .7-.1.9-.4.2-.2.3-.5.3-.9s-.1-.7-.4-.9c-.3-.2-.6-.4-1-.4-.5 0-.9.2-1.2.5-.2.3-.4.7-.5 1.2l-.3 1c-.1.4-.2.6-.3.7-.1.1-.2.2-.4.2h-1.1v-2.5l1.1-.1v-.8h-4.2v.8l1.1.1v6.3l-1.1.2v.8h4.2v-.8l-1.1-.2v-2.9h1.1c.3 0 .5.1.7.2.2.1.3.4.4.8l.3 1.6c.1.5.3.9.5 1.1.3.2.7.3 1.2.3.3 0 .6-.1.9-.2.3-.1.6-.3.8-.6l.2-.2-.6-.6-.4.3zm7.3-6.7c-.6-.4-1.3-.5-2.1-.5s-1.5.2-2.1.5c-.6.4-1.1.9-1.5 1.5-.4.6-.6 1.4-.6 2.2 0 .8.2 1.6.5 2.2.4.7.9 1.2 1.5 1.5.6.4 1.3.5 2.1.5s1.5-.2 2.1-.5c.6-.4 1.1-.9 1.5-1.5.4-.6.5-1.4.5-2.2 0-.8-.2-1.6-.6-2.2-.2-.6-.7-1.1-1.3-1.5zm-4.1 4.5v-1.5c0-.8.2-1.5.5-2s.8-.7 1.4-.7c.6 0 1.1.2 1.4.7.3.5.5 1.1.5 2v1.5c0 .8-.2 1.5-.5 2s-.8.7-1.4.7c-.6 0-1.1-.2-1.4-.7-.3-.5-.5-1.2-.5-2zm15-1.2v-.3c0-.7-.2-1.3-.5-1.8s-.7-1-1.3-1.3c-.5-.3-1.1-.5-1.8-.5-.8 0-1.5.2-2.1.5-.6.4-1.1.9-1.5 1.5-.4.6-.6 1.4-.6 2.2 0 .8.2 1.6.6 2.2.4.6.9 1.2 1.5 1.5.6.4 1.4.5 2.1.5.9 0 1.6-.2 2.2-.7.6-.5 1-1.1 1.2-1.9l.1-.3h-.9v.2c-.1.5-.4 1-.9 1.3-.5.4-1 .5-1.6.5-.7 0-1.1-.2-1.5-.7-.4-.5-.5-1.1-.5-2V84h5.5zm-2.2-.9h-3.2c.1-.6.3-1 .5-1.4.3-.4.7-.6 1.3-.6.5 0 .8.2 1 .5.3.3.4.8.4 1.5zm7.5-6.1l1.4.2v10.3l-1.4.3v.8h5v-.8l-1.4-.3V77.1h4.9v10.4l-1.4.3v.8h5v-.8l-1.4-.3V77.2l1.4-.2v-.9H68.8zm20.5 5.2c-.4-.6-.9-1.2-1.5-1.5-.6-.4-1.3-.5-2.1-.5s-1.5.2-2.1.5c-.6.4-1.1.9-1.5 1.5-.4.6-.6 1.4-.6 2.2 0 .8.2 1.6.5 2.2.4.7.9 1.2 1.5 1.5.6.4 1.3.5 2.1.5s1.5-.2 2.1-.5c.6-.4 1.1-.9 1.5-1.5.4-.6.5-1.4.5-2.2.2-.8 0-1.5-.4-2.2zm-5.5 3v-1.5c0-.8.2-1.5.5-2s.8-.7 1.4-.7c.6 0 1.1.2 1.4.7.3.5.5 1.1.5 2v1.5c0 .8-.2 1.5-.5 2s-.8.7-1.4.7c-.6 0-1.1-.2-1.4-.7-.3-.5-.5-1.2-.5-2zm13.6 2.5v-6.4l1-.1v-.8h-7.3v.8l1.3.6-.1 1.6c-.1 1-.1 1.8-.2 2.3-.1.5-.2.9-.3 1.2-.1.3-.3.6-.5.7-.2.1-.3.2-.4.2h-.7l-.3 3.4h.9l1.3-2.5h4.4l1.3 2.5h.9l-.3-3.4h-1zm-4.4-2c.1-.5.2-1.3.2-2.4l.1-2.1h1.9v6.4h-3l.3-.6c.3-.3.4-.8.5-1.3zm12.8-1.5c.9-.5 1.1-1.2 1.1-1.7 0-.7-.3-1.3-.8-1.6-.5-.3-1.3-.5-2.3-.5h-4.4v.8l1 .1v6.3l-1 .1v.8h4.8c1 0 1.7-.2 2.3-.6.6-.4.9-1 .9-1.8 0-.6-.3-1.5-1.6-1.9zm-1-1.7c0 .5-.1.8-.3 1-.2.2-.5.3-1 .3h-.9v-2.5h.8c.5 0 .9.1 1.1.3.1.1.3.4.3.9zm-2.3 2.2h1.3c.5 0 .8.1 1.1.3.2.2.4.6.4 1.1v.1c0 .5-.1.8-.4 1.1-.2.2-.6.4-1.1.4h-1.3v-3zm12.3-4c-.6-.4-1.3-.5-2.1-.5s-1.5.2-2.1.5c-.6.4-1.1.9-1.5 1.5-.4.6-.6 1.4-.6 2.2 0 .8.2 1.6.5 2.2.4.7.9 1.2 1.5 1.5.6.4 1.3.5 2.1.5s1.5-.2 2.1-.5c.6-.4 1.1-.9 1.5-1.5.4-.6.5-1.4.5-2.2 0-.8-.2-1.6-.6-2.2-.2-.6-.7-1.1-1.3-1.5zm-4 4.5v-1.5c0-.8.2-1.5.5-2s.8-.7 1.4-.7c.6 0 1.1.2 1.4.7.3.5.5 1.1.5 2v1.5c0 .8-.2 1.5-.5 2s-.8.7-1.4.7c-.6 0-1.1-.2-1.4-.7-.4-.5-.5-1.2-.5-2zm14-4.5c-.6-.4-1.3-.5-2-.5-.6 0-1.2.2-1.7.5-.2.1-.4.3-.6.5v-.9h-3.1v.8l1 .1v10.5l-1 .1v.8h4.5V92l-1.4-.1v-4.1c.2.2.3.4.6.5.5.3 1 .5 1.7.5.8 0 1.4-.2 2-.5.6-.4 1-.9 1.4-1.5a5.09 5.09 0 000-4.4c-.3-.8-.8-1.3-1.4-1.7zm-4.2 2.9c0-.5.1-.9.3-1.3.2-.4.4-.7.8-.9.3-.2.6-.3 1-.3.8 0 1.8.3 1.8 2.6v1.5c0 2.3-1 2.6-1.8 2.6-.4 0-.7-.1-1-.3-.3-.2-.6-.5-.8-.9-.2-.4-.3-.8-.3-1.3v-1.7zm14 .6c-.6-.4-1.3-.6-2.3-.6h-1.7v-2.3l1-.1v-.8h-4.1v.8l1 .1v6.3l-1 .1v.8h4.8c1 0 1.7-.2 2.3-.6.6-.4.9-1.1.9-1.9 0-.7-.3-1.4-.9-1.8zm-4 .3h1.3c.5 0 .8.1 1.1.4.2.3.4.7.4 1.2s-.1.9-.4 1.2c-.2.3-.6.4-1.1.4h-1.3v-3.2zm12.5 1.5c-.1.5-.4 1-.9 1.3-.5.4-1 .5-1.6.5-.7 0-1.1-.2-1.5-.7-.4-.5-.5-1.1-.5-2V84h5.5v-.3c0-.7-.2-1.3-.5-1.8s-.7-1-1.3-1.3c-.5-.3-1.1-.5-1.8-.5-.8 0-1.5.2-2.1.5-.6.4-1.1.9-1.5 1.5-.4.6-.6 1.4-.6 2.2 0 .8.2 1.6.6 2.2.4.6.9 1.2 1.5 1.5.6.4 1.4.5 2.1.5.9 0 1.6-.2 2.2-.7.6-.5 1-1.1 1.2-1.9l.1-.3h-.9v.4zm-1.2-2.9h-3.2c.1-.6.3-1 .5-1.4.3-.4.7-.6 1.3-.6.5 0 .8.2 1 .5.3.3.4.8.4 1.5zM55.5 97.9c0 1.3-.7 1.8-2.1 1.8h-.7v1.2h-1.2v-4.7h1.9c1.4 0 2.1.6 2.1 1.7zm-1.2.1c0-.5-.2-.8-.9-.8h-.7v1.6h.6c.7 0 1-.4 1-.8zm2.3-1.8h3.6v1h-2.4v.9h2v1h-2v.8h2.5v1h-3.6v-4.7zm4.7 2.3c0-1.5 1-2.4 2.5-2.4.9 0 1.6.4 2.1.9l-.9.8c-.2-.3-.6-.6-1.1-.6-.8 0-1.3.5-1.3 1.3s.5 1.4 1.3 1.4c.5 0 .9-.2 1.1-.6l.9.8c-.5.6-1.1.9-2.1.9-1.5 0-2.5-.9-2.5-2.5zm7.1-1.2H67v-1.1h4v1.1h-1.4v3.6h-1.2v-3.6zm3.5 1.2c0-1.4 1-2.5 2.6-2.5 1.5 0 2.6 1 2.6 2.5 0 1.4-1 2.5-2.6 2.5-1.5 0-2.6-1-2.6-2.5zm3.9 0c0-.8-.5-1.4-1.3-1.4s-1.3.5-1.3 1.4c0 .8.5 1.4 1.3 1.4s1.3-.5 1.3-1.4zm6.4-.6c0 1.3-.7 1.8-2.1 1.8h-.7v1.2h-1.2v-4.7h1.9c1.4 0 2.1.6 2.1 1.7zM81 98c0-.5-.2-.8-.9-.8h-.7v1.6h.6c.8 0 1-.4 1-.8zm5.1 2.1h-1.9l-.3.8h-1.3l2.2-4.7h.8l2.2 4.7h-1.3l-.4-.8zm-1.5-.9h1.2l-.3-.6-.3-.9-.3.9-.3.6zm4.3-3H90v2h1.9v-2H93v4.7h-1.2v-1.6H90v1.6h-1.2v-4.7z" fill="#002e23"/></svg>