<?xml version="1.0" encoding="utf-8"?>
<!-- Generator: Adobe Illustrator 27.1.1, SVG Export Plug-In . SVG Version: 6.00 Build 0)  -->
<svg version="1.1" id="Layer_1" xmlns="http://www.w3.org/2000/svg" xmlns:xlink="http://www.w3.org/1999/xlink" x="0px" y="0px"
	 viewBox="0 0 214.9 150.9" style="enable-background:new 0 0 214.9 150.9;" xml:space="preserve">
<style type="text/css">
	.st0{fill:#E3B48B;}
</style>
<path class="st0" d="M145.8,41.1c-0.7-0.7-2.5-2.5-5.7-3.5h-0.4c-1.5,0.8-11,5.7-39.7,11.4l0.6-1.6c1.9-4.5,3.9-8.9,5.8-13.4
	c1.2-2.6,7.9-16.7,17.4-16.7c0.6,0,2.8-0.1,3.8,1.8c1.4,2.6,0.8,11-5.6,17.4c-2.9,3-5.1,4-6.4,4.1c-0.8,0-1.5-0.5-1.5-1.3v-0.2
	c0.2-2.5,1.8-4.2,2.7-5.2c0.1-0.2,0.1-0.3-0.1-0.3c-0.5-0.1-0.9-0.1-1.5-0.1c-2,0-3.6,0.4-4.8,0.8c-0.3,0.1-0.6,0.3-0.8,0.6
	c-0.5,0.7-1.4,2.3-1.2,4.1c0.4,2.3,4.1,7.1,16.5,0.2c5.7-3.2,9.3-8.1,10-14c0.6-4.8-2.1-14.2-17.1-9.4C104.4,20,98.5,31.9,97.5,34.2
	L91,49.1l-0.8,1.7c-13.7,4.3-15.5,11.4-15.6,13v0.4c0,1.4,0.3,2.3,0.3,2.3c1.4,3.6,6.4,4.7,12.1,1.1c5.2-3.3,8.5-9.6,10.6-14.2
	c0.1-0.1,0.5-1,0.7-1.3c0.4-0.1,0.8-0.1,1.1-0.2c1.5-0.3,4.8-0.7,4.8-0.7c-0.8,2.1-2.8,7-5,12.4C95.6,72.9,94.6,76.9,90,81
	c-0.9,0.8-1.9,1.3-2.7,1.7c-0.1,0-0.1,0.1-0.1,0.1l-0.3,0.7c0,0.1,0,0.2,0.1,0.2c1.7-0.3,3.7-0.8,5.8-1.7
	c8.4-3.7,11.9-11.4,12.8-13.8c2.5-5.7,4.9-11.3,7.4-17c0.1-0.2,0-0.3-0.2-0.4c-0.6-0.1-1.1-0.2-1.5-0.3c-0.5-0.1-0.5-0.2,0-0.3
	c0.7-0.1,1.7-0.3,2.3-0.4l1.5-0.3l1.8-0.3c0.7-0.1,1.3-0.3,1.9-0.4c2.7-0.5,5.3-1.1,7.8-1.7c1-0.2,2.1-0.5,3.1-0.7
	c5.8-1.5,11-3.1,16-4.8C145.9,41.5,146,41.3,145.8,41.1L145.8,41.1z M87.8,57.7C87.8,57.8,87.7,57.8,87.8,57.7
	c-1.2,2.3-2.5,4.6-4,6.1c-2.1,2-4.4,2.4-5.3,1.8c-1-0.7-1.7-3.6,3.9-7.6c2.7-1.9,6.3-3.3,9.6-4.2c1.2-0.3,1.3-0.1,0.2,0.5
	C89.1,55.8,87.9,57.5,87.8,57.7z"/>
<path class="st0" d="M124.8,50.1c-3.5,0.6-5.5,1.4-6.6,1.9c-0.7,0.4-1.2,0.9-1.5,1.6l-4.2,10c0,0-2.5,6.4-3.4,8.3
	c-0.7,1.6-2,3.5-3.1,4.4c-0.1,0.1-0.2,0.2-0.2,0.3l-0.2,0.7c-0.1,0.2,0,0.2,0.2,0.2c0.4-0.2,0.8-0.3,1.3-0.5
	c8.4-3.7,11.7-11.7,12.7-14l5.4-12.4C125.3,50.2,125.1,50.1,124.8,50.1z M214.8,125.4C214.9,125.4,214.9,125.4,214.8,125.4
	c0.1-0.3,0.1-0.9,0-1c-0.1-0.8-0.3-1.5-0.7-2.2c-0.5-0.8-1.1-1.4-1.9-1.9c-0.8-0.5-1.7-0.7-2.7-0.7c-1.1,0-2.2,0.3-3.1,0.8
	c-0.9,0.5-1.7,1.3-2.2,2.3s-0.8,2.1-0.8,3.3c0,1.3,0.3,2.4,0.8,3.4c0.6,1,1.3,1.7,2.3,2.3c1,0.5,2,0.8,3.2,0.8
	c1.3,0,2.4-0.4,3.4-1.1c0.8-0.6,1.4-1.5,1.7-2.5c0-0.1,0.1-0.5,0.2-0.7c0-0.1,0-0.1-0.1-0.1h-1.2c-0.1,0-0.1,0-0.1,0.1
	c0,0.2-0.1,0.5-0.1,0.6c-0.2,0.6-0.6,1.2-1.2,1.6c-0.7,0.5-1.5,0.8-2.5,0.8s-1.7-0.3-2.2-1s-0.8-1.7-0.8-2.9v-1.7
	c0-0.1,0-0.1,0.1-0.1h7.9L214.8,125.4z M211.5,124h-4.7c0,0-0.1,0-0.1-0.1c0.1-0.8,0.4-1.5,0.8-2c0.5-0.6,1.1-0.9,2-0.9
	c0.7,0,1.2,0.2,1.5,0.7C211.3,122.3,211.5,123,211.5,124C211.6,124,211.5,124,211.5,124z M51.7,128.7c-0.2,0.7-0.6,1.3-1.2,1.7
	c-0.7,0.5-1.5,0.8-2.4,0.8c-1,0-1.7-0.3-2.1-1c-0.5-0.7-0.8-1.7-0.8-2.9V125c0-1.3,0.3-2.3,0.8-3s1.2-1,2.1-1c0.6,0,1.1,0.1,1.5,0.4
	c0.3,0.3,0.5,0.6,0.5,1c0,0.2,0,0.4-0.1,0.5c0,0.1-0.1,0.1-0.1,0.2c0,0-0.2,0.2-0.3,0.2l-0.1,0.1v0.3c0,0.4,0.2,0.8,0.5,1.1
	c0.4,0.4,0.8,0.5,1.3,0.5s1-0.2,1.3-0.5s0.5-0.8,0.5-1.4c0-0.7-0.2-1.4-0.7-2s-1.1-1-1.8-1.3s-1.6-0.5-2.5-0.5c-1.1,0-2.1,0.3-3,0.8
	s-1.7,1.3-2.3,2.2c-0.6,1-0.9,2.1-0.9,3.4c0,1.2,0.3,2.4,0.8,3.3c0.6,1,1.3,1.7,2.2,2.3c0.9,0.5,2,0.8,3.1,0.8
	c1.3,0,2.4-0.4,3.3-1.1c0.8-0.6,1.4-1.5,1.6-2.5c0-0.1,0.1-0.5,0.1-0.7c0-0.1,0-0.1-0.1-0.1h-1.2c-0.1,0-0.1,0-0.1,0.1
	C51.8,128.3,51.7,128.6,51.7,128.7z M12.6,115.1c-1.1-1-2.9-1.5-5.2-1.5H0.1c-0.1,0-0.1,0-0.1,0.1v1.1c0,0.1,0,0.1,0.1,0.1l1.8,0.3
	c0.1,0,0.1,0.1,0.1,0.2v15.2c0,0.1-0.1,0.1-0.1,0.2L0.1,131C0,131,0,131.1,0,131.2v1c0,0.1,0.1,0.1,0.1,0.1h7.2
	c0.1,0,0.1-0.1,0.1-0.1v-1c0-0.1-0.1-0.1-0.1-0.2l-1.8-0.3c-0.1,0-0.1-0.1-0.1-0.2v-5.1c0-0.1,0-0.1,0.1-0.1h2c2.3,0,4-0.5,5.2-1.5
	s1.8-2.5,1.8-4.4C14.4,117.6,13.8,116.1,12.6,115.1L12.6,115.1z M5.4,115.1C5.4,115,5.4,115,5.4,115.1l1.7-0.1c2.5,0,3.7,1.3,3.7,4
	v0.9c0,2.8-1.2,4.1-3.7,4.1H5.5c-0.1,0-0.1,0-0.1-0.1C5.4,123.9,5.4,115.1,5.4,115.1z M24.1,121.2l1.6,0.5v0.1l-2.1,6.1
	c0,0.1-0.1,0.1-0.1,0l-3-6.3v-0.1l1.2-0.2c0.1,0,0.1-0.1,0.1-0.2v-1c0-0.1,0-0.1-0.1-0.1h-6.2c-0.1,0-0.1,0-0.1,0.1v1
	c0,0.1,0.1,0.1,0.1,0.2l1.4,0.2c0.1,0,0.1,0.1,0.2,0.1l4.9,10.5v0.2l-1.3,3.6c-0.2,0.7-0.4,0.9-0.6,1.1c-0.2,0.2-0.4,0.2-0.6,0.2
	s-0.3-0.1-0.4-0.2c-0.1-0.1-0.2-0.2-0.2-0.4c0-0.3,0.1-0.5,0.3-0.7l0.1-0.1v-0.2l-0.1-0.1c-0.2-0.3-0.4-0.5-0.7-0.7
	c-0.3-0.2-0.6-0.2-1-0.2c-0.5,0-0.9,0.2-1.3,0.5c-0.3,0.4-0.5,0.8-0.5,1.4c0,0.8,0.3,1.4,0.9,1.9c0.6,0.4,1.3,0.7,2.1,0.7
	c0.9,0,1.7-0.2,2.2-0.7s0.9-1.1,1.2-2.1l4.9-14.2c0-0.1,0.1-0.1,0.1-0.1l1.4-0.5c0.1,0,0.1-0.1,0.1-0.1v-1c0-0.1,0-0.1-0.1-0.1h-4.7
	c-0.1,0-0.1,0-0.1,0.1v1C24,121.1,24.1,121.1,24.1,121.2z M38.7,128.7c-0.2,0.7-0.6,1.3-1.2,1.7c-0.7,0.5-1.5,0.8-2.4,0.8
	c-1,0-1.7-0.3-2.1-1c-0.5-0.7-0.8-1.7-0.8-2.9V125c0-1.3,0.3-2.3,0.8-3s1.2-1,2.1-1c0.6,0,1.1,0.1,1.5,0.4c0.3,0.3,0.5,0.6,0.5,1
	c0,0.2,0,0.4-0.1,0.5c0,0.1-0.1,0.1-0.1,0.2c0,0-0.2,0.2-0.3,0.2l-0.1,0.1v0.3c0,0.4,0.2,0.8,0.5,1.1c0.4,0.4,0.8,0.5,1.3,0.5
	s1-0.2,1.3-0.5s0.5-0.8,0.5-1.4c0-0.7-0.2-1.4-0.7-2s-1.1-1-1.8-1.3s-1.6-0.5-2.5-0.5c-1.1,0-2.1,0.3-3,0.8
	c-0.9,0.5-1.7,1.3-2.3,2.2c-0.6,1-0.9,2.1-0.9,3.4c0,1.2,0.3,2.4,0.8,3.3c0.6,1,1.3,1.7,2.2,2.3c0.9,0.5,2,0.8,3.1,0.8
	c1.3,0,2.4-0.4,3.3-1.1c0.8-0.6,1.4-1.5,1.6-2.5c0-0.1,0.1-0.5,0.1-0.7c0-0.1,0-0.1-0.1-0.1H39c-0.1,0-0.1,0-0.1,0.1
	C38.8,128.3,38.8,128.6,38.7,128.7z M66.2,130.7c-0.1,0-0.1,0-0.1-0.1c0,0-0.1-0.2-0.3-0.8l-0.4-1.9c-0.2-0.9-0.5-1.6-1-2
	c-0.4-0.3-0.9-0.6-1.6-0.7c0,0-0.1,0,0-0.1c0.1-0.3,0.3-0.6,0.4-1l0.4-1.6c0.1-0.3,0.2-0.3,0.3-0.3s0.1,0,0.1,0.1
	c0,0,0.1,0.1,0.1,0.2S64,122.9,64,123s0,0.1,0.1,0.1l0.2,0.1c0.2,0.1,0.5,0.1,0.7,0.2c0.6,0,1.1-0.2,1.5-0.6
	c0.3-0.4,0.5-0.8,0.5-1.3c0-0.3-0.1-0.6-0.3-0.9c-0.4-0.6-1-1-1.9-1c-0.8,0-1.4,0.2-1.7,0.7c-0.4,0.4-0.6,1-0.8,1.8l-0.4,1.6
	c-0.2,0.6-0.3,0.9-0.5,1c-0.1,0.2-0.4,0.2-0.6,0.3h-1.6c-0.1,0-0.1-0.1-0.1-0.1v-3.4c0-0.1,0.1-0.2,0.1-0.2l1.3-0.2
	c0.1,0,0.1-0.1,0.1-0.2v-1c0-0.1,0-0.1-0.1-0.1h-6.1c-0.1,0-0.1,0-0.1,0.1v1c0,0.1,0.1,0.1,0.1,0.2l1.3,0.2c0.1,0,0.1,0.1,0.1,0.2
	v9.1c0,0.1-0.1,0.2-0.1,0.2l-1.3,0.2c-0.1,0-0.1,0.1-0.1,0.2v1c0,0.1,0,0.1,0.1,0.1h6.1c0.1,0,0.1,0,0.1-0.1v-1
	c0-0.1-0.1-0.1-0.1-0.2l-1.3-0.2c-0.1,0-0.1-0.1-0.1-0.2v-4.1c0-0.1,0.1-0.1,0.1-0.1h1.5c0.4,0,0.8,0.1,1,0.3
	c0.2,0.2,0.4,0.6,0.5,1.2l0.4,2.4c0.1,0.8,0.4,1.3,0.8,1.6c0.4,0.3,1,0.5,1.7,0.5c0.4,0,0.9-0.1,1.3-0.3s1.1-0.9,1.3-1.1v-0.2
	l-0.8-0.8h-0.1C66.7,130.4,66.3,130.7,66.2,130.7L66.2,130.7z M77.5,120.5c-0.9-0.5-2-0.8-3.1-0.8s-2.2,0.3-3.1,0.8
	s-1.7,1.3-2.2,2.3s-0.8,2.1-0.8,3.3c0,1.2,0.3,2.4,0.8,3.3c0.5,1,1.3,1.7,2.2,2.3c0.9,0.5,2,0.8,3.1,0.8s2.2-0.3,3.1-0.8
	s1.7-1.3,2.2-2.3s0.8-2.1,0.8-3.3c0-1.2-0.3-2.4-0.8-3.3C79.2,121.8,78.5,121,77.5,120.5z M71.5,127.2V125c0-1.2,0.3-2.2,0.8-2.9
	c0.5-0.7,1.2-1,2.1-1c1,0,1.7,0.3,2.1,1c0.5,0.7,0.8,1.7,0.8,2.9v2.2c0,1.2-0.3,2.2-0.8,2.9s-1.2,1-2.1,1c-1,0-1.7-0.3-2.1-1
	C71.8,129.4,71.5,128.5,71.5,127.2z M93.9,125.4C93.9,125.4,94,125.4,93.9,125.4c0.1-0.3,0.1-0.9,0-1c-0.1-0.8-0.3-1.5-0.7-2.2
	c-0.5-0.8-1.1-1.4-1.9-1.9s-1.7-0.7-2.7-0.7c-1.1,0-2.2,0.3-3.1,0.8s-1.7,1.3-2.2,2.3s-0.8,2.1-0.8,3.3c0,1.3,0.3,2.4,0.8,3.4
	c0.6,1,1.3,1.7,2.3,2.3c1,0.5,2,0.8,3.2,0.8c1.3,0,2.4-0.4,3.4-1.1c0.8-0.6,1.4-1.5,1.7-2.5c0-0.1,0.1-0.5,0.2-0.7
	c0-0.1,0-0.1-0.1-0.1h-1.2c-0.1,0-0.1,0-0.1,0.1c0,0.2-0.1,0.5-0.1,0.6c-0.2,0.6-0.6,1.2-1.2,1.6c-0.7,0.5-1.5,0.8-2.5,0.8
	s-1.7-0.3-2.2-1s-0.8-1.7-0.8-2.9v-1.7c0-0.1,0-0.1,0.1-0.1h7.9L93.9,125.4z M90.6,124h-4.7c0,0-0.1,0-0.1-0.1
	c0.1-0.8,0.4-1.5,0.8-2c0.5-0.6,1.1-0.9,2-0.9c0.7,0,1.2,0.2,1.5,0.7C90.4,122.3,90.6,123,90.6,124z M102.1,114.9l1.8,0.3
	c0.1,0,0.1,0.1,0.1,0.2v15.2c0,0.1-0.1,0.1-0.1,0.2l-1.8,0.3c-0.1,0-0.1,0.1-0.1,0.2v1c0,0.1,0,0.1,0.1,0.1h7.2c0.1,0,0.1,0,0.1-0.1
	v-1c0-0.1-0.1-0.1-0.1-0.2l-1.8-0.3c-0.1,0-0.1-0.1-0.1-0.2v-15.4c0-0.1,0-0.1,0.1-0.1h7.2c0.1,0,0.1,0,0.1,0.1v15.4
	c0,0.1-0.1,0.1-0.1,0.2l-1.8,0.3c-0.1,0-0.1,0.1-0.1,0.2v1c0,0.1,0,0.1,0.1,0.1h7.2c0.1,0,0.1,0,0.1-0.1v-1c0-0.1-0.1-0.1-0.1-0.2
	l-1.8-0.3c-0.1,0-0.1-0.1-0.1-0.2v-15.2c0-0.1,0.1-0.1,0.1-0.2l1.8-0.3c0.1,0,0.1-0.1,0.1-0.2v-1c0-0.1,0-0.1-0.1-0.1H102
	c-0.1,0-0.1,0-0.1,0.1v1C101.9,114.8,102,114.9,102.1,114.9z M132.7,122.8c-0.5-1-1.3-1.7-2.2-2.3c-0.9-0.5-2-0.8-3.1-0.8
	s-2.2,0.3-3.1,0.8s-1.7,1.3-2.2,2.3s-0.8,2.1-0.8,3.3c0,1.2,0.3,2.4,0.8,3.3c0.5,1,1.3,1.7,2.2,2.3c0.9,0.5,2,0.8,3.1,0.8
	s2.2-0.3,3.1-0.8s1.7-1.3,2.2-2.3s0.8-2.1,0.8-3.3C133.5,124.9,133.2,123.7,132.7,122.8z M124.4,127.2V125c0-1.2,0.3-2.2,0.8-2.9
	c0.5-0.7,1.2-1,2.1-1c1,0,1.7,0.3,2.1,1c0.5,0.7,0.8,1.7,0.8,2.9v2.2c0,1.2-0.3,2.2-0.8,2.9s-1.2,1-2.1,1c-1,0-1.7-0.3-2.1-1
	C124.7,129.4,124.4,128.5,124.4,127.2z M144.8,130.8v-9.3c0-0.1,0.1-0.1,0.1-0.2l1.3-0.2c0.1,0,0.1-0.1,0.1-0.2v-1
	c0-0.1-0.1-0.1-0.1-0.1h-10.8c-0.1,0-0.1,0.1-0.1,0.1v0.9c0,0.1,0,0.1,0.1,0.1l1.8,0.9c0.1,0,0.1,0.1,0.1,0.2l-0.2,2.3
	c-0.1,1.5-0.2,2.7-0.3,3.4c-0.1,0.7-0.3,1.3-0.5,1.7c-0.2,0.5-0.5,0.8-0.7,1.1c-0.2,0.2-0.5,0.3-0.7,0.3h-1c-0.1,0-0.1,0-0.1,0.1
	l-0.4,4.9c0,0,0,0.1,0.1,0.1h1.2c0.1,0,0.1,0,0.1-0.1l1.8-3.5c0-0.1,0.1-0.1,0.1-0.1h6.5c0.1,0,0.1,0,0.1,0.1l1.9,3.5
	c0,0.1,0.1,0.1,0.1,0.1h1.2c0,0,0.1,0,0.1-0.1l-0.4-4.9c0-0.1-0.1-0.1-0.1-0.1L144.8,130.8C144.8,130.9,144.8,130.8,144.8,130.8
	L144.8,130.8z M138.2,128c0.1-0.8,0.3-2,0.4-3.5l0.2-3c0-0.1,0.1-0.1,0.1-0.1h2.7c0.1,0,0.1,0,0.1,0.1v9.4c0,0.1,0,0.1-0.1,0.1h-4.2
	c-0.1,0-0.1,0-0.1-0.1c0.2-0.2,0.3-0.5,0.4-0.8C137.9,129.4,138.1,128.8,138.2,128L138.2,128z M157.6,125.7
	C157.5,125.7,157.5,125.6,157.6,125.7c1.2-0.8,1.5-1.8,1.5-2.7c0-1.1-0.4-1.9-1.2-2.4c-0.7-0.5-1.9-0.7-3.5-0.7H148
	c-0.1,0-0.1,0.1-0.1,0.1v1c0,0.1,0.1,0.1,0.1,0.2l1.3,0.2c0.1,0,0.1,0.1,0.1,0.2v9.2c0,0.1-0.1,0.1-0.1,0.2H148
	c-0.1,0-0.1,0.1-0.1,0.2v1c0,0.1,0.1,0.1,0.1,0.1h7.1c1.4,0,2.6-0.3,3.4-0.9c0.9-0.6,1.3-1.5,1.3-2.7
	C159.8,127.7,159.4,126.4,157.6,125.7L157.6,125.7z M155.8,123.1c0,0.7-0.2,1.2-0.5,1.5s-0.8,0.5-1.5,0.5h-1.2
	c-0.1,0-0.1-0.1-0.1-0.1v-3.6c0-0.1,0.1-0.1,0.1-0.1h1.1c0.7,0,1.3,0.1,1.6,0.4C155.7,122,155.8,122.4,155.8,123.1L155.8,123.1z
	 M152.5,126.6c0-0.1,0.1-0.1,0.1-0.1h1.8c0.7,0,1.3,0.2,1.6,0.5s0.5,0.9,0.5,1.6v0.2c0,0.7-0.2,1.2-0.5,1.6
	c-0.4,0.4-0.9,0.5-1.6,0.5h-1.8c-0.1,0-0.1-0.1-0.1-0.1S152.5,126.6,152.5,126.6z M170.8,120.5c-0.9-0.5-2-0.8-3.1-0.8
	s-2.2,0.3-3.1,0.8c-0.9,0.5-1.7,1.3-2.2,2.3s-0.8,2.1-0.8,3.3c0,1.2,0.3,2.4,0.8,3.3c0.5,1,1.3,1.7,2.2,2.3c0.9,0.5,2,0.8,3.1,0.8
	s2.2-0.3,3.1-0.8c0.9-0.5,1.7-1.3,2.2-2.3s0.8-2.1,0.8-3.3c0-1.2-0.3-2.4-0.8-3.3C172.5,121.8,171.8,121,170.8,120.5z M164.8,127.2
	V125c0-1.2,0.3-2.2,0.8-2.9c0.5-0.7,1.2-1,2.1-1c1,0,1.7,0.3,2.1,1c0.5,0.7,0.8,1.7,0.8,2.9v2.2c0,1.2-0.3,2.2-0.8,2.9s-1.2,1-2.1,1
	c-1,0-1.7-0.3-2.1-1C165.1,129.4,164.8,128.5,164.8,127.2z M185.9,120.5c-0.9-0.5-1.9-0.8-3-0.8c-1,0-1.8,0.3-2.5,0.8
	c-0.3,0.2-0.5,0.4-0.7,0.6c-0.1,0.1-0.1,0.1-0.1,0v-0.9c0-0.1-0.1-0.2-0.2-0.2h-4.3c-0.1,0-0.2,0.1-0.2,0.2v0.9
	c0,0.1,0.1,0.2,0.2,0.2l1.2,0.2c0.1,0,0.2,0.1,0.2,0.2V137c0,0.1-0.1,0.2-0.2,0.2l-1.2,0.2c-0.1,0-0.2,0.1-0.2,0.2v0.9
	c0,0.1,0.1,0.2,0.2,0.2h6.4c0.1,0,0.2-0.1,0.2-0.2v-0.9c0-0.1-0.1-0.2-0.2-0.2l-1.7-0.2c-0.1,0-0.2-0.1-0.2-0.2v-5.5
	c0-0.2,0.1-0.3,0.3-0.1s0.4,0.3,0.6,0.5c0.7,0.5,1.5,0.8,2.5,0.8c1.1,0,2.1-0.3,3-0.8s1.6-1.3,2-2.3c0.5-1,0.7-2.1,0.7-3.3
	c0-1.3-0.2-2.4-0.7-3.3C187.5,121.8,186.8,121,185.9,120.5L185.9,120.5z M179.6,124.9c0-0.7,0.2-1.3,0.4-1.9
	c0.3-0.7,0.8-1.2,1.4-1.5c0.4-0.2,0.9-0.3,1.4-0.3c1.1,0,2.6,0.4,2.6,3.9v2.2c0,3.4-1.5,3.9-2.6,3.9c-0.5,0-1-0.1-1.4-0.4
	c-0.6-0.4-1.1-0.9-1.4-1.6c-0.3-0.6-0.4-1.3-0.4-2C179.6,127.2,179.6,124.9,179.6,124.9z M200.5,125.7c-0.8-0.6-2-0.9-3.4-0.9h-2.5
	c-0.1,0-0.1,0-0.1-0.1v-3.1c0-0.1,0.1-0.1,0.1-0.2l1.3-0.2c0.1,0,0.1-0.1,0.1-0.2v-1c0-0.1,0-0.1-0.1-0.1h-6c-0.1,0-0.1,0-0.1,0.1v1
	c0,0.1,0.1,0.1,0.1,0.2l1.3,0.2c0.1,0,0.1,0.1,0.1,0.2v9.2c0,0.1-0.1,0.1-0.1,0.2H190c-0.1,0-0.1,0.1-0.1,0.2v1
	c0,0.1,0.1,0.1,0.1,0.1h7.1c1.4,0,2.6-0.3,3.4-0.9c0.9-0.6,1.3-1.6,1.3-2.8C201.9,127.3,201.4,126.3,200.5,125.7L200.5,125.7z
	 M194.5,126.3c0-0.1,0-0.1,0.1-0.1h1.8c0.7,0,1.2,0.2,1.6,0.6c0.4,0.4,0.6,1,0.6,1.8s-0.2,1.4-0.6,1.8c-0.4,0.4-0.9,0.6-1.6,0.6
	h-1.8c-0.1,0-0.1,0-0.1-0.1C194.5,130.9,194.5,126.3,194.5,126.3z"/>
<path class="st0" d="M168.6,36.2c3.7,18.1-6.8,35.5-21.4,45.5c-8.4,6-18.2,9.9-28.4,12c-10.1,2-20.7,2.2-30.8-0.1
	C70.8,90.1,54.4,78.2,50.8,60c-3.7-18.1,6.8-35.5,21.4-45.5c8.4-6,18.2-9.9,28.4-12c10.1-2,20.7-2.2,30.8,0.1
	C148.6,6.2,165,18.1,168.6,36.2L168.6,36.2z M163.3,37.3c-3.9-19.5-23.8-31.2-42.6-32.9c-19.5-1.9-40.3,5.1-53.5,19.7
	C58.7,33.3,53.5,46.4,56.1,59c2.4,12.6,12.3,22.6,23.8,27.8c17.9,8.3,39.7,6.7,57-2.6C153.5,75.3,167.3,56.8,163.3,37.3z"/>
<g>
	<g>
		<path class="st0" d="M75.4,149.1l-0.5-0.3c-0.1,0.1-0.2,0.2-0.4,0.3v-2.1h-4.6h-0.3h-0.4v3.2c-0.4,0-0.8,0.1-1.1,0.1l0.1,0.6
			c1.1-0.1,2.6-0.3,4.1-0.4v-0.5c0.9,0.6,2.1,0.9,3.5,1c0.1-0.2,0.2-0.4,0.4-0.5c-0.9-0.1-1.7-0.2-2.4-0.4
			C74.3,149.7,74.9,149.4,75.4,149.1z M73.1,149.7c-0.4-0.2-0.7-0.4-1-0.6h2.1C73.9,149.4,73.5,149.6,73.1,149.7z M69.9,148.7v-0.5
			h3.9v0.5H69.9z M73.8,147.4v0.4h-3.9v-0.4H73.8z M69.9,150v-0.9h1.5c0.2,0.2,0.4,0.4,0.7,0.6C71.3,149.9,70.6,150,69.9,150z"/>
		<path class="st0" d="M68.3,144.3c0.4,0.2,0.8,0.4,1.1,0.7c-0.6,0.4-1.4,0.6-2.1,0.8c0.1,0.1,0.3,0.3,0.3,0.5
			c1.6-0.4,3.3-1.3,4-2.7l-0.4-0.2l-0.1,0H71h-0.9v-0.5h1.7v-0.5h-1.7v-0.4h-0.6v1.4h-0.3l-0.5-0.1c-0.4,0.5-1,0.9-1.6,1.2
			c0.1,0.1,0.4,0.3,0.5,0.4C67.8,144.6,68.1,144.5,68.3,144.3z M69.9,144.7c-0.3-0.2-0.8-0.5-1.2-0.7c0.1-0.1,0.1-0.1,0.2-0.2h1.9
			C70.5,144.1,70.2,144.4,69.9,144.7z"/>
		<path class="st0" d="M70.5,146.6H73v-0.4c0.9,0.5,2,0.9,2.9,1.1c0.1-0.2,0.2-0.4,0.4-0.6c-1.2-0.3-2.6-0.8-3.7-1.5
			c0.5-0.2,0.9-0.4,1.3-0.7c0.6,0.4,1.2,0.8,1.6,1.1l0.4-0.5c-0.4-0.3-0.9-0.7-1.5-1.1c0.5-0.5,1-1.1,1.2-1.8l-0.4-0.2l-0.1,0H75
			h-2.9v0.5h2.6c-0.2,0.4-0.5,0.7-0.9,1c-0.5-0.3-0.9-0.5-1.4-0.7l-0.4,0.4c0.4,0.2,0.8,0.4,1.2,0.7c-0.4,0.3-0.8,0.4-1.3,0.6
			c0.1,0.1,0.1,0.2,0.2,0.3c-0.1-0.1-0.2-0.2-0.4-0.3h-0.6c-0.8,0.8-2.5,1.6-4.1,2c0.1,0.1,0.3,0.4,0.3,0.5c1-0.3,2-0.7,2.9-1.2
			V146.6z M71.7,145.4c0.3,0.3,0.7,0.5,1.1,0.8h-2.2C71.1,145.9,71.4,145.6,71.7,145.4z"/>
	</g>
	<g>
		<path class="st0" d="M84.9,143.5v0.6h-1.6v0.5h1.6v0.5h-1.5v1.9h3.8v-1.9h-1.6v-0.5h1.7v-0.5h-1.7v-0.6H84.9z M84.5,146.6h-0.6
			v-0.9h0.6V146.6z M86,145.6h0.6v0.9H86V145.6z M85.6,146.6H85v-0.9h0.6V146.6z"/>
		<path class="st0" d="M87.4,147.5h-4.2v0.5h1.5l-0.2,0.2c0.4,0.2,0.9,0.6,1.2,0.8l0.4-0.4c-0.2-0.2-0.6-0.5-1-0.7h2.3V147.5z"/>
		<path class="st0" d="M81.2,150v-0.6h0.7v-0.5h-0.7v-0.5H82v-0.5H80v0.5h0.7v0.5h-0.7v0.5h0.7v0.6c-0.3,0-0.7,0.1-0.9,0.1l0.1,0.5
			c0.6-0.1,1.3-0.2,2.1-0.3l0-0.5C81.7,149.9,81.5,150,81.2,150z"/>
		<path class="st0" d="M87.3,143.2v-0.6h-3.7v-0.7h-0.8v0.7h-3.1h-0.2h-0.5v3.1c0,1.4,0,3.4-0.7,4.8c0.2,0.1,0.4,0.3,0.6,0.4
			c0.7-1.5,0.8-3.7,0.8-5.2v-2.5H87.3z"/>
		<path class="st0" d="M86.7,148.8l-0.5,0.2c0.4,0.5,0.7,1.2,0.8,1.6l0.5-0.2C87.4,149.9,87.1,149.2,86.7,148.8z"/>
		<path class="st0" d="M85.7,150.3c-0.1,0-0.5,0-0.6,0c-0.2,0-0.2,0-0.2-0.2v-1.4h-0.6v1.4c0,0.6,0.1,0.7,0.7,0.7c0.1,0,0.6,0,0.8,0
			c0.4,0,0.6-0.2,0.6-1c-0.2,0-0.4-0.1-0.5-0.2C85.9,150.3,85.9,150.3,85.7,150.3z"/>
		<path class="st0" d="M83,150.3l0.5,0.2c0.3-0.4,0.4-1,0.5-1.6l-0.5-0.1C83.4,149.4,83.3,150,83,150.3z"/>
		<path class="st0" d="M83.3,144.3v-0.5h-3.2v0.5h0.5v2.6c-0.2,0-0.4,0-0.6,0l0.1,0.5c0.6,0,1.4-0.1,2.2-0.2v3.5h0.6v-6.6H83.3z
			 M82.2,145.8h-1.1v-0.6h1.1V145.8z M81.1,146.9v-0.6h1.1v0.6C81.8,146.9,81.5,146.9,81.1,146.9z M82.2,144.8h-1.1v-0.5h1.1V144.8z
			"/>
	</g>
	<g>
		<path class="st0" d="M102.7,144.1c-0.2-0.5-0.6-1.2-1-1.8l-0.5,0.2c0.4,0.6,0.8,1.4,1,1.9L102.7,144.1z"/>
		<path class="st0" d="M102.4,148.6c0,1.1-0.1,1.6-0.3,1.6c-0.4,0-0.7-0.6-0.9-1.5c0.6-0.7,1-1.5,1.4-2.4l-0.7-0.2
			c-0.2,0.6-0.5,1.2-0.9,1.7c-0.1-0.6-0.2-1.4-0.2-2.2h2v-0.7h-2c0-0.9-0.1-1.9-0.1-2.9h-0.7c0,1,0,2,0.1,2.9h-1.6v-1.7
			c0.5-0.1,0.9-0.3,1.3-0.5l-0.5-0.6c-0.7,0.4-2,0.7-3.1,1c0.1,0.2,0.2,0.4,0.2,0.6c0.4-0.1,0.9-0.2,1.4-0.3v1.5h-1.6v0.7h1.6v1.7
			c-0.6,0.2-1.2,0.3-1.7,0.4l0.2,0.7c0.4-0.1,1-0.3,1.5-0.4v2c0,0.1,0,0.2-0.2,0.2c-0.1,0-0.6,0-1.1,0c0.1,0.2,0.2,0.5,0.2,0.7
			c0.7,0,1.1,0,1.4-0.1s0.4-0.3,0.4-0.7v-2.2c0.5-0.1,0.9-0.3,1.4-0.4l-0.1-0.7c-0.4,0.1-0.9,0.2-1.3,0.3v-1.5h1.6
			c0.1,1.1,0.2,2.1,0.4,2.9c-0.5,0.6-1.1,1.1-1.7,1.5c0.1,0.1,0.4,0.4,0.5,0.5c0.5-0.3,1-0.8,1.4-1.2c0.3,1,0.7,1.6,1.4,1.6
			c0.6,0,0.9-0.5,1-1.9C102.7,148.9,102.5,148.7,102.4,148.6z"/>
		<path class="st0" d="M96.4,142.2l-0.7-0.2c-0.5,1.5-1.2,3-2.1,4c0.1,0.2,0.3,0.6,0.4,0.8c0.3-0.4,0.6-0.8,0.9-1.3v5.5h0.7v-6.8
			C96,143.5,96.2,142.8,96.4,142.2z"/>
	</g>
	<g>
		<path class="st0" d="M105.1,150.2c0.2,0.1,0.4,0.2,0.6,0.3c0.3-0.5,0.7-1.2,0.8-1.9l-0.6-0.1C105.7,149.1,105.4,149.8,105.1,150.2
			z"/>
		<path class="st0" d="M107.9,148.6c0.3,0.5,0.6,1.2,0.7,1.6l0.6-0.2c-0.1-0.4-0.4-1.1-0.7-1.6L107.9,148.6z"/>
		<path class="st0" d="M114,149.9h-1.9V149h1.5v-0.6h-1.5v-0.8h1.5v-0.6h-1.5v-0.8h1.7v-0.6h-1.7c0.2-0.3,0.3-0.7,0.5-1l-0.7-0.2
			c-0.1,0.3-0.3,0.8-0.5,1.2h-1.1c0.2-0.3,0.4-0.7,0.5-1.1l-0.7-0.2c-0.3,0.9-0.9,1.8-1.6,2.4c-0.1-0.1-0.2-0.3-0.2-0.4l-0.5,0.2
			c0.1,0.2,0.3,0.5,0.4,0.7c-0.5,0-0.9,0-1.4,0c0.6-0.6,1.3-1.4,1.8-2.1l-0.6-0.3c-0.3,0.4-0.7,0.9-1.1,1.4
			c-0.2-0.2-0.3-0.3-0.6-0.5c0.3-0.4,0.7-0.9,1-1.3l-0.4-0.2h6.3v-2.1h-7.7v2.1h1.2c-0.2,0.4-0.5,0.8-0.8,1.2
			c-0.2-0.1-0.3-0.2-0.4-0.3l-0.4,0.4c0.5,0.3,1.1,0.8,1.4,1.2c-0.2,0.2-0.4,0.4-0.5,0.5c-0.4,0-0.7,0-1,0l0,0.6c0.5,0,1.1,0,1.7,0
			v2.8h0.7V148c0.3,0,0.7,0,1,0c0.1,0.2,0.1,0.3,0.2,0.4l0.6-0.2c-0.1-0.4-0.3-0.8-0.6-1.3c0.2,0.1,0.4,0.3,0.5,0.4
			c0.1-0.1,0.3-0.3,0.4-0.5v4.1h0.7v-0.4h3.7V149.9z M111,142.9h1.7v1H111V142.9z M108.7,142.9h1.6v1h-1.6V142.9z M106.5,142.9h1.6
			v1h-1.6V142.9z M111.5,148.5h-1.2v-0.8h1.2V148.5z M111.5,147.1h-1.2v-0.8h1.2V147.1z M110.3,149h1.2v0.8h-1.2V149z"/>
	</g>
	<g>
		<path class="st0" d="M125.3,145.2h-3.1v-1.6c1-0.3,2.2-0.6,3-1l-0.6-0.5c-0.6,0.3-1.6,0.7-2.5,0.9l-0.5-0.2v3.3
			c0,1.2-0.1,2.6-0.7,3.7c-0.2-0.4-0.6-0.9-1-1.2l-0.6,0.3c0.4,0.4,0.8,1,1,1.4l0.3-0.2c0,0.1-0.1,0.1-0.1,0.2
			c0.2,0.1,0.4,0.3,0.5,0.5c1.1-1.4,1.2-3.3,1.2-4.7v-0.4h1.5v5h0.7v-5h0.9V145.2z"/>
		<path class="st0" d="M116.3,150.4c0.2,0.1,0.5,0.3,0.6,0.4c0.5-0.5,1.1-1.2,1.4-1.9l-0.7-0.2C117.4,149.3,116.9,149.9,116.3,150.4
			z"/>
		<path class="st0" d="M121.1,147.8h-0.7v-4h0.6v-0.6h-0.6V142h-0.7v1.2h-1.9V142h-0.7v1.2h-0.8v0.6h0.8v4h-0.9v0.7h4.8V147.8z
			 M117.9,145.3h1.9v0.9h-1.9V145.3z M119.7,143.9v0.9h-1.9v-0.9H119.7z M117.9,146.8h1.9v1h-1.9V146.8z"/>
	</g>
	<path class="st0" d="M132.8,148.4h3.6v-0.7h-4.2c0.1-0.3,0.1-0.6,0.2-0.9h4v-0.7h-4v-0.8h3.1v-0.6h-3.1v-0.8h3.6v-0.7h-2.1
		c0.3-0.3,0.6-0.7,0.9-1.1l-0.8-0.2c-0.2,0.4-0.6,0.9-0.9,1.2l0.4,0.1h-2.9l0.3-0.1c-0.2-0.4-0.5-0.9-0.9-1.2l-0.6,0.3
		c0.3,0.3,0.6,0.8,0.7,1.1h-2v0.7h3.5v0.8h-3v0.6h3v0.8h-3.9v0.7h3.9c0,0.3-0.1,0.6-0.2,0.9h-3.8v0.7h3.5c-0.5,0.9-1.5,1.5-3.6,1.8
		c0.1,0.2,0.3,0.5,0.4,0.6c2.5-0.4,3.6-1.2,4.1-2.5h0.1c0.7,1.5,2,2.2,4.1,2.5c0.1-0.2,0.3-0.5,0.4-0.7
		C134.6,150,133.4,149.5,132.8,148.4z"/>
	<path class="st0" d="M147.1,148l-0.5-0.4c-0.2,0.1-0.3,0.3-0.5,0.4v-3.2c0.4,0.3,0.9,0.5,1.3,0.7c0.1-0.2,0.3-0.5,0.5-0.6
		c-1.5-0.6-3.2-1.7-4.3-2.9h-0.7c-0.8,1.1-2.4,2.3-4.1,3c0.2,0.2,0.3,0.4,0.4,0.6c0.4-0.2,0.9-0.4,1.3-0.7v5.2
		c-0.4,0-0.8,0.1-1.1,0.1l0.1,0.7c1.1-0.1,2.7-0.3,4.3-0.4l0-0.7c-0.9,0.1-1.7,0.2-2.5,0.2V148h1.5c0.8,1.6,2.4,2.5,4.5,2.8
		c0.1-0.2,0.3-0.5,0.4-0.6c-1.1-0.2-2-0.4-2.8-0.9C145.6,149,146.4,148.5,147.1,148z M143.1,142.6c0.6,0.7,1.5,1.4,2.5,2h-2.1v-1
		h-0.8v1h-1.7h-0.3h-0.1C141.7,144,142.6,143.2,143.1,142.6z M141.1,145.2h4.1v0.8h-4.1V145.2z M141.1,146.6h4.1v0.9h-4.1V146.6z
		 M143.4,148h2.5c-0.5,0.3-1.1,0.7-1.6,1C143.9,148.7,143.6,148.4,143.4,148z"/>
</g>
</svg>
