<?xml version="1.0" encoding="utf-8"?>
<!-- Generator: Adobe Illustrator 27.1.1, SVG Export Plug-In . SVG Version: 6.00 Build 0)  -->
<svg version="1.1" id="Layer_1" xmlns="http://www.w3.org/2000/svg" xmlns:xlink="http://www.w3.org/1999/xlink" x="0px" y="0px"
	 viewBox="0 0 145 102" style="enable-background:new 0 0 145 102;" xml:space="preserve">
<g>
	<g>
		<path style="fill:#002E23;" d="M62.1,36.2c-2.2,0.6-4.6,1.5-6.4,2.8c-3.7,2.7-3.3,4.6-2.6,5.1c0.6,0.4,2.2,0.2,3.6-1.2
			c1-1,1.9-2.5,2.7-4c0,0,0,0,0,0c0.1-0.2,0.9-1.3,2.9-2.3C63,36.2,63,36,62.1,36.2z"/>
		<path style="fill:#002E23;" d="M113.3,24.6c-2.4-12.1-13.3-20-24.9-22.5c-6.7-1.5-13.8-1.4-20.5,0C61.1,3.4,54.6,6,49,10
			c-9.7,6.7-16.7,18.3-14.2,30.4c2.4,12.1,13.3,20,24.9,22.5c6.7,1.5,13.8,1.4,20.5,0c6.7-1.4,13.3-4,18.9-8
			C108.8,48.2,115.8,36.6,113.3,24.6z M84.3,34.1l-3.6,8.3c-0.6,1.6-2.9,6.9-8.4,9.4c-0.3,0.1-0.6,0.2-0.9,0.3c-0.1,0-0.2,0-0.1-0.1
			l0.2-0.5c0-0.1,0.1-0.1,0.1-0.2c0.7-0.6,1.6-1.8,2-2.9c0.5-1.3,2.2-5.5,2.2-5.5l2.8-6.6c0.2-0.5,0.6-0.9,1-1.1
			c0.7-0.4,2.1-0.9,4.4-1.3C84.3,33.8,84.4,33.9,84.3,34.1z M98,28.1c-3.3,1.2-6.8,2.2-10.7,3.2c-0.7,0.2-1.4,0.3-2.1,0.5
			c-1.7,0.4-3.4,0.8-5.2,1.1c-0.4,0.1-0.9,0.2-1.3,0.3c-0.4,0.1-0.8,0.2-1.2,0.2c-0.3,0.1-0.7,0.1-1,0.2c-0.4,0.1-1.1,0.2-1.5,0.3
			c-0.3,0.1-0.3,0.2,0,0.2c0.3,0,0.6,0.1,1,0.2c0.1,0,0.2,0.1,0.1,0.2c-1.6,3.8-3.3,7.6-4.9,11.3c-0.6,1.6-3,6.7-8.6,9.2
			c-1.4,0.6-2.7,1-3.9,1.1c-0.1,0-0.1-0.1-0.1-0.1l0.2-0.5c0,0,0-0.1,0.1-0.1c0.5-0.2,1.2-0.6,1.8-1.1c3.1-2.7,3.7-5.4,6.3-11.5
			c1.5-3.6,2.8-6.9,3.4-8.3c0,0-2.2,0.3-3.2,0.5c-0.2,0-0.5,0.1-0.7,0.1c-0.1,0.2-0.4,0.8-0.4,0.9c-1.4,3-3.6,7.3-7.1,9.5
			c-3.8,2.4-7.1,1.7-8.1-0.7c0,0-0.2-0.6-0.2-1.5c0,0,0-0.1,0-0.2c0,0,0,0,0,0c0.1-1.1,1.3-5.8,10.4-8.7l0.5-1.1l4.3-10
			c0.6-1.6,4.6-9.5,13.5-12.3c10-3.2,11.8,3.1,11.4,6.3c-0.5,3.9-2.8,7.2-6.7,9.3c-8.3,4.6-10.7,1.4-11-0.2
			c-0.2-1.2,0.4-2.3,0.8-2.7c0.1-0.2,0.3-0.3,0.5-0.4c0.8-0.3,1.9-0.6,3.2-0.6c0.3,0,0.7,0,1,0.1c0.1,0,0.2,0.1,0.1,0.2
			c-0.6,0.7-1.7,1.8-1.8,3.4c0,0,0,0.1,0,0.1c0,0.5,0.4,0.9,1,0.8c0.9,0,2.3-0.7,4.3-2.7c4.2-4.3,4.6-9.9,3.7-11.6
			C85.3,12,83.9,12,83.4,12c-6.3,0-10.8,9.4-11.6,11.1c-1.3,3-2.6,6-3.9,8.9l-0.4,1C86.7,29.3,93,26.1,94,25.5c0.1,0,0.2-0.1,0.3,0
			c2.1,0.7,3.3,1.8,3.8,2.3C98.2,27.9,98.2,28.1,98,28.1z"/>
	</g>
	<g>
		<path style="fill:#002E23;" d="M9.3,77.1c-0.8-0.7-1.9-1-3.5-1h-5V77l1.4,0.2v10.3l-1.4,0.2v0.8h4.9v-0.8l-1.4-0.2V84h1.4
			c1.5,0,2.7-0.3,3.5-1c0.8-0.7,1.2-1.7,1.2-2.9C10.5,78.8,10.1,77.8,9.3,77.1z M4.5,77.1h1.2c1.7,0,2.5,0.9,2.5,2.7v0.6
			c0,1.8-0.8,2.7-2.5,2.7H4.5V77.1z"/>
		<path style="fill:#002E23;" d="M16.9,81.1l1.2,0.3l-1.4,4.2l-2-4.3l0.9-0.2v-0.8h-4.3v0.8l1.1,0.2l3.3,7.1l-0.9,2.4
			c-0.2,0.4-0.3,0.6-0.4,0.7c-0.1,0.1-0.3,0.2-0.4,0.2c-0.1,0-0.2,0-0.3-0.1c-0.1-0.1-0.1-0.2-0.1-0.3c0-0.2,0.1-0.3,0.2-0.5
			l0.1-0.1l-0.1-0.2c-0.1-0.2-0.3-0.4-0.5-0.5c-0.2-0.1-0.4-0.2-0.6-0.2c-0.3,0-0.6,0.1-0.9,0.4c-0.2,0.2-0.3,0.5-0.3,0.9
			c0,0.5,0.2,0.9,0.6,1.3c0.4,0.3,0.8,0.5,1.4,0.5c0.6,0,1.1-0.2,1.5-0.5c0.3-0.3,0.6-0.8,0.8-1.4l3.3-9.6l1.1-0.4v-0.8h-3.3V81.1z"
			/>
		<path style="fill:#002E23;" d="M26.8,86c-0.1,0.6-0.4,1-0.8,1.3c-0.5,0.3-1,0.5-1.6,0.5c-0.6,0-1.1-0.2-1.4-0.7
			c-0.3-0.5-0.5-1.1-0.5-2v-1.5c0-0.9,0.2-1.5,0.5-2c0.3-0.4,0.8-0.7,1.4-0.7c0.4,0,0.7,0.1,1,0.3c0.2,0.2,0.3,0.4,0.3,0.7
			c0,0.1,0,0.2-0.1,0.3c0,0.1-0.1,0.1-0.2,0.2l-0.1,0.1v0.2c0,0.3,0.1,0.6,0.4,0.9c0.2,0.2,0.5,0.4,0.9,0.4c0.4,0,0.7-0.1,0.9-0.3
			c0.2-0.2,0.3-0.5,0.3-1c0-0.5-0.2-1-0.5-1.4c-0.3-0.4-0.7-0.7-1.2-0.9c-0.5-0.2-1.1-0.3-1.7-0.3c-0.7,0-1.4,0.2-2,0.5
			c-0.6,0.3-1.1,0.8-1.5,1.5c-0.4,0.6-0.6,1.4-0.6,2.3c0,0.8,0.2,1.6,0.5,2.2c0.4,0.7,0.9,1.2,1.5,1.5c0.6,0.4,1.3,0.5,2.1,0.5
			c0.8,0,1.6-0.2,2.2-0.7c0.6-0.5,1-1.1,1.1-1.9l0.1-0.3h-0.9L26.8,86z"/>
		<path style="fill:#002E23;" d="M35.4,86c-0.1,0.6-0.4,1-0.8,1.3c-0.5,0.3-1,0.5-1.6,0.5c-0.6,0-1.1-0.2-1.4-0.7
			c-0.3-0.5-0.5-1.1-0.5-2v-1.5c0-0.9,0.2-1.5,0.5-2c0.3-0.4,0.8-0.7,1.4-0.7c0.4,0,0.7,0.1,1,0.3c0.2,0.2,0.3,0.4,0.3,0.7
			c0,0.1,0,0.2-0.1,0.3c0,0.1-0.1,0.1-0.2,0.2l-0.1,0.1v0.2c0,0.3,0.1,0.6,0.4,0.9c0.2,0.2,0.5,0.4,0.9,0.4c0.4,0,0.7-0.1,0.9-0.3
			c0.2-0.2,0.3-0.5,0.3-1c0-0.5-0.2-1-0.5-1.4c-0.3-0.4-0.7-0.7-1.2-0.9c-0.5-0.2-1.1-0.3-1.7-0.3c-0.7,0-1.4,0.2-2,0.5
			c-0.6,0.3-1.1,0.8-1.5,1.5c-0.4,0.6-0.6,1.4-0.6,2.3c0,0.8,0.2,1.6,0.5,2.2c0.4,0.7,0.9,1.2,1.5,1.5c0.6,0.4,1.3,0.5,2.1,0.5
			c0.8,0,1.6-0.2,2.2-0.7c0.6-0.5,1-1.1,1.1-1.9l0.1-0.3h-0.9L35.4,86z"/>
		<path style="fill:#002E23;" d="M45.3,87.4c-0.1,0.1-0.2,0.2-0.3,0.2c-0.1,0-0.1,0-0.1,0c0,0-0.1-0.1-0.2-0.5l-0.3-1.3
			c-0.1-0.6-0.3-1-0.7-1.3c-0.3-0.2-0.6-0.4-1.1-0.5c0.1-0.2,0.2-0.4,0.3-0.7l0.3-1.1c0.1-0.2,0.1-0.2,0.2-0.2c0,0,0.1,0,0.1,0
			c0,0,0,0.1,0,0.1c0,0,0,0.1,0,0.2l-0.1,0.3l0.3,0.1c0.2,0.1,0.3,0.1,0.5,0.1c0.4,0,0.7-0.1,0.9-0.4c0.2-0.2,0.3-0.5,0.3-0.9
			c0-0.4-0.1-0.7-0.4-0.9c-0.3-0.2-0.6-0.4-1-0.4c-0.5,0-0.9,0.2-1.2,0.5c-0.2,0.3-0.4,0.7-0.5,1.2L42,82.9
			c-0.1,0.4-0.2,0.6-0.3,0.7c-0.1,0.1-0.2,0.2-0.4,0.2h-1.1v-2.5l1.1-0.1v-0.8h-4.2v0.8l1.1,0.1v6.3l-1.1,0.2v0.8h4.2v-0.8l-1.1-0.2
			v-2.9l1.1,0c0.3,0,0.5,0.1,0.7,0.2c0.2,0.1,0.3,0.4,0.4,0.8l0.3,1.6c0.1,0.5,0.3,0.9,0.5,1.1l0,0c0.3,0.2,0.7,0.3,1.2,0.3
			c0.3,0,0.6-0.1,0.9-0.2c0.3-0.1,0.6-0.3,0.8-0.6l0.2-0.2l-0.6-0.6L45.3,87.4z"/>
		<path style="fill:#002E23;" d="M52.6,80.7c-0.6-0.4-1.3-0.5-2.1-0.5c-0.8,0-1.5,0.2-2.1,0.5c-0.6,0.4-1.1,0.9-1.5,1.5
			c-0.4,0.6-0.6,1.4-0.6,2.2c0,0.8,0.2,1.6,0.5,2.2c0.4,0.7,0.9,1.2,1.5,1.5c0.6,0.4,1.3,0.5,2.1,0.5c0.8,0,1.5-0.2,2.1-0.5
			c0.6-0.4,1.1-0.9,1.5-1.5c0.4-0.6,0.5-1.4,0.5-2.2c0-0.8-0.2-1.6-0.6-2.2C53.7,81.6,53.2,81.1,52.6,80.7z M48.5,85.2v-1.5
			c0-0.8,0.2-1.5,0.5-2c0.3-0.5,0.8-0.7,1.4-0.7c0.6,0,1.1,0.2,1.4,0.7c0.3,0.5,0.5,1.1,0.5,2v1.5c0,0.8-0.2,1.5-0.5,2
			c-0.3,0.5-0.8,0.7-1.4,0.7c-0.6,0-1.1-0.2-1.4-0.7C48.7,86.7,48.5,86,48.5,85.2z"/>
		<path style="fill:#002E23;" d="M63.5,84l0-0.3c0-0.7-0.2-1.3-0.5-1.8c-0.3-0.5-0.7-1-1.3-1.3c-0.5-0.3-1.1-0.5-1.8-0.5
			c-0.8,0-1.5,0.2-2.1,0.5c-0.6,0.4-1.1,0.9-1.5,1.5c-0.4,0.6-0.6,1.4-0.6,2.2c0,0.8,0.2,1.6,0.6,2.2c0.4,0.6,0.9,1.2,1.5,1.5
			c0.6,0.4,1.4,0.5,2.1,0.5c0.9,0,1.6-0.2,2.2-0.7c0.6-0.5,1-1.1,1.2-1.9l0.1-0.3h-0.9l0,0.2c-0.1,0.5-0.4,1-0.9,1.3
			c-0.5,0.4-1,0.5-1.6,0.5c-0.7,0-1.1-0.2-1.5-0.7c-0.4-0.5-0.5-1.1-0.5-2V84H63.5z M61.3,83.1h-3.2c0.1-0.6,0.3-1,0.5-1.4
			c0.3-0.4,0.7-0.6,1.3-0.6c0.5,0,0.8,0.2,1,0.5C61.2,81.9,61.3,82.4,61.3,83.1z"/>
		<polygon style="fill:#002E23;" points="68.8,77 70.2,77.2 70.2,87.5 68.8,87.8 68.8,88.6 73.8,88.6 73.8,87.8 72.4,87.5 
			72.4,77.1 77.3,77.1 77.3,87.5 75.9,87.8 75.9,88.6 80.9,88.6 80.9,87.8 79.5,87.5 79.5,77.2 80.9,77 80.9,76.1 68.8,76.1 		"/>
		<path style="fill:#002E23;" d="M89.3,82.2c-0.4-0.6-0.9-1.2-1.5-1.5c-0.6-0.4-1.3-0.5-2.1-0.5c-0.8,0-1.5,0.2-2.1,0.5
			c-0.6,0.4-1.1,0.9-1.5,1.5c-0.4,0.6-0.6,1.4-0.6,2.2c0,0.8,0.2,1.6,0.5,2.2c0.4,0.7,0.9,1.2,1.5,1.5c0.6,0.4,1.3,0.5,2.1,0.5
			c0.8,0,1.5-0.2,2.1-0.5c0.6-0.4,1.1-0.9,1.5-1.5c0.4-0.6,0.5-1.4,0.5-2.2C89.9,83.6,89.7,82.9,89.3,82.2z M83.8,85.2v-1.5
			c0-0.8,0.2-1.5,0.5-2c0.3-0.5,0.8-0.7,1.4-0.7c0.6,0,1.1,0.2,1.4,0.7c0.3,0.5,0.5,1.1,0.5,2v1.5c0,0.8-0.2,1.5-0.5,2
			c-0.3,0.5-0.8,0.7-1.4,0.7c-0.6,0-1.1-0.2-1.4-0.7C84,86.7,83.8,86,83.8,85.2z"/>
		<path style="fill:#002E23;" d="M97.4,87.7v-6.4l1-0.1v-0.8h-7.3v0.8l1.3,0.6l-0.1,1.6c-0.1,1-0.1,1.8-0.2,2.3
			c-0.1,0.5-0.2,0.9-0.3,1.2c-0.1,0.3-0.3,0.6-0.5,0.7c-0.2,0.1-0.3,0.2-0.4,0.2h-0.7l-0.3,3.4h0.9l1.3-2.5h4.4l1.3,2.5h0.9
			l-0.3-3.4H97.4z M93,85.7c0.1-0.5,0.2-1.3,0.2-2.4l0.1-2.1h1.9v6.4h-3c0,0,0,0,0,0c0.1-0.2,0.2-0.4,0.3-0.6
			C92.8,86.7,92.9,86.2,93,85.7z"/>
		<path style="fill:#002E23;" d="M105.8,84.2c0.9-0.5,1.1-1.2,1.1-1.7c0-0.7-0.3-1.3-0.8-1.6c-0.5-0.3-1.3-0.5-2.3-0.5h-4.4v0.8
			l1,0.1v6.3l-1,0.1v0.8h4.8c1,0,1.7-0.2,2.3-0.6c0.6-0.4,0.9-1,0.9-1.8C107.4,85.5,107.1,84.6,105.8,84.2z M104.8,82.5
			c0,0.5-0.1,0.8-0.3,1c-0.2,0.2-0.5,0.3-1,0.3h-0.9v-2.5h0.8c0.5,0,0.9,0.1,1.1,0.3C104.6,81.7,104.8,82,104.8,82.5L104.8,82.5z
			 M102.5,84.7h1.3c0.5,0,0.8,0.1,1.1,0.3c0.2,0.2,0.4,0.6,0.4,1.1v0.1c0,0.5-0.1,0.8-0.4,1.1c-0.2,0.2-0.6,0.4-1.1,0.4h-1.3V84.7z"
			/>
		<path style="fill:#002E23;" d="M114.8,80.7c-0.6-0.4-1.3-0.5-2.1-0.5c-0.8,0-1.5,0.2-2.1,0.5c-0.6,0.4-1.1,0.9-1.5,1.5
			c-0.4,0.6-0.6,1.4-0.6,2.2c0,0.8,0.2,1.6,0.5,2.2c0.4,0.7,0.9,1.2,1.5,1.5c0.6,0.4,1.3,0.5,2.1,0.5c0.8,0,1.5-0.2,2.1-0.5
			c0.6-0.4,1.1-0.9,1.5-1.5c0.4-0.6,0.5-1.4,0.5-2.2c0-0.8-0.2-1.6-0.6-2.2C115.9,81.6,115.4,81.1,114.8,80.7z M110.8,85.2v-1.5
			c0-0.8,0.2-1.5,0.5-2c0.3-0.5,0.8-0.7,1.4-0.7c0.6,0,1.1,0.2,1.4,0.7c0.3,0.5,0.5,1.1,0.5,2v1.5c0,0.8-0.2,1.5-0.5,2
			c-0.3,0.5-0.8,0.7-1.4,0.7c-0.6,0-1.1-0.2-1.4-0.7C110.9,86.7,110.8,86,110.8,85.2z"/>
		<path style="fill:#002E23;" d="M124.8,80.7c-0.6-0.4-1.3-0.5-2-0.5c-0.6,0-1.2,0.2-1.7,0.5c-0.2,0.1-0.4,0.3-0.6,0.5v-0.9h-3.1
			v0.8l1,0.1v10.5l-1,0.1v0.8h4.5V92l-1.4-0.1v-4.1c0.2,0.2,0.3,0.4,0.6,0.5c0.5,0.3,1,0.5,1.7,0.5c0.8,0,1.4-0.2,2-0.5
			c0.6-0.4,1-0.9,1.4-1.5c0.3-0.6,0.5-1.4,0.5-2.2c0-0.8-0.2-1.6-0.5-2.2C125.9,81.6,125.4,81.1,124.8,80.7z M120.6,83.6
			c0-0.5,0.1-0.9,0.3-1.3c0.2-0.4,0.4-0.7,0.8-0.9c0.3-0.2,0.6-0.3,1-0.3c0.8,0,1.8,0.3,1.8,2.6v1.5c0,2.3-1,2.6-1.8,2.6
			c-0.4,0-0.7-0.1-1-0.3c-0.3-0.2-0.6-0.5-0.8-0.9c-0.2-0.4-0.3-0.8-0.3-1.3L120.6,83.6z"/>
		<path style="fill:#002E23;" d="M134.6,84.2c-0.6-0.4-1.3-0.6-2.3-0.6h-1.7v-2.3l1-0.1v-0.8h-4.1v0.8l1,0.1v6.3l-1,0.1v0.8h4.8
			c1,0,1.7-0.2,2.3-0.6c0.6-0.4,0.9-1.1,0.9-1.9C135.5,85.3,135.2,84.6,134.6,84.2z M130.6,84.5h1.3c0.5,0,0.8,0.1,1.1,0.4
			c0.2,0.3,0.4,0.7,0.4,1.2v0c0,0.5-0.1,0.9-0.4,1.2c-0.2,0.3-0.6,0.4-1.1,0.4h-1.3V84.5z"/>
		<path style="fill:#002E23;" d="M143.1,86c-0.1,0.5-0.4,1-0.9,1.3c-0.5,0.4-1,0.5-1.6,0.5c-0.7,0-1.1-0.2-1.5-0.7
			c-0.4-0.5-0.5-1.1-0.5-2V84h5.5l0-0.3c0-0.7-0.2-1.3-0.5-1.8c-0.3-0.5-0.7-1-1.3-1.3c-0.5-0.3-1.1-0.5-1.8-0.5
			c-0.8,0-1.5,0.2-2.1,0.5c-0.6,0.4-1.1,0.9-1.5,1.5c-0.4,0.6-0.6,1.4-0.6,2.2c0,0.8,0.2,1.6,0.6,2.2c0.4,0.6,0.9,1.2,1.5,1.5
			c0.6,0.4,1.4,0.5,2.1,0.5c0.9,0,1.6-0.2,2.2-0.7c0.6-0.5,1-1.1,1.2-1.9l0.1-0.3h-0.9L143.1,86z M141.9,83.1h-3.2
			c0.1-0.6,0.3-1,0.5-1.4c0.3-0.4,0.7-0.6,1.3-0.6c0.5,0,0.8,0.2,1,0.5C141.8,81.9,141.9,82.4,141.9,83.1z"/>
	</g>
	<g>
		<g>
			<path style="fill:#002E23;" d="M55.5,97.9c0,1.3-0.7,1.8-2.1,1.8h-0.7v1.2h-1.2v-4.7h1.9C54.8,96.2,55.5,96.8,55.5,97.9z
				 M54.3,98c0-0.5-0.2-0.8-0.9-0.8h-0.7v1.6h0.6C54,98.8,54.3,98.4,54.3,98z"/>
		</g>
		<g>
			<path style="fill:#002E23;" d="M56.6,96.2h3.6v1h-2.4v0.9h2v1h-2v0.8h2.5v1h-3.6V96.2z"/>
		</g>
		<g>
			<path style="fill:#002E23;" d="M61.3,98.5c0-1.5,1-2.4,2.5-2.4c0.9,0,1.6,0.4,2.1,0.9L65,97.8c-0.2-0.3-0.6-0.6-1.1-0.6
				c-0.8,0-1.3,0.5-1.3,1.3c0,0.8,0.5,1.4,1.3,1.4c0.5,0,0.9-0.2,1.1-0.6l0.9,0.8c-0.5,0.6-1.1,0.9-2.1,0.9
				C62.3,101,61.3,100.1,61.3,98.5z"/>
		</g>
		<g>
			<path style="fill:#002E23;" d="M68.4,97.3h-1.4v-1.1H71v1.1h-1.4v3.6h-1.2V97.3z"/>
		</g>
		<g>
			<path style="fill:#002E23;" d="M71.9,98.5c0-1.4,1-2.5,2.6-2.5c1.5,0,2.6,1,2.6,2.5c0,1.4-1,2.5-2.6,2.5
				C73,101,71.9,100,71.9,98.5z M75.8,98.5c0-0.8-0.5-1.4-1.3-1.4c-0.8,0-1.3,0.5-1.3,1.4c0,0.8,0.5,1.4,1.3,1.4
				C75.3,99.9,75.8,99.4,75.8,98.5z"/>
		</g>
		<g>
			<path style="fill:#002E23;" d="M82.2,97.9c0,1.3-0.7,1.8-2.1,1.8h-0.7v1.2h-1.2v-4.7h1.9C81.5,96.2,82.2,96.8,82.2,97.9z M81,98
				c0-0.5-0.2-0.8-0.9-0.8h-0.7v1.6h0.6C80.8,98.8,81,98.4,81,98z"/>
		</g>
		<g>
			<path style="fill:#002E23;" d="M86.1,100.1h-1.9l-0.3,0.8h-1.3l2.2-4.7h0.8l2.2,4.7h-1.3L86.1,100.1z M84.6,99.2h1.2l-0.3-0.6
				l-0.3-0.9l-0.3,0.9L84.6,99.2z"/>
		</g>
		<g>
			<path style="fill:#002E23;" d="M88.9,96.2H90v2h1.9v-2H93v4.7h-1.2v-1.6H90v1.6h-1.2V96.2z"/>
		</g>
	</g>
</g>
</svg>
