<svg version="1.1" id="Слой_1" xmlns="http://www.w3.org/2000/svg" x="0" y="0" viewBox="0 0 150 39.7" xml:space="preserve"><style>.st0{fill-rule:evenodd;clip-rule:evenodd}</style><path class="st0" d="M149.2 27c-.4 0-.8.4-.8.8s.4.8.8.8.8-.4.8-.8-.4-.8-.8-.8zm0 1.4c-.4 0-.7-.3-.7-.7 0-.4.3-.7.7-.7.4 0 .7.3.7.7 0 .4-.3.7-.7.7zm.3-.8c0 .1 0 .2-.1.2l.1.3h-.1l-.1-.3h-.1v.3h-.2v-.7h.2c.2 0 .3.1.3.2zm-.3.1h-.1v-.2h.1c.1 0 .1 0 .1.1s0 .1-.1.1zM54.9 19v-1.9H52v11.3h2.9v-6.8c0-1.2.8-1.8 2-1.8h1.6v-2.7h-1.4c-1 .1-2 .6-2.2 1.9zm6.3-6.3c-1 0-1.8.8-1.8 1.8s.8 1.8 1.8 1.8 1.8-.8 1.8-1.8-.8-1.8-1.8-1.8zm-1.4 15.7h2.9V17.2h-2.9v11.2zm16.7-5.6c0 3.2-2.6 5.8-5.8 5.8-1.3 0-2.5-.4-3.4-1.1v4.3h-2.9V17.2h2.9v1c.9-.7 2.1-1.1 3.4-1.1 3.1-.1 5.8 2.5 5.8 5.7zm-3 0c0-1.7-1.4-3.2-3.2-3.2-1.7 0-3.2 1.4-3.2 3.2 0 1.7 1.4 3.2 3.2 3.2 1.8-.1 3.2-1.5 3.2-3.2zm53.3-1l-1.7-.5c-1.1-.3-1.5-.6-1.5-1.2s.6-1 1.5-1c.8 0 1.5.5 1.5 1.2v.1h2.7v-.1c0-2-1.7-3.4-4.1-3.4-2.5 0-4.2 1.4-4.2 3.3 0 1.5 1 2.6 2.7 3l1.6.4c1.2.3 1.7.7 1.7 1.4s-.7 1.2-1.6 1.2c-1 0-1.7-.6-1.7-1.6v-.1h-2.8v.1c0 2.3 1.9 3.9 4.5 3.9s4.4-1.6 4.4-3.7c-.3-1-.7-2.4-3-3zm-40.1-4.6h2.9v11.3h-2.9v-1c-.9.7-2.1 1.1-3.4 1.1-3.2 0-5.8-2.6-5.8-5.8 0-3.2 2.6-5.8 5.8-5.8 1.3 0 2.5.4 3.4 1.1v-.9zm0 5.6c0-1.7-1.4-3.2-3.2-3.2-1.7 0-3.2 1.4-3.2 3.2 0 1.7 1.4 3.2 3.2 3.2 1.8-.1 3.2-1.5 3.2-3.2zm13.4-9.7h2.9v15.3h-2.9v-1c-.9.7-2.1 1.1-3.4 1.1-3.2 0-5.8-2.6-5.8-5.8 0-3.2 2.6-5.8 5.8-5.8 1.3 0 2.5.4 3.4 1.1v-4.9zm0 9.7c0-1.7-1.4-3.2-3.2-3.2-1.7 0-3.2 1.4-3.2 3.2 0 1.7 1.4 3.2 3.2 3.2 1.8-.1 3.2-1.5 3.2-3.2zm16.3 5.6h2.9V17.2h-2.9v11.2zm1.5-15.7c-1 0-1.8.8-1.8 1.8s.8 1.8 1.8 1.8 1.8-.8 1.8-1.8c-.1-1-.8-1.8-1.8-1.8zm24.2 10.1c0 3.2-2.6 5.8-5.8 5.8-3.2 0-5.8-2.6-5.8-5.8s2.6-5.8 5.8-5.8c3.2 0 5.8 2.6 5.8 5.8zm-2.7 0c0-1.7-1.4-3.2-3.2-3.2-1.7 0-3.2 1.4-3.2 3.2 0 1.7 1.4 3.2 3.2 3.2 1.8-.1 3.2-1.5 3.2-3.2zm-86-9.7v2.6h-4.1v12.7h-2.9V15.7h-4.1v-2.6h11.1zm56.2 12.2l-2.6-8.2h-3l3.9 11.3h3.5l3.9-11.3h-3l-2.7 8.2zm36.7-6.3c.3-1.3 1.2-1.9 2.2-1.9h1.4v2.7h-1.6c-1.2 0-2 .6-2 1.8v6.8h-2.9V17.2h2.9V19z"/><circle transform="rotate(-13.357 19.877 19.876)" cx="19.9" cy="19.9" fill-rule="evenodd" clip-rule="evenodd" fill="#34e0a1" r="19.9"/><path class="st0" d="M32.1 16l2.4-2.6h-5.3c-2.7-1.8-5.9-2.9-9.4-2.9s-6.7 1.1-9.3 2.9H5.2L7.6 16c-1.5 1.3-2.4 3.3-2.4 5.4 0 4 3.3 7.3 7.3 7.3 1.9 0 3.7-.7 5-2l2.3 2.6 2.3-2.6c1.3 1.2 3.1 2 5 2 4 0 7.3-3.3 7.3-7.3.1-2.1-.8-4.1-2.3-5.4zM12.5 26.4c-2.7 0-5-2.2-5-5 0-2.7 2.2-5 5-5 2.7 0 5 2.2 5 5s-2.2 5-5 5zm7.4-5.1c0-3.3-2.4-6.1-5.5-7.3 1.7-.7 3.6-1.1 5.5-1.1 2 0 3.8.4 5.5 1.1-3.2 1.2-5.5 4-5.5 7.3zm7.3 5.1c-2.7 0-5-2.2-5-5 0-2.7 2.2-5 5-5 2.7 0 5 2.2 5 5s-2.3 5-5 5zm0-7.6c1.4 0 2.6 1.2 2.6 2.6 0 1.4-1.2 2.6-2.6 2.6-1.4 0-2.6-1.2-2.6-2.6 0-1.4 1.2-2.6 2.6-2.6zm-12.1 2.6c0 1.4-1.2 2.6-2.6 2.6-1.4 0-2.6-1.2-2.6-2.6 0-1.4 1.2-2.6 2.6-2.6 1.5 0 2.6 1.2 2.6 2.6z"/></svg>