<svg version="1.1" id="Layer_1" xmlns="http://www.w3.org/2000/svg" x="0" y="0" viewBox="0 0 349.9 165.9" xml:space="preserve"><style>.st0{fill-rule:evenodd;clip-rule:evenodd}.st0,.st1{fill:#e3b48b}</style><path class="st0" d="M191.4 39.9c-1.1-1-2.7-1.2-4.1-1.2-.9 0-1.9 0-2.9.1h-.1v10.9h.1c.9.2 2 .2 2.9.2h.7v-4.6c0-.3-.2-.6-.5-.6l-1.9-.6v-.4h.2c1.3 0 2.5.1 3.8.1h3.1v-.2c-.1-1.2-.5-2.9-1.3-3.7z"/><path class="st0" d="M228 39.3c-.5-1.1-1.3-2.2-2.1-3.1-.7-1-1.9-2.3-3.1-2.5l-.4-.1-.3.3c-.3.3-.4.5-.6.9-.7 1.4-3.9 1.9-5.3 2.2-3.1.6-4.2 1.2-7.2-.2-1.9-.9-3.9-2.1-5.3-3.8-.7-.8-1.4-1.7-1.9-2.6-.6-1.2-.4-2.5-.6-3.8l-.1-.6-2.3-.3c-.9-1 .3-1.8 1.3-2.2.7-.3.9-.4 1.2-1.1l.1-.1.4-.4-.2-.5c-.1-.2-.3-.8-.3-1 .1-.2.8-.4 1-.4l.6-.2v-.7c0-2.9 0-2.3-2.5-2.7-.6-.1-2-.8-2.6-1-1.6-.6-3.1-.8-4.8-.9 0-.2 0-.4.1-.5.4-.4.5-.6.6-1.2l.1-.6-.5-.3c-.1-.1-.3-.2-.4-.2 0-.2 0-.4.1-.5l.1-.6-1.3-.7h-.8l-1.3.7.1.6v.5c-.1.1-.3.1-.4.2l-.7.3.2.7c.2.7.3.8.7 1.3 0 .1 0 .2.1.4-1.6.1-2.9.2-4.7.7-2.2.7-1.9 1.1-4.4 1.3h-.8v3.1l.5.2c.2.1 1 .3 1 .5 0 .1.1.1.1.2-.1.2-.3.4-.4.6l-.2.5.3.4c.6.9.3.9 1.5 1.5 1.6.7 1.9 1 1.2 2.4l-2.4.2-.1.8c-.1 1.5.2 2.5-.6 3.8-1.6 2.8-4.1 5-7.1 6.4-3 1.3-4.5.7-7.5.1-1.1-.2-4.4-.8-5-2-.2-.4-.4-.7-.7-1.1l-.3-.3-.5.1c-2 .4-4.4 3.8-5.2 5.5-1.2 2.5-1.2 6.1-.9 8.8.5 5 1.9 6.5 5.5 9.8 2.6 2.4 3.2 2.6 6.5 3.5.5.1 2.8.6 3.2.8.2.3.6 1.1.9 1.4l2.9 4.2c2.2 3.2 8.2 5.4 12 6.9-.1 2.3-1 4.3-2.8 5.8-4.7 3.8-4.3.3-7.3 1.9l-.5.3.2 8.5 1-.2c1.8-.3 2.9-1.3 4.5-1.9 1.7-.7 3-.6 4.6-1.7.6-.4.6-.6.9-1.1.5-.7 1.6-1.5 2.2-2 1.7-1.2 2-.9 4.1-1 2.1-.1 2.4 0 4.1 1.1.3.2 1.1.9 1.3 1.2v.1l.1.1c.5.5.9 1.1 1.4 1.6l.1.1h.1c1.4 1 3.1 1 4.6 1.7 1.3.6 3.1 1.8 4.5 1.8h.9l.2-8.3-.5-.2c-1.5-.7-1.2-.4-2.6-.1-1.8.4-3.4-.4-4.6-1.7-2-2.2-2.6-3-2.8-5.8l6.1-2.8c4.4-2 5.2-3 7.8-6.9.8-1.2 1.1-2 1.7-2.8 1.7-.9 5.2-1 7.1-2.2 1.5-1 2.7-2.3 4.1-3.3.5-.4.8-.8 1.2-1.2 1.8-1.9 2.6-4.8 2.8-7.4.1-3.2.1-6.8-1-9.2zm-60.3 6.3c-.9 1.6-1.7 2.1-2.7 3.3l-.2.3.1.4c.2 1.1 1 1.3 1.2 2.3.2 1.2.4 2.3.5 3.4.1 1.2.4 2.5.7 3.7-4.2-1.2-7.4-3.5-9.6-7.4-1.4-2.5-1.7-4.6-1.2-7.4.3-1.7 1.2-4.2 2.5-5.6 1.4.8 3.6.7 5.1.9 1.4.2 2.1 1.2 2.9 2.2.6.8 1.3 2.8.7 3.9zm28-.8v.1c-.2 1.5-.8 3.1-2.1 4.1-.5.4-1.1.7-1.6 1v-2.3c.4-.8.6-1.9.7-2.8v-.2h-1.6v7.7c.3.5.7.9 1.1 1.2h.1v.4h-.1c-.5.3-.9.7-1.1 1.3V63c0 .3.2.6.5.7l1.7.5v.4h-7.7v-.4l1.9-.5c.3-.1.5-.3.6-.6v-7.4c-.2-.5-.6-1-1.1-1.3h-.1V54h.1c.4-.3.8-.7 1.1-1.2v-1.7h-.6c-1 0-2 0-3-.1h-.2v7.4c0 .3.2.5.5.6l2.1.6v.4H179v-.4l1.8-.5c.3-.1.5-.3.5-.6v-7.3c-.2-.5-.6-1-1.1-1.3h-.1v-.4h.1c.5-.3.8-.7 1.1-1.2v-8.4c0-.3-.2-.6-.5-.6l-1.9-.6v-.4h.2c1.2 0 2.4.1 3.7.1.8 0 1.7 0 2.5-.1 1 0 1.9-.1 2.9-.1 1.8 0 4 .3 5.5 1.4 1.3 1 1.8 3 1.8 4.5v.2c.2-.2.2.1.2.5zm7.7 19.6h-7.5V64l1.7-.5c.3-.1.5-.3.5-.7 0-1 .1-2 .1-3v-4.4c-.2-.5-.6-1-1.1-1.3h-.1v-.5h.1c.4-.3.8-.7 1.1-1.2v-7.7h-1.6l.1-1.1h3c1.3 0 2.5 0 3.8-.1h.1v.4l-1.9.6c-.3.1-.5.4-.5.7v7.3c.3.4.8 1 1.2 1.2h.1v.4h-.1c-.5.3-.8.9-1.2 1.4V63c0 .3.3.5.6.6l1.9.5v.4l-.3-.1zm21.1-12.7c-1.1 1.8-2.7 3.7-4.5 4.9-1.1.7-3.3 1.8-5.1 2.4.6-2.3.8-4.4 1.2-6.8.1-.6.2-.8.5-1.3.3-.4.7-.9.6-1.5-.1-.6-.7-.9-1.1-1.3-.7-.6-1.2-1.4-1.7-2.2-.7-1.2.1-3.7 1-4.5 1.9-1.9 1.1-1.9 4.3-2.1 1.4-.1 2.4-.1 3.4-.7.1.1.2.2.3.4 1.4 1.8 1.8 3.1 2.3 5.4.6 2.8.4 4.8-1.2 7.3z"/><path class="st1" d="M21 6.4c3.2-3.7 4.7-4.9 6.3-3.5 1 .8.9 2.2.7 4.5-.1 1.1-.2 2.6-.2 4.4v34.8L22.2 52l5.7 6.2v35.7l5.7 8H6.2l5.7-8V58.2l5.7-6.3-5.7-5.4V22.4c-2 2.3-4 4.6-6.1 6.9L3 26.9c3.2-3.6 6.4-7.2 9.6-10.9L21 6.4zm2.8 2.4l-5 5.6c-2.1 2.3-3 3.4-3.3 4.3-.2.7-.2 1.6-.1 3.2 0 1 .1 2.2.1 3.4V45l4.5 4.2 4.4-4.2V11.7c0-1.6.1-3 .1-4.1-.2.4-.4.8-.7 1.2zm.5 85.7V59.6l-4.4-4.8-4.4 4.8V95l-2.3 3.2h13.4L24.3 95v-.5z"/><path class="st0" d="M116.3 161.6c-.5.5-1.1 1-1.7 1.3-.8.4-1.7.6-2.5.6-1.5 0-2.9-.5-4-1.6-1-1.1-1.4-2.5-1.4-4 0-1.6.4-3.1 1.6-4.3 1-1 2.3-1.5 3.7-1.5.4 0 .8 0 1.2.1.4.1.7.1 1.1.2.2.1.5.1.7.2h.4s.1 0 .1-.1l.1-.1h.5v2.8h-.8v-.1c-.2-.5-.4-.9-.8-1.2-.3-.3-.7-.5-1.1-.6-.2-.1-.4-.1-.6-.2h-.6c-1 0-1.8.5-2.4 1.3-.8 1-1.1 2.3-1.1 3.6 0 1.2.2 2.4 1 3.4.7.9 1.7 1.3 2.8 1.3h.5c.2 0 .3-.1.5-.1.5-.1.9-.3 1.3-.6.4-.2.8-.6 1.1-.9l.1-.2.6.7h-.3zm17.1-1.4c-.3.8-.7 1.5-1.2 2.3-.5.7-1.3 1.1-2.2 1.1h-.6c-.4-.1-.8-.2-1.1-.4-.4-.2-.5-.6-.5-1.1 0-.2 0-.5.2-.7.1-.1.3-.2.4-.3h.2c.3 0 .5.1.7.3.2.2.3.4.3.7v.5l.1.1c.1.1.2.1.3.1.2 0 .3-.1.5-.1.2-.1.4-.3.6-.5.2-.2.3-.4.4-.6.1-.3.3-.5.4-.8l-3.6-6.4c0-.1-.1-.1-.1-.2s-.1-.1-.1-.2c-.1-.2-.2-.4-.4-.5-.1-.1-.3-.2-.4-.2h-.2v-.9h3.6v.9h-.2c-.1 0-.2 0-.3.1l-.1.1v.2c0 .1 0 .1.1.1v.1s0 .1.1.1l.1.1s0 .1.1.1l2.5 4.4 1.9-4.4v-.6c0-.1 0-.2-.1-.3-.1-.1-.2-.1-.4-.1h-.3v-.9h3.1v.9h-.2c-.3.1-.6.2-.8.4-.2.2-.4.5-.5.8l-2.2 5.1c0 .1 0 .1-.1.2 0 .1 0 .1-.1.2 0 .1-.1.1-.1.2.3 0 .3.1.2.1zm24.4-5.6v.5c0 .4-.1.8-.3 1.2-.2.3-.5.6-.7.9l-.1.1.4.3.2.2.2.2c.3.4.6.8.7 1.3 0 .3.1.6.1.9 0 .9-.3 1.7-1.1 2.3-.7.5-1.4.9-2.3 1-.2 0-.3.1-.5.1h-.5c-.7 0-1.3-.1-2-.3-.6-.2-1.1-.4-1.6-.7 0 0-.1 0-.1-.1h-.1l-.1-.1c-.1 0-.1-.1-.2-.1-.1-.1-.2-.1-.3-.1h-.3c-.1 0-.1.1-.2.1l-.2.2-.1.1-.1.1-.1.2-.6-.7.1-.1c.3-.4.5-.7.8-1 .3-.3.7-.5 1.2-.5.3 0 .7.1 1 .3.3.2.7.4 1 .7.1.1.2.1.3.2.1.1.2.1.3.2.3.2.6.4.9.5.3.2.6.2 1 .2.6 0 1.1-.3 1.4-.7.4-.5.6-1.1.6-1.7 0-.4-.1-.8-.2-1.1-.1-.3-.3-.6-.6-.8-.4.2-.8.4-1.2.5-.5.2-1 .2-1.5.2-.3 0-.7 0-1.1-.2-.2-.1-.4-.3-.6-.5 0-.1-.1-.2-.1-.3v-.4c.1-.4.4-.6.7-.8.5-.3 1.3-.3 1.8-.3.2 0 .5 0 .7.1.2 0 .5.1.7.2.1 0 .1 0 .2.1.1-.1.3-.3.4-.5.1-.2.2-.4.2-.7v-.4c0-.5-.2-1-.5-1.4-.4-.5-.9-.6-1.5-.6-.3 0-.5 0-.8.1-.4 0-.8.2-1.1.3l-.9.6c-.3.3-.5.7-.7 1.1l-.1.1h-.8v-2.9h.8l.1.1c.1.1.1.2.2.2h.5c.1 0 .3 0 .4-.1.2-.1.4-.1.6-.2.2-.1.5-.1.7-.2.3-.1.6-.1.9-.1.9 0 2 .1 2.7.8.9.2 1.3.7 1.4 1.4zm21.4 7.8h.2c.2 0 .4 0 .5.2.1.1.2.3.2.5s-.1.4-.2.6c-.1.3-.3.5-.4.7-.1.2-.2.3-.3.5-.1.1-.2.3-.3.4l-.5.5c-.1.1-.3.2-.5.2-.1 0-.3 0-.4-.1-.1-.1-.2-.2-.2-.3 0-.2 0-.6.2-.8l.3-.3c.1 0 .1-.1.2-.2s.1-.4.1-.5c0-.1 0-.2-.1-.3-.1-.1-.2-.1-.4-.1h-5.9c-.1 0-.3 0-.4.1-.1.1-.1.4-.1.5v.2l.1.1s.1 0 .1.1c.1.1.2.2.2.3.1.2.1.4.1.6 0 .1 0 .3-.1.3-.1.1-.2.1-.3.1-.1 0-.2-.1-.3-.1-.1-.1-.2-.2-.3-.2l-.1-.1-.1-.1-.3-.3-.2-.2c-.2-.3-.5-.6-.6-1-.1-.2-.2-.5-.2-.7 0-.3 0-.6.3-.7.2-.1.4-.1.6-.1h.3c.1 0 .2 0 .2-.1.3-.1.5-.5.7-.7.4-.6.8-1.4 1.2-2.1.1-.3.3-.6.4-.9l.6-1.2c.1-.1.1-.2.2-.3 0-.1.1-.2.1-.3.2-.5.4-1.1.6-1.6.1-.3.3-.8.3-1.1v-.2c0-.1-.2-.3-.3-.3-.2-.1-.5-.1-.8-.1h-.2v-.9h5.9v.9h-.2c-.2 0-.4.1-.5.3-.1.2-.1.5-.1.8v7.7c0 .1 0 .2.1.3.1.1.3.1.4.1h.1c-.1-.1 0-.1.1-.1zm19.3-1.9h-5.1l-.6 1.2c0 .1-.1.2-.1.3v.2c0 .1.1.1.1.2.1.1.2.1.3.1h.2v.9h-2.8v-.9h.2c.2 0 .3-.1.4-.2.1-.1.3-.2.4-.3.1-.1.1-.2.2-.3 0-.1.1-.1.1-.2l3.5-7.5c0-.1.1-.2.1-.3v-.1h-.4v-.9h.1c.1 0 .1 0 .2-.1.1 0 .1-.1.2-.1.1-.1.2-.1.3-.2.1-.1.2-.1.2-.2l.1-.1v-.1h.6l4.2 9.4c.1.3.3.6.5.8.1.2.3.2.5.3h.2v.9h-3.4v-.9h.2c.1 0 .3-.1.3-.1 0-.1.1-.2.1-.3v-.4l-.8-1.1zm20.1-6.1s0 .1 0 0c0 .1 0 .1 0 0v.1l-.3 1.5c-.2 1-.5 2-.9 3 0 .1-.1.2-.1.4 0 .1-.1.2-.1.4-.3.9-.7 1.9-1.2 2.7-.5.7-1.1 1.1-2 1.1-.3 0-.6-.1-.8-.2-.3-.2-.4-.5-.4-.8 0-.3.1-.6.3-.8.2-.2.5-.2.7-.2.1 0 .2 0 .4.1.1 0 .2.1.3.1h.3c.4 0 .7-.5.8-.8.3-.6.6-1.3.8-2l.3-.9c.1-.3.2-.5.2-.8.1-.2.1-.4.2-.6l.3-.9c0-.1 0-.2.1-.2 0-.1 0-.1.1-.2.1-.4.2-.7.2-1.1 0-.2.1-.5.1-.7 0-.2 0-.3-.1-.4-.1-.1-.4-.2-.6-.2h-.2v-.9h3l3 9.3c.1.3.2.6.4.8.1.2.4.2.6.2h.2v.9h-2.5l-3.1-8.9zm19.3 2.4h2.6c.3 0 .6.1.9.1.6.1 1.2.5 1.7.9.7.6.8 1.4.8 2.3 0 .8-.1 1.8-.8 2.3-.5.4-1 .7-1.6.9-.3.1-.6.1-.9.1h-5.3v-.9h.2c.2 0 .5-.1.6-.3.1-.2.2-.5.2-.8v-7.3c0-.2 0-.6-.2-.8-.1-.2-.4-.3-.6-.3h-.2v-.9h3.6v.9h-.2c-.2 0-.5.1-.6.3-.1.2-.2.5-.2.8v2.7zm-83.3.8c-.2-.1-.4-.1-.6-.2-.3 0-.5-.1-.8-.1-.2 0-.6 0-.8.1-.1.1-.2.1-.2.3 0 .1.1.1.2.1.1.1.4.1.5.1h.5c.2 0 .4-.1.6-.2.1 0 .3-.1.4-.2.1.2.1.1.2.1zm22-4.2c-.2 0-.5 0-.6.2-.2.2-.3.3-.4.5 0 .1-.1.2-.1.2 0 .1-.1.2-.1.2-.1.2-.1.5-.2.7-.1.2-.2.5-.2.7-.2.5-.4.9-.6 1.4-.2.4-.3.7-.5 1.1-.1.3-.2.5-.4.8l-.3.6s0 .1-.1.1c-.1.1-.1.3-.2.4-.1.2-.2.3-.3.5-.2.3-.4.7-.6 1-.1.1-.1.3-.1.4 0 .1 0 .1.1.2.2.1.5.1.6.1h3.9v-9.1h.1zm21.5 6.1l-2.1-4.6-2.1 4.6h4.2zm39.8 3h2.3c.4-.1.8-.2 1.2-.5.5-.4.5-1.2.5-1.7v-.3c0-.5-.2-1-.5-1.4-.4-.6-1.5-.6-2.1-.6h-1.4v4.5zm75.6-35.3v7.7c.6.1 1.2.2 1.8.2 1.2 0 2.5-.2 3.4-1 .9-.8 1.1-1.9 1.1-3s-.3-2.2-1.2-2.9c-1-.8-2.6-1-3.8-1h-1.3zm-3.2 1.7c-.3-.6-.7-1.1-1.4-1.3h-.1v-.5h.1c.6-.3 1.1-.7 1.4-1.3v-6c0-.1-.1-.2-.2-.3l-1.9-.5v-.9h.2c1.2 0 2.3.1 3.5.1 1.2 0 2.4 0 3.6-.1h.2l.1.9-2.1.6c-.1 0-.2.1-.2.2v6.1c.7-.1 1.4-.1 2.1-.1 1.9 0 4.2.2 5.8 1.3 1.3.9 2 2.2 2 3.8 0 .9-.2 1.8-.7 2.7-.4.7-1 1.3-1.7 1.8-.8.5-1.6.8-2.5 1-1 .2-2 .3-3 .3h-7.2l-.1-.9 1.9-.5c.1 0 .2-.1.2-.2v-6.2zm-15.7-1.6c.6.1 1.2.1 1.8.1 1.2 0 2.4-.2 3.3-1 .9-.8 1.1-2 1.1-3.1s-.2-2.2-1.1-3c-.9-.8-2.3-1-3.4-1-.6 0-1.1 0-1.7.1v7.9zm-3.1 1.6c-.3-.6-.7-1.1-1.4-1.3h-.1v-.5h.1c.6-.3 1.1-.7 1.4-1.3v-6c0-.1-.1-.2-.2-.3l-1.9-.5v-.9h.2c1.2 0 2.4.1 3.5.1.7 0 1.5 0 2.2-.1h2c1.7 0 3.7.2 5.1 1.2 1.3.9 1.8 2.2 1.8 3.7 0 1.8-.6 3.3-2 4.5-1.6 1.2-3.7 1.6-5.6 1.6-.6 0-1.3 0-1.9-.1v6c0 .1.1.2.2.2l2.1.6v.9h-7.6l-.1-.9 1.9-.5c.1 0 .2-.1.2-.2v-6.2h.1zm-42.6-2.9h1.6c1 0 2.2-.2 3-.9.7-.6 1-1.6 1-2.5 0-.9-.2-1.9-1-2.5-.8-.6-2-.8-3-.8h-.8c-.3 0-.5 0-.8.1v6.6zm0 1.4v7.5c.3.1.5.1.8.1h1c1.2 0 2.5-.2 3.4-1 .9-.7 1.2-1.8 1.2-2.9 0-1.1-.3-2.1-1.2-2.8-1-.8-2.6-.9-3.9-.9h-1.3zm-3.1 1.5c-.3-.6-.7-1.1-1.4-1.3h-.1v-.5h.1c.6-.3 1.1-.7 1.4-1.3v-6c0-.1-.1-.2-.2-.3l-1.9-.5v-.9h.2c1.2 0 2.4.1 3.5.1.7 0 1.4-.1 2.1-.1.7 0 1.3-.1 2-.1 1.6 0 3.4.2 4.7 1.1 1.1.8 1.6 1.8 1.6 3.2 0 2.2-1.3 3.5-3.2 4.3 1 .2 2 .7 2.8 1.4.9.8 1.3 1.9 1.3 3.1 0 1.7-.7 3.2-2.1 4.1-1.7 1.1-3.8 1.4-5.8 1.4h-7.2l-.1-.9 1.9-.5c.1 0 .2-.1.2-.2v-6.1h.2zm21.3-.2c.3-.6.7-1 1.3-1.2h.1v-.5h-.1c-.6-.3-1.1-.7-1.4-1.3.1-1.7.5-3.5 1.6-4.8 1.3-1.5 3.2-2 5.1-2 2 0 4.1.5 5.4 2.1 1.1 1.3 1.5 3 1.7 4.6-.3.6-.8 1-1.4 1.3h-.1v.5h.1c.7.2 1.1.7 1.4 1.3-.1 1.7-.6 3.4-1.6 4.6-1.3 1.5-3.2 2-5.1 2-2.1 0-4-.5-5.3-2.2-1-1.1-1.5-2.7-1.7-4.4zm-3.5.1c-.3-.6-.8-1.1-1.5-1.3h-.1v-.5h.1c.6-.3 1.1-.7 1.4-1.3l.2-.4c.3-1.9 1.2-3.7 2.7-5.1 2.2-2 5-2.6 7.9-2.6 2.7 0 5.4.6 7.5 2.5 1.6 1.5 2.4 3.5 2.6 5.7.3.6.8 1 1.4 1.3h.1v.5h-.1c-.7.2-1.2.7-1.5 1.4-.3 2-1.2 3.7-2.7 5.2-2.1 2.1-5 2.8-7.9 2.8-2.7 0-5.5-.6-7.5-2.6-1.6-1.6-2.4-3.5-2.6-5.6zm-30.5.1c-.3-.6-.7-1.1-1.4-1.3h-.1v-.5h.1c.6-.3 1.1-.7 1.4-1.3v-6.2h-4.2c-.1 1.3-.2 2.5-.4 3.8-.2 1.4-.4 2.7-.8 4-.3 1.3-.8 2.7-1.4 3.9-.5 1.2-1.2 2.4-1.9 3.5h8.7v-5.9zm3.2 1v-1c.3-.6.7-1.1 1.4-1.3h.1v-.5h-.1c-.6-.3-1.1-.7-1.4-1.3v-6.1c0-.1.1-.2.2-.2l1.9-.5-.1-.9h-.2c-1.2 0-2.3.1-3.5.1h-6.9c-1.1 0-2.1 0-3.2-.1h-.2v.9l2.3.6c.1 0 .3.1.3.2 0 .7-.1 1.5-.1 2.2-.1.9-.3 1.8-.4 2.7-.2 1-.4 1.9-.7 2.9-.3 1-.6 1.9-1 2.8-.4.9-.8 1.7-1.3 2.6-.4.7-.9 1.3-1.4 1.9h-2.3l-.2.2.8 6.9 1.1-.1 1.2-5.4h13.5l1.2 5.5 1.1-.1.8-6.8-.2-.2h-2.6c-.1 0-.1-.2-.1-.2v-4.8zm-22.6-1c-.3-.6-.7-1.1-1.4-1.3h-.1v-.5h.1c.6-.3 1.1-.7 1.4-1.3-.2-1.7-.6-3.3-1.7-4.6-1.3-1.6-3.4-2.1-5.4-2.1-1.9 0-3.9.4-5.1 2-1.1 1.3-1.5 3.1-1.6 4.9.3.5.8 1 1.4 1.2h.1v.5h-.1c-.6.2-1 .6-1.3 1.1.2 1.7.7 3.3 1.7 4.6 1.3 1.6 3.3 2.2 5.3 2.2 1.9 0 3.8-.4 5.1-2 1.1-1.3 1.5-3.1 1.6-4.7zm3.4 0c.3-.6.8-1.1 1.5-1.4h.1v-.5h-.1c-.6-.3-1.1-.7-1.4-1.3-.2-2.2-1-4.1-2.6-5.7-2-1.9-4.8-2.5-7.5-2.5-2.9 0-5.7.6-7.9 2.6-1.5 1.4-2.3 3.1-2.7 5l-.2.5c-.3.6-.8 1-1.4 1.3h-.1v.5h.1c.7.2 1.2.7 1.5 1.4.2 2 1 3.9 2.6 5.4 2 1.9 4.7 2.6 7.5 2.6 2.9 0 5.8-.7 7.9-2.8 1.6-1.4 2.4-3.1 2.7-5.1zm-27.7-.2c.3-.6.6-1 1.2-1.2h.1v-.4h-.1c-.5-.2-1-.6-1.3-1.1v-6.2c0-.1.1-.2.2-.3l1.9-.6-.1-.9h-.2c-1.2 0-2.3.1-3.5.1H175c-1.2 0-2.3 0-3.5-.1h-.2v.9l1.9.5c.1 0 .2.1.2.3v6.2c-.3.5-.7.9-1.2 1.1h-.1v.4h.1c.6.2 1 .6 1.2 1.1v6.2c0 .1-.1.2-.2.2l-1.9.5.1.9h7.3l-.1-.9-1.7-.5c-.1 0-.2-.1-.2-.3v-6.1c.3-.6.6-1 1.2-1.2h.1v-.4h-.1c-.5-.2-1-.6-1.3-1.1v-6.3h9.3v6.3c-.3.5-.7.9-1.2 1.1h-.1v.4h.1c.6.2 1 .6 1.2 1.2v6.1c0 .1-.1.2-.2.3l-1.8.5.1.9h7.3v-.9l-1.8-.5c-.1 0-.2-.1-.2-.2v-6h.1zm149.8-9.1H333v6.7h4.4c.1 0 .3 0 .3-.2l.5-1.9h1.1v5.7l-1.1.1-.6-1.9c0-.1-.1-.2-.3-.2H333v7.1h6.5l1.7-3.3 1-.2-.3 4.8-.2.2h-14l-.1-.9 1.9-.5c.1 0 .2-.1.2-.2v-6.1c-.3-.5-.6-.9-1.2-1.1h-.1v-.4h.1c.5-.2.9-.6 1.2-1.1v-6.4c0-.1-.1-.2-.2-.3l-1.9-.5v-.9h.2c1.2 0 2.3.1 3.5.1h3.4c2.2 0 4.5 0 6.7-.1h.1l.2.3-.9 4.2-.9.1-.7-3.1zm-300 5.7c-.1.5.4 1.1.8 1.3h.1v.4H40c-.6.1-1.6.2-1.9.9-.5.9-.9 1.9-1.3 2.9-.5 1.1-1.1 2.2-1.7 3.3-.2.4-.4.8-.6 1.1-.2.3-.4.5-.6.7-.3.2-.6.3-.9.4-.4.1-.9.1-1.3.1-.8 0-1.6-.1-2.4-.2h-.1l-.1-.8.9-.2c.5-.1 1-.2 1.5-.5.4-.2.8-.5 1.1-.8.4-.3.7-.7.9-1.2.3-.5.6-.9.9-1.4l-1.8-3.3-.1-.2c-.4-.7-1.4-.8-2.1-1h-.1v-.4h.1c.4-.2.7-.6.8-1l-2.7-4.9-.3-.6c-.1-.2-.2-.3-.3-.4-.1-.1-.2-.2-.4-.3-.1-.1-.3-.2-.5-.2l-1.3-.4v-.8h.1c1.1 0 2.1.1 3.2.1 1.2 0 2.5 0 3.7-.1h.1l.1.8-1.3.4c-.2.1-.5.2-.5.4s.1.5.2.7c.2.3.4.6.5 1l4.1 7.5c.6-1.2 1.1-2.4 1.6-3.6.5-1.2 1-2.5 1.4-3.7.2-.4.3-.8.5-1.3.1-.2.1-.4.1-.6 0-.1 0-.2-.1-.2-.1-.1-.2-.1-.3-.1l-1.4-.3v-.8h.1c1 0 1.9.1 2.9.1.9 0 1.9 0 2.8-.1h.1l.1.8-1.4.4c-.2 0-.3.1-.5.2l-.3.3c-.1.1-.2.3-.3.4-.1.2-.2.4-.2.6-.4 1.2-.9 2.3-1.4 3.5-.1.3-.3.7-.4 1.1zm41.3-6c-1-.2-2-.4-3-.4-2 0-3.9.6-5.2 2.2-1.2 1.3-1.7 3-1.9 4.7.3.5.7.9 1.2 1.1h.1v.4h-.1c-.5.2-.9.5-1.1 1 .2 1.7.9 3.1 2.1 4.3 1.6 1.7 3.8 2.2 6 2.2 1.6 0 3.1-.3 4.6-.8h.1l.2.8-.1.1c-1.9 1.2-4 1.8-6.2 1.8-2.7 0-5.3-.7-7.3-2.6-1.6-1.5-2.5-3.5-2.7-5.7-.3-.5-.6-.9-1.2-1.1h-.1v-.3h.1c.5-.2 1-.6 1.2-1.1.3-2.3 1.2-4.1 3-5.6 2.2-1.9 5-2.6 8-2.6 1.6 0 3.2.2 4.8.5l.2.2-.9 4.4-.8.1-1-3.6zm11.9 8.6v6.8c0 .2.1.3.3.4l1.6.5.1.8h-6.8l-.1-.8 1.8-.5c.1 0 .3-.1.3-.3v-6.2c-.3-.6-.6-.9-1.2-1.2h-.1v-.4h.1c.5-.2.9-.6 1.2-1.1v-6.3c0-.2-.1-.3-.2-.3l-1.8-.5v-.8h6.7l.1.8-1.7.5c-.2 0-.3.1-.3.3v7h2.4c.3 0 .6-.1.9-.2.3-.1.5-.2.7-.4.2-.2.4-.5.6-.7.2-.4.4-.8.5-1.2.2-.5.4-1.1.5-1.7.2-.6.3-1.2.5-1.8.1-.4.2-.8.4-1.2.1-.3.3-.5.4-.8.2-.2.3-.3.6-.4.2-.1.5-.1.7-.2h1c.8 0 1.7 0 2.5.1h.1l.1 1.1h-.1c-.5 0-1.1.1-1.5.3-.4.1-.8.4-1.1.7-.3.3-.6.7-.8 1.1-.3.5-.5 1-.7 1.5l-.6 1.2c-.2.4-.4.8-.6 1.1-.2.4-.5.7-.8 1-.2.3-.5.5-.8.7.6.8 1.2 1.7 1.7 2.6l1.5 2.4 1.2 1.8c.3.4.6.9 1 1.2.1.1.3.3.5.4.1.1.3.2.5.3.2.1.3.1.5.2s.4.1.6.2h.1l.1.8h-.1c-.5.1-1.1.1-1.6.1h-1c-.3 0-.5 0-.8-.1-.2 0-.4-.1-.6-.2-.2-.1-.4-.2-.5-.3-.5-.4-.9-.8-1.2-1.3-.5-.6-.9-1.3-1.3-2-.4-.6-.7-1.2-1.1-1.9-.4-.6-.8-1.3-1.2-1.9-.1-.2-.2-.3-.3-.5l-.3-.3c-.1-.1-.2-.1-.3-.1h-2.3v-.3zm32.6 1c-.3-.6-.7-1.1-1.4-1.3h-.1v-.5h.1c.6-.3 1.1-.7 1.4-1.3-.2-1.7-.6-3.3-1.7-4.6-1.3-1.6-3.4-2.1-5.4-2.1-1.9 0-3.9.4-5.1 2-1.1 1.3-1.5 3.1-1.6 4.9.3.5.8 1 1.4 1.2h.1v.5h-.1c-.6.2-1 .6-1.3 1.1.2 1.7.7 3.3 1.7 4.6 1.3 1.6 3.3 2.2 5.3 2.2 1.9 0 3.8-.4 5.1-2 1.1-1.3 1.5-3.1 1.6-4.7zm3.4 0c.3-.6.8-1.1 1.5-1.4h.1v-.5h-.1c-.6-.3-1.1-.7-1.4-1.3-.2-2.2-1-4.1-2.6-5.7-2-1.9-4.8-2.5-7.5-2.5-2.9 0-5.7.6-7.9 2.6-1.5 1.4-2.3 3.1-2.7 5l-.2.5c-.3.6-.8 1-1.4 1.3h-.1v.5h.1c.7.2 1.2.7 1.5 1.4.2 2 1 3.9 2.6 5.4 2 1.9 4.7 2.6 7.5 2.6 2.9 0 5.8-.7 7.9-2.8 1.5-1.4 2.4-3.1 2.7-5.1zm-68.8-9.6c-1-.2-2-.4-3-.4-2 0-3.9.6-5.2 2.2-1.2 1.3-1.7 3-1.9 4.7.3.5.7.9 1.2 1.1h.1v.4h-.1c-.5.2-.9.5-1.1 1 .2 1.7.9 3.1 2.1 4.3 1.6 1.7 3.8 2.2 6 2.2 1.6 0 3.1-.3 4.6-.8h.1l.2.8-.1.1c-1.9 1.2-4 1.8-6.2 1.8-2.7 0-5.3-.7-7.3-2.6-1.6-1.5-2.5-3.5-2.7-5.7-.3-.5-.6-.9-1.2-1.1H45v-.3h.1c.5-.2 1-.6 1.2-1.1.3-2.3 1.2-4.1 3-5.6 2.2-1.9 5-2.6 8-2.6 1.6 0 3.2.2 4.8.5l.2.2-.9 4.4-.8.1-1-3.6zm-46 8.1c.6.1 1.2.1 1.8.1 1.2 0 2.4-.2 3.3-1 .9-.8 1.1-2 1.1-3.1s-.2-2.2-1.1-3c-.9-.8-2.3-1-3.4-1-.6 0-1.1 0-1.7.1v7.9zm-3.2 1.5c-.3-.6-.7-1.1-1.4-1.3h-.1v-.5H9c.6-.3 1.1-.7 1.4-1.3v-6c0-.1-.1-.2-.2-.3l-1.9-.5v-.9h.2c1.2 0 2.4.1 3.5.1.7 0 1.5 0 2.2-.1h2c1.7 0 3.7.2 5.1 1.2 1.3.9 1.8 2.2 1.8 3.7 0 1.8-.6 3.3-2 4.5-1.6 1.2-3.7 1.6-5.6 1.6-.6 0-1.3 0-1.9-.1v6c0 .1.1.2.2.2l2.1.6v.9H8.3l-.1-.9 1.9-.5c.1 0 .2-.1.2-.2v-6.2h.1zm134.5-9.3h-6.2v6.7h4.4c.1 0 .3 0 .3-.2l.5-1.9h1.1v5.7l-1.1.1-.6-1.9c0-.1-.1-.2-.3-.2h-4.4v7.1h6.5l1.7-3.3 1-.2-.3 4.8-.2.2h-14l-.1-.9 1.9-.5c.1 0 .2-.1.2-.2v-6.1c-.3-.5-.6-.9-1.2-1.1h-.1v-.4h.1c.5-.2.9-.6 1.2-1.1v-6.4c0-.1-.1-.2-.2-.3l-1.9-.5v-.9h.2c1.2 0 2.3.1 3.5.1h3.4c2.2 0 4.5 0 6.7-.1h.1l.2.3-.9 4.2-.9.1-.6-3.1z"/><path class="st1" d="M338.1 43.7c-1.8-10.6-6.8-20.1-14.1-27.3-9.1-9.1-21.7-14.8-35.7-14.8-13.9 0-26.5 5.6-35.7 14.8a50.9 50.9 0 00-13 22.2 50.9 50.9 0 00-13-22.2c-9-9.2-21.6-14.8-35.5-14.8s-26.5 5.6-35.7 14.8a50.9 50.9 0 00-13 22.2 50.9 50.9 0 00-13-22.2c-9.1-9.1-21.7-14.8-35.7-14.8-10.2 0-19.7 3-27.7 8.3-3.2-2-6.5-4.1-7.3-4.5-1.8-1.1-3.5-2.3-5.3-3.5-.6-.7-1.4-1.4-2.3-1.9-.8 1.2-.3 2.7.2 3.9.6 1.2 1.6 2 2.4 2.6-.6.3-.8.8-.8 1.7.2 1.4.6 2.3 1.8 3.2.3.3 1.2.9 1.6 1-.2 1.4-.5 2.2.4 3.4.3.4.7.7 1.1.9-.8.8-1.6 1.7-2.4 2.6-.5-.2-1-.4-1.5-.7-5-2.1-10-4.3-15-6.6-.6-.3-2.3-1.4-2.8-1.4-.8 1.2-.2 2.9.6 4 .3.5 1 1.1 1.4 1.4.2.1 1.4.9 1.5 1.2.3.7-1.4 4.7 4.6 6.2-.1 1.5.2 2.6 1.1 3.5 1.1 1.2 1.5.9 3.2 1.7v1.2c-2.1 4.3-3.6 8.9-4.4 13.8l-7.5 7.5-1 1 8.4 8.4c1.8 10.6 6.8 20 14.1 27.2 9.1 9.1 21.7 14.8 35.7 14.8 13.9 0 26.5-5.6 35.7-14.8a50.9 50.9 0 0013-22.2 50.9 50.9 0 0013 22.2c9.1 9.1 21.7 14.8 35.7 14.8s26.5-5.6 35.7-14.8a50.9 50.9 0 0013-22.2 50.9 50.9 0 0013 22.2c9.1 9.1 21.7 14.8 35.7 14.8s26.5-5.6 35.7-14.8c7.3-7.3 12.3-16.7 14.1-27.3l8.3-8.3-8.6-8.4zM39.4 52l6.4-6.4 6.4 6.4-6.4 6.4-6.4-6.4zm8.3 8.3l8.2-8.2-8.2-8.2c.7-3.9 1.8-7.5 3.3-10.9l.6.3c.6.3 1.4.5 2.1.7.2 1.6.7 2.1 1.7 2.9.3.3.8.7 1.5.9.3.1.7.1 1 .2l.8.1c.4.1.6 1 .9 1.4.3.5.6.8 1 1.2 1.2.9 1.4.9 3.4 1 .2.1.8 1.3 2.5 1.9 1.4.5 2.2.7 4 .7.3.3.3.7.8 1 1.9 1.6 5.7 1.3 8.1.7 1-.3 2.1-.6 3-.8 1.2 1.2 1 2.6 4.9 3 .3.7.4 1 1.3 1.2.8.3 1.5.1 2.3 0-.1.7-.2 1.3.5 1.6.6.3 1.1.3 2 .2.2.8-.2 1.3.7 1.7.8.4 1.3.3 2.2.1 0 1.2.9 1 2.1 1.2-.2.2-.4.4-.5.6-1.8 2-3.9 4.3-5.9 6-.4.3-.8.7-1.2 1-9.4 6.2-26.3 9-39.3 10.2-1.8-3.6-3-7.6-3.8-11.7zm50.6 24.9c-11.6 1.7-21.9 4.4-27.2 7.8-3.8-2.1-7.4-4.8-10.4-7.9-2.4-2.4-4.6-5.1-6.5-8.1.6.3 1.1.4 1.3.5 1.4.3 2.1-.1 3.1-.5.6.9.9.7 1.3 1.2-.7.5-1.7.9-2.2 1.5-.2.7 1.9 2.9 6 1.8 1-.3 4.3-.5 4.9-.8 1 .5 2.4.7 3.6.5 1.4-.3 2.1-.7 2.9-1.3.4.4.5.5 1.7.5 3.7-.1 14.1-7.8 15.4-8.2 0 1.2-.2 1.8 1.1 2.4.4.2.4.1.6.5.4.8.8.5 1.1 1.3.3.7 3.2 4.4 3.9 5.5l.6 1.2c.1.6-1.2 1.2-1.2 2.1zm2.9-4c-.2-.3-2-4.1-2.2-4.7-.1-.4-.2-.8.2-1 .5-.3 1.1-.6 1.5-1.3.4.1 1-.1 1.3 0 .3.1.4.2 1 .3.2.8.2.9.6 1.6.8 1.1 2.2 3.5 1.4 4.7-.9.1-1.7-1.2-2.2-.3-1.1-.3-1.1.3-1.6.7zm4.7 3c-.6-.2-1-.6-1.5-.9-.5-.2-1-.1-1.5-.2-.3-.1-1-.5-1-.6-.3-.3-.2-.9.2-1.1.7 0 .7.6 1.4.7.3.1 1.4-.1 1.8-.2.4 0 1.4 1 2.6 2.1-.8.1-1.4.1-2 .2zm23-1.2c-5.3 0-11.1.2-16.9.7-.3-.2-.6-.4-1-.6-1.4-.2-1.2-2.8-3-3-.6-.1-.6-.5-.8-1.2-.2-.5-.2-1-.4-1.6-.3-.9-.8-1.9-1-2.8.8-.4 1.4-.7 2.1-1.1 4.3-2.9 3.9-5.1 4.6-6 1.1-1.2 3.7-3.4 4.5-4.7.2-.3.2-.6.6-.9 1.2-.8 2.5-1.7 3.7-2.6 1.8-1.4 4.5-5.1 5.2-6.8.6-1.4 1-2.9 1.4-4.4.5-1.7.7-3.2.7-5.1 0-1.6-.2-3.7-.6-5.1-.2-.7-.6-1.4-.9-2.1-.8-2-1.9-4-3.2-5.7-.8-1.1-1.5-2.6-2.4-3.7-.3-.5-1.7-2.2-2.5-2.3-1.6 0-5.6-.1-7.4-.1-.6 0-1.5 1.1-1.6 1.1-1.6.3-3.3.5-3.3 2.8.5-.2.2-.4 1.1-.5.5-.1 1 0 1.4.1.6.3.6.5.8.7.2.1 1.3.5 1.9 1.2.2.2.4.5.5.9.3 1.1.5.9 1.1 1.8.9 1.4 1.2 3 .5 4.6-.4 1-1.9 2.4-2.9 3-1.4.8-3.5 1-5.3.5-1.6-.5-2.6-1.4-2.9-3-.8-3.5 2.5-6.1 1-9.2-.4-.7-.8-1-1.7-1.4-1.8-.5-4.9-2-6.5-2.7-5.1-2.3-13-6.6-17.8-9.6-.8-.5-5.1-3.4-5.6-3.5-.6.7 0 2 .3 2.6-.2-.1-1.4-.8-2.9-1.7 7.1-4.3 15.4-6.8 24.2-6.8 12.9 0 24.6 5.2 33.1 13.7 6.7 6.7 11.4 15.4 13 25.2l-6.9 6.9-1 1 7.9 7.9c-1.5 9.2-5.4 17.1-11.1 23.5zm-15.3-57c0 .4-.4.7-.8.7-.5 0-.8-.3-.8-.7 0-.2.1-.3.2-.4h-.3c-.2 0-.2-.1-.2-.2.3-.3 1.5-.2 1.9-.1.5.2.8.4.7.5-.1.1-.4-.1-.7-.2v.4zm28.6 32.4l-6.4-6.4 6.4-6.4 6.4 6.4-6.4 6.4zm82 26.7c-8.5 8.5-20.2 13.7-33.1 13.7-12.9 0-24.6-5.2-33.1-13.7-6.8-6.8-11.5-15.7-13.1-25.6l7.5-7.5-7.5-7.5c1.6-9.9 6.3-18.8 13.1-25.6 8.5-8.5 20.2-13.7 33.1-13.7 12.9 0 24.6 5.2 33.1 13.7 6.7 6.7 11.4 15.6 13.1 25.4l-6.8 6.8-1 1 7.7 7.7c-1.6 9.8-6.3 18.6-13 25.3zm15.5-26.7l-6.4-6.4 6.4-6.4L246 52l-6.3 6.4zm17.2 11h-.9v-6.5h.9v6.5zm69.2-19.5l-2.3 2.3V57H322v-2l.6-.5L319 52v-4.8h-.6l-3.8-19V25h-.3v-.3s.4-.1.5-.6c.1-.5-.1-1-.7-1.3-.7-.4-.9-.6-1.1-1.3-.2.7-.5.9-1.1 1.3-.6.4-.8.8-.7 1.3.1.5.5.6.5.6v.3h-.2v3.2l-3.8 19h-.6V52l-3.6 2.5.6.5v6.2l-6.5 1.6.6.7v8.8h-1v-3h-9.5c-.1-1.1-.5-2.4-.9-3.3v-3.2h2.6l-2.2-1.9v-.5c0-1.8-1.4-3.3-3.1-3.3h-.2v-6.4h-.3v-.3c1.3-.4 1.7-2.5.7-3.7-.6-.7-1.8-1.3-2.5-1.9-.8-.7-1.3-1.7-1.4-2.6-.1.9-.6 1.9-1.4 2.6-.4.3-.9.6-1.4 1v-1.6h.9v-.9h-.5c-.1-.5-.4-1.3-1-1.8.2-.1.8-.3 1.3-.8.6-.7.9-1 1.1-2.1.5-3.1-2-4.1-3.7-5.6-1.1-.9-2.2-2.4-3.1-5.2-.2-.8-.5-1.5-.7-2.3-.2.8-.4 1.5-.7 2.3-.9 2.8-2 4.2-3.1 5.2-1.7 1.5-4.2 2.5-3.7 5.6.2 1.1.5 1.5 1.1 2.1.5.5 1.1.7 1.3.8-.5.5-.9 1.3-1 1.8h-.8v.9h.9v1.6c-.5-.4-1.1-.7-1.5-1-.8-.7-1.3-1.7-1.4-2.6-.1.9-.6 1.9-1.4 2.6-.7.6-1.9 1.2-2.5 1.9-1 1.2-.6 3.2.7 3.7v.3h-.3v6.4c-1.7.1-3.1 1.5-3.1 3.3v.5l-.5.4v-4.7h1.8v-1.2h-1.1v-.2c0-2.7-2.7-4.8-5.8-4.9h-2.1V48H246l-3.9-3.9c1.6-9.8 6.3-18.6 13.1-25.4C263.7 10.2 275.4 5 288.3 5c12.9 0 24.6 5.2 33.1 13.7 6.6 6.6 11.3 15.2 13 24.8l-7.2 7.2-1.1-.8zm10.2 8.5l-6.4-6.4 6.4-6.4 6.4 6.4-6.4 6.4z"/><path class="st1" d="M121.4 17.3c-.9-.5-1.6-.2-2 .7 0 .3-.1.5-.1.8-.1.2-.2.3-.4.1-.4-.1-.3-.6-.5-.8-.4-.6-1.7-.6-1.7.6 0 .4-.1.6-.3.7-.4.2-.3.9.2 1.2 1.3.9-.3 1.8-1.3 1.1-.4-.6-.5-2.4 1.4-4.7.1-.1.2-.4-.1-.4h-.6c-.2 0-.3-.1-.2-.3.3-.6-.1-1.1-.7-1.3-.2-.1-.5-.1-.7 0-.5.2-.9.7-.6 1.3.1.2-.1.3-.2.3h-.6c-.3 0-.2.3-.1.4 1.8 2.2 1.7 4 1.4 4.7-1 .7-2.6-.2-1.3-1.1.5-.3.6-1 .2-1.2-.2-.1-.3-.3-.3-.7 0-1.2-1.3-1.2-1.7-.6-.2.2-.1.6-.5.8-.2.1-.4.1-.4-.1 0-.3-.1-.5-.1-.8-.4-.8-1.1-1.1-2-.7-.4.1-.4.5.1 1 1 1 1 1.7 1.4 2.8.7 1.8 2.9 2.5 4.7 1.7 0 0 .1 0 .1-.1.3-.3.6-.2.9 0 .1 0 .1.1.2.1 1.8.8 4.1.2 4.8-1.6.4-1.1.4-1.8 1.4-2.8 0-.6 0-.9-.4-1.1z"/></svg>