<svg version="1.1" id="Layer_1" xmlns="http://www.w3.org/2000/svg" x="0" y="0" viewBox="0 0 145 102" xml:space="preserve"><style>.st0{fill:#012e23}</style><path class="st0" d="M144.9 84.4c.1 0 .1 0 0 0v-.7c-.1-.5-.2-1-.5-1.5s-.7-1-1.3-1.3c-.5-.3-1.2-.5-1.8-.5-.8 0-1.5.2-2.1.5-.6.4-1.1.9-1.5 1.5-.4.6-.6 1.4-.6 2.3 0 .9.2 1.6.6 2.3.4.7.9 1.2 1.5 1.5.6.4 1.4.5 2.2.5.9 0 1.6-.2 2.3-.7.6-.4.9-1 1.1-1.7 0-.1.1-.4.1-.5 0 0 0-.1-.1-.1h-.8s-.1 0-.1.1-.1.4-.1.4c-.1.4-.4.8-.8 1.1-.5.4-1 .5-1.7.5s-1.1-.2-1.5-.7c-.4-.5-.5-1.2-.5-2v-1.1s0-.1.1-.1h5.5zm-2.2-.9h-3.1s-.1 0-.1-.1c.1-.6.3-1 .5-1.4.3-.4.8-.6 1.3-.6s.8.2 1 .5c.3.4.4.9.4 1.6.1-.1 0 0 0 0zM34.9 86.6c-.1.5-.4.8-.8 1.2-.5.3-1 .5-1.6.5-.6 0-1.1-.2-1.4-.7-.3-.5-.5-1.2-.5-2v-1.5c0-.9.2-1.5.5-2 .3-.4.8-.7 1.4-.7.4 0 .8.1 1 .3.2.2.3.4.3.7 0 .1 0 .2-.1.3l-.1.1s-.1.1-.2.1v.3c0 .3.1.6.4.8.2.2.5.4.9.4s.7-.1.9-.4c.2-.2.3-.6.3-1 0-.5-.2-1-.5-1.4-.3-.4-.7-.7-1.2-.9-.5-.2-1.1-.3-1.7-.3-.7 0-1.4.2-2 .5-.6.3-1.2.8-1.6 1.5-.4.7-.6 1.4-.6 2.3 0 .8.2 1.6.6 2.3.4.7.9 1.2 1.5 1.5.6.4 1.3.5 2.1.5.9 0 1.6-.2 2.2-.7.6-.4.9-1 1.1-1.7 0-.1.1-.3.1-.5 0 0 0-.1-.1-.1H35s-.1 0-.1.1v.5zM8.5 77.5c-.8-.7-2-1-3.5-1H.1s-.1 0-.1.1v.7s0 .1.1.1l1.2.2c.1 0 .1.1.1.1V88c0 .1 0 .1-.1.1l-1.2.2c-.1-.1-.1 0-.1 0v.7s0 .1.1.1H5v-.8c0-.1 0-.1-.1-.1L3.7 88c-.1 0-.1-.1-.1-.1v-3.4s0-.1.1-.1H5c1.6 0 2.7-.3 3.5-1 .8-.7 1.2-1.7 1.2-3s-.4-2.2-1.2-2.9zm-4.9 0c0-.1.1-.1 0 0l1.2-.1c1.7 0 2.5.9 2.5 2.7v.6c0 1.9-.8 2.7-2.5 2.7H3.7s-.1 0-.1-.1v-5.8zm12.7 4l1.1.3L16 86h-.1l-2-4.3v-.1l.8-.1c.1 0 .1-.1.1-.1v-.7s0-.1-.1-.1h-4.2s-.1 0-.1.1v.7c0 .1 0 .1.1.1l.9.1s.1 0 .1.1l3.3 7.1v.1l-.8 2.4c-.2.4-.3.6-.4.7-.1.1-.3.2-.4.2-.1 0-.2 0-.3-.1-.1-.1-.1-.2-.1-.3 0-.2.1-.3.2-.5l.1-.1v-.3c-.1-.2-.3-.4-.5-.5-.2-.1-.4-.2-.6-.2-.3 0-.6.1-.9.4-.2.2-.3.6-.3.9 0 .5.2 1 .6 1.3.4.3.9.5 1.4.5.6 0 1.1-.2 1.5-.5.3-.3.6-.8.8-1.4l3.3-9.6s0-.1.1-.1l.9-.3.1-.1v-.6s0-.1-.1-.1h-3.1s-.1 0-.1.1v.7c0 .1 0 .1.1.1zm9.8 5.1c-.1.5-.4.8-.8 1.2-.5.3-1 .5-1.6.5-.6 0-1.1-.2-1.4-.7-.3-.5-.5-1.2-.5-2v-1.5c0-.9.2-1.5.5-2 .3-.4.8-.7 1.4-.7.4 0 .8.1 1 .3.2.2.3.4.3.7 0 .1 0 .2-.1.3l-.1.1s-.1.1-.2.1v.3c0 .3.1.6.4.8.2.2.5.4.9.4s.7-.1.9-.4c.2-.2.3-.6.3-1 0-.5-.2-1-.5-1.4-.3-.4-.7-.7-1.2-.9-.5-.2-1.1-.3-1.7-.3-.7 0-1.4.2-2 .5-.6.3-1.2.8-1.6 1.5-.4.7-.6 1.4-.6 2.3 0 .8.2 1.6.6 2.3.4.7.9 1.2 1.5 1.5.6.4 1.3.5 2.1.5.9 0 1.6-.2 2.2-.7.6-.4.9-1 1.1-1.7 0-.1.1-.3.1-.5 0 0 0-.1-.1-.1h-.8s-.1 0-.1.1c.1.3.1.5 0 .5zM44.6 88c-.1-.1-.2-.2-.3-.6l-.3-1.3c-.1-.6-.4-1.1-.7-1.4-.3-.2-.6-.4-1.1-.5v-.1c.1-.2.2-.4.2-.7l.3-1.1c.1-.2.1-.2.2-.2h.1v.1s-.1.3-.1.4v.1l.2.1c.2.1.3.1.5.1.4 0 .7-.1 1-.4.2-.2.3-.5.3-.9 0-.2-.1-.4-.2-.6-.3-.4-.7-.7-1.3-.7-.5 0-.9.2-1.2.5-.2.3-.4.7-.5 1.2l-.3 1.1c-.1.4-.2.6-.3.7-.1.1-.2.2-.4.2h-1s-.1 0-.1-.1v-2.3c0-.1 0-.1.1-.1l.9-.1c.1 0 .1-.1.1-.1v-.7s0-.1-.1-.1h-4.1s-.1 0-.1.1v.7c0 .1 0 .1.1.1l.9.1c.1 0 .1.1.1.1V88c0 .1 0 .1-.1.1l-.9.1c-.1 0-.1.1-.1.1v.7s0 .1.1.1h4.1s.1 0 .1-.1v-.7c0-.1 0-.1-.1-.1l-.9-.1c-.1 0-.1-.1-.1-.1v-2.8s0-.1.1-.1h1c.3 0 .5.1.7.2.2.1.3.4.4.8l.3 1.6c.1.5.3.9.5 1.1.3.2.7.4 1.2.4.3 0 .6-.1.9-.2.2-.1.7-.6.9-.7v-.1l-.5-.5H45c0 .1-.3.3-.4.3zm7.7-6.9c-.6-.4-1.3-.5-2.1-.5s-1.5.2-2.1.5c-.6.4-1.1.9-1.5 1.5-.4.7-.6 1.4-.6 2.3 0 .8.2 1.6.6 2.3.4.7.9 1.2 1.5 1.5.6.4 1.3.5 2.1.5s1.5-.2 2.1-.5c.6-.4 1.1-.9 1.5-1.5.4-.7.6-1.4.6-2.3 0-.8-.2-1.6-.6-2.3-.3-.6-.8-1.1-1.5-1.5zm-4.1 4.5v-1.5c0-.8.2-1.5.5-2s.8-.7 1.4-.7c.6 0 1.1.2 1.4.7.3.5.5 1.2.5 2v1.5c0 .8-.2 1.5-.5 2s-.8.7-1.4.7c-.6 0-1.1-.2-1.4-.7-.3-.5-.5-1.1-.5-2zm15.2-1.2v-.7c-.1-.5-.2-1-.5-1.5s-.7-1-1.3-1.3c-.5-.3-1.2-.5-1.8-.5-.8 0-1.5.2-2.1.5-.6.4-1.1.9-1.5 1.5-.4.6-.6 1.4-.6 2.3 0 .9.2 1.6.6 2.3.4.7.9 1.2 1.5 1.5.6.4 1.4.5 2.2.5.9 0 1.6-.2 2.3-.7.6-.4.9-1 1.1-1.7 0-.1.1-.4.1-.5 0 0 0-.1-.1-.1h-.8s-.1 0-.1.1-.1.4-.1.4c-.1.4-.4.8-.8 1.1-.5.4-1 .5-1.7.5s-1.1-.2-1.5-.7c-.4-.5-.5-1.2-.5-2v-1.1s0-.1.1-.1h5.5zm-2.3-.9H58s-.1 0-.1-.1c.1-.6.3-1 .5-1.4.3-.4.8-.6 1.3-.6s.8.2 1 .5c.3.4.4.9.4 1.6.1-.1 0 0 0 0zm7.8-6.2l1.2.2c.1 0 .1.1.1.1v10.3c0 .1 0 .1-.1.1l-1.2.2c-.1 0-.1.1-.1.1v.7s0 .1.1.1h4.9s.1 0 .1-.1v-.7c0-.1 0-.1-.1-.1l-1.3-.2c-.1 0-.1-.1-.1-.1V77.5s0-.1.1-.1h4.8s.1 0 .1.1v10.4c0 .1 0 .1-.1.1l-1.2.2c-.1 0-.1.1-.1.1v.7s0 .1.1.1H81s.1 0 .1-.1v-.7c0-.1 0-.1-.1-.1l-1.3-.2c-.1 0-.1-.1-.1-.1V77.6c0-.1 0-.1.1-.1l1.2-.2c.1 0 .1-.1.1-.1v-.7s0-.1-.1-.1H68.8s-.1 0-.1.1v.7c.1.1.1.1.2.1zm20.6 5.3c-.4-.7-.9-1.2-1.5-1.5-.6-.4-1.3-.5-2.1-.5s-1.5.2-2.1.5c-.6.4-1.1.9-1.5 1.5-.4.7-.6 1.4-.6 2.3 0 .8.2 1.6.6 2.3.4.7.9 1.2 1.5 1.5.6.4 1.3.5 2.1.5s1.5-.2 2.1-.5c.6-.4 1.1-.9 1.5-1.5.4-.7.6-1.4.6-2.3 0-.9-.2-1.6-.6-2.3zm-5.5 3v-1.5c0-.8.2-1.5.5-2s.8-.7 1.4-.7c.6 0 1.1.2 1.4.7.3.5.5 1.2.5 2v1.5c0 .8-.2 1.5-.5 2s-.8.7-1.4.7c-.6 0-1.1-.2-1.4-.7-.4-.5-.5-1.1-.5-2zM97.7 88v-6.3c0-.1 0-.1.1-.1l.9-.1c.1 0 .1-.1.1-.1v-.7s0-.1-.1-.1h-7.3s-.1 0-.1.1v.6s0 .1.1.1l1.2.6.1.1-.1 1.5c-.1 1-.1 1.8-.2 2.3-.1.5-.2.9-.3 1.2-.1.3-.3.6-.5.7-.2.1-.3.2-.5.2h-.7s-.1 0-.1.1l-.3 3.3s0 .1.1.1h.8s.1 0 .1-.1l1.2-2.4.1-.1h4.4s.1 0 .1.1l1.3 2.4.1.1h.8s.1 0 .1-.1l-.3-3.3s0-.1-.1-.1h-1c0 .1 0 .1 0 0zm-4.4-1.9c.1-.5.2-1.3.2-2.4l.1-2s0-.1.1-.1h1.8s.1 0 .1.1V88s0 .1-.1.1h-2.8c-.1 0-.1 0 0-.1.1-.2.2-.3.3-.6.1-.3.2-.7.3-1.3zm13-1.5s0-.1 0 0c.8-.5 1-1.2 1-1.8 0-.7-.3-1.3-.8-1.6-.5-.3-1.3-.5-2.4-.5h-4.3s-.1 0-.1.1v.7c0 .1 0 .1.1.1l.9.1c.1 0 .1.1.1.1V88c0 .1 0 .1-.1.1l-.9.1c-.1 0-.1.1-.1.1v.7s0 .1.1.1h4.8c1 0 1.7-.2 2.3-.6.6-.4.9-1 .9-1.8.1-.8-.2-1.7-1.5-2.1zm-1.2-1.7c0 .5-.1.8-.3 1-.2.2-.6.3-1 .3h-.8s-.1 0-.1-.1v-2.4s0-.1.1-.1h.7c.5 0 .9.1 1.1.3.2.2.3.5.3 1zm-2.2 2.3l1.3-.1c.5 0 .8.1 1.1.3.2.2.4.6.4 1.1v.1c0 .5-.1.8-.4 1.1-.2.2-.6.4-1.1.4H103s-.1 0-.1-.1v-2.8zm12.4-4.1c-.6-.4-1.3-.5-2.1-.5s-1.5.2-2.1.5c-.6.4-1.1.9-1.5 1.5-.4.7-.6 1.4-.6 2.3 0 .8.2 1.6.6 2.3.4.7.9 1.2 1.5 1.5.6.4 1.3.5 2.1.5s1.5-.2 2.1-.5c.6-.4 1.1-.9 1.5-1.5.4-.7.6-1.4.6-2.3 0-.8-.2-1.6-.6-2.3-.4-.6-.9-1.1-1.5-1.5zm-4.1 4.5v-1.5c0-.8.2-1.5.5-2s.8-.7 1.4-.7c.6 0 1.1.2 1.4.7.3.5.5 1.2.5 2v1.5c0 .8-.2 1.5-.5 2s-.8.7-1.4.7c-.6 0-1.1-.2-1.4-.7-.3-.5-.5-1.1-.5-2zm14.3-4.5c-.6-.4-1.3-.5-2-.5s-1.2.2-1.7.5c-.2.1-.3.3-.5.4 0 .1-.1 0-.1 0v-.6c0-.1-.1-.1-.1-.1h-2.9c-.1 0-.1.1-.1.1v.6c0 .1.1.1.1.2l.8.1c.1 0 .1.1.1.2v10.4c0 .1-.1.1-.1.2l-.8.1c-.1 0-.1.1-.1.2v.6c0 .1.1.1.1.1h4.3c.1 0 .1-.1.1-.1v-.6c0-.1-.1-.2-.1-.2l-1.1-.1c-.1 0-.1-.1-.1-.2v-3.7c0-.1.1-.2.2-.1s.2.2.4.3c.5.3 1 .5 1.7.5.8 0 1.4-.2 2-.5.6-.4 1-.9 1.4-1.5.3-.6.5-1.4.5-2.3 0-.9-.2-1.6-.5-2.3-.5-.8-1-1.3-1.5-1.7zm-4.3 2.9c0-.5.1-.9.3-1.3.2-.4.5-.8.9-1 .3-.2.6-.2.9-.2.8 0 1.8.3 1.8 2.6v1.5c0 2.3-1 2.6-1.8 2.6-.3 0-.6-.1-.9-.2-.4-.2-.7-.6-.9-1.1-.2-.4-.3-.8-.3-1.3V84zm14.1.6c-.6-.4-1.3-.6-2.3-.6h-1.7s-.1 0-.1-.1v-2.1c0-.1 0-.1.1-.1l.9-.1c.1 0 .1-.1.1-.1v-.7s0-.1-.1-.1h-4s-.1 0-.1.1v.7c0 .1 0 .1.1.1l.9.1c.1 0 .1.1.1.1V88c0 .1 0 .1-.1.1l-.9.1c-.1 0-.1.1-.1.1v.7s0 .1.1.1h4.8c1 0 1.8-.2 2.3-.6.6-.4.9-1.1.9-1.9 0-.9-.3-1.6-.9-2zm-4 .4s0-.1 0 0l1.3-.1c.5 0 .8.1 1.1.4.2.3.4.7.4 1.2s-.1.9-.4 1.2c-.2.3-.6.4-1.1.4h-1.2s-.1 0-.1-.1v-3zM62 36.1c-2.2.6-4.6 1.5-6.5 2.8-3.8 2.7-3.3 4.7-2.6 5.1.6.4 2.2.2 3.6-1.2 1-1 1.9-2.5 2.7-4.1.1-.2.9-1.3 2.9-2.4.8-.3.7-.5-.1-.2z"/><path class="st0" d="M113.8 24.2C111.4 12 100.3 4 88.6 1.5 81.8 0 74.7.1 67.8 1.5c-6.8 1.3-13.4 4-19.1 8-9.9 6.9-16.9 18.5-14.4 30.8C36.7 52.6 47.8 60.6 59.5 63c6.8 1.5 13.9 1.4 20.8 0 6.8-1.4 13.4-4.1 19.1-8.1 9.8-6.7 16.9-18.4 14.4-30.7zm-29.3 9.7l-3.6 8.4c-.7 1.6-2.9 7-8.5 9.5-.3.1-.6.2-.9.4-.1 0-.2 0-.1-.1l.2-.5c0-.1.1-.1.1-.2.7-.6 1.6-1.9 2.1-2.9.6-1.3 2.3-5.6 2.3-5.6l2.8-6.7c.2-.5.6-.9 1-1.1.7-.4 2.1-.9 4.4-1.3.1-.2.2-.1.2.1zm13.8-6.1c-3.3 1.2-6.9 2.3-10.8 3.3-.7.2-1.4.3-2.1.5-1.7.4-3.4.8-5.2 1.1-.4.1-.9.2-1.3.3-.4.1-.8.2-1.2.2-.3.1-.7.1-1 .2-.4.1-1.1.2-1.6.3-.3.1-.3.2 0 .2s.6.1 1 .2c.1 0 .2.1.1.2-1.7 3.8-3.3 7.7-5 11.5-.7 1.6-3 6.8-8.7 9.3-1.4.6-2.8 1-3.9 1.1-.1 0-.1-.1-.1-.1l.2-.5s0-.1.1-.1c.5-.2 1.2-.6 1.8-1.1 3.1-2.8 3.8-5.5 6.3-11.6 1.5-3.6 2.9-7 3.4-8.4 0 0-2.2.3-3.2.5-.2 0-.5.1-.8.1-.1.2-.4.8-.5.9-1.5 3.1-3.7 7.3-7.2 9.6-3.9 2.5-7.2 1.7-8.2-.7 0 0-.2-.6-.2-1.5v-.2c.1-1.1 1.3-5.9 10.6-8.8l.5-1.2L65.9 23c.6-1.6 4.6-9.6 13.7-12.4 10.1-3.2 12 3.1 11.5 6.4-.5 4-2.9 7.3-6.8 9.4-8.3 4.6-10.8 1.4-11-.2-.2-1.2.4-2.3.8-2.8.1-.2.3-.3.5-.4.8-.3 1.9-.6 3.3-.6.3 0 .7 0 1 .1.1 0 .2.1.1.2-.6.7-1.7 1.8-1.8 3.5v.1c0 .5.4.9 1 .9.9 0 2.4-.7 4.3-2.7 4.3-4.3 4.7-10 3.8-11.7-.7-1.3-2.2-1.2-2.6-1.2-6.4 0-11 9.5-11.8 11.2l-3.9 9-.4 1.1c19.4-3.8 25.8-7.1 26.8-7.7.1 0 .2-.1.3 0 2.1.7 3.4 1.9 3.8 2.4 0 0 0 .2-.2.2zm-48.1 72.9l-.4-.2c-.1.1-.2.1-.3.2v-1.4h-3.7v2.2c-.3 0-.5 0-.8.1l.1.4c.8-.1 1.8-.2 2.8-.3v-.3c.6.4 1.5.6 2.5.7.1-.1.2-.3.3-.4-.6 0-1.2-.1-1.7-.3.5-.2.9-.5 1.2-.7zm-1.5.5c-.3-.1-.5-.2-.7-.4h1.4c-.2.1-.5.3-.7.4zm-2.3-.7v-.3h2.7v.3h-2.7zm2.7-1v.3h-2.7v-.3h2.7zm-2.7 1.9v-.6h1.1c.1.2.3.3.5.4-.6.1-1.1.1-1.6.2zm-1.1-4c.3.1.6.3.8.5-.4.3-1 .4-1.5.5.1.1.2.2.2.3 1.1-.3 2.3-.9 2.8-1.9l-.3-.1h-.8v-.3h1.2v-.3h-1.2v-.3h-.4v1H46l-.3-.1c-.2.3-.7.6-1.1.8.1.1.3.2.3.3.1-.2.2-.3.4-.4zm1.1.3c-.2-.2-.5-.3-.8-.5.1 0 .1-.1.1-.1H47c-.1.2-.4.4-.6.6z"/><path class="st0" d="M46.8 99h1.8v-.2c.6.3 1.4.6 2 .8.1-.1.2-.3.3-.4-.9-.2-1.8-.5-2.5-1 .3-.1.6-.3.9-.5.4.3.8.6 1.1.8l.3-.3c-.3-.2-.6-.5-1.1-.7.4-.3.7-.7.8-1.2l-.3-.3H48v.4h1.8c-.2.3-.4.5-.6.7-.3-.2-.6-.3-.9-.5l-.3.4c.3.1.6.3.9.5-.3.2-.6.3-.9.4l.2.2c-.1-.1-.2-.1-.2-.2h-.4c-.6.6-1.7 1.1-2.9 1.4.1.1.2.3.2.4.7-.2 1.4-.5 2-.8v.1zm.9-.8c.2.2.5.4.8.5H47c.2-.2.5-.4.7-.5zm9.2-1.3v.4h-1.1v.4h1.1v.3h-1v1.3h2.6V98h-1.1v-.4h1.2v-.4h-1.2v-.4h-.5zm-.3 2.1h-.4v-.7h.4v.7zm1-.7h.4v.7h-.4v-.7zm-.3.7h-.4v-.7h.4v.7zm1.3.7h-3v.4h1.1l-.2.2c.3.1.6.4.8.6l.3-.3c-.1-.1-.4-.3-.7-.5h1.6v-.4zm-4.3 1.7v-.4h.5v-.3h-.5v-.4h.5v-.3h-1.3v.3h.5v.4h-.5v.3h.5v.4c-.2 0-.5 0-.6.1v.4c.4 0 .9-.1 1.5-.2v-.3c-.3-.1-.4-.1-.6 0z"/><path class="st0" d="M58.5 96.7v-.4H56v-.5h-.5v.5H53v2.1c0 1 0 2.4-.5 3.3.1 0 .3.2.4.3.5-1 .6-2.6.6-3.6v-1.7h5zm-.4 3.8l-.4.1c.3.3.5.8.5 1.1l.4-.1c0-.3-.2-.8-.5-1.1zm-.7 1.1H57c-.1 0-.1 0-.1-.1v-.9h-.4v.9c0 .4.1.5.5.5h.5c.3 0 .4-.1.4-.7-.1 0-.3-.1-.3-.1-.1.4-.1.4-.2.4zm-1.9 0l.3.2c.2-.3.3-.7.3-1.1l-.3-.1c0 .3-.1.7-.3 1z"/><path class="st0" d="M55.7 97.4V97h-2.2v.4h.3v1.8h-.4v.4c.4 0 1-.1 1.5-.1v2.5h.4v-4.6h.4zm-.7 1.1h-.8v-.4h.8v.4zm-.8.7v-.4h.8v.4h-.8zm.8-1.4h-.8v-.4h.8v.4zm14.2-.5c-.1-.3-.4-.9-.7-1.3l-.4.2c.3.4.6 1 .7 1.3l.4-.2z"/><path class="st0" d="M69 100.4c0 .8-.1 1.1-.2 1.1-.3 0-.5-.4-.6-1.1.4-.5.7-1.1 1-1.7l-.5-.1-.6 1.2c-.1-.4-.1-1-.2-1.5h1.4v-.5h-1.4v-2h-.5c0 .7 0 1.4.1 2h-1.1v-1.2c.3-.1.7-.2.9-.3l-.4-.4c-.5.3-1.4.5-2.2.7.1.1.1.3.2.4.3-.1.6-.1 1-.2v1.1h-1.1v.5h1.1v1.2c-.4.1-.9.2-1.2.3l.1.5c.3-.1.7-.2 1-.3v1.4c0 .1 0 .1-.1.1h-.8c.1.1.1.3.2.5.5 0 .8 0 1-.1.2-.1.3-.2.3-.5V100c.3-.1.6-.2 1-.3l-.1-.5c-.3.1-.6.2-.9.2v-1h1.1c.1.8.1 1.5.3 2-.3.4-.7.8-1.2 1 .1.1.3.3.3.4.3-.2.7-.5 1-.9.2.7.5 1.1 1 1.1.4 0 .6-.3.7-1.3-.4-.1-.5-.2-.6-.3z"/><path class="st0" d="M64.9 95.9l-.5-.1c-.3 1-.9 2.1-1.5 2.8.1.1.2.4.3.5l.6-.9v3.8h.5v-4.7c.2-.5.4-.9.6-1.4zm5.9 5.6c.1 0 .3.1.4.2.2-.3.5-.8.6-1.3l-.4-.1c-.1.4-.3.9-.6 1.2zm2-1.1c.2.4.4.8.5 1.1l.4-.2c-.1-.3-.3-.8-.5-1.1l-.4.2z"/><path class="st0" d="M77.1 101.3h-1.3v-.6h1v-.4h-1v-.6h1v-.4h-1v-.6H77v-.4h-1.2c.1-.2.2-.5.4-.7l-.5-.1c-.1.2-.2.6-.3.8h-.8c.1-.2.3-.5.4-.7l-.5-.1c-.2.6-.6 1.3-1.1 1.7-.1-.1-.1-.2-.2-.3l-.4.1c.1.2.2.3.3.5h-1c.4-.4.9-1 1.3-1.4L73 98c-.2.3-.5.6-.7.9-.1-.1-.2-.2-.4-.3.2-.3.5-.6.7-.9l-.3-.1h4.4V96h-5.3v1.5h.8c-.1.3-.4.6-.5.8-.1-.1-.2-.1-.3-.2l-.4.3c.3.2.7.6 1 .8l-.4.4h-.7v.4h1.2v2h.5v-2h.7c0 .1.1.2.1.3l.4-.2c-.1-.2-.2-.6-.4-.9.1.1.3.2.4.3l.3-.3v2.8h.5v-.3h2.6v-.4zM75 96.4h1.2v.7H75v-.7zm-1.6 0h1.1v.7h-1.1v-.7zm-1.6 0h1.1v.7h-1.1v-.7zm3.5 3.9h-.8v-.6h.8v.6zm0-.9h-.8v-.6h.8v.6zm-.8 1.3h.8v.6h-.8v-.6zM84.9 98h-2.2v-1.1c.7-.2 1.5-.4 2.1-.7l-.4-.4c-.4.2-1.1.5-1.8.7l-.4-.1v2.3c0 .8-.1 1.8-.5 2.6-.2-.3-.4-.6-.7-.8l-.4.2c.3.3.6.7.7 1l.2-.1-.1.1c.1.1.3.2.4.3.8-.9.9-2.3.9-3.2v-.2h1v3.5h.5v-3.5h.7V98zm-6.2 3.6c.1.1.3.2.4.3.4-.3.8-.8 1-1.3l-.5-.1c-.2.4-.6.8-.9 1.1z"/><path class="st0" d="M82 99.9h-.5v-2.8h.5v-.4h-.4v-.8H81v.8h-1.3v-.8h-.5v.8h-.5v.4h.5v2.8h-.6v.5H82v-.5zm-2.2-1.8H81v.6h-1.3v-.6zm1.2-1v.6h-1.3v-.6H81zm-1.2 2.1H81v.7h-1.3v-.7zm10.3 1.1h2.5v-.5h-2.9c0-.2.1-.4.1-.6h2.8v-.5h-2.7v-.6H92v-.4h-2.2v-.5h2.5v-.5h-1.5c.2-.2.4-.5.6-.8l-.5-.2c-.1.3-.4.6-.6.9l.3.1h-2l.2-.1c-.1-.3-.3-.6-.6-.9l-.4.2c.2.2.4.5.5.8h-1.4v.5h2.5v.5h-2.1v.4h2.1v.6h-2.7v.5h2.7c0 .2-.1.4-.1.6h-2.6v.5h2.4c-.3.6-1 1.1-2.5 1.3.1.1.2.3.3.4 1.8-.3 2.5-.8 2.8-1.7.5 1 1.4 1.5 2.8 1.7.1-.1.2-.4.3-.5-1.4-.1-2.3-.5-2.7-1.2zm9.9-.3l-.4-.3c-.1.1-.2.2-.4.3v-2.2c.3.2.6.3.9.5.1-.1.2-.3.3-.4-1.1-.4-2.2-1.2-3-2H97c-.5.8-1.7 1.6-2.8 2.1.1.1.2.3.3.4.3-.1.6-.3.9-.5v3.6c-.3 0-.5 0-.8.1l.1.5c.8-.1 1.9-.2 3-.3v-.5c-.6.1-1.2.1-1.8.2V100H97c.6 1.1 1.7 1.7 3.1 2 .1-.1.2-.3.3-.4-.7-.1-1.4-.3-1.9-.6.5-.3 1.1-.7 1.5-1zm-2.7-3.8c.4.5 1.1 1 1.7 1.4h-1.5v-.7H97v.7h-1.5c.8-.4 1.4-.9 1.8-1.4zM95.9 98h2.9v.6h-2.9V98zm0 1h2.9v.6h-2.9V99zm1.6 1h1.7c-.4.2-.8.5-1.1.7-.3-.2-.5-.4-.6-.7z"/></svg>