<?xml version="1.0" encoding="utf-8"?>
<!-- Generator: Adobe Illustrator 27.1.1, SVG Export Plug-In . SVG Version: 6.00 Build 0)  -->
<svg version="1.1" id="Layer_1" xmlns="http://www.w3.org/2000/svg" xmlns:xlink="http://www.w3.org/1999/xlink" x="0px" y="0px"
	 viewBox="0 0 70.2 82.2" style="enable-background:new 0 0 70.2 82.2;" xml:space="preserve">
<g>
	<path style="fill:#E3B48B;" d="M64.2,11.5C53.4-2.5,31.6-3.9,15.5,8.4C-0.6,20.8-4.8,42.2,6,56.3c4.6,6,11.2,9.6,18.4,11
		c2.1,0.4,3.7,1.8,4.4,3.8l2.9,8.7c1.1,3.2,5.6,3.2,6.7,0L42,69.2c0.7-2.2,2.3-3.9,4.4-4.9c2.9-1.3,5.7-2.9,8.3-5
		C70.8,47,75,25.6,64.2,11.5z"/>
	<path style="fill:#012E23;" d="M42.3,41.1c8.4,5.6,14.2,3.4,15.2,0.5c0.8-2.2-2-4.1-2-4.1h-5.1c2.4,3.2,0.8,7.2-5.9,3.5l0,0
		c0,0,0,0,0,0c0,0,0,0,0,0c0,0,0,0,0,0c-0.1,0-0.5-0.2-1-0.6c0,0,0,0,0,0c-0.8-0.5-1.7-1.3-2.1-2.3c-0.7-1.8,1-1.7,2.7,1.4
		c0,0,2.3-1.1,2.3-1.1s-0.4-0.8-1.5-2c-1.4-1.5-3.5-2.2-4.3-0.6c-0.4,0.8-0.4,1.6-0.1,2.3c-2-2.2-2-4-2-4s-0.1-1.8,2-4
		c-0.2,0.7-0.3,1.5,0.1,2.3c0.8,1.6,2.9,0.9,4.3-0.6c1.1-1.2,1.5-2,1.5-2s-2.3-1.1-2.3-1.1c-1.7,3.1-3.4,3.2-2.7,1.4
		c0.4-1,1.4-1.8,2.1-2.3c0.5-0.4,1-0.6,1-0.6c0,0,0,0,0,0c0,0,0,0,0,0c0,0,0,0,0,0c6.7-3.6,8.3,0.3,5.9,3.5l5.1,0c0,0,2.8-1.9,2-4.1
		c-1.1-2.9-6.8-5.1-15.2,0.5c5.6-8.4,3.4-14.2,0.5-15.2c-2.2-0.8-4.1,2-4.1,2v5.1c3.2-2.4,7.2-0.8,3.5,5.9c0,0,0,0,0,0c0,0,0,0,0,0
		c0,0,0,0,0,0c0,0,0,0,0,0c0,0,0,0,0,0l-0.6,1c0.2-0.3,0.4-0.7,0.6-1c0,0.1-0.2,0.5-0.6,1c0,0,0,0,0,0c-0.5,0.8-1.3,1.7-2.3,2.1
		c-1.8,0.7-1.7-1,1.4-2.7c0,0-1.1-2.3-1.1-2.3s-0.8,0.4-2,1.5c-1.5,1.4-2.2,3.5-0.6,4.3c0.8,0.4,1.6,0.4,2.3,0.1c-2.2,2-4,2-4,2
		s-1.8,0.1-4-2c0.7,0.2,1.5,0.3,2.3-0.1c1.6-0.8,0.9-2.9-0.6-4.3c-1.2-1.1-2-1.5-2-1.5s-1.1,2.3-1.1,2.3c3.1,1.7,3.2,3.4,1.4,2.7
		c-1-0.4-1.8-1.4-2.3-2.1c-0.3-0.5-0.5-0.9-0.6-1l0,0c0,0,0,0,0,0c0,0,0,0,0,0c0,0,0,0,0,0c0,0,0,0,0,0c0,0,0,0,0,0
		c-3.6-6.7,0.3-8.3,3.5-5.9l0-5.1c0,0-1.9-2.8-4.1-2c-2.9,1.1-5.1,6.8,0.5,15.2c-8.4-5.6-14.2-3.4-15.2-0.5c-0.8,2.2,2,4.1,2,4.1
		l5.1,0c-2.4-3.2-0.8-7.2,5.9-3.5c0,0,0,0,0,0c0,0,0,0,0,0c0,0,0,0,0,0c0,0,0,0,0,0c0,0,0,0,0,0c0.1,0,0.5,0.3,1,0.6c0,0,0,0,0,0
		c0.8,0.5,1.7,1.3,2.1,2.3c0.7,1.8-1,1.7-2.7-1.4c0,0-2.3,1.1-2.3,1.1s0.4,0.8,1.5,2c1.4,1.5,3.5,2.2,4.3,0.6
		c0.4-0.8,0.4-1.6,0.1-2.3c2,2.2,2,4,2,4s0.1,1.8-2,4c0.2-0.7,0.3-1.5-0.1-2.3c-0.8-1.6-2.9-0.9-4.3,0.6c-1.1,1.2-1.5,2-1.5,2
		s2.3,1.1,2.3,1.1c1.7-3.1,3.4-3.2,2.7-1.4c-0.4,1-1.4,1.8-2.1,2.3c0,0,0,0,0,0c-0.5,0.3-0.9,0.5-1,0.6c0,0,0,0,0,0c0,0,0,0,0,0
		c0,0,0,0,0,0c0,0,0,0,0,0c0,0,0,0,0,0c-6.7,3.6-8.3-0.3-5.9-3.5h-5.1c0,0-2.8,1.9-2,4.1c1.1,2.9,6.8,5.1,15.2-0.5
		c-5.6,8.4-3.4,14.2-0.5,15.2c2.2,0.8,4.1-2,4.1-2l0-5.1c-3.2,2.4-7.2,0.8-3.5-5.9c0,0,0,0,0,0c0,0,0,0,0,0c0,0,0,0,0,0c0,0,0,0,0,0
		c0,0,0,0,0,0c0.1-0.1,0.3-0.5,0.6-1c0,0,0,0,0,0c0.5-0.8,1.3-1.7,2.3-2.1c1.8-0.7,1.7,1-1.4,2.7c0,0,1.1,2.3,1.1,2.3s0.8-0.4,2-1.5
		c1.5-1.4,2.2-3.5,0.6-4.3c-0.8-0.4-1.6-0.4-2.3-0.1c2.2-2,4-2,4-2s1.8-0.1,4,2c-0.7-0.2-1.5-0.3-2.3,0.1c-1.6,0.8-0.9,2.9,0.6,4.3
		c1.2,1.1,2,1.5,2,1.5s1.1-2.3,1.1-2.3c-3.1-1.7-3.2-3.4-1.4-2.7c1,0.4,1.8,1.4,2.3,2.1c0.3,0.5,0.5,0.9,0.6,1c0,0,0,0,0,0
		c0,0,0,0,0,0c0,0,0,0,0,0c0,0,0,0,0,0c3.6,6.7-0.3,8.3-3.5,5.9v5.1c0,0,1.9,2.8,4.1,2C45.6,55.3,47.9,49.5,42.3,41.1z M35.1,35.5
		c-0.2,0-1,0-2.1,0.5c0.5-1.1,0.5-1.9,0.5-2.1c0,0,0,0,0,0c0-0.2,0-1-0.5-2.1c1.1,0.5,1.9,0.5,2.1,0.5c0.2,0,1,0,2.1-0.5
		c-0.5,1.1-0.5,1.9-0.5,2.1c0,0,0,0,0,0c0,0.2,0,1,0.5,2.1C36.1,35.5,35.3,35.5,35.1,35.5z M28.7,25.4c-0.2-0.3-0.4-0.6-0.6-1
		L28.7,25.4z"/>
</g>
</svg>
