<svg xmlns="http://www.w3.org/2000/svg" viewBox="0 0 70.2 82.2"><path d="M64.2 11.5C53.4-2.5 31.6-3.9 15.5 8.4-.6 20.8-4.8 42.2 6 56.3c4.6 6 11.2 9.6 18.4 11 2.1.4 3.7 1.8 4.4 3.8l2.9 8.7c1.1 3.2 5.6 3.2 6.7 0L42 69.2c.7-2.2 2.3-3.9 4.4-4.9 2.9-1.3 5.7-2.9 8.3-5C70.8 47 75 25.6 64.2 11.5z" fill="#e3b48b"/><path d="M42.3 41.1c8.4 5.6 14.2 3.4 15.2.5.8-2.2-2-4.1-2-4.1h-5.1c2.4 3.2.8 7.2-5.9 3.5-.1 0-.5-.2-1-.6-.8-.5-1.7-1.3-2.1-2.3-.7-1.8 1-1.7 2.7 1.4l2.3-1.1s-.4-.8-1.5-2c-1.4-1.5-3.5-2.2-4.3-.6-.4.8-.4 1.6-.1 2.3-2-2.2-2-4-2-4s-.1-1.8 2-4c-.2.7-.3 1.5.1 2.3.8 1.6 2.9.9 4.3-.6 1.1-1.2 1.5-2 1.5-2l-2.3-1.1c-1.7 3.1-3.4 3.2-2.7 1.4.4-1 1.4-1.8 2.1-2.3.5-.4 1-.6 1-.6 6.7-3.6 8.3.3 5.9 3.5h5.1s2.8-1.9 2-4.1c-1.1-2.9-6.8-5.1-15.2.5 5.6-8.4 3.4-14.2.5-15.2-2.2-.8-4.1 2-4.1 2V19c3.2-2.4 7.2-.8 3.5 5.9l-.6 1c.2-.3.4-.7.6-1 0 .1-.2.5-.6 1-.5.8-1.3 1.7-2.3 2.1-1.8.7-1.7-1 1.4-2.7L39.6 23s-.8.4-2 1.5c-1.5 1.4-2.2 3.5-.6 4.3.8.4 1.6.4 2.3.1-2.2 2-4 2-4 2s-1.8.1-4-2c.7.2 1.5.3 2.3-.1 1.6-.8.9-2.9-.6-4.3-1.2-1.1-2-1.5-2-1.5l-1.1 2.3c3.1 1.7 3.2 3.4 1.4 2.7-1-.4-1.8-1.4-2.3-2.1-.3-.5-.5-.9-.6-1-3.6-6.7.3-8.3 3.5-5.9v-5.1s-1.9-2.8-4.1-2c-2.9 1.1-5.1 6.8.5 15.2-8.4-5.6-14.2-3.4-15.2-.5-.8 2.2 2 4.1 2 4.1h5.1c-2.4-3.2-.8-7.2 5.9-3.5.1 0 .5.3 1 .6.8.5 1.7 1.3 2.1 2.3.7 1.8-1 1.7-2.7-1.4l-2.3 1.1s.4.8 1.5 2c1.4 1.5 3.5 2.2 4.3.6.4-.8.4-1.6.1-2.3 2 2.2 2 4 2 4s.1 1.8-2 4c.2-.7.3-1.5-.1-2.3-.8-1.6-2.9-.9-4.3.6-1.1 1.2-1.5 2-1.5 2l2.3 1.1c1.7-3.1 3.4-3.2 2.7-1.4-.4 1-1.4 1.8-2.1 2.3-.5.3-.9.5-1 .6-6.7 3.6-8.3-.3-5.9-3.5h-5.1s-2.8 1.9-2 4.1c1.1 2.9 6.8 5.1 15.2-.5-5.6 8.4-3.4 14.2-.5 15.2 2.2.8 4.1-2 4.1-2v-5.1c-3.2 2.4-7.2.8-3.5-5.9.1-.1.3-.5.6-1 .5-.8 1.3-1.7 2.3-2.1 1.8-.7 1.7 1-1.4 2.7l1.1 2.3s.8-.4 2-1.5c1.5-1.4 2.2-3.5.6-4.3-.8-.4-1.6-.4-2.3-.1 2.2-2 4-2 4-2s1.8-.1 4 2c-.7-.2-1.5-.3-2.3.1-1.6.8-.9 2.9.6 4.3 1.2 1.1 2 1.5 2 1.5l1.1-2.3c-3.1-1.7-3.2-3.4-1.4-2.7 1 .4 1.8 1.4 2.3 2.1.3.5.5.9.6 1 3.6 6.7-.3 8.3-3.5 5.9v5.1s1.9 2.8 4.1 2c2.8-1 5.1-6.8-.5-15.2zm-7.2-5.6c-.2 0-1 0-2.1.5.5-1.1.5-1.9.5-2.1 0-.2 0-1-.5-2.1 1.1.5 1.9.5 2.1.5.2 0 1 0 2.1-.5-.5 1.1-.5 1.9-.5 2.1 0 .2 0 1 .5 2.1-1.1-.5-1.9-.5-2.1-.5zm-6.4-10.1c-.2-.3-.4-.6-.6-1l.6 1z" fill="#012e23"/></svg>