<svg xmlns="http://www.w3.org/2000/svg" viewBox="0 0 286 309.5"><path d="M285.8 20.3s-1.9.1-4.2-2.1c.7.3 1.5.3 2.4-.1 1.7-.8.9-3.1-.7-4.5-1.3-1.1-2.1-1.5-2.1-1.5l-1.2 2.4c3.2 1.7 3.4 3.6 1.5 2.8-1.1-.4-1.9-1.4-2.4-2.2-.4-.5-.6-1-.6-1.1-3.8-7 .3-8.7 3.7-6.2V2.4s-2-2.9-4.3-2.1c-3 1.1-5.4 7.1.5 16-8.8-5.9-14.9-3.5-16-.5-.9 2.3 2.1 4.3 2.1 4.3h5.3c-2.5-3.4-.8-7.5 6.2-3.7.1 0 .5.2 1.1.6.8.5 1.8 1.4 2.3 2.4.8 1.9-1.1 1.8-2.8-1.5l-2.4 1.2s.4.9 1.5 2.1c1.4 1.6 3.7 2.3 4.5.7.4-.8.4-1.7.1-2.4 2.1 2.3 2.1 4.2 2.1 4.2v.1c0 .4-.2 2.1-2.1 4.1.2-.5.2-1 .2-1.5 0-.3-.1-.6-.3-.9-.8-1.6-3.1-.9-4.5.7-1.1 1.3-1.5 2.1-1.5 2.1l2.4 1.2c1.2-2.2 2.4-3 2.8-2.6.2.2.2.6 0 1.1-.4 1.1-1.4 1.9-2.2 2.4-.5.4-1 .6-1.1.6-.1.1-.3.1-.4.2-.2.1-.3.2-.5.2-.3.1-.6.3-.8.4-.1.1-.3.1-.4.2-.2.1-.3.1-.5.2s-.4.1-.6.2c-.1 0-.3.1-.4.1-.2 0-.3.1-.5.1h-1c-.4 0-.8-.1-1.1-.3h-.1c-1.4-.8-1.3-3 .1-4.8h-5.3s-2.9 2-2.1 4.3c.2.6.6 1.1 1.1 1.6 0 0 .1 0 .1.1.1.1.3.2.5.3 0 0 .1.1.2.1.1.1.3.2.5.3.1 0 .1.1.2.1.2.1.3.1.5.2.1 0 .2.1.3.1h.1c.4.1.9.2 1.4.3h2.1c.3 0 .6-.1.9-.1h.1c1.4-.2 3-.7 4.7-1.5l-21.8 21.8c-.9.9-2 1.4-3.2 1.5h-.4c-.3 0-1.3 0-2.7-.7h-.1v.1c.6 1.4.7 2.4.7 2.7v.4c-.1 1.2-.7 2.3-1.6 3.2l-21.9 21.9c3.4-7 1.2-11.7-1.4-12.7-2.3-.9-4.3 2.1-4.3 2.1v5.3c3.4-2.5 7.5-.8 3.7 6.2 0 .1-.3.5-.6 1.1-.5.8-1.4 1.8-2.4 2.2-1.9.8-1.8-1.1 1.5-2.8l-1.2-2.4s-.9.4-2.1 1.5c-1.6 1.4-2.3 3.7-.7 4.5.8.4 1.7.4 2.4.1-2.3 2.1-4.2 2.1-4.2 2.1s-1.9.1-4.2-2.1c.7.3 1.5.3 2.4-.1 1.7-.8.9-3.1-.7-4.5-1.3-1.1-2.1-1.5-2.1-1.5l-1.2 2.4c3.2 1.7 3.4 3.6 1.5 2.8-1.1-.4-1.9-1.5-2.5-2.2-.3-.5-.6-1-.6-1.1-1.1-2-1.5-3.6-1.5-4.7 0-2.9 2.8-3.2 5.2-1.5v-5.3s-2-2.9-4.3-2.1c-2.6 1-4.7 5.6-1.4 12.6l-21.9-21.9c-.9-.9-1.4-2-1.6-3.2v-.4c0-.3.1-1.3.7-2.7 0-.1 0-.2-.1-.1-1.4.6-2.4.7-2.7.7h-.4c-1.2-.1-2.3-.7-3.2-1.5l-21.8-21.8c1.7.8 3.3 1.3 4.7 1.5h.2c.3 0 .6.1.9.1h1.9c.2 0 .3 0 .4-.1.1 0 .3 0 .4-.1.3-.1.6-.1.8-.2h.1c.3-.1.5-.2.7-.3h.1l.6-.3c.9-.6 1.5-1.3 1.7-2 .8-2.3-2.1-4.3-2.1-4.3h-5.3c1.5 2.1 1.5 4.5-.5 5.1-1.2.3-3.1 0-5.7-1.4-.1 0-.5-.3-1.1-.6-.8-.5-1.8-1.4-2.2-2.4-.2-.5-.2-.8-.1-1 .3-.6 1.6.1 2.9 2.5.1 0 1.8-.9 2.3-1.1.1 0 .1-.1.1-.1s-.4-.9-1.5-2.1c-1.3-1.4-3.1-2.1-4.1-1.2-.1.1-.3.3-.4.5-.4.8-.4 1.6-.1 2.4-2.1-2.3-2.1-4.2-2.1-4.2 0-.1 0-1.9 2.1-4.2-.3.7-.3 1.5.1 2.4.8 1.7 3.1.9 4.5-.7 1.1-1.3 1.5-2.1 1.5-2.1l-2.4-1.2c-1.7 3.2-3.6 3.4-2.8 1.5.4-1.1 1.5-1.9 2.3-2.4.6-.4 1-.6 1.1-.6 7-3.8 8.7.3 6.2 3.7h5.3s2.9-2 2.1-4.3c-1.1-3-7.1-5.4-16 .5 5.9-8.8 3.5-14.9.5-16-2.3-.9-4.3 2.1-4.3 2.1v5.3c3.4-2.5 7.5-.8 3.7 6.2 0 .1-.3.5-.6 1.1-.5.8-1.4 1.8-2.4 2.2-1.9.8-1.8-1.1 1.5-2.8l-1.2-2.4s-.9.4-2.1 1.5c-1.6 1.4-2.3 3.7-.7 4.5.8.4 1.7.4 2.4.1-2.3 2.1-4.2 2.1-4.2 2.1s-1.9.1-4.2-2.1c.7.3 1.5.3 2.4-.1 1.7-.8.9-3.1-.7-4.5-1.3-1.1-2.1-1.5-2.1-1.5l-1.2 2.4c3.2 1.7 3.4 3.6 1.5 2.8-1.1-.4-1.9-1.5-2.4-2.2-.3-.5-.6-.9-.6-1.1-3.8-7 .3-8.7 3.7-6.2V2.6s-2-2.9-4.3-2.1c-3 1.1-5.4 7.1.5 16-8.8-5.9-14.9-3.5-16-.5-.9 2.3 2.1 4.3 2.1 4.3h5.3c-2.5-3.4-.8-7.5 6.2-3.7.1.1.5.3 1.1.6.8.5 1.8 1.4 2.2 2.4.8 1.9-1.1 1.8-2.8-1.5l-2.4 1.2s.4.9 1.5 2.1c1.4 1.6 3.7 2.3 4.5.7.4-.8.4-1.7.1-2.4 2.1 2.3 2.1 4.2 2.1 4.2v.1c0 .4-.2 2.1-2.1 4.1.3-.7.3-1.5-.1-2.4-.8-1.6-3.1-.9-4.5.7-1.1 1.3-1.5 2.1-1.5 2.1s.6.3 1.3.6c.6.3 1.1.5 1.1.6 1.2-2.2 2.4-3 2.8-2.6.2.2.2.6-.1 1.1-.4 1.1-1.4 1.9-2.2 2.4-.5.4-1 .6-1.1.6-.1.1-.3.2-.4.2-.1.1-.3.1-.4.2-.3.2-.6.3-.9.4-.1 0-.2.1-.3.1-.2.1-.4.1-.5.2-.2.1-.4.1-.5.2-.2 0-.3.1-.5.1s-.3.1-.5.1h-1c-.4 0-.8-.1-1.1-.3h-.1c-1.4-.8-1.3-3 .1-4.8h-5.3s-2.9 2-2.1 4.3c.2.6.6 1.1 1.1 1.6.2.1.3.3.5.4 0 0 .1 0 .1.1.2.1.3.2.5.3.1 0 .1.1.2.1.2.1.4.2.6.2.1 0 .1.1.2.1.3.1.5.2.8.2.2 0 .4.1.5.1h2.3c.3 0 .5-.1.8-.1h.3c.3-.1.6-.1.9-.2h.2c1.1-.3 2.3-.7 3.6-1.3L111 55.3c-.9.9-2 1.4-3.2 1.5h-.4c-.3 0-1.3 0-2.7-.7-.1 0-.2 0-.1.1.6 1.4.7 2.4.7 2.7v.4c-.1 1.2-.7 2.3-1.5 3.2L81 84.4c3.3-7 1.2-11.7-1.4-12.7-2.3-.9-4.3 2.1-4.3 2.1v5.3c3.4-2.5 7.5-.8 3.7 6.2v.1l-.5.9c-.5.8-1.4 1.8-2.4 2.2-1.9.8-1.8-1.1 1.5-2.8l-1.2-2.4s-1.1.5-2.4 1.7c-1.6 1.4-2.3 3.7-.7 4.5.8.4 1.7.4 2.4.1-2.3 2.1-4.2 2.1-4.2 2.1s-1.9.1-4.2-2.1c.7.3 1.6.3 2.4-.1 1.6-.8.9-3.1-.7-4.5-1.3-1.1-2.1-1.5-2.1-1.5l-1.2 2.4c3.2 1.7 3.4 3.6 1.5 2.8-1.1-.4-1.9-1.5-2.4-2.2-.3-.5-.6-1-.6-1.1-1.1-2-1.5-3.6-1.5-4.7 0-2.9 2.8-3.2 5.2-1.5v-5.3s-2-2.9-4.3-2.1c-2.6 1-4.7 5.6-1.4 12.6L40.3 62.5c-.9-.9-1.4-2-1.6-3.2v-.4c0-.3.1-1.3.7-2.7v-.1h-.1c-1.4.6-2.4.7-2.7.7h-.4c-1.2-.1-2.3-.7-3.2-1.6L11 33.3c.9.4 1.7.7 2.5 1h.1l.9.3c.1 0 .2.1.3.1.3.1.5.1.8.2.1 0 .2 0 .4.1.2 0 .5.1.7.1h2.1c.2 0 .3 0 .5-.1.1 0 .3 0 .4-.1.3-.1.6-.1.8-.2h.1l.6-.3s.1 0 .1-.1l.6-.3h.1c.8-.6 1.4-1.3 1.7-2 .8-2.3-2.1-4.3-2.1-4.3h-5.3c1.5 2.1 1.5 4.5-.5 5.1-1.2.3-3.1 0-5.7-1.4-.1-.2-.5-.4-1.1-.8-.8-.5-1.8-1.4-2.2-2.4-.2-.5-.2-.8-.1-1 .3-.6 1.6.1 2.9 2.5 0 0 .5-.2 1-.5.7-.3 1.4-.7 1.4-.7s-.4-.9-1.5-2.1C9 24.7 6.8 24 5.9 25.6c-.4.8-.4 1.6-.1 2.4-1.9-2-2.1-3.7-2.1-4.1v-.1s0-1.8 2.1-4.1c-.3.7-.3 1.5.1 2.4.8 1.7 3.1.9 4.5-.7 1.1-1.3 1.5-2.1 1.5-2.1l-2.4-1.2c-1.7 3.2-3.6 3.4-2.8 1.5.4-1.1 1.5-1.9 2.3-2.4.6-.4 1-.6 1.1-.6 7-3.8 8.7.3 6.2 3.7h5.3s2.9-2 2.1-4.3c-1.1-3-7.1-5.4-16 .5 5.9-8.8 3.5-14.9.5-16-2.4-1-4.4 1.9-4.4 1.9v5.3c3.4-2.5 7.5-.8 3.7 6.2 0 .1-.3.5-.6 1.1-.5.8-1.4 1.8-2.4 2.2-1.9.8-1.8-1.1 1.5-2.8L4.8 12s-.9.4-2.1 1.5C1 15 .3 17.3 1.9 18.1c.8.4 1.7.4 2.4.1C2 20.3.1 20.3.1 20.3v1.9c.2 0 1.1 0 2.2-.6-.5 1.1-.6 2-.6 2.2 0 .2 0 1.1.6 2.2-1.1-.5-2-.6-2.2-.6v1.9s1.9-.1 4.2 2.1c-.7-.3-1.5-.3-2.4.1-.6.5-.9 1-.9 1.6v.6c.2.8.7 1.8 1.6 2.5 1.3 1.1 2.1 1.5 2.1 1.5 0-.1 1.2-2.4 1.2-2.4-2.2-1.2-3-2.4-2.6-2.8.2-.2.6-.2 1.1 0 1.1.4 1.9 1.5 2.4 2.3.4.5.6 1 .6 1.1 1.2 2.2 1.6 3.8 1.5 5 0 .5-.2.9-.3 1.2-.2.4-.6.7-1.1.9-.3.1-.7.1-1.1.1h-.1c-.1 0-.3-.1-.5-.1-.2-.1-.4-.1-.6-.2h-.1c-.2-.1-.3-.1-.5-.2-.1 0-.1-.1-.2-.1-.1-.1-.3-.2-.4-.3 0 0-.1 0-.1-.1v5.3s2 2.9 4.3 2.1c1.5-.6 2.9-2.3 3.1-5.1v-1.2c0-.3 0-.6-.1-.9V40c0-.3-.1-.6-.2-1v-.2l-.3-1.2v-.1c-.3-.8-.6-1.7-1-2.7l21.8 21.8c.9.9 1.4 2 1.6 3.2v.4c0 .3 0 1.3-.7 2.7v.1h.1c1.4-.6 2.4-.7 2.7-.7h.4c1.2.1 2.3.7 3.2 1.6l21.9 21.9c-7-3.4-11.7-1.2-12.7 1.4-.9 2.3 2.1 4.3 2.1 4.3h5.3c-2.5-3.4-.8-7.5 6.2-3.7.1.1.5.3 1.1.6.8.5 1.8 1.4 2.2 2.4.8 1.9-1.1 1.8-2.8-1.5l-2.4 1.2s.4.9 1.5 2.1c1.4 1.6 3.7 2.3 4.5.7.4-.8.4-1.7.1-2.4 2.2 2.3 2.1 4.2 2.1 4.2s.1 1.9-2.1 4.2c.3-.7.3-1.5-.1-2.4-.8-1.7-3.1-.9-4.5.7-1.1 1.3-1.5 2.1-1.5 2.1l2.4 1.2c1.7-3.2 3.6-3.4 2.8-1.5-.4 1.1-1.4 1.9-2.2 2.4-.5.3-1 .6-1.1.6-2 1.1-3.6 1.5-4.7 1.5-2.9 0-3.2-2.8-1.5-5.2h-5.3s-2.9 2-2.1 4.3c1 2.6 5.6 4.7 12.6 1.4l-21.8 21.8c-.9.9-2 1.4-3.2 1.6h-.4c-.3 0-1.3 0-2.7-.7h-.1v.1c.6 1.8.6 2.8.6 3.1v.4c-.1 1.2-.7 2.3-1.6 3.2l-21.8 22c3.4-7 1.2-11.7-1.4-12.7-2.3-.8-4.3 2.1-4.3 2.1v5.3c3.4-2.5 7.5-.8 3.7 6.2 0 .1-.3.5-.6 1.1-.5.8-1.4 1.8-2.4 2.2-1.9.8-1.8-1.1 1.5-2.8l-1.2-2.4s-.9.4-2.1 1.5c-1.6 1.4-2.3 3.7-.7 4.5.8.4 1.7.4 2.4.1-2.3 2.1-4.2 2.1-4.2 2.1v1.9c.2 0 1.1 0 2.2-.6-.5 1.1-.6 2-.6 2.2 0 .2 0 1.1.6 2.2-1.1-.5-2-.6-2.2-.6v1.9s1.9-.1 4.2 2.1c-.7-.3-1.5-.3-2.4.1-1.7.8-1 3.1.7 4.5 1.3 1.1 2.1 1.5 2.1 1.5l1.2-2.4c-3.2-1.7-3.4-3.6-1.5-2.8 1.1.4 1.9 1.5 2.4 2.3.4.5.6 1 .6 1.1 1.1 2 1.5 3.6 1.5 4.7 0 2.9-2.8 3.2-5.2 1.5v5.3s2 2.9 4.3 2.1c2.6-1 4.7-5.6 1.4-12.6l21.9 21.9c.9.9 1.4 2 1.6 3.2v.4c0 .3 0 1.3-.7 2.7 0 .1 0 .1.1.1 1.4-.6 2.4-.7 2.7-.7h.4c1.2.1 2.3.7 3.2 1.5l21.9 21.9c-7-3.3-11.7-1.2-12.6 1.4-.9 2.3 2.1 4.3 2.1 4.3h5.3c-2.5-3.4-.8-7.5 6.2-3.7.1 0 .5.3 1.1.6.8.5 1.8 1.4 2.2 2.4.8 1.9-1.1 1.8-2.8-1.5l-2.4 1.2s.4.9 1.5 2.1c1.4 1.6 3.7 2.3 4.5.7.4-.8.4-1.7.1-2.4 2.2 2.3 2.1 4.2 2.1 4.2s.1 1.9-2.1 4.2c.3-.7.3-1.5-.1-2.4-.8-1.6-3.1-.9-4.5.7-1.1 1.3-1.5 2.1-1.5 2.1l2.4 1.2c1.7-3.2 3.6-3.4 2.8-1.5-.4 1.1-1.4 1.9-2.2 2.4-.5.3-1 .6-1.1.6-2 1.1-3.6 1.5-4.7 1.5-2.9 0-3.3-2.8-1.5-5.2h-5.3s-2.9 2-2.1 4.3c1 2.6 5.7 4.8 12.7 1.4L38.9 269c-.9.9-2 1.4-3.2 1.5h-.4c-.3 0-1.3-.1-2.7-.7-.1 0-.2 0-.1.1.6 1.4.7 2.4.7 2.7v.4c-.1 1.2-.7 2.3-1.6 3.2l-22 22.5c3.4-7 1.3-11.7-1.4-12.7-2.3-.8-4.3 2.1-4.3 2.1v5.3c3.4-2.5 7.5-.8 3.7 6.2 0 .1-.3.5-.6 1.1-.5.8-1.4 1.8-2.4 2.2-1.9.8-1.8-1.1 1.5-2.8l-1.2-2.4s-.9.4-2.1 1.5c-1.6 1.4-2.3 3.7-.7 4.5.8.4 1.7.4 2.4.1C2 306 .2 306 .2 306v1.9c.2 0 1.1 0 2.2-.6-.5 1.1-.6 2-.6 2.2h1.9s-.1-1.9 2.1-4.2c-.3.7-.3 1.5.1 2.4.8 1.7 3.1 1 4.5-.7 1.1-1.3 1.5-2.1 1.5-2.1l-2.4-1.2c-1.7 3.2-3.6 3.4-2.8 1.5.4-1.1 1.5-1.9 2.3-2.4.5-.4 1-.6 1.1-.6 2-1.1 3.6-1.5 4.7-1.5 2.9 0 3.2 2.8 1.5 5.2h5.3s2.9-2 2.1-4.3c-1-2.6-5.6-4.7-12.6-1.4l21.8-21.8c.9-.9 2-1.4 3.2-1.6h.4c.3 0 1.3 0 2.7.7.1 0 .1 0 .1-.1-.6-1.4-.7-2.4-.7-2.7v-.4c.1-1.2.7-2.3 1.5-3.2l22-22.1c-3.3 7-1.2 11.6 1.4 12.6 2.3.8 4.3-2.1 4.3-2.1v-5.3c-3.4 2.5-7.5.8-3.7-6.2 0-.1.3-.5.6-1.1.5-.8 1.4-1.8 2.4-2.2 1.9-.8 1.8 1.1-1.5 2.8l1.2 2.4s.9-.4 2.1-1.5c1.6-1.4 2.3-3.7.7-4.5-.8-.4-1.7-.4-2.4-.1 2.3-2.2 4.2-2.1 4.2-2.1s1.9-.1 4.2 2.1c-.7-.3-1.5-.3-2.4.1-1.6.8-.9 3.1.7 4.5 1.3 1.1 2.1 1.5 2.1 1.5l1.2-2.4c-3.2-1.7-3.4-3.6-1.5-2.8 1.1.4 1.9 1.5 2.4 2.3.4.5.6 1 .6 1.1 1.1 2 1.5 3.6 1.5 4.7 0 2.9-2.8 3.3-5.2 1.5v5.3s2 2.9 4.3 2.1c2.6-1 4.8-5.6 1.4-12.6l21.9 21.9c.9.9 1.4 2 1.5 3.2v.4c0 .3 0 1.3-.7 2.7v.1h.1c1.4-.6 2.4-.7 2.7-.7h.4c1.2.1 2.3.7 3.2 1.5l21.9 21.9c-7-3.4-11.8-1.3-12.7 1.4-.9 2.3 2.1 4.3 2.1 4.3h5.3c-2.5-3.4-.8-7.5 6.2-3.7.1.1.5.3 1.1.6.8.5 1.8 1.4 2.2 2.4.8 1.9-1.1 1.8-2.8-1.5l-2.4 1.2s.4.9 1.5 2.1c1.4 1.6 3.7 2.3 4.5.7.4-.8.4-1.6.1-2.4 2.1 2.3 2.1 4.2 2.1 4.2h1.9c0-.2 0-1.1-.6-2.2 1.1.5 2 .6 2.2.6.2 0 1.1 0 2.2-.6-.5 1.1-.6 2-.6 2.2h1.9s-.1-1.9 2.1-4.2c-.3.7-.3 1.5.1 2.4.8 1.7 3.1 1 4.5-.7 1.1-1.3 1.5-2.1 1.5-2.1l-2.4-1.2c-1.7 3.2-3.6 3.4-2.8 1.5.4-1.1 1.5-1.9 2.3-2.4.5-.4 1-.6 1.1-.6 2-1.1 3.6-1.5 4.7-1.5 2.9 0 3.2 2.8 1.5 5.2h5.3s2.9-2 2.1-4.3c-1-2.6-5.6-4.7-12.6-1.4l21.8-21.8c.9-.9 2-1.4 3.2-1.6h.4c.3 0 1.3 0 2.7.7h.1v-.1c-.6-1.4-.7-2.4-.7-2.7v-.4c.1-1.2.7-2.3 1.5-3.2l22.7-22c-3.4 7-1.2 11.7 1.4 12.7 2.3.8 4.3-2.1 4.3-2.1v-5.3c-3.4 2.5-7.5.8-3.7-6.2.1-.1.3-.5.6-1.1.5-.8 1.4-1.8 2.4-2.2 1.9-.8 1.8 1.1-1.5 2.8l1.2 2.4s.9-.4 2.1-1.5c1.6-1.4 2.3-3.7.7-4.5-.8-.4-1.7-.4-2.4-.1 2.3-2.2 4.2-2.1 4.2-2.1s1.9-.1 4.2 2.1c-.7-.3-1.5-.3-2.4.1-1.6.8-.9 3.1.7 4.5 1.3 1.1 2.1 1.5 2.1 1.5l1.2-2.4c-3.2-1.7-3.4-3.6-1.5-2.8 1.1.4 1.9 1.5 2.4 2.3.4.5.6 1 .6 1.1 1.1 2 1.5 3.6 1.5 4.7 0 2.9-2.8 3.3-5.2 1.5v5.3s2 2.9 4.3 2.1c2.6-1 4.7-5.6 1.4-12.6l21.8 21.8c.9.9 1.4 2 1.5 3.2v.4c0 .3 0 1.3-.7 2.7 0 .1 0 .1.1.1 1.4-.6 2.4-.7 2.7-.7h.4c1.2.1 2.3.7 3.2 1.6l21.8 21.8c-7-3.3-11.7-1.2-12.6 1.4-.9 2.3 2.1 4.3 2.1 4.3h5.3c-2.5-3.4-.8-7.5 6.2-3.7.1.1.5.3 1.1.6.8.5 1.8 1.4 2.2 2.4.8 1.9-1.1 1.8-2.8-1.5l-2.4 1.2s.4.9 1.5 2.1c1.4 1.6 3.7 2.3 4.5.7.4-.8.4-1.6.1-2.4 2.1 2.3 2.1 4.2 2.1 4.2h1.9c0-.2 0-1.1-.6-2.2 1.1.5 2 .6 2.2.6V306s-1.9.1-4.2-2.1c.7.3 1.5.3 2.4-.1 1.6-.8.9-3.1-.7-4.5-1.3-1.1-2.1-1.5-2.1-1.5l-1.2 2.4c3.2 1.7 3.4 3.6 1.5 2.8-1.1-.4-1.9-1.5-2.4-2.3-.3-.5-.6-.9-.6-1.1-1.1-2-1.5-3.6-1.5-4.7 0-2.9 2.8-3.2 5.2-1.5v-5.3s-2-2.9-4.3-2.1c-2.6 1-4.8 5.7-1.4 12.7L254 276.8c-.9-.9-1.4-2-1.5-3.2v-.4c0-.3 0-1.3.7-2.7 0-.1 0-.2-.1-.1-1.4.6-2.4.7-2.7.7h-.4c-1.2-.1-2.3-.7-3.2-1.5l-21.9-21.9c7 3.4 11.7 1.2 12.7-1.4.9-2.3-2.1-4.3-2.1-4.3h-5.3c2.5 3.4.8 7.5-6.2 3.7-.1 0-.5-.3-1.1-.6-.8-.5-1.8-1.4-2.2-2.4-.8-1.9 1.1-1.8 2.8 1.5l2.4-1.2s-.4-.9-1.5-2.1c-1.4-1.6-3.7-2.3-4.5-.7-.4.8-.4 1.7-.1 2.4-2.2-2.3-2.1-4.2-2.1-4.2s-.1-1.9 2.1-4.2c-.3.7-.3 1.5.1 2.4.8 1.6 3.1.9 4.5-.7 1.1-1.3 1.5-2.1 1.5-2.1l-2.4-1.2c-1.7 3.2-3.6 3.4-2.8 1.5.4-1.1 1.5-1.9 2.3-2.4.6-.4 1-.6 1.1-.6 2-1.1 3.6-1.5 4.7-1.5 2.9 0 3.2 2.8 1.5 5.2h5.3s2.9-2 2.1-4.3c-1-2.6-5.6-4.7-12.6-1.4l21.8-21.9c.9-.9 2-1.4 3.2-1.5h.4c.3 0 1.3 0 2.7.7.1 0 .1 0 .1-.1-.6-1.4-.7-2.4-.7-2.7v-.4c.1-1.2.7-2.3 1.5-3.2l21.8-21.8c-3.3 7-1.2 11.7 1.4 12.6 2.3.9 4.3-2.1 4.3-2.1v-5.3c-3.4 2.5-7.5.8-3.7-6.2.1-.1.3-.5.6-1.1.5-.8 1.4-1.8 2.4-2.2 1.9-.8 1.8 1.1-1.5 2.8l1.2 2.4s.9-.4 2.1-1.5c1.6-1.4 2.3-3.7.7-4.5-.8-.4-1.7-.4-2.4-.1 2.3-2.1 4.2-2.1 4.2-2.1V169c-.2 0-1.1 0-2.2.6.5-1.1.6-2 .6-2.2 0-.2 0-1.1-.6-2.2 1.1.5 2 .6 2.2.6v-1.9s-1.9.1-4.2-2.1c.7.3 1.5.3 2.4-.1 1.6-.8.9-3.1-.7-4.5-1.3-1.1-2.1-1.5-2.1-1.5l-1.2 2.4c3.2 1.7 3.4 3.6 1.5 2.8-1.1-.4-1.9-1.5-2.4-2.3-.3-.5-.6-.9-.6-1.1-3.8-7 .3-8.7 3.7-6.2V146s-2-2.9-4.3-2.1c-2.6 1-4.7 5.6-1.5 12.6L254.6 134c-.9-.9-1.4-2-1.5-3.2v-.4c0-.3 0-1.3.7-2.7v-.1h-.1c-1.4.6-2.4.7-2.7.7h-.4c-1.2-.1-2.3-.7-3.2-1.5l-21.9-21.9c7 3.3 11.7 1.2 12.6-1.4.9-2.3-2.1-4.3-2.1-4.3h-5.3c2.5 3.4.8 7.5-6.2 3.7-.1 0-.5-.3-1.1-.6-.8-.5-1.8-1.4-2.2-2.4-.8-1.9 1.1-1.8 2.8 1.5l2.4-1.2s-.4-.9-1.5-2.1c-1.4-1.6-3.7-2.3-4.5-.7-.4.8-.4 1.6-.1 2.4-2.2-2.3-2.1-4.2-2.1-4.2s-.1-1.9 2.1-4.2c-.3.7-.3 1.5.1 2.4.8 1.6 3.1.9 4.5-.7 1.1-1.3 1.5-2.1 1.5-2.1l-2.4-1.2c-1.7 3.2-3.6 3.4-2.8 1.5.4-1.1 1.5-1.9 2.3-2.4.6-.4 1-.6 1.1-.6 2-1.1 3.6-1.5 4.7-1.5 2.9 0 3.2 2.8 1.5 5.2h5.3s2.9-2 2.1-4.3c-1-2.6-5.6-4.7-12.6-1.4L247.2 64c.9-.9 2-1.4 3.2-1.5h.4c.3 0 1.3 0 2.7.7h.1v-.1c-.6-1.4-.7-2.4-.7-2.7V60c.1-1.2.7-2.3 1.6-3.2l21.9-21.9c-.5.9-.8 1.9-1.1 2.7 0 .1 0 .2-.1.2-.1.4-.2.7-.3 1 0 .1 0 .2-.1.3-.1.3-.1.6-.1.9v.3c0 .3-.1.6-.1.9v1.2c.1 1 .3 1.9.7 2.6.1.2.2.5.4.7.1.2.3.4.4.5.5.5 1 .9 1.6 1.1 2.3.9 4.3-2.1 4.3-2.1V40c-3.4 2.5-7.5.8-3.7-6.2 0-.1.3-.5.6-1.1.5-.8 1.4-1.8 2.4-2.3.6-.2 1-.2 1.1 0 .4.4-.4 1.6-2.6 2.8 0 0 .9 1.9 1.1 2.3v.1s.9-.4 2.1-1.5c.6-.5 1.1-1.2 1.4-1.8.1-.1.1-.3.1-.4 0-.1.1-.2.1-.2.2-.8-.1-1.6-.9-2-.8-.4-1.6-.4-2.4-.1 2.3-2.1 4.2-2.1 4.2-2.1v-1.9c-.2 0-1.1 0-2.2.6.4-.8.5-1.5.5-1.9V24c0-.2 0-1.1-.6-2.2 1.1.5 2 .6 2.2.6v-2.1zM35.9 60.7c-.2 0-.7 0-1.5.4.4-.8.4-1.3.4-1.5 0-.1 0-.7-.4-1.5.8.4 1.3.4 1.5.4.2 0 .7 0 1.5-.4-.4.7-.4 1.3-.4 1.5 0 .1 0 .7.4 1.5-.8-.4-1.4-.4-1.5-.4zm1.5 214.6c-.8-.4-1.3-.4-1.5-.4-.1 0-.7 0-1.5.4.4-.8.4-1.3.4-1.5 0-.2 0-.7-.4-1.5.8.4 1.3.4 1.5.4.2 0 .7 0 1.5-.4-.4.8-.4 1.3-.4 1.5 0 .2 0 .8.4 1.5zm211.2-2.9c.8.4 1.3.4 1.5.4s.7 0 1.5-.4c-.4.8-.4 1.3-.4 1.5 0 .1 0 .7.4 1.5-.8-.4-1.3-.4-1.5-.4s-.7 0-1.5.4c.4-.8.4-1.3.4-1.5 0-.2 0-.8-.4-1.5zM212.2 93.1c1.1.5 2 .6 2.2.6.2 0 1.1 0 2.2-.6-.5 1.1-.6 2-.6 2.2 0 .2 0 1.1.6 2.2-1.1-.5-2-.6-2.2-.6-.2 0-1.1 0-2.2.6.5-1.1.6-2 .6-2.2 0-.3-.1-1.1-.6-2.2zm-35-35c.8.4 1.3.4 1.5.4.2 0 .7 0 1.5-.4-.4.8-.4 1.3-.4 1.5 0 .1 0 .7.4 1.5-.8-.4-1.3-.4-1.5-.4-.2 0-.7 0-1.5.4.4-.8.4-1.3.4-1.5 0-.2 0-.8-.4-1.5zM143 22.2c.2 0 1.1 0 2.2-.6-.5 1.1-.6 2-.6 2.2 0 .2 0 1.1.6 2.2-1.1-.5-2-.6-2.2-.6-.2 0-1.1 0-2.2.6.4-.8.5-1.5.5-1.9v-.3c0-.2 0-1.1-.6-2.2 1.2.6 2.1.6 2.3.6zm-37.2 35.9c.8.3 1.3.4 1.5.4.1 0 .7 0 1.5-.4-.4.8-.4 1.3-.4 1.5 0 .2 0 .7.4 1.5-.8-.4-1.3-.4-1.5-.4-.1 0-.7 0-1.5.4.4-.8.4-1.3.4-1.5 0-.2 0-.8-.4-1.5zm-28.5 33c-.3.7-.3 1.5.1 2.4.8 1.6 3.1.9 4.5-.7 1.1-1.3 1.5-2.1 1.5-2.1L81 89.5c-1.7 3.2-3.6 3.4-2.8 1.5.4-1.1 1.5-1.9 2.2-2.4.6-.4 1-.6 1.1-.6 2-1.1 3.6-1.5 4.7-1.5 2.9 0 3.2 2.8 1.5 5.2H93s2.9-2 2.1-4.3c-1-2.6-5.6-4.7-12.6-1.4l21.8-22c.9-.9 2-1.4 3.2-1.5h.4c.3 0 1.3 0 2.7.7.1 0 .1 0 .1-.1-.6-1.4-.7-2.4-.7-2.7V60c.1-1.2.7-2.3 1.6-3.2L133.4 35c-.2.4-.4.8-.5 1.2-.1.1-.1.3-.1.4-.1.4-.3.7-.4 1.1 0 .1-.1.3-.1.4-.1.3-.2.6-.2.9 0 .1 0 .2-.1.4-.1.3-.1.6-.1.9v.3c0 .3-.1.6-.1.9v1.2c.2 2.7 1.6 4.5 3.1 5.1 2.3.9 4.3-2.1 4.3-2.1v-5.3c-.4.3-.8.5-1.2.7-3 1.3-5.9-.7-2.5-6.9.1-.1.3-.5.6-1.1.5-.8 1.4-1.8 2.4-2.2.6-.2 1-.2 1.1 0 .4.4-.4 1.6-2.6 2.8 0 0 1.1 2.3 1.2 2.4s.9-.4 2.1-1.5c.6-.5 1.1-1.2 1.3-1.8.1-.2.1-.3.2-.5v-.1c.2-.8-.1-1.6-.9-2-.8-.4-1.6-.4-2.4-.1 2.3-2.1 4.2-2.1 4.2-2.1s1.9-.1 4.2 2.1c-.7-.3-1.5-.3-2.4.1-.4.2-.7.5-.8.9-.4 1 .3 2.6 1.5 3.7 1.3 1.1 2.1 1.5 2.1 1.5l1.2-2.4c-2.2-1.2-3-2.4-2.6-2.8.2-.2.6-.2 1.1 0 1.1.4 1.9 1.5 2.4 2.3.4.5.6 1 .6 1.1 2.9 5.3 1.3 7.5-1.1 7.3h-.1c-.2 0-.4-.1-.5-.1-.2-.1-.4-.1-.6-.2 0 0-.1 0-.1-.1-.1-.1-.3-.1-.4-.2-.1 0-.1-.1-.2-.1-.1-.1-.3-.2-.4-.3l-.1-.1V46s2 2.9 4.3 2.1c1.5-.6 2.9-2.3 3.1-5.1v-1.3c0-.3 0-.6-.1-.9v-.3c0-.3-.1-.6-.2-.9 0-.1 0-.2-.1-.3-.1-.3-.2-.7-.3-1.1 0-.1 0-.1-.1-.2-.3-.9-.6-1.7-1.1-2.7l21.9 21.9c.9.9 1.4 2 1.6 3.2v.4c0 .3 0 1.3-.7 2.7 0 .1 0 .1.1.1 1.4-.6 2.4-.7 2.7-.7h.4c1.2.1 2.3.7 3.2 1.6l21.9 21.9c-7-3.3-11.7-1.2-12.7 1.4-.8 2.3 2.1 4.3 2.1 4.3h5.3c-2.5-3.4-.8-7.5 6.2-3.7.1.1.5.3 1.1.6.8.5 1.8 1.4 2.2 2.4.8 1.9-1.1 1.8-2.8-1.5l-2.4 1.2s.4.9 1.5 2.1c1.4 1.6 3.7 2.3 4.5.7.4-.8.4-1.7.1-2.4 2.2 2.3 2.1 4.2 2.1 4.2s.1 1.9-2.1 4.2c.3-.7.3-1.5-.1-2.4-.8-1.7-3.1-.9-4.5.7-1.1 1.3-1.5 2.1-1.5 2.1l2.4 1.2c1.7-3.2 3.6-3.4 2.8-1.5-.4 1.1-1.4 1.9-2.2 2.4-.5.3-1 .6-1.1.6-2 1.1-3.6 1.5-4.7 1.5-2.9 0-3.2-2.8-1.5-5.2H193s-2.9 2-2.1 4.3c1 2.6 5.7 4.8 12.7 1.4l-21.9 21.9c-.9.9-2 1.4-3.2 1.6h-.4c-.3 0-1.3-.1-2.7-.7-.1 0-.2 0-.1.1.6 1.4.7 2.4.7 2.7v.4c-.1 1.2-.7 2.3-1.5 3.2l-21.9 21.9c3.4-7 1.3-11.7-1.4-12.7-2.3-.8-4.3 2.1-4.3 2.1v5.3c3.4-2.5 7.5-.8 3.7 6.2 0 .1-.3.5-.6 1.1-.5.8-1.4 1.8-2.4 2.2-1.9.8-1.8-1.1 1.5-2.8l-1.2-2.4s-.9.4-2.1 1.5c-1.6 1.4-2.3 3.7-.7 4.5.8.4 1.7.4 2.4.1-2.3 2.1-4.2 2.1-4.2 2.1s-1.9.1-4.2-2.1c.7.3 1.5.3 2.4-.1 1.6-.8.9-3.1-.7-4.5-1.3-1.1-2.1-1.5-2.1-1.5l-1.2 2.4c3.2 1.7 3.4 3.6 1.5 2.8-1.1-.4-1.9-1.5-2.4-2.3-.3-.5-.6-.9-.6-1.1-3.8-7 .3-8.7 3.7-6.2v-5.3s-2-2.9-4.3-2.1c-2.7 1-4.8 5.7-1.4 12.7l-22.3-22c-.9-.9-1.4-2-1.6-3.2v-.4c0-.3 0-1.3.7-2.7.1-.1 0-.2-.1-.1-1.4.6-2.4.7-2.7.7h-.4c-1.2-.1-2.3-.7-3.2-1.5l-21.9-21.9c7 3.4 11.7 1.2 12.7-1.4C96 100.9 93 99 93 99h-5.3c2.5 3.4.8 7.5-6.2 3.7-.1 0-.5-.3-1.1-.6-.8-.5-1.8-1.4-2.2-2.4-.8-1.9 1-1.8 2.8 1.5l2.4-1.2s-.4-1-1.5-2.3c-1.4-1.6-3.7-2.3-4.5-.7-.4.8-.4 1.6-.1 2.4-2.2-2.3-2.1-4.2-2.1-4.2s-.1-1.8 2.1-4.1zm102.9 41.4c-.8-.4-1.3-.4-1.5-.4-.2 0-.7 0-1.5.4.4-.8.4-1.3.4-1.5 0-.2 0-.7-.4-1.5.8.4 1.3.4 1.5.4.1 0 .7 0 1.5-.4-.4.8-.4 1.3-.4 1.5 0 .2.1.7.4 1.5zm-35 36.4c-1.1-.5-2-.6-2.2-.6-.2 0-1.1 0-2.2.6.5-1.1.6-2 .6-2.2 0-.2 0-1.1-.6-2.2 1.1.5 2 .6 2.2.6.2 0 1.1 0 2.2-.6-.5 1.1-.6 2-.6 2.2 0 .2.1 1.1.6 2.2zm-36.4-36.4c-.8-.4-1.3-.4-1.5-.4s-.7 0-1.5.4c.4-.8.4-1.3.4-1.5 0-.2 0-.7-.4-1.5.8.4 1.3.4 1.5.4s.7 0 1.5-.4c-.4.8-.4 1.3-.4 1.5 0 .2 0 .7.4 1.5zM69.4 93.1c1.1.5 2 .6 2.2.6.2 0 1.1 0 2.2-.6-.5 1.1-.6 2-.6 2.2 0 .2 0 1.1.6 2.2-1.1-.5-2-.6-2.2-.6-.2 0-1.1 0-2.2.6.5-1.1.6-2 .6-2.2-.1-.3-.1-1.1-.6-2.2zm-33.6 36.8c.1 0 .1 0 0 0 .2 0 .7 0 1.5-.4-.4.8-.4 1.3-.4 1.5 0 .2 0 .7.4 1.5-.8-.4-1.3-.4-1.5-.4-.1 0-.7 0-1.5.4.4-.8.4-1.3.4-1.5 0-.2 0-.7-.4-1.5.8.3 1.4.4 1.5.4zm1.6 74c-.8-.3-1.3-.4-1.5-.4-.2 0-.7 0-1.5.4.4-.8.4-1.3.4-1.5 0-.1 0-.7-.4-1.5.8.4 1.3.4 1.5.4.2 0 .7 0 1.5-.4-.4.8-.4 1.3-.4 1.5 0 .2 0 .7.4 1.5zm30 28.5c.7.3 1.6.3 2.4-.1 1.6-.8.9-3.1-.7-4.5-1.3-1.1-2.1-1.5-2.1-1.5l-1.2 2.4c3.2 1.7 3.4 3.6 1.5 2.8-1.1-.4-1.9-1.5-2.4-2.2-.3-.5-.6-1-.6-1.1-1.1-2-1.5-3.6-1.5-4.7 0-2.9 2.8-3.2 5.2-1.5v-5.3s-2-2.9-4.3-2.1c-2.6 1-4.8 5.6-1.4 12.6l-21.9-21.9c-.9-.9-1.4-2-1.5-3.2v-.4c0-.3 0-1.3.7-2.7 0-.1 0-.2-.1-.1-1.4.6-2.4.7-2.7.7h-.4c-1.2-.1-2.3-.7-3.2-1.6L11 176.1c7 3.3 11.7 1.2 12.7-1.4.8-2.3-2.1-4.3-2.1-4.3h-5.3c2.5 3.4.8 7.5-6.2 3.7-.1 0-.5-.3-1.1-.6-.8-.5-1.8-1.4-2.2-2.4-.8-1.9 1.1-1.8 2.8 1.5l2.4-1.2s-.4-.9-1.5-2.1c-1.4-1.6-3.7-2.3-4.5-.7-.4.8-.4 1.7-.1 2.4-2.1-2.3-2.1-4.2-2.1-4.2s-.1-1.9 2.1-4.2c-.3.7-.3 1.5.1 2.4.8 1.7 3.1.9 4.5-.7 1.1-1.3 1.5-2.1 1.5-2.1L9.6 161c-1.7 3.2-3.6 3.4-2.8 1.5.4-1.1 1.5-1.9 2.3-2.5.5-.4 1-.6 1.1-.6 2-1.1 3.6-1.5 4.7-1.5 2.9 0 3.2 2.8 1.5 5.2h5.3s2.9-2 2.1-4.3c-1-2.6-5.6-4.7-12.6-1.4L33 135.6c.9-.9 2-1.4 3.2-1.6h.4c.3 0 1.3 0 2.7.7h.1v-.1c-.6-1.4-.7-2.4-.7-2.7v-.4c.1-1.2.7-2.3 1.5-3.2l21.9-21.9c-3.4 7-1.2 11.7 1.4 12.7 2.3.8 4.3-2.1 4.3-2.1v-5.3c-3.4 2.5-7.5.8-3.7-6.2 0-.1.3-.5.6-1.1.5-.8 1.4-1.8 2.4-2.2 1.9-.8 1.8 1.1-1.5 2.8l1.2 2.4s.9-.4 2.1-1.5c1.6-1.4 2.3-3.7.7-4.5-.8-.4-1.7-.4-2.4-.1 2.3-2.2 4.2-2.1 4.2-2.1s1.9-.1 4.2 2.1c-.7-.3-1.5-.3-2.4.1-1.6.8-.9 3.1.7 4.5 1.3 1.1 2.1 1.5 2.1 1.5l1.2-2.4c-3.2-1.7-3.4-3.6-1.5-2.8 1.1.4 1.9 1.5 2.4 2.3.4.5.6 1 .6 1.1 3.8 7-.3 8.7-3.7 6.2v5.3s2 2.9 4.3 2.1c2.6-1 4.7-5.6 1.4-12.6l21.8 21.8c.9.9 1.4 2 1.5 3.2v.4c0 .3 0 1.3-.7 2.7 0 .1 0 .1.1.1 1.4-.6 2.4-.7 2.7-.7h.4c1.2.1 2.3.7 3.2 1.6l21.8 21.8c-7-3.3-11.7-1.2-12.6 1.4-.9 2.3 2.1 4.3 2.1 4.3h5.3c-2.5-3.4-.8-7.5 6.2-3.7.1.1.5.3 1.1.6.8.5 1.8 1.4 2.2 2.4.8 1.9-1.1 1.8-2.8-1.5l-2.4 1.2s.4.9 1.5 2.1c1.4 1.6 3.7 2.3 4.5.7.4-.8.4-1.6.1-2.4 2.1 2.3 2.1 4.2 2.1 4.2s.1 1.9-2.1 4.2c.3-.7.3-1.5-.1-2.4-.8-1.6-3.1-.9-4.5.7-1.1 1.3-1.5 2.1-1.5 2.1l2.4 1.2c1.7-3.2 3.6-3.4 2.8-1.5-.4 1.1-1.4 1.9-2.2 2.4-.5.4-1 .6-1.1.6-2 1.1-3.6 1.5-4.7 1.5-2.9 0-3.2-2.8-1.5-5.2H121s-2.9 2-2.1 4.3c1 2.6 5.6 4.7 12.6 1.4L110.3 198c-.9.9-2 1.4-3.2 1.5h-.4c-.3 0-1.3 0-2.7-.7h-.1v.1c.6 1.4.7 2.4.7 2.7v.4c-.1 1.2-.7 2.3-1.5 3.2L81 227.3c3.4-7 1.2-11.7-1.4-12.7-2.3-.9-4.3 2.1-4.3 2.1v5.3c3.4-2.5 7.5-.8 3.7 6.2 0 .1-.3.5-.6 1.1-.5.8-1.4 1.8-2.4 2.2-1.9.8-1.8-1.1 1.5-2.8l-1.2-2.4s-.9.4-2.1 1.5c-1.6 1.4-2.3 3.7-.7 4.5.8.4 1.7.4 2.4.1-2.3 2.2-4.2 2.1-4.2 2.1s-2 .1-4.3-2.1zm38.4-31.5c.8.3 1.3.4 1.5.4.1 0 .7 0 1.5-.4-.4.8-.4 1.3-.4 1.5 0 .2 0 .7.4 1.5-.8-.4-1.3-.4-1.5-.4-.1 0-.7 0-1.5.4.4-.8.4-1.3.4-1.5 0-.1 0-.7-.4-1.5zm-32 39.4c-1.1-.5-2-.6-2.2-.6-.2 0-1.1 0-2.2.6.5-1.1.6-2 .6-2.2 0-.2 0-1.1-.6-2.2 1.1.5 2 .6 2.2.6.2 0 1.1 0 2.2-.6-.5 1.1-.6 2-.6 2.2 0 .3.1 1.1.6 2.2zm35 35c-.8-.4-1.3-.4-1.5-.4-.2 0-.7 0-1.5.4.4-.8.4-1.3.4-1.5 0-.2 0-.7-.4-1.5.8.4 1.3.4 1.5.4s.7 0 1.5-.4c-.3.8-.4 1.3-.4 1.5 0 .2 0 .7.4 1.5zm69.9-.4c-.2 0-.7 0-1.5.4.4-.8.4-1.3.4-1.5 0-.2 0-.7-.4-1.5.8.4 1.3.4 1.5.4.2 0 .7 0 1.5-.4-.4.8-.4 1.3-.4 1.5 0 .2 0 .7.4 1.5-.8-.3-1.3-.4-1.5-.4zm30.1-32.6c.3-.7.3-1.5-.1-2.4-.8-1.7-3.1-.9-4.5.7-1.1 1.3-1.5 2.1-1.5 2.1l2.4 1.2c1.7-3.2 3.6-3.4 2.8-1.5-.4 1.1-1.4 1.9-2.2 2.4-.5.3-1 .6-1.1.6-2 1.1-3.6 1.5-4.7 1.5-2.9 0-3.3-2.8-1.5-5.2H193s-2.9 2-2.1 4.3c1 2.6 5.6 4.7 12.6 1.4l-21.8 21.8c-.9.9-2 1.4-3.2 1.6h-.4c-.3 0-1.3-.1-2.7-.7h-.1v.1c.6 1.4.7 2.4.7 2.7v.4c-.1 1.2-.7 2.3-1.5 3.2l-21.9 21.9c3.4-7 1.2-11.7-1.4-12.7-2.3-.8-4.3 2.1-4.3 2.1v5.3c3.4-2.5 7.5-.8 3.7 6.2 0 .1-.3.5-.6 1.1-.5.8-1.4 1.8-2.4 2.2-1.9.8-1.8-1.1 1.5-2.8l-1.2-2.4s-.9.4-2.1 1.5c-1.6 1.4-2.3 3.7-.7 4.5.8.4 1.7.4 2.4.1-2.3 2.1-4.2 2.1-4.2 2.1s-1.9.1-4.2-2.1c.7.3 1.5.3 2.4-.1 1.6-.8.9-3.1-.7-4.5-1.3-1.1-2.1-1.5-2.1-1.5l-1.2 2.4c3.2 1.7 3.4 3.6 1.5 2.8-1.1-.4-1.9-1.5-2.4-2.3-.3-.5-.6-.9-.6-1.1-1.1-2-1.5-3.6-1.5-4.7 0-2.9 2.8-3.2 5.2-1.5v-5.3s-2-2.9-4.3-2.1c-2.6 1-4.7 5.6-1.4 12.6l-21.8-21.8c-.9-.9-1.4-2-1.5-3.2v-.4c0-.3 0-1.3.7-2.7v-.1h-.1c-1.4.6-2.4.7-2.7.7h-.4c-1.2-.1-2.3-.7-3.2-1.5l-21.9-21.9c7 3.3 11.7 1.2 12.6-1.4.9-2.3-2.1-4.3-2.1-4.3h-5.3c2.5 3.4.8 7.5-6.2 3.7-.1 0-.5-.3-1.1-.6-.8-.5-1.8-1.4-2.2-2.4-.8-1.9 1-1.8 2.8 1.5l2.4-1.2s-.4-.9-1.5-2.1c-1.4-1.6-3.7-2.3-4.5-.7-.4.8-.4 1.7-.1 2.4-2.2-2.3-2.1-4.2-2.1-4.2s-.1-1.9 2.1-4.2c-.3.7-.3 1.5.1 2.4.8 1.6 3.1.9 4.5-.7 1.1-1.3 1.5-2.1 1.5-2.1l-2.4-1.2c-1.7 3.2-3.6 3.4-2.8 1.5.4-1.1 1.5-1.9 2.2-2.4.6-.4 1-.6 1.1-.6 2-1.1 3.6-1.5 4.7-1.5 2.9 0 3.2 2.8 1.5 5.2H93s2.9-2 2.1-4.3c-1-2.6-5.6-4.7-12.6-1.4l21.8-21.8c.9-.9 2-1.4 3.2-1.5h.4c.3 0 1.3 0 2.7.7h.1v-.1c-.6-1.4-.7-2.4-.7-2.7v-.4c.1-1.2.7-2.3 1.6-3.2l21.9-21.9c-3.4 7-1.2 11.7 1.4 12.7 2.3.9 4.3-2.1 4.3-2.1v-5.3c-3.4 2.5-7.5.8-3.7-6.2.1-.1.3-.5.6-1.1.5-.8 1.4-1.8 2.4-2.2 1.9-.8 1.8 1.1-1.5 2.8l1.2 2.4s.9-.4 2.1-1.5c1.6-1.4 2.3-3.7.7-4.5-.8-.4-1.7-.4-2.4-.1 2.3-2.1 4.2-2.1 4.2-2.1s1.9-.1 4.2 2.1c-.7-.3-1.5-.3-2.4.1-1.7.8-.9 3.1.7 4.5 1.3 1.1 2.1 1.5 2.1 1.5l1.2-2.4c-3.2-1.7-3.4-3.6-1.5-2.8 1.1.4 1.9 1.5 2.5 2.3.4.5.6 1 .6 1.1 1.1 2 1.5 3.6 1.5 4.7 0 2.9-2.8 3.2-5.2 1.5v5.3s2 2.9 4.3 2.1c2.6-1 4.7-5.6 1.4-12.6l21.8 21.8c.9.9 1.4 2 1.6 3.2v.4c0 .3 0 1.3-.7 2.7v.1h.1c1.4-.6 2.4-.7 2.7-.7h.4c1.2.1 2.3.7 3.2 1.6l21.9 21.9c-7-3.4-11.7-1.2-12.7 1.4-.8 2.3 2.1 4.3 2.1 4.3h5.3c-2.5-3.4-.8-7.5 6.2-3.7.1 0 .5.3 1.1.6.8.5 1.8 1.4 2.2 2.4.8 1.9-1.1 1.8-2.8-1.5l-2.4 1.2s.4.9 1.5 2.1c1.4 1.6 3.7 2.3 4.5.7.4-.8.4-1.7.1-2.4 2.2 2.3 2.1 4.2 2.1 4.2s.5 1.7-1.6 4zm-28.6-38.4c-.8-.4-1.3-.4-1.5-.4-.2 0-.7 0-1.5.4.3-.7.4-1.3.4-1.5 0-.1 0-.7-.4-1.5.8.4 1.3.4 1.5.4.2 0 .7 0 1.5-.4-.4.8-.4 1.3-.4 1.5 0 .2.1.7.4 1.5zm36.4 36.4c-1.1-.5-2-.6-2.2-.6-.2 0-1.1 0-2.2.6.5-1.1.6-2 .6-2.2 0-.2 0-1.1-.6-2.2 1.1.5 2 .6 2.2.6.2 0 1.1 0 2.2-.6-.5 1.1-.6 2-.6 2.2.1.3.1 1.1.6 2.2zm35-36.4c-.8-.3-1.3-.4-1.5-.4-.1 0-.7 0-1.5.4.4-.8.4-1.3.4-1.5 0-.2 0-.7-.4-1.5.8.4 1.3.4 1.5.4.2 0 .7 0 1.5-.4-.3.8-.4 1.3-.4 1.5.1.2.1.7.4 1.5zm-2.9-74.4c.8.4 1.3.4 1.5.4s.7 0 1.5-.4c-.4.8-.4 1.3-.4 1.5 0 .2 0 .7.4 1.5-.8-.4-1.3-.4-1.5-.4-.2 0-.7 0-1.5.4.3-.8.4-1.3.4-1.5-.1-.2-.1-.7-.4-1.5zM218.6 101c-.7-.3-1.5-.3-2.4.1-1.6.8-.9 3.1.7 4.5 1.3 1.1 2.1 1.5 2.1 1.5l1.2-2.4c-3.2-1.7-3.4-3.6-1.5-2.8 1.1.4 1.9 1.5 2.4 2.3.4.5.6 1 .6 1.1 3.8 7-.3 8.7-3.7 6.2v5.3s2 2.9 4.3 2.1c2.6-1 4.8-5.6 1.4-12.7l21.9 21.9c.9.9 1.4 2 1.5 3.2v.4c0 .3 0 1.3-.7 2.7v.1h.1c1.4-.6 2.4-.7 2.7-.7h.4c1.2.1 2.3.7 3.2 1.5l21.9 21.9c-7-3.4-11.8-1.3-12.7 1.4-.9 2.3 2.1 4.3 2.1 4.3h5.3c-2.5-3.4-.8-7.5 6.2-3.7.1.1.5.3 1.1.6.8.5 1.8 1.4 2.2 2.4.8 1.9-1.1 1.8-2.8-1.5l-2.4 1.2s.4.9 1.5 2.1c1.4 1.6 3.7 2.3 4.5.7.4-.8.4-1.6.1-2.4 2.1 2.3 2.1 4.2 2.1 4.2s.1 1.9-2.1 4.2c.3-.7.3-1.5-.1-2.4-.8-1.6-3.1-.9-4.5.7-1.1 1.3-1.5 2.1-1.5 2.1l2.4 1.2c1.7-3.2 3.6-3.4 2.8-1.5-.4 1.1-1.4 1.9-2.2 2.4-.5.4-1 .6-1.1.6-2 1.1-3.6 1.5-4.7 1.5-2.9 0-3.2-2.8-1.5-5.2h-5.3s-2.9 2-2.1 4.3c1 2.6 5.6 4.7 12.7 1.4L253.1 198c-.9.9-2 1.4-3.2 1.5h-.4c-.3 0-1.3 0-2.7-.7-.1 0-.2 0-.1.1.6 1.4.7 2.4.7 2.7v.4c-.1 1.2-.7 2.3-1.6 3.2l-21.9 21.9c3.3-7 1.2-11.7-1.4-12.7-2.3-.9-4.3 2.1-4.3 2.1v5.3c3.4-2.5 7.5-.8 3.7 6.2v.2c-.1.2-.3.5-.6.9-.5.8-1.4 1.8-2.4 2.2-1.9.8-1.8-1.1 1.5-2.8l-1.2-2.4s-.9.4-2.1 1.5c-1.6 1.4-2.3 3.7-.7 4.5.8.4 1.7.4 2.4.1-2.3 2.2-4.2 2.1-4.2 2.1s-1.9.1-4.2-2.1c.7.3 1.5.3 2.4-.1 1.7-.8.9-3.1-.7-4.5-1.3-1.1-2.1-1.5-2.1-1.5l-1.2 2.4c3.2 1.7 3.4 3.6 1.5 2.8-1.1-.4-1.9-1.5-2.5-2.2-.3-.5-.6-1-.6-1.1-1.1-2-1.5-3.6-1.5-4.7 0-2.9 2.8-3.2 5.2-1.5v-5.3s-2-2.9-4.3-2.1c-2.6 1-4.7 5.6-1.4 12.6l-21.8-21.8c-.9-.9-1.4-2-1.6-3.2v-.4c0-.3 0-1.3.7-2.7v-.1h-.1c-1.4.6-2.4.7-2.7.7h-.4c-1.2-.1-2.3-.7-3.2-1.6L154.2 176c7 3.4 11.7 1.2 12.7-1.4.8-2.3-2.1-4.3-2.1-4.3h-5.3c2.5 3.4.8 7.5-6.2 3.7-.1 0-.5-.3-1.1-.6-.8-.5-1.8-1.4-2.2-2.4-.8-1.9 1.1-1.8 2.8 1.5l2.4-1.2s-.4-.9-1.5-2.1c-1.4-1.6-3.7-2.3-4.5-.7-.4.8-.4 1.7-.1 2.4-2.1-2.3-2.1-4.2-2.1-4.2s-.1-1.9 2.1-4.2c-.3.7-.3 1.5.1 2.4.8 1.7 3.1.9 4.5-.7 1.1-1.3 1.5-2.1 1.5-2.1l-2.4-1.2c-1.7 3.2-3.6 3.4-2.8 1.5.4-1.1 1.5-1.9 2.3-2.5.5-.4 1-.6 1.1-.6 2-1.1 3.6-1.5 4.7-1.5 2.9 0 3.2 2.8 1.5 5.2h5.3s2.9-2 2.1-4.3c-1-2.6-5.6-4.7-12.6-1.4l21.8-21.8c.9-.9 2-1.4 3.2-1.6h.4c.3 0 1.3 0 2.7.7.1 0 .1 0 .1-.1-.6-1.4-.7-2.4-.7-2.7v-.4c.1-1.2.7-2.3 1.6-3.2l21.8-21.8c-3.3 7-1.2 11.6 1.4 12.6 2.3.8 4.3-2.1 4.3-2.1v-5.3c-3.4 2.5-7.5.8-3.7-6.2.1-.1.3-.5.6-1.1.5-.8 1.4-1.8 2.4-2.2 1.9-.8 1.8 1.1-1.5 2.8l1.2 2.4s.9-.4 2.1-1.5c1.6-1.4 2.3-3.7.7-4.5-.8-.4-1.7-.4-2.4-.1 2.3-2.2 4.2-2.1 4.2-2.1s1.7-.3 4 1.9zm31.6-40.3c-.2 0-.7 0-1.5.4.4-.8.4-1.3.4-1.5 0-.2 0-.7-.4-1.5.8.4 1.3.4 1.5.4.1 0 .7 0 1.5-.4-.4.8-.4 1.3-.4 1.5 0 .2 0 .7.4 1.5-.8-.4-1.4-.4-1.5-.4z" fill="#012e23"/></svg>