<?xml version="1.0" encoding="utf-8"?>
<!-- Generator: Adobe Illustrator 27.1.1, SVG Export Plug-In . SVG Version: 6.00 Build 0)  -->
<svg version="1.1" id="Layer_1" xmlns="http://www.w3.org/2000/svg" xmlns:xlink="http://www.w3.org/1999/xlink" x="0px" y="0px"
	 viewBox="0 0 286 309.5" style="enable-background:new 0 0 286 309.5;" xml:space="preserve">
<path style="fill:#012E23;" d="M285.8,20.3c0,0-1.9,0.1-4.2-2.1c0.7,0.3,1.5,0.3,2.4-0.1c1.7-0.8,0.9-3.1-0.7-4.5
	c-1.3-1.1-2.1-1.5-2.1-1.5s-1.2,2.4-1.2,2.4c3.2,1.7,3.4,3.6,1.5,2.8c-1.1-0.4-1.9-1.4-2.4-2.2c0,0,0,0,0,0c-0.4-0.5-0.6-1-0.6-1.1
	h0c0,0,0,0,0,0c0,0,0,0,0,0c0,0,0,0,0,0c0,0,0,0,0,0c-3.8-7,0.3-8.7,3.7-6.2V2.4c0,0-2-2.9-4.3-2.1c-3,1.1-5.4,7.1,0.5,16
	c-8.8-5.9-14.9-3.5-16-0.5c-0.9,2.3,2.1,4.3,2.1,4.3l5.3,0c-2.5-3.4-0.8-7.5,6.2-3.7c0,0,0,0,0,0c0,0,0,0,0,0c0,0,0,0,0,0
	c0.1,0,0.5,0.2,1.1,0.6c0.8,0.5,1.8,1.4,2.3,2.4c0.8,1.9-1.1,1.8-2.8-1.5c0,0-2.4,1.2-2.4,1.2s0.4,0.9,1.5,2.1
	c1.4,1.6,3.7,2.3,4.5,0.7c0.4-0.8,0.4-1.7,0.1-2.4c2.1,2.3,2.1,4.2,2.1,4.2s0,0,0,0.1c0,0.4-0.2,2.1-2.1,4.1c0.2-0.5,0.2-1,0.2-1.5
	c0-0.3-0.1-0.6-0.3-0.9c-0.8-1.6-3.1-0.9-4.5,0.7c-1.1,1.3-1.5,2.1-1.5,2.1s0,0,0,0c0,0,0,0,0,0s2.4,1.2,2.4,1.2
	c1.2-2.2,2.4-3,2.8-2.6c0.2,0.2,0.2,0.6,0,1.1c-0.4,1.1-1.4,1.9-2.2,2.4c-0.5,0.4-1,0.6-1.1,0.6c0,0,0,0,0,0c0,0,0,0,0,0
	c0,0,0,0,0,0c-0.1,0.1-0.3,0.1-0.4,0.2c-0.2,0.1-0.3,0.2-0.5,0.2c-0.3,0.1-0.6,0.3-0.8,0.4c-0.1,0.1-0.3,0.1-0.4,0.2
	c-0.2,0.1-0.3,0.1-0.5,0.2c-0.2,0.1-0.4,0.1-0.6,0.2c-0.1,0-0.3,0.1-0.4,0.1c-0.2,0-0.3,0.1-0.5,0.1c-0.1,0-0.2,0-0.3,0
	c-0.2,0-0.3,0-0.5,0c-0.1,0-0.2,0-0.2,0c-0.4,0-0.8-0.1-1.1-0.3c0,0,0,0-0.1,0c-1.4-0.8-1.3-3,0.1-4.8h0c0,0,0,0,0,0h-5.3
	c0,0-2.9,2-2.1,4.3c0.2,0.6,0.6,1.1,1.1,1.6c0,0,0.1,0,0.1,0.1c0.1,0.1,0.3,0.2,0.5,0.3c0,0,0.1,0.1,0.2,0.1
	c0.1,0.1,0.3,0.2,0.5,0.3c0.1,0,0.1,0.1,0.2,0.1c0.2,0.1,0.3,0.1,0.5,0.2c0.1,0,0.2,0.1,0.3,0.1c0,0,0,0,0.1,0
	c0.4,0.1,0.9,0.2,1.4,0.3c0.1,0,0.1,0,0.2,0c0.2,0,0.5,0,0.7,0c0.1,0,0.2,0,0.2,0c0.3,0,0.5,0,0.8,0c0.1,0,0.1,0,0.2,0
	c0.3,0,0.6-0.1,0.9-0.1c0,0,0.1,0,0.1,0c1.4-0.2,3-0.7,4.7-1.5l-21.8,21.8c-0.9,0.9-2,1.4-3.2,1.5c-0.2,0-0.3,0-0.4,0h0
	c-0.3,0-1.3,0-2.7-0.7c0,0-0.1,0-0.1,0c0,0,0,0.1,0,0.1c0.6,1.4,0.7,2.4,0.7,2.7c0,0.1,0,0.2,0,0.4c-0.1,1.2-0.7,2.3-1.6,3.2
	l-21.9,21.9c3.4-7,1.2-11.7-1.4-12.7c-2.3-0.9-4.3,2.1-4.3,2.1v5.3c3.4-2.5,7.5-0.8,3.7,6.2c0,0,0,0,0,0c0,0,0,0,0,0
	c0,0.1-0.3,0.5-0.6,1.1c-0.5,0.8-1.4,1.8-2.4,2.2c-1.9,0.8-1.8-1.1,1.5-2.8c0,0-1.2-2.4-1.2-2.4s-0.9,0.4-2.1,1.5
	c-1.6,1.4-2.3,3.7-0.7,4.5c0.8,0.4,1.7,0.4,2.4,0.1c-2.3,2.1-4.2,2.1-4.2,2.1s-1.9,0.1-4.2-2.1c0.7,0.3,1.5,0.3,2.4-0.1
	c1.7-0.8,0.9-3.1-0.7-4.5c-1.3-1.1-2.1-1.5-2.1-1.5s-1.2,2.4-1.2,2.4c3.2,1.7,3.4,3.6,1.5,2.8c-1.1-0.4-1.9-1.5-2.5-2.2
	c-0.3-0.5-0.6-1-0.6-1.1c0,0,0,0,0,0c0,0,0,0,0,0v0c-1.1-2-1.5-3.6-1.5-4.7c0-2.9,2.8-3.2,5.2-1.5v-5.3c0,0-2-2.9-4.3-2.1
	c-2.6,1-4.7,5.6-1.4,12.6l-21.9-21.9c-0.9-0.9-1.4-2-1.6-3.2c0-0.2,0-0.3,0-0.4v0c0-0.3,0.1-1.3,0.7-2.7c0-0.1,0-0.2-0.1-0.1
	c-1.4,0.6-2.4,0.7-2.7,0.7c-0.1,0-0.2,0-0.4,0c-1.2-0.1-2.3-0.7-3.2-1.5l-21.8-21.8c1.7,0.8,3.3,1.3,4.7,1.5c0.1,0,0.1,0,0.2,0
	c0.3,0,0.6,0.1,0.9,0.1c0.1,0,0.2,0,0.3,0c0.3,0,0.5,0,0.7,0c0.1,0,0.2,0,0.3,0c0.2,0,0.4,0,0.6,0c0.2,0,0.3,0,0.4-0.1
	c0.1,0,0.3,0,0.4-0.1c0.3-0.1,0.6-0.1,0.8-0.2c0,0,0,0,0.1,0c0.3-0.1,0.5-0.2,0.7-0.3c0,0,0.1,0,0.1,0c0.2-0.1,0.4-0.2,0.6-0.3
	c0,0,0,0,0,0c0.9-0.6,1.5-1.3,1.7-2c0.8-2.3-2.1-4.3-2.1-4.3h-5.3c0,0,0,0,0,0h0c1.5,2.1,1.5,4.5-0.5,5.1c-1.2,0.3-3.1,0-5.7-1.4h0
	v0c0,0,0,0,0,0c-0.1,0-0.5-0.3-1.1-0.6h0c-0.8-0.5-1.8-1.4-2.2-2.4c-0.2-0.5-0.2-0.8-0.1-1c0.3-0.6,1.6,0.1,2.9,2.5c0,0,0,0,0,0
	c0.1,0,1.8-0.9,2.3-1.1c0.1,0,0.1-0.1,0.1-0.1l0,0c0,0,0,0,0,0s-0.4-0.9-1.5-2.1c-1.3-1.4-3.1-2.1-4.1-1.2c0,0,0,0,0,0
	c-0.1,0.1-0.3,0.3-0.4,0.5c0,0,0,0,0,0c0,0,0,0,0,0c-0.4,0.8-0.4,1.6-0.1,2.4c-2.1-2.3-2.1-4.2-2.1-4.2h0c0-0.1,0-1.9,2.1-4.2
	c-0.3,0.7-0.3,1.5,0.1,2.4c0.8,1.7,3.1,0.9,4.5-0.7c1.1-1.3,1.5-2.1,1.5-2.1s-2.4-1.2-2.4-1.2c-1.7,3.2-3.6,3.4-2.8,1.5
	c0.4-1.1,1.5-1.9,2.3-2.4c0.6-0.4,1-0.6,1.1-0.6c0,0,0,0,0,0c0,0,0,0,0,0c0,0,0,0,0,0c7-3.8,8.7,0.3,6.2,3.7l5.3,0
	c0,0,2.9-2,2.1-4.3c-1.1-3-7.1-5.4-16,0.5c5.9-8.8,3.5-14.9,0.5-16c-2.3-0.9-4.3,2.1-4.3,2.1v5.3c3.4-2.5,7.5-0.8,3.7,6.2
	c0,0,0,0,0,0c0,0,0,0,0,0c0,0,0,0,0,0c0,0,0,0,0,0h0c0,0.1-0.3,0.5-0.6,1.1c0,0,0,0,0,0c-0.5,0.8-1.4,1.8-2.4,2.2
	c-1.9,0.8-1.8-1.1,1.5-2.8c0,0-1.2-2.4-1.2-2.4s-0.9,0.4-2.1,1.5c-1.6,1.4-2.3,3.7-0.7,4.5c0.8,0.4,1.7,0.4,2.4,0.1
	c-2.3,2.1-4.2,2.1-4.2,2.1s-1.9,0.1-4.2-2.1c0.7,0.3,1.5,0.3,2.4-0.1c1.7-0.8,0.9-3.1-0.7-4.5c-1.3-1.1-2.1-1.5-2.1-1.5
	s-1.2,2.4-1.2,2.4c3.2,1.7,3.4,3.6,1.5,2.8c-1.1-0.4-1.9-1.5-2.4-2.2c-0.3-0.5-0.6-0.9-0.6-1.1c0,0,0,0,0,0c0,0,0,0,0,0c0,0,0,0,0,0
	c0,0,0,0,0,0c0,0,0,0,0,0c0,0,0,0,0,0c-3.8-7,0.3-8.7,3.7-6.2l0-5.3c0,0-2-2.9-4.3-2.1c-3,1.1-5.4,7.1,0.5,16
	c-8.8-5.9-14.9-3.5-16-0.5c-0.9,2.3,2.1,4.3,2.1,4.3l5.3,0c-2.5-3.4-0.8-7.5,6.2-3.7c0,0,0,0,0,0c0,0,0,0,0,0c0,0,0,0,0,0
	c0,0,0,0,0,0c0,0,0,0,0,0c0.1,0.1,0.5,0.3,1.1,0.6c0,0,0,0,0,0c0.8,0.5,1.8,1.4,2.2,2.4c0.8,1.9-1.1,1.8-2.8-1.5
	c0,0-2.4,1.2-2.4,1.2s0.4,0.9,1.5,2.1c1.4,1.6,3.7,2.3,4.5,0.7c0.4-0.8,0.4-1.7,0.1-2.4c2.1,2.3,2.1,4.2,2.1,4.2s0,0,0,0.1
	c0,0.4-0.2,2.1-2.1,4.1c0.3-0.7,0.3-1.5-0.1-2.4c0,0,0,0,0,0c0,0,0,0,0,0c-0.8-1.6-3.1-0.9-4.5,0.7c-1.1,1.3-1.5,2.1-1.5,2.1
	s0,0,0,0c0,0,0,0,0,0s0.6,0.3,1.3,0.6c0.6,0.3,1.1,0.5,1.1,0.6c0,0,0,0,0,0c1.2-2.2,2.4-3,2.8-2.6c0.2,0.2,0.2,0.6-0.1,1.1
	c-0.4,1.1-1.4,1.9-2.2,2.4c-0.5,0.4-1,0.6-1.1,0.6c0,0,0,0,0,0c0,0,0,0,0,0c0,0,0,0,0,0c-0.1,0.1-0.3,0.2-0.4,0.2
	c-0.1,0.1-0.3,0.1-0.4,0.2c-0.3,0.2-0.6,0.3-0.9,0.4c-0.1,0-0.2,0.1-0.3,0.1c-0.2,0.1-0.4,0.1-0.5,0.2c-0.2,0.1-0.4,0.1-0.5,0.2
	c-0.2,0-0.3,0.1-0.5,0.1c-0.2,0-0.3,0.1-0.5,0.1c-0.1,0-0.2,0-0.3,0c-0.2,0-0.3,0-0.5,0c-0.1,0-0.2,0-0.2,0c-0.4,0-0.8-0.1-1.1-0.3
	c0,0,0,0-0.1,0c-1.4-0.8-1.3-3,0.1-4.8h0c0,0,0,0,0,0h-5.3c0,0-2.9,2-2.1,4.3c0.2,0.6,0.6,1.1,1.1,1.6c0,0,0,0,0,0
	c0.2,0.1,0.3,0.3,0.5,0.4c0,0,0.1,0,0.1,0.1c0.2,0.1,0.3,0.2,0.5,0.3c0.1,0,0.1,0.1,0.2,0.1c0.2,0.1,0.4,0.2,0.6,0.2
	c0.1,0,0.1,0.1,0.2,0.1c0.3,0.1,0.5,0.2,0.8,0.2c0.2,0,0.4,0.1,0.5,0.1c0.1,0,0.2,0,0.3,0c0.2,0,0.4,0,0.7,0c0.1,0,0.2,0,0.3,0
	c0.2,0,0.5,0,0.7,0c0.1,0,0.2,0,0.3,0c0.3,0,0.5-0.1,0.8-0.1c0.1,0,0.2,0,0.3,0c0.3-0.1,0.6-0.1,0.9-0.2c0.1,0,0.1,0,0.2,0
	c1.1-0.3,2.3-0.7,3.6-1.3l-21.9,21.9c-0.9,0.9-2,1.4-3.2,1.5c-0.2,0-0.3,0-0.4,0h0c-0.3,0-1.3,0-2.7-0.7c-0.1,0-0.2,0-0.1,0.1
	c0.6,1.4,0.7,2.4,0.7,2.7c0,0.1,0,0.2,0,0.4c-0.1,1.2-0.7,2.3-1.5,3.2L81,84.4c3.3-7,1.2-11.7-1.4-12.7c-2.3-0.9-4.3,2.1-4.3,2.1
	v5.3c3.4-2.5,7.5-0.8,3.7,6.2l0,0c0,0,0,0,0,0c0,0,0,0,0,0v0c0,0,0,0,0,0c0,0,0,0,0,0.1l-0.5,0.9c-0.5,0.8-1.4,1.8-2.4,2.2
	c-1.9,0.8-1.8-1.1,1.5-2.8c0,0-1.2-2.4-1.2-2.4S75.3,83.8,74,85c-1.6,1.4-2.3,3.7-0.7,4.5c0.8,0.4,1.7,0.4,2.4,0.1
	c-2.3,2.1-4.2,2.1-4.2,2.1s-1.9,0.1-4.2-2.1c0.7,0.3,1.6,0.3,2.4-0.1c1.6-0.8,0.9-3.1-0.7-4.5c-1.3-1.1-2.1-1.5-2.1-1.5
	s-1.2,2.4-1.2,2.4c3.2,1.7,3.4,3.6,1.5,2.8c-1.1-0.4-1.9-1.5-2.4-2.2c-0.3-0.5-0.6-1-0.6-1.1c0,0,0,0,0,0c0,0,0,0,0,0s0,0,0,0
	c0,0,0,0,0,0c-1.1-2-1.5-3.6-1.5-4.7c0-2.9,2.8-3.2,5.2-1.5v-5.3c0,0-2-2.9-4.3-2.1c-2.6,1-4.7,5.6-1.4,12.6L40.3,62.5
	c-0.9-0.9-1.4-2-1.6-3.2c0-0.2,0-0.3,0-0.4v0c0-0.3,0.1-1.3,0.7-2.7c0,0,0-0.1,0-0.1c0,0-0.1,0-0.1,0c-1.4,0.6-2.4,0.7-2.7,0.7
	c-0.1,0-0.2,0-0.4,0c-1.2-0.1-2.3-0.7-3.2-1.6L11,33.3c0.9,0.4,1.7,0.7,2.5,1c0,0,0,0,0.1,0c0.3,0.1,0.6,0.2,0.9,0.3
	c0.1,0,0.2,0.1,0.3,0.1c0.3,0.1,0.5,0.1,0.8,0.2c0.1,0,0.2,0,0.4,0.1c0.2,0,0.5,0.1,0.7,0.1c0.1,0,0.3,0,0.4,0c0.2,0,0.4,0,0.7,0
	c0.1,0,0.3,0,0.4,0c0.2,0,0.4,0,0.6,0c0.2,0,0.3,0,0.5-0.1c0.1,0,0.3,0,0.4-0.1c0.3-0.1,0.6-0.1,0.8-0.2c0,0,0.1,0,0.1,0
	c0.2-0.1,0.4-0.2,0.6-0.3c0,0,0.1,0,0.1-0.1c0.2-0.1,0.4-0.2,0.6-0.3c0,0,0,0,0.1,0c0.8-0.6,1.4-1.3,1.7-2c0.8-2.3-2.1-4.3-2.1-4.3
	h-5.3c0,0,0,0,0,0h0c1.5,2.1,1.5,4.5-0.5,5.1c-1.2,0.3-3.1,0-5.7-1.4c0,0,0,0,0,0C10,31.2,9.6,31,9,30.6c0,0,0,0,0,0
	c-0.8-0.5-1.8-1.4-2.2-2.4c-0.2-0.5-0.2-0.8-0.1-1c0.3-0.6,1.6,0.1,2.9,2.5c0,0,0,0,0,0c0,0,0.5-0.2,1-0.5c0.7-0.3,1.4-0.7,1.4-0.7
	s0,0,0,0c0,0,0,0,0,0s-0.4-0.9-1.5-2.1C9,24.7,6.8,24,5.9,25.6c0,0,0,0,0,0c0,0,0,0,0,0c-0.4,0.8-0.4,1.6-0.1,2.4
	c-1.9-2-2.1-3.7-2.1-4.1c0,0,0-0.1,0-0.1S3.7,22,5.8,19.7c-0.3,0.7-0.3,1.5,0.1,2.4c0.8,1.7,3.1,0.9,4.5-0.7
	c1.1-1.3,1.5-2.1,1.5-2.1s-2.4-1.2-2.4-1.2c-1.7,3.2-3.6,3.4-2.8,1.5c0.4-1.1,1.5-1.9,2.3-2.4c0.6-0.4,1-0.6,1.1-0.6c0,0,0,0,0,0
	c0,0,0,0,0,0c0,0,0,0,0,0c7-3.8,8.7,0.3,6.2,3.7l5.3,0c0,0,2.9-2,2.1-4.3c-1.1-3-7.1-5.4-16,0.5c5.9-8.8,3.5-14.9,0.5-16
	C5.8-0.5,3.8,2.4,3.8,2.4v5.3c3.4-2.5,7.5-0.8,3.7,6.2c0,0,0,0,0,0c0,0,0,0,0,0c0,0,0,0,0,0c0,0,0,0,0,0h0c0,0.1-0.3,0.5-0.6,1.1
	c0,0,0,0,0,0c-0.5,0.8-1.4,1.8-2.4,2.2c-1.9,0.8-1.8-1.1,1.5-2.8c0,0-1.2-2.4-1.2-2.4s-0.9,0.4-2.1,1.5C1,15,0.3,17.3,1.9,18.1
	c0.8,0.4,1.7,0.4,2.4,0.1c-2.3,2.1-4.2,2.1-4.2,2.1v1.9c0.2,0,1.1,0,2.2-0.6c-0.5,1.1-0.6,2-0.6,2.2c0,0,0,0,0,0
	c0,0.2,0,1.1,0.6,2.2c-1.1-0.5-2-0.6-2.2-0.6v0v1.9v0c0,0,1.9-0.1,4.2,2.1c-0.7-0.3-1.5-0.3-2.4,0.1C1.3,30,1,30.5,1,31.1
	c0,0.1,0,0.3,0,0.4c0,0.1,0,0.1,0,0.2c0.2,0.8,0.7,1.8,1.6,2.5c1.3,1.1,2.1,1.5,2.1,1.5s0,0,0,0c0-0.1,1.2-2.4,1.2-2.4
	c-2.2-1.2-3-2.4-2.6-2.8c0.2-0.2,0.6-0.2,1.1,0c1.1,0.4,1.9,1.5,2.4,2.3c0.4,0.5,0.6,1,0.6,1.1c0,0,0,0,0,0c0,0,0,0,0,0c0,0,0,0,0,0
	c0,0,0,0,0,0c1.2,2.2,1.6,3.8,1.5,5c0,0,0,0,0,0c0,0.5-0.2,0.9-0.3,1.2c0,0,0,0,0,0C8.4,40.5,8,40.8,7.5,41c0,0,0,0,0,0
	c-0.3,0.1-0.7,0.1-1.1,0.1c0,0,0,0-0.1,0C6.2,41.1,6,41,5.8,41c0,0,0,0,0,0c-0.2-0.1-0.4-0.1-0.6-0.2c0,0-0.1,0-0.1,0
	c-0.2-0.1-0.3-0.1-0.5-0.2c-0.1,0-0.1-0.1-0.2-0.1c-0.1-0.1-0.3-0.2-0.4-0.3c0,0-0.1,0-0.1-0.1v0c0,0,0,0,0,0v5.3c0,0,0,0,0,0v0
	c0,0,2,2.9,4.3,2.1c1.5-0.6,2.9-2.3,3.1-5.1c0,0,0,0,0,0c0-0.3,0-0.6,0-1c0-0.1,0-0.1,0-0.2c0-0.3,0-0.6-0.1-0.9c0-0.1,0-0.2,0-0.3
	c0-0.3-0.1-0.6-0.2-1c0-0.1,0-0.2,0-0.2c-0.1-0.4-0.2-0.8-0.3-1.2c0,0,0-0.1,0-0.1c-0.3-0.8-0.6-1.7-1-2.7l21.8,21.8
	c0.9,0.9,1.4,2,1.6,3.2c0,0.2,0,0.3,0,0.4v0c0,0.3,0,1.3-0.7,2.7c0,0,0,0.1,0,0.1c0,0,0.1,0,0.1,0c1.4-0.6,2.4-0.7,2.7-0.7
	c0.1,0,0.2,0,0.4,0c1.2,0.1,2.3,0.7,3.2,1.6l21.9,21.9c-7-3.4-11.7-1.2-12.7,1.4c-0.9,2.3,2.1,4.3,2.1,4.3h5.3
	c-2.5-3.4-0.8-7.5,6.2-3.7c0,0,0,0,0,0c0,0,0,0,0,0h0c0.1,0.1,0.5,0.3,1.1,0.6c0.8,0.5,1.8,1.4,2.2,2.4c0.8,1.9-1.1,1.8-2.8-1.5
	c0,0-2.4,1.2-2.4,1.2s0.4,0.9,1.5,2.1c1.4,1.6,3.7,2.3,4.5,0.7c0.4-0.8,0.4-1.7,0.1-2.4c2.2,2.3,2.1,4.2,2.1,4.2s0.1,1.9-2.1,4.2
	c0.3-0.7,0.3-1.5-0.1-2.4c-0.8-1.7-3.1-0.9-4.5,0.7c-1.1,1.3-1.5,2.1-1.5,2.1s2.4,1.2,2.4,1.2c1.7-3.2,3.6-3.4,2.8-1.5
	c-0.4,1.1-1.4,1.9-2.2,2.4c-0.5,0.3-1,0.6-1.1,0.6c0,0,0,0,0,0h0c0,0,0,0,0,0c-2,1.1-3.6,1.5-4.7,1.5c-2.9,0-3.2-2.8-1.5-5.2h-5.3
	c0,0-2.9,2-2.1,4.3c1,2.6,5.6,4.7,12.6,1.4l-21.8,21.8c-0.9,0.9-2,1.4-3.2,1.6c-0.2,0-0.3,0-0.4,0c0,0,0,0,0,0c-0.3,0-1.3,0-2.7-0.7
	c0,0-0.1,0-0.1,0c0,0,0,0.1,0,0.1C33,129,33,130,33,130.3c0,0.1,0,0.2,0,0.4c-0.1,1.2-0.7,2.3-1.6,3.2L9.6,155.9
	c3.4-7,1.2-11.7-1.4-12.7c-2.3-0.8-4.3,2.1-4.3,2.1v5.3c3.4-2.5,7.5-0.8,3.7,6.2c0,0,0,0,0,0c0,0,0,0,0,0c0,0.1-0.3,0.5-0.6,1.1
	c0,0,0,0,0,0c-0.5,0.8-1.4,1.8-2.4,2.2c-1.9,0.8-1.8-1.1,1.5-2.8c0,0-1.2-2.4-1.2-2.4s-0.9,0.4-2.1,1.5c-1.6,1.4-2.3,3.7-0.7,4.5
	c0.8,0.4,1.7,0.4,2.4,0.1c-2.3,2.1-4.2,2.1-4.2,2.1v1.9c0.2,0,1.1,0,2.2-0.6c-0.5,1.1-0.6,2-0.6,2.2c0,0,0,0,0,0
	c0,0.2,0,1.1,0.6,2.2c-1.1-0.5-2-0.6-2.2-0.6v1.9c0,0,1.9-0.1,4.2,2.1c-0.7-0.3-1.5-0.3-2.4,0.1c-1.7,0.8-1,3.1,0.7,4.5
	c1.3,1.1,2.1,1.5,2.1,1.5s1.2-2.4,1.2-2.4c-3.2-1.7-3.4-3.6-1.5-2.8c1.1,0.4,1.9,1.5,2.4,2.3c0.4,0.5,0.6,1,0.6,1.1c0,0,0,0,0,0v0
	c1.1,2,1.5,3.6,1.5,4.7c0,2.9-2.8,3.2-5.2,1.5v5.3c0,0,2,2.9,4.3,2.1c2.6-1,4.7-5.6,1.4-12.6l21.9,21.9c0.9,0.9,1.4,2,1.6,3.2
	c0,0.2,0,0.3,0,0.4v0c0,0.3,0,1.3-0.7,2.7c0,0.1,0,0.1,0.1,0.1c1.4-0.6,2.4-0.7,2.7-0.7c0.1,0,0.2,0,0.4,0c1.2,0.1,2.3,0.7,3.2,1.5
	l21.9,21.9c-7-3.3-11.7-1.2-12.6,1.4c-0.9,2.3,2.1,4.3,2.1,4.3h5.3c-2.5-3.4-0.8-7.5,6.2-3.7c0,0,0,0,0,0c0,0,0,0,0,0h0c0,0,0,0,0,0
	c0.1,0,0.5,0.3,1.1,0.6c0.8,0.5,1.8,1.4,2.2,2.4c0.8,1.9-1.1,1.8-2.8-1.5c0,0-2.4,1.2-2.4,1.2s0.4,0.9,1.5,2.1
	c1.4,1.6,3.7,2.3,4.5,0.7c0.4-0.8,0.4-1.7,0.1-2.4c2.2,2.3,2.1,4.2,2.1,4.2s0.1,1.9-2.1,4.2c0.3-0.7,0.3-1.5-0.1-2.4
	c-0.8-1.6-3.1-0.9-4.5,0.7c-1.1,1.3-1.5,2.1-1.5,2.1s2.4,1.2,2.4,1.2c1.7-3.2,3.6-3.4,2.8-1.5c-0.4,1.1-1.4,1.9-2.2,2.4
	c-0.5,0.3-1,0.6-1.1,0.6l0,0h0c0,0,0,0,0,0c-2,1.1-3.6,1.5-4.7,1.5c-2.9,0-3.3-2.8-1.5-5.2h-5.3c0,0-2.9,2-2.1,4.3
	c1,2.6,5.7,4.8,12.7,1.4l-21.9,21.9c-0.9,0.9-2,1.4-3.2,1.5c-0.2,0-0.3,0-0.4,0c0,0,0,0,0,0c-0.3,0-1.3-0.1-2.7-0.7
	c-0.1,0-0.2,0-0.1,0.1c0.6,1.4,0.7,2.4,0.7,2.7c0,0.1,0,0.2,0,0.4c-0.1,1.2-0.7,2.3-1.6,3.2L9.6,298.7c3.4-7,1.3-11.7-1.4-12.7
	c-2.3-0.8-4.3,2.1-4.3,2.1v5.3c3.4-2.5,7.5-0.8,3.7,6.2c0,0,0,0,0,0h0c0,0.1-0.3,0.5-0.6,1.1c-0.5,0.8-1.4,1.8-2.4,2.2
	c-1.9,0.8-1.8-1.1,1.5-2.8c0,0-1.2-2.4-1.2-2.4s-0.9,0.4-2.1,1.5c-1.6,1.4-2.3,3.7-0.7,4.5c0.8,0.4,1.7,0.4,2.4,0.1
	C2,306,0.2,306,0.2,306v1.9c0.2,0,1.1,0,2.2-0.6c-0.5,1.1-0.6,2-0.6,2.2c0,0,0,0,0,0h1.9c0,0-0.1-1.9,2.1-4.2
	c-0.3,0.7-0.3,1.5,0.1,2.4c0.8,1.7,3.1,1,4.5-0.7c1.1-1.3,1.5-2.1,1.5-2.1s-2.4-1.2-2.4-1.2c-1.7,3.2-3.6,3.4-2.8,1.5
	c0.4-1.1,1.5-1.9,2.3-2.4c0.5-0.4,1-0.6,1.1-0.6c0,0,0,0,0,0c2-1.1,3.6-1.5,4.7-1.5c2.9,0,3.2,2.8,1.5,5.2h5.3c0,0,2.9-2,2.1-4.3
	c-1-2.6-5.6-4.7-12.6-1.4l21.8-21.8c0.9-0.9,2-1.4,3.2-1.6c0.2,0,0.3,0,0.4,0c0,0,0,0,0,0c0.3,0,1.3,0,2.7,0.7c0.1,0,0.1,0,0.1-0.1
	c-0.6-1.4-0.7-2.4-0.7-2.7c0-0.1,0-0.2,0-0.4c0.1-1.2,0.7-2.3,1.5-3.2L62.1,249c-3.3,7-1.2,11.6,1.4,12.6c2.3,0.8,4.3-2.1,4.3-2.1
	v-5.3c-3.4,2.5-7.5,0.8-3.7-6.2c0,0,0,0,0,0v0l0,0c0-0.1,0.3-0.5,0.6-1.1c0.5-0.8,1.4-1.8,2.4-2.2c1.9-0.8,1.8,1.1-1.5,2.8
	c0,0,1.2,2.4,1.2,2.4s0.9-0.4,2.1-1.5c1.6-1.4,2.3-3.7,0.7-4.5c-0.8-0.4-1.7-0.4-2.4-0.1c2.3-2.2,4.2-2.1,4.2-2.1s1.9-0.1,4.2,2.1
	c-0.7-0.3-1.5-0.3-2.4,0.1c-1.6,0.8-0.9,3.1,0.7,4.5c1.3,1.1,2.1,1.5,2.1,1.5s1.2-2.4,1.2-2.4c-3.2-1.7-3.4-3.6-1.5-2.8
	c1.1,0.4,1.9,1.5,2.4,2.3c0.4,0.5,0.6,1,0.6,1.1v0h0v0c1.1,2,1.5,3.6,1.5,4.7c0,2.9-2.8,3.3-5.2,1.5v5.3c0,0,2,2.9,4.3,2.1
	c2.6-1,4.8-5.6,1.4-12.6l21.9,21.9c0.9,0.9,1.4,2,1.5,3.2c0,0.2,0,0.3,0,0.4c0,0,0,0,0,0c0,0.3,0,1.3-0.7,2.7c0,0,0,0.1,0,0.1
	c0,0,0.1,0,0.1,0c1.4-0.6,2.4-0.7,2.7-0.7c0.1,0,0.2,0,0.4,0c1.2,0.1,2.3,0.7,3.2,1.5l21.9,21.9c-7-3.4-11.8-1.3-12.7,1.4
	c-0.9,2.3,2.1,4.3,2.1,4.3h5.3c-2.5-3.4-0.8-7.5,6.2-3.7h0c0,0,0,0,0,0c0,0,0,0,0,0c0.1,0.1,0.5,0.3,1.1,0.6c0,0,0,0,0,0
	c0.8,0.5,1.8,1.4,2.2,2.4c0.8,1.9-1.1,1.8-2.8-1.5c0,0-2.4,1.2-2.4,1.2s0.4,0.9,1.5,2.1c1.4,1.6,3.7,2.3,4.5,0.7
	c0.4-0.8,0.4-1.6,0.1-2.4c2.1,2.3,2.1,4.2,2.1,4.2h1.9c0,0,0,0,0,0c0-0.2,0-1.1-0.6-2.2c1.1,0.5,2,0.6,2.2,0.6c0.2,0,1.1,0,2.2-0.6
	c-0.5,1.1-0.6,2-0.6,2.2c0,0,0,0,0,0h1.9c0,0-0.1-1.9,2.1-4.2c-0.3,0.7-0.3,1.5,0.1,2.4c0.8,1.7,3.1,1,4.5-0.7
	c1.1-1.3,1.5-2.1,1.5-2.1s-2.4-1.2-2.4-1.2c-1.7,3.2-3.6,3.4-2.8,1.5c0.4-1.1,1.5-1.9,2.3-2.4c0.5-0.4,1-0.6,1.1-0.6c0,0,0,0,0,0
	c2-1.1,3.6-1.5,4.7-1.5c2.9,0,3.2,2.8,1.5,5.2h5.3c0,0,2.9-2,2.1-4.3c-1-2.6-5.6-4.7-12.6-1.4l21.8-21.8c0.9-0.9,2-1.4,3.2-1.6
	c0.2,0,0.3,0,0.4,0c0,0,0,0,0,0c0.3,0,1.3,0,2.7,0.7c0,0,0.1,0,0.1,0c0,0,0-0.1,0-0.1c-0.6-1.4-0.7-2.4-0.7-2.7c0-0.1,0-0.2,0-0.4
	c0.1-1.2,0.7-2.3,1.5-3.2L205,249c-3.4,7-1.2,11.7,1.4,12.7c2.3,0.8,4.3-2.1,4.3-2.1v-5.3c-3.4,2.5-7.5,0.8-3.7-6.2v0c0,0,0,0,0,0
	c0.1-0.1,0.3-0.5,0.6-1.1c0,0,0,0,0,0c0.5-0.8,1.4-1.8,2.4-2.2c1.9-0.8,1.8,1.1-1.5,2.8c0,0,1.2,2.4,1.2,2.4s0.9-0.4,2.1-1.5
	c1.6-1.4,2.3-3.7,0.7-4.5c-0.8-0.4-1.7-0.4-2.4-0.1c2.3-2.2,4.2-2.1,4.2-2.1s1.9-0.1,4.2,2.1c-0.7-0.3-1.5-0.3-2.4,0.1
	c-1.6,0.8-0.9,3.1,0.7,4.5c1.3,1.1,2.1,1.5,2.1,1.5s1.2-2.4,1.2-2.4c-3.2-1.7-3.4-3.6-1.5-2.8c1.1,0.4,1.9,1.5,2.4,2.3
	c0.4,0.5,0.6,1,0.6,1.1v0c0,0,0,0,0,0v0c1.1,2,1.5,3.6,1.5,4.7c0,2.9-2.8,3.3-5.2,1.5v5.3c0,0,2,2.9,4.3,2.1c2.6-1,4.7-5.6,1.4-12.6
	l21.8,21.8c0.9,0.9,1.4,2,1.5,3.2c0,0.2,0,0.3,0,0.4c0,0,0,0,0,0c0,0.3,0,1.3-0.7,2.7c0,0.1,0,0.1,0.1,0.1c1.4-0.6,2.4-0.7,2.7-0.7
	c0.1,0,0.2,0,0.4,0c1.2,0.1,2.3,0.7,3.2,1.6l21.8,21.8c-7-3.3-11.7-1.2-12.6,1.4c-0.9,2.3,2.1,4.3,2.1,4.3h5.3
	c-2.5-3.4-0.8-7.5,6.2-3.7c0,0,0,0,0,0s0,0,0,0c0,0,0,0,0,0c0.1,0.1,0.5,0.3,1.1,0.6v0c0.8,0.5,1.8,1.4,2.2,2.4
	c0.8,1.9-1.1,1.8-2.8-1.5c0,0-2.4,1.2-2.4,1.2s0.4,0.9,1.5,2.1c1.4,1.6,3.7,2.3,4.5,0.7c0.4-0.8,0.4-1.6,0.1-2.4
	c2.1,2.3,2.1,4.2,2.1,4.2h1.9c0,0,0,0,0,0c0-0.2,0-1.1-0.6-2.2c1.1,0.5,2,0.6,2.2,0.6V306c0,0-1.9,0.1-4.2-2.1
	c0.7,0.3,1.5,0.3,2.4-0.1c1.6-0.8,0.9-3.1-0.7-4.5c-1.3-1.1-2.1-1.5-2.1-1.5s-1.2,2.4-1.2,2.4c3.2,1.7,3.4,3.6,1.5,2.8
	c-1.1-0.4-1.9-1.5-2.4-2.3c-0.3-0.5-0.6-0.9-0.6-1.1c0,0,0,0,0,0c0,0,0,0,0,0c-1.1-2-1.5-3.6-1.5-4.7c0-2.9,2.8-3.2,5.2-1.5v-5.3
	c0,0-2-2.9-4.3-2.1c-2.6,1-4.8,5.7-1.4,12.7l-21.9-21.9c-0.9-0.9-1.4-2-1.5-3.2c0-0.2,0-0.3,0-0.4v0c0-0.3,0-1.3,0.7-2.7
	c0-0.1,0-0.2-0.1-0.1c-1.4,0.6-2.4,0.7-2.7,0.7c-0.1,0-0.2,0-0.4,0c-1.2-0.1-2.3-0.7-3.2-1.5l-21.9-21.9c7,3.4,11.7,1.2,12.7-1.4
	c0.9-2.3-2.1-4.3-2.1-4.3h-5.3c2.5,3.4,0.8,7.5-6.2,3.7v0h0c0,0,0,0,0,0c-0.1,0-0.5-0.3-1.1-0.6c-0.8-0.5-1.8-1.4-2.2-2.4
	c-0.8-1.9,1.1-1.8,2.8,1.5c0,0,2.4-1.2,2.4-1.2s-0.4-0.9-1.5-2.1c-1.4-1.6-3.7-2.3-4.5-0.7c-0.4,0.8-0.4,1.7-0.1,2.4
	c-2.2-2.3-2.1-4.2-2.1-4.2s-0.1-1.9,2.1-4.2c-0.3,0.7-0.3,1.5,0.1,2.4c0.8,1.6,3.1,0.9,4.5-0.7c1.1-1.3,1.5-2.1,1.5-2.1
	s-2.4-1.2-2.4-1.2c-1.7,3.2-3.6,3.4-2.8,1.5c0.4-1.1,1.5-1.9,2.3-2.4c0.6-0.4,1-0.6,1.1-0.6c0,0,0,0,0,0c2-1.1,3.6-1.5,4.7-1.5
	c2.9,0,3.2,2.8,1.5,5.2h5.3c0,0,2.9-2,2.1-4.3c-1-2.6-5.6-4.7-12.6-1.4l21.8-21.9c0.9-0.9,2-1.4,3.2-1.5c0.2,0,0.3,0,0.4,0h0
	c0.3,0,1.3,0,2.7,0.7c0.1,0,0.1,0,0.1-0.1c-0.6-1.4-0.7-2.4-0.7-2.7c0-0.1,0-0.2,0-0.4c0.1-1.2,0.7-2.3,1.5-3.2l21.8-21.8
	c-3.3,7-1.2,11.7,1.4,12.6c2.3,0.9,4.3-2.1,4.3-2.1v-5.3c-3.4,2.5-7.5,0.8-3.7-6.2c0,0,0,0,0,0c0,0,0,0,0,0c0,0,0,0,0,0
	c0.1-0.1,0.3-0.5,0.6-1.1c0.5-0.8,1.4-1.8,2.4-2.2c1.9-0.8,1.8,1.1-1.5,2.8c0,0,1.2,2.4,1.2,2.4s0.9-0.4,2.1-1.5
	c1.6-1.4,2.3-3.7,0.7-4.5c-0.8-0.4-1.7-0.4-2.4-0.1c2.3-2.1,4.2-2.1,4.2-2.1v-1.9c-0.2,0-1.1,0-2.2,0.6c0.5-1.1,0.6-2,0.6-2.2
	c0,0,0,0,0,0c0-0.2,0-1.1-0.6-2.2c1.1,0.5,2,0.6,2.2,0.6v-1.9c0,0-1.9,0.1-4.2-2.1c0.7,0.3,1.5,0.3,2.4-0.1c1.6-0.8,0.9-3.1-0.7-4.5
	c-1.3-1.1-2.1-1.5-2.1-1.5s-1.2,2.4-1.2,2.4c3.2,1.7,3.4,3.6,1.5,2.8c-1.1-0.4-1.9-1.5-2.4-2.3c-0.3-0.5-0.6-0.9-0.6-1.1
	c0,0,0,0,0,0c0,0,0,0,0,0c0,0,0,0,0,0s0,0,0,0c-3.8-7,0.3-8.7,3.7-6.2v-5.3c0,0-2-2.9-4.3-2.1c-2.6,1-4.7,5.6-1.5,12.6L254.6,134
	c-0.9-0.9-1.4-2-1.5-3.2c0-0.2,0-0.3,0-0.4c0,0,0,0,0,0c0-0.3,0-1.3,0.7-2.7c0,0,0-0.1,0-0.1c0,0-0.1,0-0.1,0
	c-1.4,0.6-2.4,0.7-2.7,0.7c-0.1,0-0.2,0-0.4,0c-1.2-0.1-2.3-0.7-3.2-1.5l-21.9-21.9c7,3.3,11.7,1.2,12.6-1.4
	c0.9-2.3-2.1-4.3-2.1-4.3h-5.3c2.5,3.4,0.8,7.5-6.2,3.7h0c0,0,0,0,0,0c-0.1,0-0.5-0.3-1.1-0.6c0,0,0,0,0,0c-0.8-0.5-1.8-1.4-2.2-2.4
	c-0.8-1.9,1.1-1.8,2.8,1.5c0,0,2.4-1.2,2.4-1.2s-0.4-0.9-1.5-2.1c-1.4-1.6-3.7-2.3-4.5-0.7c-0.4,0.8-0.4,1.6-0.1,2.4
	c-2.2-2.3-2.1-4.2-2.1-4.2s-0.1-1.9,2.1-4.2c-0.3,0.7-0.3,1.5,0.1,2.4c0.8,1.6,3.1,0.9,4.5-0.7c1.1-1.3,1.5-2.1,1.5-2.1
	s-2.4-1.2-2.4-1.2c-1.7,3.2-3.6,3.4-2.8,1.5c0.4-1.1,1.5-1.9,2.3-2.4c0.6-0.4,1-0.6,1.1-0.6h0c2-1.1,3.6-1.5,4.7-1.5
	c2.9,0,3.2,2.8,1.5,5.2h5.3c0,0,2.9-2,2.1-4.3c-1-2.6-5.6-4.7-12.6-1.4L247.2,64c0.9-0.9,2-1.4,3.2-1.5c0.2,0,0.3,0,0.4,0h0
	c0.3,0,1.3,0,2.7,0.7c0,0,0.1,0,0.1,0c0,0,0-0.1,0-0.1c-0.6-1.4-0.7-2.4-0.7-2.7c0-0.1,0-0.2,0-0.4c0.1-1.2,0.7-2.3,1.6-3.2
	l21.9-21.9c-0.5,0.9-0.8,1.9-1.1,2.7c0,0.1,0,0.2-0.1,0.2c-0.1,0.4-0.2,0.7-0.3,1c0,0.1,0,0.2-0.1,0.3c-0.1,0.3-0.1,0.6-0.1,0.9
	c0,0.1,0,0.2,0,0.3c0,0.3-0.1,0.6-0.1,0.9c0,0.1,0,0.2,0,0.2c0,0.3,0,0.6,0,0.9c0,0,0,0.1,0,0.1c0.1,1,0.3,1.9,0.7,2.6c0,0,0,0,0,0
	c0.1,0.2,0.2,0.5,0.4,0.7c0,0,0,0,0,0c0.1,0.2,0.3,0.4,0.4,0.5c0,0,0,0,0,0c0.5,0.5,1,0.9,1.6,1.1c2.3,0.9,4.3-2.1,4.3-2.1V40
	c0,0,0,0,0,0v0c-3.4,2.5-7.5,0.8-3.7-6.2c0,0,0,0,0,0c0,0,0,0,0,0c0,0,0,0,0,0c0,0,0,0,0,0c0-0.1,0.3-0.5,0.6-1.1
	c0.5-0.8,1.4-1.8,2.4-2.3c0.6-0.2,1-0.2,1.1,0c0.4,0.4-0.4,1.6-2.6,2.8c0,0,0.9,1.9,1.1,2.3c0,0.1,0,0.1,0,0.1s0.9-0.4,2.1-1.5
	c0.6-0.5,1.1-1.2,1.4-1.8c0.1-0.1,0.1-0.3,0.1-0.4c0-0.1,0.1-0.2,0.1-0.2c0.2-0.8-0.1-1.6-0.9-2c-0.8-0.4-1.6-0.4-2.4-0.1
	c2.3-2.1,4.2-2.1,4.2-2.1v0v-1.9v0c-0.2,0-1.1,0-2.2,0.6c0.4-0.8,0.5-1.5,0.5-1.9c0-0.1,0-0.1,0-0.2c0,0,0,0,0,0c0,0,0-0.1,0-0.1
	c0,0,0,0,0,0h0c0,0,0,0,0,0c0-0.2,0-1.1-0.6-2.2c1.1,0.5,2,0.6,2.2,0.6V20.3z M35.9,60.7c-0.2,0-0.7,0-1.5,0.4l0,0
	c0.4-0.8,0.4-1.3,0.4-1.5v0c0-0.1,0-0.7-0.4-1.5c0.8,0.4,1.3,0.4,1.5,0.4c0.2,0,0.7,0,1.5-0.4C37,58.8,37,59.4,37,59.6c0,0,0,0,0,0
	c0,0.1,0,0.7,0.4,1.5C36.6,60.7,36,60.7,35.9,60.7z M37.4,275.3c-0.8-0.4-1.3-0.4-1.5-0.4c0,0,0,0,0,0c-0.1,0-0.7,0-1.5,0.4
	c0.4-0.8,0.4-1.3,0.4-1.5c0-0.2,0-0.7-0.4-1.5c0.8,0.4,1.3,0.4,1.5,0.4c0,0,0,0,0,0c0.2,0,0.7,0,1.5-0.4c-0.4,0.8-0.4,1.3-0.4,1.5
	C37,274,37,274.6,37.4,275.3z M248.6,272.4c0.8,0.4,1.3,0.4,1.5,0.4s0.7,0,1.5-0.4c-0.4,0.8-0.4,1.3-0.4,1.5c0,0,0,0,0,0
	c0,0.1,0,0.7,0.4,1.5c-0.8-0.4-1.3-0.4-1.5-0.4s-0.7,0-1.5,0.4c0.4-0.8,0.4-1.3,0.4-1.5c0,0,0,0,0,0
	C249,273.7,249,273.1,248.6,272.4z M212.2,93.1c1.1,0.5,2,0.6,2.2,0.6c0.2,0,1.1,0,2.2-0.6c-0.5,1.1-0.6,2-0.6,2.2c0,0,0,0,0,0
	c0,0.2,0,1.1,0.6,2.2c-1.1-0.5-2-0.6-2.2-0.6c-0.2,0-1.1,0-2.2,0.6c0.5-1.1,0.6-2,0.6-2.2c0,0,0,0,0,0
	C212.8,95,212.7,94.2,212.2,93.1z M177.2,58.1c0.8,0.4,1.3,0.4,1.5,0.4c0.2,0,0.7,0,1.5-0.4c-0.4,0.8-0.4,1.3-0.4,1.5v0
	c0,0.1,0,0.7,0.4,1.5c-0.8-0.4-1.3-0.4-1.5-0.4c-0.2,0-0.7,0-1.5,0.4c0.4-0.8,0.4-1.3,0.4-1.5v0C177.6,59.4,177.6,58.8,177.2,58.1z
	 M143,22.2c0.2,0,1.1,0,2.2-0.6c-0.5,1.1-0.6,2-0.6,2.2c0,0,0,0,0,0c0,0.2,0,1.1,0.6,2.2c-1.1-0.5-2-0.6-2.2-0.6
	c-0.2,0-1.1,0-2.2,0.6c0.4-0.8,0.5-1.5,0.5-1.9c0-0.1,0-0.1,0-0.2c0,0,0,0,0,0c0,0,0-0.1,0-0.1c0,0,0,0,0,0h0c0,0,0,0,0,0
	c0-0.2,0-1.1-0.6-2.2C141.9,22.2,142.8,22.2,143,22.2z M105.8,58.1c0.8,0.3,1.3,0.4,1.5,0.4h0c0.1,0,0.7,0,1.5-0.4
	c-0.4,0.8-0.4,1.3-0.4,1.5c0,0.2,0,0.7,0.4,1.5c-0.8-0.4-1.3-0.4-1.5-0.4h0c-0.1,0-0.7,0-1.5,0.4c0.4-0.8,0.4-1.3,0.4-1.5
	C106.2,59.4,106.2,58.8,105.8,58.1z M77.3,91.1c-0.3,0.7-0.3,1.5,0.1,2.4c0.8,1.6,3.1,0.9,4.5-0.7c1.1-1.3,1.5-2.1,1.5-2.1
	S81,89.5,81,89.5c-1.7,3.2-3.6,3.4-2.8,1.5c0.4-1.1,1.5-1.9,2.2-2.4c0.6-0.4,1-0.6,1.1-0.6c0,0,0,0,0,0c2-1.1,3.6-1.5,4.7-1.5
	c2.9,0,3.2,2.8,1.5,5.2H93c0,0,2.9-2,2.1-4.3c-1-2.6-5.6-4.7-12.6-1.4L104.3,64c0.9-0.9,2-1.4,3.2-1.5c0.2,0,0.3,0,0.4,0
	c0,0,0,0,0,0c0.3,0,1.3,0,2.7,0.7c0.1,0,0.1,0,0.1-0.1c-0.6-1.4-0.7-2.4-0.7-2.7c0-0.1,0-0.2,0-0.4c0.1-1.2,0.7-2.3,1.6-3.2
	l21.8-21.8c-0.2,0.4-0.4,0.8-0.5,1.2c-0.1,0.1-0.1,0.3-0.1,0.4c-0.1,0.4-0.3,0.7-0.4,1.1c0,0.1-0.1,0.3-0.1,0.4
	c-0.1,0.3-0.2,0.6-0.2,0.9c0,0.1,0,0.2-0.1,0.4c-0.1,0.3-0.1,0.6-0.1,0.9c0,0.1,0,0.2,0,0.3c0,0.3-0.1,0.6-0.1,0.9
	c0,0.1,0,0.1,0,0.2c0,0.3,0,0.7,0,1c0,0,0,0,0,0c0.2,2.7,1.6,4.5,3.1,5.1c2.3,0.9,4.3-2.1,4.3-2.1l0-1.1l0-4.2c0,0,0,0,0,0v0
	c-0.4,0.3-0.8,0.5-1.2,0.7c-3,1.3-5.9-0.7-2.5-6.9c0,0,0,0,0,0c0,0,0,0,0,0c0,0,0,0,0,0c0,0,0,0,0,0c0,0,0,0,0,0
	c0.1-0.1,0.3-0.5,0.6-1.1c0,0,0,0,0,0c0.5-0.8,1.4-1.8,2.4-2.2c0.6-0.2,1-0.2,1.1,0c0.4,0.4-0.4,1.6-2.6,2.8c0,0,1.1,2.3,1.2,2.4
	c0,0,0,0,0,0s0.9-0.4,2.1-1.5c0.6-0.5,1.1-1.2,1.3-1.8c0.1-0.2,0.1-0.3,0.2-0.5c0,0,0-0.1,0-0.1c0.2-0.8-0.1-1.6-0.9-2
	c-0.8-0.4-1.6-0.4-2.4-0.1c2.3-2.1,4.2-2.1,4.2-2.1s1.9-0.1,4.2,2.1c-0.7-0.3-1.5-0.3-2.4,0.1c-0.4,0.2-0.7,0.5-0.8,0.9
	c-0.4,1,0.3,2.6,1.5,3.7c1.3,1.1,2.1,1.5,2.1,1.5s0,0,0,0c0,0,0,0,0,0s1.2-2.4,1.2-2.4c-2.2-1.2-3-2.4-2.6-2.8
	c0.2-0.2,0.6-0.2,1.1,0c1.1,0.4,1.9,1.5,2.4,2.3c0.4,0.5,0.6,1,0.6,1.1c0,0,0,0,0,0c0,0,0,0,0,0c0,0,0,0,0,0c0,0,0,0,0,0
	c2.9,5.3,1.3,7.5-1.1,7.3c0,0,0,0-0.1,0c-0.2,0-0.4-0.1-0.5-0.1c0,0,0,0,0,0c-0.2-0.1-0.4-0.1-0.6-0.2c0,0-0.1,0-0.1-0.1
	c-0.1-0.1-0.3-0.1-0.4-0.2c-0.1,0-0.1-0.1-0.2-0.1c-0.1-0.1-0.3-0.2-0.4-0.3c0,0-0.1-0.1-0.1-0.1v0c0,0,0,0,0,0v5.3c0,0,0,0,0,0v0
	c0,0,2,2.9,4.3,2.1c1.5-0.6,2.9-2.3,3.1-5.1c0,0,0,0,0-0.1c0-0.3,0-0.6,0-1c0-0.1,0-0.1,0-0.2c0-0.3,0-0.6-0.1-0.9
	c0-0.1,0-0.2,0-0.3c0-0.3-0.1-0.6-0.2-0.9c0-0.1,0-0.2-0.1-0.3c-0.1-0.3-0.2-0.7-0.3-1.1c0-0.1,0-0.1-0.1-0.2
	c-0.3-0.9-0.6-1.7-1.1-2.7l21.9,21.9c0.9,0.9,1.4,2,1.6,3.2c0,0.2,0,0.3,0,0.4c0,0,0,0,0,0c0,0.3,0,1.3-0.7,2.7c0,0.1,0,0.1,0.1,0.1
	c1.4-0.6,2.4-0.7,2.7-0.7c0.1,0,0.2,0,0.4,0c1.2,0.1,2.3,0.7,3.2,1.6l21.9,21.9c-7-3.3-11.7-1.2-12.7,1.4c-0.8,2.3,2.1,4.3,2.1,4.3
	h5.3c-2.5-3.4-0.8-7.5,6.2-3.7h0c0,0,0,0,0,0c0,0,0,0,0,0h0c0.1,0.1,0.5,0.3,1.1,0.6c0,0,0,0,0,0c0.8,0.5,1.8,1.4,2.2,2.4
	c0.8,1.9-1.1,1.8-2.8-1.5c0,0-2.4,1.2-2.4,1.2s0.4,0.9,1.5,2.1c1.4,1.6,3.7,2.3,4.5,0.7c0.4-0.8,0.4-1.7,0.1-2.4
	c2.2,2.3,2.1,4.2,2.1,4.2s0.1,1.9-2.1,4.2c0.3-0.7,0.3-1.5-0.1-2.4c-0.8-1.7-3.1-0.9-4.5,0.7c-1.1,1.3-1.5,2.1-1.5,2.1
	s2.4,1.2,2.4,1.2c1.7-3.2,3.6-3.4,2.8-1.5c-0.4,1.1-1.4,1.9-2.2,2.4h0c-0.5,0.3-1,0.6-1.1,0.6c0,0,0,0,0,0c0,0,0,0,0,0c0,0,0,0,0,0
	c-2,1.1-3.6,1.5-4.7,1.5c-2.9,0-3.2-2.8-1.5-5.2H193c0,0-2.9,2-2.1,4.3c1,2.6,5.7,4.8,12.7,1.4l-21.9,21.9c-0.9,0.9-2,1.4-3.2,1.6
	c-0.2,0-0.3,0-0.4,0h0c-0.3,0-1.3-0.1-2.7-0.7c-0.1,0-0.2,0-0.1,0.1c0.6,1.4,0.7,2.4,0.7,2.7c0,0.1,0,0.2,0,0.4
	c-0.1,1.2-0.7,2.3-1.5,3.2l-21.9,21.9c3.4-7,1.3-11.7-1.4-12.7c-2.3-0.8-4.3,2.1-4.3,2.1v5.3c3.4-2.5,7.5-0.8,3.7,6.2c0,0,0,0,0,0
	c0,0,0,0,0,0c0,0.1-0.3,0.5-0.6,1.1l0,0c-0.5,0.8-1.4,1.8-2.4,2.2c-1.9,0.8-1.8-1.1,1.5-2.8c0,0-1.2-2.4-1.2-2.4s-0.9,0.4-2.1,1.5
	c-1.6,1.4-2.3,3.7-0.7,4.5c0.8,0.4,1.7,0.4,2.4,0.1c-2.3,2.1-4.2,2.1-4.2,2.1s-1.9,0.1-4.2-2.1c0.7,0.3,1.5,0.3,2.4-0.1
	c1.6-0.8,0.9-3.1-0.7-4.5c-1.3-1.1-2.1-1.5-2.1-1.5s-1.2,2.4-1.2,2.4c3.2,1.7,3.4,3.6,1.5,2.8c-1.1-0.4-1.9-1.5-2.4-2.3
	c-0.3-0.5-0.6-0.9-0.6-1.1c0,0,0,0,0,0c0,0,0,0,0,0c0,0,0,0,0,0c-3.8-7,0.3-8.7,3.7-6.2l0-5.3c0,0-2-2.9-4.3-2.1
	c-2.7,1-4.8,5.7-1.4,12.7L111.7,134c-0.9-0.9-1.4-2-1.6-3.2c0-0.2,0-0.3,0-0.4v0c0-0.3,0-1.3,0.7-2.7c0.1-0.1,0-0.2-0.1-0.1
	c-1.4,0.6-2.4,0.7-2.7,0.7c-0.1,0-0.2,0-0.4,0c-1.2-0.1-2.3-0.7-3.2-1.5l-21.9-21.9c7,3.4,11.7,1.2,12.7-1.4C96,100.9,93,99,93,99
	h-5.3c2.5,3.4,0.8,7.5-6.2,3.7c0,0,0,0,0,0h0c-0.1,0-0.5-0.3-1.1-0.6c0,0,0,0,0,0c-0.8-0.5-1.8-1.4-2.2-2.4c-0.8-1.9,1-1.8,2.8,1.5
	c0,0,2.4-1.2,2.4-1.2S83,99,81.9,97.7c-1.4-1.6-3.7-2.3-4.5-0.7c-0.4,0.8-0.4,1.6-0.1,2.4c-2.2-2.3-2.1-4.2-2.1-4.2
	S75.1,93.4,77.3,91.1z M180.2,132.5c-0.8-0.4-1.3-0.4-1.5-0.4c0,0,0,0,0,0c-0.2,0-0.7,0-1.5,0.4c0.4-0.8,0.4-1.3,0.4-1.5
	c0-0.2,0-0.7-0.4-1.5c0.8,0.4,1.3,0.4,1.5,0.4c0,0,0,0,0,0c0.1,0,0.7,0,1.5-0.4c-0.4,0.8-0.4,1.3-0.4,1.5
	C179.8,131.2,179.9,131.7,180.2,132.5z M145.2,168.9c-1.1-0.5-2-0.6-2.2-0.6c-0.2,0-1.1,0-2.2,0.6c0.5-1.1,0.6-2,0.6-2.2
	c0,0,0,0,0,0c0-0.2,0-1.1-0.6-2.2c1.1,0.5,2,0.6,2.2,0.6c0.2,0,1.1,0,2.2-0.6c-0.5,1.1-0.6,2-0.6,2.2c0,0,0,0,0,0
	C144.6,166.9,144.7,167.8,145.2,168.9z M108.8,132.5c-0.8-0.4-1.3-0.4-1.5-0.4s-0.7,0-1.5,0.4c0.4-0.8,0.4-1.3,0.4-1.5c0,0,0,0,0,0
	c0-0.2,0-0.7-0.4-1.5c0.8,0.4,1.3,0.4,1.5,0.4s0.7,0,1.5-0.4c-0.4,0.8-0.4,1.3-0.4,1.5c0,0,0,0,0,0
	C108.4,131.2,108.4,131.7,108.8,132.5z M69.4,93.1c1.1,0.5,2,0.6,2.2,0.6c0.2,0,1.1,0,2.2-0.6c-0.5,1.1-0.6,2-0.6,2.2c0,0,0,0,0,0
	c0,0.2,0,1.1,0.6,2.2c-1.1-0.5-2-0.6-2.2-0.6c-0.2,0-1.1,0-2.2,0.6c0.5-1.1,0.6-2,0.6-2.2c0,0,0,0,0,0C69.9,95,69.9,94.2,69.4,93.1z
	 M35.8,129.9C35.9,129.9,35.9,129.9,35.8,129.9c0.2,0,0.7,0,1.5-0.4c-0.4,0.8-0.4,1.3-0.4,1.5c0,0.2,0,0.7,0.4,1.5l0,0
	c-0.8-0.4-1.3-0.4-1.5-0.4c0,0,0,0,0,0c-0.1,0-0.7,0-1.5,0.4c0.4-0.8,0.4-1.3,0.4-1.5c0-0.2,0-0.7-0.4-1.5l0,0
	C35.1,129.8,35.7,129.9,35.8,129.9z M37.4,203.9c-0.8-0.3-1.3-0.4-1.5-0.4c-0.2,0-0.7,0-1.5,0.4c0.4-0.8,0.4-1.3,0.4-1.5v0
	c0-0.1,0-0.7-0.4-1.5c0.8,0.4,1.3,0.4,1.5,0.4c0.2,0,0.7,0,1.5-0.4c-0.4,0.8-0.4,1.3-0.4,1.5v0C37,202.6,37,203.1,37.4,203.9z
	 M67.4,232.4c0.7,0.3,1.6,0.3,2.4-0.1c1.6-0.8,0.9-3.1-0.7-4.5c-1.3-1.1-2.1-1.5-2.1-1.5s-1.2,2.4-1.2,2.4c3.2,1.7,3.4,3.6,1.5,2.8
	c-1.1-0.4-1.9-1.5-2.4-2.2c-0.3-0.5-0.6-1-0.6-1.1c0,0,0,0,0,0v0c0,0,0,0,0,0c0,0,0,0,0,0c-1.1-2-1.5-3.6-1.5-4.7
	c0-2.9,2.8-3.2,5.2-1.5v-5.3c0,0-2-2.9-4.3-2.1c-2.6,1-4.8,5.6-1.4,12.6l-21.9-21.9c-0.9-0.9-1.4-2-1.5-3.2c0-0.2,0-0.3,0-0.4
	c0,0,0,0,0,0c0-0.3,0-1.3,0.7-2.7c0-0.1,0-0.2-0.1-0.1c-1.4,0.6-2.4,0.7-2.7,0.7c-0.1,0-0.2,0-0.4,0c-1.2-0.1-2.3-0.7-3.2-1.6
	L11,176.1c7,3.3,11.7,1.2,12.7-1.4c0.8-2.3-2.1-4.3-2.1-4.3h-5.3c2.5,3.4,0.8,7.5-6.2,3.7c0,0,0,0,0,0c-0.1,0-0.5-0.3-1.1-0.6
	c0,0,0,0,0,0c-0.8-0.5-1.8-1.4-2.2-2.4c-0.8-1.9,1.1-1.8,2.8,1.5c0,0,2.4-1.2,2.4-1.2s-0.4-0.9-1.5-2.1c-1.4-1.6-3.7-2.3-4.5-0.7
	c-0.4,0.8-0.4,1.7-0.1,2.4c-2.1-2.3-2.1-4.2-2.1-4.2s-0.1-1.9,2.1-4.2c-0.3,0.7-0.3,1.5,0.1,2.4c0.8,1.7,3.1,0.9,4.5-0.7
	c1.1-1.3,1.5-2.1,1.5-2.1s-2.4-1.2-2.4-1.2c-1.7,3.2-3.6,3.4-2.8,1.5c0.4-1.1,1.5-1.9,2.3-2.5c0.5-0.4,1-0.6,1.1-0.6c0,0,0,0,0,0
	c2-1.1,3.6-1.5,4.7-1.5c2.9,0,3.2,2.8,1.5,5.2h5.3c0,0,2.9-2,2.1-4.3c-1-2.6-5.6-4.7-12.6-1.4l21.8-21.8c0.9-0.9,2-1.4,3.2-1.6
	c0.2,0,0.3,0,0.4,0h0c0.3,0,1.3,0,2.7,0.7c0,0,0.1,0,0.1,0c0,0,0,0,0,0c0,0,0,0,0-0.1c-0.6-1.4-0.7-2.4-0.7-2.7c0-0.1,0-0.2,0-0.4
	c0.1-1.2,0.7-2.3,1.5-3.2l21.9-21.9c-3.4,7-1.2,11.7,1.4,12.7c2.3,0.8,4.3-2.1,4.3-2.1v-5.3c-3.4,2.5-7.5,0.8-3.7-6.2c0,0,0,0,0,0
	c0,0,0,0,0,0c0,0,0,0,0,0l0,0c0-0.1,0.3-0.5,0.6-1.1v0c0.5-0.8,1.4-1.8,2.4-2.2c1.9-0.8,1.8,1.1-1.5,2.8c0,0,1.2,2.4,1.2,2.4
	s0.9-0.4,2.1-1.5c1.6-1.4,2.3-3.7,0.7-4.5c-0.8-0.4-1.7-0.4-2.4-0.1c2.3-2.2,4.2-2.1,4.2-2.1s1.9-0.1,4.2,2.1
	c-0.7-0.3-1.5-0.3-2.4,0.1c-1.6,0.8-0.9,3.1,0.7,4.5c1.3,1.1,2.1,1.5,2.1,1.5s1.2-2.4,1.2-2.4c-3.2-1.7-3.4-3.6-1.5-2.8
	c1.1,0.4,1.9,1.5,2.4,2.3c0.4,0.5,0.6,1,0.6,1.1c0,0,0,0,0,0h0c0,0,0,0,0,0c3.8,7-0.3,8.7-3.7,6.2v5.3c0,0,2,2.9,4.3,2.1
	c2.6-1,4.7-5.6,1.4-12.6l21.8,21.8c0.9,0.9,1.4,2,1.5,3.2c0,0.2,0,0.3,0,0.4c0,0,0,0,0,0c0,0.3,0,1.3-0.7,2.7c0,0.1,0,0.1,0.1,0.1
	c1.4-0.6,2.4-0.7,2.7-0.7c0.1,0,0.2,0,0.4,0c1.2,0.1,2.3,0.7,3.2,1.6l21.8,21.8c-7-3.3-11.7-1.2-12.6,1.4c-0.9,2.3,2.1,4.3,2.1,4.3
	h5.3c-2.5-3.4-0.8-7.5,6.2-3.7h0c0,0,0,0,0,0c0,0,0,0,0,0c0.1,0.1,0.5,0.3,1.1,0.6c0,0,0,0,0,0c0.8,0.5,1.8,1.4,2.2,2.4
	c0.8,1.9-1.1,1.8-2.8-1.5c0,0-2.4,1.2-2.4,1.2s0.4,0.9,1.5,2.1c1.4,1.6,3.7,2.3,4.5,0.7c0.4-0.8,0.4-1.6,0.1-2.4
	c2.1,2.3,2.1,4.2,2.1,4.2s0.1,1.9-2.1,4.2c0.3-0.7,0.3-1.5-0.1-2.4c-0.8-1.6-3.1-0.9-4.5,0.7c-1.1,1.3-1.5,2.1-1.5,2.1
	s2.4,1.2,2.4,1.2c1.7-3.2,3.6-3.4,2.8-1.5c-0.4,1.1-1.4,1.9-2.2,2.4c-0.5,0.4-1,0.6-1.1,0.6c0,0,0,0,0,0c0,0,0,0,0,0h0
	c-2,1.1-3.6,1.5-4.7,1.5c-2.9,0-3.2-2.8-1.5-5.2h-5.3c0,0-2.9,2-2.1,4.3c1,2.6,5.6,4.7,12.6,1.4L110.3,198c-0.9,0.9-2,1.4-3.2,1.5
	c-0.2,0-0.3,0-0.4,0h0c-0.3,0-1.3,0-2.7-0.7c0,0-0.1,0-0.1,0c0,0,0,0.1,0,0.1c0.6,1.4,0.7,2.4,0.7,2.7c0,0.1,0,0.2,0,0.4
	c-0.1,1.2-0.7,2.3-1.5,3.2L81,227.3c3.4-7,1.2-11.7-1.4-12.7c-2.3-0.9-4.3,2.1-4.3,2.1v5.3c3.4-2.5,7.5-0.8,3.7,6.2c0,0,0,0,0,0v0
	c0,0.1-0.3,0.5-0.6,1.1c-0.5,0.8-1.4,1.8-2.4,2.2c-1.9,0.8-1.8-1.1,1.5-2.8c0,0-1.2-2.4-1.2-2.4s-0.9,0.4-2.1,1.5
	c-1.6,1.4-2.3,3.7-0.7,4.5c0.8,0.4,1.7,0.4,2.4,0.1c-2.3,2.2-4.2,2.1-4.2,2.1S69.7,234.6,67.4,232.4z M105.8,200.9
	c0.8,0.3,1.3,0.4,1.5,0.4c0,0,0,0,0,0c0.1,0,0.7,0,1.5-0.4c-0.4,0.8-0.4,1.3-0.4,1.5c0,0.2,0,0.7,0.4,1.5l0,0
	c-0.8-0.4-1.3-0.4-1.5-0.4h0c-0.1,0-0.7,0-1.5,0.4c0.4-0.8,0.4-1.3,0.4-1.5C106.2,202.3,106.2,201.7,105.8,200.9z M73.8,240.3
	c-1.1-0.5-2-0.6-2.2-0.6c-0.2,0-1.1,0-2.2,0.6c0.5-1.1,0.6-2,0.6-2.2c0,0,0,0,0,0c0-0.2,0-1.1-0.6-2.2c1.1,0.5,2,0.6,2.2,0.6
	c0.2,0,1.1,0,2.2-0.6c-0.5,1.1-0.6,2-0.6,2.2c0,0,0,0,0,0C73.2,238.4,73.3,239.2,73.8,240.3z M108.8,275.3c-0.8-0.4-1.3-0.4-1.5-0.4
	c-0.2,0-0.7,0-1.5,0.4l0,0c0.4-0.8,0.4-1.3,0.4-1.5c0,0,0,0,0,0c0-0.2,0-0.7-0.4-1.5c0.8,0.4,1.3,0.4,1.5,0.4s0.7,0,1.5-0.4l0,0
	c-0.3,0.8-0.4,1.3-0.4,1.5v0C108.4,274,108.4,274.5,108.8,275.3z M178.7,274.9C178.7,274.9,178.7,274.9,178.7,274.9
	c-0.2,0-0.7,0-1.5,0.4c0.4-0.8,0.4-1.3,0.4-1.5c0-0.2,0-0.7-0.4-1.5l0,0c0.8,0.4,1.3,0.4,1.5,0.4c0,0,0,0,0,0c0.2,0,0.7,0,1.5-0.4
	c-0.4,0.8-0.4,1.3-0.4,1.5c0,0.2,0,0.7,0.4,1.5l0,0C179.4,275,178.9,274.9,178.7,274.9z M208.8,242.3c0.3-0.7,0.3-1.5-0.1-2.4
	c-0.8-1.7-3.1-0.9-4.5,0.7c-1.1,1.3-1.5,2.1-1.5,2.1s2.4,1.2,2.4,1.2c1.7-3.2,3.6-3.4,2.8-1.5c-0.4,1.1-1.4,1.9-2.2,2.4h0
	c-0.5,0.3-1,0.6-1.1,0.6l0,0c0,0,0,0,0,0c0,0,0,0,0,0c-2,1.1-3.6,1.5-4.7,1.5c-2.9,0-3.3-2.8-1.5-5.2H193c0,0-2.9,2-2.1,4.3
	c1,2.6,5.6,4.7,12.6,1.4l-21.8,21.8c-0.9,0.9-2,1.4-3.2,1.6c-0.2,0-0.3,0-0.4,0c0,0,0,0,0,0c-0.3,0-1.3-0.1-2.7-0.7c0,0-0.1,0-0.1,0
	c0,0,0,0.1,0,0.1c0.6,1.4,0.7,2.4,0.7,2.7c0,0.1,0,0.2,0,0.4c-0.1,1.2-0.7,2.3-1.5,3.2l-21.9,21.9c3.4-7,1.2-11.7-1.4-12.7
	c-2.3-0.8-4.3,2.1-4.3,2.1v5.3c3.4-2.5,7.5-0.8,3.7,6.2c0,0,0,0,0,0c0,0,0,0,0,0c0,0.1-0.3,0.5-0.6,1.1h0c-0.5,0.8-1.4,1.8-2.4,2.2
	c-1.9,0.8-1.8-1.1,1.5-2.8c0,0-1.2-2.4-1.2-2.4s-0.9,0.4-2.1,1.5c-1.6,1.4-2.3,3.7-0.7,4.5c0.8,0.4,1.7,0.4,2.4,0.1
	c-2.3,2.1-4.2,2.1-4.2,2.1s-1.9,0.1-4.2-2.1c0.7,0.3,1.5,0.3,2.4-0.1c1.6-0.8,0.9-3.1-0.7-4.5c-1.3-1.1-2.1-1.5-2.1-1.5
	s-1.2,2.4-1.2,2.4c3.2,1.7,3.4,3.6,1.5,2.8c-1.1-0.4-1.9-1.5-2.4-2.3c-0.3-0.5-0.6-0.9-0.6-1.1c0,0,0,0,0,0c0,0,0,0,0,0c0,0,0,0,0,0
	c-1.1-2-1.5-3.6-1.5-4.7c0-2.9,2.8-3.2,5.2-1.5l0-5.3c0,0-2-2.9-4.3-2.1c-2.6,1-4.7,5.6-1.4,12.6l-21.8-21.8c-0.9-0.9-1.4-2-1.5-3.2
	c0-0.2,0-0.3,0-0.4c0,0,0,0,0,0c0-0.3,0-1.3,0.7-2.7c0,0,0-0.1,0-0.1c0,0-0.1,0-0.1,0c-1.4,0.6-2.4,0.7-2.7,0.7c-0.1,0-0.2,0-0.4,0
	c-1.2-0.1-2.3-0.7-3.2-1.5l-21.9-21.9c7,3.3,11.7,1.2,12.6-1.4c0.9-2.3-2.1-4.3-2.1-4.3h-5.3c2.5,3.4,0.8,7.5-6.2,3.7v0c0,0,0,0,0,0
	h0c-0.1,0-0.5-0.3-1.1-0.6c-0.8-0.5-1.8-1.4-2.2-2.4c-0.8-1.9,1-1.8,2.8,1.5c0,0,2.4-1.2,2.4-1.2s-0.4-0.9-1.5-2.1
	c-1.4-1.6-3.7-2.3-4.5-0.7c-0.4,0.8-0.4,1.7-0.1,2.4c-2.2-2.3-2.1-4.2-2.1-4.2s-0.1-1.9,2.1-4.2c-0.3,0.7-0.3,1.5,0.1,2.4
	c0.8,1.6,3.1,0.9,4.5-0.7c1.1-1.3,1.5-2.1,1.5-2.1s-2.4-1.2-2.4-1.2c-1.7,3.2-3.6,3.4-2.8,1.5c0.4-1.1,1.5-1.9,2.2-2.4
	c0.6-0.4,1-0.6,1.1-0.6c0,0,0,0,0,0c2-1.1,3.6-1.5,4.7-1.5c2.9,0,3.2,2.8,1.5,5.2H93c0,0,2.9-2,2.1-4.3c-1-2.6-5.6-4.7-12.6-1.4
	l21.8-21.8c0.9-0.9,2-1.4,3.2-1.5c0.2,0,0.3,0,0.4,0c0,0,0,0,0,0c0.3,0,1.3,0,2.7,0.7c0,0,0.1,0,0.1,0c0,0,0-0.1,0-0.1
	c-0.6-1.4-0.7-2.4-0.7-2.7c0-0.1,0-0.2,0-0.4c0.1-1.2,0.7-2.3,1.6-3.2l21.9-21.9c-3.4,7-1.2,11.7,1.4,12.7c2.3,0.9,4.3-2.1,4.3-2.1
	l0-5.3c-3.4,2.5-7.5,0.8-3.7-6.2v0c0,0,0,0,0,0c0,0,0,0,0,0c0.1-0.1,0.3-0.5,0.6-1.1c0.5-0.8,1.4-1.8,2.4-2.2
	c1.9-0.8,1.8,1.1-1.5,2.8c0,0,1.2,2.4,1.2,2.4s0.9-0.4,2.1-1.5c1.6-1.4,2.3-3.7,0.7-4.5c-0.8-0.4-1.7-0.4-2.4-0.1
	c2.3-2.1,4.2-2.1,4.2-2.1s1.9-0.1,4.2,2.1c-0.7-0.3-1.5-0.3-2.4,0.1c-1.7,0.8-0.9,3.1,0.7,4.5c1.3,1.1,2.1,1.5,2.1,1.5
	s1.2-2.4,1.2-2.4c-3.2-1.7-3.4-3.6-1.5-2.8c1.1,0.4,1.9,1.5,2.5,2.3c0.4,0.5,0.6,1,0.6,1.1c0,0,0,0,0,0v0c1.1,2,1.5,3.6,1.5,4.7
	c0,2.9-2.8,3.2-5.2,1.5v5.3c0,0,2,2.9,4.3,2.1c2.6-1,4.7-5.6,1.4-12.6l21.8,21.8c0.9,0.9,1.4,2,1.6,3.2c0,0.2,0,0.3,0,0.4v0
	c0,0.3,0,1.3-0.7,2.7c0,0,0,0.1,0,0.1c0,0,0.1,0,0.1,0c1.4-0.6,2.4-0.7,2.7-0.7c0.1,0,0.2,0,0.4,0c1.2,0.1,2.3,0.7,3.2,1.6
	l21.9,21.9c-7-3.4-11.7-1.2-12.7,1.4c-0.8,2.3,2.1,4.3,2.1,4.3h5.3c-2.5-3.4-0.8-7.5,6.2-3.7h0c0,0,0,0,0,0c0,0,0,0,0,0s0,0,0,0
	c0.1,0,0.5,0.3,1.1,0.6c0,0,0,0,0,0c0.8,0.5,1.8,1.4,2.2,2.4c0.8,1.9-1.1,1.8-2.8-1.5c0,0-2.4,1.2-2.4,1.2s0.4,0.9,1.5,2.1
	c1.4,1.6,3.7,2.3,4.5,0.7c0.4-0.8,0.4-1.7,0.1-2.4c2.2,2.3,2.1,4.2,2.1,4.2S210.9,240,208.8,242.3z M180.2,203.9
	c-0.8-0.4-1.3-0.4-1.5-0.4c-0.2,0-0.7,0-1.5,0.4c0.3-0.7,0.4-1.3,0.4-1.5c0,0,0,0,0,0c0-0.1,0-0.7-0.4-1.5c0.8,0.4,1.3,0.4,1.5,0.4
	c0.2,0,0.7,0,1.5-0.4l0,0c-0.4,0.8-0.4,1.3-0.4,1.5v0C179.8,202.6,179.9,203.1,180.2,203.9z M216.6,240.3c-1.1-0.5-2-0.6-2.2-0.6
	c-0.2,0-1.1,0-2.2,0.6c0.5-1.1,0.6-2,0.6-2.2c0,0,0,0,0,0c0-0.2,0-1.1-0.6-2.2c1.1,0.5,2,0.6,2.2,0.6c0.2,0,1.1,0,2.2-0.6
	c-0.5,1.1-0.6,2-0.6,2.2c0,0,0,0,0,0C216.1,238.4,216.1,239.2,216.6,240.3z M251.6,203.9c-0.8-0.3-1.3-0.4-1.5-0.4h0
	c-0.1,0-0.7,0-1.5,0.4c0.4-0.8,0.4-1.3,0.4-1.5c0-0.2,0-0.7-0.4-1.5c0.8,0.4,1.3,0.4,1.5,0.4h0c0.2,0,0.7,0,1.5-0.4
	c-0.3,0.8-0.4,1.3-0.4,1.5C251.3,202.6,251.3,203.1,251.6,203.9z M248.7,129.5c0.8,0.4,1.3,0.4,1.5,0.4s0.7,0,1.5-0.4l0,0
	c-0.4,0.8-0.4,1.3-0.4,1.5c0,0,0,0,0,0c0,0.2,0,0.7,0.4,1.5c-0.8-0.4-1.3-0.4-1.5-0.4c-0.2,0-0.7,0-1.5,0.4l0,0
	c0.3-0.8,0.4-1.3,0.4-1.5c0,0,0,0,0,0C249,130.8,249,130.3,248.7,129.5z M218.6,101c-0.7-0.3-1.5-0.3-2.4,0.1
	c-1.6,0.8-0.9,3.1,0.7,4.5c1.3,1.1,2.1,1.5,2.1,1.5s1.2-2.4,1.2-2.4c-3.2-1.7-3.4-3.6-1.5-2.8c1.1,0.4,1.9,1.5,2.4,2.3
	c0.4,0.5,0.6,1,0.6,1.1c0,0,0,0,0,0c0,0,0,0,0,0c0,0,0,0,0,0c3.8,7-0.3,8.7-3.7,6.2v5.3c0,0,2,2.9,4.3,2.1c2.6-1,4.8-5.6,1.4-12.7
	l21.9,21.9c0.9,0.9,1.4,2,1.5,3.2c0,0.2,0,0.3,0,0.4c0,0,0,0,0,0c0,0.3,0,1.3-0.7,2.7c0,0,0,0.1,0,0.1c0,0,0.1,0,0.1,0
	c1.4-0.6,2.4-0.7,2.7-0.7c0.1,0,0.2,0,0.4,0c1.2,0.1,2.3,0.7,3.2,1.5l21.9,21.9c-7-3.4-11.8-1.3-12.7,1.4c-0.9,2.3,2.1,4.3,2.1,4.3
	h5.3c-2.5-3.4-0.8-7.5,6.2-3.7c0,0,0,0,0,0s0,0,0,0c0,0,0,0,0,0c0.1,0.1,0.5,0.3,1.1,0.6c0,0,0,0,0,0c0.8,0.5,1.8,1.4,2.2,2.4
	c0.8,1.9-1.1,1.8-2.8-1.5c0,0-2.4,1.2-2.4,1.2s0.4,0.9,1.5,2.1c1.4,1.6,3.7,2.3,4.5,0.7c0.4-0.8,0.4-1.6,0.1-2.4
	c2.1,2.3,2.1,4.2,2.1,4.2s0.1,1.9-2.1,4.2c0.3-0.7,0.3-1.5-0.1-2.4c-0.8-1.6-3.1-0.9-4.5,0.7c-1.1,1.3-1.5,2.1-1.5,2.1
	s2.4,1.2,2.4,1.2c1.7-3.2,3.6-3.4,2.8-1.5c-0.4,1.1-1.4,1.9-2.2,2.4c-0.5,0.4-1,0.6-1.1,0.6c0,0,0,0,0,0c0,0,0,0,0,0h0
	c-2,1.1-3.6,1.5-4.7,1.5c-2.9,0-3.2-2.8-1.5-5.2h-5.3c0,0-2.9,2-2.1,4.3c1,2.6,5.6,4.7,12.7,1.4L253.1,198c-0.9,0.9-2,1.4-3.2,1.5
	c-0.2,0-0.3,0-0.4,0c0,0,0,0,0,0c-0.3,0-1.3,0-2.7-0.7c-0.1,0-0.2,0-0.1,0.1c0.6,1.4,0.7,2.4,0.7,2.7c0,0.1,0,0.2,0,0.4
	c-0.1,1.2-0.7,2.3-1.6,3.2l-21.9,21.9c3.3-7,1.2-11.7-1.4-12.7c-2.3-0.9-4.3,2.1-4.3,2.1v5.3c3.4-2.5,7.5-0.8,3.7,6.2c0,0,0,0,0,0v0
	l0,0.1c0,0,0,0,0,0.1c-0.1,0.2-0.3,0.5-0.6,0.9c-0.5,0.8-1.4,1.8-2.4,2.2c-1.9,0.8-1.8-1.1,1.5-2.8c0,0-1.2-2.4-1.2-2.4
	s-0.9,0.4-2.1,1.5c-1.6,1.4-2.3,3.7-0.7,4.5c0.8,0.4,1.7,0.4,2.4,0.1c-2.3,2.2-4.2,2.1-4.2,2.1s-1.9,0.1-4.2-2.1
	c0.7,0.3,1.5,0.3,2.4-0.1c1.7-0.8,0.9-3.1-0.7-4.5c-1.3-1.1-2.1-1.5-2.1-1.5s-1.2,2.4-1.2,2.4c3.2,1.7,3.4,3.6,1.5,2.8
	c-1.1-0.4-1.9-1.5-2.5-2.2c-0.3-0.5-0.6-1-0.6-1.1c0,0,0,0,0,0v0c0,0,0,0,0,0c-1.1-2-1.5-3.6-1.5-4.7c0-2.9,2.8-3.2,5.2-1.5v-5.3
	c0,0-2-2.9-4.3-2.1c-2.6,1-4.7,5.6-1.4,12.6l-21.8-21.8c-0.9-0.9-1.4-2-1.6-3.2c0-0.2,0-0.3,0-0.4v0c0-0.3,0-1.3,0.7-2.7
	c0,0,0-0.1,0-0.1c0,0-0.1,0-0.1,0c-1.4,0.6-2.4,0.7-2.7,0.7c-0.1,0-0.2,0-0.4,0c-1.2-0.1-2.3-0.7-3.2-1.6l-21.9-21.9
	c7,3.4,11.7,1.2,12.7-1.4c0.8-2.3-2.1-4.3-2.1-4.3h-5.3c2.5,3.4,0.8,7.5-6.2,3.7h0c0,0,0,0,0,0c0,0,0,0,0,0c-0.1,0-0.5-0.3-1.1-0.6
	h0c-0.8-0.5-1.8-1.4-2.2-2.4c-0.8-1.9,1.1-1.8,2.8,1.5c0,0,2.4-1.2,2.4-1.2s-0.4-0.9-1.5-2.1c-1.4-1.6-3.7-2.3-4.5-0.7
	c-0.4,0.8-0.4,1.7-0.1,2.4c-2.1-2.3-2.1-4.2-2.1-4.2s-0.1-1.9,2.1-4.2c-0.3,0.7-0.3,1.5,0.1,2.4c0.8,1.7,3.1,0.9,4.5-0.7
	c1.1-1.3,1.5-2.1,1.5-2.1s-2.4-1.2-2.4-1.2c-1.7,3.2-3.6,3.4-2.8,1.5c0.4-1.1,1.5-1.9,2.3-2.5c0.5-0.4,1-0.6,1.1-0.6
	c2-1.1,3.6-1.5,4.7-1.5c2.9,0,3.2,2.8,1.5,5.2h5.3c0,0,2.9-2,2.1-4.3c-1-2.6-5.6-4.7-12.6-1.4l21.8-21.8c0.9-0.9,2-1.4,3.2-1.6
	c0.2,0,0.3,0,0.4,0c0,0,0,0,0,0c0.3,0,1.3,0,2.7,0.7c0.1,0,0.1,0,0.1-0.1c-0.6-1.4-0.7-2.4-0.7-2.7c0-0.1,0-0.2,0-0.4
	c0.1-1.2,0.7-2.3,1.6-3.2l21.8-21.8c-3.3,7-1.2,11.6,1.4,12.6c2.3,0.8,4.3-2.1,4.3-2.1v-5.3c-3.4,2.5-7.5,0.8-3.7-6.2c0,0,0,0,0,0
	s0,0,0,0c0,0,0,0,0,0c0.1-0.1,0.3-0.5,0.6-1.1v0c0.5-0.8,1.4-1.8,2.4-2.2c1.9-0.8,1.8,1.1-1.5,2.8c0,0,1.2,2.4,1.2,2.4
	s0.9-0.4,2.1-1.5c1.6-1.4,2.3-3.7,0.7-4.5c-0.8-0.4-1.7-0.4-2.4-0.1c2.3-2.2,4.2-2.1,4.2-2.1S216.3,98.8,218.6,101z M250.2,60.7
	L250.2,60.7c-0.2,0-0.7,0-1.5,0.4c0.4-0.8,0.4-1.3,0.4-1.5c0-0.2,0-0.7-0.4-1.5l0,0c0.8,0.4,1.3,0.4,1.5,0.4h0c0.1,0,0.7,0,1.5-0.4
	c-0.4,0.8-0.4,1.3-0.4,1.5c0,0.2,0,0.7,0.4,1.5l0,0C250.9,60.7,250.3,60.7,250.2,60.7z"/>
</svg>
